M48
;Layer_Color=9474304
;FILE_FORMAT=4:2
METRIC,LZ
;TYPE=PLATED
T2F00S00C3.20
%
T02
X00817Y00418
X00889Y00482
X01025Y00418
X01099Y00483
Y00685
X01025Y0062
X00889Y00684
X00817Y0062
X0068Y00685
X00609Y0062
X00472Y00683
X00401Y0062
Y00418
X00472Y00481
X00609Y00418
X0068Y00483
Y00887
X00609Y00822
X00472Y00885
X00401Y00822
Y01024
X00472Y01087
X00609Y01024
X0068Y01089
X00817Y01024
X00889Y01088
X01025Y01024
X01099Y01089
Y00887
X01025Y00822
X00889Y00886
X00817Y00822
M30
