M48
;Layer_Color=9474304
;FILE_FORMAT=4:2
METRIC,LZ
;TYPE=PLATED
T1F00S00C1.00
%
G90
G05
T01
G00X00354Y00349
M15
G01X00514
M16
G00X00562Y00349
M15
G01X00722
M16
G00X0077Y00349
M15
G01X0093
M16
G00X00978Y00349
M15
G01X01138
M16
G00X01165Y00371
M15
G01Y00531
M16
G00X011449Y003661
M15
G01X009751Y005359
M16
G00X00957Y0037
M15
G01Y0053
M16
G00X009369Y003661
M15
G01X007671Y005359
M16
G00X00775Y00552
M15
G01X00935
M16
G00X009369Y005681
M15
G01X007671Y007379
M16
G00X00775Y00754
M15
G01X00935
M16
G00X00957Y00572
M15
G01Y00732
M16
G00X011449Y005681
M15
G01X009751Y007379
M16
G00X00983Y00552
M15
G01X01143
M16
G00X00983Y00754
M15
G01X01143
M16
G00X01165Y00573
M15
G01Y00733
M16
G00X00749Y00572
M15
G01Y00732
M16
G00X007289Y005681
M15
G01X005591Y007379
M16
G00X00567Y00552
M15
G01X00727
M16
G00X007289Y003661
M15
G01X005591Y005359
M16
G00X00541Y0037
M15
G01Y0053
M16
G00X005209Y003661
M15
G01X003511Y005359
M16
G00X00359Y00552
M15
G01X00519
M16
G00X005209Y005681
M15
G01X003511Y007379
M16
G00X00359Y00754
M15
G01X00519
M16
G00X00541Y00572
M15
G01Y00732
M16
G00X00567Y00754
M15
G01X00727
M16
G00X00749Y0037
M15
G01Y0053
M16
G00X00332Y00369
M15
G01Y00529
M16
G00X00332Y00571
M15
G01Y00731
M16
G00X00332Y00773
M15
G01Y00933
M16
G00X00332Y00975
M15
G01Y01135
M16
G00X0036Y01159
M15
G01X0052
M16
G00X005209Y009721
M15
G01X003511Y011419
M16
G00X00359Y00956
M15
G01X00519
M16
G00X005209Y007701
M15
G01X003511Y009399
M16
G00X00541Y00774
M15
G01Y00934
M16
G00X007289Y007701
M15
G01X005591Y009399
M16
G00X00567Y00956
M15
G01X00727
M16
G00X007289Y009721
M15
G01X005591Y011419
M16
G00X00541Y00976
M15
G01Y01136
M16
G00X00749Y00976
M15
G01Y01136
M16
G00X00749Y00774
M15
G01Y00934
M16
G00X00568Y01159
M15
G01X00728
M16
G00X00776Y01159
M15
G01X00936
M16
G00X009369Y009721
M15
G01X007671Y011419
M16
G00X00775Y00956
M15
G01X00935
M16
G00X009369Y007701
M15
G01X007671Y009399
M16
G00X00957Y00774
M15
G01Y00934
M16
G00X011449Y007701
M15
G01X009751Y009399
M16
G00X00983Y00956
M15
G01X01143
M16
G00X011449Y009721
M15
G01X009751Y011419
M16
G00X00957Y00976
M15
G01Y01136
M16
G00X01165Y00977
M15
G01Y01137
M16
G00X01165Y00775
M15
G01Y00935
M16
G00X00984Y01159
M15
G01X01144
M16
M17
M30
