M48
;Layer_Color=9474304
;FILE_FORMAT=4:4
METRIC,LZ
;TYPE=PLATED
T1F00S00C0.7000
T2F00S00C0.7112
T3F00S00C0.7620
T6F00S00C0.9000
T7F00S00C1.0000
T8F00S00C1.1000
T9F00S00C1.5000
T10F00S00C3.3000
%
T01
X002Y0019
Y00235
X00245
Y002125
Y0019
X00248Y0027725
X00235Y004175
X0019
Y0044
Y004625
X00235
X0050975Y004677
T02
X009735Y00031
Y00056
Y00081
Y00106
Y00131
Y00155
X00575Y0003
X00475
X00425
X0032425Y000285
X000245Y00044
Y00069
Y00094
Y00119
Y00144
Y00168
Y00529
Y00554
Y00579
Y00604
Y00629
Y00653
X009695
Y00629
Y00604
Y00579
Y00554
Y00529
T03
X0071125Y000445
X0073625
T06
X0062475Y0007725
Y0012725
X006875Y001225
X007225Y00125
X007221Y001727
X006875Y001725
X007Y00227
Y002675
X006
Y00227
X007475Y001854
Y0016
X0079535Y001717
X0082075Y001844
Y00159
X008225Y00125
X008685Y0006375
X007685
X0078Y00205
X00816546Y002405
X00851546
X009006Y0017025
X00926
X004995Y001735
X005Y001975
X004575Y001575
X0045Y002345
X004
X003704Y00235
X00345
X003577Y002096
X003575Y001575
Y001225
X004075
X00379Y0008225
X00279
X002785Y0005475
X001785
X002375Y001525
X00305Y00185
Y00235
X004Y001975
X004995Y000735
X001375Y001525
X0014775Y002025
Y002225
X00145Y004125
X00145Y004625
X00145Y0051
X00145Y0056
X00262Y00582
X00312
X00347Y00592
Y00642
X00311Y00644
X002856
X002983Y006186
X0033975Y0050575
X0033925Y0047675
X0041025
X0041075Y0050575
X0043475Y00408
X0042475Y00352
X00385Y00305
X00385Y00275
X00335
Y00305
X0027225Y003025
Y003525
X005275Y0035
X00528Y00379
X0051Y00407
X00527Y00295
X00627
X00658Y00306
X00678
X006894Y003493
Y003747
X00664Y00362
X006275Y003625
Y003371
X006021Y003498
X005775Y0035
X00578Y00379
X0061Y00407
X00635Y004075
X00735
X00757Y00407
X0079225Y00407
Y00387
X0078Y00355
X0078Y00305
X00757Y00307
X0073075Y00327
Y00277
X0080335Y0030995
X0082875Y0032265
Y0029725
X0088Y00355
X00924Y003575
X0093525Y004125
X0083525
X00959Y003575
T07
X00237Y001235
X00137
T08
X00387Y006173
Y006427
T09
X0095125Y00203
X0097625
X0090125Y00253
X0095125Y00303
X0097625
T10
X0091725Y0003525
X000825Y000355
X00081767Y00665046
X00918Y006645
M30
