G04*
G04 #@! TF.GenerationSoftware,Altium Limited,Altium Designer,21.0.8 (223)*
G04*
G04 Layer_Physical_Order=2*
G04 Layer_Color=9720587*
%FSLAX44Y44*%
%MOMM*%
G71*
G04*
G04 #@! TF.SameCoordinates,817B6129-E2F9-410E-B20C-35ABB6862B10*
G04*
G04*
G04 #@! TF.FilePolarity,Positive*
G04*
G01*
G75*
%ADD17R,4.5000X20.0000*%
%ADD18R,4.5000X17.0000*%
%ADD37C,0.8000*%
%ADD38C,1.8000*%
%ADD39C,1.5240*%
G04:AMPARAMS|DCode=40|XSize=1.5mm|YSize=1.5mm|CornerRadius=0.375mm|HoleSize=0mm|Usage=FLASHONLY|Rotation=45.000|XOffset=0mm|YOffset=0mm|HoleType=Round|Shape=RoundedRectangle|*
%AMROUNDEDRECTD40*
21,1,1.5000,0.7500,0,0,45.0*
21,1,0.7500,1.5000,0,0,45.0*
1,1,0.7500,0.5303,0.0000*
1,1,0.7500,0.0000,-0.5303*
1,1,0.7500,-0.5303,0.0000*
1,1,0.7500,0.0000,0.5303*
%
%ADD40ROUNDEDRECTD40*%
%ADD41C,2.0000*%
%ADD42C,6.0000*%
G04:AMPARAMS|DCode=43|XSize=2mm|YSize=2mm|CornerRadius=0.5mm|HoleSize=0mm|Usage=FLASHONLY|Rotation=0.000|XOffset=0mm|YOffset=0mm|HoleType=Round|Shape=RoundedRectangle|*
%AMROUNDEDRECTD43*
21,1,2.0000,1.0000,0,0,0.0*
21,1,1.0000,2.0000,0,0,0.0*
1,1,1.0000,0.5000,-0.5000*
1,1,1.0000,-0.5000,-0.5000*
1,1,1.0000,-0.5000,0.5000*
1,1,1.0000,0.5000,0.5000*
%
%ADD43ROUNDEDRECTD43*%
G04:AMPARAMS|DCode=44|XSize=1.8mm|YSize=1.8mm|CornerRadius=0.45mm|HoleSize=0mm|Usage=FLASHONLY|Rotation=270.000|XOffset=0mm|YOffset=0mm|HoleType=Round|Shape=RoundedRectangle|*
%AMROUNDEDRECTD44*
21,1,1.8000,0.9000,0,0,270.0*
21,1,0.9000,1.8000,0,0,270.0*
1,1,0.9000,-0.4500,-0.4500*
1,1,0.9000,-0.4500,0.4500*
1,1,0.9000,0.4500,0.4500*
1,1,0.9000,0.4500,-0.4500*
%
%ADD44ROUNDEDRECTD44*%
%ADD45C,1.2000*%
%ADD46O,1.5000X3.0000*%
%ADD47O,3.0000X1.5000*%
%ADD48O,1.8000X1.5000*%
%ADD49O,1.5000X1.8000*%
%ADD50C,1.7000*%
G04:AMPARAMS|DCode=51|XSize=5mm|YSize=2mm|CornerRadius=0.8mm|HoleSize=0mm|Usage=FLASHONLY|Rotation=180.000|XOffset=0mm|YOffset=0mm|HoleType=Round|Shape=RoundedRectangle|*
%AMROUNDEDRECTD51*
21,1,5.0000,0.4000,0,0,180.0*
21,1,3.4000,2.0000,0,0,180.0*
1,1,1.6000,-1.7000,0.2000*
1,1,1.6000,1.7000,0.2000*
1,1,1.6000,1.7000,-0.2000*
1,1,1.6000,-1.7000,-0.2000*
%
%ADD51ROUNDEDRECTD51*%
G04:AMPARAMS|DCode=52|XSize=5mm|YSize=2mm|CornerRadius=0.8mm|HoleSize=0mm|Usage=FLASHONLY|Rotation=90.000|XOffset=0mm|YOffset=0mm|HoleType=Round|Shape=RoundedRectangle|*
%AMROUNDEDRECTD52*
21,1,5.0000,0.4000,0,0,90.0*
21,1,3.4000,2.0000,0,0,90.0*
1,1,1.6000,0.2000,1.7000*
1,1,1.6000,0.2000,-1.7000*
1,1,1.6000,-0.2000,-1.7000*
1,1,1.6000,-0.2000,1.7000*
%
%ADD52ROUNDEDRECTD52*%
%ADD53C,1.2700*%
%ADD54R,3.0000X3.0000*%
%ADD55C,3.0000*%
G36*
X886577Y673003D02*
X885761Y669606D01*
X885674Y668500D01*
X918000D01*
Y664500D01*
X922000D01*
Y632174D01*
X923106Y632261D01*
X928086Y633457D01*
X932819Y635417D01*
X937186Y638093D01*
X941080Y641420D01*
X944407Y645314D01*
X946690Y649040D01*
X947960Y648682D01*
Y599000D01*
X973000D01*
Y591000D01*
X947960D01*
Y492460D01*
X975724D01*
Y313057D01*
X973629Y312782D01*
X971187Y311770D01*
X969089Y310161D01*
X967480Y308063D01*
X966468Y305621D01*
X966123Y303000D01*
X966468Y300379D01*
X967480Y297937D01*
X969089Y295839D01*
X971187Y294230D01*
X973629Y293218D01*
X975724Y292943D01*
Y213057D01*
X973629Y212782D01*
X971187Y211770D01*
X969089Y210161D01*
X967480Y208063D01*
X966468Y205621D01*
X966123Y203000D01*
X966468Y200379D01*
X967480Y197937D01*
X969089Y195839D01*
X971187Y194230D01*
X973629Y193218D01*
X975724Y192943D01*
Y177540D01*
X947960D01*
Y94000D01*
X973000D01*
Y86000D01*
X947960D01*
Y49396D01*
X946714Y49148D01*
X946333Y50068D01*
X943657Y54436D01*
X940330Y58330D01*
X936436Y61657D01*
X932068Y64333D01*
X927337Y66293D01*
X922356Y67489D01*
X921250Y67576D01*
Y35250D01*
X917250D01*
Y31250D01*
X884924D01*
X885011Y30144D01*
X886181Y25270D01*
X886143Y24894D01*
X885546Y24000D01*
X642540D01*
Y34138D01*
X642625Y35000D01*
X642540Y35862D01*
Y37540D01*
X642375D01*
X642286Y38438D01*
X641283Y41745D01*
X639655Y44792D01*
X637463Y47463D01*
X634792Y49654D01*
X631745Y51283D01*
X631346Y51404D01*
Y67766D01*
X632980Y69020D01*
X634830Y71430D01*
X635993Y74237D01*
X636390Y77250D01*
X635993Y80262D01*
X634830Y83070D01*
X632980Y85480D01*
X630570Y87330D01*
X627762Y88493D01*
X624750Y88890D01*
X621737Y88493D01*
X618930Y87330D01*
X616520Y85480D01*
X614670Y83070D01*
X613507Y80262D01*
X613110Y77250D01*
X613507Y74237D01*
X614670Y71430D01*
X616520Y69020D01*
X618154Y67766D01*
Y51229D01*
X615208Y49654D01*
X612537Y47463D01*
X610345Y44792D01*
X608717Y41745D01*
X607714Y38438D01*
X607625Y37540D01*
X607460D01*
Y35862D01*
X607375Y35000D01*
X607460Y34138D01*
Y24000D01*
X592540D01*
Y34138D01*
X592625Y35000D01*
X592540Y35862D01*
Y37540D01*
X592375D01*
X592286Y38438D01*
X591283Y41745D01*
X589655Y44792D01*
X587463Y47463D01*
X584792Y49654D01*
X581745Y51283D01*
X578438Y52286D01*
X575000Y52625D01*
X571562Y52286D01*
X568255Y51283D01*
X565208Y49654D01*
X562537Y47463D01*
X560345Y44792D01*
X558717Y41745D01*
X557714Y38438D01*
X557625Y37540D01*
X557460D01*
Y35862D01*
X557375Y35000D01*
X557460Y34138D01*
Y24000D01*
X542540D01*
Y31000D01*
X525000D01*
X507460D01*
Y24000D01*
X492540Y24000D01*
Y34138D01*
X492625Y35000D01*
X492540Y35862D01*
Y37540D01*
X492375D01*
X492286Y38438D01*
X491283Y41745D01*
X489655Y44792D01*
X487463Y47463D01*
X484792Y49654D01*
X481745Y51283D01*
X478438Y52286D01*
X475000Y52625D01*
X471562Y52286D01*
X468255Y51283D01*
X465208Y49654D01*
X462537Y47463D01*
X460345Y44792D01*
X458717Y41745D01*
X457714Y38438D01*
X457625Y37540D01*
X457460D01*
Y35862D01*
X457375Y35000D01*
X457460Y34138D01*
Y24000D01*
X442540D01*
Y34138D01*
X442625Y35000D01*
X442540Y35862D01*
Y37540D01*
X442375D01*
X442286Y38438D01*
X441283Y41745D01*
X439655Y44792D01*
X437463Y47463D01*
X434792Y49654D01*
X431745Y51283D01*
X428438Y52286D01*
X425000Y52625D01*
X421562Y52286D01*
X418255Y51283D01*
X415208Y49654D01*
X412537Y47463D01*
X410345Y44792D01*
X408717Y41745D01*
X407714Y38438D01*
X407625Y37540D01*
X407460D01*
Y35862D01*
X407375Y35000D01*
X407460Y34138D01*
Y24000D01*
X392540D01*
Y34138D01*
X392625Y35000D01*
X392540Y35862D01*
Y37540D01*
X392375D01*
X392286Y38438D01*
X391283Y41745D01*
X391210Y41881D01*
X410725Y61396D01*
X410779Y61466D01*
X413563Y63751D01*
X416818Y65491D01*
X420349Y66562D01*
X423934Y66915D01*
X424021Y66904D01*
X490016D01*
X491270Y65270D01*
X493680Y63420D01*
X496487Y62257D01*
X499500Y61860D01*
X502513Y62257D01*
X505320Y63420D01*
X507730Y65270D01*
X509580Y67680D01*
X510743Y70487D01*
X511139Y73500D01*
X510743Y76512D01*
X509580Y79320D01*
X507730Y81730D01*
X505320Y83580D01*
X502513Y84743D01*
X499500Y85140D01*
X496487Y84743D01*
X493680Y83580D01*
X491270Y81730D01*
X490016Y80096D01*
X424021D01*
Y80139D01*
X419009Y79744D01*
X414120Y78571D01*
X409476Y76647D01*
X405189Y74020D01*
X401366Y70755D01*
X401396Y70725D01*
X381881Y51210D01*
X381745Y51283D01*
X378438Y52286D01*
X375000Y52625D01*
X371562Y52286D01*
X368255Y51283D01*
X365208Y49654D01*
X362537Y47463D01*
X360345Y44792D01*
X358717Y41745D01*
X357714Y38438D01*
X357625Y37540D01*
X357460D01*
Y35862D01*
X357375Y35000D01*
X357460Y34138D01*
Y24000D01*
X341540D01*
Y34138D01*
X341625Y35000D01*
X341540Y35862D01*
Y37540D01*
X341375D01*
X341286Y38438D01*
X340283Y41745D01*
X338655Y44792D01*
X336463Y47463D01*
X333792Y49654D01*
X330745Y51283D01*
X327439Y52286D01*
X324000Y52625D01*
X320562Y52286D01*
X317255Y51283D01*
X314208Y49654D01*
X311537Y47463D01*
X309345Y44792D01*
X307717Y41745D01*
X306714Y38438D01*
X306625Y37540D01*
X306460D01*
Y35862D01*
X306375Y35000D01*
X306460Y34138D01*
Y24000D01*
X114101D01*
X113395Y25056D01*
X113543Y25414D01*
X114739Y30394D01*
X114826Y31500D01*
X82500D01*
Y35500D01*
X78500D01*
Y67826D01*
X77394Y67739D01*
X72413Y66543D01*
X67681Y64583D01*
X63314Y61907D01*
X59419Y58580D01*
X56093Y54686D01*
X54310Y51776D01*
X53040Y52134D01*
Y102000D01*
X28000D01*
Y110000D01*
X53040D01*
Y208540D01*
X25724D01*
X25724Y493460D01*
X52040D01*
Y592000D01*
X27000D01*
Y600000D01*
X52040D01*
Y648848D01*
X53310Y649207D01*
X55360Y645861D01*
X58687Y641966D01*
X62582Y638640D01*
X66949Y635963D01*
X71681Y634003D01*
X76661Y632808D01*
X77767Y632721D01*
Y665046D01*
X81767D01*
Y669046D01*
X114093D01*
X114006Y670153D01*
X113322Y673003D01*
X114108Y674000D01*
X157460D01*
Y665862D01*
X157375Y665000D01*
X157460Y664138D01*
Y662460D01*
X157625D01*
X157714Y661562D01*
X158717Y658255D01*
X160345Y655208D01*
X162537Y652537D01*
X165208Y650346D01*
X168255Y648717D01*
X168403Y648672D01*
Y600521D01*
X168415Y600434D01*
X168062Y596849D01*
X166991Y593317D01*
X165251Y590063D01*
X162966Y587278D01*
X162896Y587225D01*
X147042Y571371D01*
X145000Y571640D01*
X141987Y571243D01*
X139180Y570080D01*
X136770Y568230D01*
X134920Y565820D01*
X133757Y563013D01*
X133361Y560000D01*
X133757Y556987D01*
X134920Y554180D01*
X136770Y551770D01*
X139180Y549920D01*
X141987Y548757D01*
X145000Y548360D01*
X148013Y548757D01*
X150820Y549920D01*
X153230Y551770D01*
X155080Y554180D01*
X156243Y556987D01*
X156640Y560000D01*
X156371Y562042D01*
X172225Y577896D01*
X172255Y577866D01*
X175520Y581689D01*
X178147Y585976D01*
X180071Y590620D01*
X181244Y595509D01*
X181639Y600521D01*
X181596D01*
Y648672D01*
X181745Y648717D01*
X184792Y650346D01*
X187463Y652537D01*
X189655Y655208D01*
X191283Y658255D01*
X192286Y661562D01*
X192375Y662460D01*
X192540D01*
Y664138D01*
X192625Y665000D01*
X192540Y665862D01*
Y674000D01*
X207460D01*
Y669000D01*
X242540D01*
Y674000D01*
X639710D01*
Y667362D01*
X639625Y666500D01*
X639710Y665638D01*
Y663960D01*
X639875D01*
X639964Y663062D01*
X640967Y659755D01*
X641040Y659619D01*
X636280Y654858D01*
X636226Y654789D01*
X633441Y652503D01*
X630187Y650764D01*
X626656Y649693D01*
X623071Y649339D01*
X622983Y649351D01*
X535400D01*
Y649393D01*
X530388Y648999D01*
X525499Y647825D01*
X520855Y645901D01*
X516568Y643274D01*
X512745Y640009D01*
X510635Y637539D01*
X509365D01*
X507255Y640009D01*
X503432Y643274D01*
X499145Y645901D01*
X494501Y647825D01*
X489612Y648999D01*
X484600Y649393D01*
Y649351D01*
X399388D01*
X399346Y649668D01*
X398586Y651503D01*
X397378Y653078D01*
X395802Y654286D01*
X393968Y655046D01*
X392000Y655305D01*
X382000D01*
X380032Y655046D01*
X378197Y654286D01*
X376622Y653078D01*
X375414Y651503D01*
X374654Y649668D01*
X374612Y649351D01*
X373000D01*
X372625Y649302D01*
X372250Y649351D01*
X355905D01*
X355230Y650230D01*
X352820Y652080D01*
X350013Y653243D01*
X347000Y653640D01*
X343988Y653243D01*
X341180Y652080D01*
X338770Y650230D01*
X338095Y649351D01*
X321274D01*
X321080Y649820D01*
X319230Y652230D01*
X316820Y654080D01*
X314013Y655243D01*
X311000Y655640D01*
X307987Y655243D01*
X305180Y654080D01*
X302770Y652230D01*
X300920Y649820D01*
X299757Y647012D01*
X299360Y644000D01*
X299757Y640987D01*
X300920Y638180D01*
X302770Y635770D01*
X305180Y633920D01*
X307987Y632757D01*
X311000Y632360D01*
X314013Y632757D01*
X316820Y633920D01*
X319230Y635770D01*
X319529Y636158D01*
X336937D01*
X338770Y633770D01*
X341180Y631920D01*
X343988Y630757D01*
X347000Y630360D01*
X350013Y630757D01*
X352820Y631920D01*
X355230Y633770D01*
X357063Y636158D01*
X372250D01*
X372625Y636207D01*
X373000Y636158D01*
X374598D01*
X374654Y635732D01*
X375414Y633897D01*
X376622Y632322D01*
X378197Y631114D01*
X380032Y630354D01*
X380694Y630267D01*
X381704Y628861D01*
X381666Y628664D01*
X380676Y628254D01*
X378056Y626244D01*
X376046Y623624D01*
X375084Y621300D01*
X398916D01*
X397954Y623624D01*
X395944Y626244D01*
X393324Y628254D01*
X392334Y628664D01*
X392296Y628861D01*
X393306Y630267D01*
X393968Y630354D01*
X395802Y631114D01*
X397378Y632322D01*
X398586Y633897D01*
X399346Y635732D01*
X399402Y636158D01*
X484600D01*
X484687Y636170D01*
X488272Y635816D01*
X491804Y634745D01*
X495058Y633006D01*
X497910Y630665D01*
X500251Y627812D01*
X501991Y624558D01*
X503062Y621027D01*
X503389Y617707D01*
X503361Y617355D01*
X503404D01*
Y527500D01*
X503404Y527497D01*
X503404Y527494D01*
X503186Y475509D01*
X499912Y472235D01*
X498522Y470154D01*
X498033Y467700D01*
X498522Y465246D01*
X499912Y463165D01*
X503154Y459923D01*
Y457800D01*
X503159Y457759D01*
X503154Y457718D01*
X503403Y437714D01*
X503405Y437705D01*
X503404Y437697D01*
Y416484D01*
X501770Y415230D01*
X499920Y412820D01*
X498757Y410013D01*
X498360Y407000D01*
X498757Y403988D01*
X499920Y401180D01*
X501770Y398770D01*
X504180Y396920D01*
X506987Y395757D01*
X510000Y395360D01*
X513013Y395757D01*
X515820Y396920D01*
X518230Y398770D01*
X520080Y401180D01*
X521243Y403988D01*
X521640Y407000D01*
X521243Y410013D01*
X520080Y412820D01*
X518230Y415230D01*
X516596Y416484D01*
Y436615D01*
X516596Y437697D01*
X516665D01*
X516642Y437879D01*
X516580Y439148D01*
X516346Y457842D01*
Y459923D01*
X519588Y463165D01*
X520978Y465246D01*
X521466Y467700D01*
X520978Y470154D01*
X519588Y472235D01*
X516379Y475444D01*
X516591Y526194D01*
X516657Y527439D01*
X516665Y527500D01*
X516654D01*
X516596Y528681D01*
Y617355D01*
X516639D01*
X516611Y617707D01*
X516938Y621027D01*
X518009Y624558D01*
X519749Y627812D01*
X522090Y630665D01*
X524942Y633006D01*
X528196Y634745D01*
X531728Y635816D01*
X535313Y636170D01*
X535400Y636158D01*
X622983D01*
Y636116D01*
X625600Y636322D01*
X679847Y582075D01*
X679847Y581976D01*
X679847Y581976D01*
X679847Y581976D01*
X680806Y581156D01*
X684738Y577798D01*
X690223Y574436D01*
X696167Y571975D01*
X697304Y571663D01*
X697591Y571544D01*
X698524Y571421D01*
X701350Y571049D01*
X701350Y571099D01*
X701367Y571114D01*
X790423D01*
X791483Y569733D01*
X793684Y568043D01*
X796248Y566981D01*
X799000Y566619D01*
X833000D01*
X835751Y566981D01*
X838316Y568043D01*
X840517Y569733D01*
X842207Y571935D01*
X843269Y574498D01*
X843631Y577250D01*
Y581250D01*
X843269Y584002D01*
X842207Y586566D01*
X840517Y588767D01*
X838316Y590457D01*
X835751Y591519D01*
X833000Y591881D01*
X799000D01*
X796248Y591519D01*
X793684Y590457D01*
X791483Y588767D01*
X789793Y586566D01*
X788858Y584306D01*
X779791D01*
X779165Y585576D01*
X780207Y586935D01*
X781269Y589498D01*
X781631Y592250D01*
Y605250D01*
X769000D01*
X756369D01*
Y592250D01*
X756731Y589498D01*
X757793Y586935D01*
X758835Y585576D01*
X758209Y584306D01*
X702206D01*
X701013Y584422D01*
X699791Y584769D01*
X696238Y586240D01*
X692525Y588515D01*
X689269Y591297D01*
X689225Y591354D01*
X640388Y640190D01*
X640538Y641452D01*
X641815Y642235D01*
X645638Y645500D01*
X645608Y645530D01*
X650368Y650290D01*
X650505Y650217D01*
X653811Y649214D01*
X657250Y648875D01*
X660688Y649214D01*
X663995Y650217D01*
X667042Y651845D01*
X669713Y654037D01*
X671905Y656708D01*
X673533Y659755D01*
X674536Y663062D01*
X674625Y663960D01*
X674790D01*
Y665638D01*
X674875Y666500D01*
X674790Y667362D01*
Y674000D01*
X700710D01*
Y670750D01*
X735790D01*
Y674000D01*
X885790D01*
X886577Y673003D01*
D02*
G37*
%LPC*%
G36*
X735366Y662750D02*
X722250D01*
Y649634D01*
X724995Y650467D01*
X728042Y652095D01*
X730713Y654287D01*
X732905Y656958D01*
X734533Y660005D01*
X735366Y662750D01*
D02*
G37*
G36*
X714250D02*
X701134D01*
X701967Y660005D01*
X703596Y656958D01*
X705787Y654287D01*
X708458Y652095D01*
X711505Y650467D01*
X714250Y649634D01*
Y662750D01*
D02*
G37*
G36*
X242116Y661000D02*
X229000D01*
Y647884D01*
X231745Y648717D01*
X234792Y650346D01*
X237463Y652537D01*
X239655Y655208D01*
X241283Y658255D01*
X242116Y661000D01*
D02*
G37*
G36*
X221000D02*
X207884D01*
X208717Y658255D01*
X210345Y655208D01*
X212537Y652537D01*
X215208Y650346D01*
X218255Y648717D01*
X221000Y647884D01*
Y661000D01*
D02*
G37*
G36*
X114093Y661046D02*
X85767D01*
Y632721D01*
X86873Y632808D01*
X91854Y634003D01*
X96586Y635963D01*
X100953Y638640D01*
X104848Y641966D01*
X108174Y645861D01*
X110850Y650228D01*
X112810Y654960D01*
X114006Y659940D01*
X114093Y661046D01*
D02*
G37*
G36*
X285600Y655640D02*
X282587Y655243D01*
X279780Y654080D01*
X277370Y652230D01*
X275520Y649820D01*
X274357Y647012D01*
X273960Y644000D01*
X274229Y641958D01*
X264775Y632504D01*
X264745Y632534D01*
X261480Y628711D01*
X258853Y624424D01*
X256929Y619780D01*
X255756Y614891D01*
X255459Y611126D01*
X255365Y609924D01*
X255361Y609879D01*
X255403D01*
Y591484D01*
X253769Y590230D01*
X251920Y587820D01*
X250757Y585013D01*
X250360Y582000D01*
X250757Y578988D01*
X251920Y576180D01*
X253769Y573770D01*
X256180Y571920D01*
X258987Y570757D01*
X262000Y570360D01*
X264042Y570629D01*
X294896Y539775D01*
X294866Y539745D01*
X298689Y536480D01*
X302976Y533853D01*
X307621Y531929D01*
X312509Y530756D01*
X317521Y530361D01*
Y530404D01*
X439192D01*
X439212Y530404D01*
X439219Y530404D01*
X439221Y530404D01*
X439222Y530404D01*
X440462Y530332D01*
X444110Y530045D01*
X448870Y528902D01*
X453393Y527029D01*
X457568Y524470D01*
X461202Y521366D01*
X461279Y521266D01*
X461280Y521266D01*
X462103Y520339D01*
X464470Y517568D01*
X467029Y513394D01*
X468902Y508870D01*
X470045Y504110D01*
X470332Y500462D01*
X470404Y499222D01*
X470404Y499221D01*
X470404Y499220D01*
X470404Y499212D01*
X470404Y499192D01*
Y425271D01*
X470429Y425077D01*
X470000Y419619D01*
X468676Y414106D01*
X466507Y408868D01*
X464171Y405058D01*
X463642Y404276D01*
X463623Y404272D01*
X463623Y404271D01*
X463502Y404068D01*
X463460Y404035D01*
X463445Y404016D01*
X462590Y403265D01*
X458687Y399843D01*
X452877Y395960D01*
X446609Y392869D01*
X439991Y390623D01*
X433137Y389260D01*
X427424Y388885D01*
X426156Y388879D01*
X426146Y388879D01*
X424906Y388798D01*
X420696Y388522D01*
X415340Y387457D01*
X410168Y385701D01*
X405270Y383285D01*
X400728Y380251D01*
X397537Y377452D01*
X396622Y376650D01*
X396598Y376622D01*
X396598Y376622D01*
X396598Y376617D01*
X393753Y373287D01*
X391443Y369518D01*
X389752Y365434D01*
X388720Y361136D01*
X388471Y357971D01*
X388373Y356729D01*
X388373Y356729D01*
X388404D01*
X388404Y356729D01*
Y353694D01*
X388361D01*
X388756Y348683D01*
X389929Y343794D01*
X391853Y339149D01*
X394480Y334863D01*
X397745Y331040D01*
X397775Y331069D01*
X487896Y240949D01*
X487966Y240895D01*
X490251Y238110D01*
X491991Y234856D01*
X493062Y231325D01*
X493415Y227740D01*
X493404Y227652D01*
Y206984D01*
X491770Y205730D01*
X489920Y203320D01*
X488757Y200513D01*
X488360Y197500D01*
X488757Y194487D01*
X489920Y191680D01*
X491770Y189270D01*
X493154Y188208D01*
Y183176D01*
X491270Y181730D01*
X489420Y179320D01*
X488257Y176513D01*
X487860Y173500D01*
X488257Y170487D01*
X489420Y167680D01*
X491270Y165270D01*
X492904Y164016D01*
Y160021D01*
X492861D01*
X493256Y155009D01*
X494429Y150120D01*
X496353Y145476D01*
X498980Y141189D01*
X502245Y137366D01*
X502275Y137396D01*
X529646Y110025D01*
X529616Y109995D01*
X533439Y106730D01*
X537726Y104103D01*
X542370Y102179D01*
X547259Y101006D01*
X552271Y100611D01*
Y100654D01*
X637979D01*
X638066Y100665D01*
X641651Y100312D01*
X645182Y99241D01*
X648437Y97501D01*
X651221Y95216D01*
X651275Y95146D01*
X701109Y45312D01*
X701002Y44500D01*
X701351Y41848D01*
X702375Y39376D01*
X704004Y37254D01*
X706126Y35625D01*
X708598Y34602D01*
X711250Y34252D01*
X713902Y34602D01*
X716374Y35625D01*
X718496Y37254D01*
X720125Y39376D01*
X721149Y41848D01*
X721498Y44500D01*
X721149Y47152D01*
X720125Y49624D01*
X718496Y51746D01*
X716374Y53375D01*
X713902Y54398D01*
X711250Y54748D01*
X710438Y54641D01*
X660604Y104475D01*
X660634Y104505D01*
X656811Y107770D01*
X652524Y110397D01*
X647879Y112321D01*
X642991Y113494D01*
X637979Y113889D01*
Y113846D01*
X552271D01*
X552184Y113835D01*
X548599Y114188D01*
X545067Y115259D01*
X541813Y116999D01*
X539029Y119284D01*
X538975Y119354D01*
X511604Y146725D01*
X511534Y146778D01*
X509249Y149563D01*
X507509Y152818D01*
X506438Y156349D01*
X506085Y159934D01*
X506096Y160021D01*
Y164016D01*
X507730Y165270D01*
X509580Y167680D01*
X510743Y170487D01*
X511139Y173500D01*
X510743Y176513D01*
X509580Y179320D01*
X507730Y181730D01*
X506346Y182792D01*
Y187824D01*
X508230Y189270D01*
X510080Y191680D01*
X511243Y194487D01*
X511640Y197500D01*
X511243Y200513D01*
X510080Y203320D01*
X508230Y205730D01*
X506596Y206984D01*
Y227652D01*
X506639D01*
X506244Y232664D01*
X505071Y237553D01*
X503147Y242198D01*
X500520Y246484D01*
X497255Y250307D01*
X497225Y250277D01*
X407104Y340398D01*
X407034Y340452D01*
X404749Y343237D01*
X403009Y346491D01*
X401938Y350022D01*
X401585Y353607D01*
X401596Y353694D01*
Y356729D01*
X401596Y356735D01*
X401882Y359645D01*
X402733Y362449D01*
X404114Y365034D01*
X405960Y367282D01*
X406890Y368103D01*
X409368Y370219D01*
X413187Y372560D01*
X417325Y374274D01*
X421681Y375320D01*
X424897Y375573D01*
X426153Y375606D01*
X426163Y375605D01*
X427415Y375675D01*
X433623Y376024D01*
X440989Y377276D01*
X448168Y379344D01*
X455070Y382203D01*
X461609Y385817D01*
X467703Y390140D01*
X472748Y394649D01*
X472789Y394631D01*
X472789Y394631D01*
X472882Y394703D01*
X473571Y395600D01*
X474313Y396567D01*
X474338Y396568D01*
X474715Y397096D01*
X474752Y397186D01*
X475040Y397617D01*
X477037Y400606D01*
X479891Y406393D01*
X481965Y412503D01*
X483224Y418832D01*
X483646Y425271D01*
X483596D01*
Y497949D01*
X483634Y499219D01*
X483635Y499229D01*
X483554Y500471D01*
X483255Y505025D01*
X482122Y510722D01*
X480255Y516222D01*
X477686Y521432D01*
X474459Y526262D01*
X471453Y529689D01*
X470636Y530621D01*
X470629Y530629D01*
X466261Y534459D01*
X461432Y537686D01*
X456222Y540255D01*
X450722Y542122D01*
X445025Y543255D01*
X440471Y543554D01*
X439229Y543635D01*
X439219Y543634D01*
X437949Y543596D01*
X317521D01*
X317434Y543585D01*
X313849Y543938D01*
X310317Y545009D01*
X307063Y546749D01*
X304278Y549034D01*
X304225Y549104D01*
X273371Y579958D01*
X273640Y582000D01*
X273243Y585013D01*
X272080Y587820D01*
X270230Y590230D01*
X268596Y591484D01*
Y609879D01*
X268594Y609897D01*
X268596Y609915D01*
X268587Y609987D01*
X268938Y613551D01*
X270009Y617082D01*
X271749Y620337D01*
X274034Y623121D01*
X274104Y623175D01*
X283558Y632629D01*
X285600Y632360D01*
X288612Y632757D01*
X291420Y633920D01*
X293830Y635770D01*
X295680Y638180D01*
X296843Y640987D01*
X297239Y644000D01*
X296843Y647012D01*
X295680Y649820D01*
X294564Y651274D01*
X294513Y651398D01*
X293464Y652764D01*
X292098Y653813D01*
X290507Y654472D01*
X290459Y654478D01*
X288612Y655243D01*
X285600Y655640D01*
D02*
G37*
G36*
X914000Y660500D02*
X885674D01*
X885761Y659394D01*
X886957Y654414D01*
X888917Y649681D01*
X891593Y645314D01*
X894920Y641420D01*
X898814Y638093D01*
X903182Y635417D01*
X907914Y633457D01*
X912894Y632261D01*
X914000Y632174D01*
Y660500D01*
D02*
G37*
G36*
X833000Y651881D02*
X799000D01*
X796248Y651519D01*
X793684Y650457D01*
X791483Y648767D01*
X789793Y646565D01*
X788731Y644001D01*
X788369Y641250D01*
Y637250D01*
X788731Y634498D01*
X789793Y631935D01*
X791483Y629733D01*
X793684Y628043D01*
X796248Y626981D01*
X799000Y626619D01*
X833000D01*
X835751Y626981D01*
X838316Y628043D01*
X840517Y629733D01*
X842207Y631935D01*
X843269Y634498D01*
X843631Y637250D01*
Y641250D01*
X843269Y644001D01*
X842207Y646565D01*
X840517Y648767D01*
X838316Y650457D01*
X835751Y651519D01*
X833000Y651881D01*
D02*
G37*
G36*
X302300Y629434D02*
Y622600D01*
X309134D01*
X308380Y624420D01*
X306530Y626830D01*
X304120Y628680D01*
X302300Y629434D01*
D02*
G37*
G36*
X294300D02*
X292480Y628680D01*
X290070Y626830D01*
X288220Y624420D01*
X287466Y622600D01*
X294300D01*
Y629434D01*
D02*
G37*
G36*
X773000Y636618D02*
Y613250D01*
X781631D01*
Y626250D01*
X781269Y629002D01*
X780207Y631566D01*
X778517Y633767D01*
X776316Y635457D01*
X773752Y636519D01*
X773000Y636618D01*
D02*
G37*
G36*
X765000D02*
X764249Y636519D01*
X761684Y635457D01*
X759483Y633767D01*
X757793Y631566D01*
X756731Y629002D01*
X756369Y626250D01*
Y613250D01*
X765000D01*
Y636618D01*
D02*
G37*
G36*
X309134Y614600D02*
X302300D01*
Y607766D01*
X304120Y608520D01*
X306530Y610370D01*
X308380Y612780D01*
X309134Y614600D01*
D02*
G37*
G36*
X294300D02*
X287466D01*
X288220Y612780D01*
X290070Y610370D01*
X292480Y608520D01*
X294300Y607766D01*
Y614600D01*
D02*
G37*
G36*
X398916Y613300D02*
X391000D01*
Y605384D01*
X393324Y606346D01*
X395944Y608356D01*
X397954Y610976D01*
X398916Y613300D01*
D02*
G37*
G36*
X383000D02*
X375084D01*
X376046Y610976D01*
X378056Y608356D01*
X380676Y606346D01*
X383000Y605384D01*
Y613300D01*
D02*
G37*
G36*
X351000Y602834D02*
Y596000D01*
X357834D01*
X357080Y597820D01*
X355230Y600230D01*
X352820Y602080D01*
X351000Y602834D01*
D02*
G37*
G36*
X343000Y602834D02*
X341180Y602080D01*
X338770Y600230D01*
X336920Y597820D01*
X336166Y596000D01*
X343000D01*
Y602834D01*
D02*
G37*
G36*
X316000Y592834D02*
Y586000D01*
X322834D01*
X322080Y587820D01*
X320230Y590230D01*
X317820Y592080D01*
X316000Y592834D01*
D02*
G37*
G36*
X308000D02*
X306180Y592080D01*
X303770Y590230D01*
X301920Y587820D01*
X301166Y586000D01*
X308000D01*
Y592834D01*
D02*
G37*
G36*
X357834Y588000D02*
X351000D01*
Y581166D01*
X352820Y581920D01*
X355230Y583770D01*
X357080Y586180D01*
X357834Y588000D01*
D02*
G37*
G36*
X343000D02*
X336166D01*
X336920Y586180D01*
X338770Y583770D01*
X341180Y581920D01*
X343000Y581166D01*
Y588000D01*
D02*
G37*
G36*
X322834Y578000D02*
X316000D01*
Y571166D01*
X317820Y571920D01*
X320230Y573770D01*
X322080Y576180D01*
X322834Y578000D01*
D02*
G37*
G36*
X308000D02*
X301166D01*
X301920Y576180D01*
X303770Y573770D01*
X306180Y571920D01*
X308000Y571166D01*
Y578000D01*
D02*
G37*
G36*
X239000Y472793D02*
Y466500D01*
X245293D01*
X244643Y468068D01*
X242874Y470374D01*
X240568Y472143D01*
X239000Y472793D01*
D02*
G37*
G36*
X194000Y472793D02*
Y466500D01*
X200293D01*
X199643Y468068D01*
X197874Y470374D01*
X195568Y472143D01*
X194000Y472793D01*
D02*
G37*
G36*
X186000D02*
X184432Y472143D01*
X182126Y470374D01*
X180357Y468068D01*
X179707Y466500D01*
X186000D01*
Y472793D01*
D02*
G37*
G36*
X231000Y472793D02*
X229432Y472143D01*
X227126Y470374D01*
X225357Y468068D01*
X224707Y466500D01*
X231000D01*
Y472793D01*
D02*
G37*
G36*
X339750Y517390D02*
X336737Y516993D01*
X333930Y515830D01*
X331520Y513980D01*
X329670Y511570D01*
X328507Y508763D01*
X328110Y505750D01*
X328507Y502738D01*
X329670Y499930D01*
X331520Y497520D01*
X333404Y496074D01*
Y486810D01*
X331020Y484980D01*
X329170Y482570D01*
X328007Y479763D01*
X327610Y476750D01*
X327879Y474708D01*
X282775Y429604D01*
X282722Y429534D01*
X279937Y427249D01*
X276682Y425509D01*
X273151Y424438D01*
X269566Y424085D01*
X269479Y424096D01*
X243854D01*
X242874Y425374D01*
X240568Y427143D01*
X237882Y428256D01*
X235000Y428635D01*
X232118Y428256D01*
X229432Y427143D01*
X227126Y425374D01*
X225357Y423068D01*
X224244Y420382D01*
X223865Y417500D01*
X224244Y414618D01*
X225357Y411932D01*
X227126Y409626D01*
X229432Y407857D01*
X232118Y406744D01*
X235000Y406365D01*
X237882Y406744D01*
X240568Y407857D01*
X242874Y409626D01*
X243854Y410904D01*
X269479D01*
Y410861D01*
X274491Y411256D01*
X279379Y412429D01*
X284024Y414353D01*
X288311Y416980D01*
X292134Y420245D01*
X292104Y420275D01*
X337208Y465379D01*
X339250Y465111D01*
X342262Y465507D01*
X345070Y466670D01*
X347480Y468520D01*
X349330Y470930D01*
X350493Y473737D01*
X350890Y476750D01*
X350493Y479763D01*
X349330Y482570D01*
X347480Y484980D01*
X346596Y485659D01*
Y496458D01*
X347980Y497520D01*
X349830Y499930D01*
X350993Y502738D01*
X351390Y505750D01*
X350993Y508763D01*
X349830Y511570D01*
X347980Y513980D01*
X345570Y515830D01*
X342762Y516993D01*
X339750Y517390D01*
D02*
G37*
G36*
X245293Y458500D02*
X239000D01*
Y452207D01*
X240568Y452857D01*
X242874Y454626D01*
X244643Y456932D01*
X245293Y458500D01*
D02*
G37*
G36*
X231000D02*
X224707D01*
X225357Y456932D01*
X227126Y454626D01*
X229432Y452857D01*
X231000Y452207D01*
Y458500D01*
D02*
G37*
G36*
X838229Y439639D02*
Y439596D01*
X646521D01*
Y439639D01*
X641509Y439244D01*
X636620Y438071D01*
X631976Y436147D01*
X627689Y433520D01*
X623866Y430255D01*
X623896Y430225D01*
X612042Y418371D01*
X610000Y418639D01*
X606987Y418243D01*
X604180Y417080D01*
X601770Y415230D01*
X599920Y412820D01*
X598757Y410013D01*
X598360Y407000D01*
X598757Y403988D01*
X599920Y401180D01*
X601770Y398770D01*
X604180Y396920D01*
X606987Y395757D01*
X610000Y395360D01*
X613013Y395757D01*
X615820Y396920D01*
X618230Y398770D01*
X620080Y401180D01*
X621243Y403988D01*
X621640Y407000D01*
X621371Y409042D01*
X622421Y410092D01*
X623624Y409499D01*
X623360Y407500D01*
X623757Y404487D01*
X624920Y401680D01*
X626770Y399270D01*
X628404Y398016D01*
Y380521D01*
X628415Y380434D01*
X628134Y377576D01*
X628062Y376849D01*
X627229Y374104D01*
X624487Y373743D01*
X621680Y372580D01*
X619270Y370730D01*
X617420Y368320D01*
X616257Y365513D01*
X615860Y362500D01*
X616257Y359487D01*
X617420Y356680D01*
X619270Y354270D01*
X621680Y352420D01*
X624487Y351257D01*
X627500Y350860D01*
X630513Y351257D01*
X633320Y352420D01*
X635730Y354270D01*
X637580Y356680D01*
X638743Y359487D01*
X639140Y362500D01*
X638743Y365513D01*
X638349Y366464D01*
X640071Y370620D01*
X640925Y374179D01*
X642147Y374524D01*
X652629Y364042D01*
X652360Y362000D01*
X652757Y358988D01*
X653920Y356180D01*
X655770Y353770D01*
X658180Y351920D01*
X660987Y350757D01*
X664000Y350360D01*
X667012Y350757D01*
X669820Y351920D01*
X672230Y353770D01*
X674080Y356180D01*
X675243Y358988D01*
X675639Y362000D01*
X675243Y365013D01*
X674080Y367820D01*
X672230Y370230D01*
X669820Y372080D01*
X667012Y373243D01*
X664000Y373640D01*
X661958Y373371D01*
X653815Y381514D01*
X647104Y388225D01*
X647034Y388279D01*
X644749Y391063D01*
X643009Y394318D01*
X641938Y397849D01*
X641899Y398248D01*
X643230Y399270D01*
X645080Y401680D01*
X646243Y404487D01*
X646639Y407500D01*
X646243Y410513D01*
X645080Y413320D01*
X643230Y415730D01*
X640820Y417580D01*
X638013Y418743D01*
X635000Y419140D01*
X633001Y418876D01*
X632408Y420079D01*
X633225Y420896D01*
X633279Y420966D01*
X636063Y423251D01*
X639318Y424991D01*
X642849Y426062D01*
X646434Y426415D01*
X646521Y426404D01*
X838229D01*
X838316Y426415D01*
X841901Y426062D01*
X845432Y424991D01*
X848687Y423251D01*
X851471Y420966D01*
X851525Y420896D01*
X875580Y396841D01*
X875580Y396841D01*
X876654Y395768D01*
Y394250D01*
Y367238D01*
X876201Y366648D01*
X875835Y365766D01*
X874180Y365080D01*
X871770Y363230D01*
X869920Y360820D01*
X868757Y358013D01*
X868426Y355495D01*
X833236Y333283D01*
X831762Y333893D01*
X828750Y334290D01*
X825737Y333893D01*
X822930Y332730D01*
X820520Y330880D01*
X818670Y328470D01*
X817507Y325662D01*
X817110Y322650D01*
X817507Y319638D01*
X818670Y316830D01*
X820520Y314420D01*
X822930Y312570D01*
X825737Y311407D01*
X828750Y311010D01*
X831762Y311407D01*
X834570Y312570D01*
X836980Y314420D01*
X838830Y316830D01*
X839993Y319638D01*
X840324Y322155D01*
X875514Y344367D01*
X876988Y343757D01*
X880000Y343360D01*
X883012Y343757D01*
X885820Y344920D01*
X888230Y346770D01*
X889484Y348404D01*
X889750D01*
X889989Y348435D01*
X890230Y348421D01*
X913838Y350144D01*
X915056Y348556D01*
X917676Y346546D01*
X920726Y345283D01*
X924000Y344852D01*
X927274Y345283D01*
X930324Y346546D01*
X932944Y348556D01*
X934954Y351176D01*
X936217Y354226D01*
X936648Y357500D01*
X936217Y360774D01*
X934954Y363824D01*
X932944Y366444D01*
X931545Y367517D01*
X930664Y368664D01*
X929298Y369713D01*
X927707Y370372D01*
X926000Y370596D01*
X924293Y370372D01*
X923638Y370101D01*
X920726Y369717D01*
X917676Y368454D01*
X915056Y366444D01*
X913046Y363824D01*
X912829Y363299D01*
X890452Y361665D01*
X889578Y362875D01*
X889622Y362979D01*
X889846Y364686D01*
Y399077D01*
X896673Y405904D01*
X925766D01*
X927020Y404270D01*
X929430Y402420D01*
X932237Y401257D01*
X935250Y400860D01*
X938262Y401257D01*
X941070Y402420D01*
X943480Y404270D01*
X945330Y406680D01*
X946493Y409487D01*
X946889Y412500D01*
X946493Y415513D01*
X945330Y418320D01*
X943480Y420730D01*
X941070Y422580D01*
X938262Y423743D01*
X935250Y424140D01*
X932237Y423743D01*
X929430Y422580D01*
X927020Y420730D01*
X925766Y419096D01*
X893941D01*
X892233Y418872D01*
X890642Y418213D01*
X889276Y417164D01*
X881595Y409483D01*
X860854Y430225D01*
X860884Y430255D01*
X857061Y433520D01*
X852774Y436147D01*
X848130Y438071D01*
X843241Y439244D01*
X838229Y439639D01*
D02*
G37*
G36*
X149000Y423334D02*
Y416500D01*
X155834D01*
X155080Y418320D01*
X153230Y420730D01*
X150820Y422580D01*
X149000Y423334D01*
D02*
G37*
G36*
X141000Y423334D02*
X139180Y422580D01*
X136770Y420730D01*
X134920Y418320D01*
X134166Y416500D01*
X141000D01*
Y423334D01*
D02*
G37*
G36*
X835250Y424140D02*
X832237Y423743D01*
X829430Y422580D01*
X827020Y420730D01*
X825170Y418320D01*
X824969Y417835D01*
X800243Y414673D01*
X798813Y415770D01*
X796371Y416782D01*
X793750Y417127D01*
X790750D01*
X788129Y416782D01*
X785687Y415770D01*
X783589Y414161D01*
X783540Y414096D01*
X766100D01*
X765230Y415230D01*
X762820Y417080D01*
X760013Y418243D01*
X757000Y418639D01*
X753987Y418243D01*
X751180Y417080D01*
X748770Y415230D01*
X747899Y414096D01*
X744484D01*
X743230Y415730D01*
X740820Y417580D01*
X738012Y418743D01*
X735000Y419140D01*
X731987Y418743D01*
X729180Y417580D01*
X726770Y415730D01*
X724920Y413320D01*
X724429Y412134D01*
X723787Y411298D01*
X723128Y409707D01*
X722904Y408000D01*
X723128Y406293D01*
X723701Y404909D01*
X723757Y404487D01*
X724920Y401680D01*
X726770Y399270D01*
X729180Y397420D01*
X731987Y396257D01*
X735000Y395860D01*
X738012Y396257D01*
X740820Y397420D01*
X743230Y399270D01*
X744484Y400904D01*
X747132D01*
X748770Y398770D01*
X751180Y396920D01*
X753987Y395757D01*
X757000Y395360D01*
X760013Y395757D01*
X762820Y396920D01*
X765230Y398770D01*
X766868Y400904D01*
X782773D01*
X783589Y399839D01*
X785687Y398230D01*
X786997Y397687D01*
Y396313D01*
X785687Y395770D01*
X783589Y394161D01*
X781980Y392063D01*
X781540Y391000D01*
X792250D01*
X802960D01*
X802520Y392063D01*
X800911Y394161D01*
X798813Y395770D01*
X797503Y396313D01*
Y397687D01*
X798813Y398230D01*
X800911Y399839D01*
X802287Y401634D01*
X826651Y404750D01*
X827020Y404270D01*
X829430Y402420D01*
X832237Y401257D01*
X835250Y400860D01*
X838262Y401257D01*
X841070Y402420D01*
X843480Y404270D01*
X845330Y406680D01*
X846493Y409487D01*
X846889Y412500D01*
X846493Y415513D01*
X845330Y418320D01*
X843480Y420730D01*
X841070Y422580D01*
X838262Y423743D01*
X835250Y424140D01*
D02*
G37*
G36*
X410750Y517390D02*
X407737Y516993D01*
X404930Y515830D01*
X402520Y513980D01*
X400670Y511570D01*
X399507Y508763D01*
X399110Y505750D01*
X399507Y502738D01*
X400670Y499930D01*
X402520Y497520D01*
X404404Y496074D01*
Y486810D01*
X402020Y484980D01*
X400170Y482570D01*
X399007Y479763D01*
X398610Y476750D01*
X399007Y473737D01*
X400170Y470930D01*
X402020Y468520D01*
X404430Y466670D01*
X407237Y465507D01*
X410250Y465111D01*
X412292Y465379D01*
X422646Y455025D01*
X422716Y454972D01*
X425001Y452187D01*
X426741Y448932D01*
X427812Y445401D01*
X428165Y441816D01*
X428154Y441729D01*
Y417484D01*
X426520Y416230D01*
X425266Y414596D01*
X338271D01*
Y414639D01*
X333259Y414244D01*
X331899Y413918D01*
X331549Y413872D01*
X331330Y413781D01*
X328371Y413071D01*
X323726Y411147D01*
X319439Y408520D01*
X315616Y405255D01*
X315646Y405225D01*
X274292Y363871D01*
X272250Y364140D01*
X269237Y363743D01*
X266430Y362580D01*
X264020Y360730D01*
X262170Y358320D01*
X261007Y355513D01*
X260611Y352500D01*
X261007Y349487D01*
X262170Y346680D01*
X264020Y344270D01*
X266430Y342420D01*
X269237Y341257D01*
X272250Y340860D01*
X275263Y341257D01*
X278070Y342420D01*
X280480Y344270D01*
X282330Y346680D01*
X283493Y349487D01*
X283890Y352500D01*
X283621Y354542D01*
X324975Y395896D01*
X325028Y395966D01*
X327813Y398251D01*
X331068Y399991D01*
X334555Y401049D01*
X334599Y401062D01*
X338184Y401415D01*
X338271Y401404D01*
X425266D01*
X426520Y399770D01*
X428930Y397920D01*
X431738Y396757D01*
X434750Y396361D01*
X437762Y396757D01*
X440570Y397920D01*
X442980Y399770D01*
X444830Y402180D01*
X445993Y404987D01*
X446390Y408000D01*
X445993Y411013D01*
X444830Y413820D01*
X442980Y416230D01*
X441346Y417484D01*
Y441729D01*
X441389D01*
X440994Y446741D01*
X440173Y450160D01*
X440136Y450443D01*
X440063Y450619D01*
X439821Y451629D01*
X437897Y456274D01*
X435270Y460561D01*
X432005Y464384D01*
X431975Y464354D01*
X421621Y474708D01*
X421889Y476750D01*
X421493Y479763D01*
X420330Y482570D01*
X418480Y484980D01*
X417596Y485659D01*
Y496458D01*
X418980Y497520D01*
X420830Y499930D01*
X421993Y502738D01*
X422389Y505750D01*
X421993Y508763D01*
X420830Y511570D01*
X418980Y513980D01*
X416570Y515830D01*
X413763Y516993D01*
X410750Y517390D01*
D02*
G37*
G36*
X145000Y521640D02*
X141987Y521243D01*
X139180Y520080D01*
X136770Y518230D01*
X134920Y515820D01*
X133757Y513013D01*
X133360Y510000D01*
X133757Y506987D01*
X134920Y504180D01*
X136770Y501770D01*
X138404Y500516D01*
Y471984D01*
X136770Y470730D01*
X134920Y468320D01*
X133757Y465513D01*
X133361Y462500D01*
X133757Y459487D01*
X134920Y456680D01*
X136770Y454269D01*
X139180Y452420D01*
X141987Y451257D01*
X145000Y450860D01*
X147042Y451129D01*
X179075Y419096D01*
X178865Y417500D01*
X179244Y414618D01*
X180357Y411932D01*
X182126Y409626D01*
X184432Y407857D01*
X187118Y406744D01*
X190000Y406365D01*
X192882Y406744D01*
X195568Y407857D01*
X197874Y409626D01*
X199643Y411932D01*
X200756Y414618D01*
X201135Y417500D01*
X200756Y420382D01*
X199643Y423068D01*
X197874Y425374D01*
X195568Y427143D01*
X193329Y428071D01*
Y429429D01*
X195568Y430357D01*
X197874Y432126D01*
X199643Y434432D01*
X200756Y437118D01*
X201135Y440000D01*
X200756Y442882D01*
X199643Y445568D01*
X197874Y447874D01*
X195568Y449643D01*
X193329Y450571D01*
Y451929D01*
X195568Y452857D01*
X197874Y454626D01*
X199643Y456932D01*
X200293Y458500D01*
X190000D01*
X179707D01*
X180357Y456932D01*
X182126Y454626D01*
X184432Y452857D01*
X186671Y451929D01*
Y450571D01*
X184432Y449643D01*
X182126Y447874D01*
X180357Y445568D01*
X179244Y442882D01*
X178865Y440000D01*
X178916Y439614D01*
X177777Y439052D01*
X156371Y460458D01*
X156640Y462500D01*
X156243Y465513D01*
X155080Y468320D01*
X153230Y470730D01*
X151596Y471984D01*
Y500516D01*
X153230Y501770D01*
X155080Y504180D01*
X156243Y506987D01*
X156639Y510000D01*
X156243Y513013D01*
X155080Y515820D01*
X153230Y518230D01*
X150820Y520080D01*
X148013Y521243D01*
X145000Y521640D01*
D02*
G37*
G36*
X141000Y408500D02*
X134166D01*
X134920Y406680D01*
X136770Y404269D01*
X139180Y402420D01*
X141000Y401666D01*
Y408500D01*
D02*
G37*
G36*
X155834D02*
X149000D01*
Y401666D01*
X150820Y402420D01*
X153230Y404269D01*
X155080Y406680D01*
X155834Y408500D01*
D02*
G37*
G36*
X582000Y389834D02*
Y383000D01*
X588834D01*
X588080Y384820D01*
X586230Y387230D01*
X583820Y389080D01*
X582000Y389834D01*
D02*
G37*
G36*
X574000D02*
X572180Y389080D01*
X569770Y387230D01*
X567920Y384820D01*
X567166Y383000D01*
X574000D01*
Y389834D01*
D02*
G37*
G36*
X802960Y383000D02*
X796250D01*
Y377202D01*
X796371Y377218D01*
X798813Y378230D01*
X800911Y379839D01*
X802520Y381937D01*
X802960Y383000D01*
D02*
G37*
G36*
X788250D02*
X781540D01*
X781980Y381937D01*
X783589Y379839D01*
X785687Y378230D01*
X788129Y377218D01*
X788250Y377202D01*
Y383000D01*
D02*
G37*
G36*
X588834Y375000D02*
X582000D01*
Y368166D01*
X583820Y368920D01*
X586230Y370770D01*
X588080Y373180D01*
X588834Y375000D01*
D02*
G37*
G36*
X574000D02*
X567166D01*
X567920Y373180D01*
X569770Y370770D01*
X572180Y368920D01*
X574000Y368166D01*
Y375000D01*
D02*
G37*
G36*
X963000Y369416D02*
Y361500D01*
X970916D01*
X969954Y363824D01*
X967944Y366444D01*
X965324Y368454D01*
X963000Y369416D01*
D02*
G37*
G36*
X955000D02*
X952676Y368454D01*
X950056Y366444D01*
X948046Y363824D01*
X947084Y361500D01*
X955000D01*
Y369416D01*
D02*
G37*
G36*
X528000Y390640D02*
X524987Y390243D01*
X522180Y389080D01*
X519770Y387230D01*
X517920Y384820D01*
X516757Y382012D01*
X516360Y379000D01*
X516757Y375988D01*
X517920Y373180D01*
X519770Y370770D01*
X520404Y370283D01*
Y359101D01*
X519270Y358230D01*
X517824Y356346D01*
X435440D01*
X434830Y357820D01*
X432980Y360230D01*
X430570Y362080D01*
X427762Y363243D01*
X424750Y363640D01*
X421738Y363243D01*
X418930Y362080D01*
X416520Y360230D01*
X414670Y357820D01*
X413507Y355013D01*
X413111Y352000D01*
X413507Y348988D01*
X414670Y346180D01*
X416520Y343770D01*
X418930Y341920D01*
X421738Y340757D01*
X424750Y340360D01*
X427762Y340757D01*
X430570Y341920D01*
X432178Y343154D01*
X517518D01*
X522336Y338336D01*
X523702Y337287D01*
X525293Y336628D01*
X527000Y336404D01*
X528707Y336628D01*
X530298Y337287D01*
X531664Y338336D01*
X532675Y339653D01*
X533320Y339920D01*
X535730Y341770D01*
X537580Y344180D01*
X538743Y346987D01*
X539140Y350000D01*
X538743Y353013D01*
X537580Y355820D01*
X535730Y358230D01*
X533596Y359868D01*
Y368827D01*
X533820Y368920D01*
X536230Y370770D01*
X538080Y373180D01*
X539243Y375988D01*
X539640Y379000D01*
X539243Y382012D01*
X538080Y384820D01*
X536230Y387230D01*
X533820Y389080D01*
X531012Y390243D01*
X528000Y390640D01*
D02*
G37*
G36*
X970916Y353500D02*
X963000D01*
Y345584D01*
X965324Y346546D01*
X967944Y348556D01*
X969954Y351176D01*
X970916Y353500D01*
D02*
G37*
G36*
X955000D02*
X947084D01*
X948046Y351176D01*
X950056Y348556D01*
X952676Y346546D01*
X955000Y345584D01*
Y353500D01*
D02*
G37*
G36*
X734750Y337834D02*
Y331000D01*
X741584D01*
X740830Y332820D01*
X738980Y335230D01*
X736570Y337080D01*
X734750Y337834D01*
D02*
G37*
G36*
X726750D02*
X724930Y337080D01*
X722520Y335230D01*
X720670Y332820D01*
X719916Y331000D01*
X726750D01*
Y337834D01*
D02*
G37*
G36*
X741584Y323000D02*
X734750D01*
Y316166D01*
X736570Y316920D01*
X738980Y318770D01*
X740830Y321180D01*
X741584Y323000D01*
D02*
G37*
G36*
X726750D02*
X719916D01*
X720670Y321180D01*
X722520Y318770D01*
X724930Y316920D01*
X726750Y316166D01*
Y323000D01*
D02*
G37*
G36*
X689400Y360940D02*
X686387Y360543D01*
X683580Y359380D01*
X681170Y357530D01*
X679320Y355120D01*
X678157Y352313D01*
X677760Y349300D01*
X678157Y346287D01*
X679320Y343480D01*
X681170Y341070D01*
X683580Y339220D01*
X686387Y338057D01*
X689400Y337660D01*
X690683Y337829D01*
X691991Y335382D01*
X693062Y331851D01*
X693415Y328266D01*
X693404Y328179D01*
Y312596D01*
X686745D01*
X685161Y314661D01*
X683063Y316270D01*
X680621Y317282D01*
X678000Y317627D01*
X675379Y317282D01*
X672937Y316270D01*
X670839Y314661D01*
X669230Y312563D01*
X668687Y311253D01*
X667313D01*
X666770Y312563D01*
X665161Y314661D01*
X663063Y316270D01*
X662000Y316710D01*
Y306000D01*
Y295290D01*
X663063Y295730D01*
X665161Y297339D01*
X666770Y299437D01*
X667313Y300747D01*
X668687D01*
X669230Y299437D01*
X670839Y297339D01*
X672937Y295730D01*
X675379Y294718D01*
X678000Y294373D01*
X680621Y294718D01*
X683063Y295730D01*
X685161Y297339D01*
X686745Y299404D01*
X693404D01*
Y276984D01*
X691770Y275730D01*
X689920Y273320D01*
X688757Y270513D01*
X688360Y267500D01*
X688757Y264487D01*
X689920Y261680D01*
X691770Y259270D01*
X693404Y258016D01*
Y236484D01*
X691770Y235230D01*
X689920Y232820D01*
X688757Y230012D01*
X688360Y227000D01*
X688757Y223988D01*
X689920Y221180D01*
X691770Y218770D01*
X694180Y216920D01*
X696988Y215757D01*
X700000Y215361D01*
X703012Y215757D01*
X705820Y216920D01*
X708230Y218770D01*
X710080Y221180D01*
X711243Y223988D01*
X711639Y227000D01*
X711243Y230012D01*
X710080Y232820D01*
X708230Y235230D01*
X706596Y236484D01*
Y258016D01*
X708230Y259270D01*
X710080Y261680D01*
X711243Y264487D01*
X711639Y267500D01*
X711243Y270513D01*
X710080Y273320D01*
X708230Y275730D01*
X706596Y276984D01*
Y305000D01*
Y328179D01*
X706639D01*
X706244Y333191D01*
X705071Y338079D01*
X703147Y342724D01*
X700700Y346718D01*
X701040Y349300D01*
X700643Y352313D01*
X699480Y355120D01*
X697630Y357530D01*
X695220Y359380D01*
X692412Y360543D01*
X689400Y360940D01*
D02*
G37*
G36*
X654000Y316710D02*
X652937Y316270D01*
X650839Y314661D01*
X649230Y312563D01*
X648218Y310121D01*
X648203Y310000D01*
X654000D01*
Y316710D01*
D02*
G37*
G36*
X531000Y305834D02*
Y299000D01*
X537834D01*
X537080Y300820D01*
X535230Y303230D01*
X532820Y305080D01*
X531000Y305834D01*
D02*
G37*
G36*
X523000D02*
X521180Y305080D01*
X518770Y303230D01*
X516920Y300820D01*
X516166Y299000D01*
X523000D01*
Y305834D01*
D02*
G37*
G36*
X689400Y386340D02*
X686387Y385943D01*
X683580Y384780D01*
X681170Y382930D01*
X679320Y380520D01*
X678157Y377713D01*
X677760Y374700D01*
X678157Y371688D01*
X679320Y368880D01*
X681170Y366470D01*
X683580Y364620D01*
X686387Y363457D01*
X689400Y363060D01*
X692412Y363457D01*
X695220Y364620D01*
X697630Y366470D01*
X698884Y368104D01*
X729029D01*
X729116Y368115D01*
X732701Y367762D01*
X736232Y366691D01*
X739487Y364951D01*
X742271Y362666D01*
X742325Y362596D01*
X744896Y360025D01*
X744966Y359972D01*
X747251Y357187D01*
X748991Y353932D01*
X750062Y350401D01*
X750415Y346816D01*
X750404Y346729D01*
Y316484D01*
X748770Y315230D01*
X746920Y312820D01*
X745757Y310012D01*
X745360Y307000D01*
X745736Y304145D01*
X732023Y288472D01*
X730750Y288640D01*
X727738Y288243D01*
X724930Y287080D01*
X722520Y285230D01*
X720670Y282820D01*
X719507Y280012D01*
X719110Y277000D01*
X719507Y273987D01*
X720670Y271180D01*
X722520Y268770D01*
X724154Y267516D01*
Y224771D01*
X724165Y224684D01*
X723812Y221099D01*
X722741Y217568D01*
X721001Y214313D01*
X718716Y211528D01*
X718646Y211475D01*
X718641Y211469D01*
X718635Y211464D01*
X718613Y211436D01*
X716127Y209396D01*
X713246Y207855D01*
X710120Y206907D01*
X706910Y206591D01*
X706869Y206596D01*
X656442D01*
Y206629D01*
X651934Y206274D01*
X647536Y205218D01*
X643358Y203487D01*
X639502Y201124D01*
X636063Y198187D01*
X636086Y198164D01*
X627525Y189604D01*
X627495Y189634D01*
X624230Y185811D01*
X621603Y181524D01*
X619679Y176880D01*
X618506Y171991D01*
X618111Y166979D01*
X618154D01*
Y136734D01*
X616520Y135480D01*
X614670Y133070D01*
X613507Y130263D01*
X613110Y127250D01*
X613507Y124237D01*
X614670Y121430D01*
X616520Y119020D01*
X618930Y117170D01*
X621737Y116007D01*
X624750Y115611D01*
X627762Y116007D01*
X630570Y117170D01*
X632980Y119020D01*
X634830Y121430D01*
X635993Y124237D01*
X636390Y127250D01*
X635993Y130263D01*
X634830Y133070D01*
X632980Y135480D01*
X631346Y136734D01*
Y166979D01*
X631335Y167066D01*
X631688Y170651D01*
X632759Y174182D01*
X634499Y177437D01*
X636784Y180222D01*
X636854Y180275D01*
X645414Y188836D01*
X645426Y188852D01*
X647775Y190779D01*
X650472Y192221D01*
X653399Y193108D01*
X656423Y193406D01*
X656442Y193404D01*
X706869D01*
Y193368D01*
X711544Y193736D01*
X716103Y194830D01*
X720436Y196625D01*
X724434Y199075D01*
X727985Y202108D01*
X728000Y202121D01*
X728005Y202116D01*
X731270Y205939D01*
X733897Y210226D01*
X735821Y214870D01*
X736994Y219759D01*
X737389Y224771D01*
X737346D01*
Y267516D01*
X738980Y268770D01*
X740830Y271180D01*
X741993Y273987D01*
X742390Y277000D01*
X742014Y279855D01*
X755727Y295528D01*
X757000Y295360D01*
X760013Y295757D01*
X762820Y296920D01*
X765230Y298770D01*
X767080Y301180D01*
X767461Y302100D01*
X768644Y301997D01*
X768773Y301949D01*
X769920Y299180D01*
X771770Y296770D01*
X774180Y294920D01*
X776988Y293757D01*
X780000Y293360D01*
X783013Y293757D01*
X785820Y294920D01*
X788230Y296770D01*
X790080Y299180D01*
X790631Y300511D01*
X795382Y301518D01*
X797530Y299870D01*
X800337Y298707D01*
X803350Y298311D01*
X806363Y298707D01*
X809170Y299870D01*
X811580Y301720D01*
X813430Y304130D01*
X814593Y306938D01*
X814989Y309950D01*
X814593Y312962D01*
X813430Y315770D01*
X811580Y318180D01*
X809170Y320030D01*
X806363Y321193D01*
X803350Y321590D01*
X800337Y321193D01*
X797530Y320030D01*
X795120Y318180D01*
X793270Y315770D01*
X792719Y314439D01*
X787968Y313432D01*
X786596Y314484D01*
Y345516D01*
X788230Y346770D01*
X790080Y349180D01*
X791243Y351987D01*
X791639Y355000D01*
X791243Y358013D01*
X790080Y360820D01*
X788230Y363230D01*
X785820Y365080D01*
X783012Y366243D01*
X780000Y366640D01*
X776987Y366243D01*
X774180Y365080D01*
X771770Y363230D01*
X769920Y360820D01*
X768757Y358013D01*
X768360Y355000D01*
X768757Y351987D01*
X769920Y349180D01*
X771770Y346770D01*
X773404Y345516D01*
Y314484D01*
X771770Y313230D01*
X769920Y310820D01*
X769539Y309900D01*
X768356Y310003D01*
X768227Y310051D01*
X767080Y312820D01*
X765230Y315230D01*
X763596Y316484D01*
Y346729D01*
X763639D01*
X763244Y351741D01*
X762071Y356629D01*
X760147Y361274D01*
X757520Y365561D01*
X754255Y369384D01*
X754225Y369354D01*
X751654Y371925D01*
X751684Y371955D01*
X747861Y375220D01*
X743574Y377847D01*
X738930Y379771D01*
X734041Y380944D01*
X729029Y381339D01*
Y381296D01*
X698884D01*
X697630Y382930D01*
X695220Y384780D01*
X692412Y385943D01*
X689400Y386340D01*
D02*
G37*
G36*
X654000Y302000D02*
X648203D01*
X648218Y301879D01*
X649230Y299437D01*
X650839Y297339D01*
X652937Y295730D01*
X654000Y295290D01*
Y302000D01*
D02*
G37*
G36*
X951250Y313127D02*
X948629Y312782D01*
X946187Y311770D01*
X944089Y310161D01*
X942480Y308063D01*
X941468Y305621D01*
X941123Y303000D01*
X941468Y300379D01*
X942480Y297937D01*
X944089Y295839D01*
X946187Y294230D01*
X948629Y293218D01*
X951250Y292873D01*
X953871Y293218D01*
X956313Y294230D01*
X958411Y295839D01*
X960020Y297937D01*
X961032Y300379D01*
X961377Y303000D01*
X961032Y305621D01*
X960020Y308063D01*
X958411Y310161D01*
X956313Y311770D01*
X953871Y312782D01*
X951250Y313127D01*
D02*
G37*
G36*
X908750D02*
X893750D01*
X891129Y312782D01*
X888687Y311770D01*
X886589Y310161D01*
X886011Y309407D01*
X883680Y309254D01*
X877960Y308116D01*
X872437Y306241D01*
X867205Y303662D01*
X862356Y300421D01*
X857971Y296576D01*
X854125Y292190D01*
X850885Y287341D01*
X848305Y282110D01*
X846430Y276587D01*
X845292Y270867D01*
X844911Y265046D01*
X844950D01*
Y251245D01*
X842603Y249444D01*
X840593Y246824D01*
X839329Y243774D01*
X838898Y240500D01*
X839329Y237226D01*
X840593Y234176D01*
X842603Y231556D01*
X845222Y229546D01*
X845257Y229532D01*
X845356Y228281D01*
X846743Y222504D01*
X849016Y217015D01*
X852120Y211950D01*
X855979Y207432D01*
X860496Y203574D01*
X865562Y200470D01*
X871050Y198196D01*
X876827Y196809D01*
X882750Y196343D01*
Y196404D01*
X886156D01*
X886589Y195839D01*
X888687Y194230D01*
X891129Y193218D01*
X893750Y192873D01*
X908750D01*
X911371Y193218D01*
X913813Y194230D01*
X915911Y195839D01*
X917520Y197937D01*
X918134Y199418D01*
X919404Y199166D01*
Y181502D01*
X917950Y180899D01*
X916479Y179771D01*
X915351Y178300D01*
X914641Y176588D01*
X914399Y174750D01*
Y165750D01*
X914641Y163912D01*
X915351Y162200D01*
X916479Y160729D01*
X917950Y159601D01*
X919662Y158891D01*
X921500Y158649D01*
X930500D01*
X932338Y158891D01*
X934050Y159601D01*
X935521Y160729D01*
X936649Y162200D01*
X937359Y163912D01*
X937601Y165750D01*
Y174750D01*
X937359Y176588D01*
X936649Y178300D01*
X935521Y179771D01*
X934050Y180899D01*
X932596Y181502D01*
Y227750D01*
Y253250D01*
X932637D01*
X932250Y258160D01*
X931101Y262949D01*
X929216Y267499D01*
X926642Y271699D01*
X923444Y275444D01*
X919699Y278642D01*
X918712Y279247D01*
X918532Y280621D01*
X917520Y283063D01*
X915911Y285161D01*
X913813Y286770D01*
X911371Y287782D01*
X908750Y288127D01*
X893750D01*
X891129Y287782D01*
X888687Y286770D01*
X886589Y285161D01*
X884980Y283063D01*
X883968Y280621D01*
X883623Y278000D01*
X883968Y275379D01*
X884980Y272937D01*
X886589Y270839D01*
X888687Y269230D01*
X891129Y268218D01*
X893750Y267873D01*
X908750D01*
X911371Y268218D01*
X911467Y268258D01*
X914099Y266098D01*
X916358Y263345D01*
X918037Y260203D01*
X919071Y256795D01*
X919413Y253324D01*
X919404Y253250D01*
Y234346D01*
X916535D01*
X915911Y235161D01*
X913813Y236770D01*
X911371Y237782D01*
X908750Y238127D01*
X893750D01*
X891129Y237782D01*
X888687Y236770D01*
X886589Y235161D01*
X884980Y233063D01*
X883968Y230621D01*
X883623Y228000D01*
X883968Y225379D01*
X884980Y222937D01*
X886589Y220839D01*
X888687Y219230D01*
X891129Y218218D01*
X893750Y217873D01*
X908750D01*
X911371Y218218D01*
X913813Y219230D01*
X915911Y220839D01*
X916152Y221154D01*
X919404D01*
Y210310D01*
X918134Y209879D01*
X917914Y210164D01*
X916548Y211213D01*
X914957Y211872D01*
X913250Y212097D01*
X913025D01*
X911371Y212782D01*
X908750Y213127D01*
X893750D01*
X891129Y212782D01*
X888687Y211770D01*
X886589Y210161D01*
X886156Y209596D01*
X882750D01*
X882541Y209569D01*
X877940Y210022D01*
X873315Y211425D01*
X869052Y213703D01*
X865316Y216770D01*
X862250Y220506D01*
X859971Y224768D01*
X858568Y229394D01*
X858505Y230033D01*
X860490Y231556D01*
X862500Y234176D01*
X863764Y237226D01*
X864195Y240500D01*
X863764Y243774D01*
X862500Y246824D01*
X860490Y249444D01*
X858143Y251245D01*
Y265046D01*
X858127Y265171D01*
X858503Y269956D01*
X859653Y274744D01*
X861537Y279294D01*
X864110Y283493D01*
X867309Y287238D01*
X871053Y290436D01*
X875252Y293009D01*
X879802Y294894D01*
X884591Y296043D01*
X886328Y296180D01*
X886589Y295839D01*
X888687Y294230D01*
X891129Y293218D01*
X893750Y292873D01*
X908750D01*
X911371Y293218D01*
X913813Y294230D01*
X915911Y295839D01*
X917520Y297937D01*
X918532Y300379D01*
X918704Y301691D01*
X918713Y301702D01*
X918869Y302080D01*
X918963Y302202D01*
X919622Y303793D01*
X919846Y305500D01*
X919622Y307207D01*
X918963Y308798D01*
X917914Y310164D01*
X916548Y311213D01*
X914957Y311872D01*
X913250Y312096D01*
X913025D01*
X911371Y312782D01*
X908750Y313127D01*
D02*
G37*
G36*
X272250Y314140D02*
X269237Y313743D01*
X266430Y312580D01*
X264020Y310730D01*
X262170Y308320D01*
X261007Y305513D01*
X260611Y302500D01*
X260879Y300458D01*
X249158Y288736D01*
X248000Y288967D01*
X245546Y288478D01*
X243465Y287088D01*
X238162Y281785D01*
X236772Y279704D01*
X236283Y277250D01*
X236514Y276092D01*
X205212Y244791D01*
X202882Y245756D01*
X200000Y246135D01*
X197118Y245756D01*
X194432Y244643D01*
X192126Y242874D01*
X190357Y240568D01*
X189244Y237882D01*
X188865Y235000D01*
X189244Y232118D01*
X190357Y229432D01*
X192126Y227126D01*
X194432Y225357D01*
X197118Y224244D01*
X200000Y223865D01*
X202882Y224244D01*
X205568Y225357D01*
X207874Y227126D01*
X209643Y229432D01*
X210577Y231687D01*
X211791Y232619D01*
X211750Y232660D01*
X211750Y232672D01*
X245279Y266200D01*
X245546Y266022D01*
X248000Y265534D01*
X250454Y266022D01*
X252535Y267412D01*
X257838Y272715D01*
X259228Y274796D01*
X259716Y277250D01*
X259228Y279704D01*
X259050Y279971D01*
X270208Y291129D01*
X272250Y290861D01*
X275263Y291257D01*
X278070Y292420D01*
X280480Y294270D01*
X282330Y296680D01*
X283493Y299487D01*
X283890Y302500D01*
X283493Y305513D01*
X282330Y308320D01*
X280480Y310730D01*
X278070Y312580D01*
X275263Y313743D01*
X272250Y314140D01*
D02*
G37*
G36*
X537834Y291000D02*
X531000D01*
Y284166D01*
X532820Y284920D01*
X535230Y286770D01*
X537080Y289180D01*
X537834Y291000D01*
D02*
G37*
G36*
X523000D02*
X516166D01*
X516920Y289180D01*
X518770Y286770D01*
X521180Y284920D01*
X523000Y284166D01*
Y291000D01*
D02*
G37*
G36*
X627500Y348740D02*
X624487Y348343D01*
X621680Y347180D01*
X619270Y345330D01*
X617420Y342920D01*
X616257Y340113D01*
X615860Y337100D01*
X616257Y334087D01*
X617420Y331280D01*
X619270Y328870D01*
X620904Y327616D01*
Y304868D01*
X618770Y303230D01*
X616920Y300820D01*
X615757Y298013D01*
X615360Y295000D01*
X615757Y291987D01*
X616920Y289180D01*
X618770Y286770D01*
X621180Y284920D01*
X623987Y283757D01*
X627000Y283361D01*
X630013Y283757D01*
X632820Y284920D01*
X635230Y286770D01*
X637080Y289180D01*
X638243Y291987D01*
X638639Y295000D01*
X638243Y298013D01*
X637080Y300820D01*
X635230Y303230D01*
X634096Y304101D01*
Y327616D01*
X635730Y328870D01*
X637580Y331280D01*
X638743Y334087D01*
X639140Y337100D01*
X638743Y340113D01*
X637580Y342920D01*
X635730Y345330D01*
X633320Y347180D01*
X630513Y348343D01*
X627500Y348740D01*
D02*
G37*
G36*
X385000Y316639D02*
X381987Y316243D01*
X379180Y315080D01*
X376770Y313230D01*
X374920Y310820D01*
X373757Y308013D01*
X373360Y305000D01*
X373757Y301987D01*
X374920Y299180D01*
X376770Y296770D01*
X378404Y295516D01*
Y284484D01*
X376770Y283230D01*
X374920Y280820D01*
X373757Y278013D01*
X373360Y275000D01*
X373539Y273640D01*
X373145Y272534D01*
X369880Y268711D01*
X367253Y264424D01*
X365329Y259779D01*
X364156Y254891D01*
X363761Y249879D01*
X363803D01*
Y244484D01*
X362170Y243230D01*
X360320Y240820D01*
X359157Y238013D01*
X358760Y235000D01*
X359157Y231987D01*
X360320Y229180D01*
X362170Y226770D01*
X364580Y224920D01*
X367387Y223757D01*
X370400Y223361D01*
X373413Y223757D01*
X376220Y224920D01*
X378630Y226770D01*
X379884Y228404D01*
X390132D01*
X391770Y226270D01*
X393404Y225016D01*
Y206984D01*
X391770Y205730D01*
X389920Y203320D01*
X388757Y200513D01*
X388360Y197500D01*
X388757Y194487D01*
X389920Y191680D01*
X391770Y189270D01*
X394180Y187420D01*
X396987Y186257D01*
X400000Y185861D01*
X403013Y186257D01*
X405820Y187420D01*
X408230Y189270D01*
X410080Y191680D01*
X411243Y194487D01*
X411640Y197500D01*
X411243Y200513D01*
X410080Y203320D01*
X408230Y205730D01*
X406596Y206984D01*
Y225016D01*
X408230Y226270D01*
X410080Y228680D01*
X411243Y231488D01*
X411640Y234500D01*
X411243Y237513D01*
X410080Y240320D01*
X408230Y242730D01*
X405820Y244580D01*
X403013Y245743D01*
X400000Y246140D01*
X396987Y245743D01*
X394180Y244580D01*
X391770Y242730D01*
X390900Y241597D01*
X379884D01*
X378630Y243230D01*
X376996Y244484D01*
Y249879D01*
X376985Y249966D01*
X377338Y253551D01*
X378409Y257082D01*
X380149Y260337D01*
X382434Y263121D01*
X382504Y263175D01*
X382958Y263629D01*
X385000Y263361D01*
X388013Y263757D01*
X390820Y264920D01*
X393230Y266770D01*
X395080Y269180D01*
X396243Y271987D01*
X396640Y275000D01*
X396243Y278013D01*
X395080Y280820D01*
X393230Y283230D01*
X391596Y284484D01*
Y295516D01*
X393230Y296770D01*
X395080Y299180D01*
X396243Y301987D01*
X396640Y305000D01*
X396243Y308013D01*
X395080Y310820D01*
X393230Y313230D01*
X390820Y315080D01*
X388013Y316243D01*
X385000Y316639D01*
D02*
G37*
G36*
X955250Y269710D02*
Y257000D01*
X961377D01*
Y260500D01*
X961032Y263121D01*
X960020Y265563D01*
X958411Y267661D01*
X956313Y269270D01*
X955250Y269710D01*
D02*
G37*
G36*
X947250Y269710D02*
X946187Y269270D01*
X944089Y267661D01*
X942480Y265563D01*
X941468Y263121D01*
X941123Y260500D01*
Y257000D01*
X947250D01*
Y269710D01*
D02*
G37*
G36*
X577500Y361640D02*
X574487Y361243D01*
X571680Y360080D01*
X569270Y358230D01*
X567420Y355820D01*
X566257Y353013D01*
X565860Y350000D01*
X566257Y346987D01*
X567420Y344180D01*
X569270Y341770D01*
X571680Y339920D01*
X574487Y338757D01*
X577500Y338360D01*
X580513Y338757D01*
X583320Y339920D01*
X585730Y341770D01*
X586984Y343404D01*
X592462D01*
X593870Y341570D01*
X595504Y340316D01*
Y278128D01*
X594180Y277580D01*
X591770Y275730D01*
X589920Y273320D01*
X588757Y270513D01*
X588360Y267500D01*
X588757Y264487D01*
X589920Y261680D01*
X591770Y259270D01*
X594180Y257420D01*
X596987Y256257D01*
X600000Y255861D01*
X603013Y256257D01*
X605820Y257420D01*
X608230Y259270D01*
X610080Y261680D01*
X611243Y264487D01*
X611640Y267500D01*
X611243Y270513D01*
X610080Y273320D01*
X608696Y275123D01*
Y340316D01*
X610330Y341570D01*
X612180Y343980D01*
X613343Y346787D01*
X613740Y349800D01*
X613343Y352813D01*
X612180Y355620D01*
X610330Y358030D01*
X607920Y359880D01*
X605112Y361043D01*
X602100Y361440D01*
X599087Y361043D01*
X596280Y359880D01*
X593870Y358030D01*
X592769Y356596D01*
X586984D01*
X585730Y358230D01*
X583320Y360080D01*
X580513Y361243D01*
X577500Y361640D01*
D02*
G37*
G36*
X901250Y263127D02*
X898629Y262782D01*
X896187Y261770D01*
X894089Y260161D01*
X892480Y258063D01*
X891468Y255621D01*
X891123Y253000D01*
X891468Y250379D01*
X892480Y247937D01*
X894089Y245839D01*
X896187Y244230D01*
X898629Y243218D01*
X901250Y242873D01*
X903871Y243218D01*
X906313Y244230D01*
X908411Y245839D01*
X910020Y247937D01*
X911032Y250379D01*
X911377Y253000D01*
X911032Y255621D01*
X910020Y258063D01*
X908411Y260161D01*
X906313Y261770D01*
X903871Y262782D01*
X901250Y263127D01*
D02*
G37*
G36*
X335000Y316639D02*
X331987Y316243D01*
X329180Y315080D01*
X326770Y313230D01*
X324920Y310820D01*
X323757Y308013D01*
X323360Y305000D01*
X323757Y301987D01*
X324920Y299180D01*
X326770Y296770D01*
X328404Y295516D01*
Y284484D01*
X326770Y283230D01*
X324920Y280820D01*
X323757Y278013D01*
X323360Y275000D01*
X323757Y271987D01*
X324920Y269180D01*
X326770Y266770D01*
X329180Y264920D01*
X331987Y263757D01*
X335000Y263361D01*
X336022Y263495D01*
X336991Y261682D01*
X338062Y258151D01*
X338415Y254566D01*
X338404Y254479D01*
Y244484D01*
X336770Y243230D01*
X335516Y241597D01*
X314484D01*
X313230Y243230D01*
X310820Y245080D01*
X308013Y246243D01*
X305000Y246640D01*
X301987Y246243D01*
X299180Y245080D01*
X296770Y243230D01*
X295516Y241597D01*
X253854D01*
X252874Y242874D01*
X250568Y244643D01*
X247882Y245756D01*
X245000Y246135D01*
X242118Y245756D01*
X239432Y244643D01*
X237126Y242874D01*
X235357Y240568D01*
X234244Y237882D01*
X233865Y235000D01*
X234244Y232118D01*
X235357Y229432D01*
X236107Y228454D01*
X236128Y228293D01*
X236787Y226702D01*
X237836Y225336D01*
X239202Y224287D01*
X240246Y223855D01*
Y222480D01*
X239432Y222143D01*
X237126Y220374D01*
X235357Y218068D01*
X234244Y215382D01*
X233865Y212500D01*
X234244Y209618D01*
X235357Y206932D01*
X237126Y204626D01*
X239432Y202857D01*
X241671Y201929D01*
Y200571D01*
X239432Y199643D01*
X237126Y197874D01*
X235357Y195568D01*
X234707Y194000D01*
X255293D01*
X254643Y195568D01*
X252874Y197874D01*
X250568Y199643D01*
X248329Y200571D01*
Y201929D01*
X250568Y202857D01*
X252874Y204626D01*
X254643Y206932D01*
X255756Y209618D01*
X256135Y212500D01*
X255756Y215382D01*
X254643Y218068D01*
X252874Y220374D01*
X250568Y222143D01*
X248329Y223071D01*
Y224429D01*
X250568Y225357D01*
X252874Y227126D01*
X253854Y228404D01*
X295516D01*
X296770Y226770D01*
X299180Y224920D01*
X301987Y223757D01*
X305000Y223361D01*
X308013Y223757D01*
X310820Y224920D01*
X313230Y226770D01*
X314484Y228404D01*
X335516D01*
X336770Y226770D01*
X339180Y224920D01*
X341987Y223757D01*
X345000Y223361D01*
X348013Y223757D01*
X350820Y224920D01*
X353230Y226770D01*
X355080Y229180D01*
X356243Y231987D01*
X356640Y235000D01*
X356243Y238013D01*
X355080Y240820D01*
X353230Y243230D01*
X351596Y244484D01*
Y254479D01*
X351639D01*
X351244Y259491D01*
X350071Y264380D01*
X348147Y269024D01*
X346259Y272106D01*
X346640Y275000D01*
X346243Y278013D01*
X345080Y280820D01*
X343230Y283230D01*
X341596Y284484D01*
Y295516D01*
X343230Y296770D01*
X345080Y299180D01*
X346243Y301987D01*
X346640Y305000D01*
X346243Y308013D01*
X345080Y310820D01*
X343230Y313230D01*
X340820Y315080D01*
X338013Y316243D01*
X335000Y316639D01*
D02*
G37*
G36*
X454000Y245334D02*
Y238500D01*
X460834D01*
X460080Y240320D01*
X458230Y242730D01*
X455820Y244580D01*
X454000Y245334D01*
D02*
G37*
G36*
X446000D02*
X444180Y244580D01*
X441770Y242730D01*
X439920Y240320D01*
X439166Y238500D01*
X446000D01*
Y245334D01*
D02*
G37*
G36*
X961377Y249000D02*
X955250D01*
Y236290D01*
X956313Y236730D01*
X958411Y238339D01*
X960020Y240437D01*
X961032Y242879D01*
X961377Y245500D01*
Y249000D01*
D02*
G37*
G36*
X947250D02*
X941123D01*
Y245500D01*
X941468Y242879D01*
X942480Y240437D01*
X944089Y238339D01*
X946187Y236730D01*
X947250Y236290D01*
Y249000D01*
D02*
G37*
G36*
X604000Y237834D02*
Y231000D01*
X610834D01*
X610080Y232820D01*
X608230Y235230D01*
X605820Y237080D01*
X604000Y237834D01*
D02*
G37*
G36*
X596000D02*
X594180Y237080D01*
X591770Y235230D01*
X589920Y232820D01*
X589166Y231000D01*
X596000D01*
Y237834D01*
D02*
G37*
G36*
X151750Y232297D02*
Y226500D01*
X158460D01*
X158020Y227563D01*
X156411Y229661D01*
X154313Y231270D01*
X151871Y232282D01*
X151750Y232297D01*
D02*
G37*
G36*
X143750D02*
X143629Y232282D01*
X141187Y231270D01*
X139089Y229661D01*
X137480Y227563D01*
X137040Y226500D01*
X143750D01*
Y232297D01*
D02*
G37*
G36*
X460834Y230500D02*
X454000D01*
Y223666D01*
X455820Y224420D01*
X458230Y226270D01*
X460080Y228680D01*
X460834Y230500D01*
D02*
G37*
G36*
X446000D02*
X439166D01*
X439920Y228680D01*
X441770Y226270D01*
X444180Y224420D01*
X446000Y223666D01*
Y230500D01*
D02*
G37*
G36*
X610834Y223000D02*
X604000D01*
Y216166D01*
X605820Y216920D01*
X608230Y218770D01*
X610080Y221180D01*
X610834Y223000D01*
D02*
G37*
G36*
X596000D02*
X589166D01*
X589920Y221180D01*
X591770Y218770D01*
X594180Y216920D01*
X596000Y216166D01*
Y223000D01*
D02*
G37*
G36*
X780000Y216639D02*
X776988Y216243D01*
X774180Y215080D01*
X771770Y213230D01*
X769920Y210820D01*
X768757Y208013D01*
X768458Y205742D01*
X752206Y195941D01*
X750512Y196643D01*
X747500Y197040D01*
X744488Y196643D01*
X741680Y195480D01*
X739270Y193630D01*
X737420Y191220D01*
X736257Y188413D01*
X735861Y185400D01*
X736257Y182388D01*
X737420Y179580D01*
X739270Y177170D01*
X741680Y175320D01*
X744488Y174157D01*
X747500Y173761D01*
X750512Y174157D01*
X753320Y175320D01*
X755730Y177170D01*
X757580Y179580D01*
X758743Y182388D01*
X759042Y184657D01*
X775294Y194459D01*
X776988Y193757D01*
X777979Y193626D01*
X785353Y177629D01*
X785270Y177520D01*
X784107Y174713D01*
X783710Y171700D01*
X784107Y168687D01*
X785270Y165880D01*
X787120Y163470D01*
X789530Y161620D01*
X792337Y160457D01*
X795350Y160061D01*
X798363Y160457D01*
X801170Y161620D01*
X803580Y163470D01*
X805430Y165880D01*
X806593Y168687D01*
X806990Y171700D01*
X806593Y174713D01*
X805430Y177520D01*
X803580Y179930D01*
X801170Y181780D01*
X798363Y182943D01*
X797371Y183074D01*
X789996Y199071D01*
X790080Y199180D01*
X791243Y201987D01*
X791640Y205000D01*
X791243Y208013D01*
X790080Y210820D01*
X788230Y213230D01*
X785820Y215080D01*
X783013Y216243D01*
X780000Y216639D01*
D02*
G37*
G36*
X204000Y200293D02*
Y194000D01*
X210293D01*
X209643Y195568D01*
X207874Y197874D01*
X205568Y199643D01*
X204000Y200293D01*
D02*
G37*
G36*
X196000D02*
X194432Y199643D01*
X192126Y197874D01*
X190357Y195568D01*
X189707Y194000D01*
X196000D01*
Y200293D01*
D02*
G37*
G36*
X951250Y213127D02*
X948629Y212782D01*
X946187Y211770D01*
X944089Y210161D01*
X942480Y208063D01*
X941468Y205621D01*
X941123Y203000D01*
X941468Y200379D01*
X942480Y197937D01*
X944089Y195839D01*
X946187Y194230D01*
X948629Y193218D01*
X951250Y192873D01*
X953871Y193218D01*
X956313Y194230D01*
X958411Y195839D01*
X960020Y197937D01*
X961032Y200379D01*
X961377Y203000D01*
X961032Y205621D01*
X960020Y208063D01*
X958411Y210161D01*
X956313Y211770D01*
X953871Y212782D01*
X951250Y213127D01*
D02*
G37*
G36*
X816750Y195234D02*
X814930Y194480D01*
X812520Y192630D01*
X810670Y190220D01*
X809916Y188400D01*
X816750D01*
Y195234D01*
D02*
G37*
G36*
X828750Y308890D02*
X825737Y308493D01*
X822930Y307330D01*
X820520Y305480D01*
X818670Y303070D01*
X817507Y300263D01*
X817110Y297250D01*
X817507Y294237D01*
X818670Y291430D01*
X820296Y289311D01*
X812344Y252332D01*
X810222Y251454D01*
X807603Y249444D01*
X805593Y246824D01*
X804329Y243774D01*
X803898Y240500D01*
X804329Y237226D01*
X805593Y234176D01*
X807603Y231556D01*
X810222Y229546D01*
X813273Y228283D01*
X816546Y227852D01*
X819480Y228238D01*
X829146Y218571D01*
X829216Y218518D01*
X831501Y215733D01*
X833241Y212479D01*
X834312Y208948D01*
X834665Y205363D01*
X834654Y205275D01*
Y190021D01*
X834665Y189934D01*
X834312Y186349D01*
X833632Y184107D01*
X832386Y184376D01*
X832390Y184400D01*
X831993Y187413D01*
X830830Y190220D01*
X828980Y192630D01*
X826570Y194480D01*
X824750Y195234D01*
Y184400D01*
X820750D01*
Y180400D01*
X809916D01*
X810670Y178580D01*
X812520Y176170D01*
X814930Y174320D01*
X817738Y173157D01*
X820750Y172761D01*
X823763Y173157D01*
X823796Y173171D01*
X824516Y172094D01*
X822792Y170371D01*
X820750Y170640D01*
X817738Y170243D01*
X814930Y169080D01*
X812520Y167230D01*
X810670Y164820D01*
X809507Y162013D01*
X809110Y159000D01*
X809507Y155988D01*
X810670Y153180D01*
X812520Y150770D01*
X814154Y149516D01*
Y133079D01*
X812420Y130820D01*
X811257Y128013D01*
X810861Y125000D01*
X811257Y121987D01*
X812420Y119180D01*
X814270Y116770D01*
X816680Y114920D01*
X819488Y113757D01*
X822500Y113361D01*
X825512Y113757D01*
X828320Y114920D01*
X830730Y116770D01*
X832580Y119180D01*
X833743Y121987D01*
X834140Y125000D01*
X833743Y128013D01*
X832580Y130820D01*
X830730Y133230D01*
X828320Y135080D01*
X827346Y135483D01*
Y149516D01*
X828980Y150770D01*
X830830Y153180D01*
X831993Y155988D01*
X832390Y159000D01*
X832121Y161042D01*
X838475Y167396D01*
X838505Y167366D01*
X841770Y171189D01*
X844397Y175476D01*
X846321Y180121D01*
X847494Y185009D01*
X847889Y190021D01*
X847846D01*
Y205275D01*
X847889D01*
X847494Y210287D01*
X846321Y215176D01*
X844397Y219821D01*
X841770Y224107D01*
X840631Y225440D01*
X840389Y225756D01*
X840310Y225816D01*
X838505Y227930D01*
X838475Y227900D01*
X828809Y237567D01*
X829195Y240500D01*
X828764Y243774D01*
X827500Y246824D01*
X825490Y249444D01*
X825256Y249624D01*
X833208Y286606D01*
X834570Y287170D01*
X836980Y289020D01*
X838830Y291430D01*
X839993Y294237D01*
X840389Y297250D01*
X839993Y300263D01*
X838830Y303070D01*
X836980Y305480D01*
X834570Y307330D01*
X831762Y308493D01*
X828750Y308890D01*
D02*
G37*
G36*
X255293Y186000D02*
X249000D01*
Y179707D01*
X250568Y180357D01*
X252874Y182126D01*
X254643Y184432D01*
X255293Y186000D01*
D02*
G37*
G36*
X241000D02*
X234707D01*
X235357Y184432D01*
X237126Y182126D01*
X239432Y180357D01*
X241000Y179707D01*
Y186000D01*
D02*
G37*
G36*
X210293D02*
X204000D01*
Y179707D01*
X205568Y180357D01*
X207874Y182126D01*
X209643Y184432D01*
X210293Y186000D01*
D02*
G37*
G36*
X196000D02*
X189707D01*
X190357Y184432D01*
X192126Y182126D01*
X194432Y180357D01*
X196000Y179707D01*
Y186000D01*
D02*
G37*
G36*
X722100Y184340D02*
X719088Y183943D01*
X716280Y182780D01*
X713870Y180930D01*
X712462Y179096D01*
X696984D01*
X695730Y180730D01*
X693320Y182580D01*
X690512Y183743D01*
X687500Y184140D01*
X684488Y183743D01*
X681680Y182580D01*
X679270Y180730D01*
X677420Y178320D01*
X676257Y175513D01*
X675860Y172500D01*
X676257Y169487D01*
X677420Y166680D01*
X679270Y164270D01*
X681680Y162420D01*
X684488Y161257D01*
X687500Y160861D01*
X690512Y161257D01*
X693320Y162420D01*
X695730Y164270D01*
X696984Y165904D01*
X712769D01*
X713870Y164470D01*
X715504Y163216D01*
Y134177D01*
X714270Y133230D01*
X712420Y130820D01*
X711257Y128013D01*
X710861Y125000D01*
X711257Y121987D01*
X712420Y119180D01*
X714270Y116770D01*
X716680Y114920D01*
X719488Y113757D01*
X722500Y113361D01*
X725512Y113757D01*
X728320Y114920D01*
X730730Y116770D01*
X732580Y119180D01*
X733743Y121987D01*
X734140Y125000D01*
X733743Y128013D01*
X732580Y130820D01*
X730730Y133230D01*
X728696Y134791D01*
Y163216D01*
X730330Y164470D01*
X732180Y166880D01*
X733343Y169688D01*
X733740Y172700D01*
X733343Y175713D01*
X732180Y178520D01*
X730330Y180930D01*
X727920Y182780D01*
X725113Y183943D01*
X722100Y184340D01*
D02*
G37*
G36*
X904600Y181084D02*
Y174250D01*
X911434D01*
X910680Y176070D01*
X908830Y178480D01*
X906420Y180330D01*
X904600Y181084D01*
D02*
G37*
G36*
X896600Y181084D02*
X894780Y180330D01*
X892370Y178480D01*
X890520Y176070D01*
X889766Y174250D01*
X896600D01*
Y181084D01*
D02*
G37*
G36*
X305000Y196640D02*
X301987Y196243D01*
X299180Y195080D01*
X296770Y193230D01*
X294920Y190820D01*
X293757Y188013D01*
X293360Y185000D01*
X293629Y182958D01*
X273662Y162991D01*
X273662Y162990D01*
X269768Y159096D01*
X264261D01*
X264261Y159096D01*
X246984D01*
X245730Y160730D01*
X243320Y162580D01*
X240513Y163743D01*
X237500Y164140D01*
X234487Y163743D01*
X231680Y162580D01*
X229270Y160730D01*
X227420Y158320D01*
X226257Y155513D01*
X225860Y152500D01*
X226257Y149487D01*
X227420Y146680D01*
X229270Y144270D01*
X230904Y143016D01*
Y134548D01*
X230676Y134454D01*
X228056Y132444D01*
X226046Y129824D01*
X224783Y126774D01*
X224352Y123500D01*
X224783Y120226D01*
X226046Y117176D01*
X228056Y114556D01*
X230676Y112546D01*
X233726Y111283D01*
X237000Y110852D01*
X240274Y111283D01*
X243324Y112546D01*
X245944Y114556D01*
X247954Y117176D01*
X249217Y120226D01*
X249648Y123500D01*
X249217Y126774D01*
X247954Y129824D01*
X245944Y132444D01*
X244096Y133861D01*
Y143016D01*
X245730Y144270D01*
X246984Y145904D01*
X264260D01*
X264261Y145904D01*
X272500D01*
X274207Y146128D01*
X275798Y146787D01*
X277164Y147836D01*
X282990Y153662D01*
X282991Y153662D01*
X302958Y173629D01*
X305000Y173361D01*
X308013Y173757D01*
X310820Y174920D01*
X313230Y176770D01*
X315080Y179180D01*
X316243Y181987D01*
X316639Y185000D01*
X316243Y188013D01*
X315080Y190820D01*
X313230Y193230D01*
X310820Y195080D01*
X308013Y196243D01*
X305000Y196640D01*
D02*
G37*
G36*
X751500Y170834D02*
Y164000D01*
X758334D01*
X757580Y165820D01*
X755730Y168230D01*
X753320Y170080D01*
X751500Y170834D01*
D02*
G37*
G36*
X743500Y170834D02*
X741680Y170080D01*
X739270Y168230D01*
X737420Y165820D01*
X736666Y164000D01*
X743500D01*
Y170834D01*
D02*
G37*
G36*
X461500Y168334D02*
Y161500D01*
X468334D01*
X467580Y163320D01*
X465730Y165730D01*
X463320Y167580D01*
X461500Y168334D01*
D02*
G37*
G36*
X453500Y168334D02*
X451680Y167580D01*
X449270Y165730D01*
X447420Y163320D01*
X446666Y161500D01*
X453500D01*
Y168334D01*
D02*
G37*
G36*
X896600Y166250D02*
X889766D01*
X890520Y164430D01*
X892370Y162020D01*
X894780Y160170D01*
X896600Y159416D01*
Y166250D01*
D02*
G37*
G36*
X911434D02*
X904600D01*
Y159416D01*
X906420Y160170D01*
X908830Y162020D01*
X910680Y164430D01*
X911434Y166250D01*
D02*
G37*
G36*
X743500Y156000D02*
X736666D01*
X737420Y154180D01*
X739270Y151770D01*
X741680Y149920D01*
X743500Y149166D01*
Y156000D01*
D02*
G37*
G36*
X758334D02*
X751500D01*
Y149166D01*
X753320Y149920D01*
X755730Y151770D01*
X757580Y154180D01*
X758334Y156000D01*
D02*
G37*
G36*
X468334Y153500D02*
X461500D01*
Y146666D01*
X463320Y147420D01*
X465730Y149270D01*
X467580Y151680D01*
X468334Y153500D01*
D02*
G37*
G36*
X453500D02*
X446666D01*
X447420Y151680D01*
X449270Y149270D01*
X451680Y147420D01*
X453500Y146666D01*
Y153500D01*
D02*
G37*
G36*
X158460Y218500D02*
X147750D01*
X137040D01*
X137480Y217437D01*
X139089Y215339D01*
X141187Y213730D01*
X142497Y213187D01*
Y211813D01*
X141187Y211270D01*
X139089Y209661D01*
X137480Y207563D01*
X136468Y205121D01*
X136123Y202500D01*
X136468Y199879D01*
X137480Y197437D01*
X138447Y196177D01*
X132637Y162976D01*
X131680Y162580D01*
X129270Y160730D01*
X127420Y158320D01*
X126257Y155513D01*
X125860Y152500D01*
X126257Y149487D01*
X127420Y146680D01*
X129270Y144270D01*
X131680Y142420D01*
X134487Y141257D01*
X137500Y140861D01*
X140513Y141257D01*
X143320Y142420D01*
X145730Y144270D01*
X147580Y146680D01*
X148743Y149487D01*
X149139Y152500D01*
X148743Y155513D01*
X147580Y158320D01*
X145730Y160730D01*
X145648Y160794D01*
X151220Y192633D01*
X151871Y192718D01*
X154313Y193730D01*
X156411Y195339D01*
X158020Y197437D01*
X159032Y199879D01*
X159377Y202500D01*
X159032Y205121D01*
X158020Y207563D01*
X156411Y209661D01*
X154313Y211270D01*
X153003Y211813D01*
Y213187D01*
X154313Y213730D01*
X156411Y215339D01*
X158020Y217437D01*
X158460Y218500D01*
D02*
G37*
G36*
X141000Y135416D02*
Y127500D01*
X148916D01*
X147954Y129824D01*
X145944Y132444D01*
X143324Y134454D01*
X141000Y135416D01*
D02*
G37*
G36*
X133000Y135416D02*
X130676Y134454D01*
X128056Y132444D01*
X126046Y129824D01*
X125084Y127500D01*
X133000D01*
Y135416D01*
D02*
G37*
G36*
X411500Y133334D02*
Y126500D01*
X418334D01*
X417580Y128320D01*
X415730Y130730D01*
X413320Y132580D01*
X411500Y133334D01*
D02*
G37*
G36*
X403500D02*
X401680Y132580D01*
X399270Y130730D01*
X397420Y128320D01*
X396666Y126500D01*
X403500D01*
Y133334D01*
D02*
G37*
G36*
X418334Y118500D02*
X411500D01*
Y111666D01*
X413320Y112420D01*
X415730Y114270D01*
X417580Y116680D01*
X418334Y118500D01*
D02*
G37*
G36*
X403500D02*
X396666D01*
X397420Y116680D01*
X399270Y114270D01*
X401680Y112420D01*
X403500Y111666D01*
Y118500D01*
D02*
G37*
G36*
X133000Y119500D02*
X125084D01*
X126046Y117176D01*
X128056Y114556D01*
X130676Y112546D01*
X133000Y111584D01*
Y119500D01*
D02*
G37*
G36*
X148916D02*
X141000D01*
Y111584D01*
X143324Y112546D01*
X145944Y114556D01*
X147954Y117176D01*
X148916Y119500D01*
D02*
G37*
G36*
X357700Y221240D02*
X354687Y220843D01*
X351880Y219680D01*
X349470Y217831D01*
X347620Y215420D01*
X346457Y212613D01*
X346060Y209600D01*
X346457Y206588D01*
X347620Y203780D01*
X349470Y201370D01*
X350904Y200269D01*
Y166984D01*
X349270Y165730D01*
X347420Y163320D01*
X346257Y160513D01*
X345860Y157500D01*
X346257Y154487D01*
X347420Y151680D01*
X349270Y149270D01*
X350904Y148016D01*
Y131984D01*
X349270Y130730D01*
X347420Y128320D01*
X346257Y125513D01*
X345860Y122500D01*
X346257Y119487D01*
X347420Y116680D01*
X349270Y114270D01*
X351680Y112420D01*
X354487Y111257D01*
X357500Y110861D01*
X360513Y111257D01*
X363320Y112420D01*
X365730Y114270D01*
X367580Y116680D01*
X368743Y119487D01*
X369140Y122500D01*
X368743Y125513D01*
X367580Y128320D01*
X365730Y130730D01*
X364096Y131984D01*
Y148016D01*
X365730Y149270D01*
X367580Y151680D01*
X368743Y154487D01*
X369140Y157500D01*
X368743Y160513D01*
X367580Y163320D01*
X365730Y165730D01*
X364096Y166984D01*
Y199962D01*
X365930Y201370D01*
X367780Y203780D01*
X368943Y206588D01*
X369339Y209600D01*
X368943Y212613D01*
X367780Y215420D01*
X365930Y217831D01*
X363520Y219680D01*
X360713Y220843D01*
X357700Y221240D01*
D02*
G37*
G36*
X687500Y134140D02*
X684488Y133743D01*
X681680Y132580D01*
X679270Y130730D01*
X677420Y128320D01*
X676257Y125513D01*
X675860Y122500D01*
X676257Y119487D01*
X677420Y116680D01*
X679270Y114270D01*
X681680Y112420D01*
X684488Y111257D01*
X687500Y110861D01*
X690512Y111257D01*
X693320Y112420D01*
X695730Y114270D01*
X697580Y116680D01*
X698743Y119487D01*
X699139Y122500D01*
X698743Y125513D01*
X697580Y128320D01*
X695730Y130730D01*
X693320Y132580D01*
X690512Y133743D01*
X687500Y134140D01*
D02*
G37*
G36*
X283000Y93084D02*
Y86250D01*
X289834D01*
X289080Y88070D01*
X287230Y90480D01*
X284820Y92330D01*
X283000Y93084D01*
D02*
G37*
G36*
X275000D02*
X273180Y92330D01*
X270770Y90480D01*
X268920Y88070D01*
X268166Y86250D01*
X275000D01*
Y93084D01*
D02*
G37*
G36*
X289834Y78250D02*
X283000D01*
Y71416D01*
X284820Y72170D01*
X287230Y74020D01*
X289080Y76430D01*
X289834Y78250D01*
D02*
G37*
G36*
X275000D02*
X268166D01*
X268920Y76430D01*
X270770Y74020D01*
X273180Y72170D01*
X275000Y71416D01*
Y78250D01*
D02*
G37*
G36*
X379000Y93890D02*
X375988Y93493D01*
X373180Y92330D01*
X370770Y90480D01*
X368920Y88070D01*
X367757Y85262D01*
X367360Y82250D01*
X367757Y79237D01*
X368920Y76430D01*
X370770Y74020D01*
X373180Y72170D01*
X375988Y71007D01*
X379000Y70610D01*
X382012Y71007D01*
X384820Y72170D01*
X387230Y74020D01*
X389080Y76430D01*
X390243Y79237D01*
X390640Y82250D01*
X390243Y85262D01*
X389080Y88070D01*
X387230Y90480D01*
X384820Y92330D01*
X382012Y93493D01*
X379000Y93890D01*
D02*
G37*
G36*
X872500Y74584D02*
Y67750D01*
X879334D01*
X878580Y69570D01*
X876730Y71980D01*
X874320Y73830D01*
X872500Y74584D01*
D02*
G37*
G36*
X864500Y74584D02*
X862680Y73830D01*
X860270Y71980D01*
X858420Y69570D01*
X857666Y67750D01*
X864500D01*
Y74584D01*
D02*
G37*
G36*
X879334Y59750D02*
X872500D01*
Y52916D01*
X874320Y53670D01*
X876730Y55520D01*
X878580Y57930D01*
X879334Y59750D01*
D02*
G37*
G36*
X864500D02*
X857666D01*
X858420Y57930D01*
X860270Y55520D01*
X862680Y53670D01*
X864500Y52916D01*
Y59750D01*
D02*
G37*
G36*
X768500Y75390D02*
X765488Y74993D01*
X762680Y73830D01*
X760270Y71980D01*
X758420Y69570D01*
X757257Y66763D01*
X756861Y63750D01*
X757257Y60738D01*
X758420Y57930D01*
X760270Y55520D01*
X762680Y53670D01*
X765488Y52507D01*
X768500Y52111D01*
X771513Y52507D01*
X774320Y53670D01*
X776730Y55520D01*
X778580Y57930D01*
X779743Y60738D01*
X780140Y63750D01*
X779743Y66763D01*
X778580Y69570D01*
X776730Y71980D01*
X774320Y73830D01*
X771513Y74993D01*
X768500Y75390D01*
D02*
G37*
G36*
X278500Y66390D02*
X275487Y65993D01*
X272680Y64830D01*
X270270Y62980D01*
X268420Y60570D01*
X267257Y57762D01*
X266861Y54750D01*
X267257Y51737D01*
X268420Y48930D01*
X270270Y46520D01*
X272680Y44670D01*
X275487Y43507D01*
X278500Y43110D01*
X281513Y43507D01*
X284320Y44670D01*
X286730Y46520D01*
X288580Y48930D01*
X289743Y51737D01*
X290140Y54750D01*
X289743Y57762D01*
X288580Y60570D01*
X286730Y62980D01*
X284320Y64830D01*
X281513Y65993D01*
X278500Y66390D01*
D02*
G37*
G36*
X178500D02*
X175487Y65993D01*
X172680Y64830D01*
X170270Y62980D01*
X168420Y60570D01*
X167257Y57762D01*
X166860Y54750D01*
X167257Y51737D01*
X168420Y48930D01*
X170270Y46520D01*
X172680Y44670D01*
X175487Y43507D01*
X178500Y43110D01*
X181513Y43507D01*
X184320Y44670D01*
X186730Y46520D01*
X188580Y48930D01*
X189743Y51737D01*
X190140Y54750D01*
X189743Y57762D01*
X188580Y60570D01*
X186730Y62980D01*
X184320Y64830D01*
X181513Y65993D01*
X178500Y66390D01*
D02*
G37*
G36*
X86500Y67826D02*
Y39500D01*
X114826D01*
X114739Y40606D01*
X113543Y45587D01*
X111583Y50319D01*
X108907Y54686D01*
X105580Y58580D01*
X101686Y61907D01*
X97318Y64583D01*
X92586Y66543D01*
X87606Y67739D01*
X86500Y67826D01*
D02*
G37*
G36*
X913250Y67576D02*
X912144Y67489D01*
X907163Y66293D01*
X902431Y64333D01*
X898064Y61657D01*
X894170Y58330D01*
X890843Y54436D01*
X888167Y50068D01*
X886207Y45336D01*
X885011Y40356D01*
X884924Y39250D01*
X913250D01*
Y67576D01*
D02*
G37*
G36*
X529000Y52116D02*
Y39000D01*
X542116D01*
X541283Y41745D01*
X539655Y44792D01*
X537463Y47463D01*
X534792Y49654D01*
X531745Y51283D01*
X529000Y52116D01*
D02*
G37*
G36*
X521000Y52116D02*
X518255Y51283D01*
X515208Y49654D01*
X512537Y47463D01*
X510345Y44792D01*
X508717Y41745D01*
X507884Y39000D01*
X521000D01*
Y52116D01*
D02*
G37*
G36*
X736250Y54748D02*
X733598Y54398D01*
X731126Y53375D01*
X729004Y51746D01*
X727375Y49624D01*
X726351Y47152D01*
X726002Y44500D01*
X726351Y41848D01*
X727375Y39376D01*
X729004Y37254D01*
X731126Y35625D01*
X733598Y34602D01*
X736250Y34252D01*
X738902Y34602D01*
X741374Y35625D01*
X743496Y37254D01*
X745125Y39376D01*
X746149Y41848D01*
X746498Y44500D01*
X746149Y47152D01*
X745125Y49624D01*
X743496Y51746D01*
X741374Y53375D01*
X738902Y54398D01*
X736250Y54748D01*
D02*
G37*
%LPD*%
D17*
X28000Y106000D02*
D03*
X973000Y595000D02*
D03*
X27000Y596000D02*
D03*
D18*
X973000Y90000D02*
D03*
D37*
X655939Y99810D02*
G03*
X637979Y107250I-17960J-17960D01*
G01*
X499500Y160021D02*
G03*
X506940Y142060I25400J0D01*
G01*
X534310Y114690D02*
G03*
X552271Y107250I17960J17960D01*
G01*
X424021Y73500D02*
G03*
X406060Y66061I0J-25400D01*
G01*
X426155Y382250D02*
G03*
X401288Y371941I-9J-35124D01*
G01*
X426155Y382250D02*
G03*
X468124Y399371I9J59979D01*
G01*
D02*
G03*
X469002Y400395I-5612J5702D01*
G01*
D02*
G03*
X477000Y425271I-34687J24876D01*
G01*
X401288Y371941D02*
G03*
X395000Y356729I15256J-15212D01*
G01*
X299561Y544440D02*
G03*
X317521Y537000I17960J17960D01*
G01*
X395000Y353694D02*
G03*
X402439Y335734I25400J0D01*
G01*
X262000Y609915D02*
G03*
X262000Y609879I25400J-36D01*
G01*
X269439Y627840D02*
G03*
X266967Y624967I17960J-17960D01*
G01*
X500000Y227652D02*
G03*
X492561Y245613I-25400J0D01*
G01*
X465943Y525931D02*
G03*
X439221Y537000I-26715J-26702D01*
G01*
X477000Y499221D02*
G03*
X465943Y525931I-37771J8D01*
G01*
X510000Y527467D02*
G03*
X510000Y527500I-8000J33D01*
G01*
Y437697D02*
G03*
X509999Y437796I-8000J0D01*
G01*
X201436Y235000D02*
G03*
X207086Y237336I-0J8000D01*
G01*
X535400Y642755D02*
G03*
X510000Y617355I0J-25400D01*
G01*
D02*
G03*
X484600Y642755I-25400J0D01*
G01*
X345000Y254479D02*
G03*
X337561Y272439I-25400J0D01*
G01*
X377840Y267840D02*
G03*
X370400Y249879I17960J-17960D01*
G01*
X889500Y303000D02*
G03*
X851546Y265046I0J-37954D01*
G01*
Y234204D02*
G03*
X882750Y203000I31204J0D01*
G01*
X627561Y362561D02*
G03*
X634685Y376535I-17960J17960D01*
G01*
D02*
G03*
X635000Y380521I-25085J3987D01*
G01*
Y401521D02*
G03*
X642439Y383560I25400J0D01*
G01*
X700000Y328179D02*
G03*
X692561Y346139I-25400J0D01*
G01*
X723310Y206810D02*
G03*
X730750Y224771I-17960J17960D01*
G01*
X723299Y206800D02*
G03*
X723310Y206810I-16431J16453D01*
G01*
X706869Y200000D02*
G03*
X723299Y206800I0J23253D01*
G01*
X746990Y367261D02*
G03*
X729029Y374700I-17960J-17960D01*
G01*
X757000Y346729D02*
G03*
X749560Y364689I-25400J0D01*
G01*
X656442Y200000D02*
G03*
X640750Y193500I0J-22192D01*
G01*
X632189Y184939D02*
G03*
X624750Y166979I17960J-17960D01*
G01*
X833811Y172061D02*
G03*
X841250Y190021I-17960J17960D01*
G01*
X835725Y221091D02*
G03*
X833811Y223236I-19875J-15816D01*
G01*
X841250Y205275D02*
G03*
X835725Y221091I-25400J0D01*
G01*
X910573Y276177D02*
G03*
X901250Y278000I-9323J-22927D01*
G01*
X924177Y262573D02*
G03*
X910573Y276177I-22927J-9323D01*
G01*
X926000Y253250D02*
G03*
X924177Y262573I-24750J0D01*
G01*
X856189Y425560D02*
G03*
X838229Y433000I-17960J-17960D01*
G01*
X646521D02*
G03*
X628560Y425560I0J-25400D01*
G01*
X812282Y577710D02*
G03*
X816000Y579250I0J5258D01*
G01*
X699154Y578028D02*
G03*
X701367Y577710I2233J7682D01*
G01*
X684560Y586689D02*
G03*
X699124Y578037I24275J24275D01*
G01*
X622983Y642755D02*
G03*
X640944Y650194I0J25400D01*
G01*
X266967Y624967D02*
G03*
X262000Y609915I20433J-15088D01*
G01*
X167561Y582561D02*
G03*
X175000Y600521I-17960J17960D01*
G01*
X269479Y417500D02*
G03*
X287439Y424939I0J25400D01*
G01*
X433764Y448736D02*
G03*
X427310Y459689I-24415J-7007D01*
G01*
X434750Y441729D02*
G03*
X433764Y448736I-25400J0D01*
G01*
X333256Y407500D02*
G03*
X320311Y400560I5015J-24900D01*
G01*
X338271Y408000D02*
G03*
X333256Y407500I0J-25400D01*
G01*
X624750Y35604D02*
G03*
X625000Y35000I854J0D01*
G01*
X655939Y99810D02*
X711250Y44500D01*
X552271Y107250D02*
X637979D01*
X499500Y160021D02*
Y173500D01*
X506940Y142060D02*
X534310Y114690D01*
X237500Y152500D02*
X264261D01*
X264261Y152500D02*
X272500D01*
X278326Y158326D02*
Y158326D01*
X305000Y185000D01*
X264261Y152500D02*
X264261Y152500D01*
X272500D02*
X278326Y158326D01*
X883250Y364686D02*
Y401810D01*
X893941Y412500D02*
X935250D01*
X880000Y355000D02*
X881913Y356913D01*
X883250Y401810D02*
X893941Y412500D01*
X883250Y394250D02*
Y398500D01*
X880000Y355000D02*
X883250D01*
X881913Y363350D02*
X883250Y364686D01*
X881913Y356913D02*
Y363350D01*
X880245Y401505D02*
Y401505D01*
Y401505D02*
X883250Y398500D01*
X856189Y425560D02*
X880245Y401505D01*
X883250Y355000D02*
X889750D01*
X375000Y35000D02*
X406060Y66061D01*
X424021Y73500D02*
X499500D01*
X499750Y197250D02*
X500000Y197500D01*
X499750Y173750D02*
Y197250D01*
X499500Y173500D02*
X499750Y173750D01*
X477000Y425271D02*
Y499200D01*
X317521Y537000D02*
X439200D01*
X395000Y353694D02*
Y356729D01*
X262000Y582000D02*
Y609879D01*
Y582000D02*
X299561Y544440D01*
X269439Y627840D02*
X285600Y644000D01*
X285150Y644450D02*
X288800Y648100D01*
X402439Y335734D02*
X492561Y245613D01*
X500000Y197500D02*
Y227652D01*
X439200Y537000D02*
X439221Y537000D01*
X477000Y499221D02*
X477000Y499200D01*
X510000Y527500D02*
Y617355D01*
X509750Y467700D02*
X510000Y527467D01*
X509750Y457800D02*
Y467700D01*
Y457800D02*
X509999Y437796D01*
X510000Y407000D02*
Y437697D01*
X387000Y642755D02*
X484600D01*
X347000D02*
X372250D01*
X311000D02*
X347000D01*
X373000D02*
X387000D01*
X207086Y237336D02*
X245025Y275275D01*
X248000Y277250D01*
X207086Y237336D02*
X207086Y237336D01*
X201436Y235000D02*
X201436D01*
X200000D02*
X201436D01*
X249975Y280225D02*
X272071Y302321D01*
X248000Y277250D02*
X249975Y280225D01*
X272250Y302500D02*
X272250Y302500D01*
X272071Y302321D02*
X272250Y302500D01*
X137750Y153929D02*
X146250Y202500D01*
X137500Y152500D02*
X137750Y153929D01*
X146250Y202500D02*
X147750D01*
X535400Y642755D02*
X622983D01*
X237500Y124000D02*
Y152500D01*
X335000Y275000D02*
X337561Y272439D01*
X345000Y235000D02*
Y254479D01*
X382500Y272500D02*
X385000Y275000D01*
X377840Y267840D02*
X382500Y272500D01*
Y277500D01*
X370400Y235000D02*
Y249879D01*
X889500Y303000D02*
X901250D01*
X851546Y240500D02*
Y265046D01*
Y234204D02*
Y240500D01*
X882750Y203000D02*
X901250D01*
X635000Y401521D02*
Y407500D01*
Y380521D02*
Y401521D01*
X642439Y383560D02*
X649151Y376849D01*
X627500Y362500D02*
X627561Y362561D01*
X700000Y305000D02*
Y328179D01*
X689400Y349300D02*
X692561Y346139D01*
X656442Y200000D02*
X706869D01*
X730750Y224771D02*
Y277000D01*
X746990Y367261D02*
X749560Y364689D01*
X757000Y307000D02*
Y346729D01*
X689400Y374700D02*
X729029D01*
X632189Y184939D02*
X640750Y193500D01*
X624750Y127250D02*
Y166979D01*
X820750Y126750D02*
Y159000D01*
X833811Y172061D01*
X841250Y190021D02*
Y205275D01*
X816546Y240500D02*
X833811Y223236D01*
X901250Y305500D02*
X913250D01*
X901250Y305000D02*
X913000D01*
X901250Y205000D02*
X913000D01*
X901250Y205500D02*
X913250D01*
X926000Y227750D02*
Y253250D01*
X901250Y278000D02*
X902500Y279250D01*
X646521Y433000D02*
X838229D01*
X610000Y407000D02*
X628560Y425560D01*
X701367Y577710D02*
X812282D01*
X699124Y578037D02*
X699154Y578028D01*
X628250Y643000D02*
X684560Y586689D01*
X640944Y650194D02*
X657250Y666500D01*
X145000Y560000D02*
X167561Y582561D01*
X175000Y600521D02*
Y665000D01*
X340000Y476750D02*
Y505750D01*
X287439Y424939D02*
X339250Y476750D01*
X235000Y417500D02*
X269479D01*
X411000Y476000D02*
Y500000D01*
Y476000D02*
X427310Y459689D01*
X410250Y476750D02*
X411000Y476000D01*
X338271Y408000D02*
X434750D01*
Y441729D01*
X272000Y352500D02*
X272125Y352625D01*
X272250Y352500D02*
X320311Y400560D01*
X926000Y357500D02*
X926000Y364000D01*
X267500Y352500D02*
X272000D01*
X237000Y123500D02*
X237500Y124000D01*
X145000Y460000D02*
Y505000D01*
X901250Y228000D02*
X908750D01*
X780000Y355000D02*
X780000Y355000D01*
X721900Y172500D02*
X722100Y172700D01*
Y125400D02*
X722500Y125000D01*
X722100Y125400D02*
Y172700D01*
X627500Y300000D02*
Y337100D01*
X600000Y267500D02*
X602100Y269600D01*
Y349800D01*
X190000Y415000D02*
Y417500D01*
X145000Y460000D02*
X145000Y460000D01*
X357500Y157500D02*
Y209400D01*
X357700Y209600D01*
X146250Y461250D02*
X190000Y417500D01*
X305000Y235000D02*
X345000D01*
X247500D02*
X305000D01*
X687500Y172500D02*
X721900D01*
X780000Y305000D02*
Y355000D01*
X601900Y350000D02*
X602100Y349800D01*
X577500Y350000D02*
X601900D01*
X370400Y235000D02*
X399500D01*
X400000Y234500D01*
Y197500D02*
Y234500D01*
X678000Y306000D02*
X699000D01*
X700000Y305000D01*
Y267500D02*
Y305000D01*
Y230000D02*
Y267500D01*
X357500Y122500D02*
Y157500D01*
X242500Y230000D02*
X247500Y235000D01*
X385000Y275000D02*
Y305000D01*
X385000Y275000D02*
X385000Y275000D01*
X335000Y275000D02*
Y305000D01*
X473500Y23000D02*
X475000Y21500D01*
X649151Y376849D02*
X664000Y362000D01*
X624750Y35604D02*
Y77250D01*
X820750Y126750D02*
X822500Y125000D01*
X816546Y240500D02*
X828750Y297250D01*
X729500Y408000D02*
X735000D01*
X901250Y228000D02*
X901500Y227750D01*
X926000D01*
Y170250D02*
Y227750D01*
X792250Y407000D02*
X835250Y412500D01*
X733000Y407500D02*
X794000D01*
X889750Y355000D02*
X924000Y357500D01*
X780000Y205000D02*
X795350Y171700D01*
X747500Y185400D02*
X780000Y205000D01*
X828750Y322650D02*
X880000Y355000D01*
X780000Y305000D02*
X791421Y307421D01*
X803350Y309950D01*
X730750Y277000D02*
X757000Y307000D01*
X423750Y349750D02*
X520250D01*
X527000Y343000D02*
Y350000D01*
X520250Y349750D02*
X527000Y343000D01*
Y350000D02*
Y383000D01*
X421000Y352500D02*
X423750Y349750D01*
D38*
X178500Y54750D02*
D03*
X278500D02*
D03*
X279000Y82250D02*
D03*
X379000D02*
D03*
X357500Y157500D02*
D03*
X457500D02*
D03*
X137500Y152500D02*
D03*
X237500D02*
D03*
X700000Y227000D02*
D03*
X600000D02*
D03*
X527000Y295000D02*
D03*
X627000D02*
D03*
X600000Y267500D02*
D03*
X700000D02*
D03*
X822500Y125000D02*
D03*
X722500D02*
D03*
X780000Y305000D02*
D03*
Y205000D02*
D03*
X757000Y307000D02*
D03*
Y407000D02*
D03*
X735000Y407500D02*
D03*
X635000D02*
D03*
X780000Y355000D02*
D03*
X880000D02*
D03*
X610000Y407000D02*
D03*
X510000D02*
D03*
X935250Y412500D02*
D03*
X835250D02*
D03*
X500000Y197500D02*
D03*
X400000D02*
D03*
X499500Y173500D02*
D03*
Y73500D02*
D03*
X768500Y63750D02*
D03*
X868500D02*
D03*
X339750Y505750D02*
D03*
X410750D02*
D03*
X410250Y476750D02*
D03*
X339250D02*
D03*
X145000Y412500D02*
D03*
X145000Y462500D02*
D03*
X424750Y352000D02*
D03*
X434750Y408000D02*
D03*
X730750Y277000D02*
D03*
Y327000D02*
D03*
X145000Y560000D02*
D03*
X145000Y510000D02*
D03*
X687500Y122500D02*
D03*
Y172500D02*
D03*
X527500Y350000D02*
D03*
X577500D02*
D03*
X528000Y379000D02*
D03*
X578000D02*
D03*
X272250Y352500D02*
D03*
Y302500D02*
D03*
X335000Y275000D02*
D03*
X385000D02*
D03*
X305000Y185000D02*
D03*
Y235000D02*
D03*
X400000Y234500D02*
D03*
X450000D02*
D03*
X262000Y582000D02*
D03*
X312000D02*
D03*
X357700Y209600D02*
D03*
X345000Y235000D02*
D03*
X370400D02*
D03*
X900600Y170250D02*
D03*
X298300Y618600D02*
D03*
X285600Y644000D02*
D03*
X311000D02*
D03*
X795350Y171700D02*
D03*
X820750Y184400D02*
D03*
Y159000D02*
D03*
X722100Y172700D02*
D03*
X747500Y185400D02*
D03*
Y160000D02*
D03*
X803350Y309950D02*
D03*
X828750Y322650D02*
D03*
Y297250D02*
D03*
X602100Y349800D02*
D03*
X627500Y362500D02*
D03*
Y337100D02*
D03*
X357500Y122500D02*
D03*
X407500D02*
D03*
X347000Y642000D02*
D03*
Y592000D02*
D03*
X664000Y362000D02*
D03*
X689400Y374700D02*
D03*
Y349300D02*
D03*
X385000Y305000D02*
D03*
X335000D02*
D03*
X624750Y127250D02*
D03*
Y77250D02*
D03*
D39*
X736250Y44500D02*
D03*
X711250D02*
D03*
D40*
X509750Y467700D02*
D03*
X248000Y277250D02*
D03*
D41*
X237000Y123500D02*
D03*
X137000D02*
D03*
X387000Y617300D02*
D03*
X959000Y357500D02*
D03*
X924000D02*
D03*
X851546Y240500D02*
D03*
X816546D02*
D03*
D42*
X81767Y665046D02*
D03*
X918000Y664500D02*
D03*
X82500Y35500D02*
D03*
X917250Y35250D02*
D03*
D43*
X387000Y642700D02*
D03*
D44*
X926000Y170250D02*
D03*
D45*
X976250Y303000D02*
D03*
Y203000D02*
D03*
X951250D02*
D03*
Y303000D02*
D03*
X901250Y253000D02*
D03*
D46*
X951250D02*
D03*
D47*
X901250Y203000D02*
D03*
Y228000D02*
D03*
Y278000D02*
D03*
Y303000D02*
D03*
D48*
X147750Y222500D02*
D03*
Y202500D02*
D03*
X792250Y387000D02*
D03*
Y407000D02*
D03*
D49*
X658000Y306000D02*
D03*
X678000D02*
D03*
D50*
X190000Y417500D02*
D03*
Y440000D02*
D03*
Y462500D02*
D03*
X235000Y417500D02*
D03*
Y462500D02*
D03*
X200000Y190000D02*
D03*
Y235000D02*
D03*
X245000Y190000D02*
D03*
Y212500D02*
D03*
Y235000D02*
D03*
D51*
X816000Y639250D02*
D03*
Y579250D02*
D03*
D52*
X769000Y609250D02*
D03*
D53*
X324250Y28500D02*
D03*
X973500Y155000D02*
D03*
Y31000D02*
D03*
Y131000D02*
D03*
Y106000D02*
D03*
Y56000D02*
D03*
X24500Y168000D02*
D03*
Y44000D02*
D03*
Y144000D02*
D03*
Y119000D02*
D03*
Y94000D02*
D03*
Y69000D02*
D03*
Y554000D02*
D03*
Y579000D02*
D03*
Y604000D02*
D03*
Y629000D02*
D03*
Y529000D02*
D03*
Y653000D02*
D03*
X969500Y554000D02*
D03*
Y579000D02*
D03*
Y604000D02*
D03*
Y629000D02*
D03*
Y529000D02*
D03*
Y653000D02*
D03*
X973500Y81000D02*
D03*
X425000Y30000D02*
D03*
X475000D02*
D03*
X575000D02*
D03*
D54*
X324000Y20000D02*
D03*
X525000D02*
D03*
X575000D02*
D03*
X625000D02*
D03*
X375000D02*
D03*
X475000D02*
D03*
X425000D02*
D03*
X225000Y680000D02*
D03*
X175000D02*
D03*
X657250Y681500D02*
D03*
X718250Y681750D02*
D03*
D55*
X324000Y35000D02*
D03*
X525000D02*
D03*
X575000D02*
D03*
X625000D02*
D03*
X375000D02*
D03*
X475000D02*
D03*
X425000D02*
D03*
X225000Y665000D02*
D03*
X175000D02*
D03*
X657250Y666500D02*
D03*
X718250Y666750D02*
D03*
M02*
