M48
;Layer_Color=9474304
;FILE_FORMAT=4:4
METRIC,LZ
;TYPE=PLATED
T1F00S00C0.7000
T2F00S00C0.7112
T3F00S00C0.8000
T5F00S00C0.9000
T6F00S00C1.1000
T7F00S00C1.5000
T8F00S00C2.0000
T9F00S00C2.5000
T10F00S00C3.3000
T11F00S00C7.0000
%
T01
X006675Y00775
X0073Y007825
X00775
Y00805
Y008275
X0073
X006675Y00795
X0072Y009825
X0072Y01005
X0072Y010275
X00765
X00765Y009825
X00989Y01132
X01009
X01188Y00871
X01208
X01324Y00952
Y00972
X013825Y008195
X014025
T02
X00548Y00119
Y00144
Y00169
Y00194
Y00219
Y00243
X01502Y00242
Y00218
Y00193
Y00168
Y00143
Y00118
X01501Y00606
Y00631
Y00656
Y00681
Y00706
Y0073
X00547Y00719
Y00743
Y00694
Y00669
Y00644
Y00619
T03
X00903Y001
X00953
X01003
X01053
X01103
X01153
X012175Y006875
Y007375
X012521Y007377
X012775Y007504
Y00725
X0136Y007175
X013604Y007573
Y007827
X01335Y0077
X0141Y007175
X01153Y00613
X01103
X01053
X01003
X00953
X00903
X008875Y00715
X009375
X00835Y007775
X00675Y009775
X00675Y010275
X00675Y0107
X00725Y0107
X008875Y010595
X008865Y01033
X009575
X009585Y010595
Y00971
X009485Y00915
X009125Y0087
X008625
X00875Y008275
X009004
X0093Y00827
X0098
X008877Y008021
X00835Y008275
X007975Y008675
Y009175
X010575Y00915
X011075
X011321Y009148
X011575Y009275
Y009021
X011Y0096
X0105
X00948156Y01154249
X008913Y011786
X00834Y01154
X01194Y00927
X012194Y009397
Y009143
X01254Y00899
Y00849
X013375Y0087
X013629Y008827
Y008573
X00948156Y01204249
X00904Y01204
X008786
X00834
T05
X012525Y0069
X013525
X0131Y0077
X0103Y0079
X009875Y0075
X0093Y0079
X008875Y0075
X00859Y00624
X00759
X007675Y00745
X006675
X006998Y011198
X00725Y0112
X01037Y01102
X011575Y009725
Y00865
X0113Y008325
Y00795
X010575Y00865
X0123Y008325
Y00795
X01284Y00871
X0131Y0087
X0131Y0092
X01284Y00971
X012575Y009725
X01355
X01455
X0141Y0092
X01037Y01202
T06
X009975Y011775
X01455Y009175
X014804
X009975Y012029
T07
X01505Y0077
Y0087
X01455Y0082
T08
X006742Y011708
X007758Y011708
T09
X006Y00314
X00946Y00314
X01302Y00314
T10
X01435Y00642
X00615Y00641
X01465Y01215
X00585Y01214
T11
X00681Y00313
X01027Y00313
X01383Y00313
M30
