G04*
G04 #@! TF.GenerationSoftware,Altium Limited,Altium Designer,21.0.8 (223)*
G04*
G04 Layer_Color=16711935*
%FSLAX44Y44*%
%MOMM*%
G71*
G04*
G04 #@! TF.SameCoordinates,817B6129-E2F9-410E-B20C-35ABB6862B10*
G04*
G04*
G04 #@! TF.FilePolarity,Negative*
G04*
G01*
G75*
%ADD19R,4.7032X20.2032*%
%ADD20R,4.7032X17.2032*%
%ADD21C,2.0032*%
%ADD22C,1.7272*%
G04:AMPARAMS|DCode=23|XSize=1.7032mm|YSize=1.7032mm|CornerRadius=0.4766mm|HoleSize=0mm|Usage=FLASHONLY|Rotation=45.000|XOffset=0mm|YOffset=0mm|HoleType=Round|Shape=RoundedRectangle|*
%AMROUNDEDRECTD23*
21,1,1.7032,0.7500,0,0,45.0*
21,1,0.7500,1.7032,0,0,45.0*
1,1,0.9532,0.5303,0.0000*
1,1,0.9532,0.0000,-0.5303*
1,1,0.9532,-0.5303,0.0000*
1,1,0.9532,0.0000,0.5303*
%
%ADD23ROUNDEDRECTD23*%
%ADD24C,2.2032*%
%ADD25C,6.2032*%
G04:AMPARAMS|DCode=26|XSize=2.2032mm|YSize=2.2032mm|CornerRadius=0.6016mm|HoleSize=0mm|Usage=FLASHONLY|Rotation=0.000|XOffset=0mm|YOffset=0mm|HoleType=Round|Shape=RoundedRectangle|*
%AMROUNDEDRECTD26*
21,1,2.2032,1.0000,0,0,0.0*
21,1,1.0000,2.2032,0,0,0.0*
1,1,1.2032,0.5000,-0.5000*
1,1,1.2032,-0.5000,-0.5000*
1,1,1.2032,-0.5000,0.5000*
1,1,1.2032,0.5000,0.5000*
%
%ADD26ROUNDEDRECTD26*%
G04:AMPARAMS|DCode=27|XSize=2.0032mm|YSize=2.0032mm|CornerRadius=0.5516mm|HoleSize=0mm|Usage=FLASHONLY|Rotation=270.000|XOffset=0mm|YOffset=0mm|HoleType=Round|Shape=RoundedRectangle|*
%AMROUNDEDRECTD27*
21,1,2.0032,0.9000,0,0,270.0*
21,1,0.9000,2.0032,0,0,270.0*
1,1,1.1032,-0.4500,-0.4500*
1,1,1.1032,-0.4500,0.4500*
1,1,1.1032,0.4500,0.4500*
1,1,1.1032,0.4500,-0.4500*
%
%ADD27ROUNDEDRECTD27*%
%ADD28C,1.4032*%
%ADD29O,1.7032X3.2032*%
%ADD30O,3.2032X1.7032*%
%ADD31O,2.0032X1.7032*%
%ADD32O,1.7032X2.0032*%
%ADD33C,1.9032*%
G04:AMPARAMS|DCode=34|XSize=5.2032mm|YSize=2.2032mm|CornerRadius=0.9016mm|HoleSize=0mm|Usage=FLASHONLY|Rotation=180.000|XOffset=0mm|YOffset=0mm|HoleType=Round|Shape=RoundedRectangle|*
%AMROUNDEDRECTD34*
21,1,5.2032,0.4000,0,0,180.0*
21,1,3.4000,2.2032,0,0,180.0*
1,1,1.8032,-1.7000,0.2000*
1,1,1.8032,1.7000,0.2000*
1,1,1.8032,1.7000,-0.2000*
1,1,1.8032,-1.7000,-0.2000*
%
%ADD34ROUNDEDRECTD34*%
G04:AMPARAMS|DCode=35|XSize=5.2032mm|YSize=2.2032mm|CornerRadius=0.9016mm|HoleSize=0mm|Usage=FLASHONLY|Rotation=90.000|XOffset=0mm|YOffset=0mm|HoleType=Round|Shape=RoundedRectangle|*
%AMROUNDEDRECTD35*
21,1,5.2032,0.4000,0,0,90.0*
21,1,3.4000,2.2032,0,0,90.0*
1,1,1.8032,0.2000,1.7000*
1,1,1.8032,0.2000,-1.7000*
1,1,1.8032,-0.2000,-1.7000*
1,1,1.8032,-0.2000,1.7000*
%
%ADD35ROUNDEDRECTD35*%
%ADD36C,1.4732*%
%ADD56R,3.2032X3.2032*%
%ADD57C,3.2032*%
D19*
X28000Y106000D02*
D03*
X973000Y595000D02*
D03*
X27000Y596000D02*
D03*
D20*
X973000Y90000D02*
D03*
D21*
X178500Y54750D02*
D03*
X278500D02*
D03*
X279000Y82250D02*
D03*
X379000D02*
D03*
X357500Y157500D02*
D03*
X457500D02*
D03*
X137500Y152500D02*
D03*
X237500D02*
D03*
X700000Y227000D02*
D03*
X600000D02*
D03*
X527000Y295000D02*
D03*
X627000D02*
D03*
X600000Y267500D02*
D03*
X700000D02*
D03*
X822500Y125000D02*
D03*
X722500D02*
D03*
X780000Y305000D02*
D03*
Y205000D02*
D03*
X757000Y307000D02*
D03*
Y407000D02*
D03*
X735000Y407500D02*
D03*
X635000D02*
D03*
X780000Y355000D02*
D03*
X880000D02*
D03*
X610000Y407000D02*
D03*
X510000D02*
D03*
X935250Y412500D02*
D03*
X835250D02*
D03*
X500000Y197500D02*
D03*
X400000D02*
D03*
X499500Y173500D02*
D03*
Y73500D02*
D03*
X768500Y63750D02*
D03*
X868500D02*
D03*
X339750Y505750D02*
D03*
X410750D02*
D03*
X410250Y476750D02*
D03*
X339250D02*
D03*
X145000Y412500D02*
D03*
X145000Y462500D02*
D03*
X424750Y352000D02*
D03*
X434750Y408000D02*
D03*
X730750Y277000D02*
D03*
Y327000D02*
D03*
X145000Y560000D02*
D03*
X145000Y510000D02*
D03*
X687500Y122500D02*
D03*
Y172500D02*
D03*
X527500Y350000D02*
D03*
X577500D02*
D03*
X528000Y379000D02*
D03*
X578000D02*
D03*
X272250Y352500D02*
D03*
Y302500D02*
D03*
X335000Y275000D02*
D03*
X385000D02*
D03*
X305000Y185000D02*
D03*
Y235000D02*
D03*
X400000Y234500D02*
D03*
X450000D02*
D03*
X262000Y582000D02*
D03*
X312000D02*
D03*
X357700Y209600D02*
D03*
X345000Y235000D02*
D03*
X370400D02*
D03*
X900600Y170250D02*
D03*
X298300Y618600D02*
D03*
X285600Y644000D02*
D03*
X311000D02*
D03*
X795350Y171700D02*
D03*
X820750Y184400D02*
D03*
Y159000D02*
D03*
X722100Y172700D02*
D03*
X747500Y185400D02*
D03*
Y160000D02*
D03*
X803350Y309950D02*
D03*
X828750Y322650D02*
D03*
Y297250D02*
D03*
X602100Y349800D02*
D03*
X627500Y362500D02*
D03*
Y337100D02*
D03*
X357500Y122500D02*
D03*
X407500D02*
D03*
X347000Y642000D02*
D03*
Y592000D02*
D03*
X664000Y362000D02*
D03*
X689400Y374700D02*
D03*
Y349300D02*
D03*
X385000Y305000D02*
D03*
X335000D02*
D03*
X624750Y127250D02*
D03*
Y77250D02*
D03*
D22*
X736250Y44500D02*
D03*
X711250D02*
D03*
D23*
X509750Y467700D02*
D03*
X248000Y277250D02*
D03*
D24*
X237000Y123500D02*
D03*
X137000D02*
D03*
X387000Y617300D02*
D03*
X959000Y357500D02*
D03*
X924000D02*
D03*
X851546Y240500D02*
D03*
X816546D02*
D03*
D25*
X81767Y665046D02*
D03*
X918000Y664500D02*
D03*
X82500Y35500D02*
D03*
X917250Y35250D02*
D03*
D26*
X387000Y642700D02*
D03*
D27*
X926000Y170250D02*
D03*
D28*
X976250Y303000D02*
D03*
Y203000D02*
D03*
X951250D02*
D03*
Y303000D02*
D03*
X901250Y253000D02*
D03*
D29*
X951250D02*
D03*
D30*
X901250Y203000D02*
D03*
Y228000D02*
D03*
Y278000D02*
D03*
Y303000D02*
D03*
D31*
X147750Y222500D02*
D03*
Y202500D02*
D03*
X792250Y387000D02*
D03*
Y407000D02*
D03*
D32*
X658000Y306000D02*
D03*
X678000D02*
D03*
D33*
X190000Y417500D02*
D03*
Y440000D02*
D03*
Y462500D02*
D03*
X235000Y417500D02*
D03*
Y462500D02*
D03*
X200000Y190000D02*
D03*
Y235000D02*
D03*
X245000Y190000D02*
D03*
Y212500D02*
D03*
Y235000D02*
D03*
D34*
X816000Y639250D02*
D03*
Y579250D02*
D03*
D35*
X769000Y609250D02*
D03*
D36*
X973500Y155000D02*
D03*
Y31000D02*
D03*
Y131000D02*
D03*
Y106000D02*
D03*
Y56000D02*
D03*
X24500Y168000D02*
D03*
Y44000D02*
D03*
Y144000D02*
D03*
Y119000D02*
D03*
Y94000D02*
D03*
Y69000D02*
D03*
Y554000D02*
D03*
Y579000D02*
D03*
Y604000D02*
D03*
Y629000D02*
D03*
Y529000D02*
D03*
Y653000D02*
D03*
X969500Y554000D02*
D03*
Y579000D02*
D03*
Y604000D02*
D03*
Y629000D02*
D03*
Y529000D02*
D03*
Y653000D02*
D03*
X973500Y81000D02*
D03*
D56*
X324000Y20000D02*
D03*
X525000D02*
D03*
X575000D02*
D03*
X625000D02*
D03*
X375000D02*
D03*
X475000D02*
D03*
X425000D02*
D03*
X225000Y680000D02*
D03*
X175000D02*
D03*
X657250Y681500D02*
D03*
X718250Y681750D02*
D03*
D57*
X324000Y35000D02*
D03*
X525000D02*
D03*
X575000D02*
D03*
X625000D02*
D03*
X375000D02*
D03*
X475000D02*
D03*
X425000D02*
D03*
X225000Y665000D02*
D03*
X175000D02*
D03*
X657250Y666500D02*
D03*
X718250Y666750D02*
D03*
M02*
