G04*
G04 #@! TF.GenerationSoftware,Altium Limited,Altium Designer,21.0.8 (223)*
G04*
G04 Layer_Color=8388736*
%FSLAX44Y44*%
%MOMM*%
G71*
G04*
G04 #@! TF.SameCoordinates,78419CC2-0C4D-43F0-A895-43AD8DE1811A*
G04*
G04*
G04 #@! TF.FilePolarity,Negative*
G04*
G01*
G75*
%ADD29C,3.2032*%
%ADD30R,3.2032X3.2032*%
%ADD31R,8.5282X7.7782*%
%ADD32R,4.7032X20.9032*%
%ADD33C,1.6032*%
%ADD34C,1.4032*%
%ADD35C,2.0032*%
%ADD36C,1.8032*%
%ADD37O,2.2032X3.2032*%
%ADD38C,12.2032*%
%ADD39C,1.4732*%
D29*
X984740Y287200D02*
D03*
X924240D02*
D03*
X444240Y288950D02*
D03*
X494240D02*
D03*
X984740Y787200D02*
D03*
X924240D02*
D03*
X444240Y788950D02*
D03*
X494240D02*
D03*
X576490Y594450D02*
D03*
Y544450D02*
D03*
Y1094450D02*
D03*
Y1044450D02*
D03*
D30*
X984740Y302200D02*
D03*
X924240D02*
D03*
X444990Y400950D02*
D03*
X444240Y303950D02*
D03*
X494240D02*
D03*
X984740Y802200D02*
D03*
X924240D02*
D03*
X444990Y900950D02*
D03*
X444240Y803950D02*
D03*
X494240D02*
D03*
D31*
X1218560Y718742D02*
D03*
X320365Y719325D02*
D03*
X1218560Y1218742D02*
D03*
X320365Y1219325D02*
D03*
D32*
X297740Y376950D02*
D03*
X1242490Y374840D02*
D03*
X297740Y876950D02*
D03*
X1242490Y874840D02*
D03*
D33*
X1010740Y550450D02*
D03*
Y500450D02*
D03*
X926515Y645675D02*
D03*
X976515D02*
D03*
X963240Y500950D02*
D03*
Y550950D02*
D03*
X1010740Y1050450D02*
D03*
Y1000450D02*
D03*
X926515Y1145675D02*
D03*
X976515D02*
D03*
X963240Y1000950D02*
D03*
Y1050950D02*
D03*
D34*
X925690Y691950D02*
D03*
X975490D02*
D03*
X925690Y1191950D02*
D03*
X975490D02*
D03*
D35*
X1024240Y692200D02*
D03*
Y592200D02*
D03*
X924740Y493200D02*
D03*
Y593200D02*
D03*
X1024240Y1192200D02*
D03*
Y1092200D02*
D03*
X924740Y993200D02*
D03*
Y1093200D02*
D03*
D36*
X976540Y617600D02*
D03*
X989240Y592200D02*
D03*
X963840D02*
D03*
X976540Y1117600D02*
D03*
X989240Y1092200D02*
D03*
X963840D02*
D03*
D37*
X1114990Y591255D02*
D03*
Y546255D02*
D03*
X1049990Y591255D02*
D03*
Y546255D02*
D03*
X1114990Y1091255D02*
D03*
Y1046255D02*
D03*
X1049990Y1091255D02*
D03*
Y1046255D02*
D03*
D38*
X435990Y569700D02*
D03*
Y1069700D02*
D03*
D39*
X294990Y341090D02*
D03*
Y366090D02*
D03*
Y391090D02*
D03*
Y416090D02*
D03*
Y316090D02*
D03*
Y440090D02*
D03*
X1239990Y343590D02*
D03*
Y368590D02*
D03*
Y393590D02*
D03*
Y418590D02*
D03*
Y318590D02*
D03*
Y442590D02*
D03*
X294990Y841090D02*
D03*
Y866090D02*
D03*
Y891090D02*
D03*
Y916090D02*
D03*
Y816090D02*
D03*
Y940090D02*
D03*
X1239990Y843590D02*
D03*
Y868590D02*
D03*
Y893590D02*
D03*
Y918590D02*
D03*
Y818590D02*
D03*
Y942590D02*
D03*
M02*
