M48
;Layer_Color=9474304
;FILE_FORMAT=4:4
METRIC,LZ
;TYPE=PLATED
T1F00S00C0.7000
T2F00S00C0.7112
T3F00S00C0.8000
T5F00S00C0.9000
T6F00S00C1.3000
T7F00S00C9.5000
%
T01
X0092569Y0069195
X0097549
Y0119195
X0092569
T02
X0029499Y0031609
Y0034109
Y0036609
Y0039109
X0049424Y0030395
X0098499Y003522
X0123999Y0034359
Y0036859
Y0039359
Y0031859
Y0041859
Y0044259
X0029499Y0044009
Y0041609
Y0081609
Y0084109
Y0086609
Y0089109
Y0091609
Y0094009
X0049424Y0080395
X0098499Y008522
X0123999Y0084359
Y0086859
Y0089359
Y0091859
Y0094259
Y0081859
T03
X0096324Y0050095
X0101074Y0050045
Y0055045
X0096324Y0055095
X0096384Y005922
X0098924
X0097654Y006176
X00976515Y00645675
X00926515
X0096324Y0100095
X0101074Y0100045
Y0105045
X0096324Y0105095
X0096384Y010922
X0098924
X0097654Y011176
X00976515Y01145675
X00926515
T05
X0092474Y004932
Y005932
X0102424Y005922
Y006922
Y010922
X0092474Y010932
Y009932
X0102424Y011922
T06
X0057649Y0054445
Y0059445
Y0104445
Y0109445
T07
X0043599Y005697
Y010697
M30
