G04*
G04 #@! TF.GenerationSoftware,Altium Limited,Altium Designer,21.0.8 (223)*
G04*
G04 Layer_Color=65535*
%FSLAX44Y44*%
%MOMM*%
G71*
G04*
G04 #@! TF.SameCoordinates,78419CC2-0C4D-43F0-A895-43AD8DE1811A*
G04*
G04*
G04 #@! TF.FilePolarity,Positive*
G04*
G01*
G75*
%ADD14C,0.2540*%
%ADD26C,0.2000*%
%ADD27C,0.2500*%
%ADD28C,0.1500*%
D14*
X1137740Y316700D02*
X1212740D01*
X1137740Y336700D02*
X1212740D01*
X332740Y316700D02*
X407740D01*
X332740Y336700D02*
X407740D01*
X1137740Y816700D02*
X1212740D01*
X1137740Y836700D02*
X1212740D01*
X332740Y816700D02*
X407740D01*
X332740Y836700D02*
X407740D01*
D26*
X999584Y511394D02*
G03*
X1001871Y505909I6656J-444D01*
G01*
X1002027Y544935D02*
G03*
X999740Y539450I4369J-5041D01*
G01*
X1020896Y539506D02*
G03*
X1018609Y544991I-6656J444D01*
G01*
X1018769Y506258D02*
G03*
X1021030Y511754I-4393J5020D01*
G01*
X915490Y713950D02*
G03*
X916490Y668950I3733J-22428D01*
G01*
X985490D02*
G03*
X984490Y713950I-3733J22428D01*
G01*
X965571Y634519D02*
G03*
X971056Y636806I444J6656D01*
G01*
X932030Y636962D02*
G03*
X937515Y634675I5041J4369D01*
G01*
X937459Y655831D02*
G03*
X931974Y653544I-444J-6656D01*
G01*
X970707Y653704D02*
G03*
X965211Y655965I-5020J-4393D01*
G01*
X974396Y540006D02*
G03*
X972109Y545491I-6656J444D01*
G01*
X971953Y506465D02*
G03*
X974240Y511950I-4369J5041D01*
G01*
X953084Y511894D02*
G03*
X955371Y506409I6656J-444D01*
G01*
X955211Y545142D02*
G03*
X952950Y539646I4393J-5020D01*
G01*
X1010740Y512450D02*
Y522450D01*
X1000740Y523450D02*
X1021740D01*
X1000740Y528450D02*
X1021740D01*
X1010740Y529450D02*
Y539450D01*
X916490Y668950D02*
X984490D01*
X915490Y713950D02*
X984490D01*
X954515Y645675D02*
X964515D01*
X953515Y635675D02*
Y656675D01*
X948515Y635675D02*
Y656675D01*
X937515Y645675D02*
X947515D01*
X963240Y528950D02*
Y538950D01*
X952240Y527950D02*
X973240D01*
X952240Y522950D02*
X973240D01*
X963240Y511950D02*
Y521950D01*
X999584Y1011394D02*
G03*
X1001871Y1005909I6656J-444D01*
G01*
X1002027Y1044935D02*
G03*
X999740Y1039450I4369J-5041D01*
G01*
X1020896Y1039506D02*
G03*
X1018609Y1044991I-6656J444D01*
G01*
X1018769Y1006258D02*
G03*
X1021030Y1011754I-4393J5020D01*
G01*
X915490Y1213950D02*
G03*
X916490Y1168950I3733J-22428D01*
G01*
X985490D02*
G03*
X984490Y1213950I-3733J22428D01*
G01*
X965571Y1134519D02*
G03*
X971056Y1136806I444J6656D01*
G01*
X932030Y1136962D02*
G03*
X937515Y1134675I5041J4369D01*
G01*
X937459Y1155831D02*
G03*
X931974Y1153544I-444J-6656D01*
G01*
X970707Y1153704D02*
G03*
X965211Y1155965I-5020J-4393D01*
G01*
X974396Y1040006D02*
G03*
X972109Y1045491I-6656J444D01*
G01*
X971953Y1006465D02*
G03*
X974240Y1011950I-4369J5041D01*
G01*
X953084Y1011894D02*
G03*
X955371Y1006409I6656J-444D01*
G01*
X955211Y1045142D02*
G03*
X952950Y1039646I4393J-5020D01*
G01*
X1010740Y1012450D02*
Y1022450D01*
X1000740Y1023450D02*
X1021740D01*
X1000740Y1028450D02*
X1021740D01*
X1010740Y1029450D02*
Y1039450D01*
X916490Y1168950D02*
X984490D01*
X915490Y1213950D02*
X984490D01*
X954515Y1145675D02*
X964515D01*
X953515Y1135675D02*
Y1156675D01*
X948515Y1135675D02*
Y1156675D01*
X937515Y1145675D02*
X947515D01*
X963240Y1028950D02*
Y1038950D01*
X952240Y1027950D02*
X973240D01*
X952240Y1022950D02*
X973240D01*
X963240Y1011950D02*
Y1021950D01*
D27*
X953699Y612595D02*
G03*
X999379Y612598I22841J-16195D01*
G01*
X1024240Y672200D02*
Y676860D01*
X1013240Y672200D02*
X1035240D01*
X1013240Y612200D02*
Y672200D01*
Y612200D02*
X1035240D01*
Y672200D01*
X1024240Y607560D02*
Y612200D01*
X953699Y612595D02*
X962240Y612597D01*
X991240Y612598D02*
X999379Y612598D01*
X924740Y508540D02*
Y513200D01*
X913740D02*
X935740D01*
Y573200D01*
X913740D02*
X935740D01*
X913740Y513200D02*
Y573200D01*
X924740D02*
Y577840D01*
X953699Y1112595D02*
G03*
X999379Y1112598I22841J-16195D01*
G01*
X1024240Y1172200D02*
Y1176860D01*
X1013240Y1172200D02*
X1035240D01*
X1013240Y1112200D02*
Y1172200D01*
Y1112200D02*
X1035240D01*
Y1172200D01*
X1024240Y1107560D02*
Y1112200D01*
X953699Y1112595D02*
X962240Y1112597D01*
X991240Y1112598D02*
X999379Y1112598D01*
X924740Y1008540D02*
Y1013200D01*
X913740D02*
X935740D01*
Y1073200D01*
X913740D02*
X935740D01*
X913740Y1013200D02*
Y1073200D01*
X924740D02*
Y1077840D01*
D28*
X1008274Y484853D02*
X1007655Y486091D01*
X1006417Y487328D01*
X1005179Y487947D01*
X1002703D01*
X1001466Y487328D01*
X1000228Y486091D01*
X999609Y484853D01*
X998990Y482996D01*
Y479901D01*
X999609Y478045D01*
X1000228Y476807D01*
X1001466Y475569D01*
X1002703Y474950D01*
X1005179D01*
X1006417Y475569D01*
X1007655Y476807D01*
X1008274Y478045D01*
X1013163Y487947D02*
X1019971D01*
X1016258Y482996D01*
X1018114D01*
X1019352Y482377D01*
X1019971Y481758D01*
X1020590Y479901D01*
Y478663D01*
X1019971Y476807D01*
X1018733Y475569D01*
X1016877Y474950D01*
X1015020D01*
X1013163Y475569D01*
X1012544Y476188D01*
X1011925Y477426D01*
X1042740Y647947D02*
Y634950D01*
Y647947D02*
X1048310D01*
X1050167Y647328D01*
X1050786Y646709D01*
X1051405Y645472D01*
Y644234D01*
X1050786Y642996D01*
X1050167Y642377D01*
X1048310Y641758D01*
X1042740D01*
X1047072D02*
X1051405Y634950D01*
X1054314Y645472D02*
X1055552Y646090D01*
X1057408Y647947D01*
Y634950D01*
X884990Y548197D02*
Y535200D01*
Y548197D02*
X890560D01*
X892417Y547578D01*
X893036Y546959D01*
X893655Y545722D01*
Y544484D01*
X893036Y543246D01*
X892417Y542627D01*
X890560Y542008D01*
X884990D01*
X889322D02*
X893655Y535200D01*
X897183Y545103D02*
Y545722D01*
X897802Y546959D01*
X898420Y547578D01*
X899658Y548197D01*
X902134D01*
X903372Y547578D01*
X903991Y546959D01*
X904610Y545722D01*
Y544484D01*
X903991Y543246D01*
X902753Y541389D01*
X896564Y535200D01*
X905229D01*
X905774Y648103D02*
X905155Y649341D01*
X903917Y650578D01*
X902679Y651197D01*
X900203D01*
X898966Y650578D01*
X897728Y649341D01*
X897109Y648103D01*
X896490Y646246D01*
Y643151D01*
X897109Y641295D01*
X897728Y640057D01*
X898966Y638819D01*
X900203Y638200D01*
X902679D01*
X903917Y638819D01*
X905155Y640057D01*
X905774Y641295D01*
X909425Y648722D02*
X910663Y649341D01*
X912520Y651197D01*
Y638200D01*
X962024Y485103D02*
X961405Y486340D01*
X960167Y487578D01*
X958929Y488197D01*
X956453D01*
X955216Y487578D01*
X953978Y486340D01*
X953359Y485103D01*
X952740Y483246D01*
Y480151D01*
X953359Y478295D01*
X953978Y477057D01*
X955216Y475819D01*
X956453Y475200D01*
X958929D01*
X960167Y475819D01*
X961405Y477057D01*
X962024Y478295D01*
X966294Y485103D02*
Y485722D01*
X966913Y486959D01*
X967532Y487578D01*
X968770Y488197D01*
X971246D01*
X972483Y487578D01*
X973102Y486959D01*
X973721Y485722D01*
Y484484D01*
X973102Y483246D01*
X971864Y481389D01*
X965675Y475200D01*
X974340D01*
X430540Y436441D02*
X439205Y423444D01*
Y436441D02*
X430540Y423444D01*
X442114Y433966D02*
X443352Y434585D01*
X445208Y436441D01*
Y423444D01*
X917240Y623947D02*
X922191Y610950D01*
X927143Y623947D02*
X922191Y610950D01*
X933146Y623947D02*
Y610950D01*
X928814Y623947D02*
X937478D01*
X939026Y621472D02*
X940264Y622090D01*
X942120Y623947D01*
Y610950D01*
X944905Y734447D02*
X936240Y721450D01*
Y734447D02*
X944905D01*
X936240Y721450D02*
X944905D01*
X951527Y734447D02*
X950289Y733828D01*
X949052Y732590D01*
X948433Y731353D01*
X947814Y729496D01*
Y726401D01*
X948433Y724545D01*
X949052Y723307D01*
X950289Y722069D01*
X951527Y721450D01*
X954003D01*
X955241Y722069D01*
X956479Y723307D01*
X957097Y724545D01*
X957716Y726401D01*
Y729496D01*
X957097Y731353D01*
X956479Y732590D01*
X955241Y733828D01*
X954003Y734447D01*
X951527D01*
X953384Y723926D02*
X957097Y720212D01*
X960749Y731972D02*
X961987Y732590D01*
X963844Y734447D01*
Y721450D01*
X1008274Y984853D02*
X1007655Y986090D01*
X1006417Y987328D01*
X1005179Y987947D01*
X1002703D01*
X1001466Y987328D01*
X1000228Y986090D01*
X999609Y984853D01*
X998990Y982996D01*
Y979901D01*
X999609Y978045D01*
X1000228Y976807D01*
X1001466Y975569D01*
X1002703Y974950D01*
X1005179D01*
X1006417Y975569D01*
X1007655Y976807D01*
X1008274Y978045D01*
X1013163Y987947D02*
X1019971D01*
X1016258Y982996D01*
X1018114D01*
X1019352Y982377D01*
X1019971Y981758D01*
X1020590Y979901D01*
Y978663D01*
X1019971Y976807D01*
X1018733Y975569D01*
X1016877Y974950D01*
X1015020D01*
X1013163Y975569D01*
X1012544Y976188D01*
X1011925Y977426D01*
X1042740Y1147947D02*
Y1134950D01*
Y1147947D02*
X1048310D01*
X1050167Y1147328D01*
X1050786Y1146709D01*
X1051405Y1145471D01*
Y1144234D01*
X1050786Y1142996D01*
X1050167Y1142377D01*
X1048310Y1141758D01*
X1042740D01*
X1047072D02*
X1051405Y1134950D01*
X1054314Y1145471D02*
X1055552Y1146090D01*
X1057408Y1147947D01*
Y1134950D01*
X884990Y1048197D02*
Y1035200D01*
Y1048197D02*
X890560D01*
X892417Y1047578D01*
X893036Y1046959D01*
X893655Y1045722D01*
Y1044484D01*
X893036Y1043246D01*
X892417Y1042627D01*
X890560Y1042008D01*
X884990D01*
X889322D02*
X893655Y1035200D01*
X897183Y1045103D02*
Y1045722D01*
X897802Y1046959D01*
X898420Y1047578D01*
X899658Y1048197D01*
X902134D01*
X903372Y1047578D01*
X903991Y1046959D01*
X904610Y1045722D01*
Y1044484D01*
X903991Y1043246D01*
X902753Y1041389D01*
X896564Y1035200D01*
X905229D01*
X905774Y1148103D02*
X905155Y1149341D01*
X903917Y1150578D01*
X902679Y1151197D01*
X900203D01*
X898966Y1150578D01*
X897728Y1149341D01*
X897109Y1148103D01*
X896490Y1146246D01*
Y1143151D01*
X897109Y1141295D01*
X897728Y1140057D01*
X898966Y1138819D01*
X900203Y1138200D01*
X902679D01*
X903917Y1138819D01*
X905155Y1140057D01*
X905774Y1141295D01*
X909425Y1148722D02*
X910663Y1149341D01*
X912520Y1151197D01*
Y1138200D01*
X962024Y985103D02*
X961405Y986340D01*
X960167Y987578D01*
X958929Y988197D01*
X956453D01*
X955216Y987578D01*
X953978Y986340D01*
X953359Y985103D01*
X952740Y983246D01*
Y980151D01*
X953359Y978295D01*
X953978Y977057D01*
X955216Y975819D01*
X956453Y975200D01*
X958929D01*
X960167Y975819D01*
X961405Y977057D01*
X962024Y978295D01*
X966294Y985103D02*
Y985722D01*
X966913Y986959D01*
X967532Y987578D01*
X968770Y988197D01*
X971246D01*
X972483Y987578D01*
X973102Y986959D01*
X973721Y985722D01*
Y984484D01*
X973102Y983246D01*
X971864Y981389D01*
X965675Y975200D01*
X974340D01*
X430540Y936441D02*
X439205Y923444D01*
Y936441D02*
X430540Y923444D01*
X442114Y933966D02*
X443352Y934585D01*
X445208Y936441D01*
Y923444D01*
X917240Y1123947D02*
X922191Y1110950D01*
X927143Y1123947D02*
X922191Y1110950D01*
X933146Y1123947D02*
Y1110950D01*
X928814Y1123947D02*
X937478D01*
X939026Y1121471D02*
X940264Y1122091D01*
X942120Y1123947D01*
Y1110950D01*
X944905Y1234447D02*
X936240Y1221450D01*
Y1234447D02*
X944905D01*
X936240Y1221450D02*
X944905D01*
X951527Y1234447D02*
X950289Y1233828D01*
X949052Y1232590D01*
X948433Y1231353D01*
X947814Y1229496D01*
Y1226401D01*
X948433Y1224545D01*
X949052Y1223307D01*
X950289Y1222069D01*
X951527Y1221450D01*
X954003D01*
X955241Y1222069D01*
X956479Y1223307D01*
X957097Y1224545D01*
X957716Y1226401D01*
Y1229496D01*
X957097Y1231353D01*
X956479Y1232590D01*
X955241Y1233828D01*
X954003Y1234447D01*
X951527D01*
X953384Y1223926D02*
X957097Y1220212D01*
X960749Y1231972D02*
X961987Y1232590D01*
X963844Y1234447D01*
Y1221450D01*
M02*
