G04*
G04 #@! TF.GenerationSoftware,Altium Limited,Altium Designer,21.0.8 (223)*
G04*
G04 Layer_Physical_Order=1*
G04 Layer_Color=255*
%FSLAX44Y44*%
%MOMM*%
G71*
G04*
G04 #@! TF.SameCoordinates,78419CC2-0C4D-43F0-A895-43AD8DE1811A*
G04*
G04*
G04 #@! TF.FilePolarity,Positive*
G04*
G01*
G75*
%ADD10C,0.6000*%
%ADD11C,0.8000*%
%ADD12C,3.0000*%
%ADD13R,3.0000X3.0000*%
%ADD14C,0.2540*%
%ADD15R,4.6250X4.7000*%
%ADD16R,8.3250X7.5750*%
%ADD17R,4.5000X20.7000*%
%ADD18C,1.4000*%
%ADD19C,1.2000*%
%ADD20C,1.8000*%
%ADD21C,1.6000*%
%ADD22O,2.0000X3.0000*%
%ADD23C,12.0000*%
%ADD24C,1.2700*%
D10*
X1016801Y556511D02*
G03*
X1024240Y574471I-17960J17960D01*
G01*
X1033065Y545043D02*
G03*
X1022856Y538815I7751J-24188D01*
G01*
X1040816Y546255D02*
G03*
X1033065Y545043I0J-25400D01*
G01*
X931680Y447640D02*
G03*
X924240Y429679I17960J-17960D01*
G01*
X924740Y593575D02*
X962465D01*
X1024240Y592200D02*
X1055130D01*
X1010740Y550450D02*
X1016801Y556511D01*
X1024240Y574471D02*
Y592200D01*
X1056990Y545340D02*
Y547450D01*
Y545340D02*
X1121990D01*
X1049240Y537590D02*
X1056990Y545340D01*
X1040816Y546255D02*
X1049990D01*
X931680Y447640D02*
X1022856Y538815D01*
X924240Y302200D02*
Y429679D01*
Y287200D02*
Y302200D01*
X924740Y593575D02*
X926515Y595350D01*
X924740Y593200D02*
Y593575D01*
X926515Y595350D02*
Y645675D01*
X1023990Y691950D02*
X1026490D01*
X976490Y645700D02*
Y690950D01*
Y691950D02*
X1023990D01*
X1024240Y692200D01*
X494240Y288950D02*
Y303950D01*
X1056990Y590340D02*
X1121990D01*
X984990Y302450D02*
Y345950D01*
X962465Y593575D02*
X963840Y592200D01*
X963540Y591900D02*
X963840Y592200D01*
X963540Y551250D02*
Y591900D01*
X963240Y550950D02*
X963540Y551250D01*
X976490Y645700D02*
X976515Y645675D01*
Y617625D02*
Y645675D01*
Y617625D02*
X976540Y617600D01*
X976515Y647925D02*
X976890Y648300D01*
X976115Y645325D02*
X976490Y645700D01*
X1055130Y592200D02*
X1056990Y590340D01*
X989240Y592200D02*
X1024240D01*
X1016801Y1056510D02*
G03*
X1024240Y1074471I-17960J17960D01*
G01*
X1033065Y1045043D02*
G03*
X1022856Y1038816I7751J-24188D01*
G01*
X1040816Y1046255D02*
G03*
X1033065Y1045043I0J-25400D01*
G01*
X931680Y947639D02*
G03*
X924240Y929679I17960J-17960D01*
G01*
X924740Y1093575D02*
X962465D01*
X1024240Y1092200D02*
X1055130D01*
X1010740Y1050450D02*
X1016801Y1056510D01*
X1024240Y1074471D02*
Y1092200D01*
X1056990Y1045340D02*
Y1047450D01*
Y1045340D02*
X1121990D01*
X1049240Y1037590D02*
X1056990Y1045340D01*
X1040816Y1046255D02*
X1049990D01*
X931680Y947639D02*
X1022856Y1038816D01*
X924240Y802200D02*
Y929679D01*
Y787200D02*
Y802200D01*
X924740Y1093575D02*
X926515Y1095350D01*
X924740Y1093200D02*
Y1093575D01*
X926515Y1095350D02*
Y1145675D01*
X1023990Y1191950D02*
X1026490D01*
X976490Y1145700D02*
Y1190950D01*
Y1191950D02*
X1023990D01*
X1024240Y1192200D01*
X494240Y788950D02*
Y803950D01*
X1056990Y1090340D02*
X1121990D01*
X984990Y802450D02*
Y845950D01*
X962465Y1093575D02*
X963840Y1092200D01*
X963540Y1091900D02*
X963840Y1092200D01*
X963540Y1051250D02*
Y1091900D01*
X963240Y1050950D02*
X963540Y1051250D01*
X976490Y1145700D02*
X976515Y1145675D01*
Y1117625D02*
Y1145675D01*
Y1117625D02*
X976540Y1117600D01*
X976515Y1147925D02*
X976890Y1148300D01*
X976115Y1145325D02*
X976490Y1145700D01*
X1055130Y1092200D02*
X1056990Y1090340D01*
X989240Y1092200D02*
X1024240D01*
D11*
X576490Y594450D02*
G03*
X573284Y592494I2447J-7617D01*
G01*
X541054Y560264D02*
G03*
X532740Y540179I20104J-20085D01*
G01*
X541063Y560273D02*
G03*
X541054Y560264I5653J-5661D01*
G01*
X525300Y481260D02*
G03*
X532740Y499221I-17960J17960D01*
G01*
X541063Y560273D02*
X573284Y592494D01*
X444990Y400950D02*
X447457Y403417D01*
X525300Y481260D01*
X532740Y499221D02*
Y540179D01*
X576490Y600950D02*
X582443D01*
X589818Y593575D01*
X573240Y597700D02*
X576490Y600950D01*
X444240Y303950D02*
Y401700D01*
Y288950D02*
Y303950D01*
X589818Y593575D02*
X839365D01*
X441006Y405716D02*
X441006Y405716D01*
X576490Y1094450D02*
G03*
X573284Y1092494I2447J-7617D01*
G01*
X541054Y1060264D02*
G03*
X532740Y1040179I20104J-20085D01*
G01*
X541063Y1060273D02*
G03*
X541054Y1060264I5653J-5661D01*
G01*
X525300Y981261D02*
G03*
X532740Y999221I-17960J17960D01*
G01*
X541063Y1060273D02*
X573284Y1092494D01*
X444990Y900950D02*
X447457Y903417D01*
X525300Y981261D01*
X532740Y999221D02*
Y1040179D01*
X576490Y1100950D02*
X582443D01*
X589818Y1093575D01*
X573240Y1097700D02*
X576490Y1100950D01*
X444240Y803950D02*
Y901700D01*
Y788950D02*
Y803950D01*
X589818Y1093575D02*
X839365D01*
X441006Y905716D02*
X441006Y905716D01*
D12*
X984740Y287200D02*
D03*
X924240D02*
D03*
X444240Y288950D02*
D03*
X494240D02*
D03*
X984740Y787200D02*
D03*
X924240D02*
D03*
X444240Y788950D02*
D03*
X494240D02*
D03*
X576490Y594450D02*
D03*
Y544450D02*
D03*
Y1094450D02*
D03*
Y1044450D02*
D03*
D13*
X984740Y302200D02*
D03*
X924240D02*
D03*
X444990Y400950D02*
D03*
X444240Y303950D02*
D03*
X494240D02*
D03*
X984740Y802200D02*
D03*
X924240D02*
D03*
X444990Y900950D02*
D03*
X444240Y803950D02*
D03*
X494240D02*
D03*
D14*
X984740Y302200D02*
X984990Y302450D01*
Y345950D02*
Y352200D01*
X984740Y802200D02*
X984990Y802450D01*
Y845950D02*
Y852200D01*
D15*
X852365Y593200D02*
D03*
Y1093200D02*
D03*
D16*
X1218560Y718742D02*
D03*
X320365Y719325D02*
D03*
X1218560Y1218742D02*
D03*
X320365Y1219325D02*
D03*
D17*
X297740Y376950D02*
D03*
X1242490Y374840D02*
D03*
X297740Y876950D02*
D03*
X1242490Y874840D02*
D03*
D18*
X1010740Y550450D02*
D03*
Y500450D02*
D03*
X926515Y645675D02*
D03*
X976515D02*
D03*
X963240Y500950D02*
D03*
Y550950D02*
D03*
X1010740Y1050450D02*
D03*
Y1000450D02*
D03*
X926515Y1145675D02*
D03*
X976515D02*
D03*
X963240Y1000950D02*
D03*
Y1050950D02*
D03*
D19*
X925690Y691950D02*
D03*
X975490D02*
D03*
X925690Y1191950D02*
D03*
X975490D02*
D03*
D20*
X1024240Y692200D02*
D03*
Y592200D02*
D03*
X924740Y493200D02*
D03*
Y593200D02*
D03*
X1024240Y1192200D02*
D03*
Y1092200D02*
D03*
X924740Y993200D02*
D03*
Y1093200D02*
D03*
D21*
X976540Y617600D02*
D03*
X989240Y592200D02*
D03*
X963840D02*
D03*
X976540Y1117600D02*
D03*
X989240Y1092200D02*
D03*
X963840D02*
D03*
D22*
X1114990Y591255D02*
D03*
Y546255D02*
D03*
X1049990Y591255D02*
D03*
Y546255D02*
D03*
X1114990Y1091255D02*
D03*
Y1046255D02*
D03*
X1049990Y1091255D02*
D03*
Y1046255D02*
D03*
D23*
X435990Y569700D02*
D03*
Y1069700D02*
D03*
D24*
X494240Y303950D02*
D03*
X984990Y352200D02*
D03*
X294990Y341090D02*
D03*
Y366090D02*
D03*
Y391090D02*
D03*
Y416090D02*
D03*
Y316090D02*
D03*
Y440090D02*
D03*
X1239990Y343590D02*
D03*
Y368590D02*
D03*
Y393590D02*
D03*
Y418590D02*
D03*
Y318590D02*
D03*
Y442590D02*
D03*
X494240Y803950D02*
D03*
X984990Y852200D02*
D03*
X294990Y841090D02*
D03*
Y866090D02*
D03*
Y891090D02*
D03*
Y916090D02*
D03*
Y816090D02*
D03*
Y940090D02*
D03*
X1239990Y843590D02*
D03*
Y868590D02*
D03*
Y893590D02*
D03*
Y918590D02*
D03*
Y818590D02*
D03*
Y942590D02*
D03*
M02*
