M48
;Layer_Color=9474304
;FILE_FORMAT=4:4
METRIC,LZ
;TYPE=PLATED
T1F00S00C0.7000
T2F00S00C0.7112
T3F00S00C0.8000
T5F00S00C0.9000
T6F00S00C1.3000
T7F00S00C9.5000
%
T01
X0065645Y0042525
X0070625
T02
X00225Y0003725
X0002575Y0004939
Y0007439
Y0009939
Y0012439
Y0014939
Y0017339
X0071575Y000855
X0097075Y0007689
Y0010189
Y0012689
Y0015189
Y0017589
Y0005189
T03
X00694Y0023425
Y0028425
X006946Y003255
X007073Y003509
X00707275Y00378975
X00657275
X0072Y003255
X007415Y0028375
Y0023375
T05
X006555Y002265
Y003265
X00755Y003255
Y004255
T06
X0032525Y0027825
Y0032825
T07
X0017425Y00304
M30
