G04*
G04 #@! TF.GenerationSoftware,Altium Limited,Altium Designer,21.0.8 (223)*
G04*
G04 Layer_Color=65535*
%FSLAX44Y44*%
%MOMM*%
G71*
G04*
G04 #@! TF.SameCoordinates,403E8028-421C-4CEE-AC17-E54D717F3EFD*
G04*
G04*
G04 #@! TF.FilePolarity,Positive*
G04*
G01*
G75*
%ADD10C,0.2000*%
%ADD11C,0.2500*%
%ADD12C,0.2540*%
%ADD13C,0.1500*%
D10*
X730344Y244694D02*
G03*
X732631Y239209I6656J-444D01*
G01*
X732787Y278235D02*
G03*
X730500Y272750I4369J-5041D01*
G01*
X751656Y272806D02*
G03*
X749369Y278291I-6656J444D01*
G01*
X749529Y239558D02*
G03*
X751790Y245054I-4393J5020D01*
G01*
X646250Y447250D02*
G03*
X647250Y402250I3733J-22428D01*
G01*
X716250D02*
G03*
X715250Y447250I-3733J22428D01*
G01*
X696331Y367819D02*
G03*
X701816Y370106I444J6656D01*
G01*
X662790Y370262D02*
G03*
X668275Y367975I5041J4369D01*
G01*
X668219Y389131D02*
G03*
X662734Y386844I-444J-6656D01*
G01*
X701467Y387004D02*
G03*
X695971Y389265I-5020J-4393D01*
G01*
X705156Y273306D02*
G03*
X702869Y278791I-6656J444D01*
G01*
X702713Y239765D02*
G03*
X705000Y245250I-4369J5041D01*
G01*
X683844Y245194D02*
G03*
X686131Y239709I6656J-444D01*
G01*
X685971Y278442D02*
G03*
X683710Y272946I4393J-5020D01*
G01*
X741500Y245750D02*
Y255750D01*
X731500Y256750D02*
X752500D01*
X731500Y261750D02*
X752500D01*
X741500Y262750D02*
Y272750D01*
X647250Y402250D02*
X715250D01*
X646250Y447250D02*
X715250D01*
X685275Y378975D02*
X695275D01*
X684275Y368975D02*
Y389975D01*
X679275Y368975D02*
Y389975D01*
X668275Y378975D02*
X678275D01*
X694000Y262250D02*
Y272250D01*
X683000Y261250D02*
X704000D01*
X683000Y256250D02*
X704000D01*
X694000Y245250D02*
Y255250D01*
D11*
X684459Y345895D02*
G03*
X730139Y345898I22841J-16195D01*
G01*
X755000Y405500D02*
Y410160D01*
X744000Y405500D02*
X766000D01*
X744000Y345500D02*
Y405500D01*
Y345500D02*
X766000D01*
Y405500D01*
X755000Y340860D02*
Y345500D01*
X684459Y345895D02*
X693000Y345897D01*
X722000Y345898D02*
X730139Y345898D01*
X655500Y241840D02*
Y246500D01*
X644500D02*
X666500D01*
Y306500D01*
X644500D02*
X666500D01*
X644500Y246500D02*
Y306500D01*
X655500D02*
Y311140D01*
D12*
X868500Y50000D02*
X943500D01*
X868500Y70000D02*
X943500D01*
X63500Y50000D02*
X138500D01*
X63500Y70000D02*
X138500D01*
D13*
X739034Y218153D02*
X738415Y219391D01*
X737177Y220628D01*
X735939Y221247D01*
X733464D01*
X732226Y220628D01*
X730988Y219391D01*
X730369Y218153D01*
X729750Y216296D01*
Y213201D01*
X730369Y211345D01*
X730988Y210107D01*
X732226Y208869D01*
X733464Y208250D01*
X735939D01*
X737177Y208869D01*
X738415Y210107D01*
X739034Y211345D01*
X743923Y221247D02*
X750731D01*
X747018Y216296D01*
X748875D01*
X750112Y215677D01*
X750731Y215058D01*
X751350Y213201D01*
Y211964D01*
X750731Y210107D01*
X749493Y208869D01*
X747637Y208250D01*
X745780D01*
X743923Y208869D01*
X743304Y209488D01*
X742685Y210726D01*
X773500Y381247D02*
Y368250D01*
Y381247D02*
X779070D01*
X780927Y380628D01*
X781546Y380009D01*
X782165Y378772D01*
Y377534D01*
X781546Y376296D01*
X780927Y375677D01*
X779070Y375058D01*
X773500D01*
X777832D02*
X782165Y368250D01*
X785074Y378772D02*
X786311Y379390D01*
X788168Y381247D01*
Y368250D01*
X615750Y281497D02*
Y268500D01*
Y281497D02*
X621320D01*
X623177Y280878D01*
X623796Y280259D01*
X624415Y279022D01*
Y277784D01*
X623796Y276546D01*
X623177Y275927D01*
X621320Y275308D01*
X615750D01*
X620082D02*
X624415Y268500D01*
X627943Y278403D02*
Y279022D01*
X628562Y280259D01*
X629180Y280878D01*
X630418Y281497D01*
X632894D01*
X634132Y280878D01*
X634751Y280259D01*
X635370Y279022D01*
Y277784D01*
X634751Y276546D01*
X633513Y274689D01*
X627324Y268500D01*
X635989D01*
X636534Y381403D02*
X635915Y382640D01*
X634677Y383878D01*
X633439Y384497D01*
X630964D01*
X629726Y383878D01*
X628488Y382640D01*
X627869Y381403D01*
X627250Y379546D01*
Y376451D01*
X627869Y374595D01*
X628488Y373357D01*
X629726Y372119D01*
X630964Y371500D01*
X633439D01*
X634677Y372119D01*
X635915Y373357D01*
X636534Y374595D01*
X640185Y382022D02*
X641423Y382640D01*
X643280Y384497D01*
Y371500D01*
X692784Y218403D02*
X692165Y219641D01*
X690927Y220878D01*
X689689Y221497D01*
X687214D01*
X685976Y220878D01*
X684738Y219641D01*
X684119Y218403D01*
X683500Y216546D01*
Y213451D01*
X684119Y211595D01*
X684738Y210357D01*
X685976Y209119D01*
X687214Y208500D01*
X689689D01*
X690927Y209119D01*
X692165Y210357D01*
X692784Y211595D01*
X697054Y218403D02*
Y219022D01*
X697673Y220259D01*
X698292Y220878D01*
X699530Y221497D01*
X702006D01*
X703243Y220878D01*
X703862Y220259D01*
X704481Y219022D01*
Y217784D01*
X703862Y216546D01*
X702625Y214689D01*
X696435Y208500D01*
X705100D01*
X648000Y357247D02*
X652951Y344250D01*
X657903Y357247D02*
X652951Y344250D01*
X663906Y357247D02*
Y344250D01*
X659574Y357247D02*
X668239D01*
X669786Y354772D02*
X671024Y355391D01*
X672880Y357247D01*
Y344250D01*
X675665Y467747D02*
X667000Y454750D01*
Y467747D02*
X675665D01*
X667000Y454750D02*
X675665D01*
X682287Y467747D02*
X681049Y467128D01*
X679811Y465891D01*
X679193Y464653D01*
X678574Y462796D01*
Y459701D01*
X679193Y457845D01*
X679811Y456607D01*
X681049Y455369D01*
X682287Y454750D01*
X684763D01*
X686001Y455369D01*
X687238Y456607D01*
X687857Y457845D01*
X688476Y459701D01*
Y462796D01*
X687857Y464653D01*
X687238Y465891D01*
X686001Y467128D01*
X684763Y467747D01*
X682287D01*
X684144Y457226D02*
X687857Y453512D01*
X691509Y465271D02*
X692747Y465891D01*
X694604Y467747D01*
Y454750D01*
M02*
