G04*
G04 #@! TF.GenerationSoftware,Altium Limited,Altium Designer,21.0.8 (223)*
G04*
G04 Layer_Color=16711935*
%FSLAX44Y44*%
%MOMM*%
G71*
G04*
G04 #@! TF.SameCoordinates,31EEA714-13B4-4420-B856-4EAA1F9135B5*
G04*
G04*
G04 #@! TF.FilePolarity,Negative*
G04*
G01*
G75*
%ADD30C,1.7032*%
%ADD31C,0.2032*%
%ADD32C,7.2032*%
%ADD33O,1.8032X5.2032*%
%ADD34R,3.2032X3.2032*%
%ADD35C,3.2032*%
%ADD36O,3.2032X5.2032*%
%ADD37O,5.2032X3.2032*%
%ADD38R,8.5282X7.7782*%
%ADD39R,4.7032X20.9032*%
%ADD40R,5.6782X7.6032*%
%ADD41C,1.2032*%
D30*
X977390Y499180D02*
D03*
Y999180D02*
D03*
D31*
X1031890Y500680D02*
D03*
X675890Y500680D02*
D03*
X468000Y363000D02*
D03*
X1031890Y1000680D02*
D03*
X675890Y1000680D02*
D03*
X468000Y863000D02*
D03*
D32*
X1112890Y499680D02*
D03*
X756890Y499680D02*
D03*
X469000Y444000D02*
D03*
X1112890Y999680D02*
D03*
X756890Y999680D02*
D03*
X469000Y944000D02*
D03*
D33*
X964000Y448500D02*
D03*
X989000D02*
D03*
X964000Y948500D02*
D03*
X989000D02*
D03*
D34*
X829000Y289000D02*
D03*
X679000Y289000D02*
D03*
X879000D02*
D03*
X779000D02*
D03*
X629000D02*
D03*
X729000Y289000D02*
D03*
X829000Y789000D02*
D03*
X679000Y789000D02*
D03*
X879000D02*
D03*
X779000D02*
D03*
X629000D02*
D03*
X729000Y789000D02*
D03*
D35*
X829000Y274000D02*
D03*
X679000Y274000D02*
D03*
X879000Y274000D02*
D03*
X779000Y274000D02*
D03*
X629000D02*
D03*
X729000Y274000D02*
D03*
X829000Y774000D02*
D03*
X679000Y774000D02*
D03*
X879000Y774000D02*
D03*
X779000Y774000D02*
D03*
X629000D02*
D03*
X729000Y774000D02*
D03*
D36*
X1058890Y361680D02*
D03*
X1110890D02*
D03*
X1160890D02*
D03*
X804890Y361680D02*
D03*
X754890D02*
D03*
X702890D02*
D03*
X1058890Y861680D02*
D03*
X1110890D02*
D03*
X1160890D02*
D03*
X804890Y861680D02*
D03*
X754890D02*
D03*
X702890D02*
D03*
D37*
X607000Y390000D02*
D03*
Y442000D02*
D03*
Y492000D02*
D03*
Y890000D02*
D03*
Y942000D02*
D03*
Y992000D02*
D03*
D38*
X305610Y707176D02*
D03*
X1199826Y704920D02*
D03*
X305610Y1207176D02*
D03*
X1199826Y1204920D02*
D03*
D39*
X1226390Y366180D02*
D03*
X281890Y364680D02*
D03*
X1226390Y866180D02*
D03*
X281890Y864680D02*
D03*
D40*
X288125Y603500D02*
D03*
X651625Y601500D02*
D03*
X288125Y1103500D02*
D03*
X651625Y1101500D02*
D03*
D41*
X288500Y630500D02*
D03*
Y578250D02*
D03*
Y604250D02*
D03*
X651703Y628376D02*
D03*
X651727Y601234D02*
D03*
X652227Y576734D02*
D03*
X1226890Y428680D02*
D03*
Y304680D02*
D03*
Y404680D02*
D03*
Y379680D02*
D03*
Y354680D02*
D03*
Y329680D02*
D03*
X280390Y427180D02*
D03*
Y303180D02*
D03*
Y403180D02*
D03*
Y378180D02*
D03*
Y353180D02*
D03*
Y328180D02*
D03*
X288500Y1130500D02*
D03*
Y1078250D02*
D03*
Y1104250D02*
D03*
X651703Y1128376D02*
D03*
X651727Y1101234D02*
D03*
X652227Y1076734D02*
D03*
X1226890Y928680D02*
D03*
Y804680D02*
D03*
Y904680D02*
D03*
Y879680D02*
D03*
Y854680D02*
D03*
Y829680D02*
D03*
X280390Y927180D02*
D03*
Y803180D02*
D03*
Y903180D02*
D03*
Y878180D02*
D03*
Y853180D02*
D03*
Y828180D02*
D03*
M02*
