G04*
G04 #@! TF.GenerationSoftware,Altium Limited,Altium Designer,21.0.8 (223)*
G04*
G04 Layer_Color=16711935*
%FSLAX25Y25*%
%MOIN*%
G70*
G04*
G04 #@! TF.SameCoordinates,1038851D-6751-456F-ADCF-613883C18876*
G04*
G04*
G04 #@! TF.FilePolarity,Negative*
G04*
G01*
G75*
%ADD29C,0.00800*%
%ADD30C,0.28359*%
%ADD31C,0.06706*%
%ADD32O,0.12611X0.20485*%
%ADD33R,0.12611X0.12611*%
%ADD34C,0.12611*%
%ADD35O,0.07099X0.20485*%
%ADD36R,0.42139X0.36233*%
%ADD37R,0.18517X0.82296*%
%ADD38R,0.42139X0.36233*%
%ADD39R,0.42139X0.36233*%
%ADD40R,0.42139X0.36233*%
%ADD41C,0.05800*%
D29*
X137378Y204618D02*
D03*
X273598Y204618D02*
D03*
X413756Y204618D02*
D03*
X137378Y401469D02*
D03*
X273598Y401469D02*
D03*
X413756Y401469D02*
D03*
D30*
X169268Y204224D02*
D03*
X305488Y204224D02*
D03*
X445646Y204224D02*
D03*
X169268Y401075D02*
D03*
X305488Y401075D02*
D03*
X445646Y401075D02*
D03*
D31*
X392299Y204028D02*
D03*
Y400878D02*
D03*
D32*
X148008Y149894D02*
D03*
X168480D02*
D03*
X188165D02*
D03*
X284228Y149894D02*
D03*
X304701D02*
D03*
X324386D02*
D03*
X464543Y149894D02*
D03*
X444858D02*
D03*
X424386D02*
D03*
X148008Y346744D02*
D03*
X168480D02*
D03*
X188165D02*
D03*
X284228Y346744D02*
D03*
X304701D02*
D03*
X324386D02*
D03*
X464543Y346744D02*
D03*
X444858D02*
D03*
X424386D02*
D03*
D33*
X294508Y121280D02*
D03*
X255138Y121280D02*
D03*
X314193D02*
D03*
X353563D02*
D03*
X274823D02*
D03*
X333878Y121280D02*
D03*
X294508Y318130D02*
D03*
X255138Y318130D02*
D03*
X314193D02*
D03*
X353563D02*
D03*
X274823D02*
D03*
X333878Y318130D02*
D03*
D34*
X294508Y115374D02*
D03*
X255138Y115374D02*
D03*
X314193D02*
D03*
X353563Y115374D02*
D03*
X274823Y115374D02*
D03*
X333878Y115374D02*
D03*
X294508Y312224D02*
D03*
X255138Y312224D02*
D03*
X314193D02*
D03*
X353563Y312224D02*
D03*
X274823Y312224D02*
D03*
X333878Y312224D02*
D03*
D35*
X396870Y184075D02*
D03*
X387028D02*
D03*
X396870Y380925D02*
D03*
X387028D02*
D03*
D36*
X475610Y282697D02*
D03*
D37*
X118480Y151075D02*
D03*
X490331Y151665D02*
D03*
X118480Y347925D02*
D03*
X490331Y348516D02*
D03*
D38*
X132106Y282697D02*
D03*
D39*
X475610Y479547D02*
D03*
D40*
X132106D02*
D03*
D41*
X117890Y136705D02*
D03*
Y146547D02*
D03*
Y156390D02*
D03*
Y166232D02*
D03*
Y126862D02*
D03*
Y175681D02*
D03*
X490528Y137295D02*
D03*
Y147138D02*
D03*
Y156980D02*
D03*
Y166823D02*
D03*
Y127453D02*
D03*
Y176272D02*
D03*
X117890Y333555D02*
D03*
Y343398D02*
D03*
Y353240D02*
D03*
Y363083D02*
D03*
Y323713D02*
D03*
Y372532D02*
D03*
X490528Y334146D02*
D03*
Y343988D02*
D03*
Y353831D02*
D03*
Y363673D02*
D03*
Y324303D02*
D03*
Y373122D02*
D03*
M02*
