M48
;Layer_Color=9474304
;FILE_FORMAT=4:4
METRIC,LZ
;TYPE=PLATED
T1F00S00C0.7112
T3F00S00C3.0000
T4F00S00C7.0000
%
T01
X0029944Y0032223
Y0034723
Y0037223
X0124594Y0037373
Y0034873
Y0032373
Y0039873
Y0042373
Y0044773
X0029944Y0044623
Y0042223
Y0039723
Y0082223
Y0084723
Y0087223
Y0089723
Y0092223
Y0094623
X0124594Y0094773
Y0092373
Y0089873
Y0087373
Y0084873
Y0082373
T03
X0099644Y0051823
Y0101823
T04
X0113194Y0051873
X0077594Y0051873
X0042994Y0051873
Y0101873
X0077594Y0101873
X0113194Y0101873
M30
