M48
;Layer_Color=9474304
;FILE_FORMAT=4:4
METRIC,LZ
;TYPE=PLATED
T1F00S00C0.6000
T3F00S00C3.0000
T4F00S00C7.0000
%
T01
X0028039Y0030318
Y0032818
Y0035318
Y0037818
X0122689Y0037968
Y0035468
Y0032968
Y0030468
Y0040468
Y0042868
X00652227Y00576734
X00651727Y00601234
X00651703Y00628376
X002885Y006305
Y0060425
Y0057825
X0028039Y0042718
Y0040318
Y0080318
Y0082818
Y0085318
Y0087818
Y0090318
Y0092718
X002885Y0107825
Y0110425
Y011305
X00651703Y01128376
X00651727Y01101234
X00652227Y01076734
X0122689Y0092868
Y0090468
Y0087968
Y0085468
Y0082968
Y0080468
T03
X0097739Y0049918
Y0099918
T04
X0111289Y0049968
X0075689Y0049968
X00469Y00444
Y00944
X0075689Y0099968
X0111289Y0099968
M30
