G04*
G04 #@! TF.GenerationSoftware,Altium Limited,Altium Designer,21.0.8 (223)*
G04*
G04 Layer_Physical_Order=1*
G04 Layer_Color=255*
%FSLAX44Y44*%
%MOMM*%
G71*
G04*
G04 #@! TF.SameCoordinates,31EEA714-13B4-4420-B856-4EAA1F9135B5*
G04*
G04*
G04 #@! TF.FilePolarity,Positive*
G04*
G01*
G75*
%ADD10C,1.5000*%
%ADD11C,7.0000*%
%ADD12C,1.0000*%
G36*
X1232500Y1236680D02*
Y776680D01*
X274890Y776680D01*
Y1236680D01*
X1232500Y1236680D01*
D02*
G37*
G36*
Y736680D02*
Y276680D01*
X274890Y276680D01*
Y736680D01*
X1232500Y736680D01*
D02*
G37*
%LPC*%
G36*
X614995Y1166590D02*
X325505D01*
D01*
X325505D01*
X324514Y1166393D01*
X322677Y1165631D01*
X321837Y1165070D01*
X320430Y1163663D01*
Y1163663D01*
X320430D01*
X320244Y1163385D01*
X319869Y1162823D01*
Y1162823D01*
X319107Y1160986D01*
X319107Y1160986D01*
X318910Y1159995D01*
Y1159000D01*
Y1049000D01*
Y1048005D01*
X319107Y1047014D01*
X319107Y1047014D01*
X319869Y1045177D01*
Y1045177D01*
X320244Y1044615D01*
X320430Y1044336D01*
X320430D01*
Y1044336D01*
X321837Y1042930D01*
X321837D01*
Y1042930D01*
X322115Y1042744D01*
X322677Y1042369D01*
X322677D01*
X324514Y1041607D01*
X324514Y1041607D01*
X325505Y1041410D01*
X614995D01*
X615986Y1041607D01*
X615986Y1041607D01*
X617823Y1042369D01*
X617823D01*
X618385Y1042744D01*
X618663Y1042930D01*
Y1042930D01*
X618663D01*
X620070Y1044336D01*
X620631Y1045177D01*
X621393Y1047014D01*
X621590Y1048005D01*
Y1049000D01*
Y1159000D01*
Y1159995D01*
D01*
Y1159995D01*
X621393Y1160986D01*
X620631Y1162823D01*
X620070Y1163663D01*
X618663Y1165070D01*
X617823Y1165631D01*
X615986Y1166393D01*
X614995Y1166590D01*
D02*
G37*
G36*
X675890Y1018328D02*
X672616Y1017897D01*
X669566Y1016634D01*
X666946Y1014624D01*
X664936Y1012004D01*
X663673Y1008954D01*
X663242Y1005680D01*
Y995680D01*
X663673Y992406D01*
X664936Y989356D01*
X666946Y986736D01*
X669566Y984726D01*
X672616Y983463D01*
X675890Y983032D01*
X679164Y983463D01*
X682214Y984726D01*
X684834Y986736D01*
X686844Y989356D01*
X688107Y992406D01*
X688538Y995680D01*
Y1005680D01*
X688107Y1008954D01*
X686844Y1012004D01*
X684834Y1014624D01*
X682214Y1016634D01*
X679164Y1017897D01*
X675890Y1018328D01*
D02*
G37*
G36*
X1031890Y1018328D02*
X1028616Y1017897D01*
X1025566Y1016634D01*
X1022946Y1014624D01*
X1020936Y1012004D01*
X1019673Y1008954D01*
X1019242Y1005680D01*
Y995680D01*
X1019673Y992406D01*
X1020936Y989356D01*
X1022946Y986736D01*
X1025566Y984726D01*
X1028616Y983463D01*
X1031890Y983032D01*
X1035164Y983463D01*
X1038214Y984726D01*
X1040834Y986736D01*
X1042844Y989356D01*
X1044107Y992406D01*
X1044538Y995680D01*
Y1005680D01*
X1044107Y1008954D01*
X1042844Y1012004D01*
X1040834Y1014624D01*
X1038214Y1016634D01*
X1035164Y1017897D01*
X1031890Y1018328D01*
D02*
G37*
G36*
X977390Y1016805D02*
X973951Y1016466D01*
X970645Y1015463D01*
X967598Y1013835D01*
X964927Y1011643D01*
X962736Y1008972D01*
X961107Y1005925D01*
X960104Y1002618D01*
X959765Y999180D01*
X960104Y995742D01*
X961107Y992435D01*
X962736Y989388D01*
X964927Y986717D01*
X967598Y984526D01*
X970645Y982897D01*
X973951Y981894D01*
X977390Y981555D01*
X980828Y981894D01*
X984135Y982897D01*
X987182Y984526D01*
X989853Y986717D01*
X992045Y989388D01*
X993673Y992435D01*
X994676Y995742D01*
X995015Y999180D01*
X994676Y1002618D01*
X993673Y1005925D01*
X992045Y1008972D01*
X989853Y1011643D01*
X987182Y1013835D01*
X984135Y1015463D01*
X980828Y1016466D01*
X977390Y1016805D01*
D02*
G37*
G36*
X756890Y1037336D02*
X750999Y1036872D01*
X745254Y1035493D01*
X739794Y1033232D01*
X734756Y1030144D01*
X730263Y1026307D01*
X726426Y1021814D01*
X723338Y1016776D01*
X721077Y1011316D01*
X719697Y1005571D01*
X719234Y999680D01*
X719697Y993789D01*
X721077Y988044D01*
X723338Y982585D01*
X726426Y977546D01*
X730263Y973053D01*
X734756Y969216D01*
X739794Y966128D01*
X745254Y963867D01*
X750999Y962488D01*
X756890Y962024D01*
X762781Y962488D01*
X768526Y963867D01*
X773986Y966128D01*
X779024Y969216D01*
X783517Y973053D01*
X787354Y977546D01*
X790442Y982585D01*
X792703Y988044D01*
X794082Y993789D01*
X794546Y999680D01*
X794082Y1005571D01*
X792703Y1011316D01*
X790442Y1016776D01*
X787354Y1021814D01*
X783517Y1026307D01*
X779024Y1030144D01*
X773986Y1033232D01*
X768526Y1035493D01*
X762781Y1036872D01*
X756890Y1037336D01*
D02*
G37*
G36*
X1112890Y1037336D02*
X1106999Y1036872D01*
X1101254Y1035493D01*
X1095795Y1033232D01*
X1090756Y1030144D01*
X1086263Y1026307D01*
X1082426Y1021814D01*
X1079338Y1016776D01*
X1077077Y1011316D01*
X1075697Y1005571D01*
X1075234Y999680D01*
X1075697Y993789D01*
X1077077Y988044D01*
X1079338Y982585D01*
X1082426Y977546D01*
X1086263Y973053D01*
X1090756Y969216D01*
X1095795Y966128D01*
X1101254Y963867D01*
X1106999Y962487D01*
X1112890Y962024D01*
X1118781Y962487D01*
X1124526Y963867D01*
X1129986Y966128D01*
X1135024Y969216D01*
X1139517Y973053D01*
X1143354Y977546D01*
X1146442Y982585D01*
X1148703Y988044D01*
X1150082Y993789D01*
X1150546Y999680D01*
X1150082Y1005571D01*
X1148703Y1011316D01*
X1146442Y1016776D01*
X1143354Y1021814D01*
X1139517Y1026307D01*
X1135024Y1030144D01*
X1129986Y1033232D01*
X1124526Y1035493D01*
X1118781Y1036872D01*
X1112890Y1037336D01*
D02*
G37*
G36*
X469000Y981656D02*
X463109Y981192D01*
X457364Y979813D01*
X451904Y977552D01*
X446866Y974464D01*
X442373Y970627D01*
X438536Y966134D01*
X435448Y961096D01*
X433187Y955636D01*
X431808Y949891D01*
X431344Y944000D01*
X431808Y938109D01*
X433187Y932364D01*
X435448Y926905D01*
X438536Y921866D01*
X442373Y917373D01*
X446866Y913536D01*
X451904Y910448D01*
X457364Y908187D01*
X463109Y906807D01*
X469000Y906344D01*
X474891Y906807D01*
X480636Y908187D01*
X486096Y910448D01*
X491134Y913536D01*
X495627Y917373D01*
X499464Y921866D01*
X502552Y926905D01*
X504813Y932364D01*
X506193Y938109D01*
X506656Y944000D01*
X506193Y949891D01*
X504813Y955636D01*
X502552Y961096D01*
X499464Y966134D01*
X495627Y970627D01*
X491134Y974464D01*
X486096Y977552D01*
X480636Y979813D01*
X474891Y981192D01*
X469000Y981656D01*
D02*
G37*
G36*
X473000Y875648D02*
X463000D01*
X459726Y875217D01*
X456676Y873954D01*
X454056Y871944D01*
X452046Y869324D01*
X450783Y866274D01*
X450352Y863000D01*
X450783Y859726D01*
X452046Y856676D01*
X454056Y854056D01*
X456676Y852046D01*
X459726Y850783D01*
X463000Y850352D01*
X473000D01*
X476274Y850783D01*
X479324Y852046D01*
X481944Y854056D01*
X483954Y856676D01*
X485217Y859726D01*
X485648Y863000D01*
X485217Y866274D01*
X483954Y869324D01*
X481944Y871944D01*
X479324Y873954D01*
X476274Y875217D01*
X473000Y875648D01*
D02*
G37*
G36*
X614995Y666590D02*
X325505D01*
D01*
X325505D01*
X324514Y666393D01*
X322677Y665631D01*
X321837Y665070D01*
X320430Y663663D01*
Y663663D01*
X320430D01*
X320244Y663385D01*
X319869Y662823D01*
Y662823D01*
X319107Y660986D01*
X319107Y660986D01*
X318910Y659995D01*
Y659000D01*
Y549000D01*
Y548005D01*
X319107Y547014D01*
X319107Y547014D01*
X319869Y545177D01*
Y545177D01*
X320244Y544615D01*
X320430Y544337D01*
X320430D01*
Y544337D01*
X321837Y542930D01*
X321837D01*
Y542930D01*
X322115Y542744D01*
X322677Y542369D01*
X322677D01*
X324514Y541607D01*
X324514Y541607D01*
X325505Y541410D01*
X614995D01*
X615986Y541607D01*
X615986Y541607D01*
X617823Y542369D01*
X617823D01*
X618385Y542744D01*
X618663Y542930D01*
Y542930D01*
X618663D01*
X620070Y544337D01*
X620631Y545177D01*
X621393Y547014D01*
X621590Y548005D01*
Y549000D01*
Y659000D01*
Y659995D01*
D01*
Y659995D01*
X621393Y660986D01*
X620631Y662823D01*
X620070Y663663D01*
X618663Y665070D01*
X617823Y665631D01*
X615986Y666393D01*
X614995Y666590D01*
D02*
G37*
G36*
X675890Y518328D02*
X672616Y517897D01*
X669566Y516634D01*
X666946Y514624D01*
X664936Y512004D01*
X663673Y508954D01*
X663242Y505680D01*
Y495680D01*
X663673Y492407D01*
X664936Y489356D01*
X666946Y486736D01*
X669566Y484726D01*
X672616Y483463D01*
X675890Y483032D01*
X679164Y483463D01*
X682214Y484726D01*
X684834Y486736D01*
X686844Y489356D01*
X688107Y492407D01*
X688538Y495680D01*
Y505680D01*
X688107Y508954D01*
X686844Y512004D01*
X684834Y514624D01*
X682214Y516634D01*
X679164Y517897D01*
X675890Y518328D01*
D02*
G37*
G36*
X1031890Y518328D02*
X1028616Y517897D01*
X1025566Y516634D01*
X1022946Y514624D01*
X1020936Y512004D01*
X1019673Y508954D01*
X1019242Y505680D01*
Y495680D01*
X1019673Y492406D01*
X1020936Y489356D01*
X1022946Y486736D01*
X1025566Y484726D01*
X1028616Y483463D01*
X1031890Y483032D01*
X1035164Y483463D01*
X1038214Y484726D01*
X1040834Y486736D01*
X1042844Y489356D01*
X1044107Y492406D01*
X1044538Y495680D01*
Y505680D01*
X1044107Y508954D01*
X1042844Y512004D01*
X1040834Y514624D01*
X1038214Y516634D01*
X1035164Y517897D01*
X1031890Y518328D01*
D02*
G37*
G36*
X977390Y516805D02*
X973951Y516466D01*
X970645Y515463D01*
X967598Y513835D01*
X964927Y511643D01*
X962736Y508972D01*
X961107Y505925D01*
X960104Y502618D01*
X959765Y499180D01*
X960104Y495742D01*
X961107Y492435D01*
X962736Y489388D01*
X964927Y486717D01*
X967598Y484525D01*
X970645Y482897D01*
X973951Y481894D01*
X977390Y481555D01*
X980828Y481894D01*
X984135Y482897D01*
X987182Y484525D01*
X989853Y486717D01*
X992045Y489388D01*
X993673Y492435D01*
X994676Y495742D01*
X995015Y499180D01*
X994676Y502618D01*
X993673Y505925D01*
X992045Y508972D01*
X989853Y511643D01*
X987182Y513835D01*
X984135Y515463D01*
X980828Y516466D01*
X977390Y516805D01*
D02*
G37*
G36*
X756890Y537336D02*
X750999Y536872D01*
X745254Y535493D01*
X739794Y533232D01*
X734756Y530145D01*
X730263Y526307D01*
X726426Y521814D01*
X723338Y516776D01*
X721077Y511316D01*
X719697Y505571D01*
X719234Y499680D01*
X719697Y493789D01*
X721077Y488044D01*
X723338Y482585D01*
X726426Y477546D01*
X730263Y473053D01*
X734756Y469216D01*
X739794Y466128D01*
X745254Y463867D01*
X750999Y462488D01*
X756890Y462024D01*
X762781Y462488D01*
X768526Y463867D01*
X773986Y466128D01*
X779024Y469216D01*
X783517Y473053D01*
X787354Y477546D01*
X790442Y482585D01*
X792703Y488044D01*
X794082Y493789D01*
X794546Y499680D01*
X794082Y505571D01*
X792703Y511316D01*
X790442Y516776D01*
X787354Y521814D01*
X783517Y526307D01*
X779024Y530145D01*
X773986Y533232D01*
X768526Y535493D01*
X762781Y536872D01*
X756890Y537336D01*
D02*
G37*
G36*
X1112890Y537336D02*
X1106999Y536872D01*
X1101254Y535493D01*
X1095795Y533232D01*
X1090756Y530144D01*
X1086263Y526307D01*
X1082426Y521814D01*
X1079338Y516776D01*
X1077077Y511316D01*
X1075697Y505571D01*
X1075234Y499680D01*
X1075697Y493789D01*
X1077077Y488044D01*
X1079338Y482584D01*
X1082426Y477546D01*
X1086263Y473053D01*
X1090756Y469216D01*
X1095795Y466128D01*
X1101254Y463867D01*
X1106999Y462487D01*
X1112890Y462024D01*
X1118781Y462487D01*
X1124526Y463867D01*
X1129986Y466128D01*
X1135024Y469216D01*
X1139517Y473053D01*
X1143354Y477546D01*
X1146442Y482584D01*
X1148703Y488044D01*
X1150082Y493789D01*
X1150546Y499680D01*
X1150082Y505571D01*
X1148703Y511316D01*
X1146442Y516776D01*
X1143354Y521814D01*
X1139517Y526307D01*
X1135024Y530144D01*
X1129986Y533232D01*
X1124526Y535493D01*
X1118781Y536872D01*
X1112890Y537336D01*
D02*
G37*
G36*
X469000Y481656D02*
X463109Y481193D01*
X457364Y479813D01*
X451904Y477552D01*
X446866Y474464D01*
X442373Y470627D01*
X438536Y466134D01*
X435448Y461096D01*
X433187Y455636D01*
X431808Y449891D01*
X431344Y444000D01*
X431808Y438109D01*
X433187Y432364D01*
X435448Y426904D01*
X438536Y421866D01*
X442373Y417373D01*
X446866Y413536D01*
X451904Y410448D01*
X457364Y408187D01*
X463109Y406808D01*
X469000Y406344D01*
X474891Y406808D01*
X480636Y408187D01*
X486096Y410448D01*
X491134Y413536D01*
X495627Y417373D01*
X499464Y421866D01*
X502552Y426904D01*
X504813Y432364D01*
X506193Y438109D01*
X506656Y444000D01*
X506193Y449891D01*
X504813Y455636D01*
X502552Y461096D01*
X499464Y466134D01*
X495627Y470627D01*
X491134Y474464D01*
X486096Y477552D01*
X480636Y479813D01*
X474891Y481193D01*
X469000Y481656D01*
D02*
G37*
G36*
X473000Y375648D02*
X463000D01*
X459726Y375217D01*
X456676Y373954D01*
X454056Y371944D01*
X452046Y369324D01*
X450783Y366274D01*
X450352Y363000D01*
X450783Y359726D01*
X452046Y356676D01*
X454056Y354056D01*
X456676Y352046D01*
X459726Y350783D01*
X463000Y350352D01*
X473000D01*
X476274Y350783D01*
X479324Y352046D01*
X481944Y354056D01*
X483954Y356676D01*
X485217Y359726D01*
X485648Y363000D01*
X485217Y366274D01*
X483954Y369324D01*
X481944Y371944D01*
X479324Y373954D01*
X476274Y375217D01*
X473000Y375648D01*
D02*
G37*
%LPD*%
D10*
X977390Y499180D02*
D03*
Y999180D02*
D03*
D11*
X1112890Y499680D02*
D03*
X756890Y499680D02*
D03*
X469000Y444000D02*
D03*
X1112890Y999680D02*
D03*
X756890Y999680D02*
D03*
X469000Y944000D02*
D03*
D12*
X288500Y630500D02*
D03*
Y578250D02*
D03*
Y604250D02*
D03*
X651703Y628376D02*
D03*
X651727Y601234D02*
D03*
X652227Y576734D02*
D03*
X1226890Y428680D02*
D03*
Y304680D02*
D03*
Y404680D02*
D03*
Y379680D02*
D03*
Y354680D02*
D03*
Y329680D02*
D03*
X280390Y427180D02*
D03*
Y303180D02*
D03*
Y403180D02*
D03*
Y378180D02*
D03*
Y353180D02*
D03*
Y328180D02*
D03*
X288500Y1130500D02*
D03*
Y1078250D02*
D03*
Y1104250D02*
D03*
X651703Y1128376D02*
D03*
X651727Y1101234D02*
D03*
X652227Y1076734D02*
D03*
X1226890Y928680D02*
D03*
Y804680D02*
D03*
Y904680D02*
D03*
Y879680D02*
D03*
Y854680D02*
D03*
Y829680D02*
D03*
X280390Y927180D02*
D03*
Y803180D02*
D03*
Y903180D02*
D03*
Y878180D02*
D03*
Y853180D02*
D03*
Y828180D02*
D03*
M02*
