G04*
G04 #@! TF.GenerationSoftware,Altium Limited,Altium Designer,21.0.8 (223)*
G04*
G04 Layer_Physical_Order=1*
G04 Layer_Color=255*
%FSLAX25Y25*%
%MOIN*%
G70*
G04*
G04 #@! TF.SameCoordinates,1038851D-6751-456F-ADCF-613883C18876*
G04*
G04*
G04 #@! TF.FilePolarity,Positive*
G04*
G01*
G75*
%ADD10C,0.27559*%
%ADD11C,0.05906*%
%ADD12C,0.05000*%
G36*
X494311Y494382D02*
Y313280D01*
X114390Y313280D01*
Y494382D01*
X494311Y494382D01*
D02*
G37*
G36*
Y297532D02*
Y116429D01*
X114390Y116429D01*
Y297532D01*
X494311Y297532D01*
D02*
G37*
%LPC*%
G36*
X273598Y408417D02*
X272310Y408247D01*
X271109Y407750D01*
X270077Y406958D01*
X269286Y405927D01*
X268789Y404726D01*
X268619Y403437D01*
Y399500D01*
X268789Y398211D01*
X269286Y397010D01*
X270077Y395979D01*
X271109Y395188D01*
X272310Y394690D01*
X273598Y394520D01*
X274887Y394690D01*
X276088Y395188D01*
X277120Y395979D01*
X277911Y397010D01*
X278408Y398211D01*
X278578Y399500D01*
Y403437D01*
X278408Y404726D01*
X277911Y405927D01*
X277120Y406958D01*
X276088Y407750D01*
X274887Y408247D01*
X273598Y408417D01*
D02*
G37*
G36*
X413756Y408417D02*
X412467Y408247D01*
X411266Y407750D01*
X410235Y406958D01*
X409443Y405927D01*
X408946Y404726D01*
X408776Y403437D01*
Y399500D01*
X408946Y398211D01*
X409443Y397010D01*
X410235Y395979D01*
X411266Y395187D01*
X412467Y394690D01*
X413756Y394520D01*
X415045Y394690D01*
X416246Y395187D01*
X417277Y395979D01*
X418068Y397010D01*
X418566Y398211D01*
X418736Y399500D01*
Y403437D01*
X418566Y404726D01*
X418068Y405927D01*
X417277Y406958D01*
X416246Y407750D01*
X415045Y408247D01*
X413756Y408417D01*
D02*
G37*
G36*
X137378D02*
X136089Y408247D01*
X134888Y407750D01*
X133857Y406958D01*
X133065Y405927D01*
X132568Y404726D01*
X132398Y403437D01*
Y399500D01*
X132568Y398211D01*
X133065Y397010D01*
X133857Y395979D01*
X134888Y395187D01*
X136089Y394690D01*
X137378Y394520D01*
X138667Y394690D01*
X139868Y395187D01*
X140899Y395979D01*
X141690Y397010D01*
X142188Y398211D01*
X142358Y399500D01*
Y403437D01*
X142188Y404726D01*
X141690Y405927D01*
X140899Y406958D01*
X139868Y407750D01*
X138667Y408247D01*
X137378Y408417D01*
D02*
G37*
G36*
X392299Y407817D02*
X390946Y407684D01*
X389644Y407289D01*
X388444Y406647D01*
X387393Y405785D01*
X386530Y404733D01*
X385889Y403533D01*
X385494Y402232D01*
X385360Y400878D01*
X385494Y399524D01*
X385889Y398223D01*
X386530Y397023D01*
X387393Y395971D01*
X388444Y395109D01*
X389644Y394467D01*
X390946Y394072D01*
X392299Y393939D01*
X393653Y394072D01*
X394955Y394467D01*
X396154Y395109D01*
X397206Y395971D01*
X398069Y397023D01*
X398710Y398223D01*
X399105Y399524D01*
X399238Y400878D01*
X399105Y402232D01*
X398710Y403533D01*
X398069Y404733D01*
X397206Y405785D01*
X396154Y406647D01*
X394955Y407289D01*
X393653Y407684D01*
X392299Y407817D01*
D02*
G37*
G36*
X305488Y415900D02*
X303169Y415718D01*
X300907Y415174D01*
X298758Y414284D01*
X296774Y413069D01*
X295005Y411558D01*
X293494Y409789D01*
X292279Y407805D01*
X291389Y405656D01*
X290845Y403394D01*
X290663Y401075D01*
X290845Y398756D01*
X291389Y396494D01*
X292279Y394344D01*
X293494Y392361D01*
X295005Y390592D01*
X296774Y389081D01*
X298758Y387865D01*
X300907Y386975D01*
X303169Y386432D01*
X305488Y386250D01*
X307807Y386432D01*
X310069Y386975D01*
X312219Y387865D01*
X314202Y389081D01*
X315971Y390592D01*
X317482Y392361D01*
X318698Y394344D01*
X319588Y396494D01*
X320131Y398756D01*
X320313Y401075D01*
X320131Y403394D01*
X319588Y405656D01*
X318698Y407805D01*
X317482Y409789D01*
X315971Y411558D01*
X314202Y413069D01*
X312219Y414284D01*
X310069Y415174D01*
X307807Y415718D01*
X305488Y415900D01*
D02*
G37*
G36*
X445646Y415900D02*
X443327Y415718D01*
X441064Y415174D01*
X438915Y414284D01*
X436932Y413069D01*
X435163Y411558D01*
X433652Y409789D01*
X432436Y407805D01*
X431546Y405656D01*
X431003Y403394D01*
X430820Y401075D01*
X431003Y398756D01*
X431546Y396494D01*
X432436Y394344D01*
X433652Y392361D01*
X435163Y390592D01*
X436932Y389081D01*
X438915Y387865D01*
X441064Y386975D01*
X443327Y386432D01*
X445646Y386250D01*
X447965Y386432D01*
X450227Y386975D01*
X452376Y387865D01*
X454360Y389081D01*
X456129Y390592D01*
X457640Y392361D01*
X458855Y394344D01*
X459745Y396494D01*
X460288Y398756D01*
X460471Y401075D01*
X460288Y403394D01*
X459745Y405656D01*
X458855Y407805D01*
X457640Y409789D01*
X456129Y411558D01*
X454360Y413069D01*
X452376Y414284D01*
X450227Y415174D01*
X447965Y415718D01*
X445646Y415900D01*
D02*
G37*
G36*
X169268D02*
X166948Y415718D01*
X164687Y415174D01*
X162537Y414284D01*
X160554Y413069D01*
X158785Y411558D01*
X157274Y409789D01*
X156058Y407805D01*
X155168Y405656D01*
X154625Y403394D01*
X154443Y401075D01*
X154625Y398756D01*
X155168Y396494D01*
X156058Y394344D01*
X157274Y392361D01*
X158785Y390592D01*
X160554Y389081D01*
X162537Y387865D01*
X164687Y386975D01*
X166948Y386432D01*
X169268Y386250D01*
X171587Y386432D01*
X173849Y386975D01*
X175998Y387865D01*
X177982Y389081D01*
X179751Y390592D01*
X181262Y392361D01*
X182477Y394344D01*
X183367Y396494D01*
X183910Y398756D01*
X184093Y401075D01*
X183910Y403394D01*
X183367Y405656D01*
X182477Y407805D01*
X181262Y409789D01*
X179751Y411558D01*
X177982Y413069D01*
X175998Y414284D01*
X173849Y415174D01*
X171587Y415718D01*
X169268Y415900D01*
D02*
G37*
G36*
X273598Y211566D02*
X272310Y211397D01*
X271109Y210899D01*
X270077Y210108D01*
X269286Y209076D01*
X268789Y207875D01*
X268619Y206587D01*
Y202650D01*
X268789Y201361D01*
X269286Y200160D01*
X270077Y199128D01*
X271109Y198337D01*
X272310Y197840D01*
X273598Y197670D01*
X274887Y197840D01*
X276088Y198337D01*
X277120Y199128D01*
X277911Y200160D01*
X278408Y201361D01*
X278578Y202650D01*
Y206587D01*
X278408Y207875D01*
X277911Y209076D01*
X277120Y210108D01*
X276088Y210899D01*
X274887Y211397D01*
X273598Y211566D01*
D02*
G37*
G36*
X413756Y211566D02*
X412467Y211397D01*
X411266Y210899D01*
X410235Y210108D01*
X409443Y209076D01*
X408946Y207875D01*
X408776Y206587D01*
Y202650D01*
X408946Y201361D01*
X409443Y200160D01*
X410235Y199128D01*
X411266Y198337D01*
X412467Y197840D01*
X413756Y197670D01*
X415045Y197840D01*
X416246Y198337D01*
X417277Y199128D01*
X418068Y200160D01*
X418566Y201361D01*
X418736Y202650D01*
Y206587D01*
X418566Y207875D01*
X418068Y209076D01*
X417277Y210108D01*
X416246Y210899D01*
X415045Y211397D01*
X413756Y211566D01*
D02*
G37*
G36*
X137378D02*
X136089Y211397D01*
X134888Y210899D01*
X133857Y210108D01*
X133065Y209076D01*
X132568Y207875D01*
X132398Y206587D01*
Y202650D01*
X132568Y201361D01*
X133065Y200160D01*
X133857Y199128D01*
X134888Y198337D01*
X136089Y197840D01*
X137378Y197670D01*
X138667Y197840D01*
X139868Y198337D01*
X140899Y199128D01*
X141690Y200160D01*
X142188Y201361D01*
X142358Y202650D01*
Y206587D01*
X142188Y207875D01*
X141690Y209076D01*
X140899Y210108D01*
X139868Y210899D01*
X138667Y211397D01*
X137378Y211566D01*
D02*
G37*
G36*
X392299Y210966D02*
X390946Y210833D01*
X389644Y210438D01*
X388444Y209797D01*
X387393Y208934D01*
X386530Y207883D01*
X385889Y206683D01*
X385494Y205381D01*
X385360Y204028D01*
X385494Y202674D01*
X385889Y201372D01*
X386530Y200172D01*
X387393Y199121D01*
X388444Y198258D01*
X389644Y197617D01*
X390946Y197222D01*
X392299Y197089D01*
X393653Y197222D01*
X394955Y197617D01*
X396154Y198258D01*
X397206Y199121D01*
X398069Y200172D01*
X398710Y201372D01*
X399105Y202674D01*
X399238Y204028D01*
X399105Y205381D01*
X398710Y206683D01*
X398069Y207883D01*
X397206Y208934D01*
X396154Y209797D01*
X394955Y210438D01*
X393653Y210833D01*
X392299Y210966D01*
D02*
G37*
G36*
X305488Y219050D02*
X303169Y218867D01*
X300907Y218324D01*
X298758Y217434D01*
X296774Y216218D01*
X295005Y214707D01*
X293494Y212938D01*
X292279Y210955D01*
X291389Y208806D01*
X290845Y206544D01*
X290663Y204224D01*
X290845Y201905D01*
X291389Y199643D01*
X292279Y197494D01*
X293494Y195510D01*
X295005Y193741D01*
X296774Y192231D01*
X298758Y191015D01*
X300907Y190125D01*
X303169Y189582D01*
X305488Y189399D01*
X307807Y189582D01*
X310069Y190125D01*
X312219Y191015D01*
X314202Y192231D01*
X315971Y193741D01*
X317482Y195510D01*
X318698Y197494D01*
X319588Y199643D01*
X320131Y201905D01*
X320313Y204224D01*
X320131Y206544D01*
X319588Y208806D01*
X318698Y210955D01*
X317482Y212938D01*
X315971Y214707D01*
X314202Y216218D01*
X312219Y217434D01*
X310069Y218324D01*
X307807Y218867D01*
X305488Y219050D01*
D02*
G37*
G36*
X445646Y219050D02*
X443327Y218867D01*
X441064Y218324D01*
X438915Y217434D01*
X436932Y216218D01*
X435163Y214707D01*
X433652Y212938D01*
X432436Y210955D01*
X431546Y208806D01*
X431003Y206544D01*
X430820Y204224D01*
X431003Y201905D01*
X431546Y199643D01*
X432436Y197494D01*
X433652Y195510D01*
X435163Y193741D01*
X436932Y192231D01*
X438915Y191015D01*
X441064Y190125D01*
X443327Y189582D01*
X445646Y189399D01*
X447965Y189582D01*
X450227Y190125D01*
X452376Y191015D01*
X454360Y192231D01*
X456129Y193741D01*
X457640Y195510D01*
X458855Y197494D01*
X459745Y199643D01*
X460288Y201905D01*
X460471Y204224D01*
X460288Y206544D01*
X459745Y208806D01*
X458855Y210955D01*
X457640Y212938D01*
X456129Y214707D01*
X454360Y216218D01*
X452376Y217434D01*
X450227Y218324D01*
X447965Y218867D01*
X445646Y219050D01*
D02*
G37*
G36*
X169268D02*
X166948Y218867D01*
X164687Y218324D01*
X162537Y217434D01*
X160554Y216218D01*
X158785Y214707D01*
X157274Y212938D01*
X156058Y210955D01*
X155168Y208806D01*
X154625Y206544D01*
X154443Y204224D01*
X154625Y201905D01*
X155168Y199643D01*
X156058Y197494D01*
X157274Y195510D01*
X158785Y193741D01*
X160554Y192231D01*
X162537Y191015D01*
X164687Y190125D01*
X166948Y189582D01*
X169268Y189399D01*
X171587Y189582D01*
X173849Y190125D01*
X175998Y191015D01*
X177982Y192231D01*
X179751Y193741D01*
X181262Y195510D01*
X182477Y197494D01*
X183367Y199643D01*
X183910Y201905D01*
X184093Y204224D01*
X183910Y206544D01*
X183367Y208806D01*
X182477Y210955D01*
X181262Y212938D01*
X179751Y214707D01*
X177982Y216218D01*
X175998Y217434D01*
X173849Y218324D01*
X171587Y218867D01*
X169268Y219050D01*
D02*
G37*
%LPD*%
D10*
Y204224D02*
D03*
X305488Y204224D02*
D03*
X445646Y204224D02*
D03*
X169268Y401075D02*
D03*
X305488Y401075D02*
D03*
X445646Y401075D02*
D03*
D11*
X392299Y204028D02*
D03*
Y400878D02*
D03*
D12*
X117890Y136705D02*
D03*
Y146547D02*
D03*
Y156390D02*
D03*
Y166232D02*
D03*
Y126862D02*
D03*
Y175681D02*
D03*
X490528Y137295D02*
D03*
Y147138D02*
D03*
Y156980D02*
D03*
Y166823D02*
D03*
Y127453D02*
D03*
Y176272D02*
D03*
X117890Y333555D02*
D03*
Y343398D02*
D03*
Y353240D02*
D03*
Y363083D02*
D03*
Y323713D02*
D03*
Y372532D02*
D03*
X490528Y334146D02*
D03*
Y343988D02*
D03*
Y353831D02*
D03*
Y363673D02*
D03*
Y324303D02*
D03*
Y373122D02*
D03*
M02*
