G04*
G04 #@! TF.GenerationSoftware,Altium Limited,Altium Designer,21.0.8 (223)*
G04*
G04 Layer_Color=128*
%FSLAX25Y25*%
%MOIN*%
G70*
G04*
G04 #@! TF.SameCoordinates,1038851D-6751-456F-ADCF-613883C18876*
G04*
G04*
G04 #@! TF.FilePolarity,Positive*
G04*
G01*
G75*
%ADD13O,0.11811X0.19685*%
%ADD14R,0.11811X0.11811*%
%ADD15C,0.11811*%
%ADD16O,0.06299X0.19685*%
%ADD18R,0.41339X0.35433*%
%ADD19R,0.17717X0.81496*%
%ADD20R,0.41339X0.35433*%
%ADD21R,0.41339X0.35433*%
%ADD22R,0.41339X0.35433*%
D13*
X148008Y149894D02*
D03*
X168480D02*
D03*
X188165D02*
D03*
X284228Y149894D02*
D03*
X304701D02*
D03*
X324386D02*
D03*
X464543Y149894D02*
D03*
X444858D02*
D03*
X424386D02*
D03*
X148008Y346744D02*
D03*
X168480D02*
D03*
X188165D02*
D03*
X284228Y346744D02*
D03*
X304701D02*
D03*
X324386D02*
D03*
X464543Y346744D02*
D03*
X444858D02*
D03*
X424386D02*
D03*
D14*
X294508Y121280D02*
D03*
X255138Y121280D02*
D03*
X314193D02*
D03*
X353563D02*
D03*
X274823D02*
D03*
X333878Y121280D02*
D03*
X294508Y318130D02*
D03*
X255138Y318130D02*
D03*
X314193D02*
D03*
X353563D02*
D03*
X274823D02*
D03*
X333878Y318130D02*
D03*
D15*
X294508Y115374D02*
D03*
X255138Y115374D02*
D03*
X314193D02*
D03*
X353563Y115374D02*
D03*
X274823Y115374D02*
D03*
X333878Y115374D02*
D03*
X294508Y312224D02*
D03*
X255138Y312224D02*
D03*
X314193D02*
D03*
X353563Y312224D02*
D03*
X274823Y312224D02*
D03*
X333878Y312224D02*
D03*
D16*
X396870Y184075D02*
D03*
X387028D02*
D03*
X396870Y380925D02*
D03*
X387028D02*
D03*
D18*
X475610Y282697D02*
D03*
D19*
X118480Y151075D02*
D03*
X490331Y151665D02*
D03*
X118480Y347925D02*
D03*
X490331Y348516D02*
D03*
D20*
X132106Y282697D02*
D03*
D21*
X475610Y479547D02*
D03*
D22*
X132106D02*
D03*
M02*
