G04*
G04 #@! TF.GenerationSoftware,Altium Limited,Altium Designer,21.0.8 (223)*
G04*
G04 Layer_Color=65535*
%FSLAX44Y44*%
%MOMM*%
G71*
G04*
G04 #@! TF.SameCoordinates,E1CE83FB-EE8D-4ACF-9475-2CBEE53E120E*
G04*
G04*
G04 #@! TF.FilePolarity,Positive*
G04*
G01*
G75*
%ADD10C,0.2560*%
%ADD11C,1.0000*%
%ADD12C,0.2500*%
%ADD13R,1.7500X3.0000*%
%ADD14R,2.0000X3.5000*%
%ADD15R,1.7500X3.5000*%
G36*
X509418Y89690D02*
X509585Y89662D01*
X509751Y89607D01*
X509946Y89524D01*
X510112Y89412D01*
X510307Y89274D01*
X510334Y89246D01*
X510390Y89190D01*
X510473Y89107D01*
X510556Y88968D01*
X510640Y88829D01*
X510723Y88635D01*
X510779Y88441D01*
X510806Y88219D01*
Y88191D01*
Y88163D01*
X510779Y87997D01*
X510723Y87747D01*
X510612Y87469D01*
X501950Y70507D01*
X501922Y70479D01*
X501867Y70368D01*
X501756Y70229D01*
X501617Y70062D01*
X501423Y69896D01*
X501173Y69757D01*
X500895Y69646D01*
X500590Y69618D01*
X500479D01*
X500368Y69646D01*
X500229Y69674D01*
X500062Y69729D01*
X499868Y69785D01*
X499701Y69896D01*
X499507Y70034D01*
X499479Y70062D01*
X499424Y70118D01*
X499368Y70201D01*
X499285Y70340D01*
X499174Y70507D01*
X499118Y70673D01*
X499063Y70895D01*
X499035Y71117D01*
Y71145D01*
Y71173D01*
Y71256D01*
X499063Y71367D01*
X499118Y71617D01*
X499229Y71922D01*
X502006Y77336D01*
X495537Y87330D01*
Y87358D01*
X495509Y87414D01*
X495454Y87497D01*
X495426Y87608D01*
X495315Y87858D01*
X495287Y88191D01*
Y88219D01*
Y88302D01*
X495315Y88413D01*
X495343Y88552D01*
X495398Y88719D01*
X495481Y88885D01*
X495592Y89079D01*
X495759Y89246D01*
X495787Y89274D01*
X495842Y89329D01*
X495953Y89385D01*
X496092Y89496D01*
X496259Y89579D01*
X496453Y89635D01*
X496647Y89690D01*
X496870Y89718D01*
X497008D01*
X497119Y89690D01*
X497314Y89635D01*
X497508Y89551D01*
X497702Y89412D01*
X497897Y89246D01*
X498091Y88996D01*
X503616Y80501D01*
X507891Y88857D01*
X507919Y88885D01*
X507975Y88996D01*
X508086Y89135D01*
X508224Y89302D01*
X508419Y89440D01*
X508641Y89579D01*
X508891Y89690D01*
X509196Y89718D01*
X509307D01*
X509418Y89690D01*
D02*
G37*
G36*
X526353Y89412D02*
X526603Y89357D01*
X526880Y89246D01*
X527158Y89079D01*
X527408Y88802D01*
X527491Y88635D01*
X527575Y88413D01*
X527602Y88191D01*
X527630Y87913D01*
Y87886D01*
Y87858D01*
X527602Y87691D01*
X527547Y87441D01*
X527436Y87164D01*
X527269Y86886D01*
X526992Y86636D01*
X526825Y86553D01*
X526631Y86470D01*
X526409Y86442D01*
X526131Y86414D01*
X516525D01*
Y81500D01*
X522661D01*
X522855Y81473D01*
X523049Y81445D01*
X523299Y81417D01*
X523577Y81362D01*
X523854Y81278D01*
X524493Y81084D01*
X524854Y80945D01*
X525187Y80779D01*
X525548Y80584D01*
X525881Y80362D01*
X526214Y80112D01*
X526547Y79807D01*
X526575Y79779D01*
X526631Y79724D01*
X526714Y79640D01*
X526825Y79501D01*
X526936Y79335D01*
X527103Y79141D01*
X527241Y78918D01*
X527408Y78669D01*
X527575Y78391D01*
X527713Y78058D01*
X527991Y77364D01*
X528102Y77003D01*
X528185Y76586D01*
X528241Y76170D01*
X528269Y75726D01*
Y75698D01*
Y75615D01*
Y75504D01*
X528241Y75309D01*
X528213Y75115D01*
X528185Y74865D01*
X528130Y74615D01*
X528046Y74310D01*
X527852Y73671D01*
X527713Y73310D01*
X527547Y72977D01*
X527352Y72616D01*
X527103Y72283D01*
X526853Y71950D01*
X526547Y71617D01*
X526520Y71589D01*
X526464Y71534D01*
X526381Y71450D01*
X526242Y71367D01*
X526075Y71228D01*
X525881Y71090D01*
X525659Y70923D01*
X525409Y70784D01*
X525104Y70617D01*
X524798Y70451D01*
X524104Y70201D01*
X523716Y70090D01*
X523299Y70007D01*
X522883Y69951D01*
X522439Y69924D01*
X514915D01*
X514804Y69951D01*
X514665Y69979D01*
X514499Y70034D01*
X514304Y70118D01*
X514138Y70229D01*
X513943Y70368D01*
X513916Y70395D01*
X513888Y70451D01*
X513805Y70562D01*
X513721Y70673D01*
X513638Y70840D01*
X513582Y71034D01*
X513527Y71228D01*
X513499Y71450D01*
Y87913D01*
Y87941D01*
Y88024D01*
X513527Y88135D01*
X513555Y88274D01*
X513610Y88441D01*
X513694Y88607D01*
X513805Y88802D01*
X513943Y88968D01*
X513971Y88996D01*
X514027Y89052D01*
X514138Y89107D01*
X514249Y89218D01*
X514415Y89302D01*
X514610Y89357D01*
X514804Y89412D01*
X515026Y89440D01*
X526186D01*
X526353Y89412D01*
D02*
G37*
G36*
X539540Y89662D02*
X539818Y89635D01*
X540123Y89607D01*
X540484Y89524D01*
X540900Y89413D01*
X541372Y89302D01*
X541844Y89135D01*
X542344Y88913D01*
X542872Y88663D01*
X543399Y88358D01*
X543927Y87969D01*
X544454Y87552D01*
X544954Y87053D01*
X545426Y86497D01*
X545453Y86470D01*
X545537Y86359D01*
X545648Y86192D01*
X545787Y85970D01*
X545953Y85692D01*
X546147Y85359D01*
X546370Y84971D01*
X546592Y84554D01*
X546786Y84054D01*
X547008Y83555D01*
X547202Y82972D01*
X547369Y82389D01*
X547508Y81750D01*
X547619Y81084D01*
X547702Y80418D01*
X547730Y79696D01*
Y79640D01*
Y79529D01*
X547702Y79307D01*
Y79057D01*
X547647Y78724D01*
X547619Y78308D01*
X547536Y77891D01*
X547452Y77392D01*
X547313Y76892D01*
X547175Y76337D01*
X546980Y75781D01*
X546758Y75198D01*
X546508Y74588D01*
X546175Y74005D01*
X545842Y73422D01*
X545426Y72866D01*
X545398Y72839D01*
X545315Y72727D01*
X545176Y72589D01*
X544981Y72367D01*
X544732Y72144D01*
X544426Y71867D01*
X544093Y71589D01*
X543704Y71284D01*
X543288Y70978D01*
X542816Y70701D01*
X542289Y70423D01*
X541733Y70201D01*
X541150Y70007D01*
X540512Y69840D01*
X539873Y69729D01*
X539179Y69701D01*
X539013D01*
X538818Y69729D01*
X538568Y69757D01*
X538235Y69812D01*
X537874Y69868D01*
X537458Y69979D01*
X536986Y70090D01*
X536514Y70257D01*
X536014Y70479D01*
X535487Y70729D01*
X534959Y71034D01*
X534432Y71395D01*
X533932Y71811D01*
X533405Y72311D01*
X532933Y72866D01*
X532905Y72894D01*
X532822Y73005D01*
X532711Y73172D01*
X532572Y73394D01*
X532405Y73671D01*
X532211Y74005D01*
X531989Y74393D01*
X531794Y74837D01*
X531572Y75309D01*
X531350Y75837D01*
X531156Y76392D01*
X530989Y77003D01*
X530850Y77641D01*
X530740Y78308D01*
X530656Y78974D01*
X530628Y79696D01*
Y79751D01*
Y79862D01*
X530656Y80084D01*
Y80334D01*
X530712Y80695D01*
X530740Y81084D01*
X530823Y81500D01*
X530906Y82000D01*
X531045Y82500D01*
X531184Y83055D01*
X531378Y83610D01*
X531600Y84193D01*
X531878Y84776D01*
X532183Y85359D01*
X532516Y85942D01*
X532933Y86497D01*
X532961Y86525D01*
X533044Y86636D01*
X533183Y86803D01*
X533377Y86997D01*
X533627Y87247D01*
X533932Y87497D01*
X534265Y87802D01*
X534654Y88108D01*
X535070Y88385D01*
X535570Y88691D01*
X536070Y88941D01*
X536625Y89191D01*
X537208Y89385D01*
X537847Y89551D01*
X538485Y89662D01*
X539179Y89690D01*
X539346D01*
X539540Y89662D01*
D02*
G37*
G36*
X487375Y89412D02*
X487597Y89385D01*
X487875Y89357D01*
X488180Y89302D01*
X488485Y89218D01*
X489207Y89024D01*
X489568Y88885D01*
X489929Y88691D01*
X490318Y88496D01*
X490679Y88274D01*
X491040Y87997D01*
X491373Y87691D01*
X491400Y87663D01*
X491456Y87608D01*
X491539Y87525D01*
X491650Y87386D01*
X491789Y87192D01*
X491928Y86997D01*
X492094Y86747D01*
X492261Y86497D01*
X492400Y86192D01*
X492566Y85859D01*
X492705Y85470D01*
X492844Y85082D01*
X492955Y84665D01*
X493038Y84221D01*
X493094Y83777D01*
X493122Y83277D01*
Y83249D01*
Y83166D01*
Y83027D01*
X493094Y82833D01*
X493066Y82611D01*
X493038Y82333D01*
X492983Y82056D01*
X492900Y81722D01*
X492705Y81028D01*
X492566Y80667D01*
X492372Y80279D01*
X492178Y79918D01*
X491956Y79557D01*
X491678Y79196D01*
X491373Y78863D01*
X491345Y78835D01*
X491289Y78780D01*
X491206Y78696D01*
X491067Y78585D01*
X490873Y78446D01*
X490679Y78308D01*
X490429Y78141D01*
X490151Y78002D01*
X489846Y77836D01*
X489513Y77669D01*
X489152Y77530D01*
X488763Y77392D01*
X488347Y77281D01*
X487902Y77197D01*
X487430Y77142D01*
X486931Y77114D01*
X481378D01*
Y71200D01*
Y71173D01*
Y71145D01*
X481351Y70978D01*
X481295Y70729D01*
X481184Y70451D01*
X481017Y70173D01*
X480740Y69924D01*
X480573Y69840D01*
X480379Y69757D01*
X480157Y69729D01*
X479879Y69701D01*
X479824D01*
X479629Y69729D01*
X479407Y69785D01*
X479129Y69896D01*
X478824Y70062D01*
X478602Y70340D01*
X478491Y70507D01*
X478408Y70701D01*
X478380Y70951D01*
X478352Y71200D01*
Y87913D01*
Y87941D01*
Y88024D01*
X478380Y88135D01*
X478408Y88274D01*
X478463Y88441D01*
X478546Y88607D01*
X478658Y88802D01*
X478796Y88968D01*
X478824Y88996D01*
X478880Y89052D01*
X478991Y89107D01*
X479102Y89218D01*
X479268Y89302D01*
X479463Y89357D01*
X479657Y89412D01*
X479879Y89440D01*
X487181D01*
X487375Y89412D01*
D02*
G37*
G36*
X474216D02*
X474382Y89385D01*
X474549Y89329D01*
X474743Y89274D01*
X474910Y89163D01*
X475076Y89024D01*
X475104Y88996D01*
X475160Y88941D01*
X475215Y88857D01*
X475298Y88719D01*
X475382Y88580D01*
X475465Y88385D01*
X475493Y88163D01*
X475521Y87913D01*
Y87886D01*
Y87802D01*
X475493Y87691D01*
X475465Y87525D01*
X475409Y87358D01*
X475326Y87164D01*
X475215Y86997D01*
X475076Y86831D01*
X475048Y86803D01*
X474993Y86775D01*
X474910Y86692D01*
X474799Y86636D01*
X474632Y86553D01*
X474438Y86470D01*
X474243Y86442D01*
X473993Y86414D01*
X465748D01*
Y71200D01*
Y71173D01*
Y71145D01*
X465720Y70978D01*
X465665Y70729D01*
X465554Y70451D01*
X465387Y70173D01*
X465110Y69924D01*
X464943Y69840D01*
X464749Y69757D01*
X464527Y69729D01*
X464249Y69701D01*
X464193D01*
X463999Y69729D01*
X463777Y69785D01*
X463499Y69896D01*
X463194Y70062D01*
X462972Y70340D01*
X462861Y70507D01*
X462778Y70701D01*
X462750Y70951D01*
X462722Y71200D01*
Y87913D01*
Y87941D01*
Y88024D01*
X462750Y88135D01*
X462778Y88274D01*
X462833Y88441D01*
X462916Y88607D01*
X463027Y88802D01*
X463166Y88968D01*
X463194Y88996D01*
X463250Y89052D01*
X463361Y89107D01*
X463472Y89218D01*
X463638Y89302D01*
X463833Y89357D01*
X464027Y89412D01*
X464249Y89440D01*
X474105D01*
X474216Y89412D01*
D02*
G37*
G36*
X307200Y107500D02*
X134125D01*
Y147569D01*
X307200D01*
Y107500D01*
D02*
G37*
G36*
X214163Y342023D02*
X214768Y341956D01*
X215369Y341828D01*
X216003Y341647D01*
X216610Y341419D01*
X217222Y341091D01*
X217366Y341006D01*
X217519Y340884D01*
X217744Y340719D01*
X217993Y340540D01*
X218262Y340285D01*
X218564Y339978D01*
X218915Y339643D01*
X219237Y339260D01*
X219555Y338815D01*
X219883Y338332D01*
X220182Y337801D01*
X220439Y337199D01*
X220683Y336572D01*
X220860Y335888D01*
X220985Y335170D01*
X220994Y335132D01*
X221010Y334994D01*
X221021Y334794D01*
X221028Y334532D01*
X221031Y334209D01*
X221029Y333823D01*
X221023Y333375D01*
X221003Y332904D01*
X220917Y332375D01*
X220855Y331831D01*
X220727Y331230D01*
X220574Y330643D01*
X220370Y330023D01*
X220127Y329392D01*
X219861Y328776D01*
X219519Y328140D01*
X219491Y328092D01*
X219434Y327996D01*
X219298Y327819D01*
X219171Y327604D01*
X218954Y327345D01*
X218719Y327000D01*
X218435Y326684D01*
X218110Y326295D01*
X217737Y325935D01*
X217336Y325527D01*
X216886Y325147D01*
X216399Y324757D01*
X215874Y324358D01*
X215291Y324025D01*
X214708Y323691D01*
X214068Y323424D01*
X214030Y323414D01*
X213902Y323361D01*
X213711Y323312D01*
X213431Y323219D01*
X213103Y323154D01*
X212699Y323070D01*
X212271Y323000D01*
X211781Y322934D01*
X211268Y322882D01*
X210720Y322882D01*
X210125Y322911D01*
X209534Y323001D01*
X208932Y323130D01*
X208298Y323310D01*
X207691Y323539D01*
X207079Y323867D01*
X206936Y323951D01*
X206782Y324074D01*
X206581Y324225D01*
X206322Y324441D01*
X206039Y324672D01*
X205737Y324979D01*
X205386Y325315D01*
X205064Y325698D01*
X204746Y326143D01*
X204419Y326626D01*
X204119Y327156D01*
X203848Y327735D01*
X203628Y328347D01*
X203428Y329046D01*
X203302Y329764D01*
X203293Y329802D01*
X203277Y329940D01*
X203266Y330139D01*
X203259Y330401D01*
X203256Y330725D01*
X203258Y331111D01*
X203264Y331558D01*
X203322Y332040D01*
X203370Y332559D01*
X203446Y333126D01*
X203561Y333703D01*
X203727Y334314D01*
X203931Y334935D01*
X204174Y335565D01*
X204440Y336182D01*
X204783Y336818D01*
X204811Y336866D01*
X204867Y336961D01*
X205004Y337139D01*
X205131Y337354D01*
X205361Y337637D01*
X205583Y337957D01*
X205866Y338274D01*
X206191Y338662D01*
X206564Y339023D01*
X206966Y339431D01*
X207415Y339810D01*
X207902Y340200D01*
X208437Y340562D01*
X208996Y340909D01*
X209579Y341242D01*
X210219Y341510D01*
X210257Y341519D01*
X210386Y341573D01*
X210590Y341646D01*
X210856Y341715D01*
X211198Y341803D01*
X211588Y341864D01*
X212030Y341958D01*
X212520Y342024D01*
X213020Y342052D01*
X213605Y342061D01*
X214163Y342023D01*
D02*
G37*
G36*
X129360Y355417D02*
X129674Y355337D01*
X129993Y355143D01*
X130121Y355008D01*
X130264Y354819D01*
X130355Y354614D01*
X130461Y354356D01*
X130469Y354329D01*
X130477Y354303D01*
X130498Y354135D01*
X130517Y353880D01*
X130490Y353582D01*
X130411Y353269D01*
X130217Y352949D01*
X130081Y352822D01*
X129919Y352686D01*
X129714Y352596D01*
X129456Y352489D01*
X124856Y351109D01*
X129227Y336537D01*
X129235Y336511D01*
X129243Y336484D01*
X129264Y336316D01*
X129283Y336061D01*
X129257Y335763D01*
X129177Y335450D01*
X128983Y335131D01*
X128847Y335003D01*
X128685Y334867D01*
X128480Y334777D01*
X128222Y334670D01*
X128169Y334655D01*
X127975Y334625D01*
X127720Y334607D01*
X127422Y334633D01*
X127108Y334713D01*
X126789Y334907D01*
X126635Y335035D01*
X126499Y335197D01*
X126401Y335428D01*
X126302Y335660D01*
X121931Y350232D01*
X117330Y348852D01*
X117136Y348822D01*
X116908Y348812D01*
X116610Y348838D01*
X116269Y348910D01*
X115977Y349112D01*
X115823Y349240D01*
X115687Y349402D01*
X115589Y349633D01*
X115490Y349865D01*
X115482Y349891D01*
X115474Y349918D01*
X115445Y350112D01*
X115434Y350341D01*
X115453Y350665D01*
X115533Y350979D01*
X115735Y351272D01*
X115889Y351434D01*
X116051Y351569D01*
X116256Y351660D01*
X116514Y351766D01*
X128640Y355404D01*
X128807Y355425D01*
X129062Y355444D01*
X129360Y355417D01*
D02*
G37*
G36*
X145581Y357522D02*
X146008Y357468D01*
X146491Y357422D01*
X146981Y357321D01*
X147506Y357168D01*
X148062Y356991D01*
X148626Y356760D01*
X149201Y356446D01*
X149780Y356104D01*
X150343Y355676D01*
X150885Y355190D01*
X150916Y355166D01*
X151014Y355067D01*
X151146Y354917D01*
X151314Y354715D01*
X151516Y354463D01*
X151754Y354159D01*
X152026Y353804D01*
X152302Y353421D01*
X152562Y352952D01*
X152849Y352487D01*
X153120Y351935D01*
X153364Y351380D01*
X153588Y350766D01*
X153787Y350121D01*
X153960Y349472D01*
X154084Y348760D01*
X154092Y348705D01*
X154107Y348595D01*
X154109Y348371D01*
X154143Y348124D01*
X154133Y347786D01*
X154161Y347370D01*
X154135Y346946D01*
X154120Y346439D01*
X154049Y345926D01*
X153987Y345357D01*
X153869Y344780D01*
X153727Y344173D01*
X153562Y343534D01*
X153310Y342911D01*
X153059Y342289D01*
X152721Y341683D01*
X152697Y341651D01*
X152629Y341530D01*
X152511Y341374D01*
X152348Y341128D01*
X152130Y340874D01*
X151865Y340558D01*
X151572Y340238D01*
X151229Y339883D01*
X150857Y339524D01*
X150427Y339185D01*
X149941Y338839D01*
X149421Y338544D01*
X148870Y338273D01*
X148259Y338022D01*
X147642Y337826D01*
X146958Y337705D01*
X146792Y337683D01*
X146596Y337684D01*
X146345Y337678D01*
X146007Y337688D01*
X145642Y337694D01*
X145215Y337748D01*
X144732Y337795D01*
X144242Y337896D01*
X143717Y338049D01*
X143160Y338226D01*
X142597Y338457D01*
X142025Y338744D01*
X141474Y339089D01*
X140884Y339513D01*
X140342Y340000D01*
X140310Y340024D01*
X140213Y340122D01*
X140080Y340272D01*
X139913Y340474D01*
X139711Y340727D01*
X139473Y341031D01*
X139201Y341386D01*
X138948Y341800D01*
X138665Y342238D01*
X138374Y342730D01*
X138106Y343254D01*
X137859Y343837D01*
X137635Y344451D01*
X137436Y345096D01*
X137263Y345745D01*
X137139Y346457D01*
X137131Y346512D01*
X137116Y346622D01*
X137114Y346846D01*
X137080Y347093D01*
X137086Y347458D01*
X137062Y347847D01*
X137088Y348271D01*
X137103Y348778D01*
X137174Y349291D01*
X137236Y349860D01*
X137354Y350437D01*
X137496Y351044D01*
X137692Y351659D01*
X137916Y352278D01*
X138168Y352901D01*
X138506Y353507D01*
X138530Y353538D01*
X138597Y353659D01*
X138712Y353843D01*
X138879Y354062D01*
X139093Y354343D01*
X139361Y354632D01*
X139650Y354979D01*
X139994Y355334D01*
X140370Y355666D01*
X140824Y356035D01*
X141285Y356350D01*
X141802Y356673D01*
X142353Y356944D01*
X142964Y357195D01*
X143581Y357391D01*
X144265Y357512D01*
X144430Y357534D01*
X144627Y357533D01*
X144906Y357543D01*
X145212Y357556D01*
X145581Y357522D01*
D02*
G37*
G36*
X728483Y292766D02*
X728622Y292738D01*
X728788Y292683D01*
X728982Y292599D01*
X729149Y292488D01*
X729343Y292322D01*
X729371Y292294D01*
X729427Y292239D01*
X729482Y292155D01*
X729593Y292016D01*
X729677Y291878D01*
X729732Y291683D01*
X729788Y291489D01*
X729815Y291267D01*
Y274304D01*
Y274276D01*
Y274249D01*
X729788Y274082D01*
X729732Y273832D01*
X729621Y273554D01*
X729427Y273277D01*
X729149Y273027D01*
X728982Y272944D01*
X728788Y272861D01*
X728538Y272833D01*
X728261Y272805D01*
X728205D01*
X728039Y272833D01*
X727789Y272888D01*
X727511Y272999D01*
X727234Y273166D01*
X726984Y273444D01*
X726900Y273610D01*
X726817Y273804D01*
X726789Y274054D01*
X726762Y274304D01*
Y286908D01*
X718350Y273499D01*
X718322Y273471D01*
X718239Y273388D01*
X718155Y273305D01*
X718044Y273249D01*
X717905Y273166D01*
X717739Y273055D01*
X717711D01*
X717656Y273027D01*
X717489Y272944D01*
X717239Y272833D01*
X717045Y272805D01*
X716323D01*
X716212Y272833D01*
X716073Y272861D01*
X715934Y272916D01*
X715740Y272999D01*
X715573Y273110D01*
X715379Y273249D01*
X715351Y273277D01*
X715296Y273332D01*
X715240Y273416D01*
X715157Y273554D01*
X715046Y273693D01*
X714990Y273888D01*
X714935Y274082D01*
X714907Y274304D01*
Y291267D01*
Y291295D01*
Y291378D01*
X714935Y291517D01*
X714963Y291683D01*
X715018Y291850D01*
X715101Y292044D01*
X715212Y292239D01*
X715379Y292405D01*
X715407Y292433D01*
X715462Y292461D01*
X715546Y292516D01*
X715684Y292599D01*
X715823Y292683D01*
X716018Y292738D01*
X716212Y292766D01*
X716434Y292794D01*
X716489D01*
X716684Y292766D01*
X716906Y292710D01*
X717211Y292599D01*
X717489Y292433D01*
X717711Y292155D01*
X717822Y291989D01*
X717905Y291766D01*
X717933Y291544D01*
X717961Y291267D01*
Y278635D01*
X726373Y292072D01*
X726401Y292100D01*
X726512Y292211D01*
X726678Y292349D01*
X726817Y292433D01*
X726984Y292516D01*
X727011D01*
X727067Y292572D01*
X727261Y292655D01*
X727483Y292738D01*
X727678Y292794D01*
X728372D01*
X728483Y292766D01*
D02*
G37*
G36*
X752358Y276053D02*
X752608Y275998D01*
X752886Y275886D01*
X753163Y275720D01*
X753413Y275442D01*
X753497Y275276D01*
X753580Y275054D01*
X753608Y274832D01*
X753635Y274554D01*
Y274304D01*
Y274276D01*
Y274249D01*
X753608Y274082D01*
X753552Y273832D01*
X753441Y273554D01*
X753275Y273277D01*
X752997Y273027D01*
X752830Y272944D01*
X752636Y272861D01*
X752414Y272833D01*
X752136Y272805D01*
X752081D01*
X751886Y272833D01*
X751664Y272888D01*
X751387Y272999D01*
X751081Y273166D01*
X750859Y273444D01*
X750748Y273610D01*
X750665Y273804D01*
X750637Y274054D01*
X750609Y274304D01*
Y274554D01*
Y274582D01*
Y274610D01*
X750637Y274804D01*
X750693Y275026D01*
X750804Y275331D01*
X750970Y275609D01*
X751248Y275831D01*
X751442Y275942D01*
X751637Y276025D01*
X751859Y276053D01*
X752136Y276081D01*
X752192D01*
X752358Y276053D01*
D02*
G37*
G36*
X746945Y292516D02*
X747195Y292461D01*
X747472Y292349D01*
X747750Y292183D01*
X748000Y291905D01*
X748083Y291739D01*
X748166Y291517D01*
X748194Y291295D01*
X748222Y291017D01*
Y290989D01*
Y290961D01*
X748194Y290795D01*
X748139Y290545D01*
X748027Y290267D01*
X747861Y289990D01*
X747583Y289740D01*
X747417Y289657D01*
X747222Y289573D01*
X747000Y289545D01*
X746723Y289518D01*
X741920D01*
Y274304D01*
Y274276D01*
Y274249D01*
X741892Y274082D01*
X741836Y273832D01*
X741725Y273554D01*
X741559Y273277D01*
X741281Y273027D01*
X741115Y272944D01*
X740920Y272861D01*
X740698Y272833D01*
X740421Y272805D01*
X740365D01*
X740171Y272833D01*
X739921Y272888D01*
X739643Y272999D01*
X739366Y273166D01*
X739116Y273444D01*
X739005Y273610D01*
X738921Y273804D01*
X738894Y274054D01*
X738866Y274304D01*
Y289518D01*
X734063D01*
X733869Y289545D01*
X733647Y289601D01*
X733369Y289712D01*
X733064Y289879D01*
X732841Y290156D01*
X732730Y290323D01*
X732647Y290517D01*
X732619Y290767D01*
X732592Y291017D01*
Y291045D01*
Y291073D01*
X732619Y291267D01*
X732675Y291489D01*
X732786Y291794D01*
X732952Y292072D01*
X733230Y292294D01*
X733425Y292405D01*
X733619Y292488D01*
X733841Y292516D01*
X734118Y292544D01*
X746778D01*
X746945Y292516D01*
D02*
G37*
G36*
X709466D02*
X709604Y292488D01*
X709771Y292433D01*
X709938Y292349D01*
X710132Y292239D01*
X710299Y292072D01*
X710326Y292044D01*
X710382Y291989D01*
X710437Y291905D01*
X710548Y291766D01*
X710632Y291628D01*
X710687Y291433D01*
X710743Y291239D01*
X710770Y291017D01*
Y274304D01*
Y274276D01*
Y274193D01*
X710743Y274082D01*
X710715Y273915D01*
X710659Y273749D01*
X710576Y273554D01*
X710465Y273388D01*
X710326Y273221D01*
X710299Y273194D01*
X710243Y273166D01*
X710160Y273083D01*
X710049Y273027D01*
X709882Y272944D01*
X709688Y272861D01*
X709493Y272833D01*
X709244Y272805D01*
X709188D01*
X708994Y272833D01*
X708772Y272888D01*
X708494Y272999D01*
X708189Y273166D01*
X707967Y273444D01*
X707856Y273610D01*
X707772Y273804D01*
X707745Y274054D01*
X707717Y274304D01*
Y289518D01*
X698944D01*
Y274304D01*
Y274276D01*
Y274249D01*
X698916Y274082D01*
X698861Y273832D01*
X698749Y273554D01*
X698583Y273277D01*
X698305Y273027D01*
X698139Y272944D01*
X697917Y272861D01*
X697694Y272833D01*
X697417Y272805D01*
X697306D01*
X697195Y272833D01*
X697028Y272861D01*
X696862Y272916D01*
X696667Y272971D01*
X696473Y273083D01*
X696306Y273221D01*
X696279Y273249D01*
X696251Y273305D01*
X696168Y273388D01*
X696112Y273527D01*
X696029Y273666D01*
X695946Y273860D01*
X695918Y274054D01*
X695890Y274304D01*
Y291017D01*
Y291045D01*
Y291128D01*
X695918Y291239D01*
X695946Y291378D01*
X696001Y291544D01*
X696084Y291711D01*
X696195Y291905D01*
X696334Y292072D01*
X696362Y292100D01*
X696417Y292155D01*
X696528Y292211D01*
X696640Y292322D01*
X696806Y292405D01*
X697001Y292461D01*
X697195Y292516D01*
X697417Y292544D01*
X709355D01*
X709466Y292516D01*
D02*
G37*
G36*
X840000Y445000D02*
X155000D01*
Y485000D01*
X840000D01*
Y445000D01*
D02*
G37*
G36*
X187737Y354109D02*
X187983Y354058D01*
X188036Y354040D01*
X188212Y353954D01*
X188406Y353832D01*
X188662Y353631D01*
X188865Y353360D01*
X188936Y353220D01*
X188990Y353027D01*
X189035Y352808D01*
X189054Y352598D01*
X189003Y352352D01*
X188943Y352079D01*
X186874Y345746D01*
X195239Y343012D01*
X197308Y349346D01*
X197317Y349372D01*
X197326Y349399D01*
X197351Y349478D01*
X197412Y349575D01*
X197543Y349795D01*
X197743Y350051D01*
X197988Y350263D01*
X198329Y350414D01*
X198522Y350468D01*
X198733Y350487D01*
X198979Y350436D01*
X199225Y350384D01*
X199331Y350350D01*
X199454Y350280D01*
X199577Y350211D01*
X199745Y350098D01*
X199877Y349967D01*
X200027Y349801D01*
X200143Y349617D01*
X200160Y349582D01*
X200196Y349512D01*
X200223Y349416D01*
X200259Y349258D01*
X200286Y349074D01*
X200305Y348863D01*
X200263Y348643D01*
X200211Y348397D01*
X194943Y332273D01*
X194934Y332247D01*
X194909Y332168D01*
X194848Y332071D01*
X194770Y331921D01*
X194665Y331780D01*
X194526Y331621D01*
X194368Y331497D01*
X194185Y331382D01*
X194149Y331365D01*
X194088Y331355D01*
X193983Y331302D01*
X193834Y331292D01*
X193676Y331256D01*
X193465Y331237D01*
X193246Y331280D01*
X193000Y331331D01*
X192947Y331349D01*
X192797Y331427D01*
X192577Y331557D01*
X192348Y331749D01*
X192135Y331993D01*
X191984Y332335D01*
X191957Y332519D01*
X191938Y332730D01*
X191989Y332976D01*
X192040Y333222D01*
X194299Y340136D01*
X185934Y342869D01*
X183675Y335955D01*
X183666Y335929D01*
X183658Y335902D01*
X183580Y335753D01*
X183449Y335532D01*
X183257Y335303D01*
X183013Y335091D01*
X182671Y334940D01*
X182487Y334912D01*
X182250Y334902D01*
X182030Y334945D01*
X181758Y335004D01*
X181652Y335039D01*
X181555Y335100D01*
X181406Y335178D01*
X181264Y335282D01*
X181097Y335396D01*
X180947Y335561D01*
X180832Y335745D01*
X180814Y335780D01*
X180805Y335842D01*
X180751Y335947D01*
X180742Y336096D01*
X180706Y336254D01*
X180687Y336464D01*
X180721Y336657D01*
X180772Y336904D01*
X186040Y353027D01*
X186049Y353054D01*
X186075Y353133D01*
X186144Y353256D01*
X186222Y353406D01*
X186327Y353547D01*
X186440Y353715D01*
X186606Y353865D01*
X186789Y353980D01*
X186825Y353998D01*
X186895Y354034D01*
X186991Y354060D01*
X187149Y354096D01*
X187333Y354124D01*
X187544Y354143D01*
X187737Y354109D01*
D02*
G37*
G36*
X163645Y357920D02*
X163869Y357910D01*
X163979Y357891D01*
X164111Y357841D01*
X164243Y357790D01*
X164425Y357703D01*
X164576Y357593D01*
X164748Y357451D01*
X164889Y357286D01*
X164912Y357254D01*
X164958Y357190D01*
X164998Y357098D01*
X165062Y356975D01*
X165116Y356797D01*
X165166Y356591D01*
X165160Y356395D01*
X165146Y356144D01*
X164471Y352175D01*
X164467Y352148D01*
X164457Y352093D01*
X164443Y352011D01*
X164447Y351870D01*
X164424Y351733D01*
X164419Y351537D01*
X164459Y351107D01*
X164512Y350592D01*
X164647Y350062D01*
X164860Y349491D01*
X165009Y349212D01*
X165186Y348928D01*
X165214Y348923D01*
X165232Y348864D01*
X165305Y348795D01*
X165373Y348699D01*
X165614Y348461D01*
X165933Y348182D01*
X166356Y347856D01*
X166843Y347576D01*
X167395Y347342D01*
X167719Y347259D01*
X168042Y347175D01*
X168207Y347147D01*
X168321Y347156D01*
X168654Y347128D01*
X169051Y347145D01*
X169544Y347230D01*
X170042Y347342D01*
X170613Y347555D01*
X170860Y347682D01*
X171144Y347859D01*
X172344Y354920D01*
X172349Y354948D01*
X172353Y354975D01*
X172367Y355057D01*
X172413Y355162D01*
X172510Y355399D01*
X172671Y355681D01*
X172881Y355927D01*
X173197Y356127D01*
X173407Y356204D01*
X173613Y356254D01*
X173836Y356244D01*
X174115Y356225D01*
X174169Y356215D01*
X174356Y356155D01*
X174566Y356063D01*
X174848Y355903D01*
X175089Y355665D01*
X175180Y355536D01*
X175262Y355354D01*
X175339Y355143D01*
X175388Y354938D01*
X175374Y354687D01*
X175355Y354409D01*
X172512Y337686D01*
X172507Y337658D01*
X172502Y337631D01*
X172447Y337472D01*
X172351Y337234D01*
X172195Y336979D01*
X171984Y336734D01*
X171668Y336534D01*
X171490Y336480D01*
X171257Y336435D01*
X171034Y336445D01*
X170755Y336464D01*
X170700Y336473D01*
X170514Y336533D01*
X170304Y336625D01*
X170049Y336781D01*
X169776Y336996D01*
X169603Y337307D01*
X169522Y337490D01*
X169472Y337696D01*
X169487Y337947D01*
X169501Y338198D01*
X170534Y344274D01*
X170507Y344278D01*
X170475Y344256D01*
X170388Y344242D01*
X170274Y344233D01*
X169981Y344170D01*
X169607Y344122D01*
X169151Y344086D01*
X168667Y344056D01*
X168110Y344094D01*
X167558Y344160D01*
X167421Y344183D01*
X167262Y344239D01*
X167043Y344276D01*
X166801Y344345D01*
X166482Y344456D01*
X166163Y344566D01*
X165798Y344741D01*
X165434Y344915D01*
X165019Y345127D01*
X164636Y345361D01*
X164236Y345654D01*
X163835Y345947D01*
X163448Y346323D01*
X163061Y346699D01*
X162716Y347151D01*
X162693Y347184D01*
X162652Y347275D01*
X162562Y347403D01*
X162453Y347590D01*
X162321Y347810D01*
X162171Y348089D01*
X162031Y348423D01*
X161895Y348784D01*
X161764Y349172D01*
X161638Y349588D01*
X161521Y350058D01*
X161431Y350524D01*
X161378Y351040D01*
X161357Y351579D01*
X161390Y352108D01*
X161461Y352687D01*
X162135Y356656D01*
X162140Y356683D01*
X162154Y356765D01*
X162200Y356870D01*
X162255Y357030D01*
X162338Y357185D01*
X162425Y357367D01*
X162563Y357513D01*
X162727Y357654D01*
X162759Y357676D01*
X162823Y357722D01*
X162915Y357762D01*
X163065Y357821D01*
X163244Y357876D01*
X163422Y357930D01*
X163645Y357920D01*
D02*
G37*
G36*
X727591Y162141D02*
X727758Y162113D01*
X727924Y162058D01*
X728119Y162002D01*
X728285Y161891D01*
X728452Y161752D01*
X728480Y161724D01*
X728535Y161669D01*
X728591Y161586D01*
X728674Y161447D01*
X728757Y161308D01*
X728841Y161114D01*
X728868Y160892D01*
X728896Y160642D01*
Y143679D01*
Y143651D01*
Y143568D01*
X728868Y143457D01*
X728841Y143290D01*
X728785Y143124D01*
X728702Y142929D01*
X728591Y142735D01*
X728452Y142569D01*
X728424Y142541D01*
X728369Y142513D01*
X728285Y142430D01*
X728174Y142374D01*
X728008Y142291D01*
X727813Y142208D01*
X727619Y142180D01*
X727369Y142152D01*
X727314D01*
X727119Y142180D01*
X726897Y142235D01*
X726620Y142346D01*
X726314Y142513D01*
X726092Y142791D01*
X725981Y142985D01*
X725898Y143179D01*
X725870Y143401D01*
X725842Y143679D01*
Y160642D01*
Y160669D01*
Y160697D01*
X725870Y160892D01*
X725926Y161114D01*
X726037Y161419D01*
X726203Y161697D01*
X726481Y161919D01*
X726675Y162030D01*
X726870Y162113D01*
X727092Y162141D01*
X727369Y162169D01*
X727480D01*
X727591Y162141D01*
D02*
G37*
G36*
X709879Y161891D02*
X710046Y161863D01*
X710212Y161808D01*
X710406Y161724D01*
X710573Y161613D01*
X710740Y161475D01*
X710767Y161447D01*
X710823Y161391D01*
X710879Y161308D01*
X710962Y161197D01*
X711045Y161030D01*
X711128Y160836D01*
X711156Y160642D01*
X711184Y160392D01*
Y153729D01*
X717319D01*
X717486Y153701D01*
X717708Y153673D01*
X717930Y153646D01*
X718208Y153590D01*
X718513Y153507D01*
X719152Y153313D01*
X719485Y153174D01*
X719818Y153007D01*
X720179Y152813D01*
X720512Y152591D01*
X720845Y152341D01*
X721178Y152036D01*
X721206Y152008D01*
X721262Y151952D01*
X721345Y151869D01*
X721456Y151730D01*
X721567Y151564D01*
X721706Y151369D01*
X721872Y151147D01*
X722039Y150897D01*
X722178Y150620D01*
X722344Y150286D01*
X722622Y149592D01*
X722705Y149232D01*
X722788Y148815D01*
X722844Y148399D01*
X722872Y147954D01*
Y147927D01*
Y147843D01*
Y147732D01*
X722844Y147538D01*
X722816Y147344D01*
X722788Y147094D01*
X722733Y146844D01*
X722650Y146538D01*
X722455Y145900D01*
X722317Y145539D01*
X722150Y145206D01*
X721956Y144845D01*
X721733Y144512D01*
X721484Y144179D01*
X721178Y143846D01*
X721151Y143818D01*
X721095Y143762D01*
X721012Y143679D01*
X720873Y143596D01*
X720706Y143457D01*
X720512Y143318D01*
X720290Y143152D01*
X720040Y143013D01*
X719762Y142846D01*
X719429Y142680D01*
X718735Y142430D01*
X718374Y142319D01*
X717958Y142235D01*
X717541Y142180D01*
X717097Y142152D01*
X709546D01*
X709435Y142180D01*
X709296Y142208D01*
X709129Y142263D01*
X708935Y142346D01*
X708769Y142458D01*
X708574Y142596D01*
X708547Y142624D01*
X708519Y142680D01*
X708435Y142791D01*
X708352Y142902D01*
X708269Y143068D01*
X708213Y143263D01*
X708158Y143457D01*
X708130Y143679D01*
Y160392D01*
Y160420D01*
Y160503D01*
X708158Y160614D01*
X708186Y160781D01*
X708241Y160947D01*
X708297Y161141D01*
X708408Y161308D01*
X708547Y161475D01*
X708574Y161502D01*
X708630Y161558D01*
X708713Y161613D01*
X708852Y161697D01*
X709018Y161780D01*
X709213Y161863D01*
X709407Y161891D01*
X709657Y161919D01*
X709768D01*
X709879Y161891D01*
D02*
G37*
G36*
X699801Y161641D02*
X699996Y161613D01*
X700218Y161586D01*
X700745Y161475D01*
X701356Y161280D01*
X701689Y161141D01*
X702022Y161003D01*
X702355Y160808D01*
X702661Y160586D01*
X702994Y160336D01*
X703299Y160059D01*
X703327Y160031D01*
X703383Y159975D01*
X703438Y159892D01*
X703549Y159781D01*
X703660Y159614D01*
X703799Y159420D01*
X703966Y159226D01*
X704105Y158976D01*
X704410Y158393D01*
X704660Y157754D01*
X704771Y157366D01*
X704854Y157005D01*
X704882Y156588D01*
X704910Y156172D01*
Y156144D01*
Y156061D01*
Y155950D01*
X704882Y155783D01*
X704854Y155589D01*
X704826Y155367D01*
X704715Y154839D01*
X704521Y154256D01*
X704382Y153923D01*
X704216Y153590D01*
X704021Y153257D01*
X703827Y152952D01*
X703549Y152619D01*
X703272Y152313D01*
X703299Y152285D01*
X703355Y152230D01*
X703438Y152147D01*
X703577Y152008D01*
X703716Y151841D01*
X703882Y151647D01*
X704049Y151397D01*
X704216Y151147D01*
X704382Y150842D01*
X704576Y150508D01*
X704715Y150148D01*
X704854Y149759D01*
X704993Y149342D01*
X705076Y148898D01*
X705132Y148454D01*
X705160Y147954D01*
Y147927D01*
Y147843D01*
Y147705D01*
X705132Y147538D01*
X705104Y147316D01*
X705076Y147066D01*
X705021Y146788D01*
X704965Y146511D01*
X704743Y145844D01*
X704632Y145484D01*
X704465Y145150D01*
X704271Y144789D01*
X704049Y144456D01*
X703799Y144123D01*
X703494Y143790D01*
X703466Y143762D01*
X703410Y143707D01*
X703327Y143651D01*
X703188Y143540D01*
X703022Y143401D01*
X702827Y143263D01*
X702605Y143124D01*
X702355Y142985D01*
X702050Y142818D01*
X701745Y142680D01*
X701023Y142402D01*
X700634Y142291D01*
X700218Y142235D01*
X699801Y142180D01*
X699329Y142152D01*
X691806D01*
X691695Y142180D01*
X691556Y142208D01*
X691389Y142263D01*
X691195Y142346D01*
X691029Y142458D01*
X690834Y142596D01*
X690806Y142624D01*
X690779Y142680D01*
X690695Y142791D01*
X690612Y142902D01*
X690529Y143068D01*
X690473Y143263D01*
X690418Y143457D01*
X690390Y143679D01*
Y160142D01*
Y160170D01*
Y160253D01*
X690418Y160364D01*
X690445Y160503D01*
X690501Y160669D01*
X690584Y160836D01*
X690695Y161030D01*
X690834Y161197D01*
X690862Y161225D01*
X690918Y161280D01*
X691029Y161336D01*
X691140Y161447D01*
X691306Y161530D01*
X691500Y161586D01*
X691695Y161641D01*
X691917Y161669D01*
X699635D01*
X699801Y161641D01*
D02*
G37*
G36*
X758269Y161919D02*
X758491Y161808D01*
X758657Y161724D01*
X758824Y161613D01*
X758852D01*
X758907Y161558D01*
X759101Y161419D01*
X759296Y161225D01*
X759407Y161114D01*
X759462Y161003D01*
X766653Y144040D01*
X766681Y143984D01*
X766708Y143846D01*
X766736Y143651D01*
X766764Y143401D01*
Y143374D01*
Y143290D01*
X766736Y143179D01*
X766708Y143041D01*
X766653Y142874D01*
X766570Y142707D01*
X766458Y142513D01*
X766292Y142346D01*
X766264Y142319D01*
X766209Y142291D01*
X766097Y142208D01*
X765986Y142152D01*
X765820Y142069D01*
X765626Y141986D01*
X765403Y141958D01*
X765181Y141930D01*
X765154D01*
X765015Y141958D01*
X764848Y141986D01*
X764654Y142041D01*
X764432Y142152D01*
X764210Y142319D01*
X763988Y142541D01*
X763821Y142846D01*
X757797Y157088D01*
X752272Y142902D01*
X752244Y142874D01*
X752189Y142763D01*
X752105Y142596D01*
X751966Y142430D01*
X751772Y142235D01*
X751522Y142097D01*
X751245Y141986D01*
X750912Y141930D01*
X750800D01*
X750689Y141958D01*
X750523Y141986D01*
X750356Y142041D01*
X750162Y142097D01*
X749995Y142208D01*
X749801Y142346D01*
X749773Y142374D01*
X749718Y142430D01*
X749662Y142513D01*
X749579Y142624D01*
X749468Y142791D01*
X749412Y142957D01*
X749357Y143152D01*
X749329Y143374D01*
Y143401D01*
Y143429D01*
Y143568D01*
X749357Y143762D01*
X749412Y143984D01*
X755992Y160947D01*
Y160975D01*
X756020Y161003D01*
X756131Y161141D01*
X756297Y161336D01*
X756436Y161475D01*
X756603Y161586D01*
X756631Y161613D01*
X756686Y161641D01*
X756769Y161697D01*
X756908Y161780D01*
X757158Y161891D01*
X757297Y161919D01*
X757436Y161947D01*
X758102D01*
X758269Y161919D01*
D02*
G37*
G36*
X745776Y161891D02*
X745914Y161863D01*
X746081Y161808D01*
X746247Y161724D01*
X746442Y161613D01*
X746608Y161475D01*
X746636Y161447D01*
X746692Y161391D01*
X746747Y161308D01*
X746831Y161169D01*
X746914Y161003D01*
X746997Y160836D01*
X747025Y160614D01*
X747053Y160392D01*
Y160364D01*
Y160281D01*
X747025Y160170D01*
X746997Y160031D01*
X746942Y159864D01*
X746886Y159698D01*
X746775Y159503D01*
X746636Y159337D01*
X739668Y152174D01*
X746664Y144456D01*
X746692Y144429D01*
X746720Y144373D01*
X746775Y144290D01*
X746858Y144179D01*
X746942Y144012D01*
X746997Y143846D01*
X747025Y143651D01*
X747053Y143429D01*
Y143401D01*
Y143318D01*
X747025Y143207D01*
X746997Y143068D01*
X746942Y142874D01*
X746858Y142707D01*
X746747Y142513D01*
X746608Y142346D01*
X746581Y142319D01*
X746525Y142291D01*
X746442Y142208D01*
X746303Y142152D01*
X746164Y142069D01*
X745970Y141986D01*
X745776Y141958D01*
X745554Y141930D01*
X745442D01*
X745304Y141958D01*
X745165Y141986D01*
X744970Y142041D01*
X744776Y142152D01*
X744582Y142263D01*
X744415Y142430D01*
X736475Y151203D01*
X736448Y151230D01*
X736420Y151286D01*
X736336Y151369D01*
X736281Y151480D01*
X736114Y151813D01*
X736087Y151980D01*
X736059Y152202D01*
Y152230D01*
Y152313D01*
X736087Y152424D01*
X736114Y152563D01*
X736170Y152730D01*
X736253Y152896D01*
X736364Y153090D01*
X736503Y153257D01*
X744443Y161475D01*
X744471Y161502D01*
X744526Y161558D01*
X744610Y161613D01*
X744748Y161697D01*
X744915Y161780D01*
X745109Y161863D01*
X745304Y161891D01*
X745554Y161919D01*
X745665D01*
X745776Y161891D01*
D02*
G37*
G36*
X734171D02*
X734310Y161863D01*
X734643Y161752D01*
X734809Y161669D01*
X734976Y161530D01*
X735004Y161502D01*
X735059Y161447D01*
X735143Y161364D01*
X735226Y161225D01*
X735309Y161058D01*
X735393Y160864D01*
X735448Y160642D01*
X735476Y160392D01*
Y143429D01*
Y143401D01*
Y143318D01*
X735448Y143179D01*
X735420Y143041D01*
X735365Y142846D01*
X735254Y142652D01*
X735143Y142458D01*
X734976Y142291D01*
X734948Y142263D01*
X734893Y142235D01*
X734809Y142180D01*
X734671Y142124D01*
X734365Y141986D01*
X734171Y141958D01*
X733949Y141930D01*
X733866D01*
X733755Y141958D01*
X733616Y141986D01*
X733283Y142097D01*
X733088Y142180D01*
X732922Y142291D01*
X732894Y142319D01*
X732838Y142374D01*
X732755Y142458D01*
X732672Y142596D01*
X732589Y142763D01*
X732505Y142957D01*
X732450Y143179D01*
X732422Y143429D01*
Y160392D01*
Y160420D01*
Y160503D01*
X732450Y160642D01*
X732477Y160808D01*
X732533Y160975D01*
X732644Y161169D01*
X732755Y161364D01*
X732922Y161530D01*
X732949Y161558D01*
X733005Y161586D01*
X733088Y161641D01*
X733227Y161724D01*
X733532Y161863D01*
X733727Y161891D01*
X733949Y161919D01*
X734060D01*
X734171Y161891D01*
D02*
G37*
G36*
X926592Y104888D02*
Y75941D01*
X793827D01*
Y104888D01*
Y130016D01*
X926592D01*
Y104888D01*
D02*
G37*
%LPC*%
G36*
X522439Y78474D02*
X516525D01*
Y72977D01*
X522633D01*
X522855Y73033D01*
X523105Y73088D01*
X523410Y73172D01*
X523743Y73310D01*
X524076Y73505D01*
X524382Y73782D01*
X524410Y73810D01*
X524521Y73921D01*
X524660Y74088D01*
X524798Y74338D01*
X524965Y74615D01*
X525076Y74948D01*
X525187Y75309D01*
X525215Y75726D01*
Y75781D01*
Y75920D01*
X525159Y76115D01*
X525104Y76392D01*
X525020Y76670D01*
X524854Y77003D01*
X524660Y77336D01*
X524382Y77641D01*
X524354Y77669D01*
X524243Y77780D01*
X524076Y77919D01*
X523827Y78058D01*
X523549Y78224D01*
X523216Y78335D01*
X522855Y78446D01*
X522439Y78474D01*
D02*
G37*
G36*
X539179Y86636D02*
X539068D01*
X538929Y86609D01*
X538763D01*
X538568Y86553D01*
X538319Y86525D01*
X538041Y86442D01*
X537736Y86359D01*
X537430Y86220D01*
X537097Y86081D01*
X536764Y85887D01*
X536431Y85665D01*
X536098Y85415D01*
X535764Y85082D01*
X535431Y84748D01*
X535126Y84332D01*
X535098Y84304D01*
X535070Y84249D01*
X534987Y84138D01*
X534904Y83971D01*
X534793Y83777D01*
X534682Y83527D01*
X534543Y83277D01*
X534404Y82972D01*
X534265Y82639D01*
X534127Y82278D01*
X533904Y81500D01*
X533738Y80640D01*
X533710Y80168D01*
X533682Y79696D01*
Y79668D01*
Y79585D01*
Y79446D01*
X533710Y79252D01*
X533738Y79029D01*
X533766Y78780D01*
X533793Y78474D01*
X533877Y78141D01*
X534043Y77419D01*
X534293Y76642D01*
X534460Y76253D01*
X534654Y75837D01*
X534876Y75448D01*
X535126Y75059D01*
X535154Y75032D01*
X535209Y74949D01*
X535293Y74837D01*
X535404Y74699D01*
X535570Y74532D01*
X535764Y74310D01*
X535987Y74116D01*
X536236Y73893D01*
X536514Y73671D01*
X536819Y73477D01*
X537514Y73088D01*
X537902Y72950D01*
X538291Y72839D01*
X538735Y72755D01*
X539179Y72727D01*
X539290D01*
X539429Y72755D01*
X539596D01*
X539790Y72811D01*
X540040Y72839D01*
X540317Y72922D01*
X540595Y73005D01*
X540928Y73144D01*
X541234Y73283D01*
X541567Y73477D01*
X541928Y73699D01*
X542261Y73977D01*
X542594Y74282D01*
X542927Y74615D01*
X543232Y75032D01*
X543260Y75059D01*
X543288Y75115D01*
X543371Y75254D01*
X543455Y75393D01*
X543566Y75587D01*
X543677Y75837D01*
X543815Y76087D01*
X543954Y76392D01*
X544093Y76725D01*
X544232Y77086D01*
X544454Y77891D01*
X544621Y78752D01*
X544648Y79224D01*
X544676Y79696D01*
Y79724D01*
Y79807D01*
Y79946D01*
X544648Y80140D01*
X544621Y80362D01*
X544593Y80612D01*
X544565Y80917D01*
X544510Y81223D01*
X544315Y81945D01*
X544065Y82722D01*
X543899Y83138D01*
X543704Y83527D01*
X543482Y83943D01*
X543232Y84332D01*
X543205Y84360D01*
X543149Y84443D01*
X543066Y84554D01*
X542955Y84693D01*
X542788Y84860D01*
X542594Y85054D01*
X542372Y85276D01*
X542122Y85498D01*
X541844Y85692D01*
X541539Y85914D01*
X540845Y86275D01*
X540456Y86414D01*
X540068Y86525D01*
X539623Y86609D01*
X539179Y86636D01*
D02*
G37*
G36*
X486931Y86414D02*
X481378D01*
Y80168D01*
X486986D01*
X487153Y80196D01*
X487430Y80223D01*
X487736Y80279D01*
X488097Y80390D01*
X488485Y80529D01*
X488874Y80751D01*
X489207Y81028D01*
X489235Y81056D01*
X489346Y81195D01*
X489485Y81362D01*
X489651Y81639D01*
X489790Y81945D01*
X489929Y82333D01*
X490040Y82777D01*
X490068Y83277D01*
Y83305D01*
Y83333D01*
Y83499D01*
X490012Y83777D01*
X489957Y84082D01*
X489846Y84443D01*
X489707Y84832D01*
X489485Y85220D01*
X489207Y85554D01*
X489179Y85581D01*
X489041Y85692D01*
X488874Y85831D01*
X488596Y85998D01*
X488263Y86137D01*
X487875Y86275D01*
X487430Y86386D01*
X486931Y86414D01*
D02*
G37*
G36*
X259696Y140069D02*
X254116D01*
X253866Y140042D01*
X253644Y140014D01*
X253450Y139930D01*
X253283Y139875D01*
X253144Y139792D01*
X253061Y139708D01*
X253006Y139681D01*
X252978Y139653D01*
X252839Y139486D01*
X252728Y139320D01*
X252672Y139125D01*
X252617Y138959D01*
X252589Y138792D01*
X252561Y138681D01*
Y138598D01*
Y138570D01*
X252589Y138320D01*
X252617Y138098D01*
X252700Y137904D01*
X252783Y137737D01*
X252839Y137598D01*
X252922Y137515D01*
X252950Y137460D01*
X252978Y137432D01*
X253144Y137293D01*
X253339Y137182D01*
X253533Y137126D01*
X253727Y137071D01*
X253866Y137043D01*
X254005Y137015D01*
X259585D01*
X259835Y137043D01*
X260029Y137071D01*
X260224Y137154D01*
X260390Y137238D01*
X260501Y137293D01*
X260585Y137376D01*
X260640Y137404D01*
X260668Y137432D01*
X260807Y137598D01*
X260918Y137793D01*
X261001Y137987D01*
X261057Y138181D01*
X261084Y138320D01*
X261112Y138459D01*
Y138542D01*
Y138570D01*
X261084Y138792D01*
X261057Y139014D01*
X260973Y139181D01*
X260890Y139347D01*
X260807Y139459D01*
X260751Y139542D01*
X260696Y139597D01*
X260668Y139625D01*
X260501Y139764D01*
X260335Y139875D01*
X260140Y139958D01*
X259974Y140014D01*
X259807Y140042D01*
X259696Y140069D01*
D02*
G37*
G36*
X185599Y135211D02*
X185432D01*
X184794Y135183D01*
X184183Y135100D01*
X183600Y134961D01*
X183045Y134794D01*
X182517Y134572D01*
X182018Y134350D01*
X181546Y134100D01*
X181129Y133850D01*
X180741Y133601D01*
X180380Y133351D01*
X180102Y133129D01*
X179852Y132907D01*
X179658Y132740D01*
X179491Y132601D01*
X179408Y132518D01*
X179380Y132490D01*
X178880Y131935D01*
X178464Y131352D01*
X178103Y130741D01*
X177770Y130103D01*
X177520Y129492D01*
X177270Y128881D01*
X177104Y128298D01*
X176965Y127743D01*
X176826Y127188D01*
X176743Y126716D01*
X176687Y126271D01*
X176660Y125911D01*
X176632Y125577D01*
X176604Y125355D01*
Y125161D01*
X176632Y124356D01*
X176715Y123606D01*
X176854Y122857D01*
X177048Y122190D01*
X177243Y121524D01*
X177492Y120941D01*
X177742Y120386D01*
X178020Y119886D01*
X178270Y119414D01*
X178519Y119025D01*
X178769Y118665D01*
X178964Y118387D01*
X179158Y118165D01*
X179297Y117998D01*
X179380Y117887D01*
X179408Y117859D01*
X179908Y117388D01*
X180407Y116971D01*
X180935Y116610D01*
X181435Y116305D01*
X181962Y116055D01*
X182462Y115833D01*
X182934Y115639D01*
X183378Y115500D01*
X183822Y115389D01*
X184211Y115305D01*
X184544Y115250D01*
X184849Y115222D01*
X185099Y115194D01*
X185294Y115167D01*
X185432D01*
X186154Y115194D01*
X186820Y115333D01*
X187459Y115500D01*
X188070Y115722D01*
X188625Y115999D01*
X189125Y116305D01*
X189597Y116638D01*
X190013Y116971D01*
X190374Y117304D01*
X190707Y117637D01*
X190985Y117943D01*
X191207Y118220D01*
X191401Y118442D01*
X191512Y118609D01*
X191595Y118748D01*
X191623Y118776D01*
X191762Y119081D01*
X191845Y119359D01*
X191873Y119470D01*
Y119608D01*
X191845Y119831D01*
X191790Y120053D01*
X191707Y120219D01*
X191623Y120386D01*
X191540Y120525D01*
X191457Y120608D01*
X191401Y120663D01*
X191373Y120691D01*
X191179Y120830D01*
X191012Y120941D01*
X190818Y121024D01*
X190652Y121080D01*
X190513Y121108D01*
X190402Y121135D01*
X190291D01*
X190013Y121108D01*
X189763Y121024D01*
X189541Y120886D01*
X189375Y120774D01*
X189236Y120636D01*
X189125Y120497D01*
X189069Y120414D01*
X189041Y120386D01*
X188764Y119997D01*
X188486Y119664D01*
X188181Y119359D01*
X187875Y119109D01*
X187570Y118887D01*
X187292Y118720D01*
X186987Y118553D01*
X186709Y118442D01*
X186182Y118276D01*
X185960Y118220D01*
X185765Y118193D01*
X185627D01*
X185516Y118165D01*
X185405D01*
X184988Y118193D01*
X184599Y118248D01*
X184238Y118359D01*
X183878Y118470D01*
X183184Y118803D01*
X182601Y119164D01*
X182351Y119359D01*
X182129Y119525D01*
X181934Y119692D01*
X181768Y119858D01*
X181629Y119969D01*
X181546Y120080D01*
X181490Y120136D01*
X181462Y120164D01*
X181157Y120580D01*
X180879Y120997D01*
X180630Y121413D01*
X180407Y121830D01*
X180241Y122246D01*
X180102Y122662D01*
X179880Y123467D01*
X179797Y123801D01*
X179741Y124134D01*
X179713Y124439D01*
X179685Y124689D01*
X179658Y124883D01*
Y125022D01*
Y125133D01*
Y125161D01*
X179685Y125716D01*
X179741Y126216D01*
X179824Y126716D01*
X179935Y127188D01*
X180074Y127632D01*
X180241Y128048D01*
X180380Y128437D01*
X180574Y128770D01*
X180741Y129103D01*
X180879Y129381D01*
X181046Y129603D01*
X181185Y129825D01*
X181296Y129964D01*
X181379Y130103D01*
X181435Y130158D01*
X181462Y130186D01*
X181796Y130547D01*
X182129Y130852D01*
X182489Y131130D01*
X182823Y131352D01*
X183156Y131546D01*
X183489Y131713D01*
X183794Y131852D01*
X184100Y131963D01*
X184377Y132046D01*
X184627Y132101D01*
X184849Y132157D01*
X185044Y132185D01*
X185182Y132212D01*
X185405D01*
X185821Y132185D01*
X186210Y132129D01*
X186571Y132018D01*
X186931Y131879D01*
X187542Y131518D01*
X188070Y131102D01*
X188292Y130908D01*
X188486Y130686D01*
X188653Y130519D01*
X188792Y130352D01*
X188903Y130186D01*
X188986Y130075D01*
X189014Y130019D01*
X189041Y129992D01*
X189236Y129742D01*
X189430Y129547D01*
X189652Y129409D01*
X189846Y129325D01*
X190013Y129270D01*
X190152Y129214D01*
X190291D01*
X190513Y129242D01*
X190707Y129298D01*
X190902Y129353D01*
X191068Y129436D01*
X191179Y129520D01*
X191290Y129603D01*
X191346Y129631D01*
X191373Y129658D01*
X191540Y129853D01*
X191651Y130019D01*
X191762Y130214D01*
X191818Y130380D01*
X191845Y130519D01*
X191873Y130630D01*
Y130741D01*
X191845Y131046D01*
X191762Y131324D01*
X191707Y131407D01*
X191651Y131491D01*
X191623Y131546D01*
Y131574D01*
X191179Y132212D01*
X190707Y132768D01*
X190207Y133267D01*
X189708Y133684D01*
X189180Y134017D01*
X188680Y134323D01*
X188181Y134572D01*
X187681Y134767D01*
X187237Y134906D01*
X186793Y135016D01*
X186404Y135100D01*
X186071Y135155D01*
X185821Y135183D01*
X185599Y135211D01*
D02*
G37*
G36*
X152562Y135239D02*
X152451D01*
X152201Y135211D01*
X151951Y135183D01*
X151757Y135100D01*
X151590Y134989D01*
X151313Y134739D01*
X151146Y134461D01*
X151035Y134156D01*
X150979Y133906D01*
X150952Y133795D01*
Y133712D01*
Y133684D01*
Y133656D01*
Y126993D01*
X142151D01*
Y133656D01*
X142123Y133934D01*
X142095Y134184D01*
X142012Y134378D01*
X141901Y134572D01*
X141790Y134739D01*
X141679Y134850D01*
X141402Y135044D01*
X141096Y135155D01*
X140874Y135211D01*
X140680Y135239D01*
X140624D01*
X140374Y135211D01*
X140180Y135183D01*
X139986Y135100D01*
X139819Y135016D01*
X139680Y134933D01*
X139597Y134878D01*
X139541Y134822D01*
X139514Y134794D01*
X139375Y134628D01*
X139264Y134433D01*
X139208Y134239D01*
X139153Y134073D01*
X139125Y133906D01*
X139097Y133767D01*
Y116693D01*
X139125Y116444D01*
X139153Y116249D01*
X139236Y116055D01*
X139319Y115916D01*
X139375Y115777D01*
X139458Y115694D01*
X139486Y115639D01*
X139514Y115611D01*
X139680Y115472D01*
X139874Y115361D01*
X140069Y115305D01*
X140236Y115250D01*
X140402Y115222D01*
X140513Y115194D01*
X140624D01*
X140902Y115222D01*
X141124Y115250D01*
X141346Y115333D01*
X141512Y115416D01*
X141790Y115666D01*
X141957Y115944D01*
X142068Y116222D01*
X142123Y116471D01*
X142151Y116638D01*
Y116666D01*
Y116693D01*
Y123967D01*
X150952D01*
Y116693D01*
X150979Y116444D01*
X151007Y116194D01*
X151090Y115999D01*
X151174Y115833D01*
X151424Y115555D01*
X151701Y115389D01*
X151979Y115278D01*
X152229Y115222D01*
X152395Y115194D01*
X152451D01*
X152701Y115222D01*
X152923Y115250D01*
X153117Y115333D01*
X153256Y115416D01*
X153395Y115472D01*
X153478Y115555D01*
X153534Y115583D01*
X153561Y115611D01*
X153700Y115777D01*
X153811Y115944D01*
X153895Y116138D01*
X153950Y116305D01*
X153978Y116471D01*
X154005Y116582D01*
Y133656D01*
X153978Y133906D01*
X153950Y134128D01*
X153867Y134323D01*
X153783Y134489D01*
X153700Y134628D01*
X153645Y134711D01*
X153589Y134767D01*
X153561Y134794D01*
X153395Y134933D01*
X153200Y135044D01*
X153034Y135128D01*
X152839Y135183D01*
X152701Y135211D01*
X152562Y135239D01*
D02*
G37*
G36*
X262861Y135183D02*
X262167D01*
X261973Y135128D01*
X261751Y135044D01*
X261556Y134961D01*
X261501Y134906D01*
X261473D01*
X261306Y134822D01*
X261168Y134739D01*
X261001Y134600D01*
X260890Y134489D01*
X260862Y134461D01*
X252450Y121024D01*
Y133656D01*
X252423Y133934D01*
X252395Y134156D01*
X252311Y134378D01*
X252200Y134545D01*
X251978Y134822D01*
X251701Y134989D01*
X251395Y135100D01*
X251173Y135155D01*
X250979Y135183D01*
X250923D01*
X250701Y135155D01*
X250507Y135128D01*
X250313Y135072D01*
X250174Y134989D01*
X250035Y134906D01*
X249952Y134850D01*
X249896Y134822D01*
X249868Y134794D01*
X249702Y134628D01*
X249591Y134433D01*
X249508Y134239D01*
X249452Y134073D01*
X249424Y133906D01*
X249396Y133767D01*
Y116693D01*
X249424Y116471D01*
X249480Y116277D01*
X249535Y116083D01*
X249646Y115944D01*
X249730Y115805D01*
X249785Y115722D01*
X249841Y115666D01*
X249868Y115639D01*
X250063Y115500D01*
X250229Y115389D01*
X250424Y115305D01*
X250562Y115250D01*
X250701Y115222D01*
X250812Y115194D01*
X251534D01*
X251728Y115222D01*
X251978Y115333D01*
X252145Y115416D01*
X252200Y115444D01*
X252228D01*
X252395Y115555D01*
X252534Y115639D01*
X252645Y115694D01*
X252728Y115777D01*
X252811Y115861D01*
X252839Y115888D01*
X261251Y129298D01*
Y116693D01*
X261279Y116444D01*
X261306Y116194D01*
X261390Y115999D01*
X261473Y115833D01*
X261723Y115555D01*
X262001Y115389D01*
X262278Y115278D01*
X262528Y115222D01*
X262694Y115194D01*
X262750D01*
X263028Y115222D01*
X263277Y115250D01*
X263472Y115333D01*
X263638Y115416D01*
X263916Y115666D01*
X264110Y115944D01*
X264221Y116222D01*
X264277Y116471D01*
X264305Y116638D01*
Y133656D01*
X264277Y133878D01*
X264221Y134073D01*
X264166Y134267D01*
X264083Y134406D01*
X263972Y134545D01*
X263916Y134628D01*
X263860Y134683D01*
X263833Y134711D01*
X263638Y134878D01*
X263472Y134989D01*
X263277Y135072D01*
X263111Y135128D01*
X262972Y135155D01*
X262861Y135183D01*
D02*
G37*
G36*
X281073D02*
X280962D01*
X280712Y135155D01*
X280518Y135128D01*
X280324Y135044D01*
X280157Y134961D01*
X280018Y134878D01*
X279935Y134822D01*
X279879Y134767D01*
X279852Y134739D01*
X271912Y126521D01*
X271773Y126355D01*
X271662Y126160D01*
X271578Y125994D01*
X271523Y125827D01*
X271495Y125688D01*
X271467Y125577D01*
Y125494D01*
Y125466D01*
X271495Y125244D01*
X271523Y125078D01*
X271689Y124745D01*
X271745Y124634D01*
X271828Y124550D01*
X271856Y124495D01*
X271884Y124467D01*
X279824Y115694D01*
X279990Y115527D01*
X280185Y115416D01*
X280379Y115305D01*
X280573Y115250D01*
X280712Y115222D01*
X280851Y115194D01*
X280962D01*
X281184Y115222D01*
X281378Y115250D01*
X281573Y115333D01*
X281712Y115416D01*
X281850Y115472D01*
X281934Y115555D01*
X281989Y115583D01*
X282017Y115611D01*
X282156Y115777D01*
X282267Y115972D01*
X282350Y116138D01*
X282406Y116333D01*
X282433Y116471D01*
X282461Y116582D01*
Y116693D01*
X282433Y116916D01*
X282406Y117110D01*
X282350Y117276D01*
X282267Y117443D01*
X282184Y117554D01*
X282128Y117637D01*
X282100Y117693D01*
X282073Y117721D01*
X275077Y125439D01*
X282045Y132601D01*
X282184Y132768D01*
X282295Y132962D01*
X282350Y133129D01*
X282406Y133295D01*
X282433Y133434D01*
X282461Y133545D01*
Y133656D01*
X282433Y133878D01*
X282406Y134100D01*
X282322Y134267D01*
X282239Y134433D01*
X282156Y134572D01*
X282100Y134656D01*
X282045Y134711D01*
X282017Y134739D01*
X281850Y134878D01*
X281656Y134989D01*
X281490Y135072D01*
X281323Y135128D01*
X281184Y135155D01*
X281073Y135183D01*
D02*
G37*
G36*
X269468D02*
X269357D01*
X269135Y135155D01*
X268941Y135128D01*
X268636Y134989D01*
X268497Y134906D01*
X268414Y134850D01*
X268358Y134822D01*
X268330Y134794D01*
X268164Y134628D01*
X268053Y134433D01*
X267942Y134239D01*
X267886Y134073D01*
X267858Y133906D01*
X267831Y133767D01*
Y116693D01*
X267858Y116444D01*
X267914Y116222D01*
X267997Y116027D01*
X268080Y115861D01*
X268164Y115722D01*
X268247Y115639D01*
X268302Y115583D01*
X268330Y115555D01*
X268497Y115444D01*
X268691Y115361D01*
X269024Y115250D01*
X269163Y115222D01*
X269274Y115194D01*
X269357D01*
X269580Y115222D01*
X269774Y115250D01*
X270079Y115389D01*
X270218Y115444D01*
X270301Y115500D01*
X270357Y115527D01*
X270385Y115555D01*
X270551Y115722D01*
X270662Y115916D01*
X270773Y116110D01*
X270829Y116305D01*
X270857Y116444D01*
X270884Y116582D01*
Y116666D01*
Y116693D01*
Y133656D01*
X270857Y133906D01*
X270801Y134128D01*
X270718Y134323D01*
X270634Y134489D01*
X270551Y134628D01*
X270468Y134711D01*
X270412Y134767D01*
X270385Y134794D01*
X270218Y134933D01*
X270051Y135016D01*
X269718Y135128D01*
X269580Y135155D01*
X269468Y135183D01*
D02*
G37*
G36*
X237986D02*
X237820D01*
X237125Y135155D01*
X236487Y135044D01*
X235849Y134878D01*
X235266Y134683D01*
X234710Y134433D01*
X234210Y134184D01*
X233711Y133878D01*
X233294Y133601D01*
X232906Y133295D01*
X232572Y132990D01*
X232267Y132740D01*
X232017Y132490D01*
X231823Y132296D01*
X231684Y132129D01*
X231601Y132018D01*
X231573Y131990D01*
X231157Y131435D01*
X230823Y130852D01*
X230518Y130269D01*
X230240Y129686D01*
X230018Y129103D01*
X229824Y128548D01*
X229685Y127993D01*
X229547Y127493D01*
X229463Y126993D01*
X229380Y126577D01*
X229352Y126188D01*
X229297Y125827D01*
Y125577D01*
X229269Y125355D01*
Y125189D01*
X229297Y124467D01*
X229380Y123801D01*
X229491Y123134D01*
X229630Y122496D01*
X229796Y121885D01*
X229991Y121330D01*
X230213Y120802D01*
X230435Y120330D01*
X230629Y119886D01*
X230851Y119497D01*
X231046Y119164D01*
X231212Y118887D01*
X231351Y118665D01*
X231462Y118498D01*
X231545Y118387D01*
X231573Y118359D01*
X232045Y117804D01*
X232572Y117304D01*
X233072Y116888D01*
X233600Y116527D01*
X234127Y116222D01*
X234655Y115972D01*
X235154Y115750D01*
X235626Y115583D01*
X236098Y115472D01*
X236515Y115361D01*
X236876Y115305D01*
X237209Y115250D01*
X237459Y115222D01*
X237653Y115194D01*
X237820D01*
X238514Y115222D01*
X239152Y115333D01*
X239791Y115500D01*
X240374Y115694D01*
X240929Y115916D01*
X241456Y116194D01*
X241928Y116471D01*
X242345Y116777D01*
X242733Y117082D01*
X243067Y117360D01*
X243372Y117637D01*
X243622Y117859D01*
X243816Y118082D01*
X243955Y118220D01*
X244038Y118331D01*
X244066Y118359D01*
X244482Y118914D01*
X244816Y119497D01*
X245149Y120080D01*
X245399Y120691D01*
X245621Y121274D01*
X245815Y121830D01*
X245954Y122385D01*
X246093Y122884D01*
X246176Y123384D01*
X246259Y123801D01*
X246287Y124217D01*
X246343Y124550D01*
Y124800D01*
X246370Y125022D01*
Y125189D01*
X246343Y125911D01*
X246259Y126577D01*
X246148Y127243D01*
X246009Y127882D01*
X245843Y128465D01*
X245648Y129048D01*
X245426Y129547D01*
X245232Y130047D01*
X245010Y130463D01*
X244788Y130852D01*
X244594Y131185D01*
X244427Y131463D01*
X244288Y131685D01*
X244177Y131852D01*
X244094Y131963D01*
X244066Y131990D01*
X243594Y132546D01*
X243094Y133045D01*
X242567Y133462D01*
X242039Y133850D01*
X241512Y134156D01*
X240984Y134406D01*
X240485Y134628D01*
X240013Y134794D01*
X239541Y134906D01*
X239124Y135016D01*
X238764Y135100D01*
X238458Y135128D01*
X238181Y135155D01*
X237986Y135183D01*
D02*
G37*
G36*
X220968Y134933D02*
X213666D01*
X213444Y134906D01*
X213250Y134850D01*
X213056Y134794D01*
X212889Y134711D01*
X212778Y134600D01*
X212667Y134545D01*
X212612Y134489D01*
X212584Y134461D01*
X212445Y134295D01*
X212334Y134100D01*
X212251Y133934D01*
X212195Y133767D01*
X212167Y133628D01*
X212140Y133517D01*
Y116693D01*
X212167Y116444D01*
X212195Y116194D01*
X212278Y115999D01*
X212389Y115833D01*
X212612Y115555D01*
X212917Y115389D01*
X213195Y115278D01*
X213417Y115222D01*
X213611Y115194D01*
X213666D01*
X213944Y115222D01*
X214166Y115250D01*
X214361Y115333D01*
X214527Y115416D01*
X214805Y115666D01*
X214971Y115944D01*
X215082Y116222D01*
X215138Y116471D01*
X215166Y116638D01*
Y116666D01*
Y116693D01*
Y122607D01*
X220718D01*
X221218Y122635D01*
X221690Y122690D01*
X222134Y122773D01*
X222550Y122884D01*
X222939Y123023D01*
X223300Y123162D01*
X223633Y123329D01*
X223939Y123495D01*
X224216Y123634D01*
X224466Y123801D01*
X224660Y123939D01*
X224855Y124078D01*
X224993Y124189D01*
X225077Y124272D01*
X225132Y124328D01*
X225160Y124356D01*
X225465Y124689D01*
X225743Y125050D01*
X225965Y125411D01*
X226159Y125772D01*
X226354Y126160D01*
X226493Y126521D01*
X226687Y127215D01*
X226770Y127549D01*
X226826Y127826D01*
X226854Y128104D01*
X226881Y128326D01*
X226909Y128520D01*
Y128770D01*
X226881Y129270D01*
X226826Y129714D01*
X226742Y130158D01*
X226631Y130575D01*
X226493Y130963D01*
X226354Y131352D01*
X226187Y131685D01*
X226048Y131990D01*
X225882Y132240D01*
X225715Y132490D01*
X225576Y132684D01*
X225438Y132879D01*
X225327Y133018D01*
X225243Y133101D01*
X225188Y133156D01*
X225160Y133184D01*
X224827Y133490D01*
X224466Y133767D01*
X224105Y133989D01*
X223716Y134184D01*
X223356Y134378D01*
X222995Y134517D01*
X222273Y134711D01*
X221967Y134794D01*
X221662Y134850D01*
X221384Y134878D01*
X221162Y134906D01*
X220968Y134933D01*
D02*
G37*
G36*
X208058D02*
X195399D01*
X195121Y134906D01*
X194899Y134878D01*
X194705Y134794D01*
X194511Y134683D01*
X194233Y134461D01*
X194066Y134184D01*
X193955Y133878D01*
X193900Y133656D01*
X193872Y133462D01*
Y133406D01*
X193900Y133156D01*
X193928Y132907D01*
X194011Y132712D01*
X194122Y132546D01*
X194344Y132268D01*
X194649Y132101D01*
X194927Y131990D01*
X195149Y131935D01*
X195343Y131907D01*
X200146D01*
Y116693D01*
X200174Y116444D01*
X200202Y116194D01*
X200285Y115999D01*
X200396Y115833D01*
X200646Y115555D01*
X200924Y115389D01*
X201201Y115278D01*
X201451Y115222D01*
X201645Y115194D01*
X201701D01*
X201979Y115222D01*
X202201Y115250D01*
X202395Y115333D01*
X202562Y115416D01*
X202839Y115666D01*
X203006Y115944D01*
X203117Y116222D01*
X203172Y116471D01*
X203200Y116638D01*
Y116666D01*
Y116693D01*
Y131907D01*
X208003D01*
X208281Y131935D01*
X208503Y131963D01*
X208697Y132046D01*
X208864Y132129D01*
X209141Y132379D01*
X209308Y132657D01*
X209419Y132934D01*
X209474Y133184D01*
X209502Y133351D01*
Y133406D01*
X209474Y133684D01*
X209447Y133906D01*
X209363Y134128D01*
X209280Y134295D01*
X209030Y134572D01*
X208753Y134739D01*
X208475Y134850D01*
X208225Y134906D01*
X208058Y134933D01*
D02*
G37*
G36*
X293816Y135016D02*
X293011D01*
X292872Y134961D01*
X292622Y134850D01*
X292483Y134794D01*
X292400Y134739D01*
X292345Y134711D01*
X292317Y134683D01*
X292150Y134572D01*
X292039Y134433D01*
X291928Y134323D01*
X291845Y134239D01*
X291761Y134100D01*
X291734Y134073D01*
Y134045D01*
X284849Y117110D01*
X284793Y116888D01*
X284765Y116666D01*
X284738Y116527D01*
Y116471D01*
X284765Y116249D01*
X284821Y116027D01*
X284904Y115861D01*
X284988Y115694D01*
X285071Y115555D01*
X285154Y115472D01*
X285210Y115416D01*
X285237Y115389D01*
X285404Y115250D01*
X285598Y115167D01*
X285959Y115056D01*
X286098Y115028D01*
X286209Y115000D01*
X286320D01*
X286653Y115028D01*
X286931Y115139D01*
X287181Y115305D01*
X287375Y115472D01*
X287514Y115639D01*
X287597Y115805D01*
X287653Y115916D01*
X287680Y115944D01*
X289124Y119525D01*
X297786D01*
X299230Y115944D01*
X299396Y115639D01*
X299618Y115389D01*
X299840Y115222D01*
X300062Y115111D01*
X300257Y115056D01*
X300423Y115028D01*
X300562Y115000D01*
X300590D01*
X300812Y115028D01*
X301034Y115056D01*
X301229Y115139D01*
X301395Y115222D01*
X301506Y115278D01*
X301617Y115361D01*
X301673Y115389D01*
X301700Y115416D01*
X301867Y115583D01*
X301978Y115750D01*
X302061Y115944D01*
X302117Y116110D01*
X302145Y116249D01*
X302172Y116360D01*
Y116471D01*
X302145Y116721D01*
X302117Y116916D01*
X302089Y117054D01*
X302061Y117110D01*
X295176Y134045D01*
X295121Y134156D01*
X295037Y134267D01*
X294843Y134489D01*
X294649Y134628D01*
X294593Y134656D01*
X294566Y134683D01*
X294399Y134794D01*
X294232Y134878D01*
X293983Y134989D01*
X293816Y135016D01*
D02*
G37*
G36*
X165943D02*
X165138D01*
X164999Y134961D01*
X164750Y134850D01*
X164611Y134794D01*
X164527Y134739D01*
X164472Y134711D01*
X164444Y134683D01*
X164277Y134572D01*
X164167Y134433D01*
X164055Y134323D01*
X163972Y134239D01*
X163889Y134100D01*
X163861Y134073D01*
Y134045D01*
X156976Y117110D01*
X156920Y116888D01*
X156893Y116666D01*
X156865Y116527D01*
Y116471D01*
X156893Y116249D01*
X156948Y116027D01*
X157032Y115861D01*
X157115Y115694D01*
X157198Y115555D01*
X157281Y115472D01*
X157337Y115416D01*
X157365Y115389D01*
X157531Y115250D01*
X157726Y115167D01*
X158087Y115056D01*
X158225Y115028D01*
X158336Y115000D01*
X158448D01*
X158781Y115028D01*
X159058Y115139D01*
X159308Y115305D01*
X159502Y115472D01*
X159641Y115639D01*
X159725Y115805D01*
X159780Y115916D01*
X159808Y115944D01*
X161251Y119525D01*
X169913D01*
X171357Y115944D01*
X171523Y115639D01*
X171746Y115389D01*
X171968Y115222D01*
X172190Y115111D01*
X172384Y115056D01*
X172551Y115028D01*
X172689Y115000D01*
X172717D01*
X172939Y115028D01*
X173161Y115056D01*
X173356Y115139D01*
X173522Y115222D01*
X173633Y115278D01*
X173744Y115361D01*
X173800Y115389D01*
X173828Y115416D01*
X173994Y115583D01*
X174105Y115750D01*
X174189Y115944D01*
X174244Y116110D01*
X174272Y116249D01*
X174300Y116360D01*
Y116471D01*
X174272Y116721D01*
X174244Y116916D01*
X174216Y117054D01*
X174189Y117110D01*
X167304Y134045D01*
X167248Y134156D01*
X167165Y134267D01*
X166971Y134489D01*
X166776Y134628D01*
X166721Y134656D01*
X166693Y134683D01*
X166526Y134794D01*
X166360Y134878D01*
X166110Y134989D01*
X165943Y135016D01*
D02*
G37*
%LPD*%
G36*
X238264Y132101D02*
X238708Y132018D01*
X239097Y131907D01*
X239485Y131768D01*
X240179Y131407D01*
X240485Y131185D01*
X240762Y130991D01*
X241012Y130769D01*
X241234Y130547D01*
X241429Y130352D01*
X241595Y130186D01*
X241706Y130047D01*
X241790Y129936D01*
X241845Y129853D01*
X241873Y129825D01*
X242123Y129436D01*
X242345Y129020D01*
X242539Y128631D01*
X242706Y128215D01*
X242956Y127437D01*
X243150Y126716D01*
X243206Y126410D01*
X243233Y126105D01*
X243261Y125855D01*
X243289Y125633D01*
X243316Y125439D01*
Y125300D01*
Y125217D01*
Y125189D01*
X243289Y124717D01*
X243261Y124245D01*
X243094Y123384D01*
X242872Y122579D01*
X242733Y122218D01*
X242595Y121885D01*
X242456Y121580D01*
X242317Y121330D01*
X242206Y121080D01*
X242095Y120886D01*
X242012Y120747D01*
X241928Y120608D01*
X241901Y120552D01*
X241873Y120525D01*
X241567Y120108D01*
X241234Y119775D01*
X240901Y119470D01*
X240568Y119192D01*
X240207Y118970D01*
X239874Y118776D01*
X239569Y118637D01*
X239235Y118498D01*
X238958Y118415D01*
X238680Y118331D01*
X238430Y118304D01*
X238236Y118248D01*
X238069D01*
X237931Y118220D01*
X237820D01*
X237375Y118248D01*
X236931Y118331D01*
X236542Y118442D01*
X236154Y118581D01*
X235460Y118970D01*
X235154Y119164D01*
X234877Y119386D01*
X234627Y119608D01*
X234405Y119803D01*
X234210Y120025D01*
X234044Y120191D01*
X233933Y120330D01*
X233850Y120441D01*
X233794Y120525D01*
X233766Y120552D01*
X233516Y120941D01*
X233294Y121330D01*
X233100Y121746D01*
X232933Y122135D01*
X232684Y122912D01*
X232517Y123634D01*
X232434Y123967D01*
X232406Y124272D01*
X232378Y124522D01*
X232350Y124745D01*
X232323Y124939D01*
Y125078D01*
Y125161D01*
Y125189D01*
X232350Y125661D01*
X232378Y126133D01*
X232545Y126993D01*
X232767Y127771D01*
X232906Y128132D01*
X233044Y128465D01*
X233183Y128770D01*
X233322Y129020D01*
X233433Y129270D01*
X233544Y129464D01*
X233627Y129631D01*
X233711Y129742D01*
X233738Y129797D01*
X233766Y129825D01*
X234072Y130241D01*
X234405Y130575D01*
X234738Y130908D01*
X235071Y131158D01*
X235404Y131380D01*
X235737Y131574D01*
X236071Y131713D01*
X236376Y131852D01*
X236681Y131935D01*
X236959Y132018D01*
X237209Y132046D01*
X237403Y132101D01*
X237570D01*
X237708Y132129D01*
X237820D01*
X238264Y132101D01*
D02*
G37*
G36*
X221218Y131879D02*
X221662Y131768D01*
X222051Y131629D01*
X222384Y131491D01*
X222661Y131324D01*
X222828Y131185D01*
X222967Y131074D01*
X222995Y131046D01*
X223272Y130713D01*
X223494Y130325D01*
X223633Y129936D01*
X223744Y129575D01*
X223800Y129270D01*
X223855Y128992D01*
Y128826D01*
Y128798D01*
Y128770D01*
X223827Y128270D01*
X223716Y127826D01*
X223578Y127437D01*
X223439Y127132D01*
X223272Y126854D01*
X223133Y126688D01*
X223022Y126549D01*
X222995Y126521D01*
X222661Y126244D01*
X222273Y126022D01*
X221884Y125883D01*
X221523Y125772D01*
X221218Y125716D01*
X220940Y125688D01*
X220774Y125661D01*
X215166D01*
Y131907D01*
X220718D01*
X221218Y131879D01*
D02*
G37*
G36*
X296564Y122551D02*
X290346D01*
X293455Y130186D01*
X296564Y122551D01*
D02*
G37*
G36*
X168692D02*
X162473D01*
X165582Y130186D01*
X168692Y122551D01*
D02*
G37*
%LPC*%
G36*
X213211Y339039D02*
X212811Y339017D01*
X212397Y338970D01*
X211941Y338853D01*
X211485Y338735D01*
X211011Y338531D01*
X210973Y338521D01*
X210921Y338487D01*
X210792Y338434D01*
X210636Y338332D01*
X210442Y338221D01*
X210219Y338062D01*
X209973Y337917D01*
X209698Y337725D01*
X209410Y337508D01*
X209107Y337267D01*
X208521Y336710D01*
X207941Y336053D01*
X207677Y335661D01*
X207414Y335268D01*
X207400Y335244D01*
X207358Y335173D01*
X207287Y335053D01*
X207213Y334871D01*
X207124Y334666D01*
X207021Y334436D01*
X206890Y334159D01*
X206793Y333830D01*
X206570Y333123D01*
X206391Y332327D01*
X206337Y331907D01*
X206293Y331450D01*
X206287Y331002D01*
X206305Y330541D01*
X206315Y330503D01*
X206321Y330403D01*
X206336Y330265D01*
X206361Y330089D01*
X206420Y329861D01*
X206475Y329571D01*
X206568Y329291D01*
X206670Y328972D01*
X206797Y328640D01*
X206962Y328318D01*
X207362Y327631D01*
X207627Y327314D01*
X207906Y327021D01*
X208246Y326724D01*
X208615Y326474D01*
X208710Y326418D01*
X208844Y326371D01*
X208988Y326287D01*
X209183Y326236D01*
X209413Y326133D01*
X209694Y326064D01*
X209975Y325995D01*
X210333Y325946D01*
X210667Y325910D01*
X211052Y325909D01*
X211476Y325917D01*
X211904Y325987D01*
X212346Y326081D01*
X212802Y326199D01*
X213277Y326403D01*
X213315Y326413D01*
X213367Y326447D01*
X213509Y326524D01*
X213651Y326601D01*
X213845Y326712D01*
X214068Y326871D01*
X214314Y327016D01*
X214589Y327209D01*
X214877Y327426D01*
X215180Y327666D01*
X215780Y328247D01*
X216360Y328904D01*
X216624Y329297D01*
X216887Y329689D01*
X216901Y329713D01*
X216944Y329785D01*
X217014Y329905D01*
X217089Y330086D01*
X217178Y330292D01*
X217280Y330521D01*
X217411Y330798D01*
X217519Y331090D01*
X217717Y331810D01*
X217896Y332607D01*
X217964Y333050D01*
X217994Y333484D01*
X218014Y333955D01*
X217996Y334417D01*
X217986Y334455D01*
X217980Y334555D01*
X217965Y334693D01*
X217940Y334869D01*
X217881Y335097D01*
X217812Y335363D01*
X217733Y335667D01*
X217631Y335985D01*
X217490Y336294D01*
X217340Y336640D01*
X216925Y337303D01*
X216660Y337620D01*
X216382Y337913D01*
X216041Y338210D01*
X215672Y338459D01*
X215577Y338516D01*
X215443Y338562D01*
X215300Y338647D01*
X215104Y338698D01*
X214875Y338800D01*
X214593Y338870D01*
X214288Y338953D01*
X213954Y338988D01*
X213597Y339038D01*
X213211Y339039D01*
D02*
G37*
G36*
X145121Y354518D02*
X144677Y354486D01*
X144567Y354471D01*
X144433Y354425D01*
X144268Y354402D01*
X144083Y354321D01*
X143839Y354260D01*
X143575Y354140D01*
X143284Y354016D01*
X143000Y353838D01*
X142688Y353655D01*
X142384Y353418D01*
X142084Y353153D01*
X141788Y352860D01*
X141503Y352485D01*
X141217Y352110D01*
X140971Y351657D01*
X140947Y351625D01*
X140927Y351567D01*
X140859Y351445D01*
X140799Y351269D01*
X140715Y351062D01*
X140639Y350799D01*
X140535Y350533D01*
X140439Y350211D01*
X140346Y349863D01*
X140257Y349486D01*
X140142Y348686D01*
X140092Y347811D01*
X140129Y347340D01*
X140165Y346868D01*
X140168Y346841D01*
X140180Y346758D01*
X140198Y346620D01*
X140252Y346432D01*
X140309Y346215D01*
X140371Y345971D01*
X140439Y345673D01*
X140567Y345354D01*
X140829Y344661D01*
X141181Y343924D01*
X141398Y343562D01*
X141647Y343175D01*
X141920Y342820D01*
X142220Y342468D01*
X142251Y342445D01*
X142317Y342370D01*
X142415Y342271D01*
X142543Y342148D01*
X142731Y342006D01*
X142953Y341812D01*
X143200Y341649D01*
X143477Y341463D01*
X143782Y341280D01*
X144111Y341129D01*
X144851Y340837D01*
X145255Y340752D01*
X145655Y340694D01*
X146106Y340671D01*
X146550Y340704D01*
X146660Y340719D01*
X146794Y340765D01*
X146959Y340787D01*
X147144Y340868D01*
X147388Y340930D01*
X147652Y341049D01*
X147916Y341169D01*
X148227Y341352D01*
X148511Y341530D01*
X148815Y341768D01*
X149143Y342037D01*
X149435Y342357D01*
X149724Y342704D01*
X150009Y343079D01*
X150256Y343533D01*
X150280Y343564D01*
X150300Y343623D01*
X150364Y343772D01*
X150428Y343920D01*
X150511Y344128D01*
X150588Y344390D01*
X150692Y344657D01*
X150788Y344978D01*
X150881Y345327D01*
X150970Y345703D01*
X151081Y346531D01*
X151130Y347406D01*
X151094Y347877D01*
X151058Y348349D01*
X151055Y348376D01*
X151043Y348459D01*
X151025Y348596D01*
X150971Y348785D01*
X150914Y349002D01*
X150852Y349245D01*
X150784Y349544D01*
X150688Y349839D01*
X150398Y350528D01*
X150045Y351265D01*
X149824Y351655D01*
X149579Y352014D01*
X149303Y352397D01*
X149003Y352748D01*
X148972Y352772D01*
X148906Y352847D01*
X148808Y352946D01*
X148680Y353069D01*
X148492Y353211D01*
X148273Y353378D01*
X148024Y353568D01*
X147746Y353754D01*
X147445Y353909D01*
X147112Y354088D01*
X146376Y354352D01*
X145972Y354438D01*
X145572Y354495D01*
X145121Y354518D01*
D02*
G37*
G36*
X327332Y479880D02*
X327276D01*
X326998Y479853D01*
X326776Y479825D01*
X326582Y479742D01*
X326388Y479631D01*
X326110Y479409D01*
X325943Y479131D01*
X325832Y478826D01*
X325777Y478604D01*
X325749Y478409D01*
Y478381D01*
Y478354D01*
Y478131D01*
X325777Y477854D01*
X325805Y477632D01*
X325888Y477438D01*
X325999Y477243D01*
X326221Y476965D01*
X326526Y476799D01*
X326804Y476688D01*
X327026Y476632D01*
X327220Y476605D01*
X327276D01*
X327554Y476632D01*
X327776Y476660D01*
X327998Y476743D01*
X328164Y476855D01*
X328442Y477077D01*
X328609Y477382D01*
X328720Y477660D01*
X328775Y477882D01*
X328803Y478076D01*
Y478104D01*
Y478131D01*
Y478354D01*
X328775Y478631D01*
X328747Y478853D01*
X328664Y479075D01*
X328553Y479242D01*
X328331Y479520D01*
X328053Y479686D01*
X327748Y479797D01*
X327526Y479853D01*
X327332Y479880D01*
D02*
G37*
G36*
X320502D02*
X320447D01*
X320169Y479853D01*
X319947Y479825D01*
X319753Y479742D01*
X319558Y479631D01*
X319280Y479409D01*
X319114Y479131D01*
X319003Y478826D01*
X318947Y478604D01*
X318920Y478409D01*
Y478381D01*
Y478354D01*
Y478131D01*
X318947Y477854D01*
X318975Y477632D01*
X319058Y477438D01*
X319170Y477243D01*
X319392Y476965D01*
X319697Y476799D01*
X319975Y476688D01*
X320197Y476632D01*
X320391Y476605D01*
X320447D01*
X320724Y476632D01*
X320946Y476660D01*
X321168Y476743D01*
X321335Y476855D01*
X321613Y477077D01*
X321779Y477382D01*
X321890Y477660D01*
X321946Y477882D01*
X321973Y478076D01*
Y478104D01*
Y478131D01*
Y478354D01*
X321946Y478631D01*
X321918Y478853D01*
X321835Y479075D01*
X321724Y479242D01*
X321502Y479520D01*
X321224Y479686D01*
X320919Y479797D01*
X320696Y479853D01*
X320502Y479880D01*
D02*
G37*
G36*
X393850Y475022D02*
X393739D01*
D01*
X392212D01*
X393739D01*
X393517Y474994D01*
X393322Y474967D01*
X393017Y474828D01*
X392878Y474745D01*
X392795Y474689D01*
X392739Y474661D01*
X392712Y474633D01*
X392545Y474467D01*
X392434Y474273D01*
X392323Y474078D01*
X392267Y473912D01*
X392240Y473745D01*
X392212Y473606D01*
Y456533D01*
X392240Y456283D01*
X392295Y456061D01*
X392378Y455866D01*
X392462Y455700D01*
X392545Y455561D01*
X392628Y455478D01*
X392684Y455422D01*
X392712Y455394D01*
X392878Y455283D01*
X393073Y455200D01*
X393406Y455089D01*
X393544Y455061D01*
X393656Y455033D01*
X392212D01*
X393739D01*
X393961Y455061D01*
X394155Y455089D01*
X394461Y455228D01*
X394599Y455283D01*
X394683Y455339D01*
X394738Y455367D01*
X394766Y455394D01*
X394933Y455561D01*
X395044Y455755D01*
X395155Y455950D01*
X395210Y456144D01*
X395238Y456283D01*
X395266Y456422D01*
Y456505D01*
Y456533D01*
Y473495D01*
X395238Y473745D01*
X395182Y473967D01*
X395099Y474162D01*
X395016Y474328D01*
X394933Y474467D01*
X394849Y474550D01*
X394794Y474606D01*
X394766Y474633D01*
X394599Y474772D01*
X394433Y474856D01*
X394100Y474967D01*
X393961Y474994D01*
X393850Y475022D01*
D02*
G37*
G36*
X500929D02*
D01*
Y473495D01*
X500901Y473717D01*
X500845Y473940D01*
X500790Y474106D01*
X500706Y474273D01*
X500596Y474411D01*
X500540Y474495D01*
X500484Y474550D01*
X500457Y474578D01*
X500290Y474717D01*
X500096Y474828D01*
X499929Y474911D01*
X499763Y474967D01*
X499624Y474994D01*
X499513Y475022D01*
X500929D01*
X483105D01*
D01*
X484632D01*
X484410Y474994D01*
X484216Y474939D01*
X484021Y474883D01*
X483855Y474800D01*
X483744Y474689D01*
X483633Y474633D01*
X483577Y474578D01*
X483549Y474550D01*
X483411Y474384D01*
X483300Y474189D01*
X483216Y474023D01*
X483161Y473856D01*
X483133Y473717D01*
X483105Y473606D01*
Y456533D01*
X483133Y456283D01*
X483189Y456061D01*
X483272Y455866D01*
X483383Y455700D01*
X483466Y455561D01*
X483549Y455478D01*
X483605Y455422D01*
X483633Y455394D01*
X483799Y455283D01*
X483966Y455200D01*
X484299Y455089D01*
X484438Y455061D01*
X484549Y455033D01*
X484632D01*
X484854Y455061D01*
X485049Y455089D01*
X485354Y455228D01*
X485493Y455283D01*
X485576Y455339D01*
X485632Y455367D01*
X485659Y455394D01*
X485826Y455561D01*
X485937Y455755D01*
X486048Y455950D01*
X486104Y456144D01*
X486131Y456283D01*
X486159Y456422D01*
Y456505D01*
Y456533D01*
Y469636D01*
X490795Y463334D01*
X490990Y463112D01*
X491184Y462973D01*
X491378Y462862D01*
X491573Y462779D01*
X491739Y462724D01*
X491878Y462696D01*
X492017D01*
X492295Y462724D01*
X492544Y462807D01*
X492766Y462890D01*
X492933Y463029D01*
X493072Y463140D01*
X493183Y463223D01*
X493238Y463307D01*
X493266Y463334D01*
X497875Y469664D01*
Y456533D01*
X497902Y456283D01*
X497958Y456061D01*
X498041Y455866D01*
X498125Y455700D01*
X498208Y455561D01*
X498291Y455478D01*
X498347Y455422D01*
X498374Y455394D01*
X498541Y455283D01*
X498735Y455200D01*
X499068Y455089D01*
X499207Y455061D01*
X499318Y455033D01*
X500929D01*
Y475022D01*
D02*
G37*
G36*
X406842D02*
D01*
Y473495D01*
X406815Y473717D01*
X406787Y473940D01*
X406704Y474106D01*
X406620Y474273D01*
X406537Y474411D01*
X406482Y474495D01*
X406426Y474550D01*
X406398Y474578D01*
X406232Y474717D01*
X406037Y474828D01*
X405871Y474911D01*
X405704Y474967D01*
X405565Y474994D01*
X405454Y475022D01*
X406842D01*
X405343D01*
X405093Y474994D01*
X404899Y474967D01*
X404705Y474883D01*
X404538Y474800D01*
X404399Y474717D01*
X404316Y474661D01*
X404261Y474606D01*
X404233Y474578D01*
X396293Y466360D01*
X396154Y466194D01*
X396043Y465999D01*
X395960Y465833D01*
X395904Y465666D01*
X395876Y465527D01*
X395849Y465416D01*
Y465333D01*
Y465305D01*
X395876Y465083D01*
X395904Y464917D01*
X396071Y464584D01*
X396126Y464473D01*
X396210Y464389D01*
X396237Y464334D01*
X396265Y464306D01*
X404205Y455533D01*
X404372Y455367D01*
X404566Y455256D01*
X404760Y455145D01*
X404955Y455089D01*
X405093Y455061D01*
X405232Y455033D01*
X406842D01*
Y475022D01*
D02*
G37*
G36*
X388686D02*
D01*
Y473495D01*
X388658Y473717D01*
X388603Y473912D01*
X388547Y474106D01*
X388464Y474245D01*
X388353Y474384D01*
X388297Y474467D01*
X388242Y474523D01*
X388214Y474550D01*
X388020Y474717D01*
X387853Y474828D01*
X387659Y474911D01*
X387492Y474967D01*
X387354Y474994D01*
X387242Y475022D01*
X388686D01*
X373778D01*
D01*
X375305D01*
X375083Y474994D01*
X374888Y474967D01*
X374694Y474911D01*
X374555Y474828D01*
X374416Y474745D01*
X374333Y474689D01*
X374277Y474661D01*
X374250Y474633D01*
X374083Y474467D01*
X373972Y474273D01*
X373889Y474078D01*
X373833Y473912D01*
X373806Y473745D01*
X373778Y473606D01*
Y456533D01*
X373806Y456311D01*
X373861Y456116D01*
X373917Y455922D01*
X374028Y455783D01*
X374111Y455644D01*
X374166Y455561D01*
X374222Y455505D01*
X374250Y455478D01*
X374444Y455339D01*
X374611Y455228D01*
X374805Y455145D01*
X374944Y455089D01*
X375083Y455061D01*
X375194Y455033D01*
X375915D01*
X376110Y455061D01*
X376360Y455172D01*
X376526Y455256D01*
X376582Y455283D01*
X376609D01*
X376776Y455394D01*
X376915Y455478D01*
X377026Y455533D01*
X377109Y455616D01*
X377192Y455700D01*
X377220Y455728D01*
X385632Y469137D01*
Y456533D01*
X385660Y456283D01*
X385688Y456033D01*
X385771Y455839D01*
X385854Y455672D01*
X386104Y455394D01*
X386382Y455228D01*
X386659Y455117D01*
X386909Y455061D01*
X387076Y455033D01*
X387131D01*
X387409Y455061D01*
X387659Y455089D01*
X387853Y455172D01*
X388020Y455256D01*
X388297Y455505D01*
X388492Y455783D01*
X388603Y456061D01*
X388658Y456311D01*
X388686Y456477D01*
Y475022D01*
D02*
G37*
G36*
X329386Y474772D02*
X318559D01*
X318337Y474744D01*
X318142Y474689D01*
X317948Y474633D01*
X317781Y474550D01*
X317670Y474439D01*
X317559Y474384D01*
X317504Y474328D01*
X317476Y474300D01*
X317337Y474134D01*
X317226Y473939D01*
X317143Y473773D01*
X317087Y473606D01*
X317060Y473467D01*
X317032Y473356D01*
Y473357D01*
Y473356D01*
Y456782D01*
X317060Y456560D01*
X317115Y456366D01*
X317171Y456172D01*
X317254Y456005D01*
X317337Y455894D01*
X317421Y455783D01*
X317448Y455727D01*
X317476Y455700D01*
X317670Y455561D01*
X317837Y455450D01*
X318031Y455367D01*
X318198Y455311D01*
X318337Y455283D01*
X318448Y455256D01*
X329275D01*
D01*
X330802D01*
Y455311D01*
Y455256D01*
X329275D01*
X329525Y455283D01*
X329747Y455311D01*
X329941Y455394D01*
X330080Y455478D01*
X330219Y455533D01*
X330302Y455616D01*
X330358Y455644D01*
X330385Y455672D01*
X330524Y455839D01*
X330635Y456033D01*
X330691Y456227D01*
X330746Y456394D01*
X330774Y456560D01*
X330802Y456671D01*
Y455311D01*
Y468359D01*
Y456782D01*
X330774Y457032D01*
X330746Y457227D01*
X330663Y457421D01*
X330607Y457588D01*
X330524Y457699D01*
X330441Y457782D01*
X330413Y457837D01*
X330385Y457865D01*
X330219Y458004D01*
X330024Y458115D01*
X329858Y458198D01*
X329664Y458254D01*
X329525Y458282D01*
X329386Y458309D01*
X320058D01*
Y463556D01*
X328303D01*
X328553Y463584D01*
X328775Y463612D01*
X328969Y463695D01*
X329136Y463778D01*
X329275Y463834D01*
X329358Y463917D01*
X329414Y463945D01*
X329441Y463973D01*
X329580Y464139D01*
X329691Y464334D01*
X329775Y464500D01*
X329830Y464695D01*
X329858Y464833D01*
X329886Y464972D01*
Y465056D01*
Y465083D01*
X329858Y465361D01*
X329830Y465583D01*
X329747Y465805D01*
X329636Y465972D01*
X329386Y466249D01*
X329108Y466416D01*
X328803Y466527D01*
X328553Y466582D01*
X328442Y466610D01*
X320058D01*
Y471746D01*
X329275D01*
X329525Y471774D01*
X329747Y471802D01*
X329941Y471885D01*
X330080Y471968D01*
X330219Y472024D01*
X330302Y472107D01*
X330358Y472135D01*
X330385Y472163D01*
X330524Y472329D01*
X330635Y472496D01*
X330691Y472690D01*
X330746Y472857D01*
X330774Y473023D01*
X330802Y473134D01*
Y473245D01*
X330774Y473495D01*
X330746Y473690D01*
X330663Y473884D01*
X330607Y474050D01*
X330524Y474161D01*
X330441Y474245D01*
X330413Y474300D01*
X330385Y474328D01*
X330219Y474467D01*
X330024Y474578D01*
X329858Y474661D01*
X329664Y474717D01*
X329525Y474744D01*
X329386Y474772D01*
D02*
G37*
G36*
X611894Y474772D02*
X597125D01*
D01*
X598652D01*
X598429Y474745D01*
X598235Y474689D01*
X598041Y474633D01*
X597874Y474550D01*
X597763Y474439D01*
X597652Y474384D01*
X597597Y474328D01*
X597569Y474300D01*
X597430Y474134D01*
X597319Y473940D01*
X597236Y473773D01*
X597180Y473606D01*
X597152Y473467D01*
X597125Y473357D01*
Y455033D01*
D01*
Y456533D01*
X597152Y456283D01*
X597180Y456033D01*
X597263Y455839D01*
X597374Y455672D01*
X597597Y455394D01*
X597902Y455228D01*
X598180Y455117D01*
X598402Y455061D01*
X598596Y455033D01*
X598652D01*
X598929Y455061D01*
X599151Y455089D01*
X599346Y455172D01*
X599512Y455256D01*
X599790Y455505D01*
X599956Y455783D01*
X600067Y456061D01*
X600123Y456311D01*
X600151Y456477D01*
Y456505D01*
Y456533D01*
Y462446D01*
X605703D01*
X606203Y462474D01*
X606675Y462529D01*
X607119Y462612D01*
X607536Y462724D01*
X607924Y462862D01*
X608285Y463001D01*
X608618Y463168D01*
X608924Y463334D01*
X609201Y463473D01*
X609451Y463640D01*
X609645Y463778D01*
X609840Y463917D01*
X609978Y464028D01*
X610062Y464112D01*
X610117Y464167D01*
X610145Y464195D01*
X610451Y464528D01*
X610728Y464889D01*
X610950Y465250D01*
X611144Y465611D01*
X611339Y465999D01*
X611478Y466360D01*
X611672Y467054D01*
X611755Y467388D01*
X611811Y467665D01*
X611839Y467943D01*
X611866Y468165D01*
X611894Y468359D01*
Y465444D01*
Y468609D01*
D01*
X611866Y469109D01*
X611811Y469553D01*
X611728Y469997D01*
X611617Y470414D01*
X611478Y470802D01*
X611339Y471191D01*
X611172Y471524D01*
X611034Y471830D01*
X610867Y472079D01*
X610700Y472329D01*
X610561Y472524D01*
X610423Y472718D01*
X610312Y472857D01*
X610228Y472940D01*
X610173Y472996D01*
X610145Y473023D01*
X609812Y473329D01*
X609451Y473606D01*
X609090Y473828D01*
X608702Y474023D01*
X608341Y474217D01*
X607980Y474356D01*
X607258Y474550D01*
X606953Y474633D01*
X606647Y474689D01*
X606370Y474717D01*
X606147Y474745D01*
X605953Y474772D01*
X611894D01*
D02*
G37*
G36*
X683132Y474772D02*
X668362D01*
D01*
X669889D01*
X669667Y474745D01*
X669473Y474689D01*
X669279Y474634D01*
X669112Y474550D01*
X669001Y474439D01*
X668890Y474384D01*
X668834Y474328D01*
X668807Y474300D01*
X668668Y474134D01*
X668557Y473940D01*
X668474Y473773D01*
X668418Y473606D01*
X668390Y473468D01*
X668362Y473357D01*
Y455033D01*
D01*
Y456533D01*
X668390Y456283D01*
X668418Y456033D01*
X668501Y455839D01*
X668612Y455672D01*
X668834Y455394D01*
X669140Y455228D01*
X669417Y455117D01*
X669640Y455061D01*
X669834Y455033D01*
X669889D01*
X670167Y455061D01*
X670389Y455089D01*
X670583Y455172D01*
X670750Y455256D01*
X671028Y455505D01*
X671194Y455783D01*
X671305Y456061D01*
X671361Y456311D01*
X671388Y456477D01*
Y456505D01*
Y456533D01*
Y462446D01*
X676941D01*
X677441Y462474D01*
X677913Y462529D01*
X678357Y462612D01*
X678773Y462724D01*
X679162Y462862D01*
X679523Y463001D01*
X679856Y463168D01*
X680161Y463334D01*
X680439Y463473D01*
X680689Y463640D01*
X680883Y463778D01*
X681077Y463917D01*
X681216Y464028D01*
X681300Y464112D01*
X681355Y464167D01*
X681383Y464195D01*
X681688Y464528D01*
X681966Y464889D01*
X682188Y465250D01*
X682382Y465611D01*
X682577Y465999D01*
X682716Y466360D01*
X682910Y467054D01*
X682993Y467388D01*
X683049Y467665D01*
X683076Y467943D01*
X683104Y468165D01*
X683132Y468359D01*
Y465416D01*
Y468637D01*
Y468609D01*
X683104Y469109D01*
X683049Y469553D01*
X682965Y469997D01*
X682854Y470414D01*
X682716Y470802D01*
X682577Y471191D01*
X682410Y471524D01*
X682271Y471830D01*
X682105Y472079D01*
X681938Y472329D01*
X681799Y472524D01*
X681661Y472718D01*
X681550Y472857D01*
X681466Y472940D01*
X681411Y472996D01*
X681383Y473023D01*
X681050Y473329D01*
X680689Y473606D01*
X680328Y473829D01*
X679939Y474023D01*
X679578Y474217D01*
X679218Y474356D01*
X678496Y474550D01*
X678190Y474634D01*
X677885Y474689D01*
X677607Y474717D01*
X677385Y474745D01*
X677191Y474772D01*
X683132D01*
D02*
G37*
G36*
X556203Y475022D02*
D01*
Y465028D01*
X556175Y465750D01*
X556092Y466416D01*
X555981Y467082D01*
X555842Y467721D01*
X555676Y468304D01*
X555481Y468887D01*
X555259Y469386D01*
X555065Y469886D01*
X554843Y470303D01*
X554621Y470691D01*
X554426Y471025D01*
X554260Y471302D01*
X554121Y471524D01*
X554010Y471691D01*
X553927Y471802D01*
X553899Y471830D01*
X553427Y472385D01*
X552927Y472884D01*
X552400Y473301D01*
X551872Y473690D01*
X551345Y473995D01*
X550817Y474245D01*
X550318Y474467D01*
X549846Y474633D01*
X549374Y474745D01*
X548957Y474856D01*
X548596Y474939D01*
X548291Y474967D01*
X548013Y474995D01*
X547819Y475022D01*
X556203D01*
X539102D01*
X547652D01*
X546958Y474995D01*
X546320Y474883D01*
X545681Y474717D01*
X545098Y474523D01*
X544543Y474273D01*
X544043Y474023D01*
X543544Y473717D01*
X543127Y473440D01*
X542738Y473134D01*
X542405Y472829D01*
X542100Y472579D01*
X541850Y472329D01*
X541656Y472135D01*
X541517Y471968D01*
X541434Y471857D01*
X541406Y471830D01*
X540989Y471274D01*
X540656Y470691D01*
X540351Y470108D01*
X540073Y469525D01*
X539851Y468942D01*
X539657Y468387D01*
X539518Y467832D01*
X539379Y467332D01*
X539296Y466832D01*
X539213Y466416D01*
X539185Y466027D01*
X539129Y465666D01*
Y465416D01*
X539102Y465194D01*
Y465028D01*
X539129Y464306D01*
X539213Y463640D01*
X539324Y462973D01*
X539463Y462335D01*
X539629Y461724D01*
X539823Y461169D01*
X540046Y460641D01*
X540268Y460169D01*
X540462Y459725D01*
X540684Y459337D01*
X540878Y459003D01*
X541045Y458726D01*
X541184Y458504D01*
X541295Y458337D01*
X541378Y458226D01*
X541406Y458198D01*
X541878Y457643D01*
X542405Y457143D01*
X542905Y456727D01*
X543433Y456366D01*
X543960Y456061D01*
X544487Y455811D01*
X544987Y455589D01*
X545459Y455422D01*
X545931Y455311D01*
X546348Y455200D01*
X546708Y455145D01*
X547042Y455089D01*
X547291Y455061D01*
X547486Y455033D01*
X547652D01*
X548346Y455061D01*
X548985Y455172D01*
X549623Y455339D01*
X550206Y455533D01*
X550762Y455755D01*
X551289Y456033D01*
X551761Y456311D01*
X552178Y456616D01*
X552566Y456921D01*
X552900Y457199D01*
X553205Y457477D01*
X553455Y457699D01*
X553649Y457921D01*
X553788Y458060D01*
X553871Y458171D01*
X553899Y458198D01*
X554315Y458754D01*
X554649Y459337D01*
X554982Y459920D01*
X555232Y460530D01*
X555454Y461113D01*
X555648Y461669D01*
X555787Y462224D01*
X555925Y462724D01*
X556009Y463223D01*
X556092Y463640D01*
X556120Y464056D01*
X556175Y464389D01*
Y464639D01*
X556203Y464861D01*
Y455505D01*
Y475022D01*
D02*
G37*
G36*
X521056D02*
D01*
Y465028D01*
X521028Y465750D01*
X520945Y466416D01*
X520834Y467082D01*
X520695Y467721D01*
X520529Y468304D01*
X520334Y468887D01*
X520112Y469386D01*
X519918Y469886D01*
X519696Y470303D01*
X519474Y470691D01*
X519279Y471025D01*
X519113Y471302D01*
X518974Y471524D01*
X518863Y471691D01*
X518780Y471802D01*
X518752Y471830D01*
X518280Y472385D01*
X517780Y472884D01*
X517253Y473301D01*
X516725Y473690D01*
X516198Y473995D01*
X515670Y474245D01*
X515171Y474467D01*
X514699Y474633D01*
X514227Y474745D01*
X513810Y474856D01*
X513449Y474939D01*
X513144Y474967D01*
X512866Y474994D01*
X512672Y475022D01*
X521056Y475022D01*
X503955Y475022D01*
D01*
X512505D01*
X511811Y474994D01*
X511173Y474883D01*
X510534Y474717D01*
X509951Y474523D01*
X509396Y474273D01*
X508896Y474023D01*
X508397Y473717D01*
X507980Y473440D01*
X507592Y473134D01*
X507258Y472829D01*
X506953Y472579D01*
X506703Y472329D01*
X506509Y472135D01*
X506370Y471968D01*
X506287Y471857D01*
X506259Y471829D01*
X505843Y471274D01*
X505509Y470691D01*
X505204Y470108D01*
X504926Y469525D01*
X504704Y468942D01*
X504510Y468387D01*
X504371Y467832D01*
X504232Y467332D01*
X504149Y466832D01*
X504066Y466416D01*
X504038Y466027D01*
X503983Y465666D01*
Y465416D01*
X503955Y465194D01*
Y465028D01*
X503983Y464306D01*
X504066Y463640D01*
X504177Y462973D01*
X504316Y462335D01*
X504482Y461724D01*
X504677Y461169D01*
X504899Y460641D01*
X505121Y460169D01*
X505315Y459725D01*
X505537Y459337D01*
X505732Y459003D01*
X505898Y458726D01*
X506037Y458504D01*
X506148Y458337D01*
X506231Y458226D01*
X506259Y458198D01*
X506731Y457643D01*
X507258Y457143D01*
X507758Y456727D01*
X508286Y456366D01*
X508813Y456061D01*
X509341Y455811D01*
X509840Y455589D01*
X510312Y455422D01*
X510784Y455311D01*
X511201Y455200D01*
X511562Y455145D01*
X511895Y455089D01*
X512145Y455061D01*
X512339Y455033D01*
X512505D01*
X513200Y455061D01*
X513838Y455172D01*
X514477Y455339D01*
X515060Y455533D01*
X515615Y455755D01*
X516142Y456033D01*
X516614Y456311D01*
X517031Y456616D01*
X517419Y456921D01*
X517752Y457199D01*
X518058Y457477D01*
X518308Y457699D01*
X518502Y457921D01*
X518641Y458060D01*
X518724Y458171D01*
X518752Y458198D01*
X519168Y458754D01*
X519501Y459337D01*
X519835Y459920D01*
X520084Y460530D01*
X520307Y461113D01*
X520501Y461669D01*
X520640Y462224D01*
X520779Y462724D01*
X520862Y463223D01*
X520945Y463640D01*
X520973Y464056D01*
X521028Y464389D01*
Y464639D01*
X521056Y464861D01*
Y455200D01*
Y475022D01*
D02*
G37*
G36*
X258537Y475022D02*
D01*
Y465028D01*
X258509Y465750D01*
X258426Y466416D01*
X258315Y467082D01*
X258176Y467721D01*
X258009Y468304D01*
X257815Y468887D01*
X257593Y469386D01*
X257399Y469886D01*
X257176Y470303D01*
X256954Y470691D01*
X256760Y471024D01*
X256593Y471302D01*
X256455Y471524D01*
X256344Y471691D01*
X256260Y471802D01*
X256233Y471829D01*
X255761Y472385D01*
X255261Y472884D01*
X254733Y473301D01*
X254206Y473690D01*
X253678Y473995D01*
X253151Y474245D01*
X252651Y474467D01*
X252179Y474633D01*
X251707Y474744D01*
X251291Y474856D01*
X250930Y474939D01*
X250625Y474967D01*
X250347Y474994D01*
X250153Y475022D01*
X258537D01*
X241435D01*
X249986D01*
X249292Y474994D01*
X248654Y474883D01*
X248015Y474717D01*
X247432Y474522D01*
X246877Y474273D01*
X246377Y474023D01*
X245877Y473717D01*
X245461Y473440D01*
X245072Y473134D01*
X244739Y472829D01*
X244434Y472579D01*
X244184Y472329D01*
X243990Y472135D01*
X243851Y471968D01*
X243767Y471857D01*
X243740Y471829D01*
X243323Y471274D01*
X242990Y470691D01*
X242685Y470108D01*
X242407Y469525D01*
X242185Y468942D01*
X241991Y468387D01*
X241852Y467832D01*
X241713Y467332D01*
X241630Y466832D01*
X241546Y466416D01*
X241519Y466027D01*
X241463Y465666D01*
Y465416D01*
X241435Y465194D01*
Y465028D01*
X241463Y464306D01*
X241546Y463640D01*
X241657Y462973D01*
X241796Y462335D01*
X241963Y461724D01*
X242157Y461169D01*
X242379Y460641D01*
X242601Y460169D01*
X242796Y459725D01*
X243018Y459337D01*
X243212Y459003D01*
X243379Y458726D01*
X243517Y458504D01*
X243629Y458337D01*
X243712Y458226D01*
X243740Y458198D01*
X244212Y457643D01*
X244739Y457143D01*
X245239Y456727D01*
X245766Y456366D01*
X246294Y456061D01*
X246821Y455811D01*
X247321Y455589D01*
X247793Y455422D01*
X248265Y455311D01*
X248681Y455200D01*
X249042Y455144D01*
X249375Y455089D01*
X249625Y455061D01*
X249820Y455033D01*
X249986D01*
X250680Y455061D01*
X251319Y455172D01*
X251957Y455339D01*
X252540Y455533D01*
X253095Y455755D01*
X253623Y456033D01*
X254095Y456310D01*
X254511Y456616D01*
X254900Y456921D01*
X255233Y457199D01*
X255539Y457477D01*
X255788Y457699D01*
X255983Y457921D01*
X256122Y458060D01*
X256205Y458171D01*
X256233Y458198D01*
X256649Y458754D01*
X256982Y459337D01*
X257315Y459920D01*
X257565Y460530D01*
X257787Y461113D01*
X257982Y461669D01*
X258120Y462224D01*
X258259Y462724D01*
X258342Y463223D01*
X258426Y463640D01*
X258454Y464056D01*
X258509Y464389D01*
Y464639D01*
X258537Y464861D01*
Y455256D01*
Y475022D01*
D02*
G37*
G36*
X628468Y474772D02*
X614698D01*
D01*
X616225D01*
X616003Y474745D01*
X615809Y474689D01*
X615614Y474633D01*
X615448Y474550D01*
X615337Y474439D01*
X615226Y474384D01*
X615170Y474328D01*
X615142Y474300D01*
X615004Y474134D01*
X614892Y473940D01*
X614809Y473773D01*
X614754Y473606D01*
X614726Y473467D01*
X614698Y473357D01*
Y455256D01*
Y456782D01*
X614726Y456560D01*
X614781Y456366D01*
X614837Y456172D01*
X614920Y456005D01*
X615004Y455894D01*
X615087Y455783D01*
X615115Y455728D01*
X615142Y455700D01*
X615337Y455561D01*
X615503Y455450D01*
X615698Y455367D01*
X615864Y455311D01*
X616003Y455283D01*
X616114Y455256D01*
X626941D01*
X627191Y455283D01*
X627413Y455311D01*
X627607Y455394D01*
X627746Y455478D01*
X627885Y455533D01*
X627968Y455616D01*
X628024Y455644D01*
X628052Y455672D01*
X628190Y455839D01*
X628302Y456033D01*
X628357Y456227D01*
X628413Y456394D01*
X628440Y456560D01*
X628468Y456671D01*
Y456782D01*
Y456782D01*
X628440Y457032D01*
X628413Y457227D01*
X628329Y457421D01*
X628274Y457588D01*
X628190Y457699D01*
X628107Y457782D01*
X628079Y457837D01*
X628052Y457865D01*
X627885Y458004D01*
X627691Y458115D01*
X627524Y458198D01*
X627330Y458254D01*
X627191Y458282D01*
X627052Y458309D01*
X617724D01*
Y463556D01*
X625970D01*
X626219Y463584D01*
X626441Y463612D01*
X626636Y463695D01*
X626802Y463778D01*
X626941Y463834D01*
X627024Y463917D01*
X627080Y463945D01*
X627108Y463973D01*
X627247Y464139D01*
X627358Y464334D01*
X627441Y464500D01*
X627496Y464695D01*
X627524Y464833D01*
X627552Y464972D01*
Y465056D01*
Y465083D01*
X627524Y465361D01*
X627496Y465583D01*
X627413Y465805D01*
X627302Y465972D01*
X627052Y466249D01*
X626775Y466416D01*
X626469Y466527D01*
X626219Y466582D01*
X626108Y466610D01*
X617724D01*
Y471746D01*
X626941D01*
X627191Y471774D01*
X627413Y471802D01*
X627607Y471885D01*
X627746Y471968D01*
X627885Y472024D01*
X627968Y472107D01*
X628024Y472135D01*
X628052Y472163D01*
X628190Y472329D01*
X628302Y472496D01*
X628357Y472690D01*
X628413Y472857D01*
X628440Y473023D01*
X628468Y473134D01*
Y459725D01*
Y473245D01*
X628440Y473495D01*
X628413Y473690D01*
X628329Y473884D01*
X628274Y474050D01*
X628190Y474162D01*
X628107Y474245D01*
X628079Y474300D01*
X628052Y474328D01*
X627885Y474467D01*
X627691Y474578D01*
X627524Y474661D01*
X627330Y474717D01*
X627191Y474745D01*
X627052Y474772D01*
X628468D01*
D01*
D02*
G37*
G36*
X719362Y475022D02*
X704842D01*
D01*
X712421D01*
X712005Y474967D01*
X711227Y474828D01*
X710533Y474634D01*
X709895Y474412D01*
X709617Y474300D01*
X709367Y474189D01*
X709173Y474078D01*
X708979Y473995D01*
X708840Y473912D01*
X708729Y473856D01*
X708673Y473829D01*
X708645Y473801D01*
X707951Y473301D01*
X707341Y472774D01*
X706841Y472218D01*
X706452Y471691D01*
X706119Y471247D01*
X706008Y471025D01*
X705897Y470858D01*
X705841Y470719D01*
X705786Y470608D01*
X705730Y470552D01*
Y470525D01*
X705647Y470247D01*
X705592Y470025D01*
X705564Y469886D01*
Y469859D01*
Y469831D01*
X705592Y469609D01*
X705647Y469386D01*
X705703Y469220D01*
X705814Y469053D01*
X705897Y468915D01*
X705953Y468831D01*
X706008Y468776D01*
X706036Y468748D01*
X706230Y468609D01*
X706424Y468498D01*
X706619Y468443D01*
X706785Y468387D01*
X706924Y468359D01*
X707035Y468331D01*
X707146D01*
X707452Y468359D01*
X707701Y468470D01*
X707924Y468609D01*
X708118Y468776D01*
X708285Y468942D01*
X708395Y469081D01*
X708451Y469192D01*
X708479Y469220D01*
X708784Y469692D01*
X709117Y470136D01*
X709451Y470497D01*
X709811Y470802D01*
X710172Y471080D01*
X710533Y471302D01*
X710894Y471469D01*
X711227Y471635D01*
X711560Y471746D01*
X711866Y471830D01*
X712143Y471885D01*
X712365Y471913D01*
X712560Y471941D01*
X712726Y471968D01*
X712838D01*
X713420Y471941D01*
X713948Y471857D01*
X714392Y471746D01*
X714781Y471580D01*
X715114Y471385D01*
X715364Y471191D01*
X715586Y470941D01*
X715780Y470719D01*
X715919Y470497D01*
X716030Y470275D01*
X716086Y470053D01*
X716141Y469859D01*
X716169Y469692D01*
X716197Y469581D01*
Y469498D01*
Y469470D01*
X716169Y469109D01*
X716086Y468748D01*
X715947Y468470D01*
X715836Y468193D01*
X715697Y467998D01*
X715558Y467832D01*
X715475Y467721D01*
X715447Y467693D01*
X715170Y467443D01*
X714864Y467277D01*
X714586Y467138D01*
X714309Y467054D01*
X714059Y466999D01*
X713865Y466971D01*
X711366D01*
X711116Y466943D01*
X710894Y466916D01*
X710700Y466832D01*
X710533Y466749D01*
X710394Y466666D01*
X710283Y466610D01*
X710228Y466555D01*
X710200Y466527D01*
X710061Y466360D01*
X709950Y466194D01*
X709867Y465999D01*
X709811Y465833D01*
X709784Y465666D01*
X709756Y465555D01*
Y465472D01*
Y465444D01*
X709784Y465194D01*
X709839Y465000D01*
X709895Y464806D01*
X709978Y464639D01*
X710061Y464500D01*
X710145Y464417D01*
X710172Y464362D01*
X710200Y464334D01*
X710394Y464195D01*
X710589Y464084D01*
X710783Y464028D01*
X710950Y463973D01*
X711116Y463945D01*
X711255Y463917D01*
X713698D01*
X714087Y463890D01*
X714448Y463806D01*
X714753Y463667D01*
X715031Y463529D01*
X715225Y463390D01*
X715392Y463251D01*
X715503Y463168D01*
X715530Y463140D01*
X715780Y462835D01*
X715975Y462529D01*
X716113Y462224D01*
X716225Y461918D01*
X716280Y461669D01*
X716308Y461474D01*
Y461335D01*
Y461280D01*
X716280Y460808D01*
X716169Y460364D01*
X716002Y459975D01*
X715836Y459642D01*
X715669Y459364D01*
X715503Y459170D01*
X715392Y459059D01*
X715364Y459003D01*
X715003Y458698D01*
X714614Y458448D01*
X714226Y458282D01*
X713865Y458171D01*
X713559Y458115D01*
X713309Y458087D01*
X713143Y458060D01*
X712338D01*
X711810Y458087D01*
X711311Y458171D01*
X710839Y458309D01*
X710394Y458476D01*
X709978Y458670D01*
X709617Y458892D01*
X709256Y459142D01*
X708923Y459392D01*
X708645Y459642D01*
X708395Y459892D01*
X708173Y460114D01*
X708007Y460308D01*
X707868Y460475D01*
X707757Y460614D01*
X707701Y460697D01*
X707674Y460725D01*
X707479Y460975D01*
X707257Y461169D01*
X707063Y461280D01*
X706869Y461391D01*
X706702Y461446D01*
X706563Y461474D01*
X706424D01*
X706202Y461446D01*
X705980Y461419D01*
X705786Y461335D01*
X705619Y461252D01*
X705508Y461169D01*
X705397Y461113D01*
X705342Y461058D01*
X705314Y461030D01*
X705147Y460863D01*
X705036Y460669D01*
X704953Y460503D01*
X704898Y460336D01*
X704870Y460197D01*
X704842Y460086D01*
Y455033D01*
D01*
Y459975D01*
X704870Y459697D01*
X704953Y459420D01*
X705008Y459337D01*
X705036Y459253D01*
X705064Y459198D01*
Y459170D01*
X705480Y458476D01*
X705980Y457893D01*
X706480Y457365D01*
X706980Y456921D01*
X707452Y456588D01*
X707646Y456449D01*
X707812Y456338D01*
X707951Y456227D01*
X708062Y456172D01*
X708118Y456144D01*
X708146Y456116D01*
X708895Y455755D01*
X709645Y455478D01*
X710339Y455311D01*
X711005Y455172D01*
X711283Y455117D01*
X711533Y455089D01*
X711783Y455061D01*
X711977D01*
X712116Y455033D01*
X713087D01*
X713559Y455061D01*
X714031Y455117D01*
X714448Y455200D01*
X714864Y455311D01*
X715614Y455616D01*
X715947Y455783D01*
X716252Y455950D01*
X716530Y456116D01*
X716780Y456283D01*
X717002Y456449D01*
X717168Y456588D01*
X717307Y456699D01*
X717418Y456782D01*
X717474Y456838D01*
X717502Y456866D01*
X717835Y457227D01*
X718112Y457588D01*
X718362Y457948D01*
X718584Y458337D01*
X718751Y458698D01*
X718917Y459087D01*
X719139Y459781D01*
X719195Y460086D01*
X719251Y460392D01*
X719306Y460641D01*
X719334Y460863D01*
X719362Y461058D01*
Y461335D01*
Y461308D01*
X719334Y461752D01*
X719278Y462196D01*
X719195Y462612D01*
X719084Y463001D01*
X718779Y463723D01*
X718612Y464028D01*
X718446Y464306D01*
X718279Y464584D01*
X718112Y464806D01*
X717946Y465000D01*
X717807Y465167D01*
X717696Y465305D01*
X717613Y465389D01*
X717557Y465444D01*
X717529Y465472D01*
X717835Y465805D01*
X718084Y466111D01*
X718334Y466471D01*
X718529Y466805D01*
X718695Y467138D01*
X718834Y467471D01*
X719028Y468110D01*
X719112Y468387D01*
X719167Y468637D01*
X719195Y468887D01*
X719223Y469081D01*
X719251Y469248D01*
Y469359D01*
Y469442D01*
Y469470D01*
X719223Y469969D01*
X719167Y470414D01*
X719084Y470858D01*
X718945Y471274D01*
X718806Y471635D01*
X718668Y471968D01*
X718473Y472301D01*
X718307Y472579D01*
X718140Y472829D01*
X717973Y473051D01*
X717807Y473246D01*
X717668Y473384D01*
X717529Y473495D01*
X717446Y473606D01*
X717391Y473634D01*
X717363Y473662D01*
X717030Y473912D01*
X716669Y474106D01*
X716308Y474300D01*
X715919Y474439D01*
X715170Y474689D01*
X714448Y474856D01*
X714115Y474911D01*
X713809Y474939D01*
X713531Y474995D01*
X713309D01*
X713115Y475022D01*
X719362D01*
D02*
G37*
G36*
X220780Y475022D02*
D01*
Y456782D01*
X220753Y457005D01*
X220697Y457199D01*
X220641Y457393D01*
X220558Y457532D01*
X220447Y457671D01*
X220392Y457754D01*
X220336Y457810D01*
X220308Y457837D01*
X220142Y458004D01*
X219947Y458115D01*
X219781Y458198D01*
X219614Y458254D01*
X219475Y458282D01*
X219364Y458309D01*
X218837D01*
X212674Y474050D01*
X212618Y474161D01*
X212535Y474273D01*
X212341Y474495D01*
X212146Y474633D01*
X212091Y474661D01*
X212063Y474689D01*
X211896Y474800D01*
X211730Y474883D01*
X211480Y474994D01*
X211313Y475022D01*
X201125D01*
X210508D01*
X210369Y474967D01*
X210120Y474856D01*
X209981Y474800D01*
X209897Y474744D01*
X209842Y474717D01*
X209814Y474689D01*
X209648Y474578D01*
X209537Y474439D01*
X209426Y474328D01*
X209342Y474245D01*
X209259Y474106D01*
X209231Y474078D01*
Y474050D01*
X203068Y458309D01*
X202679D01*
X202457Y458282D01*
X202263Y458226D01*
X202069Y458171D01*
X201902Y458087D01*
X201791Y457976D01*
X201680Y457921D01*
X201624Y457865D01*
X201597Y457837D01*
X201430Y457671D01*
X201319Y457476D01*
X201236Y457310D01*
X201180Y457143D01*
X201152Y457005D01*
X201125Y456893D01*
Y450119D01*
Y451730D01*
X201152Y451480D01*
X201180Y451258D01*
X201263Y451063D01*
X201347Y450897D01*
X201402Y450758D01*
X201486Y450675D01*
X201513Y450619D01*
X201541Y450591D01*
X201708Y450425D01*
X201902Y450314D01*
X202096Y450230D01*
X202291Y450175D01*
X202429Y450147D01*
X202568Y450119D01*
X202679D01*
D01*
X220780D01*
Y451674D01*
Y475022D01*
D02*
G37*
G36*
X775941Y474856D02*
Y456311D01*
X775913Y456560D01*
X775885Y456755D01*
X775858Y456894D01*
X775830Y456949D01*
X768945Y473884D01*
X768889Y473995D01*
X768806Y474106D01*
X768612Y474328D01*
X768417Y474467D01*
X768362Y474495D01*
X768334Y474523D01*
X768168Y474634D01*
X768001Y474717D01*
X767751Y474828D01*
X767585Y474856D01*
X775941D01*
X758506D01*
D01*
X766779D01*
X766641Y474800D01*
X766391Y474689D01*
X766252Y474634D01*
X766169Y474578D01*
X766113Y474550D01*
X766085Y474523D01*
X765919Y474412D01*
X765808Y474273D01*
X765697Y474162D01*
X765613Y474078D01*
X765530Y473940D01*
X765502Y473912D01*
Y473884D01*
X758617Y456949D01*
X758562Y456727D01*
X758534Y456505D01*
X758506Y456366D01*
Y456311D01*
X758534Y456088D01*
X758590Y455866D01*
X758673Y455700D01*
X758756Y455533D01*
X758839Y455394D01*
X758923Y455311D01*
X758978Y455256D01*
X759006Y455228D01*
X759173Y455089D01*
X759367Y455006D01*
X759728Y454895D01*
X759867Y454867D01*
X759978Y454839D01*
X760089D01*
X760422Y454867D01*
X760699Y454978D01*
X760949Y455145D01*
X761144Y455311D01*
X761283Y455478D01*
X761366Y455644D01*
X761421Y455755D01*
X761449Y455783D01*
X762893Y459364D01*
X771554D01*
X772998Y455783D01*
X773165Y455478D01*
X773387Y455228D01*
X773609Y455061D01*
X773831Y454950D01*
X774025Y454895D01*
X774192Y454867D01*
X774331Y454839D01*
X774359D01*
X774581Y454867D01*
X774803Y454895D01*
X774997Y454978D01*
X775164Y455061D01*
X775275Y455117D01*
X775386Y455200D01*
X775441Y455228D01*
X775469Y455256D01*
X775636Y455422D01*
X775747Y455589D01*
X775830Y455783D01*
X775885Y455950D01*
X775913Y456088D01*
X775941Y456199D01*
Y474856D01*
D02*
G37*
G36*
X702760D02*
Y456311D01*
X702732Y456560D01*
X702704Y456755D01*
X702676Y456894D01*
X702649Y456949D01*
X695764Y473884D01*
X695708Y473995D01*
X695625Y474106D01*
X695431Y474328D01*
X695236Y474467D01*
X695181Y474495D01*
X695153Y474523D01*
X694986Y474634D01*
X694820Y474717D01*
X694570Y474828D01*
X694403Y474856D01*
X702760D01*
X685325D01*
X693598D01*
X693459Y474800D01*
X693210Y474689D01*
X693071Y474634D01*
X692988Y474578D01*
X692932Y474550D01*
X692904Y474523D01*
X692738Y474412D01*
X692627Y474273D01*
X692516Y474162D01*
X692432Y474078D01*
X692349Y473940D01*
X692321Y473912D01*
Y473884D01*
X685436Y456949D01*
X685381Y456727D01*
X685353Y456505D01*
X685325Y456366D01*
Y456311D01*
X685353Y456088D01*
X685408Y455866D01*
X685492Y455700D01*
X685575Y455533D01*
X685658Y455394D01*
X685742Y455311D01*
X685797Y455256D01*
X685825Y455228D01*
X685991Y455089D01*
X686186Y455006D01*
X686547Y454895D01*
X686685Y454867D01*
X686796Y454839D01*
X691716D01*
X686908D01*
X687241Y454867D01*
X687518Y454978D01*
X687768Y455145D01*
X687963Y455311D01*
X688101Y455478D01*
X688185Y455644D01*
X688240Y455755D01*
X688268Y455783D01*
X689712Y459364D01*
X698373D01*
X699817Y455783D01*
X699984Y455478D01*
X700206Y455228D01*
X700428Y455061D01*
X700650Y454950D01*
X700844Y454895D01*
X701011Y454867D01*
X701150Y454839D01*
X701177D01*
X701400Y454867D01*
X701622Y454895D01*
X701816Y454978D01*
X701982Y455061D01*
X702094Y455117D01*
X702205Y455200D01*
X702260Y455228D01*
X702288Y455256D01*
X702454Y455422D01*
X702566Y455589D01*
X702649Y455783D01*
X702704Y455950D01*
X702732Y456088D01*
X702760Y456199D01*
Y474856D01*
D02*
G37*
G36*
X295683Y474772D02*
X280913D01*
D01*
X282440D01*
X282218Y474744D01*
X282024Y474689D01*
X281829Y474633D01*
X281663Y474550D01*
X281552Y474439D01*
X281441Y474384D01*
X281385Y474328D01*
X281357Y474300D01*
X281219Y474134D01*
X281108Y473939D01*
X281024Y473773D01*
X280969Y473606D01*
X280941Y473467D01*
X280913Y473356D01*
Y456533D01*
X280941Y456283D01*
X280969Y456033D01*
X281052Y455839D01*
X281163Y455672D01*
X281385Y455394D01*
X281691Y455228D01*
X281968Y455117D01*
X282190Y455061D01*
X282385Y455033D01*
X282440D01*
X282718Y455061D01*
X282940Y455089D01*
X283134Y455172D01*
X283301Y455256D01*
X283578Y455505D01*
X283745Y455783D01*
X283856Y456061D01*
X283911Y456310D01*
X283939Y456477D01*
Y456505D01*
Y456533D01*
Y462446D01*
X289492D01*
X289991Y462474D01*
X290463Y462529D01*
X290908Y462612D01*
X291324Y462724D01*
X291713Y462862D01*
X292074Y463001D01*
X292407Y463168D01*
X292712Y463334D01*
X292990Y463473D01*
X293240Y463640D01*
X293434Y463778D01*
X293628Y463917D01*
X293767Y464028D01*
X293850Y464112D01*
X293906Y464167D01*
X293934Y464195D01*
X294239Y464528D01*
X294517Y464889D01*
X294739Y465250D01*
X294933Y465611D01*
X295127Y465999D01*
X295266Y466360D01*
X295461Y467054D01*
X295544Y467388D01*
X295599Y467665D01*
X295627Y467943D01*
X295655Y468165D01*
X295683Y468359D01*
Y455783D01*
Y468609D01*
X295655Y469109D01*
X295599Y469553D01*
X295516Y469997D01*
X295405Y470414D01*
X295266Y470802D01*
X295127Y471191D01*
X294961Y471524D01*
X294822Y471829D01*
X294655Y472079D01*
X294489Y472329D01*
X294350Y472524D01*
X294211Y472718D01*
X294100Y472857D01*
X294017Y472940D01*
X293961Y472995D01*
X293934Y473023D01*
X293601Y473329D01*
X293240Y473606D01*
X292879Y473828D01*
X292490Y474023D01*
X292129Y474217D01*
X291768Y474356D01*
X291046Y474550D01*
X290741Y474633D01*
X290436Y474689D01*
X290158Y474717D01*
X289936Y474744D01*
X289742Y474772D01*
X295683D01*
D02*
G37*
G36*
X756313Y474772D02*
X741544D01*
D01*
X743071D01*
X742848Y474745D01*
X742654Y474689D01*
X742460Y474634D01*
X742293Y474550D01*
X742182Y474439D01*
X742071Y474384D01*
X742016Y474328D01*
X741988Y474300D01*
X741849Y474134D01*
X741738Y473940D01*
X741655Y473773D01*
X741599Y473606D01*
X741571Y473468D01*
X741544Y473357D01*
Y455256D01*
Y456782D01*
X741571Y456560D01*
X741627Y456366D01*
X741682Y456172D01*
X741766Y456005D01*
X741849Y455894D01*
X741932Y455783D01*
X741960Y455728D01*
X741988Y455700D01*
X742182Y455561D01*
X742349Y455450D01*
X742543Y455367D01*
X742710Y455311D01*
X742848Y455283D01*
X742960Y455256D01*
X750483D01*
X750955Y455283D01*
X751371Y455339D01*
X751788Y455394D01*
X752177Y455505D01*
X752898Y455783D01*
X753204Y455922D01*
X753509Y456088D01*
X753759Y456227D01*
X753981Y456366D01*
X754175Y456505D01*
X754342Y456644D01*
X754481Y456755D01*
X754564Y456810D01*
X754620Y456866D01*
X754647Y456894D01*
X754953Y457227D01*
X755203Y457560D01*
X755425Y457893D01*
X755619Y458254D01*
X755786Y458587D01*
X755897Y458948D01*
X756119Y459614D01*
X756174Y459892D01*
X756230Y460169D01*
X756258Y460419D01*
X756285Y460641D01*
X756313Y460808D01*
Y461113D01*
Y461058D01*
X756285Y461558D01*
X756230Y462002D01*
X756146Y462446D01*
X756008Y462862D01*
X755869Y463251D01*
X755730Y463612D01*
X755536Y463945D01*
X755369Y464250D01*
X755203Y464500D01*
X755036Y464750D01*
X754870Y464945D01*
X754731Y465111D01*
X754592Y465250D01*
X754509Y465333D01*
X754453Y465389D01*
X754425Y465416D01*
X754703Y465722D01*
X754980Y466055D01*
X755175Y466360D01*
X755369Y466694D01*
X755536Y467027D01*
X755675Y467360D01*
X755869Y467943D01*
X755980Y468470D01*
X756008Y468693D01*
X756036Y468887D01*
X756063Y469053D01*
Y469164D01*
Y469248D01*
Y469276D01*
X756036Y469692D01*
X756008Y470108D01*
X755924Y470469D01*
X755813Y470858D01*
X755564Y471496D01*
X755258Y472079D01*
X755119Y472329D01*
X754953Y472524D01*
X754814Y472718D01*
X754703Y472885D01*
X754592Y472996D01*
X754536Y473079D01*
X754481Y473134D01*
X754453Y473162D01*
X754148Y473440D01*
X753814Y473690D01*
X753509Y473912D01*
X753176Y474106D01*
X752843Y474245D01*
X752510Y474384D01*
X751899Y474578D01*
X751371Y474689D01*
X751149Y474717D01*
X750955Y474745D01*
X750788Y474772D01*
X756313D01*
D02*
G37*
G36*
X665558D02*
X650789Y474772D01*
D01*
X652316D01*
X652094Y474745D01*
X651899Y474689D01*
X651705Y474633D01*
X651538Y474550D01*
X651428Y474439D01*
X651317Y474384D01*
X651261Y474328D01*
X651233Y474300D01*
X651094Y474134D01*
X650983Y473940D01*
X650900Y473773D01*
X650844Y473606D01*
X650817Y473467D01*
X650789Y473357D01*
Y455256D01*
Y456782D01*
X650817Y456560D01*
X650872Y456366D01*
X650928Y456172D01*
X651011Y456005D01*
X651094Y455894D01*
X651178Y455783D01*
X651205Y455728D01*
X651233Y455700D01*
X651428Y455561D01*
X651594Y455450D01*
X651788Y455367D01*
X651955Y455311D01*
X652094Y455283D01*
X652205Y455256D01*
X659728D01*
X660173Y455283D01*
X660589Y455339D01*
X661005Y455422D01*
X661394Y455533D01*
X662088Y455783D01*
X662394Y455950D01*
X662699Y456116D01*
X662949Y456255D01*
X663171Y456422D01*
X663365Y456560D01*
X663532Y456699D01*
X663671Y456782D01*
X663754Y456866D01*
X663809Y456921D01*
X663837Y456949D01*
X664143Y457282D01*
X664392Y457615D01*
X664642Y457948D01*
X664837Y458309D01*
X665003Y458643D01*
X665142Y459003D01*
X665336Y459642D01*
X665420Y459947D01*
X665475Y460197D01*
X665503Y460447D01*
X665531Y460641D01*
X665558Y460836D01*
Y461058D01*
X665531Y461502D01*
X665475Y461918D01*
X665392Y462335D01*
X665281Y462696D01*
X665003Y463390D01*
X664864Y463723D01*
X664698Y464001D01*
X664531Y464250D01*
X664392Y464473D01*
X664226Y464667D01*
X664115Y464833D01*
X664004Y464972D01*
X663921Y465056D01*
X663865Y465111D01*
X663837Y465139D01*
X663504Y465444D01*
X663171Y465694D01*
X662838Y465916D01*
X662477Y466110D01*
X662144Y466277D01*
X661783Y466416D01*
X661144Y466610D01*
X660867Y466694D01*
X660589Y466749D01*
X660339Y466777D01*
X660145Y466805D01*
X659950Y466832D01*
X653815D01*
Y471746D01*
X663421D01*
X663698Y471774D01*
X663921Y471802D01*
X664115Y471885D01*
X664281Y471968D01*
X664559Y472218D01*
X664726Y472496D01*
X664837Y472774D01*
X664892Y473023D01*
X664920Y473190D01*
Y473218D01*
Y473246D01*
X664892Y473523D01*
X664864Y473745D01*
X664781Y473967D01*
X664698Y474134D01*
X664448Y474412D01*
X664170Y474578D01*
X663893Y474689D01*
X663643Y474745D01*
X663476Y474772D01*
X665558D01*
D02*
G37*
G36*
X179553Y474772D02*
X164784D01*
D01*
X166311D01*
X166089Y474744D01*
X165894Y474689D01*
X165700Y474633D01*
X165534Y474550D01*
X165422Y474439D01*
X165311Y474384D01*
X165256Y474328D01*
X165228Y474300D01*
X165089Y474134D01*
X164978Y473939D01*
X164895Y473773D01*
X164839Y473606D01*
X164812Y473467D01*
X164784Y473356D01*
Y456533D01*
X164812Y456283D01*
X164839Y456033D01*
X164923Y455839D01*
X165034Y455672D01*
X165256Y455394D01*
X165561Y455228D01*
X165839Y455117D01*
X166061Y455061D01*
X166255Y455033D01*
X166311D01*
X166588Y455061D01*
X166810Y455089D01*
X167005Y455172D01*
X167171Y455256D01*
X167449Y455505D01*
X167616Y455783D01*
X167727Y456061D01*
X167782Y456310D01*
X167810Y456477D01*
Y456505D01*
Y456533D01*
Y462446D01*
X173362D01*
X173862Y462474D01*
X174334Y462529D01*
X174778Y462612D01*
X175195Y462724D01*
X175583Y462862D01*
X175944Y463001D01*
X176277Y463168D01*
X176583Y463334D01*
X176861Y463473D01*
X177110Y463640D01*
X177305Y463778D01*
X177499Y463917D01*
X177638Y464028D01*
X177721Y464112D01*
X177777Y464167D01*
X177804Y464195D01*
X178110Y464528D01*
X178387Y464889D01*
X178610Y465250D01*
X178804Y465611D01*
X178998Y465999D01*
X179137Y466360D01*
X179331Y467054D01*
X179415Y467388D01*
X179470Y467665D01*
X179498Y467943D01*
X179526Y468165D01*
X179553Y468359D01*
Y455256D01*
Y468609D01*
X179526Y469109D01*
X179470Y469553D01*
X179387Y469997D01*
X179276Y470414D01*
X179137Y470802D01*
X178998Y471191D01*
X178832Y471524D01*
X178693Y471829D01*
X178526Y472079D01*
X178360Y472329D01*
X178221Y472523D01*
X178082Y472718D01*
X177971Y472857D01*
X177888Y472940D01*
X177832Y472995D01*
X177804Y473023D01*
X177471Y473329D01*
X177110Y473606D01*
X176749Y473828D01*
X176361Y474023D01*
X176000Y474217D01*
X175639Y474356D01*
X174917Y474550D01*
X174612Y474633D01*
X174306Y474689D01*
X174029Y474717D01*
X173807Y474744D01*
X173612Y474772D01*
X179553D01*
D02*
G37*
G36*
X370141Y475078D02*
X355233D01*
X356759D01*
X356510Y475050D01*
X356315Y475022D01*
X356121Y474939D01*
X355954Y474856D01*
X355816Y474772D01*
X355732Y474717D01*
X355677Y474661D01*
X355649Y474633D01*
X355510Y474467D01*
X355399Y474273D01*
X355344Y474078D01*
X355288Y473912D01*
X355260Y473745D01*
X355233Y473606D01*
Y456533D01*
X355260Y456283D01*
X355288Y456088D01*
X355371Y455894D01*
X355455Y455755D01*
X355510Y455616D01*
X355593Y455533D01*
X355621Y455478D01*
X355649Y455450D01*
X355816Y455311D01*
X356010Y455200D01*
X356204Y455144D01*
X356371Y455089D01*
X356537Y455061D01*
X356648Y455033D01*
X356759D01*
X357037Y455061D01*
X357259Y455089D01*
X357481Y455172D01*
X357648Y455256D01*
X357925Y455505D01*
X358092Y455783D01*
X358203Y456061D01*
X358259Y456310D01*
X358286Y456477D01*
Y456505D01*
Y456533D01*
Y463806D01*
X367087D01*
Y456533D01*
X367115Y456283D01*
X367143Y456033D01*
X367226Y455839D01*
X367309Y455672D01*
X367559Y455394D01*
X367837Y455228D01*
X368114Y455117D01*
X368364Y455061D01*
X368531Y455033D01*
X368586D01*
X368836Y455061D01*
X369058Y455089D01*
X369253Y455172D01*
X369391Y455256D01*
X369530Y455311D01*
X369613Y455394D01*
X369669Y455422D01*
X369697Y455450D01*
X369836Y455616D01*
X369947Y455783D01*
X370030Y455977D01*
X370085Y456144D01*
X370113Y456310D01*
X370141Y456422D01*
Y455200D01*
Y473495D01*
X370113Y473745D01*
X370085Y473967D01*
X370002Y474161D01*
X369919Y474328D01*
X369836Y474467D01*
X369780Y474550D01*
X369725Y474606D01*
X369697Y474633D01*
X369530Y474772D01*
X369336Y474883D01*
X369169Y474967D01*
X368975Y475022D01*
X368836Y475050D01*
X368697Y475078D01*
X370141D01*
D01*
D02*
G37*
G36*
X479857Y474772D02*
X465060D01*
Y456533D01*
X465088Y456311D01*
X465143Y456088D01*
X465199Y455922D01*
X465310Y455755D01*
X465393Y455616D01*
X465448Y455533D01*
X465504Y455478D01*
X465532Y455450D01*
X465726Y455311D01*
X465920Y455200D01*
X466115Y455145D01*
X466281Y455089D01*
X466420Y455061D01*
X466531Y455033D01*
X466642D01*
X466892Y455061D01*
X467142Y455117D01*
X467336Y455228D01*
X467503Y455339D01*
X467642Y455422D01*
X467753Y455533D01*
X467808Y455589D01*
X467836Y455616D01*
X473361Y463057D01*
X476803D01*
Y456533D01*
X476831Y456283D01*
X476886Y456088D01*
X476942Y455894D01*
X477025Y455755D01*
X477109Y455616D01*
X477192Y455533D01*
X477220Y455478D01*
X477248Y455450D01*
X477414Y455311D01*
X477608Y455200D01*
X477775Y455145D01*
X477969Y455089D01*
X478108Y455061D01*
X478219Y455033D01*
X478330D01*
X478580Y455061D01*
X478774Y455089D01*
X478969Y455172D01*
X479135Y455256D01*
X479246Y455311D01*
X479330Y455394D01*
X479385Y455422D01*
X479413Y455450D01*
X479552Y455616D01*
X479663Y455783D01*
X479746Y455977D01*
X479802Y456144D01*
X479829Y456311D01*
X479857Y456422D01*
Y455144D01*
Y456422D01*
Y473245D01*
X479829Y473467D01*
X479774Y473662D01*
X479718Y473856D01*
X479635Y473995D01*
X479524Y474134D01*
X479468Y474217D01*
X479413Y474273D01*
X479385Y474300D01*
X479219Y474467D01*
X479024Y474578D01*
X478858Y474661D01*
X478691Y474717D01*
X478552Y474745D01*
X478441Y474772D01*
X479857D01*
D01*
D02*
G37*
G36*
X351596Y475022D02*
X333772D01*
D01*
X335299D01*
X335077Y474994D01*
X334883Y474939D01*
X334689Y474883D01*
X334522Y474800D01*
X334411Y474689D01*
X334300Y474633D01*
X334244Y474578D01*
X334217Y474550D01*
X334078Y474384D01*
X333967Y474189D01*
X333884Y474023D01*
X333828Y473856D01*
X333800Y473717D01*
X333772Y473606D01*
Y456533D01*
X333800Y456283D01*
X333856Y456061D01*
X333939Y455866D01*
X334050Y455700D01*
X334133Y455561D01*
X334217Y455478D01*
X334272Y455422D01*
X334300Y455394D01*
X334467Y455283D01*
X334633Y455200D01*
X334966Y455089D01*
X335105Y455061D01*
X335216Y455033D01*
X335299D01*
X335521Y455061D01*
X335716Y455089D01*
X336021Y455228D01*
X336160Y455283D01*
X336243Y455339D01*
X336299Y455367D01*
X336326Y455394D01*
X336493Y455561D01*
X336604Y455755D01*
X336715Y455950D01*
X336771Y456144D01*
X336799Y456283D01*
X336826Y456422D01*
Y456505D01*
Y456533D01*
Y469636D01*
X341463Y463334D01*
X341657Y463112D01*
X341851Y462973D01*
X342046Y462862D01*
X342240Y462779D01*
X342407Y462724D01*
X342545Y462696D01*
X342684D01*
X342962Y462724D01*
X343212Y462807D01*
X343434Y462890D01*
X343600Y463029D01*
X343739Y463140D01*
X343850Y463223D01*
X343906Y463307D01*
X343933Y463334D01*
X348542Y469664D01*
Y456533D01*
X348570Y456283D01*
X348625Y456061D01*
X348708Y455866D01*
X348792Y455700D01*
X348875Y455561D01*
X348958Y455478D01*
X349014Y455422D01*
X349042Y455394D01*
X349208Y455283D01*
X349403Y455200D01*
X349736Y455089D01*
X349874Y455061D01*
X349986Y455033D01*
X350069D01*
X350291Y455061D01*
X350485Y455089D01*
X350791Y455228D01*
X350929Y455283D01*
X351013Y455339D01*
X351068Y455367D01*
X351096Y455394D01*
X351263Y455561D01*
X351374Y455755D01*
X351485Y455950D01*
X351540Y456144D01*
X351568Y456283D01*
X351596Y456422D01*
Y455089D01*
Y456422D01*
Y475022D01*
D02*
G37*
G36*
X276943Y474772D02*
X262063D01*
X263590D01*
X263368Y474744D01*
X263173Y474689D01*
X262979Y474633D01*
X262812Y474550D01*
X262701Y474439D01*
X262590Y474384D01*
X262535Y474328D01*
X262507Y474300D01*
X262368Y474134D01*
X262257Y473939D01*
X262174Y473773D01*
X262118Y473606D01*
X262090Y473467D01*
X262063Y473356D01*
Y456533D01*
X262090Y456283D01*
X262118Y456088D01*
X262201Y455894D01*
X262285Y455755D01*
X262340Y455616D01*
X262424Y455533D01*
X262451Y455478D01*
X262479Y455450D01*
X262646Y455311D01*
X262840Y455200D01*
X263034Y455144D01*
X263201Y455089D01*
X263368Y455061D01*
X263479Y455033D01*
X263590D01*
X263867Y455061D01*
X264089Y455089D01*
X264311Y455172D01*
X264478Y455256D01*
X264756Y455505D01*
X264922Y455783D01*
X265033Y456061D01*
X265089Y456310D01*
X265117Y456477D01*
Y456505D01*
Y456533D01*
Y471746D01*
X273889D01*
Y456533D01*
X273917Y456283D01*
X273945Y456033D01*
X274028Y455839D01*
X274139Y455672D01*
X274361Y455394D01*
X274667Y455228D01*
X274944Y455117D01*
X275166Y455061D01*
X275361Y455033D01*
X275416D01*
X275666Y455061D01*
X275861Y455089D01*
X276055Y455172D01*
X276221Y455256D01*
X276332Y455311D01*
X276416Y455394D01*
X276471Y455422D01*
X276499Y455450D01*
X276638Y455616D01*
X276749Y455783D01*
X276832Y455977D01*
X276888Y456144D01*
X276915Y456310D01*
X276943Y456422D01*
Y455061D01*
Y456422D01*
Y473245D01*
X276915Y473467D01*
X276860Y473662D01*
X276804Y473856D01*
X276721Y473995D01*
X276610Y474134D01*
X276555Y474217D01*
X276499Y474273D01*
X276471Y474300D01*
X276305Y474467D01*
X276110Y474578D01*
X275944Y474661D01*
X275777Y474717D01*
X275638Y474744D01*
X275527Y474772D01*
X276943D01*
D01*
D02*
G37*
G36*
X830216Y474772D02*
X815419D01*
Y455033D01*
D01*
Y456533D01*
X815447Y456311D01*
X815502Y456088D01*
X815558Y455922D01*
X815669Y455755D01*
X815752Y455616D01*
X815807Y455533D01*
X815863Y455478D01*
X815891Y455450D01*
X816085Y455311D01*
X816279Y455200D01*
X816474Y455145D01*
X816640Y455089D01*
X816779Y455061D01*
X816890Y455033D01*
X817001D01*
X817251Y455061D01*
X817501Y455117D01*
X817695Y455228D01*
X817862Y455339D01*
X818001Y455422D01*
X818112Y455533D01*
X818167Y455589D01*
X818195Y455616D01*
X823720Y463057D01*
X827162D01*
Y456533D01*
X827190Y456283D01*
X827245Y456088D01*
X827301Y455894D01*
X827384Y455755D01*
X827468Y455616D01*
X827551Y455533D01*
X827579Y455478D01*
X827606Y455450D01*
X827773Y455311D01*
X827967Y455200D01*
X828134Y455145D01*
X828328Y455089D01*
X828467Y455061D01*
X828578Y455033D01*
X828689D01*
X828939Y455061D01*
X829133Y455089D01*
X829328Y455172D01*
X829494Y455256D01*
X829605Y455311D01*
X829689Y455394D01*
X829744Y455422D01*
X829772Y455450D01*
X829911Y455616D01*
X830022Y455783D01*
X830105Y455977D01*
X830161Y456144D01*
X830188Y456311D01*
X830216Y456422D01*
Y473246D01*
X830188Y473468D01*
X830133Y473662D01*
X830077Y473856D01*
X829994Y473995D01*
X829883Y474134D01*
X829827Y474217D01*
X829772Y474273D01*
X829744Y474300D01*
X829577Y474467D01*
X829383Y474578D01*
X829217Y474661D01*
X829050Y474717D01*
X828911Y474745D01*
X828800Y474772D01*
X830216D01*
D01*
D02*
G37*
G36*
X812254Y475022D02*
X797346Y475022D01*
X798873D01*
X798650Y474995D01*
X798456Y474967D01*
X798262Y474911D01*
X798123Y474828D01*
X797984Y474745D01*
X797901Y474689D01*
X797845Y474661D01*
X797818Y474634D01*
X797651Y474467D01*
X797540Y474273D01*
X797457Y474078D01*
X797401Y473912D01*
X797373Y473745D01*
X797346Y473606D01*
Y455033D01*
D01*
Y456533D01*
X797373Y456311D01*
X797429Y456116D01*
X797484Y455922D01*
X797596Y455783D01*
X797679Y455644D01*
X797734Y455561D01*
X797790Y455505D01*
X797818Y455478D01*
X798012Y455339D01*
X798178Y455228D01*
X798373Y455145D01*
X798512Y455089D01*
X798650Y455061D01*
X798762Y455033D01*
X799483D01*
X799678Y455061D01*
X799928Y455172D01*
X800094Y455256D01*
X800150Y455283D01*
X800177D01*
X800344Y455394D01*
X800483Y455478D01*
X800594Y455533D01*
X800677Y455616D01*
X800760Y455700D01*
X800788Y455728D01*
X809200Y469137D01*
Y456533D01*
X809228Y456283D01*
X809256Y456033D01*
X809339Y455839D01*
X809422Y455672D01*
X809672Y455394D01*
X809950Y455228D01*
X810227Y455117D01*
X810477Y455061D01*
X810644Y455033D01*
X810699D01*
X810977Y455061D01*
X811227Y455089D01*
X811421Y455172D01*
X811588Y455256D01*
X811865Y455505D01*
X812060Y455783D01*
X812171Y456061D01*
X812226Y456311D01*
X812254Y456477D01*
Y473495D01*
X812226Y473717D01*
X812171Y473912D01*
X812115Y474106D01*
X812032Y474245D01*
X811921Y474384D01*
X811865Y474467D01*
X811810Y474523D01*
X811782Y474550D01*
X811588Y474717D01*
X811421Y474828D01*
X811227Y474911D01*
X811060Y474967D01*
X810921Y474995D01*
X810810Y475022D01*
X812254D01*
D02*
G37*
G36*
X793709Y475078D02*
X778801D01*
Y455033D01*
X789001D01*
X780327D01*
X780605Y455061D01*
X780827Y455089D01*
X781049Y455172D01*
X781216Y455256D01*
X781493Y455505D01*
X781660Y455783D01*
X781771Y456061D01*
X781827Y456311D01*
X781854Y456477D01*
Y456505D01*
Y456533D01*
Y463806D01*
X790655D01*
Y456533D01*
X790683Y456283D01*
X790711Y456033D01*
X790794Y455839D01*
X790877Y455672D01*
X791127Y455394D01*
X791404Y455228D01*
X791682Y455117D01*
X791932Y455061D01*
X792099Y455033D01*
X793709D01*
X792154D01*
X792404Y455061D01*
X792626Y455089D01*
X792820Y455172D01*
X792959Y455256D01*
X793098Y455311D01*
X793181Y455394D01*
X793237Y455422D01*
X793265Y455450D01*
X793403Y455616D01*
X793514Y455783D01*
X793598Y455977D01*
X793653Y456144D01*
X793681Y456311D01*
X793709Y456422D01*
Y473495D01*
X793681Y473745D01*
X793653Y473967D01*
X793570Y474162D01*
X793487Y474328D01*
X793403Y474467D01*
X793348Y474550D01*
X793292Y474606D01*
X793265Y474634D01*
X793098Y474772D01*
X792904Y474883D01*
X792737Y474967D01*
X792543Y475022D01*
X792404Y475050D01*
X792265Y475078D01*
X793709D01*
D02*
G37*
G36*
X738684Y475022D02*
X721583D01*
Y455033D01*
D01*
Y465028D01*
X721610Y464306D01*
X721694Y463640D01*
X721805Y462973D01*
X721944Y462335D01*
X722110Y461724D01*
X722304Y461169D01*
X722526Y460641D01*
X722749Y460169D01*
X722943Y459725D01*
X723165Y459337D01*
X723359Y459003D01*
X723526Y458726D01*
X723665Y458504D01*
X723776Y458337D01*
X723859Y458226D01*
X723887Y458198D01*
X724359Y457643D01*
X724886Y457143D01*
X725386Y456727D01*
X725913Y456366D01*
X726441Y456061D01*
X726968Y455811D01*
X727468Y455589D01*
X727940Y455422D01*
X728412Y455311D01*
X728829Y455200D01*
X729189Y455145D01*
X729523Y455089D01*
X729772Y455061D01*
X729967Y455033D01*
X730133D01*
X730827Y455061D01*
X731466Y455172D01*
X732104Y455339D01*
X732688Y455533D01*
X733243Y455755D01*
X733770Y456033D01*
X734242Y456311D01*
X734659Y456616D01*
X735047Y456921D01*
X735380Y457199D01*
X735686Y457477D01*
X735936Y457699D01*
X736130Y457921D01*
X736269Y458060D01*
X736352Y458171D01*
X736380Y458198D01*
X736796Y458754D01*
X737129Y459337D01*
X737463Y459920D01*
X737712Y460530D01*
X737934Y461113D01*
X738129Y461669D01*
X738268Y462224D01*
X738407Y462724D01*
X738490Y463223D01*
X738573Y463640D01*
X738601Y464056D01*
X738656Y464389D01*
Y464639D01*
X738684Y464861D01*
Y465028D01*
X738656Y465750D01*
X738573Y466416D01*
X738462Y467082D01*
X738323Y467721D01*
X738157Y468304D01*
X737962Y468887D01*
X737740Y469386D01*
X737546Y469886D01*
X737324Y470303D01*
X737102Y470691D01*
X736907Y471025D01*
X736741Y471302D01*
X736602Y471524D01*
X736491Y471691D01*
X736408Y471802D01*
X736380Y471830D01*
X735908Y472385D01*
X735408Y472885D01*
X734881Y473301D01*
X734353Y473690D01*
X733826Y473995D01*
X733298Y474245D01*
X732798Y474467D01*
X732327Y474634D01*
X731855Y474745D01*
X731438Y474856D01*
X731077Y474939D01*
X730772Y474967D01*
X730494Y474995D01*
X730300Y475022D01*
X738684D01*
D02*
G37*
G36*
X647930Y475022D02*
X630828D01*
Y455033D01*
D01*
Y465028D01*
X630856Y464306D01*
X630939Y463640D01*
X631050Y462973D01*
X631189Y462335D01*
X631355Y461724D01*
X631550Y461169D01*
X631772Y460641D01*
X631994Y460169D01*
X632188Y459725D01*
X632410Y459337D01*
X632605Y459003D01*
X632771Y458726D01*
X632910Y458504D01*
X633021Y458337D01*
X633104Y458226D01*
X633132Y458198D01*
X633604Y457643D01*
X634132Y457143D01*
X634631Y456727D01*
X635159Y456366D01*
X635686Y456061D01*
X636214Y455811D01*
X636713Y455589D01*
X637186Y455422D01*
X637657Y455311D01*
X638074Y455200D01*
X638435Y455145D01*
X638768Y455089D01*
X639018Y455061D01*
X639212Y455033D01*
X639379D01*
X640073Y455061D01*
X640711Y455172D01*
X641350Y455339D01*
X641933Y455533D01*
X642488Y455755D01*
X643016Y456033D01*
X643487Y456311D01*
X643904Y456616D01*
X644293Y456921D01*
X644626Y457199D01*
X644931Y457477D01*
X645181Y457699D01*
X645375Y457921D01*
X645514Y458060D01*
X645597Y458171D01*
X645625Y458198D01*
X646042Y458754D01*
X646375Y459337D01*
X646708Y459920D01*
X646958Y460530D01*
X647180Y461113D01*
X647374Y461669D01*
X647513Y462224D01*
X647652Y462724D01*
X647735Y463223D01*
X647818Y463640D01*
X647846Y464056D01*
X647902Y464389D01*
Y464639D01*
X647930Y464861D01*
Y465028D01*
X647902Y465750D01*
X647818Y466416D01*
X647707Y467082D01*
X647569Y467721D01*
X647402Y468304D01*
X647208Y468887D01*
X646985Y469386D01*
X646791Y469886D01*
X646569Y470303D01*
X646347Y470691D01*
X646153Y471025D01*
X645986Y471302D01*
X645847Y471524D01*
X645736Y471691D01*
X645653Y471802D01*
X645625Y471830D01*
X645153Y472385D01*
X644653Y472884D01*
X644126Y473301D01*
X643599Y473690D01*
X643071Y473995D01*
X642544Y474245D01*
X642044Y474467D01*
X641572Y474633D01*
X641100Y474745D01*
X640684Y474856D01*
X640323Y474939D01*
X640017Y474967D01*
X639740Y474995D01*
X639545Y475022D01*
X647930D01*
D02*
G37*
G36*
X593155Y474772D02*
X578274D01*
Y456533D01*
X578302Y456283D01*
X578330Y456088D01*
X578413Y455894D01*
X578496Y455755D01*
X578552Y455616D01*
X578635Y455533D01*
X578663Y455478D01*
X578690Y455450D01*
X578857Y455311D01*
X579051Y455200D01*
X579246Y455145D01*
X579412Y455089D01*
X579579Y455061D01*
X579690Y455033D01*
X579801D01*
X580079Y455061D01*
X580301Y455089D01*
X580523Y455172D01*
X580689Y455256D01*
X580967Y455505D01*
X581134Y455783D01*
X581245Y456061D01*
X581300Y456311D01*
X581328Y456477D01*
Y456505D01*
Y456533D01*
Y471746D01*
X590101D01*
Y456533D01*
X590129Y456283D01*
X590156Y456033D01*
X590240Y455839D01*
X590351Y455672D01*
X590573Y455394D01*
X590878Y455228D01*
X591156Y455117D01*
X591378Y455061D01*
X591572Y455033D01*
X591628D01*
X591878Y455061D01*
X592072Y455089D01*
X592266Y455172D01*
X592433Y455256D01*
X592544Y455311D01*
X592627Y455394D01*
X592683Y455422D01*
X592710Y455450D01*
X592849Y455616D01*
X592960Y455783D01*
X593044Y455977D01*
X593099Y456144D01*
X593127Y456311D01*
X593155Y456422D01*
Y474772D01*
D02*
G37*
G36*
X536714D02*
X523916D01*
Y456533D01*
X523943Y456283D01*
X523971Y456033D01*
X524054Y455839D01*
X524166Y455672D01*
X524388Y455394D01*
X524693Y455228D01*
X524971Y455117D01*
X525193Y455061D01*
X525387Y455033D01*
X525443D01*
X525720Y455061D01*
X525942Y455089D01*
X526137Y455172D01*
X526303Y455256D01*
X526581Y455505D01*
X526748Y455783D01*
X526858Y456061D01*
X526914Y456311D01*
X526942Y456477D01*
Y456505D01*
Y456533D01*
Y471746D01*
X535187D01*
X535437Y471774D01*
X535631Y471802D01*
X535826Y471885D01*
X535992Y471968D01*
X536103Y472024D01*
X536187Y472107D01*
X536242Y472135D01*
X536270Y472163D01*
X536409Y472329D01*
X536520Y472496D01*
X536603Y472690D01*
X536659Y472857D01*
X536686Y473023D01*
X536714Y473134D01*
Y473245D01*
X536686Y473495D01*
X536659Y473717D01*
X536575Y473912D01*
X536492Y474050D01*
X536409Y474189D01*
X536353Y474273D01*
X536298Y474328D01*
X536270Y474356D01*
X536103Y474495D01*
X535937Y474606D01*
X535742Y474661D01*
X535576Y474717D01*
X535409Y474745D01*
X535298Y474772D01*
X536714D01*
D02*
G37*
G36*
X462561Y474772D02*
X447792D01*
Y456533D01*
X447820Y456283D01*
X447847Y456033D01*
X447931Y455839D01*
X448042Y455672D01*
X448264Y455394D01*
X448569Y455228D01*
X448847Y455117D01*
X449069Y455061D01*
X449263Y455033D01*
X449319D01*
X449596Y455061D01*
X449818Y455089D01*
X450013Y455172D01*
X450179Y455256D01*
X450457Y455505D01*
X450624Y455783D01*
X450735Y456061D01*
X450790Y456311D01*
X450818Y456477D01*
Y456505D01*
Y456533D01*
Y462446D01*
X456370D01*
X456870Y462474D01*
X457342Y462529D01*
X457786Y462612D01*
X458203Y462724D01*
X458591Y462862D01*
X458952Y463001D01*
X459285Y463168D01*
X459591Y463334D01*
X459868Y463473D01*
X460118Y463640D01*
X460312Y463778D01*
X460507Y463917D01*
X460646Y464028D01*
X460729Y464112D01*
X460784Y464167D01*
X460812Y464195D01*
X461118Y464528D01*
X461395Y464889D01*
X461617Y465250D01*
X461812Y465611D01*
X462006Y465999D01*
X462145Y466360D01*
X462339Y467054D01*
X462422Y467388D01*
X462478Y467665D01*
X462506Y467943D01*
X462533Y468165D01*
X462561Y468359D01*
Y468609D01*
X462533Y469109D01*
X462478Y469553D01*
X462395Y469997D01*
X462284Y470414D01*
X462145Y470802D01*
X462006Y471191D01*
X461839Y471524D01*
X461701Y471829D01*
X461534Y472079D01*
X461367Y472329D01*
X461229Y472524D01*
X461090Y472718D01*
X460979Y472857D01*
X460896Y472940D01*
X460840Y472995D01*
X460812Y473023D01*
X460479Y473329D01*
X460118Y473606D01*
X459757Y473828D01*
X459369Y474023D01*
X459008Y474217D01*
X458647Y474356D01*
X457925Y474550D01*
X457620Y474633D01*
X457314Y474689D01*
X457037Y474717D01*
X456814Y474745D01*
X456620Y474772D01*
X462561D01*
D02*
G37*
G36*
X443822D02*
X428941D01*
Y456533D01*
X428969Y456283D01*
X428997Y456088D01*
X429080Y455894D01*
X429163Y455755D01*
X429219Y455616D01*
X429302Y455533D01*
X429330Y455478D01*
X429358Y455450D01*
X429524Y455311D01*
X429719Y455200D01*
X429913Y455145D01*
X430079Y455089D01*
X430246Y455061D01*
X430357Y455033D01*
X430468D01*
X430746Y455061D01*
X430968Y455089D01*
X431190Y455172D01*
X431357Y455256D01*
X431634Y455505D01*
X431801Y455783D01*
X431912Y456061D01*
X431967Y456311D01*
X431995Y456477D01*
Y456505D01*
Y456533D01*
Y471746D01*
X440768D01*
Y456533D01*
X440796Y456283D01*
X440824Y456033D01*
X440907Y455839D01*
X441018Y455672D01*
X441240Y455394D01*
X441545Y455228D01*
X441823Y455117D01*
X442045Y455061D01*
X442239Y455033D01*
X443822D01*
Y473245D01*
X443794Y473467D01*
X443739Y473662D01*
X443683Y473856D01*
X443600Y473995D01*
X443489Y474134D01*
X443433Y474217D01*
X443378Y474273D01*
X443350Y474300D01*
X443183Y474467D01*
X442989Y474578D01*
X442822Y474661D01*
X442656Y474717D01*
X442517Y474745D01*
X442406Y474772D01*
X443822D01*
D02*
G37*
G36*
X313561Y475022D02*
X298653D01*
D01*
X300180D01*
X299958Y474994D01*
X299764Y474967D01*
X299569Y474911D01*
X299431Y474828D01*
X299292Y474744D01*
X299209Y474689D01*
X299153Y474661D01*
X299125Y474633D01*
X298959Y474467D01*
X298848Y474273D01*
X298764Y474078D01*
X298709Y473912D01*
X298681Y473745D01*
X298653Y473606D01*
Y456533D01*
X298681Y456310D01*
X298736Y456116D01*
X298792Y455922D01*
X298903Y455783D01*
X298986Y455644D01*
X299042Y455561D01*
X299097Y455505D01*
X299125Y455478D01*
X299319Y455339D01*
X299486Y455228D01*
X299680Y455144D01*
X299819Y455089D01*
X299958Y455061D01*
X300069Y455033D01*
X300791D01*
X300985Y455061D01*
X301235Y455172D01*
X301402Y455256D01*
X301457Y455283D01*
X301485D01*
X301651Y455394D01*
X301790Y455478D01*
X301901Y455533D01*
X301985Y455616D01*
X302068Y455700D01*
X302096Y455727D01*
X310508Y469137D01*
Y456533D01*
X310535Y456283D01*
X310563Y456033D01*
X310646Y455839D01*
X310730Y455672D01*
X310980Y455394D01*
X311257Y455228D01*
X311535Y455117D01*
X311785Y455061D01*
X311951Y455033D01*
X312007D01*
X312285Y455061D01*
X312534Y455089D01*
X312729Y455172D01*
X312895Y455256D01*
X313173Y455505D01*
X313367Y455783D01*
X313478Y456061D01*
X313534Y456310D01*
X313561Y456477D01*
Y475022D01*
D02*
G37*
G36*
X238409D02*
X223501Y475022D01*
X225028D01*
X224806Y474994D01*
X224611Y474967D01*
X224417Y474911D01*
X224278Y474828D01*
X224139Y474744D01*
X224056Y474689D01*
X224001Y474661D01*
X223973Y474633D01*
X223806Y474467D01*
X223695Y474273D01*
X223612Y474078D01*
X223556Y473912D01*
X223529Y473745D01*
X223501Y473606D01*
Y456533D01*
X223529Y456310D01*
X223584Y456116D01*
X223640Y455922D01*
X223751Y455783D01*
X223834Y455644D01*
X223890Y455561D01*
X223945Y455505D01*
X223973Y455477D01*
X224167Y455339D01*
X224334Y455228D01*
X224528Y455144D01*
X224667Y455089D01*
X224806Y455061D01*
X224917Y455033D01*
X225639D01*
X225833Y455061D01*
X226083Y455172D01*
X226249Y455256D01*
X226305Y455283D01*
X226333D01*
X226499Y455394D01*
X226638Y455477D01*
X226749Y455533D01*
X226832Y455616D01*
X226916Y455700D01*
X226943Y455727D01*
X235355Y469137D01*
Y456533D01*
X235383Y456283D01*
X235411Y456033D01*
X235494Y455839D01*
X235578Y455672D01*
X235827Y455394D01*
X236105Y455228D01*
X236383Y455117D01*
X236632Y455061D01*
X236799Y455033D01*
X236855D01*
X237132Y455061D01*
X237382Y455089D01*
X237576Y455172D01*
X237743Y455256D01*
X238021Y455505D01*
X238215Y455783D01*
X238326Y456061D01*
X238382Y456310D01*
X238409Y456477D01*
Y475022D01*
D02*
G37*
G36*
X199181Y474856D02*
X181747D01*
X190020D01*
X189881Y474800D01*
X189631Y474689D01*
X189492Y474633D01*
X189409Y474578D01*
X189353Y474550D01*
X189326Y474522D01*
X189159Y474411D01*
X189048Y474273D01*
X188937Y474161D01*
X188854Y474078D01*
X188770Y473939D01*
X188743Y473912D01*
Y473884D01*
X181858Y456949D01*
X181802Y456727D01*
X181774Y456505D01*
X181747Y456366D01*
Y456310D01*
X181774Y456088D01*
X181830Y455866D01*
X181913Y455700D01*
X181996Y455533D01*
X182080Y455394D01*
X182163Y455311D01*
X182219Y455256D01*
X182246Y455228D01*
X182413Y455089D01*
X182607Y455006D01*
X182968Y454894D01*
X183107Y454867D01*
X183218Y454839D01*
X188137D01*
X183329D01*
X183662Y454867D01*
X183940Y454978D01*
X184190Y455144D01*
X184384Y455311D01*
X184523Y455477D01*
X184606Y455644D01*
X184662Y455755D01*
X184689Y455783D01*
X186133Y459364D01*
X194795D01*
X196238Y455783D01*
X196405Y455477D01*
X196627Y455228D01*
X196849Y455061D01*
X197071Y454950D01*
X197266Y454894D01*
X197432Y454867D01*
X197571Y454839D01*
X197599D01*
X197821Y454867D01*
X198043Y454894D01*
X198237Y454978D01*
X198404Y455061D01*
X198515Y455117D01*
X198626Y455200D01*
X198682Y455228D01*
X198709Y455256D01*
X198876Y455422D01*
X198987Y455589D01*
X199070Y455783D01*
X199126Y455950D01*
X199153Y456088D01*
X199181Y456199D01*
Y456310D01*
X199153Y456560D01*
X199126Y456755D01*
X199098Y456893D01*
X199070Y456949D01*
X192185Y473884D01*
X192130Y473995D01*
X192046Y474106D01*
X191852Y474328D01*
X191658Y474467D01*
X191602Y474495D01*
X191574Y474522D01*
X191408Y474633D01*
X191241Y474717D01*
X190991Y474828D01*
X190825Y474856D01*
X199181D01*
D02*
G37*
%LPD*%
G36*
X498513Y474994D02*
X498263Y474939D01*
X498041Y474828D01*
X497875Y474717D01*
X497736Y474606D01*
X497625Y474495D01*
X497569Y474439D01*
X497542Y474411D01*
X492017Y466832D01*
X486465Y474411D01*
X486270Y474606D01*
X486076Y474772D01*
X485854Y474883D01*
X485659Y474939D01*
X485493Y474994D01*
X485354Y475022D01*
X498791D01*
X498513Y474994D01*
D02*
G37*
G36*
X500929Y455033D02*
X499402D01*
X499624Y455061D01*
X499818Y455089D01*
X500123Y455228D01*
X500262Y455283D01*
X500346Y455339D01*
X500401Y455367D01*
X500429Y455394D01*
X500596Y455561D01*
X500706Y455755D01*
X500818Y455950D01*
X500873Y456144D01*
X500901Y456283D01*
X500929Y456422D01*
Y455033D01*
D02*
G37*
G36*
X406842Y456533D02*
X406815Y456755D01*
X406787Y456949D01*
X406731Y457116D01*
X406648Y457282D01*
X406565Y457393D01*
X406509Y457477D01*
X406482Y457532D01*
X406454Y457560D01*
X399458Y465278D01*
X406426Y472440D01*
X406565Y472607D01*
X406676Y472801D01*
X406731Y472968D01*
X406787Y473134D01*
X406815Y473273D01*
X406842Y473384D01*
Y456533D01*
D02*
G37*
G36*
Y455033D02*
X405343D01*
X405565Y455061D01*
X405760Y455089D01*
X405954Y455172D01*
X406093Y455256D01*
X406232Y455311D01*
X406315Y455394D01*
X406371Y455422D01*
X406398Y455450D01*
X406537Y455616D01*
X406648Y455811D01*
X406731Y455977D01*
X406787Y456172D01*
X406815Y456311D01*
X406842Y456422D01*
Y455033D01*
D02*
G37*
G36*
X386354Y474967D02*
X386132Y474883D01*
X385938Y474800D01*
X385882Y474745D01*
X385854D01*
X385688Y474661D01*
X385549Y474578D01*
X385382Y474439D01*
X385271Y474328D01*
X385243Y474300D01*
X376832Y460863D01*
Y473495D01*
X376804Y473773D01*
X376776Y473995D01*
X376693Y474217D01*
X376582Y474384D01*
X376360Y474661D01*
X376082Y474828D01*
X375777Y474939D01*
X375555Y474994D01*
X375360Y475022D01*
X386548D01*
X386354Y474967D01*
D02*
G37*
G36*
X606203Y471718D02*
X606647Y471608D01*
X607036Y471469D01*
X607369Y471330D01*
X607646Y471163D01*
X607813Y471025D01*
X607952Y470913D01*
X607980Y470886D01*
X608257Y470552D01*
X608479Y470164D01*
X608618Y469775D01*
X608729Y469414D01*
X608785Y469109D01*
X608840Y468831D01*
Y468665D01*
Y468637D01*
Y468609D01*
X608812Y468109D01*
X608702Y467665D01*
X608563Y467277D01*
X608424Y466971D01*
X608257Y466694D01*
X608119Y466527D01*
X608007Y466388D01*
X607980Y466360D01*
X607646Y466083D01*
X607258Y465861D01*
X606869Y465722D01*
X606508Y465611D01*
X606203Y465555D01*
X605925Y465527D01*
X605759Y465500D01*
X600151D01*
Y471746D01*
X605703D01*
X606203Y471718D01*
D02*
G37*
G36*
X677441Y471718D02*
X677885Y471608D01*
X678273Y471469D01*
X678607Y471330D01*
X678884Y471163D01*
X679051Y471025D01*
X679190Y470913D01*
X679218Y470886D01*
X679495Y470552D01*
X679717Y470164D01*
X679856Y469775D01*
X679967Y469414D01*
X680023Y469109D01*
X680078Y468831D01*
Y468665D01*
Y468637D01*
Y468609D01*
X680050Y468110D01*
X679939Y467665D01*
X679800Y467277D01*
X679662Y466971D01*
X679495Y466694D01*
X679356Y466527D01*
X679245Y466388D01*
X679218Y466360D01*
X678884Y466083D01*
X678496Y465861D01*
X678107Y465722D01*
X677746Y465611D01*
X677441Y465555D01*
X677163Y465528D01*
X676997Y465500D01*
X671388D01*
Y471746D01*
X676941D01*
X677441Y471718D01*
D02*
G37*
G36*
X548097Y471941D02*
X548541Y471857D01*
X548929Y471746D01*
X549318Y471608D01*
X550012Y471247D01*
X550318Y471025D01*
X550595Y470830D01*
X550845Y470608D01*
X551067Y470386D01*
X551261Y470192D01*
X551428Y470025D01*
X551539Y469886D01*
X551622Y469775D01*
X551678Y469692D01*
X551706Y469664D01*
X551955Y469275D01*
X552178Y468859D01*
X552372Y468470D01*
X552538Y468054D01*
X552788Y467277D01*
X552983Y466555D01*
X553038Y466249D01*
X553066Y465944D01*
X553094Y465694D01*
X553122Y465472D01*
X553149Y465278D01*
Y465139D01*
Y465056D01*
Y465028D01*
X553122Y464556D01*
X553094Y464084D01*
X552927Y463223D01*
X552705Y462418D01*
X552566Y462057D01*
X552427Y461724D01*
X552289Y461419D01*
X552150Y461169D01*
X552039Y460919D01*
X551928Y460725D01*
X551844Y460586D01*
X551761Y460447D01*
X551733Y460392D01*
X551706Y460364D01*
X551400Y459947D01*
X551067Y459614D01*
X550734Y459309D01*
X550401Y459031D01*
X550040Y458809D01*
X549707Y458615D01*
X549401Y458476D01*
X549068Y458337D01*
X548791Y458254D01*
X548513Y458171D01*
X548263Y458143D01*
X548069Y458087D01*
X547902D01*
X547763Y458060D01*
X547652D01*
X547208Y458087D01*
X546764Y458171D01*
X546375Y458282D01*
X545987Y458420D01*
X545293Y458809D01*
X544987Y459003D01*
X544710Y459226D01*
X544460Y459448D01*
X544238Y459642D01*
X544043Y459864D01*
X543877Y460031D01*
X543766Y460169D01*
X543682Y460280D01*
X543627Y460364D01*
X543599Y460392D01*
X543349Y460780D01*
X543127Y461169D01*
X542933Y461585D01*
X542766Y461974D01*
X542516Y462751D01*
X542350Y463473D01*
X542267Y463806D01*
X542239Y464112D01*
X542211Y464361D01*
X542183Y464584D01*
X542155Y464778D01*
Y464917D01*
Y465000D01*
Y465028D01*
X542183Y465500D01*
X542211Y465972D01*
X542378Y466832D01*
X542600Y467610D01*
X542738Y467971D01*
X542877Y468304D01*
X543016Y468609D01*
X543155Y468859D01*
X543266Y469109D01*
X543377Y469303D01*
X543460Y469470D01*
X543544Y469581D01*
X543571Y469636D01*
X543599Y469664D01*
X543904Y470080D01*
X544238Y470414D01*
X544571Y470747D01*
X544904Y470997D01*
X545237Y471219D01*
X545570Y471413D01*
X545903Y471552D01*
X546209Y471691D01*
X546514Y471774D01*
X546792Y471857D01*
X547042Y471885D01*
X547236Y471941D01*
X547402D01*
X547541Y471968D01*
X547652D01*
X548097Y471941D01*
D02*
G37*
G36*
X512950Y471941D02*
X513394Y471857D01*
X513783Y471746D01*
X514171Y471607D01*
X514865Y471246D01*
X515171Y471024D01*
X515448Y470830D01*
X515698Y470608D01*
X515920Y470386D01*
X516115Y470192D01*
X516281Y470025D01*
X516392Y469886D01*
X516475Y469775D01*
X516531Y469692D01*
X516559Y469664D01*
X516809Y469275D01*
X517031Y468859D01*
X517225Y468470D01*
X517392Y468054D01*
X517641Y467276D01*
X517836Y466555D01*
X517891Y466249D01*
X517919Y465944D01*
X517947Y465694D01*
X517975Y465472D01*
X518002Y465278D01*
Y465139D01*
Y465056D01*
Y465028D01*
X517975Y464556D01*
X517947Y464084D01*
X517780Y463223D01*
X517558Y462418D01*
X517419Y462057D01*
X517281Y461724D01*
X517142Y461419D01*
X517003Y461169D01*
X516892Y460919D01*
X516781Y460725D01*
X516698Y460586D01*
X516614Y460447D01*
X516586Y460392D01*
X516559Y460364D01*
X516253Y459947D01*
X515920Y459614D01*
X515587Y459309D01*
X515254Y459031D01*
X514893Y458809D01*
X514560Y458615D01*
X514254Y458476D01*
X513921Y458337D01*
X513644Y458254D01*
X513366Y458171D01*
X513116Y458143D01*
X512922Y458087D01*
X512755D01*
X512617Y458060D01*
X512505D01*
X512061Y458087D01*
X511617Y458171D01*
X511228Y458282D01*
X510840Y458420D01*
X510146Y458809D01*
X509840Y459003D01*
X509563Y459226D01*
X509313Y459448D01*
X509091Y459642D01*
X508896Y459864D01*
X508730Y460031D01*
X508619Y460169D01*
X508535Y460280D01*
X508480Y460364D01*
X508452Y460392D01*
X508202Y460780D01*
X507980Y461169D01*
X507786Y461585D01*
X507619Y461974D01*
X507369Y462751D01*
X507203Y463473D01*
X507120Y463806D01*
X507092Y464112D01*
X507064Y464361D01*
X507036Y464584D01*
X507009Y464778D01*
Y464917D01*
Y465000D01*
Y465028D01*
X507036Y465500D01*
X507064Y465972D01*
X507231Y466832D01*
X507453Y467610D01*
X507592Y467971D01*
X507730Y468304D01*
X507869Y468609D01*
X508008Y468859D01*
X508119Y469109D01*
X508230Y469303D01*
X508313Y469470D01*
X508397Y469581D01*
X508424Y469636D01*
X508452Y469664D01*
X508758Y470080D01*
X509091Y470414D01*
X509424Y470747D01*
X509757Y470997D01*
X510090Y471219D01*
X510423Y471413D01*
X510756Y471552D01*
X511062Y471691D01*
X511367Y471774D01*
X511645Y471857D01*
X511895Y471885D01*
X512089Y471941D01*
X512256D01*
X512394Y471968D01*
X512505D01*
X512950Y471941D01*
D02*
G37*
G36*
X250430Y471941D02*
X250875Y471857D01*
X251263Y471746D01*
X251652Y471607D01*
X252346Y471246D01*
X252651Y471024D01*
X252929Y470830D01*
X253179Y470608D01*
X253401Y470386D01*
X253595Y470191D01*
X253762Y470025D01*
X253873Y469886D01*
X253956Y469775D01*
X254012Y469692D01*
X254039Y469664D01*
X254289Y469275D01*
X254511Y468859D01*
X254706Y468470D01*
X254872Y468054D01*
X255122Y467276D01*
X255316Y466555D01*
X255372Y466249D01*
X255400Y465944D01*
X255427Y465694D01*
X255455Y465472D01*
X255483Y465278D01*
Y465139D01*
Y465056D01*
Y465028D01*
X255455Y464556D01*
X255427Y464084D01*
X255261Y463223D01*
X255039Y462418D01*
X254900Y462057D01*
X254761Y461724D01*
X254622Y461419D01*
X254484Y461169D01*
X254373Y460919D01*
X254261Y460725D01*
X254178Y460586D01*
X254095Y460447D01*
X254067Y460392D01*
X254039Y460364D01*
X253734Y459947D01*
X253401Y459614D01*
X253068Y459309D01*
X252735Y459031D01*
X252374Y458809D01*
X252041Y458615D01*
X251735Y458476D01*
X251402Y458337D01*
X251124Y458254D01*
X250847Y458171D01*
X250597Y458143D01*
X250403Y458087D01*
X250236D01*
X250097Y458060D01*
X249986D01*
X249542Y458087D01*
X249098Y458171D01*
X248709Y458282D01*
X248320Y458420D01*
X247626Y458809D01*
X247321Y459003D01*
X247043Y459226D01*
X246793Y459448D01*
X246571Y459642D01*
X246377Y459864D01*
X246210Y460031D01*
X246099Y460169D01*
X246016Y460280D01*
X245961Y460364D01*
X245933Y460392D01*
X245683Y460780D01*
X245461Y461169D01*
X245266Y461585D01*
X245100Y461974D01*
X244850Y462751D01*
X244683Y463473D01*
X244600Y463806D01*
X244573Y464112D01*
X244545Y464361D01*
X244517Y464584D01*
X244489Y464778D01*
Y464917D01*
Y465000D01*
Y465028D01*
X244517Y465500D01*
X244545Y465972D01*
X244711Y466832D01*
X244933Y467610D01*
X245072Y467971D01*
X245211Y468304D01*
X245350Y468609D01*
X245489Y468859D01*
X245600Y469109D01*
X245711Y469303D01*
X245794Y469470D01*
X245877Y469581D01*
X245905Y469636D01*
X245933Y469664D01*
X246238Y470080D01*
X246571Y470414D01*
X246905Y470747D01*
X247238Y470997D01*
X247571Y471219D01*
X247904Y471413D01*
X248237Y471552D01*
X248542Y471691D01*
X248848Y471774D01*
X249125Y471857D01*
X249375Y471885D01*
X249570Y471941D01*
X249736D01*
X249875Y471968D01*
X249986D01*
X250430Y471941D01*
D02*
G37*
G36*
X215561Y458309D02*
X206344D01*
X210952Y470108D01*
X215561Y458309D01*
D02*
G37*
G36*
X217726Y451730D02*
X217754Y451452D01*
X217782Y451230D01*
X217865Y451036D01*
X217976Y450841D01*
X218198Y450564D01*
X218504Y450397D01*
X218781Y450286D01*
X219004Y450230D01*
X219198Y450203D01*
X219253D01*
X219531Y450230D01*
X219753Y450258D01*
X219975Y450341D01*
X220142Y450453D01*
X220419Y450675D01*
X220586Y450980D01*
X220697Y451258D01*
X220753Y451480D01*
X220780Y451674D01*
Y450119D01*
X202679D01*
X202957Y450147D01*
X203179Y450203D01*
X203373Y450258D01*
X203540Y450369D01*
X203818Y450619D01*
X203984Y450924D01*
X204095Y451230D01*
X204151Y451480D01*
X204179Y451591D01*
Y451674D01*
Y451702D01*
Y451730D01*
Y455256D01*
X217726D01*
Y451730D01*
D02*
G37*
G36*
X770333Y462390D02*
X764114D01*
X767224Y470025D01*
X770333Y462390D01*
D02*
G37*
G36*
X697152D02*
X690933D01*
X694043Y470025D01*
X697152Y462390D01*
D02*
G37*
G36*
X289991Y471718D02*
X290436Y471607D01*
X290824Y471469D01*
X291157Y471330D01*
X291435Y471163D01*
X291602Y471024D01*
X291740Y470913D01*
X291768Y470886D01*
X292046Y470552D01*
X292268Y470164D01*
X292407Y469775D01*
X292518Y469414D01*
X292573Y469109D01*
X292629Y468831D01*
Y468665D01*
Y468637D01*
Y468609D01*
X292601Y468109D01*
X292490Y467665D01*
X292351Y467276D01*
X292212Y466971D01*
X292046Y466693D01*
X291907Y466527D01*
X291796Y466388D01*
X291768Y466360D01*
X291435Y466083D01*
X291046Y465861D01*
X290658Y465722D01*
X290297Y465611D01*
X289991Y465555D01*
X289714Y465527D01*
X289547Y465500D01*
X283939D01*
Y471746D01*
X289492D01*
X289991Y471718D01*
D02*
G37*
G36*
X750927Y471718D02*
X751260Y471635D01*
X751566Y471496D01*
X751816Y471385D01*
X752010Y471247D01*
X752177Y471108D01*
X752260Y471025D01*
X752288Y470997D01*
X752537Y470719D01*
X752704Y470414D01*
X752843Y470136D01*
X752926Y469859D01*
X752982Y469636D01*
X753009Y469442D01*
Y469331D01*
Y469276D01*
X752982Y468915D01*
X752898Y468581D01*
X752759Y468276D01*
X752648Y468026D01*
X752510Y467804D01*
X752371Y467665D01*
X752288Y467554D01*
X752260Y467526D01*
X751982Y467304D01*
X751677Y467138D01*
X751371Y466999D01*
X751094Y466916D01*
X750844Y466860D01*
X750650Y466832D01*
X744570D01*
Y471746D01*
X750566D01*
X750927Y471718D01*
D02*
G37*
G36*
X750983Y463778D02*
X751371Y463695D01*
X751705Y463557D01*
X751982Y463418D01*
X752204Y463279D01*
X752371Y463140D01*
X752482Y463057D01*
X752510Y463029D01*
X752759Y462724D01*
X752954Y462418D01*
X753065Y462085D01*
X753176Y461752D01*
X753232Y461474D01*
X753259Y461252D01*
Y461113D01*
Y461086D01*
Y461058D01*
X753232Y460614D01*
X753148Y460225D01*
X753009Y459864D01*
X752871Y459586D01*
X752732Y459364D01*
X752593Y459198D01*
X752510Y459087D01*
X752482Y459059D01*
X752177Y458809D01*
X751843Y458615D01*
X751510Y458504D01*
X751205Y458393D01*
X750927Y458337D01*
X750677Y458309D01*
X744570D01*
Y463806D01*
X750539D01*
X750983Y463778D01*
D02*
G37*
G36*
X660145Y463778D02*
X660506Y463667D01*
X660839Y463556D01*
X661116Y463390D01*
X661366Y463251D01*
X661533Y463112D01*
X661644Y463001D01*
X661672Y462973D01*
X661949Y462668D01*
X662144Y462335D01*
X662310Y462002D01*
X662394Y461724D01*
X662449Y461446D01*
X662505Y461252D01*
Y461113D01*
Y461058D01*
X662477Y460641D01*
X662366Y460280D01*
X662255Y459947D01*
X662088Y459670D01*
X661949Y459420D01*
X661811Y459253D01*
X661700Y459142D01*
X661672Y459114D01*
X661366Y458837D01*
X661033Y458643D01*
X660700Y458504D01*
X660395Y458420D01*
X660145Y458365D01*
X659923Y458309D01*
X653815D01*
Y463806D01*
X659728D01*
X660145Y463778D01*
D02*
G37*
G36*
X173862Y471718D02*
X174306Y471607D01*
X174695Y471469D01*
X175028Y471330D01*
X175306Y471163D01*
X175472Y471024D01*
X175611Y470913D01*
X175639Y470886D01*
X175917Y470552D01*
X176139Y470164D01*
X176277Y469775D01*
X176388Y469414D01*
X176444Y469109D01*
X176500Y468831D01*
Y468665D01*
Y468637D01*
Y468609D01*
X176472Y468109D01*
X176361Y467665D01*
X176222Y467276D01*
X176083Y466971D01*
X175917Y466693D01*
X175778Y466527D01*
X175667Y466388D01*
X175639Y466360D01*
X175306Y466083D01*
X174917Y465861D01*
X174528Y465722D01*
X174167Y465611D01*
X173862Y465555D01*
X173584Y465527D01*
X173418Y465500D01*
X167810D01*
Y471746D01*
X173362D01*
X173862Y471718D01*
D02*
G37*
G36*
X368336Y475050D02*
X368087Y475022D01*
X367892Y474939D01*
X367726Y474828D01*
X367448Y474578D01*
X367281Y474300D01*
X367170Y473995D01*
X367115Y473745D01*
X367087Y473634D01*
Y473551D01*
Y473523D01*
Y473495D01*
Y466832D01*
X358286D01*
Y473495D01*
X358259Y473773D01*
X358231Y474023D01*
X358148Y474217D01*
X358037Y474411D01*
X357925Y474578D01*
X357814Y474689D01*
X357537Y474883D01*
X357231Y474994D01*
X357009Y475050D01*
X356815Y475078D01*
X368586D01*
X368336Y475050D01*
D02*
G37*
G36*
X476803Y466055D02*
X471917D01*
X471362Y466083D01*
X470862Y466166D01*
X470418Y466277D01*
X470057Y466416D01*
X469752Y466527D01*
X469530Y466638D01*
X469391Y466721D01*
X469335Y466749D01*
X469113Y466916D01*
X468947Y467082D01*
X468641Y467443D01*
X468447Y467804D01*
X468280Y468165D01*
X468197Y468498D01*
X468169Y468748D01*
X468142Y468859D01*
Y468942D01*
Y468970D01*
Y468998D01*
X468169Y469442D01*
X468252Y469831D01*
X468391Y470164D01*
X468530Y470441D01*
X468641Y470663D01*
X468780Y470830D01*
X468863Y470941D01*
X468891Y470969D01*
X469196Y471219D01*
X469530Y471413D01*
X469863Y471552D01*
X470196Y471663D01*
X470474Y471718D01*
X470696Y471746D01*
X476803D01*
Y466055D01*
D02*
G37*
G36*
X470446Y474745D02*
X470001Y474689D01*
X469585Y474633D01*
X469196Y474523D01*
X468475Y474245D01*
X468169Y474106D01*
X467864Y473967D01*
X467614Y473801D01*
X467392Y473662D01*
X467197Y473523D01*
X467031Y473384D01*
X466892Y473273D01*
X466809Y473218D01*
X466753Y473162D01*
X466726Y473134D01*
X466448Y472829D01*
X466198Y472496D01*
X465976Y472135D01*
X465782Y471802D01*
X465615Y471441D01*
X465476Y471108D01*
X465282Y470441D01*
X465226Y470164D01*
X465171Y469886D01*
X465143Y469636D01*
X465115Y469414D01*
X465088Y469248D01*
Y469109D01*
Y469026D01*
Y468998D01*
X465143Y468165D01*
X465282Y467415D01*
X465532Y466749D01*
X465837Y466166D01*
X466170Y465639D01*
X466587Y465167D01*
X467003Y464778D01*
X467447Y464445D01*
X467892Y464167D01*
X468308Y463917D01*
X468725Y463723D01*
X469058Y463584D01*
X469363Y463473D01*
X469613Y463418D01*
X469752Y463362D01*
X469807D01*
X469308Y462724D01*
X468808Y462113D01*
X468364Y461530D01*
X467947Y461002D01*
X467614Y460558D01*
X467475Y460364D01*
X467336Y460225D01*
X467253Y460086D01*
X467170Y460003D01*
X467142Y459947D01*
X467114Y459920D01*
X466753Y459420D01*
X466448Y458976D01*
X466170Y458587D01*
X465920Y458226D01*
X465726Y457921D01*
X465560Y457643D01*
X465421Y457393D01*
X465310Y457199D01*
X465226Y457032D01*
X465171Y456894D01*
X465115Y456755D01*
X465088Y456671D01*
X465060Y456560D01*
Y474772D01*
X470890D01*
X470446Y474745D01*
D02*
G37*
G36*
X351596Y473495D02*
X351568Y473717D01*
X351512Y473939D01*
X351457Y474106D01*
X351374Y474273D01*
X351263Y474411D01*
X351207Y474495D01*
X351152Y474550D01*
X351124Y474578D01*
X350957Y474717D01*
X350763Y474828D01*
X350596Y474911D01*
X350430Y474967D01*
X350291Y474994D01*
X350180Y475022D01*
X351596D01*
Y473495D01*
D02*
G37*
G36*
X349180Y474994D02*
X348931Y474939D01*
X348708Y474828D01*
X348542Y474717D01*
X348403Y474606D01*
X348292Y474495D01*
X348237Y474439D01*
X348209Y474411D01*
X342684Y466832D01*
X337132Y474411D01*
X336937Y474606D01*
X336743Y474772D01*
X336521Y474883D01*
X336326Y474939D01*
X336160Y474994D01*
X336021Y475022D01*
X349458D01*
X349180Y474994D01*
D02*
G37*
G36*
X827162Y466055D02*
X822276D01*
X821721Y466083D01*
X821221Y466166D01*
X820777Y466277D01*
X820416Y466416D01*
X820111Y466527D01*
X819889Y466638D01*
X819750Y466721D01*
X819694Y466749D01*
X819472Y466916D01*
X819305Y467082D01*
X819000Y467443D01*
X818806Y467804D01*
X818639Y468165D01*
X818556Y468498D01*
X818528Y468748D01*
X818500Y468859D01*
Y468942D01*
Y468970D01*
Y468998D01*
X818528Y469442D01*
X818612Y469831D01*
X818750Y470164D01*
X818889Y470442D01*
X819000Y470664D01*
X819139Y470830D01*
X819222Y470941D01*
X819250Y470969D01*
X819555Y471219D01*
X819889Y471413D01*
X820222Y471552D01*
X820555Y471663D01*
X820832Y471719D01*
X821055Y471746D01*
X827162D01*
Y466055D01*
D02*
G37*
G36*
X820805Y474745D02*
X820360Y474689D01*
X819944Y474634D01*
X819555Y474523D01*
X818834Y474245D01*
X818528Y474106D01*
X818223Y473967D01*
X817973Y473801D01*
X817751Y473662D01*
X817557Y473523D01*
X817390Y473384D01*
X817251Y473273D01*
X817168Y473218D01*
X817112Y473162D01*
X817085Y473134D01*
X816807Y472829D01*
X816557Y472496D01*
X816335Y472135D01*
X816141Y471802D01*
X815974Y471441D01*
X815835Y471108D01*
X815641Y470442D01*
X815585Y470164D01*
X815530Y469886D01*
X815502Y469636D01*
X815474Y469414D01*
X815447Y469248D01*
Y469109D01*
Y469026D01*
Y468998D01*
X815502Y468165D01*
X815641Y467415D01*
X815891Y466749D01*
X816196Y466166D01*
X816529Y465639D01*
X816946Y465167D01*
X817362Y464778D01*
X817806Y464445D01*
X818251Y464167D01*
X818667Y463917D01*
X819083Y463723D01*
X819417Y463584D01*
X819722Y463473D01*
X819972Y463418D01*
X820111Y463362D01*
X820166D01*
X819666Y462724D01*
X819167Y462113D01*
X818723Y461530D01*
X818306Y461002D01*
X817973Y460558D01*
X817834Y460364D01*
X817695Y460225D01*
X817612Y460086D01*
X817529Y460003D01*
X817501Y459947D01*
X817473Y459920D01*
X817112Y459420D01*
X816807Y458976D01*
X816529Y458587D01*
X816279Y458226D01*
X816085Y457921D01*
X815919Y457643D01*
X815780Y457393D01*
X815669Y457199D01*
X815585Y457032D01*
X815530Y456894D01*
X815474Y456755D01*
X815447Y456671D01*
X815419Y456560D01*
Y474772D01*
X821249D01*
X820805Y474745D01*
D02*
G37*
G36*
X809922Y474967D02*
X809700Y474883D01*
X809505Y474800D01*
X809450Y474745D01*
X809422D01*
X809256Y474661D01*
X809117Y474578D01*
X808950Y474439D01*
X808839Y474328D01*
X808811Y474300D01*
X800399Y460863D01*
Y473495D01*
X800372Y473773D01*
X800344Y473995D01*
X800261Y474217D01*
X800150Y474384D01*
X799928Y474661D01*
X799650Y474828D01*
X799344Y474939D01*
X799122Y474995D01*
X798928Y475022D01*
X810116Y475022D01*
X809922Y474967D01*
D02*
G37*
G36*
X780078Y475050D02*
X779883Y475022D01*
X779689Y474939D01*
X779522Y474856D01*
X779383Y474772D01*
X779300Y474717D01*
X779245Y474661D01*
X779217Y474634D01*
X779078Y474467D01*
X778967Y474273D01*
X778912Y474078D01*
X778856Y473912D01*
X778828Y473745D01*
X778801Y473606D01*
Y475078D01*
X780327D01*
X780078Y475050D01*
D02*
G37*
G36*
X791904D02*
X791654Y475022D01*
X791460Y474939D01*
X791293Y474828D01*
X791016Y474578D01*
X790849Y474300D01*
X790738Y473995D01*
X790683Y473745D01*
X790655Y473634D01*
Y473551D01*
Y473523D01*
Y473495D01*
Y466832D01*
X781854D01*
Y473495D01*
X781827Y473773D01*
X781799Y474023D01*
X781715Y474217D01*
X781605Y474412D01*
X781493Y474578D01*
X781382Y474689D01*
X781105Y474883D01*
X780799Y474995D01*
X780577Y475050D01*
X780383Y475078D01*
X792154D01*
X791904Y475050D01*
D02*
G37*
G36*
X778828Y456283D02*
X778856Y456088D01*
X778939Y455894D01*
X779023Y455755D01*
X779078Y455616D01*
X779161Y455533D01*
X779189Y455478D01*
X779217Y455450D01*
X779383Y455311D01*
X779578Y455200D01*
X779772Y455145D01*
X779939Y455089D01*
X780105Y455061D01*
X780216Y455033D01*
X778801D01*
Y456533D01*
X778828Y456283D01*
D02*
G37*
G36*
X729439Y474995D02*
X728801Y474883D01*
X728162Y474717D01*
X727579Y474523D01*
X727024Y474273D01*
X726524Y474023D01*
X726024Y473717D01*
X725608Y473440D01*
X725219Y473134D01*
X724886Y472829D01*
X724581Y472579D01*
X724331Y472329D01*
X724137Y472135D01*
X723998Y471968D01*
X723915Y471857D01*
X723887Y471830D01*
X723470Y471274D01*
X723137Y470691D01*
X722832Y470108D01*
X722554Y469525D01*
X722332Y468942D01*
X722138Y468387D01*
X721999Y467832D01*
X721860Y467332D01*
X721777Y466832D01*
X721694Y466416D01*
X721666Y466027D01*
X721610Y465666D01*
Y465416D01*
X721583Y465194D01*
Y475022D01*
X730133D01*
X729439Y474995D01*
D02*
G37*
G36*
X730577Y471941D02*
X731022Y471857D01*
X731410Y471746D01*
X731799Y471608D01*
X732493Y471247D01*
X732798Y471025D01*
X733076Y470830D01*
X733326Y470608D01*
X733548Y470386D01*
X733742Y470192D01*
X733909Y470025D01*
X734020Y469886D01*
X734103Y469775D01*
X734159Y469692D01*
X734187Y469664D01*
X734436Y469276D01*
X734659Y468859D01*
X734853Y468470D01*
X735020Y468054D01*
X735269Y467277D01*
X735464Y466555D01*
X735519Y466249D01*
X735547Y465944D01*
X735575Y465694D01*
X735602Y465472D01*
X735630Y465278D01*
Y465139D01*
Y465056D01*
Y465028D01*
X735602Y464556D01*
X735575Y464084D01*
X735408Y463223D01*
X735186Y462418D01*
X735047Y462057D01*
X734908Y461724D01*
X734770Y461419D01*
X734631Y461169D01*
X734520Y460919D01*
X734409Y460725D01*
X734325Y460586D01*
X734242Y460447D01*
X734214Y460392D01*
X734187Y460364D01*
X733881Y459947D01*
X733548Y459614D01*
X733215Y459309D01*
X732882Y459031D01*
X732521Y458809D01*
X732188Y458615D01*
X731882Y458476D01*
X731549Y458337D01*
X731272Y458254D01*
X730994Y458171D01*
X730744Y458143D01*
X730550Y458087D01*
X730383D01*
X730244Y458060D01*
X730133D01*
X729689Y458087D01*
X729245Y458171D01*
X728856Y458282D01*
X728468Y458420D01*
X727774Y458809D01*
X727468Y459003D01*
X727190Y459226D01*
X726941Y459448D01*
X726719Y459642D01*
X726524Y459864D01*
X726358Y460031D01*
X726247Y460169D01*
X726163Y460280D01*
X726108Y460364D01*
X726080Y460392D01*
X725830Y460780D01*
X725608Y461169D01*
X725414Y461585D01*
X725247Y461974D01*
X724997Y462751D01*
X724831Y463473D01*
X724747Y463806D01*
X724720Y464112D01*
X724692Y464362D01*
X724664Y464584D01*
X724636Y464778D01*
Y464917D01*
Y465000D01*
Y465028D01*
X724664Y465500D01*
X724692Y465972D01*
X724858Y466832D01*
X725081Y467610D01*
X725219Y467971D01*
X725358Y468304D01*
X725497Y468609D01*
X725636Y468859D01*
X725747Y469109D01*
X725858Y469303D01*
X725941Y469470D01*
X726024Y469581D01*
X726052Y469636D01*
X726080Y469664D01*
X726385Y470081D01*
X726719Y470414D01*
X727052Y470747D01*
X727385Y470997D01*
X727718Y471219D01*
X728051Y471413D01*
X728384Y471552D01*
X728690Y471691D01*
X728995Y471774D01*
X729273Y471857D01*
X729523Y471885D01*
X729717Y471941D01*
X729883D01*
X730022Y471968D01*
X730133D01*
X730577Y471941D01*
D02*
G37*
G36*
X638685Y474995D02*
X638046Y474883D01*
X637408Y474717D01*
X636825Y474523D01*
X636269Y474273D01*
X635770Y474023D01*
X635270Y473717D01*
X634854Y473440D01*
X634465Y473134D01*
X634132Y472829D01*
X633826Y472579D01*
X633576Y472329D01*
X633382Y472135D01*
X633243Y471968D01*
X633160Y471857D01*
X633132Y471830D01*
X632716Y471274D01*
X632383Y470691D01*
X632077Y470108D01*
X631800Y469525D01*
X631577Y468942D01*
X631383Y468387D01*
X631244Y467832D01*
X631106Y467332D01*
X631022Y466832D01*
X630939Y466416D01*
X630911Y466027D01*
X630856Y465666D01*
Y465416D01*
X630828Y465194D01*
Y475022D01*
X639379D01*
X638685Y474995D01*
D02*
G37*
G36*
X639823Y471941D02*
X640267Y471857D01*
X640656Y471746D01*
X641044Y471608D01*
X641739Y471247D01*
X642044Y471025D01*
X642321Y470830D01*
X642571Y470608D01*
X642794Y470386D01*
X642988Y470192D01*
X643154Y470025D01*
X643265Y469886D01*
X643349Y469775D01*
X643404Y469692D01*
X643432Y469664D01*
X643682Y469275D01*
X643904Y468859D01*
X644098Y468470D01*
X644265Y468054D01*
X644515Y467277D01*
X644709Y466555D01*
X644765Y466249D01*
X644792Y465944D01*
X644820Y465694D01*
X644848Y465472D01*
X644876Y465278D01*
Y465139D01*
Y465056D01*
Y465028D01*
X644848Y464556D01*
X644820Y464084D01*
X644653Y463223D01*
X644431Y462418D01*
X644293Y462057D01*
X644154Y461724D01*
X644015Y461419D01*
X643876Y461169D01*
X643765Y460919D01*
X643654Y460725D01*
X643571Y460586D01*
X643487Y460447D01*
X643460Y460392D01*
X643432Y460364D01*
X643127Y459947D01*
X642794Y459614D01*
X642460Y459309D01*
X642127Y459031D01*
X641766Y458809D01*
X641433Y458615D01*
X641128Y458476D01*
X640795Y458337D01*
X640517Y458254D01*
X640239Y458171D01*
X639990Y458143D01*
X639795Y458087D01*
X639629D01*
X639490Y458060D01*
X639379D01*
X638935Y458087D01*
X638490Y458171D01*
X638102Y458282D01*
X637713Y458420D01*
X637019Y458809D01*
X636713Y459003D01*
X636436Y459226D01*
X636186Y459448D01*
X635964Y459642D01*
X635770Y459864D01*
X635603Y460031D01*
X635492Y460169D01*
X635409Y460280D01*
X635353Y460364D01*
X635325Y460392D01*
X635076Y460780D01*
X634854Y461169D01*
X634659Y461585D01*
X634493Y461974D01*
X634243Y462751D01*
X634076Y463473D01*
X633993Y463806D01*
X633965Y464112D01*
X633937Y464361D01*
X633910Y464584D01*
X633882Y464778D01*
Y464917D01*
Y465000D01*
Y465028D01*
X633910Y465500D01*
X633937Y465972D01*
X634104Y466832D01*
X634326Y467610D01*
X634465Y467971D01*
X634604Y468304D01*
X634742Y468609D01*
X634881Y468859D01*
X634992Y469109D01*
X635103Y469303D01*
X635187Y469470D01*
X635270Y469581D01*
X635298Y469636D01*
X635325Y469664D01*
X635631Y470080D01*
X635964Y470414D01*
X636297Y470747D01*
X636630Y470997D01*
X636963Y471219D01*
X637296Y471413D01*
X637630Y471552D01*
X637935Y471691D01*
X638241Y471774D01*
X638518Y471857D01*
X638768Y471885D01*
X638962Y471941D01*
X639129D01*
X639268Y471968D01*
X639379D01*
X639823Y471941D01*
D02*
G37*
G36*
X579579Y474745D02*
X579385Y474689D01*
X579190Y474633D01*
X579024Y474550D01*
X578913Y474439D01*
X578802Y474384D01*
X578746Y474328D01*
X578718Y474300D01*
X578579Y474134D01*
X578468Y473940D01*
X578385Y473773D01*
X578330Y473606D01*
X578302Y473467D01*
X578274Y473357D01*
Y474772D01*
X579801D01*
X579579Y474745D01*
D02*
G37*
G36*
X593155Y473245D02*
X593127Y473467D01*
X593071Y473662D01*
X593016Y473856D01*
X592933Y473995D01*
X592822Y474134D01*
X592766Y474217D01*
X592710Y474273D01*
X592683Y474300D01*
X592516Y474467D01*
X592322Y474578D01*
X592155Y474661D01*
X591989Y474717D01*
X591850Y474745D01*
X591739Y474772D01*
X593155D01*
Y473245D01*
D02*
G37*
G36*
X525220Y474745D02*
X525026Y474689D01*
X524832Y474633D01*
X524665Y474550D01*
X524554Y474439D01*
X524443Y474384D01*
X524388Y474328D01*
X524360Y474300D01*
X524221Y474134D01*
X524110Y473940D01*
X524027Y473773D01*
X523971Y473606D01*
X523943Y473467D01*
X523916Y473357D01*
Y474772D01*
X525443D01*
X525220Y474745D01*
D02*
G37*
G36*
X449097Y474745D02*
X448902Y474689D01*
X448708Y474633D01*
X448541Y474550D01*
X448430Y474439D01*
X448319Y474384D01*
X448264Y474328D01*
X448236Y474300D01*
X448097Y474134D01*
X447986Y473940D01*
X447903Y473773D01*
X447847Y473606D01*
X447820Y473467D01*
X447792Y473357D01*
Y474772D01*
X449319D01*
X449097Y474745D01*
D02*
G37*
G36*
X456870Y471718D02*
X457314Y471607D01*
X457703Y471469D01*
X458036Y471330D01*
X458314Y471163D01*
X458480Y471024D01*
X458619Y470913D01*
X458647Y470886D01*
X458924Y470552D01*
X459146Y470164D01*
X459285Y469775D01*
X459396Y469414D01*
X459452Y469109D01*
X459507Y468831D01*
Y468665D01*
Y468637D01*
Y468609D01*
X459480Y468109D01*
X459369Y467665D01*
X459230Y467276D01*
X459091Y466971D01*
X458924Y466693D01*
X458786Y466527D01*
X458675Y466388D01*
X458647Y466360D01*
X458314Y466083D01*
X457925Y465861D01*
X457536Y465722D01*
X457175Y465611D01*
X456870Y465555D01*
X456592Y465527D01*
X456426Y465500D01*
X450818D01*
Y471746D01*
X456370D01*
X456870Y471718D01*
D02*
G37*
G36*
X430246Y474745D02*
X430052Y474689D01*
X429857Y474633D01*
X429691Y474550D01*
X429580Y474439D01*
X429469Y474384D01*
X429413Y474328D01*
X429385Y474300D01*
X429247Y474134D01*
X429136Y473940D01*
X429052Y473773D01*
X428997Y473606D01*
X428969Y473467D01*
X428941Y473357D01*
Y474772D01*
X430468D01*
X430246Y474745D01*
D02*
G37*
G36*
X443822Y455033D02*
X442295D01*
X442545Y455061D01*
X442739Y455089D01*
X442933Y455172D01*
X443100Y455256D01*
X443211Y455311D01*
X443294Y455394D01*
X443350Y455422D01*
X443378Y455450D01*
X443516Y455616D01*
X443627Y455783D01*
X443711Y455977D01*
X443766Y456144D01*
X443794Y456311D01*
X443822Y456422D01*
Y455033D01*
D02*
G37*
G36*
X313561Y473495D02*
X313534Y473717D01*
X313478Y473912D01*
X313423Y474106D01*
X313339Y474245D01*
X313228Y474384D01*
X313173Y474467D01*
X313117Y474522D01*
X313090Y474550D01*
X312895Y474717D01*
X312729Y474828D01*
X312534Y474911D01*
X312368Y474967D01*
X312229Y474994D01*
X312118Y475022D01*
X313561D01*
Y473495D01*
D02*
G37*
G36*
X311229Y474967D02*
X311007Y474883D01*
X310813Y474800D01*
X310758Y474744D01*
X310730D01*
X310563Y474661D01*
X310424Y474578D01*
X310258Y474439D01*
X310147Y474328D01*
X310119Y474300D01*
X301707Y460863D01*
Y473495D01*
X301679Y473773D01*
X301651Y473995D01*
X301568Y474217D01*
X301457Y474384D01*
X301235Y474661D01*
X300958Y474828D01*
X300652Y474939D01*
X300430Y474994D01*
X300236Y475022D01*
X311424D01*
X311229Y474967D01*
D02*
G37*
G36*
X238409Y473495D02*
X238382Y473717D01*
X238326Y473912D01*
X238270Y474106D01*
X238187Y474245D01*
X238076Y474384D01*
X238021Y474467D01*
X237965Y474522D01*
X237937Y474550D01*
X237743Y474717D01*
X237576Y474828D01*
X237382Y474911D01*
X237215Y474967D01*
X237077Y474994D01*
X236966Y475022D01*
X238409D01*
Y473495D01*
D02*
G37*
G36*
X236077Y474967D02*
X235855Y474883D01*
X235661Y474800D01*
X235605Y474744D01*
X235578D01*
X235411Y474661D01*
X235272Y474578D01*
X235105Y474439D01*
X234995Y474328D01*
X234967Y474300D01*
X226555Y460863D01*
Y473495D01*
X226527Y473773D01*
X226499Y473995D01*
X226416Y474217D01*
X226305Y474384D01*
X226083Y474661D01*
X225805Y474828D01*
X225500Y474939D01*
X225278Y474994D01*
X225083Y475022D01*
X236272Y475022D01*
X236077Y474967D01*
D02*
G37*
G36*
X193573Y462390D02*
X187355D01*
X190464Y470025D01*
X193573Y462390D01*
D02*
G37*
%LPC*%
G36*
X717097Y150703D02*
X711184D01*
Y145206D01*
X717292D01*
X717514Y145261D01*
X717764Y145317D01*
X718069Y145400D01*
X718402Y145539D01*
X718735Y145733D01*
X719041Y146011D01*
X719068Y146039D01*
X719179Y146150D01*
X719290Y146316D01*
X719457Y146566D01*
X719596Y146844D01*
X719735Y147177D01*
X719818Y147538D01*
X719846Y147954D01*
Y148010D01*
Y148149D01*
X719818Y148343D01*
X719735Y148621D01*
X719651Y148898D01*
X719512Y149232D01*
X719318Y149565D01*
X719041Y149870D01*
X719013Y149898D01*
X718902Y150009D01*
X718735Y150148D01*
X718485Y150286D01*
X718208Y150453D01*
X717875Y150564D01*
X717514Y150675D01*
X717097Y150703D01*
D02*
G37*
G36*
X699413Y158643D02*
X693416D01*
Y153729D01*
X699496D01*
X699690Y153757D01*
X699940Y153812D01*
X700218Y153896D01*
X700523Y154034D01*
X700829Y154201D01*
X701106Y154423D01*
X701134Y154451D01*
X701217Y154562D01*
X701356Y154701D01*
X701495Y154923D01*
X701606Y155173D01*
X701745Y155478D01*
X701828Y155811D01*
X701856Y156172D01*
Y156228D01*
Y156339D01*
X701828Y156533D01*
X701773Y156755D01*
X701689Y157033D01*
X701550Y157310D01*
X701384Y157616D01*
X701134Y157893D01*
X701106Y157921D01*
X701023Y158004D01*
X700856Y158143D01*
X700662Y158282D01*
X700412Y158393D01*
X700107Y158532D01*
X699774Y158615D01*
X699413Y158643D01*
D02*
G37*
G36*
X699385Y150703D02*
X693416D01*
Y145206D01*
X699524D01*
X699774Y145234D01*
X700051Y145289D01*
X700357Y145400D01*
X700690Y145511D01*
X701023Y145706D01*
X701328Y145955D01*
X701356Y145983D01*
X701439Y146094D01*
X701578Y146261D01*
X701717Y146483D01*
X701856Y146761D01*
X701995Y147121D01*
X702078Y147510D01*
X702106Y147954D01*
Y147982D01*
Y148010D01*
Y148149D01*
X702078Y148371D01*
X702022Y148649D01*
X701911Y148982D01*
X701800Y149315D01*
X701606Y149620D01*
X701356Y149925D01*
X701328Y149953D01*
X701217Y150037D01*
X701051Y150175D01*
X700829Y150314D01*
X700551Y150453D01*
X700218Y150592D01*
X699829Y150675D01*
X699385Y150703D01*
D02*
G37*
G36*
X901908Y125016D02*
X901797D01*
X901547Y124988D01*
X901297Y124960D01*
X901103Y124877D01*
X900937Y124766D01*
X900659Y124516D01*
X900492Y124239D01*
X900381Y123933D01*
X900326Y123683D01*
X900298Y123572D01*
Y123489D01*
Y123461D01*
Y123434D01*
Y116771D01*
X891497D01*
Y123434D01*
X891470Y123711D01*
X891442Y123961D01*
X891358Y124155D01*
X891247Y124350D01*
X891136Y124516D01*
X891025Y124627D01*
X890748Y124822D01*
X890442Y124933D01*
X890220Y124988D01*
X890026Y125016D01*
X889970D01*
X889721Y124988D01*
X889526Y124960D01*
X889332Y124877D01*
X889165Y124794D01*
X889026Y124711D01*
X888943Y124655D01*
X888888Y124600D01*
X888860Y124572D01*
X888721Y124405D01*
X888610Y124211D01*
X888555Y124017D01*
X888499Y123850D01*
X888471Y123683D01*
X888444Y123545D01*
Y106471D01*
X888471Y106221D01*
X888499Y106027D01*
X888582Y105832D01*
X888666Y105694D01*
X888721Y105555D01*
X888804Y105471D01*
X888832Y105416D01*
X888860Y105388D01*
X889026Y105249D01*
X889221Y105138D01*
X889415Y105083D01*
X889582Y105027D01*
X889748Y105000D01*
X889859Y104972D01*
X889970D01*
X890248Y105000D01*
X890470Y105027D01*
X890692Y105111D01*
X890859Y105194D01*
X891136Y105444D01*
X891303Y105721D01*
X891414Y105999D01*
X891470Y106249D01*
X891497Y106415D01*
Y106443D01*
Y106471D01*
Y113745D01*
X900298D01*
Y106471D01*
X900326Y106221D01*
X900353Y105971D01*
X900437Y105777D01*
X900520Y105610D01*
X900770Y105333D01*
X901048Y105166D01*
X901325Y105055D01*
X901575Y105000D01*
X901742Y104972D01*
X901797D01*
X902047Y105000D01*
X902269Y105027D01*
X902463Y105111D01*
X902602Y105194D01*
X902741Y105249D01*
X902824Y105333D01*
X902880Y105360D01*
X902908Y105388D01*
X903046Y105555D01*
X903158Y105721D01*
X903241Y105916D01*
X903296Y106082D01*
X903324Y106249D01*
X903352Y106360D01*
Y123434D01*
X903324Y123683D01*
X903296Y123905D01*
X903213Y124100D01*
X903130Y124266D01*
X903046Y124405D01*
X902991Y124488D01*
X902935Y124544D01*
X902908Y124572D01*
X902741Y124711D01*
X902547Y124822D01*
X902380Y124905D01*
X902186Y124960D01*
X902047Y124988D01*
X901908Y125016D01*
D02*
G37*
G36*
X812847Y124988D02*
X812736D01*
X812431Y124960D01*
X812181Y124849D01*
X811959Y124711D01*
X811764Y124572D01*
X811626Y124405D01*
X811515Y124266D01*
X811459Y124155D01*
X811431Y124128D01*
X807156Y115771D01*
X801631Y124266D01*
X801437Y124516D01*
X801242Y124683D01*
X801048Y124822D01*
X800854Y124905D01*
X800659Y124960D01*
X800548Y124988D01*
X800410D01*
X800188Y124960D01*
X799993Y124905D01*
X799799Y124849D01*
X799632Y124766D01*
X799493Y124655D01*
X799382Y124600D01*
X799327Y124544D01*
X799299Y124516D01*
X799133Y124350D01*
X799022Y124155D01*
X798938Y123989D01*
X798883Y123822D01*
X798855Y123683D01*
X798827Y123572D01*
Y123461D01*
X798855Y123128D01*
X798966Y122878D01*
X798994Y122767D01*
X799049Y122684D01*
X799077Y122628D01*
Y122601D01*
X805546Y112606D01*
X802769Y107193D01*
X802658Y106887D01*
X802603Y106637D01*
X802575Y106526D01*
Y106443D01*
Y106415D01*
Y106388D01*
X802603Y106166D01*
X802658Y105943D01*
X802714Y105777D01*
X802825Y105610D01*
X802908Y105471D01*
X802964Y105388D01*
X803019Y105333D01*
X803047Y105305D01*
X803241Y105166D01*
X803408Y105055D01*
X803602Y105000D01*
X803769Y104944D01*
X803908Y104916D01*
X804019Y104888D01*
X804130D01*
X804435Y104916D01*
X804713Y105027D01*
X804963Y105166D01*
X805157Y105333D01*
X805296Y105499D01*
X805407Y105638D01*
X805462Y105749D01*
X805490Y105777D01*
X814152Y122739D01*
X814263Y123017D01*
X814318Y123267D01*
X814346Y123434D01*
Y123489D01*
X814318Y123711D01*
X814263Y123905D01*
X814180Y124100D01*
X814096Y124239D01*
X814013Y124377D01*
X813930Y124461D01*
X813874Y124516D01*
X813847Y124544D01*
X813652Y124683D01*
X813486Y124794D01*
X813291Y124877D01*
X813125Y124933D01*
X812958Y124960D01*
X812847Y124988D01*
D02*
G37*
G36*
X908460Y124960D02*
X908349D01*
X908099Y124933D01*
X907905Y124905D01*
X907710Y124822D01*
X907544Y124738D01*
X907405Y124655D01*
X907322Y124600D01*
X907266Y124544D01*
X907238Y124516D01*
X907100Y124350D01*
X906989Y124183D01*
X906933Y123989D01*
X906878Y123822D01*
X906850Y123656D01*
X906822Y123545D01*
Y106721D01*
X906850Y106499D01*
X906905Y106304D01*
X906961Y106110D01*
X907044Y105943D01*
X907128Y105832D01*
X907211Y105721D01*
X907238Y105666D01*
X907266Y105638D01*
X907461Y105499D01*
X907627Y105388D01*
X907822Y105305D01*
X907988Y105249D01*
X908127Y105222D01*
X908238Y105194D01*
X915761D01*
X916206Y105222D01*
X916622Y105277D01*
X917039Y105360D01*
X917427Y105471D01*
X918121Y105721D01*
X918427Y105888D01*
X918732Y106054D01*
X918982Y106193D01*
X919204Y106360D01*
X919398Y106499D01*
X919565Y106637D01*
X919704Y106721D01*
X919787Y106804D01*
X919843Y106860D01*
X919870Y106887D01*
X920176Y107220D01*
X920426Y107554D01*
X920675Y107887D01*
X920870Y108248D01*
X921036Y108581D01*
X921175Y108942D01*
X921369Y109580D01*
X921453Y109886D01*
X921508Y110135D01*
X921536Y110385D01*
X921564Y110580D01*
X921592Y110774D01*
Y110996D01*
X921564Y111440D01*
X921508Y111857D01*
X921425Y112273D01*
X921314Y112634D01*
X921036Y113328D01*
X920898Y113661D01*
X920731Y113939D01*
X920564Y114189D01*
X920426Y114411D01*
X920259Y114605D01*
X920148Y114772D01*
X920037Y114911D01*
X919954Y114994D01*
X919898Y115049D01*
X919870Y115077D01*
X919537Y115382D01*
X919204Y115632D01*
X918871Y115855D01*
X918510Y116049D01*
X918177Y116215D01*
X917816Y116354D01*
X917177Y116549D01*
X916900Y116632D01*
X916622Y116687D01*
X916372Y116715D01*
X916178Y116743D01*
X915984Y116771D01*
X909848D01*
Y123434D01*
X909820Y123683D01*
X909793Y123878D01*
X909709Y124072D01*
X909654Y124239D01*
X909570Y124350D01*
X909487Y124433D01*
X909460Y124488D01*
X909432Y124516D01*
X909265Y124655D01*
X909099Y124766D01*
X908904Y124849D01*
X908738Y124905D01*
X908571Y124933D01*
X908460Y124960D01*
D02*
G37*
G36*
X884057Y124711D02*
X873230D01*
X873008Y124683D01*
X872813Y124627D01*
X872619Y124572D01*
X872452Y124488D01*
X872341Y124377D01*
X872230Y124322D01*
X872175Y124266D01*
X872147Y124239D01*
X872008Y124072D01*
X871897Y123878D01*
X871814Y123711D01*
X871758Y123545D01*
X871731Y123406D01*
X871703Y123295D01*
Y106721D01*
X871731Y106499D01*
X871786Y106304D01*
X871842Y106110D01*
X871925Y105943D01*
X872008Y105832D01*
X872092Y105721D01*
X872119Y105666D01*
X872147Y105638D01*
X872341Y105499D01*
X872508Y105388D01*
X872702Y105305D01*
X872869Y105249D01*
X873008Y105222D01*
X873119Y105194D01*
X883946D01*
X884196Y105222D01*
X884418Y105249D01*
X884612Y105333D01*
X884751Y105416D01*
X884890Y105471D01*
X884973Y105555D01*
X885029Y105583D01*
X885057Y105610D01*
X885195Y105777D01*
X885306Y105971D01*
X885362Y106166D01*
X885417Y106332D01*
X885445Y106499D01*
X885473Y106610D01*
Y106721D01*
X885445Y106971D01*
X885417Y107165D01*
X885334Y107359D01*
X885279Y107526D01*
X885195Y107637D01*
X885112Y107720D01*
X885084Y107776D01*
X885057Y107803D01*
X884890Y107942D01*
X884696Y108053D01*
X884529Y108137D01*
X884335Y108192D01*
X884196Y108220D01*
X884057Y108248D01*
X874729D01*
Y113495D01*
X882974D01*
X883224Y113523D01*
X883446Y113550D01*
X883641Y113633D01*
X883807Y113717D01*
X883946Y113772D01*
X884029Y113856D01*
X884085Y113883D01*
X884113Y113911D01*
X884251Y114078D01*
X884362Y114272D01*
X884446Y114439D01*
X884501Y114633D01*
X884529Y114772D01*
X884557Y114911D01*
Y114994D01*
Y115022D01*
X884529Y115299D01*
X884501Y115521D01*
X884418Y115743D01*
X884307Y115910D01*
X884057Y116188D01*
X883780Y116354D01*
X883474Y116465D01*
X883224Y116521D01*
X883113Y116549D01*
X874729D01*
Y121685D01*
X883946D01*
X884196Y121712D01*
X884418Y121740D01*
X884612Y121823D01*
X884751Y121907D01*
X884890Y121962D01*
X884973Y122045D01*
X885029Y122073D01*
X885057Y122101D01*
X885195Y122268D01*
X885306Y122434D01*
X885362Y122628D01*
X885417Y122795D01*
X885445Y122962D01*
X885473Y123073D01*
Y123184D01*
X885445Y123434D01*
X885417Y123628D01*
X885334Y123822D01*
X885279Y123989D01*
X885195Y124100D01*
X885112Y124183D01*
X885084Y124239D01*
X885057Y124266D01*
X884890Y124405D01*
X884696Y124516D01*
X884529Y124600D01*
X884335Y124655D01*
X884196Y124683D01*
X884057Y124711D01*
D02*
G37*
G36*
X863374D02*
X855656D01*
X855434Y124683D01*
X855240Y124627D01*
X855046Y124572D01*
X854879Y124488D01*
X854768Y124377D01*
X854657Y124322D01*
X854601Y124266D01*
X854574Y124239D01*
X854435Y124072D01*
X854324Y123878D01*
X854240Y123711D01*
X854185Y123545D01*
X854157Y123406D01*
X854129Y123295D01*
Y106721D01*
X854157Y106499D01*
X854213Y106304D01*
X854268Y106110D01*
X854352Y105943D01*
X854435Y105832D01*
X854518Y105721D01*
X854546Y105666D01*
X854574Y105638D01*
X854768Y105499D01*
X854934Y105388D01*
X855129Y105305D01*
X855295Y105249D01*
X855434Y105222D01*
X855545Y105194D01*
X863069D01*
X863541Y105222D01*
X863957Y105277D01*
X864374Y105333D01*
X864762Y105444D01*
X865484Y105721D01*
X865790Y105860D01*
X866095Y106027D01*
X866345Y106166D01*
X866567Y106304D01*
X866761Y106443D01*
X866928Y106582D01*
X867067Y106693D01*
X867150Y106749D01*
X867205Y106804D01*
X867233Y106832D01*
X867539Y107165D01*
X867788Y107498D01*
X868010Y107831D01*
X868205Y108192D01*
X868371Y108525D01*
X868483Y108886D01*
X868705Y109552D01*
X868760Y109830D01*
X868816Y110108D01*
X868843Y110358D01*
X868871Y110580D01*
X868899Y110746D01*
Y110996D01*
X868871Y111496D01*
X868816Y111940D01*
X868732Y112384D01*
X868594Y112801D01*
X868455Y113189D01*
X868316Y113550D01*
X868122Y113883D01*
X867955Y114189D01*
X867788Y114439D01*
X867622Y114689D01*
X867455Y114883D01*
X867317Y115049D01*
X867178Y115188D01*
X867094Y115272D01*
X867039Y115327D01*
X867011Y115355D01*
X867289Y115660D01*
X867566Y115993D01*
X867761Y116299D01*
X867955Y116632D01*
X868122Y116965D01*
X868260Y117298D01*
X868455Y117881D01*
X868566Y118409D01*
X868594Y118631D01*
X868621Y118825D01*
X868649Y118992D01*
Y119103D01*
Y119186D01*
Y119214D01*
X868621Y119630D01*
X868594Y120047D01*
X868510Y120407D01*
X868399Y120796D01*
X868149Y121435D01*
X867844Y122018D01*
X867705Y122268D01*
X867539Y122462D01*
X867400Y122656D01*
X867289Y122823D01*
X867178Y122934D01*
X867122Y123017D01*
X867067Y123073D01*
X867039Y123100D01*
X866733Y123378D01*
X866400Y123628D01*
X866095Y123850D01*
X865762Y124044D01*
X865429Y124183D01*
X865096Y124322D01*
X864485Y124516D01*
X863957Y124627D01*
X863735Y124655D01*
X863541Y124683D01*
X863374Y124711D01*
D02*
G37*
G36*
X842886Y124960D02*
X842719D01*
X842025Y124933D01*
X841387Y124822D01*
X840748Y124655D01*
X840165Y124461D01*
X839610Y124211D01*
X839110Y123961D01*
X838610Y123656D01*
X838194Y123378D01*
X837805Y123073D01*
X837472Y122767D01*
X837167Y122517D01*
X836917Y122268D01*
X836722Y122073D01*
X836584Y121907D01*
X836500Y121796D01*
X836473Y121768D01*
X836056Y121213D01*
X835723Y120630D01*
X835418Y120047D01*
X835140Y119464D01*
X834918Y118881D01*
X834724Y118325D01*
X834585Y117770D01*
X834446Y117270D01*
X834363Y116771D01*
X834279Y116354D01*
X834252Y115965D01*
X834196Y115605D01*
Y115355D01*
X834168Y115133D01*
Y114966D01*
X834196Y114244D01*
X834279Y113578D01*
X834390Y112912D01*
X834529Y112273D01*
X834696Y111662D01*
X834890Y111107D01*
X835112Y110580D01*
X835334Y110108D01*
X835529Y109663D01*
X835751Y109275D01*
X835945Y108942D01*
X836112Y108664D01*
X836251Y108442D01*
X836362Y108275D01*
X836445Y108164D01*
X836473Y108137D01*
X836945Y107581D01*
X837472Y107082D01*
X837972Y106665D01*
X838499Y106304D01*
X839027Y105999D01*
X839554Y105749D01*
X840054Y105527D01*
X840526Y105360D01*
X840998Y105249D01*
X841414Y105138D01*
X841775Y105083D01*
X842108Y105027D01*
X842358Y105000D01*
X842553Y104972D01*
X842719D01*
X843413Y105000D01*
X844052Y105111D01*
X844690Y105277D01*
X845273Y105471D01*
X845828Y105694D01*
X846356Y105971D01*
X846828Y106249D01*
X847244Y106554D01*
X847633Y106860D01*
X847966Y107137D01*
X848272Y107415D01*
X848521Y107637D01*
X848716Y107859D01*
X848855Y107998D01*
X848938Y108109D01*
X848966Y108137D01*
X849382Y108692D01*
X849715Y109275D01*
X850048Y109858D01*
X850298Y110469D01*
X850520Y111052D01*
X850715Y111607D01*
X850854Y112162D01*
X850992Y112662D01*
X851076Y113161D01*
X851159Y113578D01*
X851187Y113994D01*
X851242Y114328D01*
Y114577D01*
X851270Y114799D01*
Y114966D01*
X851242Y115688D01*
X851159Y116354D01*
X851048Y117021D01*
X850909Y117659D01*
X850742Y118242D01*
X850548Y118825D01*
X850326Y119325D01*
X850132Y119824D01*
X849910Y120241D01*
X849688Y120630D01*
X849493Y120963D01*
X849327Y121240D01*
X849188Y121462D01*
X849077Y121629D01*
X848993Y121740D01*
X848966Y121768D01*
X848494Y122323D01*
X847994Y122823D01*
X847467Y123239D01*
X846939Y123628D01*
X846412Y123933D01*
X845884Y124183D01*
X845384Y124405D01*
X844912Y124572D01*
X844440Y124683D01*
X844024Y124794D01*
X843663Y124877D01*
X843358Y124905D01*
X843080Y124933D01*
X842886Y124960D01*
D02*
G37*
G36*
X825867Y124711D02*
X818566D01*
X818344Y124683D01*
X818150Y124627D01*
X817955Y124572D01*
X817789Y124488D01*
X817678Y124377D01*
X817567Y124322D01*
X817511Y124266D01*
X817483Y124239D01*
X817345Y124072D01*
X817234Y123878D01*
X817150Y123711D01*
X817095Y123545D01*
X817067Y123406D01*
X817039Y123295D01*
Y106471D01*
X817067Y106221D01*
X817095Y105971D01*
X817178Y105777D01*
X817289Y105610D01*
X817511Y105333D01*
X817816Y105166D01*
X818094Y105055D01*
X818316Y105000D01*
X818511Y104972D01*
X818566D01*
X818844Y105000D01*
X819066Y105027D01*
X819260Y105111D01*
X819427Y105194D01*
X819704Y105444D01*
X819871Y105721D01*
X819982Y105999D01*
X820038Y106249D01*
X820065Y106415D01*
Y106443D01*
Y106471D01*
Y112384D01*
X825618D01*
X826117Y112412D01*
X826589Y112467D01*
X827033Y112551D01*
X827450Y112662D01*
X827839Y112801D01*
X828199Y112939D01*
X828533Y113106D01*
X828838Y113273D01*
X829116Y113411D01*
X829365Y113578D01*
X829560Y113717D01*
X829754Y113856D01*
X829893Y113967D01*
X829976Y114050D01*
X830032Y114106D01*
X830060Y114133D01*
X830365Y114466D01*
X830643Y114827D01*
X830865Y115188D01*
X831059Y115549D01*
X831253Y115938D01*
X831392Y116299D01*
X831587Y116993D01*
X831670Y117326D01*
X831725Y117604D01*
X831753Y117881D01*
X831781Y118103D01*
X831809Y118298D01*
Y118547D01*
X831781Y119047D01*
X831725Y119491D01*
X831642Y119936D01*
X831531Y120352D01*
X831392Y120741D01*
X831253Y121129D01*
X831087Y121462D01*
X830948Y121768D01*
X830781Y122018D01*
X830615Y122268D01*
X830476Y122462D01*
X830337Y122656D01*
X830226Y122795D01*
X830143Y122878D01*
X830087Y122934D01*
X830060Y122962D01*
X829726Y123267D01*
X829365Y123545D01*
X829005Y123767D01*
X828616Y123961D01*
X828255Y124155D01*
X827894Y124294D01*
X827172Y124488D01*
X826867Y124572D01*
X826562Y124627D01*
X826284Y124655D01*
X826062Y124683D01*
X825867Y124711D01*
D02*
G37*
G36*
X857780Y100985D02*
X857669D01*
X857419Y100957D01*
X857169Y100929D01*
X856975Y100846D01*
X856808Y100735D01*
X856531Y100485D01*
X856364Y100208D01*
X856253Y99902D01*
X856198Y99653D01*
X856170Y99541D01*
Y99458D01*
Y99430D01*
Y99403D01*
Y92740D01*
X847369D01*
Y99403D01*
X847342Y99680D01*
X847314Y99930D01*
X847231Y100124D01*
X847120Y100319D01*
X847008Y100485D01*
X846897Y100596D01*
X846620Y100791D01*
X846314Y100902D01*
X846092Y100957D01*
X845898Y100985D01*
X845842D01*
X845593Y100957D01*
X845398Y100929D01*
X845204Y100846D01*
X845037Y100763D01*
X844899Y100680D01*
X844815Y100624D01*
X844760Y100569D01*
X844732Y100541D01*
X844593Y100374D01*
X844482Y100180D01*
X844427Y99986D01*
X844371Y99819D01*
X844343Y99653D01*
X844315Y99514D01*
Y82440D01*
X844343Y82190D01*
X844371Y81996D01*
X844454Y81801D01*
X844538Y81663D01*
X844593Y81524D01*
X844676Y81440D01*
X844704Y81385D01*
X844732Y81357D01*
X844899Y81218D01*
X845093Y81107D01*
X845287Y81052D01*
X845454Y80996D01*
X845620Y80969D01*
X845731Y80941D01*
X845842D01*
X846120Y80969D01*
X846342Y80996D01*
X846564Y81080D01*
X846731Y81163D01*
X847008Y81413D01*
X847175Y81690D01*
X847286Y81968D01*
X847342Y82218D01*
X847369Y82384D01*
Y82412D01*
Y82440D01*
Y89714D01*
X856170D01*
Y82440D01*
X856198Y82190D01*
X856226Y81940D01*
X856309Y81746D01*
X856392Y81579D01*
X856642Y81302D01*
X856919Y81135D01*
X857197Y81024D01*
X857447Y80969D01*
X857614Y80941D01*
X857669D01*
X857919Y80969D01*
X858141Y80996D01*
X858335Y81080D01*
X858474Y81163D01*
X858613Y81218D01*
X858696Y81302D01*
X858752Y81329D01*
X858780Y81357D01*
X858918Y81524D01*
X859029Y81690D01*
X859113Y81885D01*
X859168Y82051D01*
X859196Y82218D01*
X859224Y82329D01*
Y99403D01*
X859196Y99653D01*
X859168Y99875D01*
X859085Y100069D01*
X859002Y100236D01*
X858918Y100374D01*
X858863Y100458D01*
X858807Y100513D01*
X858780Y100541D01*
X858613Y100680D01*
X858419Y100791D01*
X858252Y100874D01*
X858058Y100929D01*
X857919Y100957D01*
X857780Y100985D01*
D02*
G37*
G36*
X874576D02*
X874521D01*
X874243Y100957D01*
X874021Y100929D01*
X873827Y100846D01*
X873632Y100735D01*
X873355Y100485D01*
X873188Y100208D01*
X873077Y99902D01*
X873022Y99653D01*
X872994Y99541D01*
Y99458D01*
Y99430D01*
Y99403D01*
Y92240D01*
X872744Y92018D01*
X872522Y91851D01*
X871994Y91546D01*
X871523Y91352D01*
X871050Y91185D01*
X870662Y91102D01*
X870329Y91074D01*
X870218Y91046D01*
X870051D01*
X869718Y91074D01*
X869385Y91102D01*
X868802Y91241D01*
X868274Y91435D01*
X867802Y91685D01*
X867441Y91907D01*
X867164Y92101D01*
X867081Y92184D01*
X866997Y92240D01*
X866970Y92296D01*
X866942D01*
X866720Y92545D01*
X866525Y92795D01*
X866220Y93323D01*
X865998Y93822D01*
X865859Y94322D01*
X865748Y94739D01*
X865720Y94933D01*
Y95072D01*
X865692Y95211D01*
Y95294D01*
Y95349D01*
Y95377D01*
Y99403D01*
X865665Y99653D01*
X865637Y99847D01*
X865554Y100041D01*
X865470Y100208D01*
X865387Y100319D01*
X865331Y100402D01*
X865276Y100458D01*
X865248Y100485D01*
X865082Y100624D01*
X864887Y100735D01*
X864721Y100819D01*
X864526Y100874D01*
X864388Y100902D01*
X864249Y100929D01*
X864138D01*
X863916Y100902D01*
X863693Y100874D01*
X863527Y100791D01*
X863360Y100707D01*
X863222Y100624D01*
X863138Y100569D01*
X863083Y100513D01*
X863055Y100485D01*
X862916Y100319D01*
X862805Y100152D01*
X862750Y99958D01*
X862694Y99791D01*
X862666Y99625D01*
X862639Y99514D01*
Y95377D01*
X862666Y94794D01*
X862722Y94267D01*
X862833Y93739D01*
X862972Y93239D01*
X863138Y92795D01*
X863333Y92351D01*
X863527Y91962D01*
X863721Y91601D01*
X863916Y91268D01*
X864110Y90963D01*
X864304Y90713D01*
X864471Y90519D01*
X864610Y90352D01*
X864721Y90241D01*
X864776Y90158D01*
X864804Y90130D01*
X865220Y89741D01*
X865665Y89436D01*
X866109Y89131D01*
X866553Y88909D01*
X866997Y88686D01*
X867414Y88520D01*
X867858Y88381D01*
X868247Y88270D01*
X868635Y88159D01*
X868968Y88103D01*
X869302Y88048D01*
X869551Y88020D01*
X869773D01*
X869940Y87992D01*
X870079D01*
X870634Y88020D01*
X871189Y88076D01*
X871661Y88187D01*
X872105Y88298D01*
X872466Y88409D01*
X872744Y88520D01*
X872855Y88548D01*
X872938Y88575D01*
X872966Y88603D01*
X872994D01*
Y82440D01*
X873022Y82190D01*
X873049Y81940D01*
X873133Y81746D01*
X873244Y81579D01*
X873466Y81302D01*
X873771Y81135D01*
X874049Y81024D01*
X874271Y80969D01*
X874465Y80941D01*
X874521D01*
X874798Y80969D01*
X875021Y80996D01*
X875243Y81080D01*
X875409Y81163D01*
X875687Y81413D01*
X875853Y81690D01*
X875964Y81968D01*
X876020Y82218D01*
X876048Y82384D01*
Y99403D01*
X876020Y99680D01*
X875992Y99930D01*
X875909Y100124D01*
X875798Y100319D01*
X875687Y100485D01*
X875576Y100596D01*
X875298Y100791D01*
X874993Y100902D01*
X874771Y100957D01*
X874576Y100985D01*
D02*
G37*
%LPD*%
G36*
X916178Y113717D02*
X916539Y113606D01*
X916872Y113495D01*
X917150Y113328D01*
X917400Y113189D01*
X917566Y113050D01*
X917677Y112939D01*
X917705Y112912D01*
X917982Y112606D01*
X918177Y112273D01*
X918343Y111940D01*
X918427Y111662D01*
X918482Y111385D01*
X918538Y111190D01*
Y111052D01*
Y110996D01*
X918510Y110580D01*
X918399Y110219D01*
X918288Y109886D01*
X918121Y109608D01*
X917982Y109358D01*
X917844Y109192D01*
X917733Y109080D01*
X917705Y109053D01*
X917400Y108775D01*
X917066Y108581D01*
X916733Y108442D01*
X916428Y108359D01*
X916178Y108303D01*
X915956Y108248D01*
X909848D01*
Y113745D01*
X915761D01*
X916178Y113717D01*
D02*
G37*
G36*
X863513Y121657D02*
X863846Y121573D01*
X864152Y121435D01*
X864401Y121324D01*
X864596Y121185D01*
X864762Y121046D01*
X864846Y120963D01*
X864873Y120935D01*
X865123Y120657D01*
X865290Y120352D01*
X865429Y120074D01*
X865512Y119797D01*
X865567Y119575D01*
X865595Y119380D01*
Y119269D01*
Y119214D01*
X865567Y118853D01*
X865484Y118520D01*
X865345Y118214D01*
X865234Y117964D01*
X865096Y117742D01*
X864957Y117604D01*
X864873Y117492D01*
X864846Y117465D01*
X864568Y117243D01*
X864263Y117076D01*
X863957Y116937D01*
X863680Y116854D01*
X863430Y116798D01*
X863235Y116771D01*
X857156D01*
Y121685D01*
X863152D01*
X863513Y121657D01*
D02*
G37*
G36*
X863569Y113717D02*
X863957Y113633D01*
X864290Y113495D01*
X864568Y113356D01*
X864790Y113217D01*
X864957Y113078D01*
X865068Y112995D01*
X865096Y112967D01*
X865345Y112662D01*
X865540Y112356D01*
X865651Y112023D01*
X865762Y111690D01*
X865817Y111412D01*
X865845Y111190D01*
Y111052D01*
Y111024D01*
Y110996D01*
X865817Y110552D01*
X865734Y110163D01*
X865595Y109802D01*
X865456Y109525D01*
X865318Y109303D01*
X865179Y109136D01*
X865096Y109025D01*
X865068Y108997D01*
X864762Y108747D01*
X864429Y108553D01*
X864096Y108442D01*
X863791Y108331D01*
X863513Y108275D01*
X863263Y108248D01*
X857156D01*
Y113745D01*
X863124D01*
X863569Y113717D01*
D02*
G37*
G36*
X843163Y121879D02*
X843608Y121796D01*
X843996Y121685D01*
X844385Y121546D01*
X845079Y121185D01*
X845384Y120963D01*
X845662Y120768D01*
X845912Y120546D01*
X846134Y120324D01*
X846328Y120130D01*
X846495Y119963D01*
X846606Y119824D01*
X846689Y119713D01*
X846745Y119630D01*
X846772Y119602D01*
X847022Y119214D01*
X847244Y118797D01*
X847439Y118409D01*
X847605Y117992D01*
X847855Y117215D01*
X848049Y116493D01*
X848105Y116188D01*
X848133Y115882D01*
X848161Y115632D01*
X848188Y115410D01*
X848216Y115216D01*
Y115077D01*
Y114994D01*
Y114966D01*
X848188Y114494D01*
X848161Y114022D01*
X847994Y113161D01*
X847772Y112356D01*
X847633Y111995D01*
X847494Y111662D01*
X847355Y111357D01*
X847217Y111107D01*
X847106Y110857D01*
X846994Y110663D01*
X846911Y110524D01*
X846828Y110385D01*
X846800Y110330D01*
X846772Y110302D01*
X846467Y109886D01*
X846134Y109552D01*
X845801Y109247D01*
X845468Y108969D01*
X845107Y108747D01*
X844774Y108553D01*
X844468Y108414D01*
X844135Y108275D01*
X843857Y108192D01*
X843580Y108109D01*
X843330Y108081D01*
X843136Y108026D01*
X842969D01*
X842830Y107998D01*
X842719D01*
X842275Y108026D01*
X841831Y108109D01*
X841442Y108220D01*
X841053Y108359D01*
X840359Y108747D01*
X840054Y108942D01*
X839776Y109164D01*
X839527Y109386D01*
X839304Y109580D01*
X839110Y109802D01*
X838943Y109969D01*
X838832Y110108D01*
X838749Y110219D01*
X838694Y110302D01*
X838666Y110330D01*
X838416Y110718D01*
X838194Y111107D01*
X838000Y111524D01*
X837833Y111912D01*
X837583Y112690D01*
X837417Y113411D01*
X837333Y113745D01*
X837306Y114050D01*
X837278Y114300D01*
X837250Y114522D01*
X837222Y114716D01*
Y114855D01*
Y114938D01*
Y114966D01*
X837250Y115438D01*
X837278Y115910D01*
X837444Y116771D01*
X837666Y117548D01*
X837805Y117909D01*
X837944Y118242D01*
X838083Y118547D01*
X838222Y118797D01*
X838333Y119047D01*
X838444Y119242D01*
X838527Y119408D01*
X838610Y119519D01*
X838638Y119575D01*
X838666Y119602D01*
X838971Y120019D01*
X839304Y120352D01*
X839638Y120685D01*
X839971Y120935D01*
X840304Y121157D01*
X840637Y121351D01*
X840970Y121490D01*
X841275Y121629D01*
X841581Y121712D01*
X841859Y121796D01*
X842108Y121823D01*
X842303Y121879D01*
X842469D01*
X842608Y121907D01*
X842719D01*
X843163Y121879D01*
D02*
G37*
G36*
X826117Y121657D02*
X826562Y121546D01*
X826950Y121407D01*
X827283Y121268D01*
X827561Y121102D01*
X827728Y120963D01*
X827866Y120852D01*
X827894Y120824D01*
X828172Y120491D01*
X828394Y120102D01*
X828533Y119713D01*
X828644Y119353D01*
X828699Y119047D01*
X828755Y118770D01*
Y118603D01*
Y118575D01*
Y118547D01*
X828727Y118048D01*
X828616Y117604D01*
X828477Y117215D01*
X828338Y116909D01*
X828172Y116632D01*
X828033Y116465D01*
X827922Y116326D01*
X827894Y116299D01*
X827561Y116021D01*
X827172Y115799D01*
X826784Y115660D01*
X826423Y115549D01*
X826117Y115494D01*
X825840Y115466D01*
X825673Y115438D01*
X820065D01*
Y121685D01*
X825618D01*
X826117Y121657D01*
D02*
G37*
D10*
X559708Y83335D02*
G03*
X368167Y352609I-56818J162345D01*
G01*
X132320Y482910D02*
G03*
X132000Y446000I20896J-18638D01*
G01*
X122820Y482910D02*
G03*
X122500Y446000I20896J-18638D01*
G01*
X113070Y482910D02*
G03*
X112750Y446000I20896J-18638D01*
G01*
X881250Y446250D02*
G03*
X880930Y483161I-21216J18273D01*
G01*
X871500Y446250D02*
G03*
X871180Y483161I-21216J18273D01*
G01*
X862000Y446250D02*
G03*
X861680Y483161I-21216J18273D01*
G01*
X322105Y186811D02*
G03*
X253770Y201013I-78367J-205569D01*
G01*
X701810Y312991D02*
G03*
X617036Y421949I-198920J-67311D01*
G01*
X680710Y312612D02*
G03*
X571983Y422672I-177820J-66932D01*
G01*
X379711Y125635D02*
G03*
X182413Y169861I-135972J-144393D01*
G01*
X192281Y317550D02*
G03*
X368167Y352609I67594J119617D01*
G01*
X381414Y123912D02*
G03*
X450653Y81804I121476J121769D01*
G01*
X79945Y223785D02*
G03*
X182495Y169888I76946J21895D01*
G01*
X782298Y222578D02*
G03*
X782659Y269945I76592J23102D01*
G01*
X722955Y312548D02*
G03*
X653299Y419683I-220065J-66868D01*
G01*
X282301Y278747D02*
G03*
X368585Y319770I-22425J158421D01*
G01*
X192701Y317217D02*
G03*
X81199Y271582I-35811J-71537D01*
G01*
D11*
X133968Y142493D02*
G03*
X134124Y112513I-468J-14993D01*
G01*
X306875D02*
G03*
X307031Y142493I624J14987D01*
G01*
X793624Y125000D02*
G03*
X793853Y81030I-687J-21989D01*
G01*
X924521D02*
G03*
X924750Y125000I916J21981D01*
G01*
X840001Y450013D02*
G03*
X840156Y479993I624J14987D01*
G01*
X154844D02*
G03*
X154999Y450013I-468J-14993D01*
G01*
D12*
X691640Y136430D02*
X767890D01*
X798640Y167180D01*
D13*
X130375Y127500D02*
D03*
X310625D02*
D03*
X843750Y465000D02*
D03*
X151250D02*
D03*
D14*
X784937Y102761D02*
D03*
D15*
X934937Y103511D02*
D03*
M02*
