G04*
G04 #@! TF.GenerationSoftware,Altium Limited,Altium Designer,21.0.8 (223)*
G04*
G04 Layer_Color=65535*
%FSLAX44Y44*%
%MOMM*%
G71*
G04*
G04 #@! TF.SameCoordinates,2BC88BDB-9D38-482F-83E6-F0616D823ADE*
G04*
G04*
G04 #@! TF.FilePolarity,Positive*
G04*
G01*
G75*
%ADD22C,0.2000*%
G36*
X765018Y830996D02*
X765212Y830968D01*
X765462Y830857D01*
X765712Y830691D01*
X765934Y830469D01*
X766073Y830135D01*
X766101Y829913D01*
X766129Y829691D01*
Y825055D01*
X770848D01*
X771015Y825027D01*
X771209Y824999D01*
X771459Y824888D01*
X771709Y824722D01*
X771931Y824500D01*
X772070Y824167D01*
X772098Y823944D01*
X772125Y823722D01*
Y823695D01*
Y823667D01*
X772098Y823528D01*
X772070Y823306D01*
X771959Y823056D01*
X771792Y822806D01*
X771570Y822612D01*
X771237Y822445D01*
X771015Y822418D01*
X770793Y822390D01*
X766129D01*
Y817726D01*
Y817698D01*
Y817670D01*
X766101Y817531D01*
X766073Y817309D01*
X765962Y817059D01*
X765796Y816810D01*
X765573Y816615D01*
X765240Y816449D01*
X765018Y816421D01*
X764796Y816393D01*
X764741D01*
X764574Y816421D01*
X764380Y816476D01*
X764130Y816560D01*
X763880Y816726D01*
X763658Y816948D01*
X763491Y817281D01*
X763464Y817504D01*
X763436Y817726D01*
Y822390D01*
X758772D01*
X758633Y822418D01*
X758411Y822473D01*
X758161Y822556D01*
X757911Y822723D01*
X757717Y822945D01*
X757550Y823278D01*
X757522Y823500D01*
X757495Y823722D01*
Y823750D01*
Y823778D01*
X757522Y823944D01*
X757578Y824139D01*
X757661Y824389D01*
X757828Y824639D01*
X758050Y824861D01*
X758383Y824999D01*
X758605Y825027D01*
X758827Y825055D01*
X763436D01*
Y829691D01*
Y829719D01*
Y829747D01*
X763464Y829913D01*
X763519Y830108D01*
X763602Y830358D01*
X763769Y830607D01*
X764019Y830829D01*
X764158Y830913D01*
X764352Y830968D01*
X764546Y830996D01*
X764796Y831024D01*
X764852D01*
X765018Y830996D01*
D02*
G37*
G36*
X299018D02*
X299212Y830968D01*
X299462Y830857D01*
X299712Y830691D01*
X299934Y830469D01*
X300073Y830135D01*
X300101Y829913D01*
X300129Y829691D01*
Y825055D01*
X304848D01*
X305015Y825027D01*
X305209Y824999D01*
X305459Y824888D01*
X305709Y824722D01*
X305931Y824500D01*
X306070Y824167D01*
X306098Y823944D01*
X306125Y823722D01*
Y823695D01*
Y823667D01*
X306098Y823528D01*
X306070Y823306D01*
X305959Y823056D01*
X305792Y822806D01*
X305570Y822612D01*
X305237Y822445D01*
X305015Y822418D01*
X304793Y822390D01*
X300129D01*
Y817726D01*
Y817698D01*
Y817670D01*
X300101Y817531D01*
X300073Y817309D01*
X299962Y817059D01*
X299795Y816810D01*
X299573Y816615D01*
X299240Y816449D01*
X299018Y816421D01*
X298796Y816393D01*
X298741D01*
X298574Y816421D01*
X298380Y816476D01*
X298130Y816560D01*
X297880Y816726D01*
X297658Y816948D01*
X297491Y817281D01*
X297463Y817504D01*
X297436Y817726D01*
Y822390D01*
X292772D01*
X292633Y822418D01*
X292411Y822473D01*
X292161Y822556D01*
X291911Y822723D01*
X291717Y822945D01*
X291550Y823278D01*
X291522Y823500D01*
X291495Y823722D01*
Y823750D01*
Y823778D01*
X291522Y823944D01*
X291578Y824139D01*
X291661Y824389D01*
X291828Y824639D01*
X292050Y824861D01*
X292383Y824999D01*
X292605Y825027D01*
X292827Y825055D01*
X297436D01*
Y829691D01*
Y829719D01*
Y829747D01*
X297463Y829913D01*
X297519Y830108D01*
X297602Y830358D01*
X297769Y830607D01*
X298019Y830829D01*
X298158Y830913D01*
X298352Y830968D01*
X298546Y830996D01*
X298796Y831024D01*
X298852D01*
X299018Y830996D01*
D02*
G37*
G36*
X1183793Y810434D02*
X1183932Y810407D01*
X1184099Y810351D01*
X1184293Y810268D01*
X1184460Y810157D01*
X1184626Y810018D01*
X1184654Y809990D01*
X1184709Y809935D01*
X1184765Y809851D01*
X1184848Y809740D01*
X1184931Y809574D01*
X1185015Y809379D01*
X1185042Y809185D01*
X1185070Y808935D01*
Y808907D01*
Y808824D01*
X1185042Y808713D01*
X1185015Y808574D01*
X1184959Y808380D01*
X1184876Y808213D01*
X1184765Y808019D01*
X1184626Y807852D01*
X1184598Y807825D01*
X1184543Y807797D01*
X1184460Y807714D01*
X1184348Y807658D01*
X1184182Y807575D01*
X1184015Y807492D01*
X1183793Y807464D01*
X1183571Y807436D01*
X1174354D01*
Y802300D01*
X1182683D01*
X1182822Y802272D01*
X1182988Y802244D01*
X1183155Y802189D01*
X1183349Y802106D01*
X1183543Y801995D01*
X1183710Y801856D01*
X1183738Y801828D01*
X1183793Y801773D01*
X1183849Y801689D01*
X1183960Y801578D01*
X1184043Y801412D01*
X1184099Y801217D01*
X1184154Y801023D01*
X1184182Y800773D01*
Y800745D01*
Y800662D01*
X1184154Y800551D01*
X1184126Y800385D01*
X1184071Y800218D01*
X1183988Y800023D01*
X1183876Y799829D01*
X1183710Y799663D01*
X1183682Y799635D01*
X1183627Y799607D01*
X1183543Y799524D01*
X1183404Y799468D01*
X1183238Y799385D01*
X1183044Y799302D01*
X1182822Y799274D01*
X1182572Y799246D01*
X1174354D01*
Y792222D01*
Y792195D01*
Y792111D01*
X1174326Y792000D01*
X1174298Y791834D01*
X1174243Y791667D01*
X1174160Y791473D01*
X1174049Y791306D01*
X1173910Y791140D01*
X1173882Y791112D01*
X1173827Y791084D01*
X1173743Y791001D01*
X1173632Y790945D01*
X1173466Y790862D01*
X1173271Y790779D01*
X1173077Y790751D01*
X1172827Y790723D01*
X1172716D01*
X1172605Y790751D01*
X1172438Y790779D01*
X1172272Y790834D01*
X1172077Y790890D01*
X1171883Y791001D01*
X1171717Y791140D01*
X1171689Y791167D01*
X1171661Y791223D01*
X1171578Y791306D01*
X1171522Y791445D01*
X1171439Y791584D01*
X1171356Y791778D01*
X1171328Y791973D01*
X1171300Y792222D01*
Y808935D01*
Y808963D01*
Y809046D01*
X1171328Y809157D01*
X1171356Y809296D01*
X1171411Y809463D01*
X1171495Y809629D01*
X1171606Y809824D01*
X1171744Y809990D01*
X1171772Y810018D01*
X1171828Y810073D01*
X1171939Y810129D01*
X1172050Y810240D01*
X1172216Y810323D01*
X1172411Y810379D01*
X1172605Y810434D01*
X1172827Y810462D01*
X1183682D01*
X1183793Y810434D01*
D02*
G37*
G36*
X717793D02*
X717932Y810407D01*
X718099Y810351D01*
X718293Y810268D01*
X718459Y810157D01*
X718626Y810018D01*
X718654Y809990D01*
X718709Y809935D01*
X718765Y809851D01*
X718848Y809740D01*
X718931Y809574D01*
X719015Y809379D01*
X719043Y809185D01*
X719070Y808935D01*
Y808907D01*
Y808824D01*
X719043Y808713D01*
X719015Y808574D01*
X718959Y808380D01*
X718876Y808213D01*
X718765Y808019D01*
X718626Y807852D01*
X718598Y807825D01*
X718543Y807797D01*
X718459Y807714D01*
X718348Y807658D01*
X718182Y807575D01*
X718015Y807492D01*
X717793Y807464D01*
X717571Y807436D01*
X708354D01*
Y802300D01*
X716683D01*
X716822Y802272D01*
X716988Y802244D01*
X717155Y802189D01*
X717349Y802106D01*
X717543Y801995D01*
X717710Y801856D01*
X717738Y801828D01*
X717793Y801773D01*
X717849Y801689D01*
X717960Y801578D01*
X718043Y801412D01*
X718099Y801217D01*
X718154Y801023D01*
X718182Y800773D01*
Y800745D01*
Y800662D01*
X718154Y800551D01*
X718126Y800385D01*
X718071Y800218D01*
X717988Y800023D01*
X717877Y799829D01*
X717710Y799663D01*
X717682Y799635D01*
X717627Y799607D01*
X717543Y799524D01*
X717404Y799468D01*
X717238Y799385D01*
X717044Y799302D01*
X716822Y799274D01*
X716572Y799246D01*
X708354D01*
Y792222D01*
Y792195D01*
Y792111D01*
X708326Y792000D01*
X708298Y791834D01*
X708243Y791667D01*
X708160Y791473D01*
X708049Y791306D01*
X707910Y791140D01*
X707882Y791112D01*
X707827Y791084D01*
X707743Y791001D01*
X707632Y790945D01*
X707466Y790862D01*
X707271Y790779D01*
X707077Y790751D01*
X706827Y790723D01*
X706716D01*
X706605Y790751D01*
X706438Y790779D01*
X706272Y790834D01*
X706077Y790890D01*
X705883Y791001D01*
X705717Y791140D01*
X705689Y791167D01*
X705661Y791223D01*
X705578Y791306D01*
X705522Y791445D01*
X705439Y791584D01*
X705356Y791778D01*
X705328Y791973D01*
X705300Y792222D01*
Y808935D01*
Y808963D01*
Y809046D01*
X705328Y809157D01*
X705356Y809296D01*
X705411Y809463D01*
X705495Y809629D01*
X705606Y809824D01*
X705744Y809990D01*
X705772Y810018D01*
X705828Y810073D01*
X705939Y810129D01*
X706050Y810240D01*
X706216Y810323D01*
X706411Y810379D01*
X706605Y810434D01*
X706827Y810462D01*
X717682D01*
X717793Y810434D01*
D02*
G37*
G36*
X765018Y469496D02*
X765212Y469468D01*
X765462Y469357D01*
X765712Y469191D01*
X765934Y468969D01*
X766073Y468635D01*
X766101Y468413D01*
X766129Y468191D01*
Y463555D01*
X770848D01*
X771015Y463527D01*
X771209Y463499D01*
X771459Y463388D01*
X771709Y463222D01*
X771931Y463000D01*
X772070Y462667D01*
X772098Y462444D01*
X772125Y462222D01*
Y462195D01*
Y462167D01*
X772098Y462028D01*
X772070Y461806D01*
X771959Y461556D01*
X771792Y461306D01*
X771570Y461112D01*
X771237Y460945D01*
X771015Y460918D01*
X770793Y460890D01*
X766129D01*
Y456226D01*
Y456198D01*
Y456170D01*
X766101Y456031D01*
X766073Y455809D01*
X765962Y455559D01*
X765796Y455310D01*
X765573Y455115D01*
X765240Y454949D01*
X765018Y454921D01*
X764796Y454893D01*
X764741D01*
X764574Y454921D01*
X764380Y454976D01*
X764130Y455060D01*
X763880Y455226D01*
X763658Y455448D01*
X763491Y455782D01*
X763464Y456004D01*
X763436Y456226D01*
Y460890D01*
X758772D01*
X758633Y460918D01*
X758411Y460973D01*
X758161Y461056D01*
X757911Y461223D01*
X757717Y461445D01*
X757550Y461778D01*
X757522Y462000D01*
X757495Y462222D01*
Y462250D01*
Y462278D01*
X757522Y462444D01*
X757578Y462639D01*
X757661Y462889D01*
X757828Y463139D01*
X758050Y463361D01*
X758383Y463499D01*
X758605Y463527D01*
X758827Y463555D01*
X763436D01*
Y468191D01*
Y468219D01*
Y468247D01*
X763464Y468413D01*
X763519Y468608D01*
X763602Y468857D01*
X763769Y469107D01*
X764019Y469329D01*
X764158Y469413D01*
X764352Y469468D01*
X764546Y469496D01*
X764796Y469524D01*
X764852D01*
X765018Y469496D01*
D02*
G37*
G36*
X299018D02*
X299212Y469468D01*
X299462Y469357D01*
X299712Y469191D01*
X299934Y468969D01*
X300073Y468635D01*
X300101Y468413D01*
X300129Y468191D01*
Y463555D01*
X304848D01*
X305015Y463527D01*
X305209Y463499D01*
X305459Y463388D01*
X305709Y463222D01*
X305931Y463000D01*
X306070Y462667D01*
X306098Y462444D01*
X306125Y462222D01*
Y462195D01*
Y462167D01*
X306098Y462028D01*
X306070Y461806D01*
X305959Y461556D01*
X305792Y461306D01*
X305570Y461112D01*
X305237Y460945D01*
X305015Y460918D01*
X304793Y460890D01*
X300129D01*
Y456226D01*
Y456198D01*
Y456170D01*
X300101Y456031D01*
X300073Y455809D01*
X299962Y455559D01*
X299795Y455310D01*
X299573Y455115D01*
X299240Y454949D01*
X299018Y454921D01*
X298796Y454893D01*
X298741D01*
X298574Y454921D01*
X298380Y454976D01*
X298130Y455060D01*
X297880Y455226D01*
X297658Y455448D01*
X297491Y455782D01*
X297463Y456004D01*
X297436Y456226D01*
Y460890D01*
X292772D01*
X292633Y460918D01*
X292411Y460973D01*
X292161Y461056D01*
X291911Y461223D01*
X291717Y461445D01*
X291550Y461778D01*
X291522Y462000D01*
X291495Y462222D01*
Y462250D01*
Y462278D01*
X291522Y462444D01*
X291578Y462639D01*
X291661Y462889D01*
X291828Y463139D01*
X292050Y463361D01*
X292383Y463499D01*
X292605Y463527D01*
X292827Y463555D01*
X297436D01*
Y468191D01*
Y468219D01*
Y468247D01*
X297463Y468413D01*
X297519Y468608D01*
X297602Y468857D01*
X297769Y469107D01*
X298019Y469329D01*
X298158Y469413D01*
X298352Y469468D01*
X298546Y469496D01*
X298796Y469524D01*
X298852D01*
X299018Y469496D01*
D02*
G37*
G36*
X1183793Y448934D02*
X1183932Y448907D01*
X1184099Y448851D01*
X1184293Y448768D01*
X1184460Y448657D01*
X1184626Y448518D01*
X1184654Y448490D01*
X1184709Y448435D01*
X1184765Y448351D01*
X1184848Y448240D01*
X1184931Y448074D01*
X1185015Y447879D01*
X1185042Y447685D01*
X1185070Y447435D01*
Y447407D01*
Y447324D01*
X1185042Y447213D01*
X1185015Y447074D01*
X1184959Y446880D01*
X1184876Y446713D01*
X1184765Y446519D01*
X1184626Y446353D01*
X1184598Y446325D01*
X1184543Y446297D01*
X1184460Y446214D01*
X1184348Y446158D01*
X1184182Y446075D01*
X1184015Y445992D01*
X1183793Y445964D01*
X1183571Y445936D01*
X1174354D01*
Y440800D01*
X1182683D01*
X1182822Y440772D01*
X1182988Y440745D01*
X1183155Y440689D01*
X1183349Y440606D01*
X1183543Y440495D01*
X1183710Y440356D01*
X1183738Y440328D01*
X1183793Y440273D01*
X1183849Y440189D01*
X1183960Y440078D01*
X1184043Y439912D01*
X1184099Y439717D01*
X1184154Y439523D01*
X1184182Y439273D01*
Y439245D01*
Y439162D01*
X1184154Y439051D01*
X1184126Y438885D01*
X1184071Y438718D01*
X1183988Y438524D01*
X1183876Y438329D01*
X1183710Y438163D01*
X1183682Y438135D01*
X1183627Y438107D01*
X1183543Y438024D01*
X1183404Y437968D01*
X1183238Y437885D01*
X1183044Y437802D01*
X1182822Y437774D01*
X1182572Y437746D01*
X1174354D01*
Y430722D01*
Y430695D01*
Y430611D01*
X1174326Y430500D01*
X1174298Y430334D01*
X1174243Y430167D01*
X1174160Y429973D01*
X1174049Y429806D01*
X1173910Y429640D01*
X1173882Y429612D01*
X1173827Y429584D01*
X1173743Y429501D01*
X1173632Y429445D01*
X1173466Y429362D01*
X1173271Y429279D01*
X1173077Y429251D01*
X1172827Y429223D01*
X1172716D01*
X1172605Y429251D01*
X1172438Y429279D01*
X1172272Y429334D01*
X1172077Y429390D01*
X1171883Y429501D01*
X1171717Y429640D01*
X1171689Y429667D01*
X1171661Y429723D01*
X1171578Y429806D01*
X1171522Y429945D01*
X1171439Y430084D01*
X1171356Y430278D01*
X1171328Y430472D01*
X1171300Y430722D01*
Y447435D01*
Y447463D01*
Y447546D01*
X1171328Y447657D01*
X1171356Y447796D01*
X1171411Y447963D01*
X1171495Y448129D01*
X1171606Y448324D01*
X1171744Y448490D01*
X1171772Y448518D01*
X1171828Y448573D01*
X1171939Y448629D01*
X1172050Y448740D01*
X1172216Y448823D01*
X1172411Y448879D01*
X1172605Y448934D01*
X1172827Y448962D01*
X1183682D01*
X1183793Y448934D01*
D02*
G37*
G36*
X717793D02*
X717932Y448907D01*
X718099Y448851D01*
X718293Y448768D01*
X718459Y448657D01*
X718626Y448518D01*
X718654Y448490D01*
X718709Y448435D01*
X718765Y448351D01*
X718848Y448240D01*
X718931Y448074D01*
X719015Y447879D01*
X719043Y447685D01*
X719070Y447435D01*
Y447407D01*
Y447324D01*
X719043Y447213D01*
X719015Y447074D01*
X718959Y446880D01*
X718876Y446713D01*
X718765Y446519D01*
X718626Y446353D01*
X718598Y446325D01*
X718543Y446297D01*
X718459Y446214D01*
X718348Y446158D01*
X718182Y446075D01*
X718015Y445992D01*
X717793Y445964D01*
X717571Y445936D01*
X708354D01*
Y440800D01*
X716683D01*
X716822Y440772D01*
X716988Y440745D01*
X717155Y440689D01*
X717349Y440606D01*
X717543Y440495D01*
X717710Y440356D01*
X717738Y440328D01*
X717793Y440273D01*
X717849Y440189D01*
X717960Y440078D01*
X718043Y439912D01*
X718099Y439717D01*
X718154Y439523D01*
X718182Y439273D01*
Y439245D01*
Y439162D01*
X718154Y439051D01*
X718126Y438885D01*
X718071Y438718D01*
X717988Y438524D01*
X717877Y438329D01*
X717710Y438163D01*
X717682Y438135D01*
X717627Y438107D01*
X717543Y438024D01*
X717404Y437968D01*
X717238Y437885D01*
X717044Y437802D01*
X716822Y437774D01*
X716572Y437746D01*
X708354D01*
Y430722D01*
Y430695D01*
Y430611D01*
X708326Y430500D01*
X708298Y430334D01*
X708243Y430167D01*
X708160Y429973D01*
X708049Y429806D01*
X707910Y429640D01*
X707882Y429612D01*
X707827Y429584D01*
X707743Y429501D01*
X707632Y429445D01*
X707466Y429362D01*
X707271Y429279D01*
X707077Y429251D01*
X706827Y429223D01*
X706716D01*
X706605Y429251D01*
X706438Y429279D01*
X706272Y429334D01*
X706077Y429390D01*
X705883Y429501D01*
X705717Y429640D01*
X705689Y429667D01*
X705661Y429723D01*
X705578Y429806D01*
X705522Y429945D01*
X705439Y430084D01*
X705356Y430278D01*
X705328Y430472D01*
X705300Y430722D01*
Y447435D01*
Y447463D01*
Y447546D01*
X705328Y447657D01*
X705356Y447796D01*
X705411Y447963D01*
X705495Y448129D01*
X705606Y448324D01*
X705744Y448490D01*
X705772Y448518D01*
X705828Y448573D01*
X705939Y448629D01*
X706050Y448740D01*
X706216Y448823D01*
X706411Y448879D01*
X706605Y448934D01*
X706827Y448962D01*
X717682D01*
X717793Y448934D01*
D02*
G37*
D22*
X682435Y435009D02*
G03*
X688935Y428509I6500J0D01*
G01*
X688316Y450223D02*
G03*
X682397Y444304I0J-5919D01*
G01*
X314560Y463060D02*
G03*
X319810Y468310I0J5250D01*
G01*
Y480060D02*
G03*
X315810Y484060I-4000J0D01*
G01*
X304560D02*
G03*
X299060Y478560I0J-5500D01*
G01*
X688935Y428473D02*
X702185D01*
X682435Y435009D02*
Y444554D01*
X688316Y450223D02*
X702185D01*
X308060Y463060D02*
X314560D01*
X319810Y468310D02*
Y480060D01*
X304560Y484060D02*
X315810D01*
X299060Y472560D02*
Y478560D01*
X527810Y487810D02*
Y547810D01*
Y487810D02*
X557810D01*
Y547810D01*
X527810Y517810D02*
X557810D01*
X527810Y547810D02*
X557810D01*
X567810Y487810D02*
Y497810D01*
X477810Y487810D02*
Y547810D01*
Y487810D02*
X507810D01*
Y547810D01*
X477810Y517810D02*
X507810D01*
X477810Y547810D02*
X507810D01*
X517810Y487810D02*
Y497810D01*
X427810Y487810D02*
Y547810D01*
Y487810D02*
X457810D01*
Y547810D01*
X427810Y517810D02*
X457810D01*
X427810Y547810D02*
X457810D01*
X467810Y487810D02*
Y497810D01*
X417810Y487810D02*
Y497810D01*
X377810Y547810D02*
X407810D01*
X377810Y517810D02*
X407810D01*
Y487810D02*
Y547810D01*
X377810Y487810D02*
X407810D01*
X377810D02*
Y547810D01*
X319810Y448810D02*
Y588810D01*
X619810D01*
Y448810D02*
Y588810D01*
X319810Y448810D02*
X619810D01*
X484219Y348559D02*
X492217Y336561D01*
Y348559D02*
X484219Y336561D01*
X501758Y348559D02*
X496045D01*
X495474Y343417D01*
X496045Y343988D01*
X497759Y344560D01*
X499473D01*
X501187Y343988D01*
X502330Y342846D01*
X502901Y341132D01*
Y339989D01*
X502330Y338275D01*
X501187Y337133D01*
X499473Y336561D01*
X497759D01*
X496045Y337133D01*
X495474Y337704D01*
X494903Y338847D01*
X302813Y563060D02*
X314810D01*
X302813Y571058D02*
X314810D01*
X308526Y563060D02*
Y571058D01*
X305669Y582942D02*
X304527Y582370D01*
X303384Y581227D01*
X302813Y580085D01*
Y577800D01*
X303384Y576657D01*
X304527Y575514D01*
X305669Y574943D01*
X307383Y574372D01*
X310240D01*
X311954Y574943D01*
X313096Y575514D01*
X314239Y576657D01*
X314810Y577800D01*
Y580085D01*
X314239Y581227D01*
X313096Y582370D01*
X311954Y582942D01*
X310240D01*
Y580085D02*
Y582942D01*
X305098Y585684D02*
X304527Y586826D01*
X302813Y588540D01*
X314810D01*
X1148435Y435009D02*
G03*
X1154935Y428509I6500J0D01*
G01*
X1154316Y450223D02*
G03*
X1148397Y444304I0J-5919D01*
G01*
X780560Y463060D02*
G03*
X785810Y468310I0J5250D01*
G01*
Y480060D02*
G03*
X781810Y484060I-4000J0D01*
G01*
X770560D02*
G03*
X765060Y478560I0J-5500D01*
G01*
X1154935Y428473D02*
X1168185D01*
X1148435Y435009D02*
Y444554D01*
X1154316Y450223D02*
X1168185D01*
X774060Y463060D02*
X780560D01*
X785810Y468310D02*
Y480060D01*
X770560Y484060D02*
X781810D01*
X765060Y472560D02*
Y478560D01*
X993810Y487810D02*
Y547810D01*
Y487810D02*
X1023810D01*
Y547810D01*
X993810Y517810D02*
X1023810D01*
X993810Y547810D02*
X1023810D01*
X1033810Y487810D02*
Y497810D01*
X943810Y487810D02*
Y547810D01*
Y487810D02*
X973810D01*
Y547810D01*
X943810Y517810D02*
X973810D01*
X943810Y547810D02*
X973810D01*
X983810Y487810D02*
Y497810D01*
X893810Y487810D02*
Y547810D01*
Y487810D02*
X923810D01*
Y547810D01*
X893810Y517810D02*
X923810D01*
X893810Y547810D02*
X923810D01*
X933810Y487810D02*
Y497810D01*
X883810Y487810D02*
Y497810D01*
X843810Y547810D02*
X873810D01*
X843810Y517810D02*
X873810D01*
Y487810D02*
Y547810D01*
X843810Y487810D02*
X873810D01*
X843810D02*
Y547810D01*
X785810Y448810D02*
Y588810D01*
X1085810D01*
Y448810D02*
Y588810D01*
X785810Y448810D02*
X1085810D01*
X950219Y348559D02*
X958217Y336561D01*
Y348559D02*
X950219Y336561D01*
X967758Y348559D02*
X962045D01*
X961474Y343417D01*
X962045Y343988D01*
X963759Y344560D01*
X965473D01*
X967187Y343988D01*
X968330Y342846D01*
X968901Y341132D01*
Y339989D01*
X968330Y338275D01*
X967187Y337133D01*
X965473Y336561D01*
X963759D01*
X962045Y337133D01*
X961474Y337704D01*
X960903Y338847D01*
X768813Y563060D02*
X780810D01*
X768813Y571058D02*
X780810D01*
X774526Y563060D02*
Y571058D01*
X771669Y582942D02*
X770527Y582370D01*
X769384Y581227D01*
X768813Y580085D01*
Y577800D01*
X769384Y576657D01*
X770527Y575514D01*
X771669Y574943D01*
X773383Y574372D01*
X776239D01*
X777953Y574943D01*
X779096Y575514D01*
X780239Y576657D01*
X780810Y577800D01*
Y580085D01*
X780239Y581227D01*
X779096Y582370D01*
X777953Y582942D01*
X776239D01*
Y580085D02*
Y582942D01*
X771098Y585684D02*
X770527Y586826D01*
X768813Y588540D01*
X780810D01*
X682435Y796508D02*
G03*
X688935Y790009I6500J0D01*
G01*
X688316Y811723D02*
G03*
X682397Y805804I0J-5919D01*
G01*
X314560Y824560D02*
G03*
X319810Y829810I0J5250D01*
G01*
Y841560D02*
G03*
X315810Y845560I-4000J0D01*
G01*
X304560D02*
G03*
X299060Y840060I0J-5500D01*
G01*
X688935Y789973D02*
X702185D01*
X682435Y796508D02*
Y806054D01*
X688316Y811723D02*
X702185D01*
X308060Y824560D02*
X314560D01*
X319810Y829810D02*
Y841560D01*
X304560Y845560D02*
X315810D01*
X299060Y834060D02*
Y840060D01*
X527810Y849310D02*
Y909310D01*
Y849310D02*
X557810D01*
Y909310D01*
X527810Y879310D02*
X557810D01*
X527810Y909310D02*
X557810D01*
X567810Y849310D02*
Y859310D01*
X477810Y849310D02*
Y909310D01*
Y849310D02*
X507810D01*
Y909310D01*
X477810Y879310D02*
X507810D01*
X477810Y909310D02*
X507810D01*
X517810Y849310D02*
Y859310D01*
X427810Y849310D02*
Y909310D01*
Y849310D02*
X457810D01*
Y909310D01*
X427810Y879310D02*
X457810D01*
X427810Y909310D02*
X457810D01*
X467810Y849310D02*
Y859310D01*
X417810Y849310D02*
Y859310D01*
X377810Y909310D02*
X407810D01*
X377810Y879310D02*
X407810D01*
Y849310D02*
Y909310D01*
X377810Y849310D02*
X407810D01*
X377810D02*
Y909310D01*
X319810Y810310D02*
Y950310D01*
X619810D01*
Y810310D02*
Y950310D01*
X319810Y810310D02*
X619810D01*
X484219Y710059D02*
X492217Y698061D01*
Y710059D02*
X484219Y698061D01*
X501758Y710059D02*
X496045D01*
X495474Y704917D01*
X496045Y705488D01*
X497759Y706059D01*
X499473D01*
X501187Y705488D01*
X502330Y704346D01*
X502901Y702632D01*
Y701489D01*
X502330Y699775D01*
X501187Y698633D01*
X499473Y698061D01*
X497759D01*
X496045Y698633D01*
X495474Y699204D01*
X494903Y700347D01*
X302813Y924560D02*
X314810D01*
X302813Y932558D02*
X314810D01*
X308526Y924560D02*
Y932558D01*
X305669Y944442D02*
X304527Y943870D01*
X303384Y942728D01*
X302813Y941585D01*
Y939300D01*
X303384Y938157D01*
X304527Y937014D01*
X305669Y936443D01*
X307383Y935872D01*
X310240D01*
X311954Y936443D01*
X313096Y937014D01*
X314239Y938157D01*
X314810Y939300D01*
Y941585D01*
X314239Y942728D01*
X313096Y943870D01*
X311954Y944442D01*
X310240D01*
Y941585D02*
Y944442D01*
X305098Y947184D02*
X304527Y948326D01*
X302813Y950040D01*
X314810D01*
X1148435Y796508D02*
G03*
X1154935Y790009I6500J0D01*
G01*
X1154316Y811723D02*
G03*
X1148397Y805804I0J-5919D01*
G01*
X780560Y824560D02*
G03*
X785810Y829810I0J5250D01*
G01*
Y841560D02*
G03*
X781810Y845560I-4000J0D01*
G01*
X770560D02*
G03*
X765060Y840060I0J-5500D01*
G01*
X1154935Y789973D02*
X1168185D01*
X1148435Y796508D02*
Y806054D01*
X1154316Y811723D02*
X1168185D01*
X774060Y824560D02*
X780560D01*
X785810Y829810D02*
Y841560D01*
X770560Y845560D02*
X781810D01*
X765060Y834060D02*
Y840060D01*
X993810Y849310D02*
Y909310D01*
Y849310D02*
X1023810D01*
Y909310D01*
X993810Y879310D02*
X1023810D01*
X993810Y909310D02*
X1023810D01*
X1033810Y849310D02*
Y859310D01*
X943810Y849310D02*
Y909310D01*
Y849310D02*
X973810D01*
Y909310D01*
X943810Y879310D02*
X973810D01*
X943810Y909310D02*
X973810D01*
X983810Y849310D02*
Y859310D01*
X893810Y849310D02*
Y909310D01*
Y849310D02*
X923810D01*
Y909310D01*
X893810Y879310D02*
X923810D01*
X893810Y909310D02*
X923810D01*
X933810Y849310D02*
Y859310D01*
X883810Y849310D02*
Y859310D01*
X843810Y909310D02*
X873810D01*
X843810Y879310D02*
X873810D01*
Y849310D02*
Y909310D01*
X843810Y849310D02*
X873810D01*
X843810D02*
Y909310D01*
X785810Y810310D02*
Y950310D01*
X1085810D01*
Y810310D02*
Y950310D01*
X785810Y810310D02*
X1085810D01*
X950219Y710059D02*
X958217Y698061D01*
Y710059D02*
X950219Y698061D01*
X967758Y710059D02*
X962045D01*
X961474Y704917D01*
X962045Y705488D01*
X963759Y706059D01*
X965473D01*
X967187Y705488D01*
X968330Y704346D01*
X968901Y702632D01*
Y701489D01*
X968330Y699775D01*
X967187Y698633D01*
X965473Y698061D01*
X963759D01*
X962045Y698633D01*
X961474Y699204D01*
X960903Y700347D01*
X768813Y924560D02*
X780810D01*
X768813Y932558D02*
X780810D01*
X774526Y924560D02*
Y932558D01*
X771669Y944442D02*
X770527Y943870D01*
X769384Y942728D01*
X768813Y941585D01*
Y939300D01*
X769384Y938157D01*
X770527Y937014D01*
X771669Y936443D01*
X773383Y935872D01*
X776239D01*
X777953Y936443D01*
X779096Y937014D01*
X780239Y938157D01*
X780810Y939300D01*
Y941585D01*
X780239Y942728D01*
X779096Y943870D01*
X777953Y944442D01*
X776239D01*
Y941585D02*
Y944442D01*
X771098Y947184D02*
X770527Y948326D01*
X768813Y950040D01*
X780810D01*
M02*
