G04*
G04 #@! TF.GenerationSoftware,Altium Limited,Altium Designer,21.0.8 (223)*
G04*
G04 Layer_Physical_Order=1*
G04 Layer_Color=255*
%FSLAX44Y44*%
%MOMM*%
G71*
G04*
G04 #@! TF.SameCoordinates,2BC88BDB-9D38-482F-83E6-F0616D823ADE*
G04*
G04*
G04 #@! TF.FilePolarity,Positive*
G04*
G01*
G75*
%ADD10C,0.2540*%
G04:AMPARAMS|DCode=11|XSize=1.5mm|YSize=1.5mm|CornerRadius=0.375mm|HoleSize=0mm|Usage=FLASHONLY|Rotation=0.000|XOffset=0mm|YOffset=0mm|HoleType=Round|Shape=RoundedRectangle|*
%AMROUNDEDRECTD11*
21,1,1.5000,0.7500,0,0,0.0*
21,1,0.7500,1.5000,0,0,0.0*
1,1,0.7500,0.3750,-0.3750*
1,1,0.7500,-0.3750,-0.3750*
1,1,0.7500,-0.3750,0.3750*
1,1,0.7500,0.3750,0.3750*
%
%ADD11ROUNDEDRECTD11*%
%ADD12R,1.2000X2.5000*%
%ADD13O,1.2000X2.5000*%
%ADD14C,1.6000*%
%ADD15C,1.3000*%
%ADD16C,1.4000*%
%ADD17C,1.2000*%
%ADD18O,1.8000X1.5000*%
%ADD19C,1.5000*%
%ADD20C,5.0000*%
%ADD21C,1.0000*%
G36*
X1179060Y970810D02*
X1179060Y629310D01*
X733810Y629310D01*
X733810Y858504D01*
X735080Y859089D01*
X737572Y856961D01*
X741268Y854696D01*
X745273Y853037D01*
X749489Y852025D01*
X752540Y851785D01*
Y879310D01*
Y906835D01*
X749489Y906595D01*
X745273Y905583D01*
X741268Y903924D01*
X737572Y901659D01*
X735080Y899531D01*
X733810Y900116D01*
X733810Y970810D01*
X1179060Y970810D01*
D02*
G37*
G36*
X713060D02*
X713060Y629310D01*
X267810Y629310D01*
X267810Y858504D01*
X269080Y859089D01*
X271572Y856961D01*
X275268Y854696D01*
X279273Y853037D01*
X283489Y852025D01*
X286540Y851785D01*
Y879310D01*
Y906835D01*
X283489Y906595D01*
X279273Y905583D01*
X275268Y903924D01*
X271572Y901659D01*
X269080Y899531D01*
X267810Y900116D01*
X267810Y970810D01*
X713060Y970810D01*
D02*
G37*
G36*
X1179060Y609310D02*
X1179060Y267810D01*
X733810Y267810D01*
X733810Y497004D01*
X735080Y497589D01*
X737572Y495461D01*
X741268Y493196D01*
X745273Y491537D01*
X749489Y490525D01*
X752540Y490285D01*
Y517810D01*
Y545335D01*
X749489Y545095D01*
X745273Y544083D01*
X741268Y542424D01*
X737572Y540159D01*
X735080Y538031D01*
X733810Y538616D01*
X733810Y609310D01*
X1179060Y609310D01*
D02*
G37*
G36*
X713060D02*
X713060Y267810D01*
X267810Y267810D01*
X267810Y497004D01*
X269080Y497589D01*
X271572Y495461D01*
X275268Y493196D01*
X279273Y491537D01*
X283489Y490525D01*
X286540Y490285D01*
Y517810D01*
Y545335D01*
X283489Y545095D01*
X279273Y544083D01*
X275268Y542424D01*
X271572Y540159D01*
X269080Y538031D01*
X267810Y538616D01*
X267810Y609310D01*
X713060Y609310D01*
D02*
G37*
%LPC*%
G36*
X973810Y941037D02*
X971189Y940692D01*
X968747Y939680D01*
X966649Y938071D01*
X965040Y935973D01*
X964028Y933531D01*
X963683Y930910D01*
X964028Y928289D01*
X965040Y925847D01*
X966649Y923749D01*
X968747Y922140D01*
X971189Y921128D01*
X973810Y920783D01*
X976431Y921128D01*
X978873Y922140D01*
X980971Y923749D01*
X982580Y925847D01*
X983592Y928289D01*
X983937Y930910D01*
X983592Y933531D01*
X982580Y935973D01*
X980971Y938071D01*
X978873Y939680D01*
X976431Y940692D01*
X973810Y941037D01*
D02*
G37*
G36*
X948410D02*
X945789Y940692D01*
X943347Y939680D01*
X941249Y938071D01*
X939640Y935973D01*
X938628Y933531D01*
X938283Y930910D01*
X938628Y928289D01*
X939640Y925847D01*
X941249Y923749D01*
X943347Y922140D01*
X945789Y921128D01*
X948410Y920783D01*
X951031Y921128D01*
X953473Y922140D01*
X955571Y923749D01*
X957180Y925847D01*
X958192Y928289D01*
X958537Y930910D01*
X958192Y933531D01*
X957180Y935973D01*
X955571Y938071D01*
X953473Y939680D01*
X951031Y940692D01*
X948410Y941037D01*
D02*
G37*
G36*
X923010D02*
X920389Y940692D01*
X917947Y939680D01*
X915849Y938071D01*
X914240Y935973D01*
X913228Y933531D01*
X912883Y930910D01*
X913228Y928289D01*
X913717Y927110D01*
X838063Y851457D01*
X837965Y851310D01*
X836695Y851695D01*
Y864501D01*
X893810Y921617D01*
X894989Y921128D01*
X897610Y920783D01*
X900231Y921128D01*
X902673Y922140D01*
X904771Y923749D01*
X906380Y925847D01*
X907392Y928289D01*
X907737Y930910D01*
X907392Y933531D01*
X906380Y935973D01*
X904771Y938071D01*
X902673Y939680D01*
X900231Y940692D01*
X897610Y941037D01*
X894989Y940692D01*
X892547Y939680D01*
X890449Y938071D01*
X888840Y935973D01*
X887828Y933531D01*
X887483Y930910D01*
X887828Y928289D01*
X888317Y927110D01*
X830063Y868857D01*
X829221Y867597D01*
X828925Y866110D01*
Y817319D01*
X814844Y803238D01*
X814170Y803517D01*
X811810Y803828D01*
X809450Y803517D01*
X807251Y802606D01*
X805363Y801157D01*
X803914Y799269D01*
X803003Y797070D01*
X802692Y794710D01*
X803003Y792350D01*
X803914Y790151D01*
X805363Y788263D01*
X807251Y786814D01*
X809450Y785903D01*
X811810Y785592D01*
X814170Y785903D01*
X816369Y786814D01*
X818257Y788263D01*
X819706Y790151D01*
X820617Y792350D01*
X820928Y794710D01*
X820617Y797070D01*
X820338Y797744D01*
X835557Y812963D01*
X835655Y813111D01*
X836925Y812725D01*
Y802886D01*
X836251Y802606D01*
X834363Y801157D01*
X832914Y799269D01*
X832003Y797070D01*
X831692Y794710D01*
X832003Y792350D01*
X832914Y790151D01*
X834363Y788263D01*
X836251Y786814D01*
X838450Y785903D01*
X840810Y785592D01*
X843170Y785903D01*
X845369Y786814D01*
X847257Y788263D01*
X848706Y790151D01*
X849617Y792350D01*
X849928Y794710D01*
X849617Y797070D01*
X848706Y799269D01*
X847257Y801157D01*
X845369Y802606D01*
X844695Y802886D01*
Y847101D01*
X919210Y921617D01*
X920389Y921128D01*
X923010Y920783D01*
X925631Y921128D01*
X928073Y922140D01*
X930171Y923749D01*
X931780Y925847D01*
X932792Y928289D01*
X933137Y930910D01*
X932792Y933531D01*
X931780Y935973D01*
X930171Y938071D01*
X928073Y939680D01*
X925631Y940692D01*
X923010Y941037D01*
D02*
G37*
G36*
X872210D02*
X869589Y940692D01*
X867147Y939680D01*
X865049Y938071D01*
X863440Y935973D01*
X862428Y933531D01*
X862083Y930910D01*
X862428Y928289D01*
X863440Y925847D01*
X865049Y923749D01*
X867147Y922140D01*
X869589Y921128D01*
X872210Y920783D01*
X874831Y921128D01*
X877273Y922140D01*
X879371Y923749D01*
X880980Y925847D01*
X881992Y928289D01*
X882337Y930910D01*
X881992Y933531D01*
X880980Y935973D01*
X879371Y938071D01*
X877273Y939680D01*
X874831Y940692D01*
X872210Y941037D01*
D02*
G37*
G36*
X803080Y894765D02*
Y886580D01*
X811265D01*
X811104Y887801D01*
X810143Y890121D01*
X808614Y892114D01*
X806621Y893643D01*
X804300Y894604D01*
X803080Y894765D01*
D02*
G37*
G36*
X800540D02*
X799320Y894604D01*
X796999Y893643D01*
X795006Y892114D01*
X793477Y890121D01*
X792516Y887801D01*
X792355Y886580D01*
X800540D01*
Y894765D01*
D02*
G37*
G36*
X755080Y906835D02*
Y880580D01*
X781335D01*
X781095Y883632D01*
X780083Y887847D01*
X778424Y891852D01*
X776159Y895548D01*
X773344Y898844D01*
X770048Y901659D01*
X766352Y903924D01*
X762347Y905583D01*
X758131Y906595D01*
X755080Y906835D01*
D02*
G37*
G36*
X1125080D02*
Y880580D01*
X1151335D01*
X1151095Y883632D01*
X1150083Y887847D01*
X1148424Y891852D01*
X1146159Y895548D01*
X1143344Y898844D01*
X1140048Y901659D01*
X1136352Y903924D01*
X1132347Y905583D01*
X1128131Y906595D01*
X1125080Y906835D01*
D02*
G37*
G36*
X1122540D02*
X1119489Y906595D01*
X1115273Y905583D01*
X1111268Y903924D01*
X1107572Y901659D01*
X1104276Y898844D01*
X1101461Y895548D01*
X1099196Y891852D01*
X1097537Y887847D01*
X1096525Y883632D01*
X1096285Y880580D01*
X1122540D01*
Y906835D01*
D02*
G37*
G36*
X811265Y884040D02*
X803080D01*
Y875855D01*
X804300Y876016D01*
X806621Y876977D01*
X808614Y878506D01*
X810143Y880499D01*
X811104Y882820D01*
X811265Y884040D01*
D02*
G37*
G36*
X800540D02*
X792355D01*
X792516Y882820D01*
X793477Y880499D01*
X795006Y878506D01*
X796999Y876977D01*
X799320Y876016D01*
X800540Y875855D01*
Y884040D01*
D02*
G37*
G36*
X1163060Y861973D02*
X1160580D01*
Y853080D01*
X1169473D01*
Y855560D01*
X1168985Y858014D01*
X1167595Y860095D01*
X1165514Y861485D01*
X1163060Y861973D01*
D02*
G37*
G36*
X1158040D02*
X1155560D01*
X1153106Y861485D01*
X1151025Y860095D01*
X1149635Y858014D01*
X1149147Y855560D01*
Y853080D01*
X1158040D01*
Y861973D01*
D02*
G37*
G36*
X1151335Y878040D02*
X1125080D01*
Y851785D01*
X1128131Y852025D01*
X1132347Y853037D01*
X1136352Y854696D01*
X1140048Y856961D01*
X1143344Y859776D01*
X1146159Y863072D01*
X1148424Y866768D01*
X1150083Y870773D01*
X1151095Y874988D01*
X1151335Y878040D01*
D02*
G37*
G36*
X781335Y878040D02*
X755080D01*
Y851785D01*
X758131Y852025D01*
X762347Y853037D01*
X766352Y854696D01*
X770048Y856961D01*
X773344Y859776D01*
X776159Y863072D01*
X778424Y866768D01*
X780083Y870773D01*
X781095Y874988D01*
X781335Y878040D01*
D02*
G37*
G36*
X1122540Y878040D02*
X1096285D01*
X1096525Y874988D01*
X1097537Y870773D01*
X1099196Y866768D01*
X1101461Y863072D01*
X1104276Y859776D01*
X1107572Y856961D01*
X1111268Y854696D01*
X1115273Y853037D01*
X1119489Y852025D01*
X1122540Y851785D01*
Y878040D01*
D02*
G37*
G36*
X1169473Y850540D02*
X1160580D01*
Y841647D01*
X1163060D01*
X1165514Y842135D01*
X1167595Y843525D01*
X1168985Y845606D01*
X1169473Y848060D01*
Y850540D01*
D02*
G37*
G36*
X1158040D02*
X1149147D01*
Y848060D01*
X1149635Y845606D01*
X1151025Y843525D01*
X1153106Y842135D01*
X1155560Y841647D01*
X1158040D01*
Y850540D01*
D02*
G37*
G36*
X999210Y941037D02*
X996589Y940692D01*
X994147Y939680D01*
X992049Y938071D01*
X990440Y935973D01*
X989428Y933531D01*
X989083Y930910D01*
X989428Y928289D01*
X990440Y925847D01*
X992049Y923749D01*
X994147Y922140D01*
X996589Y921128D01*
X999210Y920783D01*
X1001831Y921128D01*
X1003010Y921617D01*
X1006635Y917991D01*
Y837868D01*
X1005365Y837242D01*
X1004273Y838080D01*
X1001831Y839092D01*
X999210Y839437D01*
X996589Y839092D01*
X994147Y838080D01*
X992049Y836471D01*
X990440Y834373D01*
X989428Y831931D01*
X989083Y829310D01*
X989428Y826689D01*
X990440Y824247D01*
X992049Y822149D01*
X994147Y820540D01*
X996589Y819528D01*
X999210Y819183D01*
X1001831Y819528D01*
X1004273Y820540D01*
X1005365Y821378D01*
X1006635Y820752D01*
Y804780D01*
X1005251Y804206D01*
X1003363Y802757D01*
X1001914Y800869D01*
X1001003Y798670D01*
X1000692Y796310D01*
X1001003Y793950D01*
X1001914Y791751D01*
X1003363Y789863D01*
X1005251Y788414D01*
X1007450Y787503D01*
X1009810Y787192D01*
X1012170Y787503D01*
X1014369Y788414D01*
X1016257Y789863D01*
X1017706Y791751D01*
X1018617Y793950D01*
X1018928Y796310D01*
X1018617Y798670D01*
X1017706Y800869D01*
X1016257Y802757D01*
X1014405Y804179D01*
Y919600D01*
X1014109Y921087D01*
X1013267Y922347D01*
X1008503Y927110D01*
X1008992Y928289D01*
X1009337Y930910D01*
X1008992Y933531D01*
X1007980Y935973D01*
X1006371Y938071D01*
X1004273Y939680D01*
X1001831Y940692D01*
X999210Y941037D01*
D02*
G37*
G36*
X752560Y844973D02*
X750080D01*
Y836080D01*
X758973D01*
Y838560D01*
X758485Y841014D01*
X757095Y843095D01*
X755014Y844485D01*
X752560Y844973D01*
D02*
G37*
G36*
X747540D02*
X745060D01*
X742606Y844485D01*
X740525Y843095D01*
X739135Y841014D01*
X738647Y838560D01*
Y836080D01*
X747540D01*
Y844973D01*
D02*
G37*
G36*
X779560Y845473D02*
X772060D01*
X769606Y844985D01*
X767525Y843595D01*
X766135Y841514D01*
X765647Y839060D01*
Y831560D01*
X766135Y829106D01*
X767525Y827025D01*
X769606Y825635D01*
X772060Y825147D01*
X772125D01*
Y813727D01*
X770894Y813217D01*
X768693Y811527D01*
X767003Y809325D01*
X765941Y806761D01*
X765579Y804010D01*
X765941Y801258D01*
X767003Y798695D01*
X768693Y796493D01*
X770894Y794803D01*
X773458Y793741D01*
X776210Y793379D01*
X778961Y793741D01*
X781525Y794803D01*
X783727Y796493D01*
X785417Y798695D01*
X786479Y801258D01*
X786841Y804010D01*
X786479Y806761D01*
X785417Y809325D01*
X783727Y811527D01*
X781525Y813217D01*
X779895Y813892D01*
Y825213D01*
X782014Y825635D01*
X784095Y827025D01*
X785485Y829106D01*
X785946Y831425D01*
X793093D01*
X793477Y830499D01*
X795006Y828506D01*
X796999Y826977D01*
X799320Y826015D01*
X801810Y825688D01*
X804300Y826015D01*
X806621Y826977D01*
X808614Y828506D01*
X810143Y830499D01*
X811104Y832820D01*
X811432Y835310D01*
X811104Y837800D01*
X810143Y840121D01*
X808614Y842114D01*
X806621Y843643D01*
X804300Y844604D01*
X801810Y844932D01*
X799320Y844604D01*
X796999Y843643D01*
X795006Y842114D01*
X793477Y840121D01*
X793093Y839195D01*
X785946D01*
X785485Y841514D01*
X784095Y843595D01*
X782014Y844985D01*
X779560Y845473D01*
D02*
G37*
G36*
X758973Y833540D02*
X750080D01*
Y824647D01*
X752560D01*
X755014Y825135D01*
X757095Y826525D01*
X758485Y828606D01*
X758973Y831060D01*
Y833540D01*
D02*
G37*
G36*
X747540D02*
X738647D01*
Y831060D01*
X739135Y828606D01*
X740525Y826525D01*
X742606Y825135D01*
X745060Y824647D01*
X747540D01*
Y833540D01*
D02*
G37*
G36*
X1135230Y809011D02*
Y801330D01*
X1142911D01*
X1142767Y802420D01*
X1141856Y804619D01*
X1140407Y806507D01*
X1138519Y807956D01*
X1136320Y808867D01*
X1135230Y809011D01*
D02*
G37*
G36*
X1132690Y809011D02*
X1131600Y808867D01*
X1129401Y807956D01*
X1127513Y806507D01*
X1126064Y804619D01*
X1125153Y802420D01*
X1125009Y801330D01*
X1132690D01*
Y809011D01*
D02*
G37*
G36*
X752080Y801774D02*
Y792580D01*
X761274D01*
X761079Y794062D01*
X760017Y796626D01*
X758327Y798827D01*
X756125Y800517D01*
X753561Y801579D01*
X752080Y801774D01*
D02*
G37*
G36*
X749540Y801774D02*
X748058Y801579D01*
X745495Y800517D01*
X743293Y798827D01*
X741603Y796626D01*
X740541Y794062D01*
X740346Y792580D01*
X749540D01*
Y801774D01*
D02*
G37*
G36*
X1057560Y801187D02*
X1057330D01*
Y792330D01*
X1067520D01*
X1067342Y793681D01*
X1066330Y796123D01*
X1064721Y798221D01*
X1062623Y799830D01*
X1060181Y800842D01*
X1057560Y801187D01*
D02*
G37*
G36*
X1054790D02*
X1054560D01*
X1051939Y800842D01*
X1049497Y799830D01*
X1047399Y798221D01*
X1045790Y796123D01*
X1044779Y793681D01*
X1044601Y792330D01*
X1054790D01*
Y801187D01*
D02*
G37*
G36*
X1158810Y836432D02*
X1156320Y836104D01*
X1153999Y835143D01*
X1152006Y833614D01*
X1150477Y831621D01*
X1149516Y829300D01*
X1149188Y826810D01*
X1149516Y824320D01*
X1150477Y821999D01*
X1152006Y820006D01*
X1153999Y818477D01*
X1154925Y818093D01*
Y811397D01*
X1152856Y810985D01*
X1150775Y809595D01*
X1149385Y807514D01*
X1148897Y805060D01*
Y797560D01*
X1149385Y795106D01*
X1150775Y793025D01*
X1152856Y791635D01*
X1155310Y791147D01*
X1162810D01*
X1165264Y791635D01*
X1167345Y793025D01*
X1168735Y795106D01*
X1169223Y797560D01*
Y805060D01*
X1168735Y807514D01*
X1167345Y809595D01*
X1165264Y810985D01*
X1162810Y811473D01*
X1162695D01*
Y818093D01*
X1163621Y818477D01*
X1165614Y820006D01*
X1167143Y821999D01*
X1168104Y824320D01*
X1168432Y826810D01*
X1168104Y829300D01*
X1167143Y831621D01*
X1165614Y833614D01*
X1163621Y835143D01*
X1161300Y836104D01*
X1158810Y836432D01*
D02*
G37*
G36*
X1142911Y798790D02*
X1135230D01*
Y791109D01*
X1136320Y791253D01*
X1138519Y792164D01*
X1140407Y793613D01*
X1141856Y795501D01*
X1142767Y797700D01*
X1142911Y798790D01*
D02*
G37*
G36*
X1132690D02*
X1125009D01*
X1125153Y797700D01*
X1126064Y795501D01*
X1127513Y793613D01*
X1129401Y792164D01*
X1131600Y791253D01*
X1132690Y791109D01*
Y798790D01*
D02*
G37*
G36*
X973810Y839437D02*
X971189Y839092D01*
X968747Y838080D01*
X966649Y836471D01*
X965040Y834373D01*
X964028Y831931D01*
X963683Y829310D01*
X964028Y826689D01*
X965040Y824247D01*
X966649Y822149D01*
X968747Y820540D01*
X969925Y820052D01*
Y803891D01*
X970221Y802404D01*
X971063Y801144D01*
X972452Y799755D01*
X972003Y798670D01*
X971692Y796310D01*
X972003Y793950D01*
X972914Y791751D01*
X974363Y789863D01*
X976251Y788414D01*
X978450Y787503D01*
X980810Y787192D01*
X983170Y787503D01*
X985369Y788414D01*
X987257Y789863D01*
X988706Y791751D01*
X989617Y793950D01*
X989928Y796310D01*
X989617Y798670D01*
X988706Y800869D01*
X987257Y802757D01*
X985369Y804206D01*
X983170Y805117D01*
X980810Y805428D01*
X978827Y805167D01*
X977915Y805867D01*
X977695Y806176D01*
Y820052D01*
X978873Y820540D01*
X980971Y822149D01*
X982580Y824247D01*
X983592Y826689D01*
X983937Y829310D01*
X983592Y831931D01*
X982580Y834373D01*
X980971Y836471D01*
X978873Y838080D01*
X976431Y839092D01*
X973810Y839437D01*
D02*
G37*
G36*
X948410D02*
X945789Y839092D01*
X943347Y838080D01*
X941249Y836471D01*
X939640Y834373D01*
X938628Y831931D01*
X938283Y829310D01*
X938628Y826689D01*
X939640Y824247D01*
X941249Y822149D01*
X943347Y820540D01*
X944525Y820052D01*
Y812710D01*
X944821Y811223D01*
X945663Y809963D01*
X947715Y807911D01*
Y803799D01*
X947251Y803606D01*
X945363Y802157D01*
X943914Y800269D01*
X943003Y798070D01*
X942692Y795710D01*
X943003Y793350D01*
X943914Y791151D01*
X945363Y789263D01*
X947251Y787814D01*
X949450Y786903D01*
X951810Y786592D01*
X954170Y786903D01*
X956369Y787814D01*
X958257Y789263D01*
X959706Y791151D01*
X960617Y793350D01*
X960928Y795710D01*
X960617Y798070D01*
X959706Y800269D01*
X958257Y802157D01*
X956369Y803606D01*
X955485Y803973D01*
Y809520D01*
X955189Y811007D01*
X954347Y812267D01*
X952295Y814319D01*
Y820052D01*
X953473Y820540D01*
X955571Y822149D01*
X957180Y824247D01*
X958192Y826689D01*
X958537Y829310D01*
X958192Y831931D01*
X957180Y834373D01*
X955571Y836471D01*
X953473Y838080D01*
X951031Y839092D01*
X948410Y839437D01*
D02*
G37*
G36*
X923010D02*
X920389Y839092D01*
X917947Y838080D01*
X915849Y836471D01*
X914240Y834373D01*
X913228Y831931D01*
X912883Y829310D01*
X913228Y826689D01*
X914240Y824247D01*
X915849Y822149D01*
X917947Y820540D01*
X920025Y819679D01*
Y803033D01*
X918363Y801757D01*
X916914Y799869D01*
X916003Y797670D01*
X915692Y795310D01*
X916003Y792950D01*
X916914Y790751D01*
X918363Y788863D01*
X920251Y787414D01*
X922450Y786503D01*
X924810Y786192D01*
X927170Y786503D01*
X929369Y787414D01*
X931257Y788863D01*
X932706Y790751D01*
X933617Y792950D01*
X933928Y795310D01*
X933617Y797670D01*
X932706Y799869D01*
X931257Y801757D01*
X929369Y803206D01*
X927795Y803858D01*
Y820425D01*
X928073Y820540D01*
X930171Y822149D01*
X931780Y824247D01*
X932792Y826689D01*
X933137Y829310D01*
X932792Y831931D01*
X931780Y834373D01*
X930171Y836471D01*
X928073Y838080D01*
X925631Y839092D01*
X923010Y839437D01*
D02*
G37*
G36*
X897610D02*
X894989Y839092D01*
X892547Y838080D01*
X890449Y836471D01*
X888840Y834373D01*
X887828Y831931D01*
X887483Y829310D01*
X887828Y826689D01*
X888840Y824247D01*
X890449Y822149D01*
X892547Y820540D01*
X893725Y820052D01*
Y803817D01*
X892251Y803206D01*
X890363Y801757D01*
X888914Y799869D01*
X888003Y797670D01*
X887692Y795310D01*
X888003Y792950D01*
X888914Y790751D01*
X890363Y788863D01*
X892251Y787414D01*
X894450Y786503D01*
X896810Y786192D01*
X899170Y786503D01*
X901369Y787414D01*
X903257Y788863D01*
X904706Y790751D01*
X905617Y792950D01*
X905928Y795310D01*
X905617Y797670D01*
X904706Y799869D01*
X903257Y801757D01*
X901495Y803110D01*
Y820052D01*
X902673Y820540D01*
X904771Y822149D01*
X906380Y824247D01*
X907392Y826689D01*
X907737Y829310D01*
X907392Y831931D01*
X906380Y834373D01*
X904771Y836471D01*
X902673Y838080D01*
X900231Y839092D01*
X897610Y839437D01*
D02*
G37*
G36*
X872210D02*
X869589Y839092D01*
X867147Y838080D01*
X865049Y836471D01*
X863440Y834373D01*
X862428Y831931D01*
X862083Y829310D01*
X862428Y826689D01*
X863440Y824247D01*
X865049Y822149D01*
X867147Y820540D01*
X867368Y820448D01*
X867666Y818950D01*
X866063Y817347D01*
X865221Y816087D01*
X864925Y814600D01*
Y801486D01*
X864251Y801206D01*
X862363Y799757D01*
X860914Y797869D01*
X860003Y795670D01*
X859692Y793310D01*
X860003Y790950D01*
X860914Y788751D01*
X862363Y786863D01*
X864251Y785414D01*
X866450Y784503D01*
X868810Y784192D01*
X871170Y784503D01*
X873369Y785414D01*
X875257Y786863D01*
X876706Y788751D01*
X877617Y790950D01*
X877928Y793310D01*
X877617Y795670D01*
X876706Y797869D01*
X875257Y799757D01*
X873369Y801206D01*
X872695Y801486D01*
Y812991D01*
X874957Y815253D01*
X875799Y816513D01*
X876095Y818000D01*
Y820052D01*
X877273Y820540D01*
X879371Y822149D01*
X880980Y824247D01*
X881992Y826689D01*
X882337Y829310D01*
X881992Y831931D01*
X880980Y834373D01*
X879371Y836471D01*
X877273Y838080D01*
X874831Y839092D01*
X872210Y839437D01*
D02*
G37*
G36*
X761274Y790040D02*
X752080D01*
Y780846D01*
X753561Y781041D01*
X756125Y782103D01*
X758327Y783793D01*
X760017Y785994D01*
X761079Y788559D01*
X761274Y790040D01*
D02*
G37*
G36*
X749540D02*
X740346D01*
X740541Y788559D01*
X741603Y785994D01*
X743293Y783793D01*
X745495Y782103D01*
X748058Y781041D01*
X749540Y780846D01*
Y790040D01*
D02*
G37*
G36*
X1159580Y785911D02*
Y778230D01*
X1167261D01*
X1167117Y779320D01*
X1166207Y781519D01*
X1164758Y783407D01*
X1162869Y784856D01*
X1160670Y785767D01*
X1159580Y785911D01*
D02*
G37*
G36*
X1157040Y785911D02*
X1155950Y785767D01*
X1153751Y784856D01*
X1151863Y783407D01*
X1150414Y781519D01*
X1149503Y779320D01*
X1149359Y778230D01*
X1157040D01*
Y785911D01*
D02*
G37*
G36*
X1167261Y775690D02*
X1159580D01*
Y768009D01*
X1160670Y768153D01*
X1162869Y769063D01*
X1164758Y770512D01*
X1166207Y772401D01*
X1167117Y774600D01*
X1167261Y775690D01*
D02*
G37*
G36*
X1157040D02*
X1149359D01*
X1149503Y774600D01*
X1150414Y772401D01*
X1151863Y770512D01*
X1153751Y769063D01*
X1155950Y768153D01*
X1157040Y768009D01*
Y775690D01*
D02*
G37*
G36*
X776210Y789241D02*
X773458Y788879D01*
X770894Y787817D01*
X768693Y786127D01*
X767003Y783925D01*
X765941Y781361D01*
X765579Y778610D01*
X765941Y775859D01*
X767003Y773295D01*
X768693Y771093D01*
X770894Y769403D01*
X773458Y768341D01*
X776210Y767979D01*
X778961Y768341D01*
X781525Y769403D01*
X783727Y771093D01*
X785417Y773295D01*
X786479Y775859D01*
X786841Y778610D01*
X786479Y781361D01*
X785417Y783925D01*
X783727Y786127D01*
X781525Y787817D01*
X778961Y788879D01*
X776210Y789241D01*
D02*
G37*
G36*
X752218Y771893D02*
Y763708D01*
X760403D01*
X760243Y764929D01*
X759281Y767249D01*
X757752Y769242D01*
X755760Y770771D01*
X753439Y771732D01*
X752218Y771893D01*
D02*
G37*
G36*
X749678D02*
X748458Y771732D01*
X746137Y770771D01*
X744144Y769242D01*
X742615Y767249D01*
X741654Y764929D01*
X741493Y763708D01*
X749678D01*
Y771893D01*
D02*
G37*
G36*
X1108810Y836432D02*
X1106320Y836104D01*
X1103999Y835143D01*
X1102006Y833614D01*
X1100477Y831621D01*
X1099516Y829300D01*
X1099188Y826810D01*
X1099516Y824320D01*
X1100477Y821999D01*
X1102006Y820006D01*
X1103999Y818477D01*
X1104876Y818113D01*
X1104820Y808296D01*
X1104001Y807956D01*
X1102113Y806507D01*
X1100664Y804619D01*
X1099753Y802420D01*
X1099442Y800060D01*
X1099753Y797700D01*
X1100664Y795501D01*
X1102113Y793613D01*
X1104001Y792164D01*
X1104727Y791863D01*
X1104681Y783782D01*
X1103195Y783167D01*
X1100993Y781477D01*
X1099303Y779276D01*
X1098241Y776712D01*
X1097879Y773960D01*
X1098241Y771208D01*
X1099303Y768644D01*
X1100993Y766443D01*
X1103195Y764753D01*
X1105759Y763691D01*
X1108510Y763329D01*
X1111262Y763691D01*
X1113826Y764753D01*
X1116027Y766443D01*
X1117717Y768644D01*
X1118779Y771208D01*
X1119141Y773960D01*
X1118779Y776712D01*
X1117717Y779276D01*
X1116027Y781477D01*
X1113826Y783167D01*
X1112450Y783736D01*
X1112497Y791906D01*
X1113119Y792164D01*
X1115007Y793613D01*
X1116456Y795501D01*
X1117367Y797700D01*
X1117678Y800060D01*
X1117367Y802420D01*
X1116456Y804619D01*
X1115007Y806507D01*
X1113119Y807956D01*
X1112589Y808176D01*
X1112645Y818073D01*
X1113621Y818477D01*
X1115614Y820006D01*
X1117143Y821999D01*
X1118104Y824320D01*
X1118432Y826810D01*
X1118104Y829300D01*
X1117143Y831621D01*
X1115614Y833614D01*
X1113621Y835143D01*
X1111300Y836104D01*
X1108810Y836432D01*
D02*
G37*
G36*
X1067520Y789790D02*
X1056060D01*
X1044601D01*
X1044779Y788439D01*
X1045790Y785997D01*
X1047399Y783899D01*
X1049497Y782290D01*
X1050807Y781747D01*
Y780373D01*
X1049497Y779830D01*
X1047399Y778221D01*
X1045790Y776123D01*
X1044778Y773681D01*
X1044433Y771060D01*
X1044778Y768439D01*
X1045790Y765997D01*
X1047399Y763899D01*
X1049497Y762290D01*
X1051939Y761278D01*
X1052175Y761247D01*
Y752505D01*
X998694D01*
X998168Y753775D01*
X1006776Y762382D01*
X1007450Y762103D01*
X1009810Y761792D01*
X1012170Y762103D01*
X1014369Y763014D01*
X1016257Y764463D01*
X1017706Y766351D01*
X1018617Y768550D01*
X1018928Y770910D01*
X1018617Y773270D01*
X1017706Y775469D01*
X1016257Y777357D01*
X1014369Y778806D01*
X1012170Y779717D01*
X1009810Y780028D01*
X1007450Y779717D01*
X1005251Y778806D01*
X1003363Y777357D01*
X1001914Y775469D01*
X1001003Y773270D01*
X1000692Y770910D01*
X1001003Y768550D01*
X1001282Y767876D01*
X990991Y757585D01*
X974638D01*
X974152Y758758D01*
X977776Y762382D01*
X978450Y762103D01*
X980810Y761792D01*
X983170Y762103D01*
X985369Y763014D01*
X987257Y764463D01*
X988706Y766351D01*
X989617Y768550D01*
X989928Y770910D01*
X989617Y773270D01*
X988706Y775469D01*
X987257Y777357D01*
X985369Y778806D01*
X983170Y779717D01*
X980810Y780028D01*
X978450Y779717D01*
X976251Y778806D01*
X974363Y777357D01*
X972914Y775469D01*
X972003Y773270D01*
X971692Y770910D01*
X972003Y768550D01*
X972282Y767876D01*
X967071Y762665D01*
X958664D01*
X958393Y763463D01*
X958313Y763935D01*
X959706Y765751D01*
X960617Y767950D01*
X960928Y770310D01*
X960617Y772670D01*
X959706Y774869D01*
X958257Y776757D01*
X956369Y778206D01*
X954170Y779117D01*
X951810Y779428D01*
X949450Y779117D01*
X947251Y778206D01*
X945363Y776757D01*
X943914Y774869D01*
X943003Y772670D01*
X942692Y770310D01*
X943003Y767950D01*
X943914Y765751D01*
X945307Y763935D01*
X945227Y763463D01*
X944956Y762665D01*
X932222D01*
X931620Y763935D01*
X932706Y765351D01*
X933617Y767550D01*
X933928Y769910D01*
X933617Y772270D01*
X932706Y774469D01*
X931257Y776357D01*
X929369Y777806D01*
X927170Y778717D01*
X924810Y779028D01*
X922450Y778717D01*
X920251Y777806D01*
X918363Y776357D01*
X916914Y774469D01*
X916003Y772270D01*
X915692Y769910D01*
X916003Y767550D01*
X916914Y765351D01*
X918016Y763914D01*
X918021Y763772D01*
X917591Y762624D01*
X917530Y762558D01*
X916578Y762369D01*
X915318Y761527D01*
X911236Y757445D01*
X877833D01*
X876583Y757489D01*
X876583Y757489D01*
X876583Y757489D01*
X874134Y757002D01*
X872050Y755609D01*
X872076Y755583D01*
X872074Y755568D01*
X862934Y746428D01*
X861239Y747130D01*
X859010Y747424D01*
X856781Y747130D01*
X854703Y746270D01*
X852919Y744901D01*
X851550Y743117D01*
X850690Y741039D01*
X850396Y738810D01*
Y725810D01*
X850690Y723581D01*
X851550Y721503D01*
X852919Y719719D01*
X854703Y718350D01*
X856781Y717490D01*
X859010Y717196D01*
X861239Y717490D01*
X863317Y718350D01*
X865101Y719719D01*
X866470Y721503D01*
X867330Y723581D01*
X867624Y725810D01*
Y738810D01*
X867470Y739976D01*
X877169Y749675D01*
X912845D01*
X913520Y749810D01*
X914146Y748639D01*
X912462Y746955D01*
X912039Y747130D01*
X909810Y747424D01*
X907581Y747130D01*
X905503Y746270D01*
X903719Y744901D01*
X902350Y743117D01*
X901490Y741039D01*
X901196Y738810D01*
Y725810D01*
X901490Y723581D01*
X902350Y721503D01*
X903719Y719719D01*
X905503Y718350D01*
X907581Y717490D01*
X909810Y717196D01*
X912039Y717490D01*
X914117Y718350D01*
X915901Y719719D01*
X917270Y721503D01*
X918130Y723581D01*
X918424Y725810D01*
Y738810D01*
X918130Y741039D01*
X917955Y741462D01*
X926309Y749815D01*
X939062D01*
X939548Y748642D01*
X937862Y746955D01*
X937439Y747130D01*
X935210Y747424D01*
X932981Y747130D01*
X930903Y746270D01*
X929119Y744901D01*
X927750Y743117D01*
X926890Y741039D01*
X926596Y738810D01*
Y725810D01*
X926890Y723581D01*
X927750Y721503D01*
X929119Y719719D01*
X930903Y718350D01*
X932981Y717490D01*
X935210Y717196D01*
X937439Y717490D01*
X939517Y718350D01*
X941301Y719719D01*
X942670Y721503D01*
X943530Y723581D01*
X943824Y725810D01*
Y738810D01*
X943530Y741039D01*
X943355Y741462D01*
X946629Y744735D01*
X952956D01*
X953518Y743596D01*
X953150Y743117D01*
X952290Y741039D01*
X951996Y738810D01*
Y725990D01*
X927201Y701195D01*
X809019D01*
X798880Y711333D01*
X799174Y713560D01*
X798880Y715789D01*
X798020Y717867D01*
X796651Y719651D01*
X794867Y721020D01*
X792789Y721880D01*
X790560Y722174D01*
X788331Y721880D01*
X786253Y721020D01*
X784469Y719651D01*
X783100Y717867D01*
X782240Y715789D01*
X781946Y713560D01*
X782240Y711331D01*
X783100Y709253D01*
X784469Y707469D01*
X786253Y706100D01*
X788331Y705240D01*
X790560Y704946D01*
X792789Y705240D01*
X793636Y705590D01*
X804663Y694563D01*
X805923Y693721D01*
X807410Y693425D01*
X812836D01*
X813362Y692155D01*
X793141Y671935D01*
X792789Y672080D01*
X790560Y672374D01*
X788331Y672080D01*
X786253Y671220D01*
X784469Y669851D01*
X783100Y668067D01*
X782240Y665989D01*
X781946Y663760D01*
X782240Y661531D01*
X783100Y659453D01*
X784469Y657669D01*
X786253Y656300D01*
X788331Y655440D01*
X790560Y655146D01*
X792789Y655440D01*
X794867Y656300D01*
X796651Y657669D01*
X798020Y659453D01*
X798880Y661531D01*
X799174Y663760D01*
X798880Y665989D01*
X798676Y666482D01*
X819619Y687425D01*
X945743D01*
X945743Y687425D01*
Y687376D01*
X948127Y687850D01*
X948417Y687831D01*
X949397Y687307D01*
Y682810D01*
X949885Y680356D01*
X951275Y678275D01*
X953356Y676885D01*
X955810Y676397D01*
X963310D01*
X965764Y676885D01*
X967845Y678275D01*
X969235Y680356D01*
X969723Y682810D01*
Y690310D01*
X969235Y692764D01*
X967845Y694845D01*
X965764Y696235D01*
X963310Y696723D01*
X959538D01*
X959100Y697916D01*
X982719Y717930D01*
X983781Y717490D01*
X986010Y717196D01*
X988239Y717490D01*
X990317Y718350D01*
X992101Y719719D01*
X993470Y721503D01*
X994330Y723581D01*
X994624Y725810D01*
Y738810D01*
X994330Y741039D01*
X993470Y743117D01*
X993102Y743596D01*
X993663Y744735D01*
X1003756D01*
X1004318Y743596D01*
X1003950Y743117D01*
X1003090Y741039D01*
X1002796Y738810D01*
Y725810D01*
X1003090Y723581D01*
X1003950Y721503D01*
X1005319Y719719D01*
X1007103Y718350D01*
X1009181Y717490D01*
X1011410Y717196D01*
X1013639Y717490D01*
X1015717Y718350D01*
X1017501Y719719D01*
X1018870Y721503D01*
X1019730Y723581D01*
X1020024Y725810D01*
Y738810D01*
X1019730Y741039D01*
X1018870Y743117D01*
X1018502Y743596D01*
X1019063Y744735D01*
X1029156D01*
X1029718Y743596D01*
X1029350Y743117D01*
X1028490Y741039D01*
X1028196Y738810D01*
Y725810D01*
X1028490Y723581D01*
X1029350Y721503D01*
X1030719Y719719D01*
X1032503Y718350D01*
X1034581Y717490D01*
X1036810Y717196D01*
X1039039Y717490D01*
X1041117Y718350D01*
X1042901Y719719D01*
X1044270Y721503D01*
X1045130Y723581D01*
X1045424Y725810D01*
Y738810D01*
X1045130Y741039D01*
X1044270Y743117D01*
X1043902Y743596D01*
X1044464Y744735D01*
X1057541D01*
X1058863Y743013D01*
X1060751Y741564D01*
X1062950Y740653D01*
X1065310Y740342D01*
X1067670Y740653D01*
X1069869Y741564D01*
X1071757Y743013D01*
X1073206Y744901D01*
X1073369Y745294D01*
X1085898Y744948D01*
X1086603Y743244D01*
X1088293Y741043D01*
X1089586Y740050D01*
X1084242Y719476D01*
X1083320Y719354D01*
X1080999Y718393D01*
X1079006Y716864D01*
X1077477Y714871D01*
X1076516Y712550D01*
X1076188Y710060D01*
X1076516Y707570D01*
X1077477Y705249D01*
X1079006Y703256D01*
X1080999Y701727D01*
X1083320Y700766D01*
X1085810Y700438D01*
X1088300Y700766D01*
X1090621Y701727D01*
X1092614Y703256D01*
X1094143Y705249D01*
X1095104Y707570D01*
X1095432Y710060D01*
X1095104Y712550D01*
X1094143Y714871D01*
X1092614Y716864D01*
X1091761Y717519D01*
X1097107Y738100D01*
X1098561Y738291D01*
X1101125Y739353D01*
X1103327Y741043D01*
X1105017Y743244D01*
X1106079Y745808D01*
X1106441Y748560D01*
X1106079Y751311D01*
X1105017Y753876D01*
X1103327Y756077D01*
X1101125Y757767D01*
X1098561Y758829D01*
X1095810Y759191D01*
X1093058Y758829D01*
X1090495Y757767D01*
X1088293Y756077D01*
X1086603Y753876D01*
X1086122Y752714D01*
X1073604Y753060D01*
X1073206Y754019D01*
X1071757Y755907D01*
X1069869Y757356D01*
X1067670Y758267D01*
X1065310Y758578D01*
X1062950Y758267D01*
X1061215Y757548D01*
X1059945Y758209D01*
Y761247D01*
X1060181Y761278D01*
X1062623Y762290D01*
X1064721Y763899D01*
X1066330Y765997D01*
X1067342Y768439D01*
X1067687Y771060D01*
X1067342Y773681D01*
X1066330Y776123D01*
X1064721Y778221D01*
X1062623Y779830D01*
X1061313Y780373D01*
Y781747D01*
X1062623Y782290D01*
X1064721Y783899D01*
X1066330Y785997D01*
X1067342Y788439D01*
X1067520Y789790D01*
D02*
G37*
G36*
X896810Y779028D02*
X894450Y778717D01*
X892251Y777806D01*
X890363Y776357D01*
X888914Y774469D01*
X888003Y772270D01*
X887692Y769910D01*
X888003Y767550D01*
X888914Y765351D01*
X890363Y763463D01*
X892251Y762014D01*
X894450Y761103D01*
X896810Y760792D01*
X899170Y761103D01*
X901369Y762014D01*
X903257Y763463D01*
X904706Y765351D01*
X905617Y767550D01*
X905928Y769910D01*
X905617Y772270D01*
X904706Y774469D01*
X903257Y776357D01*
X901369Y777806D01*
X899170Y778717D01*
X896810Y779028D01*
D02*
G37*
G36*
X840810Y778428D02*
X838450Y778117D01*
X836251Y777206D01*
X834363Y775757D01*
X832914Y773869D01*
X832003Y771670D01*
X831692Y769310D01*
X832003Y766950D01*
X832914Y764751D01*
X834363Y762863D01*
X836251Y761414D01*
X838450Y760503D01*
X840810Y760192D01*
X843170Y760503D01*
X845369Y761414D01*
X847257Y762863D01*
X848706Y764751D01*
X849617Y766950D01*
X849928Y769310D01*
X849617Y771670D01*
X848706Y773869D01*
X847257Y775757D01*
X845369Y777206D01*
X843170Y778117D01*
X840810Y778428D01*
D02*
G37*
G36*
X868810Y777028D02*
X866450Y776717D01*
X864251Y775806D01*
X862363Y774357D01*
X860914Y772469D01*
X860003Y770270D01*
X859692Y767910D01*
X860003Y765550D01*
X860914Y763351D01*
X862363Y761463D01*
X864251Y760014D01*
X866450Y759103D01*
X868810Y758792D01*
X871170Y759103D01*
X873369Y760014D01*
X875257Y761463D01*
X876706Y763351D01*
X877617Y765550D01*
X877928Y767910D01*
X877617Y770270D01*
X876706Y772469D01*
X875257Y774357D01*
X873369Y775806D01*
X871170Y776717D01*
X868810Y777028D01*
D02*
G37*
G36*
X760403Y761168D02*
X752218D01*
Y752983D01*
X753439Y753144D01*
X755760Y754105D01*
X757752Y755634D01*
X759281Y757627D01*
X760243Y759948D01*
X760403Y761168D01*
D02*
G37*
G36*
X749678D02*
X741493D01*
X741654Y759948D01*
X742615Y757627D01*
X744144Y755634D01*
X746137Y754105D01*
X748458Y753144D01*
X749678Y752983D01*
Y761168D01*
D02*
G37*
G36*
X1158310Y760678D02*
X1155950Y760367D01*
X1153751Y759456D01*
X1151863Y758007D01*
X1150414Y756119D01*
X1149503Y753920D01*
X1149192Y751560D01*
X1149503Y749200D01*
X1150414Y747001D01*
X1151863Y745113D01*
X1153751Y743664D01*
X1154514Y743347D01*
X1154581Y737238D01*
X1153749Y736893D01*
X1152712Y736098D01*
X1131683Y747358D01*
X1131841Y748560D01*
X1131479Y751311D01*
X1130417Y753875D01*
X1128727Y756077D01*
X1126525Y757767D01*
X1123961Y758829D01*
X1121210Y759191D01*
X1118458Y758829D01*
X1115894Y757767D01*
X1113693Y756077D01*
X1112003Y753875D01*
X1110941Y751311D01*
X1110579Y748560D01*
X1110941Y745808D01*
X1112003Y743244D01*
X1113693Y741043D01*
X1115894Y739353D01*
X1118458Y738291D01*
X1121210Y737929D01*
X1123961Y738291D01*
X1126525Y739353D01*
X1128025Y740504D01*
X1149029Y729257D01*
X1148938Y728560D01*
X1149266Y726070D01*
X1150227Y723749D01*
X1151756Y721756D01*
X1153749Y720227D01*
X1156070Y719266D01*
X1158560Y718938D01*
X1161050Y719266D01*
X1163371Y720227D01*
X1165364Y721756D01*
X1166893Y723749D01*
X1167855Y726070D01*
X1168182Y728560D01*
X1167855Y731050D01*
X1166893Y733371D01*
X1165364Y735364D01*
X1163371Y736893D01*
X1162350Y737316D01*
X1162283Y743421D01*
X1162869Y743664D01*
X1164757Y745113D01*
X1166206Y747001D01*
X1167117Y749200D01*
X1167428Y751560D01*
X1167117Y753920D01*
X1166206Y756119D01*
X1164757Y758007D01*
X1162869Y759456D01*
X1160670Y760367D01*
X1158310Y760678D01*
D02*
G37*
G36*
X811810Y778428D02*
X809450Y778117D01*
X807251Y777206D01*
X805363Y775757D01*
X803914Y773869D01*
X803003Y771670D01*
X802692Y769310D01*
X803003Y766950D01*
X803914Y764751D01*
X805363Y762863D01*
X807251Y761414D01*
X807925Y761134D01*
Y720310D01*
X808221Y718823D01*
X809063Y717563D01*
X819063Y707563D01*
X820323Y706721D01*
X821810Y706425D01*
X869810D01*
X871297Y706721D01*
X872557Y707563D01*
X882448Y717455D01*
X884410Y717196D01*
X886639Y717490D01*
X888717Y718350D01*
X890501Y719719D01*
X891870Y721503D01*
X892730Y723581D01*
X893024Y725810D01*
Y738810D01*
X892730Y741039D01*
X891870Y743117D01*
X890501Y744901D01*
X888717Y746270D01*
X886639Y747130D01*
X884410Y747424D01*
X882181Y747130D01*
X880103Y746270D01*
X878319Y744901D01*
X876950Y743117D01*
X876090Y741039D01*
X875796Y738810D01*
Y725810D01*
X876090Y723581D01*
X876528Y722522D01*
X868201Y714195D01*
X823419D01*
X815695Y721919D01*
Y761134D01*
X816369Y761414D01*
X818257Y762863D01*
X819706Y764751D01*
X820617Y766950D01*
X820928Y769310D01*
X820617Y771670D01*
X819706Y773869D01*
X818257Y775757D01*
X816369Y777206D01*
X814170Y778117D01*
X811810Y778428D01*
D02*
G37*
G36*
X833610Y747424D02*
X831381Y747130D01*
X829303Y746270D01*
X827519Y744901D01*
X826150Y743117D01*
X825290Y741039D01*
X824996Y738810D01*
Y725810D01*
X825290Y723581D01*
X826150Y721503D01*
X827519Y719719D01*
X829303Y718350D01*
X831381Y717490D01*
X833610Y717196D01*
X835839Y717490D01*
X837917Y718350D01*
X839701Y719719D01*
X841070Y721503D01*
X841930Y723581D01*
X842224Y725810D01*
Y738810D01*
X841930Y741039D01*
X841070Y743117D01*
X839701Y744901D01*
X837917Y746270D01*
X835839Y747130D01*
X833610Y747424D01*
D02*
G37*
G36*
X1137080Y719515D02*
Y711330D01*
X1145265D01*
X1145104Y712550D01*
X1144143Y714871D01*
X1142614Y716864D01*
X1140621Y718393D01*
X1138300Y719354D01*
X1137080Y719515D01*
D02*
G37*
G36*
X1134540D02*
X1133320Y719354D01*
X1130999Y718393D01*
X1129006Y716864D01*
X1127477Y714871D01*
X1126516Y712550D01*
X1126355Y711330D01*
X1134540D01*
Y719515D01*
D02*
G37*
G36*
X750948Y722060D02*
X748458Y721732D01*
X746137Y720771D01*
X744144Y719242D01*
X742615Y717249D01*
X741654Y714929D01*
X741326Y712438D01*
X741654Y709948D01*
X742615Y707627D01*
X744144Y705634D01*
X746137Y704105D01*
X748458Y703144D01*
X750948Y702816D01*
X753439Y703144D01*
X755760Y704105D01*
X757752Y705634D01*
X759281Y707627D01*
X760243Y709948D01*
X760571Y712438D01*
X760243Y714929D01*
X759281Y717249D01*
X757752Y719242D01*
X755760Y720771D01*
X753439Y721732D01*
X750948Y722060D01*
D02*
G37*
G36*
X1145265Y708790D02*
X1137080D01*
Y700605D01*
X1138300Y700766D01*
X1140621Y701727D01*
X1142614Y703256D01*
X1144143Y705249D01*
X1145104Y707570D01*
X1145265Y708790D01*
D02*
G37*
G36*
X1134540D02*
X1126355D01*
X1126516Y707570D01*
X1127477Y705249D01*
X1129006Y703256D01*
X1130999Y701727D01*
X1133320Y700766D01*
X1134540Y700605D01*
Y708790D01*
D02*
G37*
G36*
X1158560Y688182D02*
X1156070Y687854D01*
X1153749Y686893D01*
X1151756Y685364D01*
X1150227Y683371D01*
X1149874Y682520D01*
X1143417Y682577D01*
X1142207Y682741D01*
X1142193Y682747D01*
X1140983Y682614D01*
X1138811Y682662D01*
X1138456Y683519D01*
X1137007Y685407D01*
X1135119Y686856D01*
X1132920Y687767D01*
X1130560Y688078D01*
X1128200Y687767D01*
X1126001Y686856D01*
X1124113Y685407D01*
X1122664Y683519D01*
X1121753Y681320D01*
X1121442Y678960D01*
X1121452Y678882D01*
X1112912Y674764D01*
X1111045Y676197D01*
X1108481Y677259D01*
X1105730Y677621D01*
X1102978Y677259D01*
X1100414Y676197D01*
X1098213Y674507D01*
X1096523Y672305D01*
X1095461Y669741D01*
X1095099Y666990D01*
X1095461Y664238D01*
X1096523Y661674D01*
X1098213Y659473D01*
X1100414Y657783D01*
X1102978Y656721D01*
X1105730Y656359D01*
X1108481Y656721D01*
X1111045Y657783D01*
X1113247Y659473D01*
X1114937Y661674D01*
X1115999Y664238D01*
X1116361Y666990D01*
X1116260Y667754D01*
X1124892Y671915D01*
X1126001Y671064D01*
X1128200Y670153D01*
X1130560Y669842D01*
X1132920Y670153D01*
X1135119Y671064D01*
X1137007Y672513D01*
X1138456Y674401D01*
X1138661Y674894D01*
X1140830Y674846D01*
X1142030Y674806D01*
Y674806D01*
X1140830Y674846D01*
X1142030Y674806D01*
X1142030Y674797D01*
X1142088Y674785D01*
X1142089Y674803D01*
X1143294Y674808D01*
X1143294Y674808D01*
X1149812Y674751D01*
X1150227Y673749D01*
X1151756Y671756D01*
X1153749Y670227D01*
X1156070Y669266D01*
X1158560Y668938D01*
X1161050Y669266D01*
X1163371Y670227D01*
X1165364Y671756D01*
X1166893Y673749D01*
X1167855Y676069D01*
X1168182Y678560D01*
X1167855Y681050D01*
X1166893Y683371D01*
X1165364Y685364D01*
X1163371Y686893D01*
X1161050Y687854D01*
X1158560Y688182D01*
D02*
G37*
G36*
X750810Y700932D02*
X748320Y700604D01*
X745999Y699643D01*
X744006Y698114D01*
X742477Y696121D01*
X741516Y693800D01*
X741188Y691310D01*
X741516Y688820D01*
X742477Y686499D01*
X744006Y684506D01*
X745999Y682977D01*
X748320Y682016D01*
X750810Y681688D01*
X753300Y682016D01*
X755621Y682977D01*
X757614Y684506D01*
X759143Y686499D01*
X760104Y688820D01*
X760432Y691310D01*
X760104Y693800D01*
X759143Y696121D01*
X757614Y698114D01*
X755621Y699643D01*
X753300Y700604D01*
X750810Y700932D01*
D02*
G37*
G36*
X1065310Y733178D02*
X1062950Y732867D01*
X1060751Y731956D01*
X1058863Y730507D01*
X1057414Y728619D01*
X1056503Y726420D01*
X1056192Y724060D01*
X1056503Y721700D01*
X1057414Y719501D01*
X1058863Y717613D01*
X1060751Y716164D01*
X1061175Y715988D01*
Y683575D01*
X1002290D01*
X1000803Y683279D01*
X999543Y682437D01*
X987862Y670755D01*
X987439Y670930D01*
X985210Y671224D01*
X982981Y670930D01*
X980903Y670070D01*
X979119Y668701D01*
X977750Y666917D01*
X976890Y664839D01*
X976596Y662610D01*
Y649610D01*
X976890Y647381D01*
X977750Y645303D01*
X979119Y643519D01*
X980903Y642150D01*
X982981Y641290D01*
X985210Y640996D01*
X987439Y641290D01*
X989517Y642150D01*
X991301Y643519D01*
X992670Y645303D01*
X993530Y647381D01*
X993824Y649610D01*
Y662610D01*
X993530Y664839D01*
X993355Y665262D01*
X1003899Y675805D01*
X1070531D01*
X1071123Y674374D01*
X1072813Y672173D01*
X1075014Y670483D01*
X1077578Y669421D01*
X1080330Y669059D01*
X1083081Y669421D01*
X1085645Y670483D01*
X1087847Y672173D01*
X1089537Y674374D01*
X1090599Y676938D01*
X1090961Y679690D01*
X1090599Y682441D01*
X1089537Y685005D01*
X1087847Y687207D01*
X1085645Y688897D01*
X1083081Y689959D01*
X1080330Y690321D01*
X1077578Y689959D01*
X1075014Y688897D01*
X1072813Y687207D01*
X1071123Y685005D01*
X1070531Y683575D01*
X1068945D01*
Y715781D01*
X1069869Y716164D01*
X1071757Y717613D01*
X1073206Y719501D01*
X1074117Y721700D01*
X1074428Y724060D01*
X1074117Y726420D01*
X1073206Y728619D01*
X1071757Y730507D01*
X1069869Y731956D01*
X1067670Y732867D01*
X1065310Y733178D01*
D02*
G37*
G36*
X935680Y671057D02*
Y657380D01*
X943024D01*
Y662610D01*
X942730Y664839D01*
X941870Y666917D01*
X940501Y668701D01*
X938717Y670070D01*
X936639Y670930D01*
X935680Y671057D01*
D02*
G37*
G36*
X933140Y671057D02*
X932181Y670930D01*
X930103Y670070D01*
X928319Y668701D01*
X926950Y666917D01*
X926090Y664839D01*
X925796Y662610D01*
Y657380D01*
X933140D01*
Y671057D01*
D02*
G37*
G36*
X1081600Y664754D02*
Y655560D01*
X1090794D01*
X1090599Y657041D01*
X1089537Y659605D01*
X1087847Y661807D01*
X1085645Y663497D01*
X1083081Y664559D01*
X1081600Y664754D01*
D02*
G37*
G36*
X1079060Y664754D02*
X1077578Y664559D01*
X1075014Y663497D01*
X1072813Y661807D01*
X1071123Y659605D01*
X1070061Y657041D01*
X1069866Y655560D01*
X1079060D01*
Y664754D01*
D02*
G37*
G36*
X1130560Y662678D02*
X1128200Y662367D01*
X1126001Y661456D01*
X1124113Y660007D01*
X1122664Y658119D01*
X1121753Y655920D01*
X1121442Y653560D01*
X1121753Y651200D01*
X1122664Y649001D01*
X1124113Y647113D01*
X1126001Y645664D01*
X1128200Y644753D01*
X1130560Y644442D01*
X1132920Y644753D01*
X1135119Y645664D01*
X1137007Y647113D01*
X1138456Y649001D01*
X1139367Y651200D01*
X1139678Y653560D01*
X1139367Y655920D01*
X1138456Y658119D01*
X1137007Y660007D01*
X1135119Y661456D01*
X1132920Y662367D01*
X1130560Y662678D01*
D02*
G37*
G36*
X1079060Y653020D02*
X1069866D01*
X1070061Y651538D01*
X1071123Y648974D01*
X1072813Y646773D01*
X1075014Y645083D01*
X1077578Y644021D01*
X1079060Y643826D01*
Y653020D01*
D02*
G37*
G36*
X1090794D02*
X1081600D01*
Y643826D01*
X1083081Y644021D01*
X1085645Y645083D01*
X1087847Y646773D01*
X1089537Y648974D01*
X1090599Y651538D01*
X1090794Y653020D01*
D02*
G37*
G36*
X752080Y650765D02*
Y642580D01*
X760265D01*
X760104Y643800D01*
X759143Y646121D01*
X757614Y648114D01*
X755621Y649643D01*
X753300Y650604D01*
X752080Y650765D01*
D02*
G37*
G36*
X749540D02*
X748320Y650604D01*
X745999Y649643D01*
X744006Y648114D01*
X742477Y646121D01*
X741516Y643800D01*
X741355Y642580D01*
X749540D01*
Y650765D01*
D02*
G37*
G36*
X933140Y654840D02*
X925796D01*
Y649610D01*
X926090Y647381D01*
X926950Y645303D01*
X928319Y643519D01*
X930103Y642150D01*
X932181Y641290D01*
X933140Y641163D01*
Y654840D01*
D02*
G37*
G36*
X943024D02*
X935680D01*
Y641163D01*
X936639Y641290D01*
X938717Y642150D01*
X940501Y643519D01*
X941870Y645303D01*
X942730Y647381D01*
X943024Y649610D01*
Y654840D01*
D02*
G37*
G36*
X1044550Y671150D02*
X1027470D01*
Y641070D01*
X1044550D01*
Y671150D01*
D02*
G37*
G36*
X1010610Y671224D02*
X1008381Y670930D01*
X1006303Y670070D01*
X1004519Y668701D01*
X1003150Y666917D01*
X1002290Y664839D01*
X1001996Y662610D01*
Y649610D01*
X1002290Y647381D01*
X1003150Y645303D01*
X1004519Y643519D01*
X1006303Y642150D01*
X1008381Y641290D01*
X1010610Y640996D01*
X1012839Y641290D01*
X1014917Y642150D01*
X1016701Y643519D01*
X1018070Y645303D01*
X1018930Y647381D01*
X1019224Y649610D01*
Y662610D01*
X1018930Y664839D01*
X1018070Y666917D01*
X1016701Y668701D01*
X1014917Y670070D01*
X1012839Y670930D01*
X1010610Y671224D01*
D02*
G37*
G36*
X959810D02*
X957581Y670930D01*
X955503Y670070D01*
X953719Y668701D01*
X952350Y666917D01*
X951490Y664839D01*
X951196Y662610D01*
Y649610D01*
X951490Y647381D01*
X952350Y645303D01*
X953719Y643519D01*
X955503Y642150D01*
X957581Y641290D01*
X959810Y640996D01*
X962039Y641290D01*
X964117Y642150D01*
X965901Y643519D01*
X967270Y645303D01*
X968130Y647381D01*
X968424Y649610D01*
Y662610D01*
X968130Y664839D01*
X967270Y666917D01*
X965901Y668701D01*
X964117Y670070D01*
X962039Y670930D01*
X959810Y671224D01*
D02*
G37*
G36*
X909010D02*
X906781Y670930D01*
X904703Y670070D01*
X902919Y668701D01*
X901550Y666917D01*
X900690Y664839D01*
X900396Y662610D01*
Y649610D01*
X900690Y647381D01*
X901550Y645303D01*
X902919Y643519D01*
X904703Y642150D01*
X906781Y641290D01*
X909010Y640996D01*
X911239Y641290D01*
X913317Y642150D01*
X915101Y643519D01*
X916470Y645303D01*
X917330Y647381D01*
X917624Y649610D01*
Y662610D01*
X917330Y664839D01*
X916470Y666917D01*
X915101Y668701D01*
X913317Y670070D01*
X911239Y670930D01*
X909010Y671224D01*
D02*
G37*
G36*
X883610D02*
X881381Y670930D01*
X879303Y670070D01*
X877519Y668701D01*
X876150Y666917D01*
X875290Y664839D01*
X874996Y662610D01*
Y649610D01*
X875290Y647381D01*
X876150Y645303D01*
X877519Y643519D01*
X879303Y642150D01*
X881381Y641290D01*
X883610Y640996D01*
X885839Y641290D01*
X887917Y642150D01*
X889701Y643519D01*
X891070Y645303D01*
X891930Y647381D01*
X892224Y649610D01*
Y662610D01*
X891930Y664839D01*
X891070Y666917D01*
X889701Y668701D01*
X887917Y670070D01*
X885839Y670930D01*
X883610Y671224D01*
D02*
G37*
G36*
X858210D02*
X855981Y670930D01*
X853903Y670070D01*
X852119Y668701D01*
X850750Y666917D01*
X849890Y664839D01*
X849596Y662610D01*
Y649610D01*
X849890Y647381D01*
X850750Y645303D01*
X852119Y643519D01*
X853903Y642150D01*
X855981Y641290D01*
X858210Y640996D01*
X860439Y641290D01*
X862517Y642150D01*
X864301Y643519D01*
X865670Y645303D01*
X866530Y647381D01*
X866824Y649610D01*
Y662610D01*
X866530Y664839D01*
X865670Y666917D01*
X864301Y668701D01*
X862517Y670070D01*
X860439Y670930D01*
X858210Y671224D01*
D02*
G37*
G36*
X832810D02*
X830581Y670930D01*
X828503Y670070D01*
X826719Y668701D01*
X825350Y666917D01*
X824490Y664839D01*
X824196Y662610D01*
Y649610D01*
X824490Y647381D01*
X825350Y645303D01*
X826719Y643519D01*
X828503Y642150D01*
X830581Y641290D01*
X832810Y640996D01*
X835039Y641290D01*
X837117Y642150D01*
X838901Y643519D01*
X840270Y645303D01*
X841130Y647381D01*
X841424Y649610D01*
Y662610D01*
X841130Y664839D01*
X840270Y666917D01*
X838901Y668701D01*
X837117Y670070D01*
X835039Y670930D01*
X832810Y671224D01*
D02*
G37*
G36*
X760265Y640040D02*
X752080D01*
Y631855D01*
X753300Y632015D01*
X755621Y632977D01*
X757614Y634506D01*
X759143Y636499D01*
X760104Y638820D01*
X760265Y640040D01*
D02*
G37*
G36*
X749540D02*
X741355D01*
X741516Y638820D01*
X742477Y636499D01*
X744006Y634506D01*
X745999Y632977D01*
X748320Y632015D01*
X749540Y631855D01*
Y640040D01*
D02*
G37*
%LPD*%
G36*
X978918Y743596D02*
X978550Y743117D01*
X977690Y741039D01*
X977396Y738810D01*
Y725810D01*
X977658Y723824D01*
X948411Y699041D01*
X948254Y698844D01*
X947701Y698419D01*
X947087Y697620D01*
X946817Y697388D01*
X945090Y695195D01*
X933848D01*
X933362Y696368D01*
X955760Y718767D01*
X956303Y718350D01*
X958381Y717490D01*
X960610Y717196D01*
X962839Y717490D01*
X964917Y718350D01*
X966701Y719719D01*
X968070Y721503D01*
X968930Y723581D01*
X969224Y725810D01*
Y738810D01*
X968930Y741039D01*
X968070Y743117D01*
X967702Y743596D01*
X968263Y744735D01*
X978356D01*
X978918Y743596D01*
D02*
G37*
%LPC*%
G36*
X507810Y941037D02*
X505189Y940692D01*
X502747Y939680D01*
X500649Y938071D01*
X499040Y935973D01*
X498028Y933531D01*
X497683Y930910D01*
X498028Y928289D01*
X499040Y925847D01*
X500649Y923749D01*
X502747Y922140D01*
X505189Y921128D01*
X507810Y920783D01*
X510431Y921128D01*
X512873Y922140D01*
X514971Y923749D01*
X516580Y925847D01*
X517592Y928289D01*
X517937Y930910D01*
X517592Y933531D01*
X516580Y935973D01*
X514971Y938071D01*
X512873Y939680D01*
X510431Y940692D01*
X507810Y941037D01*
D02*
G37*
G36*
X482410D02*
X479789Y940692D01*
X477347Y939680D01*
X475249Y938071D01*
X473640Y935973D01*
X472628Y933531D01*
X472283Y930910D01*
X472628Y928289D01*
X473640Y925847D01*
X475249Y923749D01*
X477347Y922140D01*
X479789Y921128D01*
X482410Y920783D01*
X485031Y921128D01*
X487473Y922140D01*
X489571Y923749D01*
X491180Y925847D01*
X492192Y928289D01*
X492537Y930910D01*
X492192Y933531D01*
X491180Y935973D01*
X489571Y938071D01*
X487473Y939680D01*
X485031Y940692D01*
X482410Y941037D01*
D02*
G37*
G36*
X457010D02*
X454389Y940692D01*
X451947Y939680D01*
X449849Y938071D01*
X448240Y935973D01*
X447228Y933531D01*
X446883Y930910D01*
X447228Y928289D01*
X447717Y927110D01*
X372063Y851457D01*
X371965Y851310D01*
X370695Y851695D01*
Y864501D01*
X427810Y921617D01*
X428989Y921128D01*
X431610Y920783D01*
X434231Y921128D01*
X436673Y922140D01*
X438771Y923749D01*
X440380Y925847D01*
X441391Y928289D01*
X441737Y930910D01*
X441391Y933531D01*
X440380Y935973D01*
X438771Y938071D01*
X436673Y939680D01*
X434231Y940692D01*
X431610Y941037D01*
X428989Y940692D01*
X426547Y939680D01*
X424449Y938071D01*
X422840Y935973D01*
X421828Y933531D01*
X421483Y930910D01*
X421828Y928289D01*
X422317Y927110D01*
X364063Y868857D01*
X363221Y867597D01*
X362925Y866110D01*
Y817319D01*
X348844Y803238D01*
X348170Y803517D01*
X345810Y803828D01*
X343450Y803517D01*
X341251Y802606D01*
X339363Y801157D01*
X337914Y799269D01*
X337003Y797070D01*
X336692Y794710D01*
X337003Y792350D01*
X337914Y790151D01*
X339363Y788263D01*
X341251Y786814D01*
X343450Y785903D01*
X345810Y785592D01*
X348170Y785903D01*
X350369Y786814D01*
X352257Y788263D01*
X353706Y790151D01*
X354617Y792350D01*
X354928Y794710D01*
X354617Y797070D01*
X354338Y797744D01*
X369557Y812963D01*
X369655Y813111D01*
X370925Y812725D01*
Y802886D01*
X370251Y802606D01*
X368363Y801157D01*
X366914Y799269D01*
X366003Y797070D01*
X365692Y794710D01*
X366003Y792350D01*
X366914Y790151D01*
X368363Y788263D01*
X370251Y786814D01*
X372450Y785903D01*
X374810Y785592D01*
X377170Y785903D01*
X379369Y786814D01*
X381257Y788263D01*
X382706Y790151D01*
X383617Y792350D01*
X383928Y794710D01*
X383617Y797070D01*
X382706Y799269D01*
X381257Y801157D01*
X379369Y802606D01*
X378695Y802886D01*
Y847101D01*
X453210Y921617D01*
X454389Y921128D01*
X457010Y920783D01*
X459631Y921128D01*
X462073Y922140D01*
X464171Y923749D01*
X465780Y925847D01*
X466791Y928289D01*
X467137Y930910D01*
X466791Y933531D01*
X465780Y935973D01*
X464171Y938071D01*
X462073Y939680D01*
X459631Y940692D01*
X457010Y941037D01*
D02*
G37*
G36*
X406210D02*
X403589Y940692D01*
X401147Y939680D01*
X399049Y938071D01*
X397440Y935973D01*
X396428Y933531D01*
X396083Y930910D01*
X396428Y928289D01*
X397440Y925847D01*
X399049Y923749D01*
X401147Y922140D01*
X403589Y921128D01*
X406210Y920783D01*
X408831Y921128D01*
X411273Y922140D01*
X413371Y923749D01*
X414980Y925847D01*
X415992Y928289D01*
X416337Y930910D01*
X415992Y933531D01*
X414980Y935973D01*
X413371Y938071D01*
X411273Y939680D01*
X408831Y940692D01*
X406210Y941037D01*
D02*
G37*
G36*
X337080Y894765D02*
Y886580D01*
X345265D01*
X345104Y887801D01*
X344143Y890121D01*
X342614Y892114D01*
X340621Y893643D01*
X338300Y894604D01*
X337080Y894765D01*
D02*
G37*
G36*
X334540D02*
X333320Y894604D01*
X330999Y893643D01*
X329006Y892114D01*
X327477Y890121D01*
X326516Y887801D01*
X326355Y886580D01*
X334540D01*
Y894765D01*
D02*
G37*
G36*
X289080Y906835D02*
Y880580D01*
X315335D01*
X315095Y883632D01*
X314083Y887847D01*
X312424Y891852D01*
X310159Y895548D01*
X307344Y898844D01*
X304048Y901659D01*
X300352Y903924D01*
X296347Y905583D01*
X292132Y906595D01*
X289080Y906835D01*
D02*
G37*
G36*
X659080D02*
Y880580D01*
X685335D01*
X685095Y883632D01*
X684083Y887847D01*
X682424Y891852D01*
X680159Y895548D01*
X677344Y898844D01*
X674048Y901659D01*
X670351Y903924D01*
X666347Y905583D01*
X662132Y906595D01*
X659080Y906835D01*
D02*
G37*
G36*
X656540D02*
X653488Y906595D01*
X649273Y905583D01*
X645268Y903924D01*
X641572Y901659D01*
X638276Y898844D01*
X635461Y895548D01*
X633196Y891852D01*
X631537Y887847D01*
X630525Y883632D01*
X630285Y880580D01*
X656540D01*
Y906835D01*
D02*
G37*
G36*
X345265Y884040D02*
X337080D01*
Y875855D01*
X338300Y876016D01*
X340621Y876977D01*
X342614Y878506D01*
X344143Y880499D01*
X345104Y882820D01*
X345265Y884040D01*
D02*
G37*
G36*
X334540D02*
X326355D01*
X326516Y882820D01*
X327477Y880499D01*
X329006Y878506D01*
X330999Y876977D01*
X333320Y876016D01*
X334540Y875855D01*
Y884040D01*
D02*
G37*
G36*
X697060Y861973D02*
X694580D01*
Y853080D01*
X703473D01*
Y855560D01*
X702985Y858014D01*
X701595Y860095D01*
X699514Y861485D01*
X697060Y861973D01*
D02*
G37*
G36*
X692040D02*
X689560D01*
X687106Y861485D01*
X685025Y860095D01*
X683635Y858014D01*
X683147Y855560D01*
Y853080D01*
X692040D01*
Y861973D01*
D02*
G37*
G36*
X685335Y878040D02*
X659080D01*
Y851785D01*
X662132Y852025D01*
X666347Y853037D01*
X670351Y854696D01*
X674048Y856961D01*
X677344Y859776D01*
X680159Y863072D01*
X682424Y866768D01*
X684083Y870773D01*
X685095Y874988D01*
X685335Y878040D01*
D02*
G37*
G36*
X315335Y878040D02*
X289080D01*
Y851785D01*
X292132Y852025D01*
X296347Y853037D01*
X300352Y854696D01*
X304048Y856961D01*
X307344Y859776D01*
X310159Y863072D01*
X312424Y866768D01*
X314083Y870773D01*
X315095Y874988D01*
X315335Y878040D01*
D02*
G37*
G36*
X656540Y878040D02*
X630285D01*
X630525Y874988D01*
X631537Y870773D01*
X633196Y866768D01*
X635461Y863072D01*
X638276Y859776D01*
X641572Y856961D01*
X645268Y854696D01*
X649273Y853037D01*
X653488Y852025D01*
X656540Y851785D01*
Y878040D01*
D02*
G37*
G36*
X703473Y850540D02*
X694580D01*
Y841647D01*
X697060D01*
X699514Y842135D01*
X701595Y843525D01*
X702985Y845606D01*
X703473Y848060D01*
Y850540D01*
D02*
G37*
G36*
X692040D02*
X683147D01*
Y848060D01*
X683635Y845606D01*
X685025Y843525D01*
X687106Y842135D01*
X689560Y841647D01*
X692040D01*
Y850540D01*
D02*
G37*
G36*
X533210Y941037D02*
X530589Y940692D01*
X528147Y939680D01*
X526049Y938071D01*
X524440Y935973D01*
X523428Y933531D01*
X523083Y930910D01*
X523428Y928289D01*
X524440Y925847D01*
X526049Y923749D01*
X528147Y922140D01*
X530589Y921128D01*
X533210Y920783D01*
X535831Y921128D01*
X537010Y921617D01*
X540635Y917991D01*
Y837868D01*
X539365Y837242D01*
X538273Y838080D01*
X535831Y839092D01*
X533210Y839437D01*
X530589Y839092D01*
X528147Y838080D01*
X526049Y836471D01*
X524440Y834373D01*
X523428Y831931D01*
X523083Y829310D01*
X523428Y826689D01*
X524440Y824247D01*
X526049Y822149D01*
X528147Y820540D01*
X530589Y819528D01*
X533210Y819183D01*
X535831Y819528D01*
X538273Y820540D01*
X539365Y821378D01*
X540635Y820752D01*
Y804780D01*
X539251Y804206D01*
X537363Y802757D01*
X535914Y800869D01*
X535003Y798670D01*
X534692Y796310D01*
X535003Y793950D01*
X535914Y791751D01*
X537363Y789863D01*
X539251Y788414D01*
X541450Y787503D01*
X543810Y787192D01*
X546170Y787503D01*
X548369Y788414D01*
X550257Y789863D01*
X551706Y791751D01*
X552617Y793950D01*
X552928Y796310D01*
X552617Y798670D01*
X551706Y800869D01*
X550257Y802757D01*
X548405Y804179D01*
Y919600D01*
X548109Y921087D01*
X547267Y922347D01*
X542503Y927110D01*
X542991Y928289D01*
X543337Y930910D01*
X542991Y933531D01*
X541980Y935973D01*
X540371Y938071D01*
X538273Y939680D01*
X535831Y940692D01*
X533210Y941037D01*
D02*
G37*
G36*
X286560Y844973D02*
X284080D01*
Y836080D01*
X292973D01*
Y838560D01*
X292485Y841014D01*
X291095Y843095D01*
X289014Y844485D01*
X286560Y844973D01*
D02*
G37*
G36*
X281540D02*
X279060D01*
X276606Y844485D01*
X274525Y843095D01*
X273135Y841014D01*
X272647Y838560D01*
Y836080D01*
X281540D01*
Y844973D01*
D02*
G37*
G36*
X313560Y845473D02*
X306060D01*
X303606Y844985D01*
X301525Y843595D01*
X300135Y841514D01*
X299647Y839060D01*
Y831560D01*
X300135Y829106D01*
X301525Y827025D01*
X303606Y825635D01*
X306060Y825147D01*
X306125D01*
Y813727D01*
X304895Y813217D01*
X302693Y811527D01*
X301003Y809325D01*
X299941Y806761D01*
X299579Y804010D01*
X299941Y801258D01*
X301003Y798695D01*
X302693Y796493D01*
X304895Y794803D01*
X307458Y793741D01*
X310210Y793379D01*
X312962Y793741D01*
X315525Y794803D01*
X317727Y796493D01*
X319417Y798695D01*
X320479Y801258D01*
X320841Y804010D01*
X320479Y806761D01*
X319417Y809325D01*
X317727Y811527D01*
X315525Y813217D01*
X313895Y813892D01*
Y825213D01*
X316014Y825635D01*
X318095Y827025D01*
X319485Y829106D01*
X319946Y831425D01*
X327093D01*
X327477Y830499D01*
X329006Y828506D01*
X330999Y826977D01*
X333320Y826015D01*
X335810Y825688D01*
X338300Y826015D01*
X340621Y826977D01*
X342614Y828506D01*
X344143Y830499D01*
X345104Y832820D01*
X345432Y835310D01*
X345104Y837800D01*
X344143Y840121D01*
X342614Y842114D01*
X340621Y843643D01*
X338300Y844604D01*
X335810Y844932D01*
X333320Y844604D01*
X330999Y843643D01*
X329006Y842114D01*
X327477Y840121D01*
X327093Y839195D01*
X319946D01*
X319485Y841514D01*
X318095Y843595D01*
X316014Y844985D01*
X313560Y845473D01*
D02*
G37*
G36*
X292973Y833540D02*
X284080D01*
Y824647D01*
X286560D01*
X289014Y825135D01*
X291095Y826525D01*
X292485Y828606D01*
X292973Y831060D01*
Y833540D01*
D02*
G37*
G36*
X281540D02*
X272647D01*
Y831060D01*
X273135Y828606D01*
X274525Y826525D01*
X276606Y825135D01*
X279060Y824647D01*
X281540D01*
Y833540D01*
D02*
G37*
G36*
X669230Y809011D02*
Y801330D01*
X676911D01*
X676767Y802420D01*
X675856Y804619D01*
X674407Y806507D01*
X672519Y807956D01*
X670320Y808867D01*
X669230Y809011D01*
D02*
G37*
G36*
X666690Y809011D02*
X665600Y808867D01*
X663401Y807956D01*
X661513Y806507D01*
X660064Y804619D01*
X659153Y802420D01*
X659009Y801330D01*
X666690D01*
Y809011D01*
D02*
G37*
G36*
X286080Y801774D02*
Y792580D01*
X295274D01*
X295079Y794062D01*
X294017Y796626D01*
X292327Y798827D01*
X290126Y800517D01*
X287561Y801579D01*
X286080Y801774D01*
D02*
G37*
G36*
X283540Y801774D02*
X282059Y801579D01*
X279494Y800517D01*
X277293Y798827D01*
X275603Y796626D01*
X274541Y794062D01*
X274346Y792580D01*
X283540D01*
Y801774D01*
D02*
G37*
G36*
X591560Y801187D02*
X591330D01*
Y792330D01*
X601519D01*
X601342Y793681D01*
X600330Y796123D01*
X598721Y798221D01*
X596623Y799830D01*
X594181Y800842D01*
X591560Y801187D01*
D02*
G37*
G36*
X588790D02*
X588560D01*
X585939Y800842D01*
X583497Y799830D01*
X581399Y798221D01*
X579790Y796123D01*
X578778Y793681D01*
X578601Y792330D01*
X588790D01*
Y801187D01*
D02*
G37*
G36*
X692810Y836432D02*
X690320Y836104D01*
X687999Y835143D01*
X686006Y833614D01*
X684477Y831621D01*
X683515Y829300D01*
X683188Y826810D01*
X683515Y824320D01*
X684477Y821999D01*
X686006Y820006D01*
X687999Y818477D01*
X688925Y818093D01*
Y811397D01*
X686856Y810985D01*
X684775Y809595D01*
X683385Y807514D01*
X682897Y805060D01*
Y797560D01*
X683385Y795106D01*
X684775Y793025D01*
X686856Y791635D01*
X689310Y791147D01*
X696810D01*
X699264Y791635D01*
X701345Y793025D01*
X702735Y795106D01*
X703223Y797560D01*
Y805060D01*
X702735Y807514D01*
X701345Y809595D01*
X699264Y810985D01*
X696810Y811473D01*
X696695D01*
Y818093D01*
X697621Y818477D01*
X699614Y820006D01*
X701143Y821999D01*
X702104Y824320D01*
X702432Y826810D01*
X702104Y829300D01*
X701143Y831621D01*
X699614Y833614D01*
X697621Y835143D01*
X695300Y836104D01*
X692810Y836432D01*
D02*
G37*
G36*
X676911Y798790D02*
X669230D01*
Y791109D01*
X670320Y791253D01*
X672519Y792164D01*
X674407Y793613D01*
X675856Y795501D01*
X676767Y797700D01*
X676911Y798790D01*
D02*
G37*
G36*
X666690D02*
X659009D01*
X659153Y797700D01*
X660064Y795501D01*
X661513Y793613D01*
X663401Y792164D01*
X665600Y791253D01*
X666690Y791109D01*
Y798790D01*
D02*
G37*
G36*
X507810Y839437D02*
X505189Y839092D01*
X502747Y838080D01*
X500649Y836471D01*
X499040Y834373D01*
X498028Y831931D01*
X497683Y829310D01*
X498028Y826689D01*
X499040Y824247D01*
X500649Y822149D01*
X502747Y820540D01*
X503925Y820052D01*
Y803891D01*
X504221Y802404D01*
X505063Y801144D01*
X506452Y799755D01*
X506003Y798670D01*
X505692Y796310D01*
X506003Y793950D01*
X506914Y791751D01*
X508363Y789863D01*
X510251Y788414D01*
X512450Y787503D01*
X514810Y787192D01*
X517170Y787503D01*
X519369Y788414D01*
X521257Y789863D01*
X522706Y791751D01*
X523617Y793950D01*
X523928Y796310D01*
X523617Y798670D01*
X522706Y800869D01*
X521257Y802757D01*
X519369Y804206D01*
X517170Y805117D01*
X514810Y805428D01*
X512827Y805167D01*
X511915Y805867D01*
X511695Y806176D01*
Y820052D01*
X512873Y820540D01*
X514971Y822149D01*
X516580Y824247D01*
X517592Y826689D01*
X517937Y829310D01*
X517592Y831931D01*
X516580Y834373D01*
X514971Y836471D01*
X512873Y838080D01*
X510431Y839092D01*
X507810Y839437D01*
D02*
G37*
G36*
X482410D02*
X479789Y839092D01*
X477347Y838080D01*
X475249Y836471D01*
X473640Y834373D01*
X472628Y831931D01*
X472283Y829310D01*
X472628Y826689D01*
X473640Y824247D01*
X475249Y822149D01*
X477347Y820540D01*
X478525Y820052D01*
Y812710D01*
X478821Y811223D01*
X479663Y809963D01*
X481715Y807911D01*
Y803799D01*
X481251Y803606D01*
X479363Y802157D01*
X477914Y800269D01*
X477003Y798070D01*
X476692Y795710D01*
X477003Y793350D01*
X477914Y791151D01*
X479363Y789263D01*
X481251Y787814D01*
X483450Y786903D01*
X485810Y786592D01*
X488170Y786903D01*
X490369Y787814D01*
X492257Y789263D01*
X493706Y791151D01*
X494617Y793350D01*
X494928Y795710D01*
X494617Y798070D01*
X493706Y800269D01*
X492257Y802157D01*
X490369Y803606D01*
X489485Y803973D01*
Y809520D01*
X489189Y811007D01*
X488347Y812267D01*
X486295Y814319D01*
Y820052D01*
X487473Y820540D01*
X489571Y822149D01*
X491180Y824247D01*
X492192Y826689D01*
X492537Y829310D01*
X492192Y831931D01*
X491180Y834373D01*
X489571Y836471D01*
X487473Y838080D01*
X485031Y839092D01*
X482410Y839437D01*
D02*
G37*
G36*
X457010D02*
X454389Y839092D01*
X451947Y838080D01*
X449849Y836471D01*
X448240Y834373D01*
X447228Y831931D01*
X446883Y829310D01*
X447228Y826689D01*
X448240Y824247D01*
X449849Y822149D01*
X451947Y820540D01*
X454025Y819679D01*
Y803033D01*
X452363Y801757D01*
X450914Y799869D01*
X450003Y797670D01*
X449692Y795310D01*
X450003Y792950D01*
X450914Y790751D01*
X452363Y788863D01*
X454251Y787414D01*
X456450Y786503D01*
X458810Y786192D01*
X461170Y786503D01*
X463369Y787414D01*
X465257Y788863D01*
X466706Y790751D01*
X467617Y792950D01*
X467928Y795310D01*
X467617Y797670D01*
X466706Y799869D01*
X465257Y801757D01*
X463369Y803206D01*
X461795Y803858D01*
Y820425D01*
X462073Y820540D01*
X464171Y822149D01*
X465780Y824247D01*
X466791Y826689D01*
X467137Y829310D01*
X466791Y831931D01*
X465780Y834373D01*
X464171Y836471D01*
X462073Y838080D01*
X459631Y839092D01*
X457010Y839437D01*
D02*
G37*
G36*
X431610D02*
X428989Y839092D01*
X426547Y838080D01*
X424449Y836471D01*
X422840Y834373D01*
X421828Y831931D01*
X421483Y829310D01*
X421828Y826689D01*
X422840Y824247D01*
X424449Y822149D01*
X426547Y820540D01*
X427725Y820052D01*
Y803817D01*
X426251Y803206D01*
X424363Y801757D01*
X422914Y799869D01*
X422003Y797670D01*
X421692Y795310D01*
X422003Y792950D01*
X422914Y790751D01*
X424363Y788863D01*
X426251Y787414D01*
X428450Y786503D01*
X430810Y786192D01*
X433170Y786503D01*
X435369Y787414D01*
X437257Y788863D01*
X438706Y790751D01*
X439617Y792950D01*
X439928Y795310D01*
X439617Y797670D01*
X438706Y799869D01*
X437257Y801757D01*
X435495Y803110D01*
Y820052D01*
X436673Y820540D01*
X438771Y822149D01*
X440380Y824247D01*
X441391Y826689D01*
X441737Y829310D01*
X441391Y831931D01*
X440380Y834373D01*
X438771Y836471D01*
X436673Y838080D01*
X434231Y839092D01*
X431610Y839437D01*
D02*
G37*
G36*
X406210D02*
X403589Y839092D01*
X401147Y838080D01*
X399049Y836471D01*
X397440Y834373D01*
X396428Y831931D01*
X396083Y829310D01*
X396428Y826689D01*
X397440Y824247D01*
X399049Y822149D01*
X401147Y820540D01*
X401368Y820448D01*
X401666Y818950D01*
X400063Y817347D01*
X399221Y816087D01*
X398925Y814600D01*
Y801486D01*
X398251Y801206D01*
X396363Y799757D01*
X394914Y797869D01*
X394003Y795670D01*
X393692Y793310D01*
X394003Y790950D01*
X394914Y788751D01*
X396363Y786863D01*
X398251Y785414D01*
X400450Y784503D01*
X402810Y784192D01*
X405170Y784503D01*
X407369Y785414D01*
X409257Y786863D01*
X410706Y788751D01*
X411617Y790950D01*
X411928Y793310D01*
X411617Y795670D01*
X410706Y797869D01*
X409257Y799757D01*
X407369Y801206D01*
X406695Y801486D01*
Y812991D01*
X408957Y815253D01*
X409799Y816513D01*
X410095Y818000D01*
Y820052D01*
X411273Y820540D01*
X413371Y822149D01*
X414980Y824247D01*
X415992Y826689D01*
X416337Y829310D01*
X415992Y831931D01*
X414980Y834373D01*
X413371Y836471D01*
X411273Y838080D01*
X408831Y839092D01*
X406210Y839437D01*
D02*
G37*
G36*
X295274Y790040D02*
X286080D01*
Y780846D01*
X287561Y781041D01*
X290126Y782103D01*
X292327Y783793D01*
X294017Y785994D01*
X295079Y788559D01*
X295274Y790040D01*
D02*
G37*
G36*
X283540D02*
X274346D01*
X274541Y788559D01*
X275603Y785994D01*
X277293Y783793D01*
X279494Y782103D01*
X282059Y781041D01*
X283540Y780846D01*
Y790040D01*
D02*
G37*
G36*
X693580Y785911D02*
Y778230D01*
X701261D01*
X701117Y779320D01*
X700207Y781519D01*
X698757Y783407D01*
X696869Y784856D01*
X694670Y785767D01*
X693580Y785911D01*
D02*
G37*
G36*
X691040Y785911D02*
X689950Y785767D01*
X687751Y784856D01*
X685863Y783407D01*
X684414Y781519D01*
X683503Y779320D01*
X683359Y778230D01*
X691040D01*
Y785911D01*
D02*
G37*
G36*
X701261Y775690D02*
X693580D01*
Y768009D01*
X694670Y768153D01*
X696869Y769063D01*
X698757Y770512D01*
X700207Y772401D01*
X701117Y774600D01*
X701261Y775690D01*
D02*
G37*
G36*
X691040D02*
X683359D01*
X683503Y774600D01*
X684414Y772401D01*
X685863Y770512D01*
X687751Y769063D01*
X689950Y768153D01*
X691040Y768009D01*
Y775690D01*
D02*
G37*
G36*
X310210Y789241D02*
X307458Y788879D01*
X304895Y787817D01*
X302693Y786127D01*
X301003Y783925D01*
X299941Y781361D01*
X299579Y778610D01*
X299941Y775859D01*
X301003Y773295D01*
X302693Y771093D01*
X304895Y769403D01*
X307458Y768341D01*
X310210Y767979D01*
X312962Y768341D01*
X315525Y769403D01*
X317727Y771093D01*
X319417Y773295D01*
X320479Y775859D01*
X320841Y778610D01*
X320479Y781361D01*
X319417Y783925D01*
X317727Y786127D01*
X315525Y787817D01*
X312962Y788879D01*
X310210Y789241D01*
D02*
G37*
G36*
X286218Y771893D02*
Y763708D01*
X294403D01*
X294243Y764929D01*
X293281Y767249D01*
X291752Y769242D01*
X289760Y770771D01*
X287439Y771732D01*
X286218Y771893D01*
D02*
G37*
G36*
X283678D02*
X282458Y771732D01*
X280137Y770771D01*
X278144Y769242D01*
X276615Y767249D01*
X275654Y764929D01*
X275493Y763708D01*
X283678D01*
Y771893D01*
D02*
G37*
G36*
X642810Y836432D02*
X640320Y836104D01*
X637999Y835143D01*
X636006Y833614D01*
X634477Y831621D01*
X633516Y829300D01*
X633188Y826810D01*
X633516Y824320D01*
X634477Y821999D01*
X636006Y820006D01*
X637999Y818477D01*
X638876Y818113D01*
X638820Y808296D01*
X638001Y807956D01*
X636113Y806507D01*
X634664Y804619D01*
X633753Y802420D01*
X633442Y800060D01*
X633753Y797700D01*
X634664Y795501D01*
X636113Y793613D01*
X638001Y792164D01*
X638727Y791863D01*
X638681Y783782D01*
X637195Y783167D01*
X634993Y781477D01*
X633303Y779276D01*
X632241Y776712D01*
X631879Y773960D01*
X632241Y771208D01*
X633303Y768644D01*
X634993Y766443D01*
X637195Y764753D01*
X639758Y763691D01*
X642510Y763329D01*
X645262Y763691D01*
X647825Y764753D01*
X650027Y766443D01*
X651717Y768644D01*
X652779Y771208D01*
X653141Y773960D01*
X652779Y776712D01*
X651717Y779276D01*
X650027Y781477D01*
X647825Y783167D01*
X646450Y783736D01*
X646497Y791906D01*
X647119Y792164D01*
X649007Y793613D01*
X650456Y795501D01*
X651367Y797700D01*
X651678Y800060D01*
X651367Y802420D01*
X650456Y804619D01*
X649007Y806507D01*
X647119Y807956D01*
X646589Y808176D01*
X646645Y818073D01*
X647621Y818477D01*
X649614Y820006D01*
X651143Y821999D01*
X652104Y824320D01*
X652432Y826810D01*
X652104Y829300D01*
X651143Y831621D01*
X649614Y833614D01*
X647621Y835143D01*
X645300Y836104D01*
X642810Y836432D01*
D02*
G37*
G36*
X601519Y789790D02*
X590060D01*
X578601D01*
X578778Y788439D01*
X579790Y785997D01*
X581399Y783899D01*
X583497Y782290D01*
X584807Y781747D01*
Y780373D01*
X583497Y779830D01*
X581399Y778221D01*
X579790Y776123D01*
X578778Y773681D01*
X578433Y771060D01*
X578778Y768439D01*
X579790Y765997D01*
X581399Y763899D01*
X583497Y762290D01*
X585939Y761278D01*
X586175Y761247D01*
Y752505D01*
X532694D01*
X532168Y753775D01*
X540776Y762382D01*
X541450Y762103D01*
X543810Y761792D01*
X546170Y762103D01*
X548369Y763014D01*
X550257Y764463D01*
X551706Y766351D01*
X552617Y768550D01*
X552928Y770910D01*
X552617Y773270D01*
X551706Y775469D01*
X550257Y777357D01*
X548369Y778806D01*
X546170Y779717D01*
X543810Y780028D01*
X541450Y779717D01*
X539251Y778806D01*
X537363Y777357D01*
X535914Y775469D01*
X535003Y773270D01*
X534692Y770910D01*
X535003Y768550D01*
X535282Y767876D01*
X524991Y757585D01*
X508638D01*
X508152Y758758D01*
X511776Y762382D01*
X512450Y762103D01*
X514810Y761792D01*
X517170Y762103D01*
X519369Y763014D01*
X521257Y764463D01*
X522706Y766351D01*
X523617Y768550D01*
X523928Y770910D01*
X523617Y773270D01*
X522706Y775469D01*
X521257Y777357D01*
X519369Y778806D01*
X517170Y779717D01*
X514810Y780028D01*
X512450Y779717D01*
X510251Y778806D01*
X508363Y777357D01*
X506914Y775469D01*
X506003Y773270D01*
X505692Y770910D01*
X506003Y768550D01*
X506282Y767876D01*
X501071Y762665D01*
X492664D01*
X492393Y763463D01*
X492313Y763935D01*
X493706Y765751D01*
X494617Y767950D01*
X494928Y770310D01*
X494617Y772670D01*
X493706Y774869D01*
X492257Y776757D01*
X490369Y778206D01*
X488170Y779117D01*
X485810Y779428D01*
X483450Y779117D01*
X481251Y778206D01*
X479363Y776757D01*
X477914Y774869D01*
X477003Y772670D01*
X476692Y770310D01*
X477003Y767950D01*
X477914Y765751D01*
X479307Y763935D01*
X479227Y763463D01*
X478956Y762665D01*
X466222D01*
X465620Y763935D01*
X466706Y765351D01*
X467617Y767550D01*
X467928Y769910D01*
X467617Y772270D01*
X466706Y774469D01*
X465257Y776357D01*
X463369Y777806D01*
X461170Y778717D01*
X458810Y779028D01*
X456450Y778717D01*
X454251Y777806D01*
X452363Y776357D01*
X450914Y774469D01*
X450003Y772270D01*
X449692Y769910D01*
X450003Y767550D01*
X450914Y765351D01*
X452016Y763914D01*
X452021Y763772D01*
X451591Y762624D01*
X451530Y762558D01*
X450578Y762369D01*
X449318Y761527D01*
X445236Y757445D01*
X411833D01*
X410583Y757489D01*
X410583Y757489D01*
X410583Y757489D01*
X408134Y757002D01*
X406050Y755609D01*
X406076Y755583D01*
X406074Y755568D01*
X396934Y746428D01*
X395239Y747130D01*
X393010Y747424D01*
X390781Y747130D01*
X388703Y746270D01*
X386919Y744901D01*
X385550Y743117D01*
X384690Y741039D01*
X384396Y738810D01*
Y725810D01*
X384690Y723581D01*
X385550Y721503D01*
X386919Y719719D01*
X388703Y718350D01*
X390781Y717490D01*
X393010Y717196D01*
X395239Y717490D01*
X397317Y718350D01*
X399101Y719719D01*
X400470Y721503D01*
X401330Y723581D01*
X401624Y725810D01*
Y738810D01*
X401470Y739976D01*
X411169Y749675D01*
X446845D01*
X447520Y749810D01*
X448145Y748639D01*
X446462Y746955D01*
X446039Y747130D01*
X443810Y747424D01*
X441581Y747130D01*
X439503Y746270D01*
X437719Y744901D01*
X436350Y743117D01*
X435490Y741039D01*
X435196Y738810D01*
Y725810D01*
X435490Y723581D01*
X436350Y721503D01*
X437719Y719719D01*
X439503Y718350D01*
X441581Y717490D01*
X443810Y717196D01*
X446039Y717490D01*
X448117Y718350D01*
X449901Y719719D01*
X451270Y721503D01*
X452130Y723581D01*
X452424Y725810D01*
Y738810D01*
X452130Y741039D01*
X451955Y741462D01*
X460309Y749815D01*
X473062D01*
X473548Y748642D01*
X471862Y746955D01*
X471439Y747130D01*
X469210Y747424D01*
X466981Y747130D01*
X464903Y746270D01*
X463119Y744901D01*
X461750Y743117D01*
X460890Y741039D01*
X460596Y738810D01*
Y725810D01*
X460890Y723581D01*
X461750Y721503D01*
X463119Y719719D01*
X464903Y718350D01*
X466981Y717490D01*
X469210Y717196D01*
X471439Y717490D01*
X473517Y718350D01*
X475301Y719719D01*
X476670Y721503D01*
X477530Y723581D01*
X477824Y725810D01*
Y738810D01*
X477530Y741039D01*
X477355Y741462D01*
X480629Y744735D01*
X486956D01*
X487518Y743596D01*
X487150Y743117D01*
X486290Y741039D01*
X485996Y738810D01*
Y725990D01*
X461201Y701195D01*
X343019D01*
X332881Y711333D01*
X333174Y713560D01*
X332880Y715789D01*
X332020Y717867D01*
X330651Y719651D01*
X328867Y721020D01*
X326789Y721880D01*
X324560Y722174D01*
X322331Y721880D01*
X320253Y721020D01*
X318469Y719651D01*
X317100Y717867D01*
X316240Y715789D01*
X315946Y713560D01*
X316240Y711331D01*
X317100Y709253D01*
X318469Y707469D01*
X320253Y706100D01*
X322331Y705240D01*
X324560Y704946D01*
X326789Y705240D01*
X327636Y705590D01*
X338663Y694563D01*
X339923Y693721D01*
X341410Y693425D01*
X346836D01*
X347362Y692155D01*
X327141Y671935D01*
X326789Y672080D01*
X324560Y672374D01*
X322331Y672080D01*
X320253Y671220D01*
X318469Y669851D01*
X317100Y668067D01*
X316240Y665989D01*
X315946Y663760D01*
X316240Y661531D01*
X317100Y659453D01*
X318469Y657669D01*
X320253Y656300D01*
X322331Y655440D01*
X324560Y655146D01*
X326789Y655440D01*
X328867Y656300D01*
X330651Y657669D01*
X332020Y659453D01*
X332880Y661531D01*
X333174Y663760D01*
X332880Y665989D01*
X332676Y666482D01*
X353619Y687425D01*
X479743D01*
X479743Y687425D01*
Y687376D01*
X482127Y687850D01*
X482417Y687831D01*
X483397Y687307D01*
Y682810D01*
X483885Y680356D01*
X485275Y678275D01*
X487356Y676885D01*
X489810Y676397D01*
X497310D01*
X499764Y676885D01*
X501845Y678275D01*
X503235Y680356D01*
X503723Y682810D01*
Y690310D01*
X503235Y692764D01*
X501845Y694845D01*
X499764Y696235D01*
X497310Y696723D01*
X493538D01*
X493100Y697916D01*
X516719Y717930D01*
X517781Y717490D01*
X520010Y717196D01*
X522239Y717490D01*
X524317Y718350D01*
X526101Y719719D01*
X527470Y721503D01*
X528330Y723581D01*
X528624Y725810D01*
Y738810D01*
X528330Y741039D01*
X527470Y743117D01*
X527102Y743596D01*
X527663Y744735D01*
X537757D01*
X538318Y743596D01*
X537950Y743117D01*
X537090Y741039D01*
X536796Y738810D01*
Y725810D01*
X537090Y723581D01*
X537950Y721503D01*
X539319Y719719D01*
X541103Y718350D01*
X543181Y717490D01*
X545410Y717196D01*
X547639Y717490D01*
X549717Y718350D01*
X551501Y719719D01*
X552870Y721503D01*
X553730Y723581D01*
X554024Y725810D01*
Y738810D01*
X553730Y741039D01*
X552870Y743117D01*
X552502Y743596D01*
X553064Y744735D01*
X563157D01*
X563718Y743596D01*
X563350Y743117D01*
X562490Y741039D01*
X562196Y738810D01*
Y725810D01*
X562490Y723581D01*
X563350Y721503D01*
X564719Y719719D01*
X566503Y718350D01*
X568581Y717490D01*
X570810Y717196D01*
X573039Y717490D01*
X575117Y718350D01*
X576901Y719719D01*
X578270Y721503D01*
X579130Y723581D01*
X579424Y725810D01*
Y738810D01*
X579130Y741039D01*
X578270Y743117D01*
X577902Y743596D01*
X578464Y744735D01*
X591541D01*
X592863Y743013D01*
X594751Y741564D01*
X596950Y740653D01*
X599310Y740342D01*
X601670Y740653D01*
X603869Y741564D01*
X605757Y743013D01*
X607206Y744901D01*
X607369Y745294D01*
X619898Y744948D01*
X620603Y743244D01*
X622293Y741043D01*
X623586Y740050D01*
X618242Y719476D01*
X617319Y719354D01*
X614999Y718393D01*
X613006Y716864D01*
X611477Y714871D01*
X610516Y712550D01*
X610188Y710060D01*
X610516Y707570D01*
X611477Y705249D01*
X613006Y703256D01*
X614999Y701727D01*
X617319Y700766D01*
X619810Y700438D01*
X622300Y700766D01*
X624621Y701727D01*
X626614Y703256D01*
X628143Y705249D01*
X629104Y707570D01*
X629432Y710060D01*
X629104Y712550D01*
X628143Y714871D01*
X626614Y716864D01*
X625761Y717519D01*
X631107Y738100D01*
X632561Y738291D01*
X635126Y739353D01*
X637327Y741043D01*
X639017Y743244D01*
X640079Y745808D01*
X640441Y748560D01*
X640079Y751311D01*
X639017Y753876D01*
X637327Y756077D01*
X635126Y757767D01*
X632561Y758829D01*
X629810Y759191D01*
X627058Y758829D01*
X624495Y757767D01*
X622293Y756077D01*
X620603Y753876D01*
X620122Y752714D01*
X607603Y753060D01*
X607206Y754019D01*
X605757Y755907D01*
X603869Y757356D01*
X601670Y758267D01*
X599310Y758578D01*
X596950Y758267D01*
X595215Y757548D01*
X593945Y758209D01*
Y761247D01*
X594181Y761278D01*
X596623Y762290D01*
X598721Y763899D01*
X600330Y765997D01*
X601342Y768439D01*
X601687Y771060D01*
X601342Y773681D01*
X600330Y776123D01*
X598721Y778221D01*
X596623Y779830D01*
X595313Y780373D01*
Y781747D01*
X596623Y782290D01*
X598721Y783899D01*
X600330Y785997D01*
X601342Y788439D01*
X601519Y789790D01*
D02*
G37*
G36*
X430810Y779028D02*
X428450Y778717D01*
X426251Y777806D01*
X424363Y776357D01*
X422914Y774469D01*
X422003Y772270D01*
X421692Y769910D01*
X422003Y767550D01*
X422914Y765351D01*
X424363Y763463D01*
X426251Y762014D01*
X428450Y761103D01*
X430810Y760792D01*
X433170Y761103D01*
X435369Y762014D01*
X437257Y763463D01*
X438706Y765351D01*
X439617Y767550D01*
X439928Y769910D01*
X439617Y772270D01*
X438706Y774469D01*
X437257Y776357D01*
X435369Y777806D01*
X433170Y778717D01*
X430810Y779028D01*
D02*
G37*
G36*
X374810Y778428D02*
X372450Y778117D01*
X370251Y777206D01*
X368363Y775757D01*
X366914Y773869D01*
X366003Y771670D01*
X365692Y769310D01*
X366003Y766950D01*
X366914Y764751D01*
X368363Y762863D01*
X370251Y761414D01*
X372450Y760503D01*
X374810Y760192D01*
X377170Y760503D01*
X379369Y761414D01*
X381257Y762863D01*
X382706Y764751D01*
X383617Y766950D01*
X383928Y769310D01*
X383617Y771670D01*
X382706Y773869D01*
X381257Y775757D01*
X379369Y777206D01*
X377170Y778117D01*
X374810Y778428D01*
D02*
G37*
G36*
X402810Y777028D02*
X400450Y776717D01*
X398251Y775806D01*
X396363Y774357D01*
X394914Y772469D01*
X394003Y770270D01*
X393692Y767910D01*
X394003Y765550D01*
X394914Y763351D01*
X396363Y761463D01*
X398251Y760014D01*
X400450Y759103D01*
X402810Y758792D01*
X405170Y759103D01*
X407369Y760014D01*
X409257Y761463D01*
X410706Y763351D01*
X411617Y765550D01*
X411928Y767910D01*
X411617Y770270D01*
X410706Y772469D01*
X409257Y774357D01*
X407369Y775806D01*
X405170Y776717D01*
X402810Y777028D01*
D02*
G37*
G36*
X294403Y761168D02*
X286218D01*
Y752983D01*
X287439Y753144D01*
X289760Y754105D01*
X291752Y755634D01*
X293281Y757627D01*
X294243Y759948D01*
X294403Y761168D01*
D02*
G37*
G36*
X283678D02*
X275493D01*
X275654Y759948D01*
X276615Y757627D01*
X278144Y755634D01*
X280137Y754105D01*
X282458Y753144D01*
X283678Y752983D01*
Y761168D01*
D02*
G37*
G36*
X692310Y760678D02*
X689950Y760367D01*
X687751Y759456D01*
X685863Y758007D01*
X684414Y756119D01*
X683503Y753920D01*
X683192Y751560D01*
X683503Y749200D01*
X684414Y747001D01*
X685863Y745113D01*
X687751Y743664D01*
X688514Y743347D01*
X688581Y737238D01*
X687749Y736893D01*
X686712Y736098D01*
X665683Y747358D01*
X665841Y748560D01*
X665479Y751311D01*
X664417Y753875D01*
X662727Y756077D01*
X660526Y757767D01*
X657962Y758829D01*
X655210Y759191D01*
X652458Y758829D01*
X649894Y757767D01*
X647693Y756077D01*
X646003Y753875D01*
X644941Y751311D01*
X644579Y748560D01*
X644941Y745808D01*
X646003Y743244D01*
X647693Y741043D01*
X649894Y739353D01*
X652458Y738291D01*
X655210Y737929D01*
X657962Y738291D01*
X660526Y739353D01*
X662025Y740504D01*
X683029Y729257D01*
X682938Y728560D01*
X683266Y726070D01*
X684227Y723749D01*
X685756Y721756D01*
X687749Y720227D01*
X690070Y719266D01*
X692560Y718938D01*
X695051Y719266D01*
X697371Y720227D01*
X699364Y721756D01*
X700893Y723749D01*
X701854Y726070D01*
X702182Y728560D01*
X701854Y731050D01*
X700893Y733371D01*
X699364Y735364D01*
X697371Y736893D01*
X696350Y737316D01*
X696283Y743421D01*
X696869Y743664D01*
X698757Y745113D01*
X700206Y747001D01*
X701117Y749200D01*
X701428Y751560D01*
X701117Y753920D01*
X700206Y756119D01*
X698757Y758007D01*
X696869Y759456D01*
X694670Y760367D01*
X692310Y760678D01*
D02*
G37*
G36*
X345810Y778428D02*
X343450Y778117D01*
X341251Y777206D01*
X339363Y775757D01*
X337914Y773869D01*
X337003Y771670D01*
X336692Y769310D01*
X337003Y766950D01*
X337914Y764751D01*
X339363Y762863D01*
X341251Y761414D01*
X341925Y761134D01*
Y720310D01*
X342221Y718823D01*
X343063Y717563D01*
X353063Y707563D01*
X354323Y706721D01*
X355810Y706425D01*
X403810D01*
X405297Y706721D01*
X406557Y707563D01*
X416448Y717455D01*
X418410Y717196D01*
X420639Y717490D01*
X422717Y718350D01*
X424501Y719719D01*
X425870Y721503D01*
X426730Y723581D01*
X427024Y725810D01*
Y738810D01*
X426730Y741039D01*
X425870Y743117D01*
X424501Y744901D01*
X422717Y746270D01*
X420639Y747130D01*
X418410Y747424D01*
X416181Y747130D01*
X414103Y746270D01*
X412319Y744901D01*
X410950Y743117D01*
X410090Y741039D01*
X409796Y738810D01*
Y725810D01*
X410090Y723581D01*
X410528Y722522D01*
X402201Y714195D01*
X357419D01*
X349695Y721919D01*
Y761134D01*
X350369Y761414D01*
X352257Y762863D01*
X353706Y764751D01*
X354617Y766950D01*
X354928Y769310D01*
X354617Y771670D01*
X353706Y773869D01*
X352257Y775757D01*
X350369Y777206D01*
X348170Y778117D01*
X345810Y778428D01*
D02*
G37*
G36*
X367610Y747424D02*
X365381Y747130D01*
X363303Y746270D01*
X361519Y744901D01*
X360150Y743117D01*
X359290Y741039D01*
X358996Y738810D01*
Y725810D01*
X359290Y723581D01*
X360150Y721503D01*
X361519Y719719D01*
X363303Y718350D01*
X365381Y717490D01*
X367610Y717196D01*
X369839Y717490D01*
X371917Y718350D01*
X373701Y719719D01*
X375070Y721503D01*
X375930Y723581D01*
X376224Y725810D01*
Y738810D01*
X375930Y741039D01*
X375070Y743117D01*
X373701Y744901D01*
X371917Y746270D01*
X369839Y747130D01*
X367610Y747424D01*
D02*
G37*
G36*
X671080Y719515D02*
Y711330D01*
X679265D01*
X679104Y712550D01*
X678143Y714871D01*
X676614Y716864D01*
X674621Y718393D01*
X672300Y719354D01*
X671080Y719515D01*
D02*
G37*
G36*
X668540D02*
X667319Y719354D01*
X664999Y718393D01*
X663006Y716864D01*
X661477Y714871D01*
X660516Y712550D01*
X660355Y711330D01*
X668540D01*
Y719515D01*
D02*
G37*
G36*
X284948Y722060D02*
X282458Y721732D01*
X280137Y720771D01*
X278144Y719242D01*
X276615Y717249D01*
X275654Y714929D01*
X275326Y712438D01*
X275654Y709948D01*
X276615Y707627D01*
X278144Y705634D01*
X280137Y704105D01*
X282458Y703144D01*
X284948Y702816D01*
X287439Y703144D01*
X289760Y704105D01*
X291752Y705634D01*
X293281Y707627D01*
X294243Y709948D01*
X294571Y712438D01*
X294243Y714929D01*
X293281Y717249D01*
X291752Y719242D01*
X289760Y720771D01*
X287439Y721732D01*
X284948Y722060D01*
D02*
G37*
G36*
X679265Y708790D02*
X671080D01*
Y700605D01*
X672300Y700766D01*
X674621Y701727D01*
X676614Y703256D01*
X678143Y705249D01*
X679104Y707570D01*
X679265Y708790D01*
D02*
G37*
G36*
X668540D02*
X660355D01*
X660516Y707570D01*
X661477Y705249D01*
X663006Y703256D01*
X664999Y701727D01*
X667319Y700766D01*
X668540Y700605D01*
Y708790D01*
D02*
G37*
G36*
X692560Y688182D02*
X690070Y687854D01*
X687749Y686893D01*
X685756Y685364D01*
X684227Y683371D01*
X683874Y682520D01*
X677417Y682577D01*
X676207Y682741D01*
X676193Y682747D01*
X674983Y682614D01*
X672811Y682662D01*
X672456Y683519D01*
X671007Y685407D01*
X669119Y686856D01*
X666920Y687767D01*
X664560Y688078D01*
X662200Y687767D01*
X660001Y686856D01*
X658113Y685407D01*
X656664Y683519D01*
X655753Y681320D01*
X655442Y678960D01*
X655452Y678882D01*
X646912Y674764D01*
X645045Y676197D01*
X642481Y677259D01*
X639730Y677621D01*
X636978Y677259D01*
X634414Y676197D01*
X632213Y674507D01*
X630523Y672305D01*
X629461Y669741D01*
X629099Y666990D01*
X629461Y664238D01*
X630523Y661674D01*
X632213Y659473D01*
X634414Y657783D01*
X636978Y656721D01*
X639730Y656359D01*
X642481Y656721D01*
X645045Y657783D01*
X647247Y659473D01*
X648937Y661674D01*
X649999Y664238D01*
X650361Y666990D01*
X650260Y667754D01*
X658892Y671915D01*
X660001Y671064D01*
X662200Y670153D01*
X664560Y669842D01*
X666920Y670153D01*
X669119Y671064D01*
X671007Y672513D01*
X672456Y674401D01*
X672661Y674894D01*
X674830Y674846D01*
X676030Y674806D01*
Y674806D01*
X674830Y674846D01*
X676030Y674806D01*
X676030Y674797D01*
X676088Y674785D01*
X676089Y674803D01*
X677294Y674808D01*
X677294Y674808D01*
X683812Y674751D01*
X684227Y673749D01*
X685756Y671756D01*
X687749Y670227D01*
X690070Y669266D01*
X692560Y668938D01*
X695051Y669266D01*
X697371Y670227D01*
X699364Y671756D01*
X700893Y673749D01*
X701854Y676069D01*
X702182Y678560D01*
X701854Y681050D01*
X700893Y683371D01*
X699364Y685364D01*
X697371Y686893D01*
X695051Y687854D01*
X692560Y688182D01*
D02*
G37*
G36*
X284810Y700932D02*
X282320Y700604D01*
X279999Y699643D01*
X278006Y698114D01*
X276477Y696121D01*
X275516Y693800D01*
X275188Y691310D01*
X275516Y688820D01*
X276477Y686499D01*
X278006Y684506D01*
X279999Y682977D01*
X282320Y682016D01*
X284810Y681688D01*
X287300Y682016D01*
X289621Y682977D01*
X291614Y684506D01*
X293143Y686499D01*
X294104Y688820D01*
X294432Y691310D01*
X294104Y693800D01*
X293143Y696121D01*
X291614Y698114D01*
X289621Y699643D01*
X287300Y700604D01*
X284810Y700932D01*
D02*
G37*
G36*
X599310Y733178D02*
X596950Y732867D01*
X594751Y731956D01*
X592863Y730507D01*
X591414Y728619D01*
X590503Y726420D01*
X590192Y724060D01*
X590503Y721700D01*
X591414Y719501D01*
X592863Y717613D01*
X594751Y716164D01*
X595175Y715988D01*
Y683575D01*
X536290D01*
X534803Y683279D01*
X533543Y682437D01*
X521862Y670755D01*
X521439Y670930D01*
X519210Y671224D01*
X516981Y670930D01*
X514903Y670070D01*
X513119Y668701D01*
X511750Y666917D01*
X510890Y664839D01*
X510596Y662610D01*
Y649610D01*
X510890Y647381D01*
X511750Y645303D01*
X513119Y643519D01*
X514903Y642150D01*
X516981Y641290D01*
X519210Y640996D01*
X521439Y641290D01*
X523517Y642150D01*
X525301Y643519D01*
X526670Y645303D01*
X527530Y647381D01*
X527824Y649610D01*
Y662610D01*
X527530Y664839D01*
X527355Y665262D01*
X537899Y675805D01*
X604531D01*
X605123Y674374D01*
X606813Y672173D01*
X609014Y670483D01*
X611578Y669421D01*
X614330Y669059D01*
X617081Y669421D01*
X619645Y670483D01*
X621847Y672173D01*
X623537Y674374D01*
X624599Y676938D01*
X624961Y679690D01*
X624599Y682441D01*
X623537Y685005D01*
X621847Y687207D01*
X619645Y688897D01*
X617081Y689959D01*
X614330Y690321D01*
X611578Y689959D01*
X609014Y688897D01*
X606813Y687207D01*
X605123Y685005D01*
X604531Y683575D01*
X602945D01*
Y715781D01*
X603869Y716164D01*
X605757Y717613D01*
X607206Y719501D01*
X608117Y721700D01*
X608428Y724060D01*
X608117Y726420D01*
X607206Y728619D01*
X605757Y730507D01*
X603869Y731956D01*
X601670Y732867D01*
X599310Y733178D01*
D02*
G37*
G36*
X469680Y671057D02*
Y657380D01*
X477024D01*
Y662610D01*
X476730Y664839D01*
X475870Y666917D01*
X474501Y668701D01*
X472717Y670070D01*
X470639Y670930D01*
X469680Y671057D01*
D02*
G37*
G36*
X467140Y671057D02*
X466181Y670930D01*
X464103Y670070D01*
X462319Y668701D01*
X460950Y666917D01*
X460090Y664839D01*
X459796Y662610D01*
Y657380D01*
X467140D01*
Y671057D01*
D02*
G37*
G36*
X615600Y664754D02*
Y655560D01*
X624794D01*
X624599Y657041D01*
X623537Y659605D01*
X621847Y661807D01*
X619645Y663497D01*
X617081Y664559D01*
X615600Y664754D01*
D02*
G37*
G36*
X613060Y664754D02*
X611578Y664559D01*
X609014Y663497D01*
X606813Y661807D01*
X605123Y659605D01*
X604061Y657041D01*
X603866Y655560D01*
X613060D01*
Y664754D01*
D02*
G37*
G36*
X664560Y662678D02*
X662200Y662367D01*
X660001Y661456D01*
X658113Y660007D01*
X656664Y658119D01*
X655753Y655920D01*
X655442Y653560D01*
X655753Y651200D01*
X656664Y649001D01*
X658113Y647113D01*
X660001Y645664D01*
X662200Y644753D01*
X664560Y644442D01*
X666920Y644753D01*
X669119Y645664D01*
X671007Y647113D01*
X672456Y649001D01*
X673367Y651200D01*
X673678Y653560D01*
X673367Y655920D01*
X672456Y658119D01*
X671007Y660007D01*
X669119Y661456D01*
X666920Y662367D01*
X664560Y662678D01*
D02*
G37*
G36*
X613060Y653020D02*
X603866D01*
X604061Y651538D01*
X605123Y648974D01*
X606813Y646773D01*
X609014Y645083D01*
X611578Y644021D01*
X613060Y643826D01*
Y653020D01*
D02*
G37*
G36*
X624794D02*
X615600D01*
Y643826D01*
X617081Y644021D01*
X619645Y645083D01*
X621847Y646773D01*
X623537Y648974D01*
X624599Y651538D01*
X624794Y653020D01*
D02*
G37*
G36*
X286080Y650765D02*
Y642580D01*
X294265D01*
X294104Y643800D01*
X293143Y646121D01*
X291614Y648114D01*
X289621Y649643D01*
X287300Y650604D01*
X286080Y650765D01*
D02*
G37*
G36*
X283540D02*
X282320Y650604D01*
X279999Y649643D01*
X278006Y648114D01*
X276477Y646121D01*
X275516Y643800D01*
X275355Y642580D01*
X283540D01*
Y650765D01*
D02*
G37*
G36*
X467140Y654840D02*
X459796D01*
Y649610D01*
X460090Y647381D01*
X460950Y645303D01*
X462319Y643519D01*
X464103Y642150D01*
X466181Y641290D01*
X467140Y641163D01*
Y654840D01*
D02*
G37*
G36*
X477024D02*
X469680D01*
Y641163D01*
X470639Y641290D01*
X472717Y642150D01*
X474501Y643519D01*
X475870Y645303D01*
X476730Y647381D01*
X477024Y649610D01*
Y654840D01*
D02*
G37*
G36*
X578550Y671150D02*
X561470D01*
Y641070D01*
X578550D01*
Y671150D01*
D02*
G37*
G36*
X544610Y671224D02*
X542381Y670930D01*
X540303Y670070D01*
X538519Y668701D01*
X537150Y666917D01*
X536290Y664839D01*
X535996Y662610D01*
Y649610D01*
X536290Y647381D01*
X537150Y645303D01*
X538519Y643519D01*
X540303Y642150D01*
X542381Y641290D01*
X544610Y640996D01*
X546839Y641290D01*
X548917Y642150D01*
X550701Y643519D01*
X552070Y645303D01*
X552930Y647381D01*
X553224Y649610D01*
Y662610D01*
X552930Y664839D01*
X552070Y666917D01*
X550701Y668701D01*
X548917Y670070D01*
X546839Y670930D01*
X544610Y671224D01*
D02*
G37*
G36*
X493810D02*
X491581Y670930D01*
X489503Y670070D01*
X487719Y668701D01*
X486350Y666917D01*
X485490Y664839D01*
X485196Y662610D01*
Y649610D01*
X485490Y647381D01*
X486350Y645303D01*
X487719Y643519D01*
X489503Y642150D01*
X491581Y641290D01*
X493810Y640996D01*
X496039Y641290D01*
X498117Y642150D01*
X499901Y643519D01*
X501270Y645303D01*
X502130Y647381D01*
X502424Y649610D01*
Y662610D01*
X502130Y664839D01*
X501270Y666917D01*
X499901Y668701D01*
X498117Y670070D01*
X496039Y670930D01*
X493810Y671224D01*
D02*
G37*
G36*
X443010D02*
X440781Y670930D01*
X438703Y670070D01*
X436919Y668701D01*
X435550Y666917D01*
X434690Y664839D01*
X434396Y662610D01*
Y649610D01*
X434690Y647381D01*
X435550Y645303D01*
X436919Y643519D01*
X438703Y642150D01*
X440781Y641290D01*
X443010Y640996D01*
X445239Y641290D01*
X447317Y642150D01*
X449101Y643519D01*
X450470Y645303D01*
X451330Y647381D01*
X451624Y649610D01*
Y662610D01*
X451330Y664839D01*
X450470Y666917D01*
X449101Y668701D01*
X447317Y670070D01*
X445239Y670930D01*
X443010Y671224D01*
D02*
G37*
G36*
X417610D02*
X415381Y670930D01*
X413303Y670070D01*
X411519Y668701D01*
X410150Y666917D01*
X409290Y664839D01*
X408996Y662610D01*
Y649610D01*
X409290Y647381D01*
X410150Y645303D01*
X411519Y643519D01*
X413303Y642150D01*
X415381Y641290D01*
X417610Y640996D01*
X419839Y641290D01*
X421917Y642150D01*
X423701Y643519D01*
X425070Y645303D01*
X425930Y647381D01*
X426224Y649610D01*
Y662610D01*
X425930Y664839D01*
X425070Y666917D01*
X423701Y668701D01*
X421917Y670070D01*
X419839Y670930D01*
X417610Y671224D01*
D02*
G37*
G36*
X392210D02*
X389981Y670930D01*
X387903Y670070D01*
X386119Y668701D01*
X384750Y666917D01*
X383890Y664839D01*
X383596Y662610D01*
Y649610D01*
X383890Y647381D01*
X384750Y645303D01*
X386119Y643519D01*
X387903Y642150D01*
X389981Y641290D01*
X392210Y640996D01*
X394439Y641290D01*
X396517Y642150D01*
X398301Y643519D01*
X399670Y645303D01*
X400530Y647381D01*
X400824Y649610D01*
Y662610D01*
X400530Y664839D01*
X399670Y666917D01*
X398301Y668701D01*
X396517Y670070D01*
X394439Y670930D01*
X392210Y671224D01*
D02*
G37*
G36*
X366810D02*
X364581Y670930D01*
X362503Y670070D01*
X360719Y668701D01*
X359350Y666917D01*
X358490Y664839D01*
X358196Y662610D01*
Y649610D01*
X358490Y647381D01*
X359350Y645303D01*
X360719Y643519D01*
X362503Y642150D01*
X364581Y641290D01*
X366810Y640996D01*
X369039Y641290D01*
X371117Y642150D01*
X372901Y643519D01*
X374270Y645303D01*
X375130Y647381D01*
X375424Y649610D01*
Y662610D01*
X375130Y664839D01*
X374270Y666917D01*
X372901Y668701D01*
X371117Y670070D01*
X369039Y670930D01*
X366810Y671224D01*
D02*
G37*
G36*
X294265Y640040D02*
X286080D01*
Y631855D01*
X287300Y632015D01*
X289621Y632977D01*
X291614Y634506D01*
X293143Y636499D01*
X294104Y638820D01*
X294265Y640040D01*
D02*
G37*
G36*
X283540D02*
X275355D01*
X275516Y638820D01*
X276477Y636499D01*
X278006Y634506D01*
X279999Y632977D01*
X282320Y632015D01*
X283540Y631855D01*
Y640040D01*
D02*
G37*
%LPD*%
G36*
X512918Y743596D02*
X512550Y743117D01*
X511690Y741039D01*
X511396Y738810D01*
Y725810D01*
X511658Y723824D01*
X482411Y699041D01*
X482254Y698844D01*
X481701Y698419D01*
X481087Y697620D01*
X480817Y697388D01*
X479090Y695195D01*
X467848D01*
X467362Y696368D01*
X489761Y718767D01*
X490303Y718350D01*
X492381Y717490D01*
X494610Y717196D01*
X496839Y717490D01*
X498917Y718350D01*
X500701Y719719D01*
X502070Y721503D01*
X502930Y723581D01*
X503224Y725810D01*
Y738810D01*
X502930Y741039D01*
X502070Y743117D01*
X501702Y743596D01*
X502263Y744735D01*
X512356D01*
X512918Y743596D01*
D02*
G37*
%LPC*%
G36*
X973810Y579537D02*
X971189Y579192D01*
X968747Y578180D01*
X966649Y576571D01*
X965040Y574473D01*
X964028Y572031D01*
X963683Y569410D01*
X964028Y566789D01*
X965040Y564347D01*
X966649Y562249D01*
X968747Y560640D01*
X971189Y559628D01*
X973810Y559283D01*
X976431Y559628D01*
X978873Y560640D01*
X980971Y562249D01*
X982580Y564347D01*
X983592Y566789D01*
X983937Y569410D01*
X983592Y572031D01*
X982580Y574473D01*
X980971Y576571D01*
X978873Y578180D01*
X976431Y579192D01*
X973810Y579537D01*
D02*
G37*
G36*
X948410D02*
X945789Y579192D01*
X943347Y578180D01*
X941249Y576571D01*
X939640Y574473D01*
X938628Y572031D01*
X938283Y569410D01*
X938628Y566789D01*
X939640Y564347D01*
X941249Y562249D01*
X943347Y560640D01*
X945789Y559628D01*
X948410Y559283D01*
X951031Y559628D01*
X953473Y560640D01*
X955571Y562249D01*
X957180Y564347D01*
X958192Y566789D01*
X958537Y569410D01*
X958192Y572031D01*
X957180Y574473D01*
X955571Y576571D01*
X953473Y578180D01*
X951031Y579192D01*
X948410Y579537D01*
D02*
G37*
G36*
X923010D02*
X920389Y579192D01*
X917947Y578180D01*
X915849Y576571D01*
X914240Y574473D01*
X913228Y572031D01*
X912883Y569410D01*
X913228Y566789D01*
X913717Y565610D01*
X838063Y489957D01*
X837965Y489809D01*
X836695Y490195D01*
Y503001D01*
X893810Y560117D01*
X894989Y559628D01*
X897610Y559283D01*
X900231Y559628D01*
X902673Y560640D01*
X904771Y562249D01*
X906380Y564347D01*
X907392Y566789D01*
X907737Y569410D01*
X907392Y572031D01*
X906380Y574473D01*
X904771Y576571D01*
X902673Y578180D01*
X900231Y579192D01*
X897610Y579537D01*
X894989Y579192D01*
X892547Y578180D01*
X890449Y576571D01*
X888840Y574473D01*
X887828Y572031D01*
X887483Y569410D01*
X887828Y566789D01*
X888317Y565610D01*
X830063Y507357D01*
X829221Y506097D01*
X828925Y504610D01*
Y455819D01*
X814844Y441738D01*
X814170Y442017D01*
X811810Y442328D01*
X809450Y442017D01*
X807251Y441106D01*
X805363Y439657D01*
X803914Y437769D01*
X803003Y435570D01*
X802692Y433210D01*
X803003Y430850D01*
X803914Y428651D01*
X805363Y426763D01*
X807251Y425314D01*
X809450Y424403D01*
X811810Y424092D01*
X814170Y424403D01*
X816369Y425314D01*
X818257Y426763D01*
X819706Y428651D01*
X820617Y430850D01*
X820928Y433210D01*
X820617Y435570D01*
X820338Y436244D01*
X835557Y451463D01*
X835655Y451610D01*
X836925Y451225D01*
Y441386D01*
X836251Y441106D01*
X834363Y439657D01*
X832914Y437769D01*
X832003Y435570D01*
X831692Y433210D01*
X832003Y430850D01*
X832914Y428651D01*
X834363Y426763D01*
X836251Y425314D01*
X838450Y424403D01*
X840810Y424092D01*
X843170Y424403D01*
X845369Y425314D01*
X847257Y426763D01*
X848706Y428651D01*
X849617Y430850D01*
X849928Y433210D01*
X849617Y435570D01*
X848706Y437769D01*
X847257Y439657D01*
X845369Y441106D01*
X844695Y441386D01*
Y485601D01*
X919210Y560117D01*
X920389Y559628D01*
X923010Y559283D01*
X925631Y559628D01*
X928073Y560640D01*
X930171Y562249D01*
X931780Y564347D01*
X932792Y566789D01*
X933137Y569410D01*
X932792Y572031D01*
X931780Y574473D01*
X930171Y576571D01*
X928073Y578180D01*
X925631Y579192D01*
X923010Y579537D01*
D02*
G37*
G36*
X872210D02*
X869589Y579192D01*
X867147Y578180D01*
X865049Y576571D01*
X863440Y574473D01*
X862428Y572031D01*
X862083Y569410D01*
X862428Y566789D01*
X863440Y564347D01*
X865049Y562249D01*
X867147Y560640D01*
X869589Y559628D01*
X872210Y559283D01*
X874831Y559628D01*
X877273Y560640D01*
X879371Y562249D01*
X880980Y564347D01*
X881992Y566789D01*
X882337Y569410D01*
X881992Y572031D01*
X880980Y574473D01*
X879371Y576571D01*
X877273Y578180D01*
X874831Y579192D01*
X872210Y579537D01*
D02*
G37*
G36*
X803080Y533265D02*
Y525080D01*
X811265D01*
X811104Y526301D01*
X810143Y528621D01*
X808614Y530614D01*
X806621Y532143D01*
X804300Y533105D01*
X803080Y533265D01*
D02*
G37*
G36*
X800540D02*
X799320Y533105D01*
X796999Y532143D01*
X795006Y530614D01*
X793477Y528621D01*
X792516Y526301D01*
X792355Y525080D01*
X800540D01*
Y533265D01*
D02*
G37*
G36*
X755080Y545335D02*
Y519080D01*
X781335D01*
X781095Y522132D01*
X780083Y526347D01*
X778424Y530352D01*
X776159Y534048D01*
X773344Y537344D01*
X770048Y540159D01*
X766352Y542424D01*
X762347Y544083D01*
X758131Y545095D01*
X755080Y545335D01*
D02*
G37*
G36*
X1125080D02*
Y519080D01*
X1151335D01*
X1151095Y522132D01*
X1150083Y526347D01*
X1148424Y530352D01*
X1146159Y534048D01*
X1143344Y537344D01*
X1140048Y540159D01*
X1136352Y542424D01*
X1132347Y544083D01*
X1128131Y545095D01*
X1125080Y545335D01*
D02*
G37*
G36*
X1122540D02*
X1119489Y545095D01*
X1115273Y544083D01*
X1111268Y542424D01*
X1107572Y540159D01*
X1104276Y537344D01*
X1101461Y534048D01*
X1099196Y530352D01*
X1097537Y526347D01*
X1096525Y522132D01*
X1096285Y519080D01*
X1122540D01*
Y545335D01*
D02*
G37*
G36*
X811265Y522540D02*
X803080D01*
Y514355D01*
X804300Y514516D01*
X806621Y515477D01*
X808614Y517006D01*
X810143Y518999D01*
X811104Y521320D01*
X811265Y522540D01*
D02*
G37*
G36*
X800540D02*
X792355D01*
X792516Y521320D01*
X793477Y518999D01*
X795006Y517006D01*
X796999Y515477D01*
X799320Y514516D01*
X800540Y514355D01*
Y522540D01*
D02*
G37*
G36*
X1163060Y500473D02*
X1160580D01*
Y491580D01*
X1169473D01*
Y494060D01*
X1168985Y496514D01*
X1167595Y498595D01*
X1165514Y499985D01*
X1163060Y500473D01*
D02*
G37*
G36*
X1158040D02*
X1155560D01*
X1153106Y499985D01*
X1151025Y498595D01*
X1149635Y496514D01*
X1149147Y494060D01*
Y491580D01*
X1158040D01*
Y500473D01*
D02*
G37*
G36*
X1151335Y516540D02*
X1125080D01*
Y490285D01*
X1128131Y490525D01*
X1132347Y491537D01*
X1136352Y493196D01*
X1140048Y495461D01*
X1143344Y498276D01*
X1146159Y501572D01*
X1148424Y505269D01*
X1150083Y509273D01*
X1151095Y513489D01*
X1151335Y516540D01*
D02*
G37*
G36*
X781335Y516540D02*
X755080D01*
Y490285D01*
X758131Y490525D01*
X762347Y491537D01*
X766352Y493196D01*
X770048Y495461D01*
X773344Y498276D01*
X776159Y501572D01*
X778424Y505269D01*
X780083Y509273D01*
X781095Y513489D01*
X781335Y516540D01*
D02*
G37*
G36*
X1122540Y516540D02*
X1096285D01*
X1096525Y513489D01*
X1097537Y509273D01*
X1099196Y505269D01*
X1101461Y501572D01*
X1104276Y498276D01*
X1107572Y495461D01*
X1111268Y493196D01*
X1115273Y491537D01*
X1119489Y490525D01*
X1122540Y490285D01*
Y516540D01*
D02*
G37*
G36*
X1169473Y489040D02*
X1160580D01*
Y480147D01*
X1163060D01*
X1165514Y480635D01*
X1167595Y482025D01*
X1168985Y484106D01*
X1169473Y486560D01*
Y489040D01*
D02*
G37*
G36*
X1158040D02*
X1149147D01*
Y486560D01*
X1149635Y484106D01*
X1151025Y482025D01*
X1153106Y480635D01*
X1155560Y480147D01*
X1158040D01*
Y489040D01*
D02*
G37*
G36*
X999210Y579537D02*
X996589Y579192D01*
X994147Y578180D01*
X992049Y576571D01*
X990440Y574473D01*
X989428Y572031D01*
X989083Y569410D01*
X989428Y566789D01*
X990440Y564347D01*
X992049Y562249D01*
X994147Y560640D01*
X996589Y559628D01*
X999210Y559283D01*
X1001831Y559628D01*
X1003010Y560117D01*
X1006635Y556491D01*
Y476368D01*
X1005365Y475742D01*
X1004273Y476580D01*
X1001831Y477592D01*
X999210Y477937D01*
X996589Y477592D01*
X994147Y476580D01*
X992049Y474971D01*
X990440Y472873D01*
X989428Y470431D01*
X989083Y467810D01*
X989428Y465189D01*
X990440Y462747D01*
X992049Y460649D01*
X994147Y459040D01*
X996589Y458028D01*
X999210Y457683D01*
X1001831Y458028D01*
X1004273Y459040D01*
X1005365Y459878D01*
X1006635Y459252D01*
Y443280D01*
X1005251Y442706D01*
X1003363Y441257D01*
X1001914Y439369D01*
X1001003Y437170D01*
X1000692Y434810D01*
X1001003Y432450D01*
X1001914Y430251D01*
X1003363Y428363D01*
X1005251Y426914D01*
X1007450Y426003D01*
X1009810Y425692D01*
X1012170Y426003D01*
X1014369Y426914D01*
X1016257Y428363D01*
X1017706Y430251D01*
X1018617Y432450D01*
X1018928Y434810D01*
X1018617Y437170D01*
X1017706Y439369D01*
X1016257Y441257D01*
X1014405Y442679D01*
Y558100D01*
X1014109Y559587D01*
X1013267Y560847D01*
X1008503Y565610D01*
X1008992Y566789D01*
X1009337Y569410D01*
X1008992Y572031D01*
X1007980Y574473D01*
X1006371Y576571D01*
X1004273Y578180D01*
X1001831Y579192D01*
X999210Y579537D01*
D02*
G37*
G36*
X752560Y483473D02*
X750080D01*
Y474580D01*
X758973D01*
Y477060D01*
X758485Y479514D01*
X757095Y481595D01*
X755014Y482985D01*
X752560Y483473D01*
D02*
G37*
G36*
X747540D02*
X745060D01*
X742606Y482985D01*
X740525Y481595D01*
X739135Y479514D01*
X738647Y477060D01*
Y474580D01*
X747540D01*
Y483473D01*
D02*
G37*
G36*
X779560Y483973D02*
X772060D01*
X769606Y483485D01*
X767525Y482095D01*
X766135Y480014D01*
X765647Y477560D01*
Y470060D01*
X766135Y467606D01*
X767525Y465525D01*
X769606Y464135D01*
X772060Y463647D01*
X772125D01*
Y452226D01*
X770894Y451717D01*
X768693Y450027D01*
X767003Y447826D01*
X765941Y445261D01*
X765579Y442510D01*
X765941Y439758D01*
X767003Y437195D01*
X768693Y434993D01*
X770894Y433303D01*
X773458Y432241D01*
X776210Y431879D01*
X778961Y432241D01*
X781525Y433303D01*
X783727Y434993D01*
X785417Y437195D01*
X786479Y439758D01*
X786841Y442510D01*
X786479Y445261D01*
X785417Y447826D01*
X783727Y450027D01*
X781525Y451717D01*
X779895Y452392D01*
Y463713D01*
X782014Y464135D01*
X784095Y465525D01*
X785485Y467606D01*
X785946Y469925D01*
X793093D01*
X793477Y468999D01*
X795006Y467006D01*
X796999Y465477D01*
X799320Y464516D01*
X801810Y464188D01*
X804300Y464516D01*
X806621Y465477D01*
X808614Y467006D01*
X810143Y468999D01*
X811104Y471320D01*
X811432Y473810D01*
X811104Y476300D01*
X810143Y478621D01*
X808614Y480614D01*
X806621Y482143D01*
X804300Y483104D01*
X801810Y483432D01*
X799320Y483104D01*
X796999Y482143D01*
X795006Y480614D01*
X793477Y478621D01*
X793093Y477695D01*
X785946D01*
X785485Y480014D01*
X784095Y482095D01*
X782014Y483485D01*
X779560Y483973D01*
D02*
G37*
G36*
X758973Y472040D02*
X750080D01*
Y463147D01*
X752560D01*
X755014Y463635D01*
X757095Y465025D01*
X758485Y467106D01*
X758973Y469560D01*
Y472040D01*
D02*
G37*
G36*
X747540D02*
X738647D01*
Y469560D01*
X739135Y467106D01*
X740525Y465025D01*
X742606Y463635D01*
X745060Y463147D01*
X747540D01*
Y472040D01*
D02*
G37*
G36*
X1135230Y447511D02*
Y439830D01*
X1142911D01*
X1142767Y440920D01*
X1141856Y443119D01*
X1140407Y445007D01*
X1138519Y446456D01*
X1136320Y447367D01*
X1135230Y447511D01*
D02*
G37*
G36*
X1132690Y447511D02*
X1131600Y447367D01*
X1129401Y446456D01*
X1127513Y445007D01*
X1126064Y443119D01*
X1125153Y440920D01*
X1125009Y439830D01*
X1132690D01*
Y447511D01*
D02*
G37*
G36*
X752080Y440274D02*
Y431080D01*
X761274D01*
X761079Y432561D01*
X760017Y435126D01*
X758327Y437327D01*
X756125Y439017D01*
X753561Y440079D01*
X752080Y440274D01*
D02*
G37*
G36*
X749540Y440274D02*
X748058Y440079D01*
X745495Y439017D01*
X743293Y437327D01*
X741603Y435126D01*
X740541Y432561D01*
X740346Y431080D01*
X749540D01*
Y440274D01*
D02*
G37*
G36*
X1057560Y439687D02*
X1057330D01*
Y430830D01*
X1067520D01*
X1067342Y432181D01*
X1066330Y434623D01*
X1064721Y436721D01*
X1062623Y438330D01*
X1060181Y439342D01*
X1057560Y439687D01*
D02*
G37*
G36*
X1054790D02*
X1054560D01*
X1051939Y439342D01*
X1049497Y438330D01*
X1047399Y436721D01*
X1045790Y434623D01*
X1044779Y432181D01*
X1044601Y430830D01*
X1054790D01*
Y439687D01*
D02*
G37*
G36*
X1158810Y474932D02*
X1156320Y474604D01*
X1153999Y473643D01*
X1152006Y472114D01*
X1150477Y470121D01*
X1149516Y467800D01*
X1149188Y465310D01*
X1149516Y462820D01*
X1150477Y460499D01*
X1152006Y458506D01*
X1153999Y456977D01*
X1154925Y456593D01*
Y449897D01*
X1152856Y449485D01*
X1150775Y448095D01*
X1149385Y446014D01*
X1148897Y443560D01*
Y436060D01*
X1149385Y433606D01*
X1150775Y431525D01*
X1152856Y430135D01*
X1155310Y429647D01*
X1162810D01*
X1165264Y430135D01*
X1167345Y431525D01*
X1168735Y433606D01*
X1169223Y436060D01*
Y443560D01*
X1168735Y446014D01*
X1167345Y448095D01*
X1165264Y449485D01*
X1162810Y449973D01*
X1162695D01*
Y456593D01*
X1163621Y456977D01*
X1165614Y458506D01*
X1167143Y460499D01*
X1168104Y462820D01*
X1168432Y465310D01*
X1168104Y467800D01*
X1167143Y470121D01*
X1165614Y472114D01*
X1163621Y473643D01*
X1161300Y474604D01*
X1158810Y474932D01*
D02*
G37*
G36*
X1142911Y437290D02*
X1135230D01*
Y429609D01*
X1136320Y429753D01*
X1138519Y430664D01*
X1140407Y432113D01*
X1141856Y434001D01*
X1142767Y436200D01*
X1142911Y437290D01*
D02*
G37*
G36*
X1132690D02*
X1125009D01*
X1125153Y436200D01*
X1126064Y434001D01*
X1127513Y432113D01*
X1129401Y430664D01*
X1131600Y429753D01*
X1132690Y429609D01*
Y437290D01*
D02*
G37*
G36*
X973810Y477937D02*
X971189Y477592D01*
X968747Y476580D01*
X966649Y474971D01*
X965040Y472873D01*
X964028Y470431D01*
X963683Y467810D01*
X964028Y465189D01*
X965040Y462747D01*
X966649Y460649D01*
X968747Y459040D01*
X969925Y458552D01*
Y442391D01*
X970221Y440904D01*
X971063Y439644D01*
X972452Y438255D01*
X972003Y437170D01*
X971692Y434810D01*
X972003Y432450D01*
X972914Y430251D01*
X974363Y428363D01*
X976251Y426914D01*
X978450Y426003D01*
X980810Y425692D01*
X983170Y426003D01*
X985369Y426914D01*
X987257Y428363D01*
X988706Y430251D01*
X989617Y432450D01*
X989928Y434810D01*
X989617Y437170D01*
X988706Y439369D01*
X987257Y441257D01*
X985369Y442706D01*
X983170Y443617D01*
X980810Y443928D01*
X978827Y443667D01*
X977915Y444367D01*
X977695Y444676D01*
Y458552D01*
X978873Y459040D01*
X980971Y460649D01*
X982580Y462747D01*
X983592Y465189D01*
X983937Y467810D01*
X983592Y470431D01*
X982580Y472873D01*
X980971Y474971D01*
X978873Y476580D01*
X976431Y477592D01*
X973810Y477937D01*
D02*
G37*
G36*
X948410D02*
X945789Y477592D01*
X943347Y476580D01*
X941249Y474971D01*
X939640Y472873D01*
X938628Y470431D01*
X938283Y467810D01*
X938628Y465189D01*
X939640Y462747D01*
X941249Y460649D01*
X943347Y459040D01*
X944525Y458552D01*
Y451210D01*
X944821Y449723D01*
X945663Y448463D01*
X947715Y446411D01*
Y442299D01*
X947251Y442106D01*
X945363Y440657D01*
X943914Y438769D01*
X943003Y436570D01*
X942692Y434210D01*
X943003Y431850D01*
X943914Y429651D01*
X945363Y427763D01*
X947251Y426314D01*
X949450Y425403D01*
X951810Y425092D01*
X954170Y425403D01*
X956369Y426314D01*
X958257Y427763D01*
X959706Y429651D01*
X960617Y431850D01*
X960928Y434210D01*
X960617Y436570D01*
X959706Y438769D01*
X958257Y440657D01*
X956369Y442106D01*
X955485Y442473D01*
Y448020D01*
X955189Y449507D01*
X954347Y450767D01*
X952295Y452819D01*
Y458552D01*
X953473Y459040D01*
X955571Y460649D01*
X957180Y462747D01*
X958192Y465189D01*
X958537Y467810D01*
X958192Y470431D01*
X957180Y472873D01*
X955571Y474971D01*
X953473Y476580D01*
X951031Y477592D01*
X948410Y477937D01*
D02*
G37*
G36*
X923010D02*
X920389Y477592D01*
X917947Y476580D01*
X915849Y474971D01*
X914240Y472873D01*
X913228Y470431D01*
X912883Y467810D01*
X913228Y465189D01*
X914240Y462747D01*
X915849Y460649D01*
X917947Y459040D01*
X920025Y458179D01*
Y441533D01*
X918363Y440257D01*
X916914Y438369D01*
X916003Y436170D01*
X915692Y433810D01*
X916003Y431450D01*
X916914Y429251D01*
X918363Y427363D01*
X920251Y425914D01*
X922450Y425003D01*
X924810Y424692D01*
X927170Y425003D01*
X929369Y425914D01*
X931257Y427363D01*
X932706Y429251D01*
X933617Y431450D01*
X933928Y433810D01*
X933617Y436170D01*
X932706Y438369D01*
X931257Y440257D01*
X929369Y441706D01*
X927795Y442359D01*
Y458925D01*
X928073Y459040D01*
X930171Y460649D01*
X931780Y462747D01*
X932792Y465189D01*
X933137Y467810D01*
X932792Y470431D01*
X931780Y472873D01*
X930171Y474971D01*
X928073Y476580D01*
X925631Y477592D01*
X923010Y477937D01*
D02*
G37*
G36*
X897610D02*
X894989Y477592D01*
X892547Y476580D01*
X890449Y474971D01*
X888840Y472873D01*
X887828Y470431D01*
X887483Y467810D01*
X887828Y465189D01*
X888840Y462747D01*
X890449Y460649D01*
X892547Y459040D01*
X893725Y458552D01*
Y442317D01*
X892251Y441706D01*
X890363Y440257D01*
X888914Y438369D01*
X888003Y436170D01*
X887692Y433810D01*
X888003Y431450D01*
X888914Y429251D01*
X890363Y427363D01*
X892251Y425914D01*
X894450Y425003D01*
X896810Y424692D01*
X899170Y425003D01*
X901369Y425914D01*
X903257Y427363D01*
X904706Y429251D01*
X905617Y431450D01*
X905928Y433810D01*
X905617Y436170D01*
X904706Y438369D01*
X903257Y440257D01*
X901495Y441610D01*
Y458552D01*
X902673Y459040D01*
X904771Y460649D01*
X906380Y462747D01*
X907392Y465189D01*
X907737Y467810D01*
X907392Y470431D01*
X906380Y472873D01*
X904771Y474971D01*
X902673Y476580D01*
X900231Y477592D01*
X897610Y477937D01*
D02*
G37*
G36*
X872210D02*
X869589Y477592D01*
X867147Y476580D01*
X865049Y474971D01*
X863440Y472873D01*
X862428Y470431D01*
X862083Y467810D01*
X862428Y465189D01*
X863440Y462747D01*
X865049Y460649D01*
X867147Y459040D01*
X867368Y458948D01*
X867666Y457450D01*
X866063Y455847D01*
X865221Y454587D01*
X864925Y453100D01*
Y439986D01*
X864251Y439706D01*
X862363Y438257D01*
X860914Y436369D01*
X860003Y434170D01*
X859692Y431810D01*
X860003Y429450D01*
X860914Y427251D01*
X862363Y425363D01*
X864251Y423914D01*
X866450Y423003D01*
X868810Y422692D01*
X871170Y423003D01*
X873369Y423914D01*
X875257Y425363D01*
X876706Y427251D01*
X877617Y429450D01*
X877928Y431810D01*
X877617Y434170D01*
X876706Y436369D01*
X875257Y438257D01*
X873369Y439706D01*
X872695Y439986D01*
Y451491D01*
X874957Y453753D01*
X875799Y455013D01*
X876095Y456500D01*
Y458552D01*
X877273Y459040D01*
X879371Y460649D01*
X880980Y462747D01*
X881992Y465189D01*
X882337Y467810D01*
X881992Y470431D01*
X880980Y472873D01*
X879371Y474971D01*
X877273Y476580D01*
X874831Y477592D01*
X872210Y477937D01*
D02*
G37*
G36*
X761274Y428540D02*
X752080D01*
Y419346D01*
X753561Y419541D01*
X756125Y420603D01*
X758327Y422293D01*
X760017Y424495D01*
X761079Y427058D01*
X761274Y428540D01*
D02*
G37*
G36*
X749540D02*
X740346D01*
X740541Y427058D01*
X741603Y424495D01*
X743293Y422293D01*
X745495Y420603D01*
X748058Y419541D01*
X749540Y419346D01*
Y428540D01*
D02*
G37*
G36*
X1159580Y424411D02*
Y416730D01*
X1167261D01*
X1167117Y417820D01*
X1166207Y420019D01*
X1164758Y421907D01*
X1162869Y423356D01*
X1160670Y424267D01*
X1159580Y424411D01*
D02*
G37*
G36*
X1157040Y424411D02*
X1155950Y424267D01*
X1153751Y423356D01*
X1151863Y421907D01*
X1150414Y420019D01*
X1149503Y417820D01*
X1149359Y416730D01*
X1157040D01*
Y424411D01*
D02*
G37*
G36*
X1167261Y414190D02*
X1159580D01*
Y406509D01*
X1160670Y406653D01*
X1162869Y407564D01*
X1164758Y409012D01*
X1166207Y410901D01*
X1167117Y413100D01*
X1167261Y414190D01*
D02*
G37*
G36*
X1157040D02*
X1149359D01*
X1149503Y413100D01*
X1150414Y410901D01*
X1151863Y409012D01*
X1153751Y407564D01*
X1155950Y406653D01*
X1157040Y406509D01*
Y414190D01*
D02*
G37*
G36*
X776210Y427741D02*
X773458Y427379D01*
X770894Y426317D01*
X768693Y424627D01*
X767003Y422425D01*
X765941Y419861D01*
X765579Y417110D01*
X765941Y414358D01*
X767003Y411795D01*
X768693Y409593D01*
X770894Y407903D01*
X773458Y406841D01*
X776210Y406479D01*
X778961Y406841D01*
X781525Y407903D01*
X783727Y409593D01*
X785417Y411795D01*
X786479Y414358D01*
X786841Y417110D01*
X786479Y419861D01*
X785417Y422425D01*
X783727Y424627D01*
X781525Y426317D01*
X778961Y427379D01*
X776210Y427741D01*
D02*
G37*
G36*
X752218Y410393D02*
Y402208D01*
X760403D01*
X760243Y403428D01*
X759281Y405749D01*
X757752Y407742D01*
X755760Y409271D01*
X753439Y410233D01*
X752218Y410393D01*
D02*
G37*
G36*
X749678D02*
X748458Y410233D01*
X746137Y409271D01*
X744144Y407742D01*
X742615Y405749D01*
X741654Y403428D01*
X741493Y402208D01*
X749678D01*
Y410393D01*
D02*
G37*
G36*
X1108810Y474932D02*
X1106320Y474604D01*
X1103999Y473643D01*
X1102006Y472114D01*
X1100477Y470121D01*
X1099516Y467800D01*
X1099188Y465310D01*
X1099516Y462820D01*
X1100477Y460499D01*
X1102006Y458506D01*
X1103999Y456977D01*
X1104876Y456614D01*
X1104820Y446796D01*
X1104001Y446456D01*
X1102113Y445007D01*
X1100664Y443119D01*
X1099753Y440920D01*
X1099442Y438560D01*
X1099753Y436200D01*
X1100664Y434001D01*
X1102113Y432113D01*
X1104001Y430664D01*
X1104727Y430363D01*
X1104681Y422282D01*
X1103195Y421667D01*
X1100993Y419977D01*
X1099303Y417775D01*
X1098241Y415211D01*
X1097879Y412460D01*
X1098241Y409709D01*
X1099303Y407145D01*
X1100993Y404943D01*
X1103195Y403253D01*
X1105759Y402191D01*
X1108510Y401829D01*
X1111262Y402191D01*
X1113826Y403253D01*
X1116027Y404943D01*
X1117717Y407145D01*
X1118779Y409709D01*
X1119141Y412460D01*
X1118779Y415211D01*
X1117717Y417775D01*
X1116027Y419977D01*
X1113826Y421667D01*
X1112450Y422236D01*
X1112497Y430406D01*
X1113119Y430664D01*
X1115007Y432113D01*
X1116456Y434001D01*
X1117367Y436200D01*
X1117678Y438560D01*
X1117367Y440920D01*
X1116456Y443119D01*
X1115007Y445007D01*
X1113119Y446456D01*
X1112589Y446676D01*
X1112645Y456572D01*
X1113621Y456977D01*
X1115614Y458506D01*
X1117143Y460499D01*
X1118104Y462820D01*
X1118432Y465310D01*
X1118104Y467800D01*
X1117143Y470121D01*
X1115614Y472114D01*
X1113621Y473643D01*
X1111300Y474604D01*
X1108810Y474932D01*
D02*
G37*
G36*
X1067520Y428290D02*
X1056060D01*
X1044601D01*
X1044779Y426939D01*
X1045790Y424497D01*
X1047399Y422399D01*
X1049497Y420790D01*
X1050807Y420247D01*
Y418873D01*
X1049497Y418330D01*
X1047399Y416721D01*
X1045790Y414623D01*
X1044778Y412181D01*
X1044433Y409560D01*
X1044778Y406939D01*
X1045790Y404497D01*
X1047399Y402399D01*
X1049497Y400790D01*
X1051939Y399778D01*
X1052175Y399747D01*
Y391005D01*
X998694D01*
X998168Y392275D01*
X1006776Y400882D01*
X1007450Y400603D01*
X1009810Y400292D01*
X1012170Y400603D01*
X1014369Y401514D01*
X1016257Y402963D01*
X1017706Y404851D01*
X1018617Y407050D01*
X1018928Y409410D01*
X1018617Y411770D01*
X1017706Y413969D01*
X1016257Y415857D01*
X1014369Y417306D01*
X1012170Y418217D01*
X1009810Y418528D01*
X1007450Y418217D01*
X1005251Y417306D01*
X1003363Y415857D01*
X1001914Y413969D01*
X1001003Y411770D01*
X1000692Y409410D01*
X1001003Y407050D01*
X1001282Y406376D01*
X990991Y396085D01*
X974638D01*
X974152Y397258D01*
X977776Y400882D01*
X978450Y400603D01*
X980810Y400292D01*
X983170Y400603D01*
X985369Y401514D01*
X987257Y402963D01*
X988706Y404851D01*
X989617Y407050D01*
X989928Y409410D01*
X989617Y411770D01*
X988706Y413969D01*
X987257Y415857D01*
X985369Y417306D01*
X983170Y418217D01*
X980810Y418528D01*
X978450Y418217D01*
X976251Y417306D01*
X974363Y415857D01*
X972914Y413969D01*
X972003Y411770D01*
X971692Y409410D01*
X972003Y407050D01*
X972282Y406376D01*
X967071Y401165D01*
X958664D01*
X958393Y401963D01*
X958313Y402435D01*
X959706Y404251D01*
X960617Y406450D01*
X960928Y408810D01*
X960617Y411170D01*
X959706Y413369D01*
X958257Y415257D01*
X956369Y416706D01*
X954170Y417617D01*
X951810Y417928D01*
X949450Y417617D01*
X947251Y416706D01*
X945363Y415257D01*
X943914Y413369D01*
X943003Y411170D01*
X942692Y408810D01*
X943003Y406450D01*
X943914Y404251D01*
X945307Y402435D01*
X945227Y401963D01*
X944956Y401165D01*
X932222D01*
X931620Y402435D01*
X932706Y403851D01*
X933617Y406050D01*
X933928Y408410D01*
X933617Y410770D01*
X932706Y412969D01*
X931257Y414857D01*
X929369Y416306D01*
X927170Y417217D01*
X924810Y417528D01*
X922450Y417217D01*
X920251Y416306D01*
X918363Y414857D01*
X916914Y412969D01*
X916003Y410770D01*
X915692Y408410D01*
X916003Y406050D01*
X916914Y403851D01*
X918016Y402414D01*
X918021Y402272D01*
X917591Y401124D01*
X917530Y401058D01*
X916578Y400869D01*
X915318Y400027D01*
X911236Y395945D01*
X877833D01*
X876583Y395989D01*
X876583Y395989D01*
X876583Y395989D01*
X874134Y395502D01*
X872050Y394109D01*
X872076Y394083D01*
X872074Y394068D01*
X862934Y384928D01*
X861239Y385630D01*
X859010Y385924D01*
X856781Y385630D01*
X854703Y384770D01*
X852919Y383401D01*
X851550Y381617D01*
X850690Y379539D01*
X850396Y377310D01*
Y364310D01*
X850690Y362081D01*
X851550Y360003D01*
X852919Y358219D01*
X854703Y356850D01*
X856781Y355990D01*
X859010Y355696D01*
X861239Y355990D01*
X863317Y356850D01*
X865101Y358219D01*
X866470Y360003D01*
X867330Y362081D01*
X867624Y364310D01*
Y377310D01*
X867470Y378476D01*
X877169Y388175D01*
X912845D01*
X913520Y388310D01*
X914146Y387139D01*
X912462Y385455D01*
X912039Y385630D01*
X909810Y385924D01*
X907581Y385630D01*
X905503Y384770D01*
X903719Y383401D01*
X902350Y381617D01*
X901490Y379539D01*
X901196Y377310D01*
Y364310D01*
X901490Y362081D01*
X902350Y360003D01*
X903719Y358219D01*
X905503Y356850D01*
X907581Y355990D01*
X909810Y355696D01*
X912039Y355990D01*
X914117Y356850D01*
X915901Y358219D01*
X917270Y360003D01*
X918130Y362081D01*
X918424Y364310D01*
Y377310D01*
X918130Y379539D01*
X917955Y379962D01*
X926309Y388315D01*
X939062D01*
X939548Y387142D01*
X937862Y385455D01*
X937439Y385630D01*
X935210Y385924D01*
X932981Y385630D01*
X930903Y384770D01*
X929119Y383401D01*
X927750Y381617D01*
X926890Y379539D01*
X926596Y377310D01*
Y364310D01*
X926890Y362081D01*
X927750Y360003D01*
X929119Y358219D01*
X930903Y356850D01*
X932981Y355990D01*
X935210Y355696D01*
X937439Y355990D01*
X939517Y356850D01*
X941301Y358219D01*
X942670Y360003D01*
X943530Y362081D01*
X943824Y364310D01*
Y377310D01*
X943530Y379539D01*
X943355Y379962D01*
X946629Y383235D01*
X952956D01*
X953518Y382096D01*
X953150Y381617D01*
X952290Y379539D01*
X951996Y377310D01*
Y364490D01*
X927201Y339695D01*
X809019D01*
X798880Y349833D01*
X799174Y352060D01*
X798880Y354289D01*
X798020Y356367D01*
X796651Y358151D01*
X794867Y359520D01*
X792789Y360380D01*
X790560Y360674D01*
X788331Y360380D01*
X786253Y359520D01*
X784469Y358151D01*
X783100Y356367D01*
X782240Y354289D01*
X781946Y352060D01*
X782240Y349831D01*
X783100Y347753D01*
X784469Y345969D01*
X786253Y344600D01*
X788331Y343740D01*
X790560Y343446D01*
X792789Y343740D01*
X793636Y344090D01*
X804663Y333063D01*
X805923Y332221D01*
X807410Y331925D01*
X812836D01*
X813362Y330655D01*
X793141Y310435D01*
X792789Y310580D01*
X790560Y310874D01*
X788331Y310580D01*
X786253Y309720D01*
X784469Y308351D01*
X783100Y306567D01*
X782240Y304489D01*
X781946Y302260D01*
X782240Y300031D01*
X783100Y297953D01*
X784469Y296169D01*
X786253Y294800D01*
X788331Y293940D01*
X790560Y293646D01*
X792789Y293940D01*
X794867Y294800D01*
X796651Y296169D01*
X798020Y297953D01*
X798880Y300031D01*
X799174Y302260D01*
X798880Y304489D01*
X798676Y304982D01*
X819619Y325925D01*
X945743D01*
X945743Y325925D01*
Y325876D01*
X948127Y326350D01*
X948417Y326331D01*
X949397Y325807D01*
Y321310D01*
X949885Y318856D01*
X951275Y316775D01*
X953356Y315385D01*
X955810Y314897D01*
X963310D01*
X965764Y315385D01*
X967845Y316775D01*
X969235Y318856D01*
X969723Y321310D01*
Y328810D01*
X969235Y331264D01*
X967845Y333345D01*
X965764Y334735D01*
X963310Y335223D01*
X959538D01*
X959100Y336416D01*
X982719Y356429D01*
X983781Y355990D01*
X986010Y355696D01*
X988239Y355990D01*
X990317Y356850D01*
X992101Y358219D01*
X993470Y360003D01*
X994330Y362081D01*
X994624Y364310D01*
Y377310D01*
X994330Y379539D01*
X993470Y381617D01*
X993102Y382096D01*
X993663Y383235D01*
X1003756D01*
X1004318Y382096D01*
X1003950Y381617D01*
X1003090Y379539D01*
X1002796Y377310D01*
Y364310D01*
X1003090Y362081D01*
X1003950Y360003D01*
X1005319Y358219D01*
X1007103Y356850D01*
X1009181Y355990D01*
X1011410Y355696D01*
X1013639Y355990D01*
X1015717Y356850D01*
X1017501Y358219D01*
X1018870Y360003D01*
X1019730Y362081D01*
X1020024Y364310D01*
Y377310D01*
X1019730Y379539D01*
X1018870Y381617D01*
X1018502Y382096D01*
X1019063Y383235D01*
X1029156D01*
X1029718Y382096D01*
X1029350Y381617D01*
X1028490Y379539D01*
X1028196Y377310D01*
Y364310D01*
X1028490Y362081D01*
X1029350Y360003D01*
X1030719Y358219D01*
X1032503Y356850D01*
X1034581Y355990D01*
X1036810Y355696D01*
X1039039Y355990D01*
X1041117Y356850D01*
X1042901Y358219D01*
X1044270Y360003D01*
X1045130Y362081D01*
X1045424Y364310D01*
Y377310D01*
X1045130Y379539D01*
X1044270Y381617D01*
X1043902Y382096D01*
X1044464Y383235D01*
X1057541D01*
X1058863Y381513D01*
X1060751Y380064D01*
X1062950Y379153D01*
X1065310Y378842D01*
X1067670Y379153D01*
X1069869Y380064D01*
X1071757Y381513D01*
X1073206Y383401D01*
X1073369Y383795D01*
X1085898Y383448D01*
X1086603Y381745D01*
X1088293Y379543D01*
X1089586Y378550D01*
X1084242Y357976D01*
X1083320Y357854D01*
X1080999Y356893D01*
X1079006Y355364D01*
X1077477Y353371D01*
X1076516Y351050D01*
X1076188Y348560D01*
X1076516Y346070D01*
X1077477Y343749D01*
X1079006Y341756D01*
X1080999Y340227D01*
X1083320Y339266D01*
X1085810Y338938D01*
X1088300Y339266D01*
X1090621Y340227D01*
X1092614Y341756D01*
X1094143Y343749D01*
X1095104Y346070D01*
X1095432Y348560D01*
X1095104Y351050D01*
X1094143Y353371D01*
X1092614Y355364D01*
X1091761Y356019D01*
X1097107Y376600D01*
X1098561Y376791D01*
X1101125Y377853D01*
X1103327Y379543D01*
X1105017Y381745D01*
X1106079Y384309D01*
X1106441Y387060D01*
X1106079Y389812D01*
X1105017Y392375D01*
X1103327Y394577D01*
X1101125Y396267D01*
X1098561Y397329D01*
X1095810Y397691D01*
X1093058Y397329D01*
X1090495Y396267D01*
X1088293Y394577D01*
X1086603Y392375D01*
X1086122Y391214D01*
X1073604Y391560D01*
X1073206Y392519D01*
X1071757Y394407D01*
X1069869Y395856D01*
X1067670Y396767D01*
X1065310Y397078D01*
X1062950Y396767D01*
X1061215Y396049D01*
X1059945Y396709D01*
Y399747D01*
X1060181Y399778D01*
X1062623Y400790D01*
X1064721Y402399D01*
X1066330Y404497D01*
X1067342Y406939D01*
X1067687Y409560D01*
X1067342Y412181D01*
X1066330Y414623D01*
X1064721Y416721D01*
X1062623Y418330D01*
X1061313Y418873D01*
Y420247D01*
X1062623Y420790D01*
X1064721Y422399D01*
X1066330Y424497D01*
X1067342Y426939D01*
X1067520Y428290D01*
D02*
G37*
G36*
X896810Y417528D02*
X894450Y417217D01*
X892251Y416306D01*
X890363Y414857D01*
X888914Y412969D01*
X888003Y410770D01*
X887692Y408410D01*
X888003Y406050D01*
X888914Y403851D01*
X890363Y401963D01*
X892251Y400514D01*
X894450Y399603D01*
X896810Y399292D01*
X899170Y399603D01*
X901369Y400514D01*
X903257Y401963D01*
X904706Y403851D01*
X905617Y406050D01*
X905928Y408410D01*
X905617Y410770D01*
X904706Y412969D01*
X903257Y414857D01*
X901369Y416306D01*
X899170Y417217D01*
X896810Y417528D01*
D02*
G37*
G36*
X840810Y416928D02*
X838450Y416617D01*
X836251Y415706D01*
X834363Y414257D01*
X832914Y412369D01*
X832003Y410170D01*
X831692Y407810D01*
X832003Y405450D01*
X832914Y403251D01*
X834363Y401363D01*
X836251Y399914D01*
X838450Y399003D01*
X840810Y398692D01*
X843170Y399003D01*
X845369Y399914D01*
X847257Y401363D01*
X848706Y403251D01*
X849617Y405450D01*
X849928Y407810D01*
X849617Y410170D01*
X848706Y412369D01*
X847257Y414257D01*
X845369Y415706D01*
X843170Y416617D01*
X840810Y416928D01*
D02*
G37*
G36*
X868810Y415528D02*
X866450Y415217D01*
X864251Y414306D01*
X862363Y412857D01*
X860914Y410969D01*
X860003Y408770D01*
X859692Y406410D01*
X860003Y404050D01*
X860914Y401851D01*
X862363Y399963D01*
X864251Y398514D01*
X866450Y397603D01*
X868810Y397292D01*
X871170Y397603D01*
X873369Y398514D01*
X875257Y399963D01*
X876706Y401851D01*
X877617Y404050D01*
X877928Y406410D01*
X877617Y408770D01*
X876706Y410969D01*
X875257Y412857D01*
X873369Y414306D01*
X871170Y415217D01*
X868810Y415528D01*
D02*
G37*
G36*
X760403Y399668D02*
X752218D01*
Y391483D01*
X753439Y391644D01*
X755760Y392605D01*
X757752Y394134D01*
X759281Y396127D01*
X760243Y398448D01*
X760403Y399668D01*
D02*
G37*
G36*
X749678D02*
X741493D01*
X741654Y398448D01*
X742615Y396127D01*
X744144Y394134D01*
X746137Y392605D01*
X748458Y391644D01*
X749678Y391483D01*
Y399668D01*
D02*
G37*
G36*
X1158310Y399178D02*
X1155950Y398867D01*
X1153751Y397956D01*
X1151863Y396507D01*
X1150414Y394619D01*
X1149503Y392420D01*
X1149192Y390060D01*
X1149503Y387700D01*
X1150414Y385501D01*
X1151863Y383613D01*
X1153751Y382164D01*
X1154514Y381847D01*
X1154581Y375738D01*
X1153749Y375393D01*
X1152712Y374598D01*
X1131683Y385858D01*
X1131841Y387060D01*
X1131479Y389811D01*
X1130417Y392375D01*
X1128727Y394577D01*
X1126525Y396267D01*
X1123961Y397329D01*
X1121210Y397691D01*
X1118458Y397329D01*
X1115894Y396267D01*
X1113693Y394577D01*
X1112003Y392375D01*
X1110941Y389811D01*
X1110579Y387060D01*
X1110941Y384308D01*
X1112003Y381744D01*
X1113693Y379543D01*
X1115894Y377853D01*
X1118458Y376791D01*
X1121210Y376429D01*
X1123961Y376791D01*
X1126525Y377853D01*
X1128025Y379004D01*
X1149029Y367757D01*
X1148938Y367060D01*
X1149266Y364570D01*
X1150227Y362249D01*
X1151756Y360256D01*
X1153749Y358727D01*
X1156070Y357766D01*
X1158560Y357438D01*
X1161050Y357766D01*
X1163371Y358727D01*
X1165364Y360256D01*
X1166893Y362249D01*
X1167855Y364570D01*
X1168182Y367060D01*
X1167855Y369551D01*
X1166893Y371871D01*
X1165364Y373864D01*
X1163371Y375393D01*
X1162350Y375816D01*
X1162283Y381921D01*
X1162869Y382164D01*
X1164757Y383613D01*
X1166206Y385501D01*
X1167117Y387700D01*
X1167428Y390060D01*
X1167117Y392420D01*
X1166206Y394619D01*
X1164757Y396507D01*
X1162869Y397956D01*
X1160670Y398867D01*
X1158310Y399178D01*
D02*
G37*
G36*
X811810Y416928D02*
X809450Y416617D01*
X807251Y415706D01*
X805363Y414257D01*
X803914Y412369D01*
X803003Y410170D01*
X802692Y407810D01*
X803003Y405450D01*
X803914Y403251D01*
X805363Y401363D01*
X807251Y399914D01*
X807925Y399634D01*
Y358810D01*
X808221Y357323D01*
X809063Y356063D01*
X819063Y346063D01*
X820323Y345221D01*
X821810Y344925D01*
X869810D01*
X871297Y345221D01*
X872557Y346063D01*
X882448Y355955D01*
X884410Y355696D01*
X886639Y355990D01*
X888717Y356850D01*
X890501Y358219D01*
X891870Y360003D01*
X892730Y362081D01*
X893024Y364310D01*
Y377310D01*
X892730Y379539D01*
X891870Y381617D01*
X890501Y383401D01*
X888717Y384770D01*
X886639Y385630D01*
X884410Y385924D01*
X882181Y385630D01*
X880103Y384770D01*
X878319Y383401D01*
X876950Y381617D01*
X876090Y379539D01*
X875796Y377310D01*
Y364310D01*
X876090Y362081D01*
X876528Y361022D01*
X868201Y352695D01*
X823419D01*
X815695Y360419D01*
Y399634D01*
X816369Y399914D01*
X818257Y401363D01*
X819706Y403251D01*
X820617Y405450D01*
X820928Y407810D01*
X820617Y410170D01*
X819706Y412369D01*
X818257Y414257D01*
X816369Y415706D01*
X814170Y416617D01*
X811810Y416928D01*
D02*
G37*
G36*
X833610Y385924D02*
X831381Y385630D01*
X829303Y384770D01*
X827519Y383401D01*
X826150Y381617D01*
X825290Y379539D01*
X824996Y377310D01*
Y364310D01*
X825290Y362081D01*
X826150Y360003D01*
X827519Y358219D01*
X829303Y356850D01*
X831381Y355990D01*
X833610Y355696D01*
X835839Y355990D01*
X837917Y356850D01*
X839701Y358219D01*
X841070Y360003D01*
X841930Y362081D01*
X842224Y364310D01*
Y377310D01*
X841930Y379539D01*
X841070Y381617D01*
X839701Y383401D01*
X837917Y384770D01*
X835839Y385630D01*
X833610Y385924D01*
D02*
G37*
G36*
X1137080Y358015D02*
Y349830D01*
X1145265D01*
X1145104Y351050D01*
X1144143Y353371D01*
X1142614Y355364D01*
X1140621Y356893D01*
X1138300Y357854D01*
X1137080Y358015D01*
D02*
G37*
G36*
X1134540D02*
X1133320Y357854D01*
X1130999Y356893D01*
X1129006Y355364D01*
X1127477Y353371D01*
X1126516Y351050D01*
X1126355Y349830D01*
X1134540D01*
Y358015D01*
D02*
G37*
G36*
X750948Y360560D02*
X748458Y360233D01*
X746137Y359271D01*
X744144Y357742D01*
X742615Y355749D01*
X741654Y353428D01*
X741326Y350938D01*
X741654Y348448D01*
X742615Y346127D01*
X744144Y344134D01*
X746137Y342605D01*
X748458Y341644D01*
X750948Y341316D01*
X753439Y341644D01*
X755760Y342605D01*
X757752Y344134D01*
X759281Y346127D01*
X760243Y348448D01*
X760571Y350938D01*
X760243Y353428D01*
X759281Y355749D01*
X757752Y357742D01*
X755760Y359271D01*
X753439Y360233D01*
X750948Y360560D01*
D02*
G37*
G36*
X1145265Y347290D02*
X1137080D01*
Y339105D01*
X1138300Y339266D01*
X1140621Y340227D01*
X1142614Y341756D01*
X1144143Y343749D01*
X1145104Y346070D01*
X1145265Y347290D01*
D02*
G37*
G36*
X1134540D02*
X1126355D01*
X1126516Y346070D01*
X1127477Y343749D01*
X1129006Y341756D01*
X1130999Y340227D01*
X1133320Y339266D01*
X1134540Y339105D01*
Y347290D01*
D02*
G37*
G36*
X1158560Y326682D02*
X1156070Y326354D01*
X1153749Y325393D01*
X1151756Y323864D01*
X1150227Y321871D01*
X1149874Y321020D01*
X1143417Y321077D01*
X1142207Y321241D01*
X1142193Y321246D01*
X1140983Y321114D01*
X1138811Y321162D01*
X1138456Y322019D01*
X1137007Y323907D01*
X1135119Y325356D01*
X1132920Y326267D01*
X1130560Y326578D01*
X1128200Y326267D01*
X1126001Y325356D01*
X1124113Y323907D01*
X1122664Y322019D01*
X1121753Y319820D01*
X1121442Y317460D01*
X1121452Y317382D01*
X1112912Y313265D01*
X1111045Y314697D01*
X1108481Y315759D01*
X1105730Y316121D01*
X1102978Y315759D01*
X1100414Y314697D01*
X1098213Y313007D01*
X1096523Y310805D01*
X1095461Y308241D01*
X1095099Y305490D01*
X1095461Y302738D01*
X1096523Y300175D01*
X1098213Y297973D01*
X1100414Y296283D01*
X1102978Y295221D01*
X1105730Y294859D01*
X1108481Y295221D01*
X1111045Y296283D01*
X1113247Y297973D01*
X1114937Y300175D01*
X1115999Y302738D01*
X1116361Y305490D01*
X1116260Y306254D01*
X1124892Y310415D01*
X1126001Y309564D01*
X1128200Y308653D01*
X1130560Y308342D01*
X1132920Y308653D01*
X1135119Y309564D01*
X1137007Y311013D01*
X1138456Y312901D01*
X1138661Y313394D01*
X1140830Y313346D01*
X1142030Y313306D01*
Y313306D01*
X1140830Y313346D01*
X1142030Y313305D01*
X1142030Y313297D01*
X1142088Y313285D01*
X1142089Y313304D01*
X1143294Y313308D01*
X1143294Y313308D01*
X1149812Y313251D01*
X1150227Y312249D01*
X1151756Y310256D01*
X1153749Y308727D01*
X1156070Y307766D01*
X1158560Y307438D01*
X1161050Y307766D01*
X1163371Y308727D01*
X1165364Y310256D01*
X1166893Y312249D01*
X1167855Y314570D01*
X1168182Y317060D01*
X1167855Y319550D01*
X1166893Y321871D01*
X1165364Y323864D01*
X1163371Y325393D01*
X1161050Y326354D01*
X1158560Y326682D01*
D02*
G37*
G36*
X750810Y339432D02*
X748320Y339104D01*
X745999Y338143D01*
X744006Y336614D01*
X742477Y334621D01*
X741516Y332300D01*
X741188Y329810D01*
X741516Y327319D01*
X742477Y324999D01*
X744006Y323006D01*
X745999Y321477D01*
X748320Y320516D01*
X750810Y320188D01*
X753300Y320516D01*
X755621Y321477D01*
X757614Y323006D01*
X759143Y324999D01*
X760104Y327319D01*
X760432Y329810D01*
X760104Y332300D01*
X759143Y334621D01*
X757614Y336614D01*
X755621Y338143D01*
X753300Y339104D01*
X750810Y339432D01*
D02*
G37*
G36*
X1065310Y371678D02*
X1062950Y371367D01*
X1060751Y370456D01*
X1058863Y369007D01*
X1057414Y367119D01*
X1056503Y364920D01*
X1056192Y362560D01*
X1056503Y360200D01*
X1057414Y358001D01*
X1058863Y356113D01*
X1060751Y354664D01*
X1061175Y354488D01*
Y322075D01*
X1002290D01*
X1000803Y321779D01*
X999543Y320937D01*
X987862Y309255D01*
X987439Y309430D01*
X985210Y309724D01*
X982981Y309430D01*
X980903Y308570D01*
X979119Y307201D01*
X977750Y305417D01*
X976890Y303339D01*
X976596Y301110D01*
Y288110D01*
X976890Y285881D01*
X977750Y283803D01*
X979119Y282019D01*
X980903Y280650D01*
X982981Y279790D01*
X985210Y279496D01*
X987439Y279790D01*
X989517Y280650D01*
X991301Y282019D01*
X992670Y283803D01*
X993530Y285881D01*
X993824Y288110D01*
Y301110D01*
X993530Y303339D01*
X993355Y303762D01*
X1003899Y314305D01*
X1070531D01*
X1071123Y312875D01*
X1072813Y310673D01*
X1075014Y308983D01*
X1077578Y307921D01*
X1080330Y307559D01*
X1083081Y307921D01*
X1085645Y308983D01*
X1087847Y310673D01*
X1089537Y312875D01*
X1090599Y315438D01*
X1090961Y318190D01*
X1090599Y320941D01*
X1089537Y323505D01*
X1087847Y325707D01*
X1085645Y327397D01*
X1083081Y328459D01*
X1080330Y328821D01*
X1077578Y328459D01*
X1075014Y327397D01*
X1072813Y325707D01*
X1071123Y323505D01*
X1070531Y322075D01*
X1068945D01*
Y354281D01*
X1069869Y354664D01*
X1071757Y356113D01*
X1073206Y358001D01*
X1074117Y360200D01*
X1074428Y362560D01*
X1074117Y364920D01*
X1073206Y367119D01*
X1071757Y369007D01*
X1069869Y370456D01*
X1067670Y371367D01*
X1065310Y371678D01*
D02*
G37*
G36*
X935680Y309557D02*
Y295880D01*
X943024D01*
Y301110D01*
X942730Y303339D01*
X941870Y305417D01*
X940501Y307201D01*
X938717Y308570D01*
X936639Y309430D01*
X935680Y309557D01*
D02*
G37*
G36*
X933140Y309557D02*
X932181Y309430D01*
X930103Y308570D01*
X928319Y307201D01*
X926950Y305417D01*
X926090Y303339D01*
X925796Y301110D01*
Y295880D01*
X933140D01*
Y309557D01*
D02*
G37*
G36*
X1081600Y303254D02*
Y294060D01*
X1090794D01*
X1090599Y295541D01*
X1089537Y298105D01*
X1087847Y300307D01*
X1085645Y301997D01*
X1083081Y303059D01*
X1081600Y303254D01*
D02*
G37*
G36*
X1079060Y303254D02*
X1077578Y303059D01*
X1075014Y301997D01*
X1072813Y300307D01*
X1071123Y298105D01*
X1070061Y295541D01*
X1069866Y294060D01*
X1079060D01*
Y303254D01*
D02*
G37*
G36*
X1130560Y301178D02*
X1128200Y300867D01*
X1126001Y299956D01*
X1124113Y298507D01*
X1122664Y296619D01*
X1121753Y294420D01*
X1121442Y292060D01*
X1121753Y289700D01*
X1122664Y287501D01*
X1124113Y285613D01*
X1126001Y284164D01*
X1128200Y283253D01*
X1130560Y282942D01*
X1132920Y283253D01*
X1135119Y284164D01*
X1137007Y285613D01*
X1138456Y287501D01*
X1139367Y289700D01*
X1139678Y292060D01*
X1139367Y294420D01*
X1138456Y296619D01*
X1137007Y298507D01*
X1135119Y299956D01*
X1132920Y300867D01*
X1130560Y301178D01*
D02*
G37*
G36*
X1079060Y291520D02*
X1069866D01*
X1070061Y290038D01*
X1071123Y287474D01*
X1072813Y285273D01*
X1075014Y283583D01*
X1077578Y282521D01*
X1079060Y282326D01*
Y291520D01*
D02*
G37*
G36*
X1090794D02*
X1081600D01*
Y282326D01*
X1083081Y282521D01*
X1085645Y283583D01*
X1087847Y285273D01*
X1089537Y287474D01*
X1090599Y290038D01*
X1090794Y291520D01*
D02*
G37*
G36*
X752080Y289265D02*
Y281080D01*
X760265D01*
X760104Y282300D01*
X759143Y284621D01*
X757614Y286614D01*
X755621Y288143D01*
X753300Y289104D01*
X752080Y289265D01*
D02*
G37*
G36*
X749540D02*
X748320Y289104D01*
X745999Y288143D01*
X744006Y286614D01*
X742477Y284621D01*
X741516Y282300D01*
X741355Y281080D01*
X749540D01*
Y289265D01*
D02*
G37*
G36*
X933140Y293340D02*
X925796D01*
Y288110D01*
X926090Y285881D01*
X926950Y283803D01*
X928319Y282019D01*
X930103Y280650D01*
X932181Y279790D01*
X933140Y279664D01*
Y293340D01*
D02*
G37*
G36*
X943024D02*
X935680D01*
Y279664D01*
X936639Y279790D01*
X938717Y280650D01*
X940501Y282019D01*
X941870Y283803D01*
X942730Y285881D01*
X943024Y288110D01*
Y293340D01*
D02*
G37*
G36*
X1044550Y309650D02*
X1027470D01*
Y279570D01*
X1044550D01*
Y309650D01*
D02*
G37*
G36*
X1010610Y309724D02*
X1008381Y309430D01*
X1006303Y308570D01*
X1004519Y307201D01*
X1003150Y305417D01*
X1002290Y303339D01*
X1001996Y301110D01*
Y288110D01*
X1002290Y285881D01*
X1003150Y283803D01*
X1004519Y282019D01*
X1006303Y280650D01*
X1008381Y279790D01*
X1010610Y279496D01*
X1012839Y279790D01*
X1014917Y280650D01*
X1016701Y282019D01*
X1018070Y283803D01*
X1018930Y285881D01*
X1019224Y288110D01*
Y301110D01*
X1018930Y303339D01*
X1018070Y305417D01*
X1016701Y307201D01*
X1014917Y308570D01*
X1012839Y309430D01*
X1010610Y309724D01*
D02*
G37*
G36*
X959810D02*
X957581Y309430D01*
X955503Y308570D01*
X953719Y307201D01*
X952350Y305417D01*
X951490Y303339D01*
X951196Y301110D01*
Y288110D01*
X951490Y285881D01*
X952350Y283803D01*
X953719Y282019D01*
X955503Y280650D01*
X957581Y279790D01*
X959810Y279496D01*
X962039Y279790D01*
X964117Y280650D01*
X965901Y282019D01*
X967270Y283803D01*
X968130Y285881D01*
X968424Y288110D01*
Y301110D01*
X968130Y303339D01*
X967270Y305417D01*
X965901Y307201D01*
X964117Y308570D01*
X962039Y309430D01*
X959810Y309724D01*
D02*
G37*
G36*
X909010D02*
X906781Y309430D01*
X904703Y308570D01*
X902919Y307201D01*
X901550Y305417D01*
X900690Y303339D01*
X900396Y301110D01*
Y288110D01*
X900690Y285881D01*
X901550Y283803D01*
X902919Y282019D01*
X904703Y280650D01*
X906781Y279790D01*
X909010Y279496D01*
X911239Y279790D01*
X913317Y280650D01*
X915101Y282019D01*
X916470Y283803D01*
X917330Y285881D01*
X917624Y288110D01*
Y301110D01*
X917330Y303339D01*
X916470Y305417D01*
X915101Y307201D01*
X913317Y308570D01*
X911239Y309430D01*
X909010Y309724D01*
D02*
G37*
G36*
X883610D02*
X881381Y309430D01*
X879303Y308570D01*
X877519Y307201D01*
X876150Y305417D01*
X875290Y303339D01*
X874996Y301110D01*
Y288110D01*
X875290Y285881D01*
X876150Y283803D01*
X877519Y282019D01*
X879303Y280650D01*
X881381Y279790D01*
X883610Y279496D01*
X885839Y279790D01*
X887917Y280650D01*
X889701Y282019D01*
X891070Y283803D01*
X891930Y285881D01*
X892224Y288110D01*
Y301110D01*
X891930Y303339D01*
X891070Y305417D01*
X889701Y307201D01*
X887917Y308570D01*
X885839Y309430D01*
X883610Y309724D01*
D02*
G37*
G36*
X858210D02*
X855981Y309430D01*
X853903Y308570D01*
X852119Y307201D01*
X850750Y305417D01*
X849890Y303339D01*
X849596Y301110D01*
Y288110D01*
X849890Y285881D01*
X850750Y283803D01*
X852119Y282019D01*
X853903Y280650D01*
X855981Y279790D01*
X858210Y279496D01*
X860439Y279790D01*
X862517Y280650D01*
X864301Y282019D01*
X865670Y283803D01*
X866530Y285881D01*
X866824Y288110D01*
Y301110D01*
X866530Y303339D01*
X865670Y305417D01*
X864301Y307201D01*
X862517Y308570D01*
X860439Y309430D01*
X858210Y309724D01*
D02*
G37*
G36*
X832810D02*
X830581Y309430D01*
X828503Y308570D01*
X826719Y307201D01*
X825350Y305417D01*
X824490Y303339D01*
X824196Y301110D01*
Y288110D01*
X824490Y285881D01*
X825350Y283803D01*
X826719Y282019D01*
X828503Y280650D01*
X830581Y279790D01*
X832810Y279496D01*
X835039Y279790D01*
X837117Y280650D01*
X838901Y282019D01*
X840270Y283803D01*
X841130Y285881D01*
X841424Y288110D01*
Y301110D01*
X841130Y303339D01*
X840270Y305417D01*
X838901Y307201D01*
X837117Y308570D01*
X835039Y309430D01*
X832810Y309724D01*
D02*
G37*
G36*
X760265Y278540D02*
X752080D01*
Y270355D01*
X753300Y270515D01*
X755621Y271477D01*
X757614Y273006D01*
X759143Y274999D01*
X760104Y277320D01*
X760265Y278540D01*
D02*
G37*
G36*
X749540D02*
X741355D01*
X741516Y277320D01*
X742477Y274999D01*
X744006Y273006D01*
X745999Y271477D01*
X748320Y270515D01*
X749540Y270355D01*
Y278540D01*
D02*
G37*
%LPD*%
G36*
X978918Y382096D02*
X978550Y381617D01*
X977690Y379539D01*
X977396Y377310D01*
Y364310D01*
X977658Y362324D01*
X948411Y337541D01*
X948254Y337344D01*
X947701Y336919D01*
X947087Y336120D01*
X946817Y335888D01*
X945090Y333695D01*
X933848D01*
X933362Y334868D01*
X955760Y357267D01*
X956303Y356850D01*
X958381Y355990D01*
X960610Y355696D01*
X962839Y355990D01*
X964917Y356850D01*
X966701Y358219D01*
X968070Y360003D01*
X968930Y362081D01*
X969224Y364310D01*
Y377310D01*
X968930Y379539D01*
X968070Y381617D01*
X967702Y382096D01*
X968263Y383235D01*
X978356D01*
X978918Y382096D01*
D02*
G37*
%LPC*%
G36*
X507810Y579537D02*
X505189Y579192D01*
X502747Y578180D01*
X500649Y576571D01*
X499040Y574473D01*
X498028Y572031D01*
X497683Y569410D01*
X498028Y566789D01*
X499040Y564347D01*
X500649Y562249D01*
X502747Y560640D01*
X505189Y559628D01*
X507810Y559283D01*
X510431Y559628D01*
X512873Y560640D01*
X514971Y562249D01*
X516580Y564347D01*
X517592Y566789D01*
X517937Y569410D01*
X517592Y572031D01*
X516580Y574473D01*
X514971Y576571D01*
X512873Y578180D01*
X510431Y579192D01*
X507810Y579537D01*
D02*
G37*
G36*
X482410D02*
X479789Y579192D01*
X477347Y578180D01*
X475249Y576571D01*
X473640Y574473D01*
X472628Y572031D01*
X472283Y569410D01*
X472628Y566789D01*
X473640Y564347D01*
X475249Y562249D01*
X477347Y560640D01*
X479789Y559628D01*
X482410Y559283D01*
X485031Y559628D01*
X487473Y560640D01*
X489571Y562249D01*
X491180Y564347D01*
X492192Y566789D01*
X492537Y569410D01*
X492192Y572031D01*
X491180Y574473D01*
X489571Y576571D01*
X487473Y578180D01*
X485031Y579192D01*
X482410Y579537D01*
D02*
G37*
G36*
X457010D02*
X454389Y579192D01*
X451947Y578180D01*
X449849Y576571D01*
X448240Y574473D01*
X447228Y572031D01*
X446883Y569410D01*
X447228Y566789D01*
X447717Y565610D01*
X372063Y489957D01*
X371965Y489809D01*
X370695Y490195D01*
Y503001D01*
X427810Y560117D01*
X428989Y559628D01*
X431610Y559283D01*
X434231Y559628D01*
X436673Y560640D01*
X438771Y562249D01*
X440380Y564347D01*
X441391Y566789D01*
X441737Y569410D01*
X441391Y572031D01*
X440380Y574473D01*
X438771Y576571D01*
X436673Y578180D01*
X434231Y579192D01*
X431610Y579537D01*
X428989Y579192D01*
X426547Y578180D01*
X424449Y576571D01*
X422840Y574473D01*
X421828Y572031D01*
X421483Y569410D01*
X421828Y566789D01*
X422317Y565610D01*
X364063Y507357D01*
X363221Y506097D01*
X362925Y504610D01*
Y455819D01*
X348844Y441738D01*
X348170Y442017D01*
X345810Y442328D01*
X343450Y442017D01*
X341251Y441106D01*
X339363Y439657D01*
X337914Y437769D01*
X337003Y435570D01*
X336692Y433210D01*
X337003Y430850D01*
X337914Y428651D01*
X339363Y426763D01*
X341251Y425314D01*
X343450Y424403D01*
X345810Y424092D01*
X348170Y424403D01*
X350369Y425314D01*
X352257Y426763D01*
X353706Y428651D01*
X354617Y430850D01*
X354928Y433210D01*
X354617Y435570D01*
X354338Y436244D01*
X369557Y451463D01*
X369655Y451610D01*
X370925Y451225D01*
Y441386D01*
X370251Y441106D01*
X368363Y439657D01*
X366914Y437769D01*
X366003Y435570D01*
X365692Y433210D01*
X366003Y430850D01*
X366914Y428651D01*
X368363Y426763D01*
X370251Y425314D01*
X372450Y424403D01*
X374810Y424092D01*
X377170Y424403D01*
X379369Y425314D01*
X381257Y426763D01*
X382706Y428651D01*
X383617Y430850D01*
X383928Y433210D01*
X383617Y435570D01*
X382706Y437769D01*
X381257Y439657D01*
X379369Y441106D01*
X378695Y441386D01*
Y485601D01*
X453210Y560117D01*
X454389Y559628D01*
X457010Y559283D01*
X459631Y559628D01*
X462073Y560640D01*
X464171Y562249D01*
X465780Y564347D01*
X466791Y566789D01*
X467137Y569410D01*
X466791Y572031D01*
X465780Y574473D01*
X464171Y576571D01*
X462073Y578180D01*
X459631Y579192D01*
X457010Y579537D01*
D02*
G37*
G36*
X406210D02*
X403589Y579192D01*
X401147Y578180D01*
X399049Y576571D01*
X397440Y574473D01*
X396428Y572031D01*
X396083Y569410D01*
X396428Y566789D01*
X397440Y564347D01*
X399049Y562249D01*
X401147Y560640D01*
X403589Y559628D01*
X406210Y559283D01*
X408831Y559628D01*
X411273Y560640D01*
X413371Y562249D01*
X414980Y564347D01*
X415992Y566789D01*
X416337Y569410D01*
X415992Y572031D01*
X414980Y574473D01*
X413371Y576571D01*
X411273Y578180D01*
X408831Y579192D01*
X406210Y579537D01*
D02*
G37*
G36*
X337080Y533265D02*
Y525080D01*
X345265D01*
X345104Y526301D01*
X344143Y528621D01*
X342614Y530614D01*
X340621Y532143D01*
X338300Y533105D01*
X337080Y533265D01*
D02*
G37*
G36*
X334540D02*
X333320Y533105D01*
X330999Y532143D01*
X329006Y530614D01*
X327477Y528621D01*
X326516Y526301D01*
X326355Y525080D01*
X334540D01*
Y533265D01*
D02*
G37*
G36*
X289080Y545335D02*
Y519080D01*
X315335D01*
X315095Y522132D01*
X314083Y526347D01*
X312424Y530352D01*
X310159Y534048D01*
X307344Y537344D01*
X304048Y540159D01*
X300352Y542424D01*
X296347Y544083D01*
X292132Y545095D01*
X289080Y545335D01*
D02*
G37*
G36*
X659080D02*
Y519080D01*
X685335D01*
X685095Y522132D01*
X684083Y526347D01*
X682424Y530352D01*
X680159Y534048D01*
X677344Y537344D01*
X674048Y540159D01*
X670351Y542424D01*
X666347Y544083D01*
X662132Y545095D01*
X659080Y545335D01*
D02*
G37*
G36*
X656540D02*
X653488Y545095D01*
X649273Y544083D01*
X645268Y542424D01*
X641572Y540159D01*
X638276Y537344D01*
X635461Y534048D01*
X633196Y530352D01*
X631537Y526347D01*
X630525Y522132D01*
X630285Y519080D01*
X656540D01*
Y545335D01*
D02*
G37*
G36*
X345265Y522540D02*
X337080D01*
Y514355D01*
X338300Y514516D01*
X340621Y515477D01*
X342614Y517006D01*
X344143Y518999D01*
X345104Y521320D01*
X345265Y522540D01*
D02*
G37*
G36*
X334540D02*
X326355D01*
X326516Y521320D01*
X327477Y518999D01*
X329006Y517006D01*
X330999Y515477D01*
X333320Y514516D01*
X334540Y514355D01*
Y522540D01*
D02*
G37*
G36*
X697060Y500473D02*
X694580D01*
Y491580D01*
X703473D01*
Y494060D01*
X702985Y496514D01*
X701595Y498595D01*
X699514Y499985D01*
X697060Y500473D01*
D02*
G37*
G36*
X692040D02*
X689560D01*
X687106Y499985D01*
X685025Y498595D01*
X683635Y496514D01*
X683147Y494060D01*
Y491580D01*
X692040D01*
Y500473D01*
D02*
G37*
G36*
X685335Y516540D02*
X659080D01*
Y490285D01*
X662132Y490525D01*
X666347Y491537D01*
X670351Y493196D01*
X674048Y495461D01*
X677344Y498276D01*
X680159Y501572D01*
X682424Y505269D01*
X684083Y509273D01*
X685095Y513489D01*
X685335Y516540D01*
D02*
G37*
G36*
X315335Y516540D02*
X289080D01*
Y490285D01*
X292132Y490525D01*
X296347Y491537D01*
X300352Y493196D01*
X304048Y495461D01*
X307344Y498276D01*
X310159Y501572D01*
X312424Y505269D01*
X314083Y509273D01*
X315095Y513489D01*
X315335Y516540D01*
D02*
G37*
G36*
X656540Y516540D02*
X630285D01*
X630525Y513489D01*
X631537Y509273D01*
X633196Y505269D01*
X635461Y501572D01*
X638276Y498276D01*
X641572Y495461D01*
X645268Y493196D01*
X649273Y491537D01*
X653488Y490525D01*
X656540Y490285D01*
Y516540D01*
D02*
G37*
G36*
X703473Y489040D02*
X694580D01*
Y480147D01*
X697060D01*
X699514Y480635D01*
X701595Y482025D01*
X702985Y484106D01*
X703473Y486560D01*
Y489040D01*
D02*
G37*
G36*
X692040D02*
X683147D01*
Y486560D01*
X683635Y484106D01*
X685025Y482025D01*
X687106Y480635D01*
X689560Y480147D01*
X692040D01*
Y489040D01*
D02*
G37*
G36*
X533210Y579537D02*
X530589Y579192D01*
X528147Y578180D01*
X526049Y576571D01*
X524440Y574473D01*
X523428Y572031D01*
X523083Y569410D01*
X523428Y566789D01*
X524440Y564347D01*
X526049Y562249D01*
X528147Y560640D01*
X530589Y559628D01*
X533210Y559283D01*
X535831Y559628D01*
X537010Y560117D01*
X540635Y556491D01*
Y476368D01*
X539365Y475742D01*
X538273Y476580D01*
X535831Y477592D01*
X533210Y477937D01*
X530589Y477592D01*
X528147Y476580D01*
X526049Y474971D01*
X524440Y472873D01*
X523428Y470431D01*
X523083Y467810D01*
X523428Y465189D01*
X524440Y462747D01*
X526049Y460649D01*
X528147Y459040D01*
X530589Y458028D01*
X533210Y457683D01*
X535831Y458028D01*
X538273Y459040D01*
X539365Y459878D01*
X540635Y459252D01*
Y443280D01*
X539251Y442706D01*
X537363Y441257D01*
X535914Y439369D01*
X535003Y437170D01*
X534692Y434810D01*
X535003Y432450D01*
X535914Y430251D01*
X537363Y428363D01*
X539251Y426914D01*
X541450Y426003D01*
X543810Y425692D01*
X546170Y426003D01*
X548369Y426914D01*
X550257Y428363D01*
X551706Y430251D01*
X552617Y432450D01*
X552928Y434810D01*
X552617Y437170D01*
X551706Y439369D01*
X550257Y441257D01*
X548405Y442679D01*
Y558100D01*
X548109Y559587D01*
X547267Y560847D01*
X542503Y565610D01*
X542991Y566789D01*
X543337Y569410D01*
X542991Y572031D01*
X541980Y574473D01*
X540371Y576571D01*
X538273Y578180D01*
X535831Y579192D01*
X533210Y579537D01*
D02*
G37*
G36*
X286560Y483473D02*
X284080D01*
Y474580D01*
X292973D01*
Y477060D01*
X292485Y479514D01*
X291095Y481595D01*
X289014Y482985D01*
X286560Y483473D01*
D02*
G37*
G36*
X281540D02*
X279060D01*
X276606Y482985D01*
X274525Y481595D01*
X273135Y479514D01*
X272647Y477060D01*
Y474580D01*
X281540D01*
Y483473D01*
D02*
G37*
G36*
X313560Y483973D02*
X306060D01*
X303606Y483485D01*
X301525Y482095D01*
X300135Y480014D01*
X299647Y477560D01*
Y470060D01*
X300135Y467606D01*
X301525Y465525D01*
X303606Y464135D01*
X306060Y463647D01*
X306125D01*
Y452226D01*
X304895Y451717D01*
X302693Y450027D01*
X301003Y447826D01*
X299941Y445261D01*
X299579Y442510D01*
X299941Y439758D01*
X301003Y437195D01*
X302693Y434993D01*
X304895Y433303D01*
X307458Y432241D01*
X310210Y431879D01*
X312962Y432241D01*
X315525Y433303D01*
X317727Y434993D01*
X319417Y437195D01*
X320479Y439758D01*
X320841Y442510D01*
X320479Y445261D01*
X319417Y447826D01*
X317727Y450027D01*
X315525Y451717D01*
X313895Y452392D01*
Y463713D01*
X316014Y464135D01*
X318095Y465525D01*
X319485Y467606D01*
X319946Y469925D01*
X327093D01*
X327477Y468999D01*
X329006Y467006D01*
X330999Y465477D01*
X333320Y464516D01*
X335810Y464188D01*
X338300Y464516D01*
X340621Y465477D01*
X342614Y467006D01*
X344143Y468999D01*
X345104Y471320D01*
X345432Y473810D01*
X345104Y476300D01*
X344143Y478621D01*
X342614Y480614D01*
X340621Y482143D01*
X338300Y483104D01*
X335810Y483432D01*
X333320Y483104D01*
X330999Y482143D01*
X329006Y480614D01*
X327477Y478621D01*
X327093Y477695D01*
X319946D01*
X319485Y480014D01*
X318095Y482095D01*
X316014Y483485D01*
X313560Y483973D01*
D02*
G37*
G36*
X292973Y472040D02*
X284080D01*
Y463147D01*
X286560D01*
X289014Y463635D01*
X291095Y465025D01*
X292485Y467106D01*
X292973Y469560D01*
Y472040D01*
D02*
G37*
G36*
X281540D02*
X272647D01*
Y469560D01*
X273135Y467106D01*
X274525Y465025D01*
X276606Y463635D01*
X279060Y463147D01*
X281540D01*
Y472040D01*
D02*
G37*
G36*
X669230Y447511D02*
Y439830D01*
X676911D01*
X676767Y440920D01*
X675856Y443119D01*
X674407Y445007D01*
X672519Y446456D01*
X670320Y447367D01*
X669230Y447511D01*
D02*
G37*
G36*
X666690Y447511D02*
X665600Y447367D01*
X663401Y446456D01*
X661513Y445007D01*
X660064Y443119D01*
X659153Y440920D01*
X659009Y439830D01*
X666690D01*
Y447511D01*
D02*
G37*
G36*
X286080Y440274D02*
Y431080D01*
X295274D01*
X295079Y432561D01*
X294017Y435126D01*
X292327Y437327D01*
X290126Y439017D01*
X287561Y440079D01*
X286080Y440274D01*
D02*
G37*
G36*
X283540Y440274D02*
X282059Y440079D01*
X279494Y439017D01*
X277293Y437327D01*
X275603Y435126D01*
X274541Y432561D01*
X274346Y431080D01*
X283540D01*
Y440274D01*
D02*
G37*
G36*
X591560Y439687D02*
X591330D01*
Y430830D01*
X601519D01*
X601342Y432181D01*
X600330Y434623D01*
X598721Y436721D01*
X596623Y438330D01*
X594181Y439342D01*
X591560Y439687D01*
D02*
G37*
G36*
X588790D02*
X588560D01*
X585939Y439342D01*
X583497Y438330D01*
X581399Y436721D01*
X579790Y434623D01*
X578778Y432181D01*
X578601Y430830D01*
X588790D01*
Y439687D01*
D02*
G37*
G36*
X692810Y474932D02*
X690320Y474604D01*
X687999Y473643D01*
X686006Y472114D01*
X684477Y470121D01*
X683515Y467800D01*
X683188Y465310D01*
X683515Y462820D01*
X684477Y460499D01*
X686006Y458506D01*
X687999Y456977D01*
X688925Y456593D01*
Y449897D01*
X686856Y449485D01*
X684775Y448095D01*
X683385Y446014D01*
X682897Y443560D01*
Y436060D01*
X683385Y433606D01*
X684775Y431525D01*
X686856Y430135D01*
X689310Y429647D01*
X696810D01*
X699264Y430135D01*
X701345Y431525D01*
X702735Y433606D01*
X703223Y436060D01*
Y443560D01*
X702735Y446014D01*
X701345Y448095D01*
X699264Y449485D01*
X696810Y449973D01*
X696695D01*
Y456593D01*
X697621Y456977D01*
X699614Y458506D01*
X701143Y460499D01*
X702104Y462820D01*
X702432Y465310D01*
X702104Y467800D01*
X701143Y470121D01*
X699614Y472114D01*
X697621Y473643D01*
X695300Y474604D01*
X692810Y474932D01*
D02*
G37*
G36*
X676911Y437290D02*
X669230D01*
Y429609D01*
X670320Y429753D01*
X672519Y430664D01*
X674407Y432113D01*
X675856Y434001D01*
X676767Y436200D01*
X676911Y437290D01*
D02*
G37*
G36*
X666690D02*
X659009D01*
X659153Y436200D01*
X660064Y434001D01*
X661513Y432113D01*
X663401Y430664D01*
X665600Y429753D01*
X666690Y429609D01*
Y437290D01*
D02*
G37*
G36*
X507810Y477937D02*
X505189Y477592D01*
X502747Y476580D01*
X500649Y474971D01*
X499040Y472873D01*
X498028Y470431D01*
X497683Y467810D01*
X498028Y465189D01*
X499040Y462747D01*
X500649Y460649D01*
X502747Y459040D01*
X503925Y458552D01*
Y442391D01*
X504221Y440904D01*
X505063Y439644D01*
X506452Y438255D01*
X506003Y437170D01*
X505692Y434810D01*
X506003Y432450D01*
X506914Y430251D01*
X508363Y428363D01*
X510251Y426914D01*
X512450Y426003D01*
X514810Y425692D01*
X517170Y426003D01*
X519369Y426914D01*
X521257Y428363D01*
X522706Y430251D01*
X523617Y432450D01*
X523928Y434810D01*
X523617Y437170D01*
X522706Y439369D01*
X521257Y441257D01*
X519369Y442706D01*
X517170Y443617D01*
X514810Y443928D01*
X512827Y443667D01*
X511915Y444367D01*
X511695Y444676D01*
Y458552D01*
X512873Y459040D01*
X514971Y460649D01*
X516580Y462747D01*
X517592Y465189D01*
X517937Y467810D01*
X517592Y470431D01*
X516580Y472873D01*
X514971Y474971D01*
X512873Y476580D01*
X510431Y477592D01*
X507810Y477937D01*
D02*
G37*
G36*
X482410D02*
X479789Y477592D01*
X477347Y476580D01*
X475249Y474971D01*
X473640Y472873D01*
X472628Y470431D01*
X472283Y467810D01*
X472628Y465189D01*
X473640Y462747D01*
X475249Y460649D01*
X477347Y459040D01*
X478525Y458552D01*
Y451210D01*
X478821Y449723D01*
X479663Y448463D01*
X481715Y446411D01*
Y442299D01*
X481251Y442106D01*
X479363Y440657D01*
X477914Y438769D01*
X477003Y436570D01*
X476692Y434210D01*
X477003Y431850D01*
X477914Y429651D01*
X479363Y427763D01*
X481251Y426314D01*
X483450Y425403D01*
X485810Y425092D01*
X488170Y425403D01*
X490369Y426314D01*
X492257Y427763D01*
X493706Y429651D01*
X494617Y431850D01*
X494928Y434210D01*
X494617Y436570D01*
X493706Y438769D01*
X492257Y440657D01*
X490369Y442106D01*
X489485Y442473D01*
Y448020D01*
X489189Y449507D01*
X488347Y450767D01*
X486295Y452819D01*
Y458552D01*
X487473Y459040D01*
X489571Y460649D01*
X491180Y462747D01*
X492192Y465189D01*
X492537Y467810D01*
X492192Y470431D01*
X491180Y472873D01*
X489571Y474971D01*
X487473Y476580D01*
X485031Y477592D01*
X482410Y477937D01*
D02*
G37*
G36*
X457010D02*
X454389Y477592D01*
X451947Y476580D01*
X449849Y474971D01*
X448240Y472873D01*
X447228Y470431D01*
X446883Y467810D01*
X447228Y465189D01*
X448240Y462747D01*
X449849Y460649D01*
X451947Y459040D01*
X454025Y458179D01*
Y441533D01*
X452363Y440257D01*
X450914Y438369D01*
X450003Y436170D01*
X449692Y433810D01*
X450003Y431450D01*
X450914Y429251D01*
X452363Y427363D01*
X454251Y425914D01*
X456450Y425003D01*
X458810Y424692D01*
X461170Y425003D01*
X463369Y425914D01*
X465257Y427363D01*
X466706Y429251D01*
X467617Y431450D01*
X467928Y433810D01*
X467617Y436170D01*
X466706Y438369D01*
X465257Y440257D01*
X463369Y441706D01*
X461795Y442359D01*
Y458925D01*
X462073Y459040D01*
X464171Y460649D01*
X465780Y462747D01*
X466791Y465189D01*
X467137Y467810D01*
X466791Y470431D01*
X465780Y472873D01*
X464171Y474971D01*
X462073Y476580D01*
X459631Y477592D01*
X457010Y477937D01*
D02*
G37*
G36*
X431610D02*
X428989Y477592D01*
X426547Y476580D01*
X424449Y474971D01*
X422840Y472873D01*
X421828Y470431D01*
X421483Y467810D01*
X421828Y465189D01*
X422840Y462747D01*
X424449Y460649D01*
X426547Y459040D01*
X427725Y458552D01*
Y442317D01*
X426251Y441706D01*
X424363Y440257D01*
X422914Y438369D01*
X422003Y436170D01*
X421692Y433810D01*
X422003Y431450D01*
X422914Y429251D01*
X424363Y427363D01*
X426251Y425914D01*
X428450Y425003D01*
X430810Y424692D01*
X433170Y425003D01*
X435369Y425914D01*
X437257Y427363D01*
X438706Y429251D01*
X439617Y431450D01*
X439928Y433810D01*
X439617Y436170D01*
X438706Y438369D01*
X437257Y440257D01*
X435495Y441610D01*
Y458552D01*
X436673Y459040D01*
X438771Y460649D01*
X440380Y462747D01*
X441391Y465189D01*
X441737Y467810D01*
X441391Y470431D01*
X440380Y472873D01*
X438771Y474971D01*
X436673Y476580D01*
X434231Y477592D01*
X431610Y477937D01*
D02*
G37*
G36*
X406210D02*
X403589Y477592D01*
X401147Y476580D01*
X399049Y474971D01*
X397440Y472873D01*
X396428Y470431D01*
X396083Y467810D01*
X396428Y465189D01*
X397440Y462747D01*
X399049Y460649D01*
X401147Y459040D01*
X401368Y458948D01*
X401666Y457450D01*
X400063Y455847D01*
X399221Y454587D01*
X398925Y453100D01*
Y439986D01*
X398251Y439706D01*
X396363Y438257D01*
X394914Y436369D01*
X394003Y434170D01*
X393692Y431810D01*
X394003Y429450D01*
X394914Y427251D01*
X396363Y425363D01*
X398251Y423914D01*
X400450Y423003D01*
X402810Y422692D01*
X405170Y423003D01*
X407369Y423914D01*
X409257Y425363D01*
X410706Y427251D01*
X411617Y429450D01*
X411928Y431810D01*
X411617Y434170D01*
X410706Y436369D01*
X409257Y438257D01*
X407369Y439706D01*
X406695Y439986D01*
Y451491D01*
X408957Y453753D01*
X409799Y455013D01*
X410095Y456500D01*
Y458552D01*
X411273Y459040D01*
X413371Y460649D01*
X414980Y462747D01*
X415992Y465189D01*
X416337Y467810D01*
X415992Y470431D01*
X414980Y472873D01*
X413371Y474971D01*
X411273Y476580D01*
X408831Y477592D01*
X406210Y477937D01*
D02*
G37*
G36*
X295274Y428540D02*
X286080D01*
Y419346D01*
X287561Y419541D01*
X290126Y420603D01*
X292327Y422293D01*
X294017Y424495D01*
X295079Y427058D01*
X295274Y428540D01*
D02*
G37*
G36*
X283540D02*
X274346D01*
X274541Y427058D01*
X275603Y424495D01*
X277293Y422293D01*
X279494Y420603D01*
X282059Y419541D01*
X283540Y419346D01*
Y428540D01*
D02*
G37*
G36*
X693580Y424411D02*
Y416730D01*
X701261D01*
X701117Y417820D01*
X700207Y420019D01*
X698757Y421907D01*
X696869Y423356D01*
X694670Y424267D01*
X693580Y424411D01*
D02*
G37*
G36*
X691040Y424411D02*
X689950Y424267D01*
X687751Y423356D01*
X685863Y421907D01*
X684414Y420019D01*
X683503Y417820D01*
X683359Y416730D01*
X691040D01*
Y424411D01*
D02*
G37*
G36*
X701261Y414190D02*
X693580D01*
Y406509D01*
X694670Y406653D01*
X696869Y407564D01*
X698757Y409012D01*
X700207Y410901D01*
X701117Y413100D01*
X701261Y414190D01*
D02*
G37*
G36*
X691040D02*
X683359D01*
X683503Y413100D01*
X684414Y410901D01*
X685863Y409012D01*
X687751Y407564D01*
X689950Y406653D01*
X691040Y406509D01*
Y414190D01*
D02*
G37*
G36*
X310210Y427741D02*
X307458Y427379D01*
X304895Y426317D01*
X302693Y424627D01*
X301003Y422425D01*
X299941Y419861D01*
X299579Y417110D01*
X299941Y414358D01*
X301003Y411795D01*
X302693Y409593D01*
X304895Y407903D01*
X307458Y406841D01*
X310210Y406479D01*
X312962Y406841D01*
X315525Y407903D01*
X317727Y409593D01*
X319417Y411795D01*
X320479Y414358D01*
X320841Y417110D01*
X320479Y419861D01*
X319417Y422425D01*
X317727Y424627D01*
X315525Y426317D01*
X312962Y427379D01*
X310210Y427741D01*
D02*
G37*
G36*
X286218Y410393D02*
Y402208D01*
X294403D01*
X294243Y403428D01*
X293281Y405749D01*
X291752Y407742D01*
X289760Y409271D01*
X287439Y410233D01*
X286218Y410393D01*
D02*
G37*
G36*
X283678D02*
X282458Y410233D01*
X280137Y409271D01*
X278144Y407742D01*
X276615Y405749D01*
X275654Y403428D01*
X275493Y402208D01*
X283678D01*
Y410393D01*
D02*
G37*
G36*
X642810Y474932D02*
X640320Y474604D01*
X637999Y473643D01*
X636006Y472114D01*
X634477Y470121D01*
X633516Y467800D01*
X633188Y465310D01*
X633516Y462820D01*
X634477Y460499D01*
X636006Y458506D01*
X637999Y456977D01*
X638876Y456614D01*
X638820Y446796D01*
X638001Y446456D01*
X636113Y445007D01*
X634664Y443119D01*
X633753Y440920D01*
X633442Y438560D01*
X633753Y436200D01*
X634664Y434001D01*
X636113Y432113D01*
X638001Y430664D01*
X638727Y430363D01*
X638681Y422282D01*
X637195Y421667D01*
X634993Y419977D01*
X633303Y417775D01*
X632241Y415211D01*
X631879Y412460D01*
X632241Y409709D01*
X633303Y407145D01*
X634993Y404943D01*
X637195Y403253D01*
X639758Y402191D01*
X642510Y401829D01*
X645262Y402191D01*
X647825Y403253D01*
X650027Y404943D01*
X651717Y407145D01*
X652779Y409709D01*
X653141Y412460D01*
X652779Y415211D01*
X651717Y417775D01*
X650027Y419977D01*
X647825Y421667D01*
X646450Y422236D01*
X646497Y430406D01*
X647119Y430664D01*
X649007Y432113D01*
X650456Y434001D01*
X651367Y436200D01*
X651678Y438560D01*
X651367Y440920D01*
X650456Y443119D01*
X649007Y445007D01*
X647119Y446456D01*
X646589Y446676D01*
X646645Y456572D01*
X647621Y456977D01*
X649614Y458506D01*
X651143Y460499D01*
X652104Y462820D01*
X652432Y465310D01*
X652104Y467800D01*
X651143Y470121D01*
X649614Y472114D01*
X647621Y473643D01*
X645300Y474604D01*
X642810Y474932D01*
D02*
G37*
G36*
X601519Y428290D02*
X590060D01*
X578601D01*
X578778Y426939D01*
X579790Y424497D01*
X581399Y422399D01*
X583497Y420790D01*
X584807Y420247D01*
Y418873D01*
X583497Y418330D01*
X581399Y416721D01*
X579790Y414623D01*
X578778Y412181D01*
X578433Y409560D01*
X578778Y406939D01*
X579790Y404497D01*
X581399Y402399D01*
X583497Y400790D01*
X585939Y399778D01*
X586175Y399747D01*
Y391005D01*
X532694D01*
X532168Y392275D01*
X540776Y400882D01*
X541450Y400603D01*
X543810Y400292D01*
X546170Y400603D01*
X548369Y401514D01*
X550257Y402963D01*
X551706Y404851D01*
X552617Y407050D01*
X552928Y409410D01*
X552617Y411770D01*
X551706Y413969D01*
X550257Y415857D01*
X548369Y417306D01*
X546170Y418217D01*
X543810Y418528D01*
X541450Y418217D01*
X539251Y417306D01*
X537363Y415857D01*
X535914Y413969D01*
X535003Y411770D01*
X534692Y409410D01*
X535003Y407050D01*
X535282Y406376D01*
X524991Y396085D01*
X508638D01*
X508152Y397258D01*
X511776Y400882D01*
X512450Y400603D01*
X514810Y400292D01*
X517170Y400603D01*
X519369Y401514D01*
X521257Y402963D01*
X522706Y404851D01*
X523617Y407050D01*
X523928Y409410D01*
X523617Y411770D01*
X522706Y413969D01*
X521257Y415857D01*
X519369Y417306D01*
X517170Y418217D01*
X514810Y418528D01*
X512450Y418217D01*
X510251Y417306D01*
X508363Y415857D01*
X506914Y413969D01*
X506003Y411770D01*
X505692Y409410D01*
X506003Y407050D01*
X506282Y406376D01*
X501071Y401165D01*
X492664D01*
X492393Y401963D01*
X492313Y402435D01*
X493706Y404251D01*
X494617Y406450D01*
X494928Y408810D01*
X494617Y411170D01*
X493706Y413369D01*
X492257Y415257D01*
X490369Y416706D01*
X488170Y417617D01*
X485810Y417928D01*
X483450Y417617D01*
X481251Y416706D01*
X479363Y415257D01*
X477914Y413369D01*
X477003Y411170D01*
X476692Y408810D01*
X477003Y406450D01*
X477914Y404251D01*
X479307Y402435D01*
X479227Y401963D01*
X478956Y401165D01*
X466222D01*
X465620Y402435D01*
X466706Y403851D01*
X467617Y406050D01*
X467928Y408410D01*
X467617Y410770D01*
X466706Y412969D01*
X465257Y414857D01*
X463369Y416306D01*
X461170Y417217D01*
X458810Y417528D01*
X456450Y417217D01*
X454251Y416306D01*
X452363Y414857D01*
X450914Y412969D01*
X450003Y410770D01*
X449692Y408410D01*
X450003Y406050D01*
X450914Y403851D01*
X452016Y402414D01*
X452021Y402272D01*
X451591Y401124D01*
X451530Y401058D01*
X450578Y400869D01*
X449318Y400027D01*
X445236Y395945D01*
X411833D01*
X410583Y395989D01*
X410583Y395989D01*
X410583Y395989D01*
X408134Y395502D01*
X406050Y394109D01*
X406076Y394083D01*
X406074Y394068D01*
X396934Y384928D01*
X395239Y385630D01*
X393010Y385924D01*
X390781Y385630D01*
X388703Y384770D01*
X386919Y383401D01*
X385550Y381617D01*
X384690Y379539D01*
X384396Y377310D01*
Y364310D01*
X384690Y362081D01*
X385550Y360003D01*
X386919Y358219D01*
X388703Y356850D01*
X390781Y355990D01*
X393010Y355696D01*
X395239Y355990D01*
X397317Y356850D01*
X399101Y358219D01*
X400470Y360003D01*
X401330Y362081D01*
X401624Y364310D01*
Y377310D01*
X401470Y378476D01*
X411169Y388175D01*
X446845D01*
X447520Y388310D01*
X448145Y387139D01*
X446462Y385455D01*
X446039Y385630D01*
X443810Y385924D01*
X441581Y385630D01*
X439503Y384770D01*
X437719Y383401D01*
X436350Y381617D01*
X435490Y379539D01*
X435196Y377310D01*
Y364310D01*
X435490Y362081D01*
X436350Y360003D01*
X437719Y358219D01*
X439503Y356850D01*
X441581Y355990D01*
X443810Y355696D01*
X446039Y355990D01*
X448117Y356850D01*
X449901Y358219D01*
X451270Y360003D01*
X452130Y362081D01*
X452424Y364310D01*
Y377310D01*
X452130Y379539D01*
X451955Y379962D01*
X460309Y388315D01*
X473062D01*
X473548Y387142D01*
X471862Y385455D01*
X471439Y385630D01*
X469210Y385924D01*
X466981Y385630D01*
X464903Y384770D01*
X463119Y383401D01*
X461750Y381617D01*
X460890Y379539D01*
X460596Y377310D01*
Y364310D01*
X460890Y362081D01*
X461750Y360003D01*
X463119Y358219D01*
X464903Y356850D01*
X466981Y355990D01*
X469210Y355696D01*
X471439Y355990D01*
X473517Y356850D01*
X475301Y358219D01*
X476670Y360003D01*
X477530Y362081D01*
X477824Y364310D01*
Y377310D01*
X477530Y379539D01*
X477355Y379962D01*
X480629Y383235D01*
X486956D01*
X487518Y382096D01*
X487150Y381617D01*
X486290Y379539D01*
X485996Y377310D01*
Y364490D01*
X461201Y339695D01*
X343019D01*
X332881Y349833D01*
X333174Y352060D01*
X332880Y354289D01*
X332020Y356367D01*
X330651Y358151D01*
X328867Y359520D01*
X326789Y360380D01*
X324560Y360674D01*
X322331Y360380D01*
X320253Y359520D01*
X318469Y358151D01*
X317100Y356367D01*
X316240Y354289D01*
X315946Y352060D01*
X316240Y349831D01*
X317100Y347753D01*
X318469Y345969D01*
X320253Y344600D01*
X322331Y343740D01*
X324560Y343446D01*
X326789Y343740D01*
X327636Y344090D01*
X338663Y333063D01*
X339923Y332221D01*
X341410Y331925D01*
X346836D01*
X347362Y330655D01*
X327141Y310435D01*
X326789Y310580D01*
X324560Y310874D01*
X322331Y310580D01*
X320253Y309720D01*
X318469Y308351D01*
X317100Y306567D01*
X316240Y304489D01*
X315946Y302260D01*
X316240Y300031D01*
X317100Y297953D01*
X318469Y296169D01*
X320253Y294800D01*
X322331Y293940D01*
X324560Y293646D01*
X326789Y293940D01*
X328867Y294800D01*
X330651Y296169D01*
X332020Y297953D01*
X332880Y300031D01*
X333174Y302260D01*
X332880Y304489D01*
X332676Y304982D01*
X353619Y325925D01*
X479743D01*
X479743Y325925D01*
Y325876D01*
X482127Y326350D01*
X482417Y326331D01*
X483397Y325807D01*
Y321310D01*
X483885Y318856D01*
X485275Y316775D01*
X487356Y315385D01*
X489810Y314897D01*
X497310D01*
X499764Y315385D01*
X501845Y316775D01*
X503235Y318856D01*
X503723Y321310D01*
Y328810D01*
X503235Y331264D01*
X501845Y333345D01*
X499764Y334735D01*
X497310Y335223D01*
X493538D01*
X493100Y336416D01*
X516719Y356429D01*
X517781Y355990D01*
X520010Y355696D01*
X522239Y355990D01*
X524317Y356850D01*
X526101Y358219D01*
X527470Y360003D01*
X528330Y362081D01*
X528624Y364310D01*
Y377310D01*
X528330Y379539D01*
X527470Y381617D01*
X527102Y382096D01*
X527663Y383235D01*
X537757D01*
X538318Y382096D01*
X537950Y381617D01*
X537090Y379539D01*
X536796Y377310D01*
Y364310D01*
X537090Y362081D01*
X537950Y360003D01*
X539319Y358219D01*
X541103Y356850D01*
X543181Y355990D01*
X545410Y355696D01*
X547639Y355990D01*
X549717Y356850D01*
X551501Y358219D01*
X552870Y360003D01*
X553730Y362081D01*
X554024Y364310D01*
Y377310D01*
X553730Y379539D01*
X552870Y381617D01*
X552502Y382096D01*
X553064Y383235D01*
X563157D01*
X563718Y382096D01*
X563350Y381617D01*
X562490Y379539D01*
X562196Y377310D01*
Y364310D01*
X562490Y362081D01*
X563350Y360003D01*
X564719Y358219D01*
X566503Y356850D01*
X568581Y355990D01*
X570810Y355696D01*
X573039Y355990D01*
X575117Y356850D01*
X576901Y358219D01*
X578270Y360003D01*
X579130Y362081D01*
X579424Y364310D01*
Y377310D01*
X579130Y379539D01*
X578270Y381617D01*
X577902Y382096D01*
X578464Y383235D01*
X591541D01*
X592863Y381513D01*
X594751Y380064D01*
X596950Y379153D01*
X599310Y378842D01*
X601670Y379153D01*
X603869Y380064D01*
X605757Y381513D01*
X607206Y383401D01*
X607369Y383795D01*
X619898Y383448D01*
X620603Y381745D01*
X622293Y379543D01*
X623586Y378550D01*
X618242Y357976D01*
X617319Y357854D01*
X614999Y356893D01*
X613006Y355364D01*
X611477Y353371D01*
X610516Y351050D01*
X610188Y348560D01*
X610516Y346070D01*
X611477Y343749D01*
X613006Y341756D01*
X614999Y340227D01*
X617319Y339266D01*
X619810Y338938D01*
X622300Y339266D01*
X624621Y340227D01*
X626614Y341756D01*
X628143Y343749D01*
X629104Y346070D01*
X629432Y348560D01*
X629104Y351050D01*
X628143Y353371D01*
X626614Y355364D01*
X625761Y356019D01*
X631107Y376600D01*
X632561Y376791D01*
X635126Y377853D01*
X637327Y379543D01*
X639017Y381745D01*
X640079Y384309D01*
X640441Y387060D01*
X640079Y389812D01*
X639017Y392375D01*
X637327Y394577D01*
X635126Y396267D01*
X632561Y397329D01*
X629810Y397691D01*
X627058Y397329D01*
X624495Y396267D01*
X622293Y394577D01*
X620603Y392375D01*
X620122Y391214D01*
X607603Y391560D01*
X607206Y392519D01*
X605757Y394407D01*
X603869Y395856D01*
X601670Y396767D01*
X599310Y397078D01*
X596950Y396767D01*
X595215Y396049D01*
X593945Y396709D01*
Y399747D01*
X594181Y399778D01*
X596623Y400790D01*
X598721Y402399D01*
X600330Y404497D01*
X601342Y406939D01*
X601687Y409560D01*
X601342Y412181D01*
X600330Y414623D01*
X598721Y416721D01*
X596623Y418330D01*
X595313Y418873D01*
Y420247D01*
X596623Y420790D01*
X598721Y422399D01*
X600330Y424497D01*
X601342Y426939D01*
X601519Y428290D01*
D02*
G37*
G36*
X430810Y417528D02*
X428450Y417217D01*
X426251Y416306D01*
X424363Y414857D01*
X422914Y412969D01*
X422003Y410770D01*
X421692Y408410D01*
X422003Y406050D01*
X422914Y403851D01*
X424363Y401963D01*
X426251Y400514D01*
X428450Y399603D01*
X430810Y399292D01*
X433170Y399603D01*
X435369Y400514D01*
X437257Y401963D01*
X438706Y403851D01*
X439617Y406050D01*
X439928Y408410D01*
X439617Y410770D01*
X438706Y412969D01*
X437257Y414857D01*
X435369Y416306D01*
X433170Y417217D01*
X430810Y417528D01*
D02*
G37*
G36*
X374810Y416928D02*
X372450Y416617D01*
X370251Y415706D01*
X368363Y414257D01*
X366914Y412369D01*
X366003Y410170D01*
X365692Y407810D01*
X366003Y405450D01*
X366914Y403251D01*
X368363Y401363D01*
X370251Y399914D01*
X372450Y399003D01*
X374810Y398692D01*
X377170Y399003D01*
X379369Y399914D01*
X381257Y401363D01*
X382706Y403251D01*
X383617Y405450D01*
X383928Y407810D01*
X383617Y410170D01*
X382706Y412369D01*
X381257Y414257D01*
X379369Y415706D01*
X377170Y416617D01*
X374810Y416928D01*
D02*
G37*
G36*
X402810Y415528D02*
X400450Y415217D01*
X398251Y414306D01*
X396363Y412857D01*
X394914Y410969D01*
X394003Y408770D01*
X393692Y406410D01*
X394003Y404050D01*
X394914Y401851D01*
X396363Y399963D01*
X398251Y398514D01*
X400450Y397603D01*
X402810Y397292D01*
X405170Y397603D01*
X407369Y398514D01*
X409257Y399963D01*
X410706Y401851D01*
X411617Y404050D01*
X411928Y406410D01*
X411617Y408770D01*
X410706Y410969D01*
X409257Y412857D01*
X407369Y414306D01*
X405170Y415217D01*
X402810Y415528D01*
D02*
G37*
G36*
X294403Y399668D02*
X286218D01*
Y391483D01*
X287439Y391644D01*
X289760Y392605D01*
X291752Y394134D01*
X293281Y396127D01*
X294243Y398448D01*
X294403Y399668D01*
D02*
G37*
G36*
X283678D02*
X275493D01*
X275654Y398448D01*
X276615Y396127D01*
X278144Y394134D01*
X280137Y392605D01*
X282458Y391644D01*
X283678Y391483D01*
Y399668D01*
D02*
G37*
G36*
X692310Y399178D02*
X689950Y398867D01*
X687751Y397956D01*
X685863Y396507D01*
X684414Y394619D01*
X683503Y392420D01*
X683192Y390060D01*
X683503Y387700D01*
X684414Y385501D01*
X685863Y383613D01*
X687751Y382164D01*
X688514Y381847D01*
X688581Y375738D01*
X687749Y375393D01*
X686712Y374598D01*
X665683Y385858D01*
X665841Y387060D01*
X665479Y389811D01*
X664417Y392375D01*
X662727Y394577D01*
X660526Y396267D01*
X657962Y397329D01*
X655210Y397691D01*
X652458Y397329D01*
X649894Y396267D01*
X647693Y394577D01*
X646003Y392375D01*
X644941Y389811D01*
X644579Y387060D01*
X644941Y384308D01*
X646003Y381744D01*
X647693Y379543D01*
X649894Y377853D01*
X652458Y376791D01*
X655210Y376429D01*
X657962Y376791D01*
X660526Y377853D01*
X662025Y379004D01*
X683029Y367757D01*
X682938Y367060D01*
X683266Y364570D01*
X684227Y362249D01*
X685756Y360256D01*
X687749Y358727D01*
X690070Y357766D01*
X692560Y357438D01*
X695051Y357766D01*
X697371Y358727D01*
X699364Y360256D01*
X700893Y362249D01*
X701854Y364570D01*
X702182Y367060D01*
X701854Y369551D01*
X700893Y371871D01*
X699364Y373864D01*
X697371Y375393D01*
X696350Y375816D01*
X696283Y381921D01*
X696869Y382164D01*
X698757Y383613D01*
X700206Y385501D01*
X701117Y387700D01*
X701428Y390060D01*
X701117Y392420D01*
X700206Y394619D01*
X698757Y396507D01*
X696869Y397956D01*
X694670Y398867D01*
X692310Y399178D01*
D02*
G37*
G36*
X345810Y416928D02*
X343450Y416617D01*
X341251Y415706D01*
X339363Y414257D01*
X337914Y412369D01*
X337003Y410170D01*
X336692Y407810D01*
X337003Y405450D01*
X337914Y403251D01*
X339363Y401363D01*
X341251Y399914D01*
X341925Y399634D01*
Y358810D01*
X342221Y357323D01*
X343063Y356063D01*
X353063Y346063D01*
X354323Y345221D01*
X355810Y344925D01*
X403810D01*
X405297Y345221D01*
X406557Y346063D01*
X416448Y355955D01*
X418410Y355696D01*
X420639Y355990D01*
X422717Y356850D01*
X424501Y358219D01*
X425870Y360003D01*
X426730Y362081D01*
X427024Y364310D01*
Y377310D01*
X426730Y379539D01*
X425870Y381617D01*
X424501Y383401D01*
X422717Y384770D01*
X420639Y385630D01*
X418410Y385924D01*
X416181Y385630D01*
X414103Y384770D01*
X412319Y383401D01*
X410950Y381617D01*
X410090Y379539D01*
X409796Y377310D01*
Y364310D01*
X410090Y362081D01*
X410528Y361022D01*
X402201Y352695D01*
X357419D01*
X349695Y360419D01*
Y399634D01*
X350369Y399914D01*
X352257Y401363D01*
X353706Y403251D01*
X354617Y405450D01*
X354928Y407810D01*
X354617Y410170D01*
X353706Y412369D01*
X352257Y414257D01*
X350369Y415706D01*
X348170Y416617D01*
X345810Y416928D01*
D02*
G37*
G36*
X367610Y385924D02*
X365381Y385630D01*
X363303Y384770D01*
X361519Y383401D01*
X360150Y381617D01*
X359290Y379539D01*
X358996Y377310D01*
Y364310D01*
X359290Y362081D01*
X360150Y360003D01*
X361519Y358219D01*
X363303Y356850D01*
X365381Y355990D01*
X367610Y355696D01*
X369839Y355990D01*
X371917Y356850D01*
X373701Y358219D01*
X375070Y360003D01*
X375930Y362081D01*
X376224Y364310D01*
Y377310D01*
X375930Y379539D01*
X375070Y381617D01*
X373701Y383401D01*
X371917Y384770D01*
X369839Y385630D01*
X367610Y385924D01*
D02*
G37*
G36*
X671080Y358015D02*
Y349830D01*
X679265D01*
X679104Y351050D01*
X678143Y353371D01*
X676614Y355364D01*
X674621Y356893D01*
X672300Y357854D01*
X671080Y358015D01*
D02*
G37*
G36*
X668540D02*
X667319Y357854D01*
X664999Y356893D01*
X663006Y355364D01*
X661477Y353371D01*
X660516Y351050D01*
X660355Y349830D01*
X668540D01*
Y358015D01*
D02*
G37*
G36*
X284948Y360560D02*
X282458Y360233D01*
X280137Y359271D01*
X278144Y357742D01*
X276615Y355749D01*
X275654Y353428D01*
X275326Y350938D01*
X275654Y348448D01*
X276615Y346127D01*
X278144Y344134D01*
X280137Y342605D01*
X282458Y341644D01*
X284948Y341316D01*
X287439Y341644D01*
X289760Y342605D01*
X291752Y344134D01*
X293281Y346127D01*
X294243Y348448D01*
X294571Y350938D01*
X294243Y353428D01*
X293281Y355749D01*
X291752Y357742D01*
X289760Y359271D01*
X287439Y360233D01*
X284948Y360560D01*
D02*
G37*
G36*
X679265Y347290D02*
X671080D01*
Y339105D01*
X672300Y339266D01*
X674621Y340227D01*
X676614Y341756D01*
X678143Y343749D01*
X679104Y346070D01*
X679265Y347290D01*
D02*
G37*
G36*
X668540D02*
X660355D01*
X660516Y346070D01*
X661477Y343749D01*
X663006Y341756D01*
X664999Y340227D01*
X667319Y339266D01*
X668540Y339105D01*
Y347290D01*
D02*
G37*
G36*
X692560Y326682D02*
X690070Y326354D01*
X687749Y325393D01*
X685756Y323864D01*
X684227Y321871D01*
X683874Y321020D01*
X677417Y321077D01*
X676207Y321241D01*
X676193Y321246D01*
X674983Y321114D01*
X672811Y321162D01*
X672456Y322019D01*
X671007Y323907D01*
X669119Y325356D01*
X666920Y326267D01*
X664560Y326578D01*
X662200Y326267D01*
X660001Y325356D01*
X658113Y323907D01*
X656664Y322019D01*
X655753Y319820D01*
X655442Y317460D01*
X655452Y317382D01*
X646912Y313265D01*
X645045Y314697D01*
X642481Y315759D01*
X639730Y316121D01*
X636978Y315759D01*
X634414Y314697D01*
X632213Y313007D01*
X630523Y310805D01*
X629461Y308241D01*
X629099Y305490D01*
X629461Y302738D01*
X630523Y300175D01*
X632213Y297973D01*
X634414Y296283D01*
X636978Y295221D01*
X639730Y294859D01*
X642481Y295221D01*
X645045Y296283D01*
X647247Y297973D01*
X648937Y300175D01*
X649999Y302738D01*
X650361Y305490D01*
X650260Y306254D01*
X658892Y310415D01*
X660001Y309564D01*
X662200Y308653D01*
X664560Y308342D01*
X666920Y308653D01*
X669119Y309564D01*
X671007Y311013D01*
X672456Y312901D01*
X672661Y313394D01*
X674830Y313346D01*
X676030Y313306D01*
Y313306D01*
X674830Y313346D01*
X676030Y313305D01*
X676030Y313297D01*
X676088Y313285D01*
X676089Y313304D01*
X677294Y313308D01*
X677294Y313308D01*
X683812Y313251D01*
X684227Y312249D01*
X685756Y310256D01*
X687749Y308727D01*
X690070Y307766D01*
X692560Y307438D01*
X695051Y307766D01*
X697371Y308727D01*
X699364Y310256D01*
X700893Y312249D01*
X701854Y314570D01*
X702182Y317060D01*
X701854Y319550D01*
X700893Y321871D01*
X699364Y323864D01*
X697371Y325393D01*
X695051Y326354D01*
X692560Y326682D01*
D02*
G37*
G36*
X284810Y339432D02*
X282320Y339104D01*
X279999Y338143D01*
X278006Y336614D01*
X276477Y334621D01*
X275516Y332300D01*
X275188Y329810D01*
X275516Y327319D01*
X276477Y324999D01*
X278006Y323006D01*
X279999Y321477D01*
X282320Y320516D01*
X284810Y320188D01*
X287300Y320516D01*
X289621Y321477D01*
X291614Y323006D01*
X293143Y324999D01*
X294104Y327319D01*
X294432Y329810D01*
X294104Y332300D01*
X293143Y334621D01*
X291614Y336614D01*
X289621Y338143D01*
X287300Y339104D01*
X284810Y339432D01*
D02*
G37*
G36*
X599310Y371678D02*
X596950Y371367D01*
X594751Y370456D01*
X592863Y369007D01*
X591414Y367119D01*
X590503Y364920D01*
X590192Y362560D01*
X590503Y360200D01*
X591414Y358001D01*
X592863Y356113D01*
X594751Y354664D01*
X595175Y354488D01*
Y322075D01*
X536290D01*
X534803Y321779D01*
X533543Y320937D01*
X521862Y309255D01*
X521439Y309430D01*
X519210Y309724D01*
X516981Y309430D01*
X514903Y308570D01*
X513119Y307201D01*
X511750Y305417D01*
X510890Y303339D01*
X510596Y301110D01*
Y288110D01*
X510890Y285881D01*
X511750Y283803D01*
X513119Y282019D01*
X514903Y280650D01*
X516981Y279790D01*
X519210Y279496D01*
X521439Y279790D01*
X523517Y280650D01*
X525301Y282019D01*
X526670Y283803D01*
X527530Y285881D01*
X527824Y288110D01*
Y301110D01*
X527530Y303339D01*
X527355Y303762D01*
X537899Y314305D01*
X604531D01*
X605123Y312875D01*
X606813Y310673D01*
X609014Y308983D01*
X611578Y307921D01*
X614330Y307559D01*
X617081Y307921D01*
X619645Y308983D01*
X621847Y310673D01*
X623537Y312875D01*
X624599Y315438D01*
X624961Y318190D01*
X624599Y320941D01*
X623537Y323505D01*
X621847Y325707D01*
X619645Y327397D01*
X617081Y328459D01*
X614330Y328821D01*
X611578Y328459D01*
X609014Y327397D01*
X606813Y325707D01*
X605123Y323505D01*
X604531Y322075D01*
X602945D01*
Y354281D01*
X603869Y354664D01*
X605757Y356113D01*
X607206Y358001D01*
X608117Y360200D01*
X608428Y362560D01*
X608117Y364920D01*
X607206Y367119D01*
X605757Y369007D01*
X603869Y370456D01*
X601670Y371367D01*
X599310Y371678D01*
D02*
G37*
G36*
X469680Y309557D02*
Y295880D01*
X477024D01*
Y301110D01*
X476730Y303339D01*
X475870Y305417D01*
X474501Y307201D01*
X472717Y308570D01*
X470639Y309430D01*
X469680Y309557D01*
D02*
G37*
G36*
X467140Y309557D02*
X466181Y309430D01*
X464103Y308570D01*
X462319Y307201D01*
X460950Y305417D01*
X460090Y303339D01*
X459796Y301110D01*
Y295880D01*
X467140D01*
Y309557D01*
D02*
G37*
G36*
X615600Y303254D02*
Y294060D01*
X624794D01*
X624599Y295541D01*
X623537Y298105D01*
X621847Y300307D01*
X619645Y301997D01*
X617081Y303059D01*
X615600Y303254D01*
D02*
G37*
G36*
X613060Y303254D02*
X611578Y303059D01*
X609014Y301997D01*
X606813Y300307D01*
X605123Y298105D01*
X604061Y295541D01*
X603866Y294060D01*
X613060D01*
Y303254D01*
D02*
G37*
G36*
X664560Y301178D02*
X662200Y300867D01*
X660001Y299956D01*
X658113Y298507D01*
X656664Y296619D01*
X655753Y294420D01*
X655442Y292060D01*
X655753Y289700D01*
X656664Y287501D01*
X658113Y285613D01*
X660001Y284164D01*
X662200Y283253D01*
X664560Y282942D01*
X666920Y283253D01*
X669119Y284164D01*
X671007Y285613D01*
X672456Y287501D01*
X673367Y289700D01*
X673678Y292060D01*
X673367Y294420D01*
X672456Y296619D01*
X671007Y298507D01*
X669119Y299956D01*
X666920Y300867D01*
X664560Y301178D01*
D02*
G37*
G36*
X613060Y291520D02*
X603866D01*
X604061Y290038D01*
X605123Y287474D01*
X606813Y285273D01*
X609014Y283583D01*
X611578Y282521D01*
X613060Y282326D01*
Y291520D01*
D02*
G37*
G36*
X624794D02*
X615600D01*
Y282326D01*
X617081Y282521D01*
X619645Y283583D01*
X621847Y285273D01*
X623537Y287474D01*
X624599Y290038D01*
X624794Y291520D01*
D02*
G37*
G36*
X286080Y289265D02*
Y281080D01*
X294265D01*
X294104Y282300D01*
X293143Y284621D01*
X291614Y286614D01*
X289621Y288143D01*
X287300Y289104D01*
X286080Y289265D01*
D02*
G37*
G36*
X283540D02*
X282320Y289104D01*
X279999Y288143D01*
X278006Y286614D01*
X276477Y284621D01*
X275516Y282300D01*
X275355Y281080D01*
X283540D01*
Y289265D01*
D02*
G37*
G36*
X467140Y293340D02*
X459796D01*
Y288110D01*
X460090Y285881D01*
X460950Y283803D01*
X462319Y282019D01*
X464103Y280650D01*
X466181Y279790D01*
X467140Y279664D01*
Y293340D01*
D02*
G37*
G36*
X477024D02*
X469680D01*
Y279664D01*
X470639Y279790D01*
X472717Y280650D01*
X474501Y282019D01*
X475870Y283803D01*
X476730Y285881D01*
X477024Y288110D01*
Y293340D01*
D02*
G37*
G36*
X578550Y309650D02*
X561470D01*
Y279570D01*
X578550D01*
Y309650D01*
D02*
G37*
G36*
X544610Y309724D02*
X542381Y309430D01*
X540303Y308570D01*
X538519Y307201D01*
X537150Y305417D01*
X536290Y303339D01*
X535996Y301110D01*
Y288110D01*
X536290Y285881D01*
X537150Y283803D01*
X538519Y282019D01*
X540303Y280650D01*
X542381Y279790D01*
X544610Y279496D01*
X546839Y279790D01*
X548917Y280650D01*
X550701Y282019D01*
X552070Y283803D01*
X552930Y285881D01*
X553224Y288110D01*
Y301110D01*
X552930Y303339D01*
X552070Y305417D01*
X550701Y307201D01*
X548917Y308570D01*
X546839Y309430D01*
X544610Y309724D01*
D02*
G37*
G36*
X493810D02*
X491581Y309430D01*
X489503Y308570D01*
X487719Y307201D01*
X486350Y305417D01*
X485490Y303339D01*
X485196Y301110D01*
Y288110D01*
X485490Y285881D01*
X486350Y283803D01*
X487719Y282019D01*
X489503Y280650D01*
X491581Y279790D01*
X493810Y279496D01*
X496039Y279790D01*
X498117Y280650D01*
X499901Y282019D01*
X501270Y283803D01*
X502130Y285881D01*
X502424Y288110D01*
Y301110D01*
X502130Y303339D01*
X501270Y305417D01*
X499901Y307201D01*
X498117Y308570D01*
X496039Y309430D01*
X493810Y309724D01*
D02*
G37*
G36*
X443010D02*
X440781Y309430D01*
X438703Y308570D01*
X436919Y307201D01*
X435550Y305417D01*
X434690Y303339D01*
X434396Y301110D01*
Y288110D01*
X434690Y285881D01*
X435550Y283803D01*
X436919Y282019D01*
X438703Y280650D01*
X440781Y279790D01*
X443010Y279496D01*
X445239Y279790D01*
X447317Y280650D01*
X449101Y282019D01*
X450470Y283803D01*
X451330Y285881D01*
X451624Y288110D01*
Y301110D01*
X451330Y303339D01*
X450470Y305417D01*
X449101Y307201D01*
X447317Y308570D01*
X445239Y309430D01*
X443010Y309724D01*
D02*
G37*
G36*
X417610D02*
X415381Y309430D01*
X413303Y308570D01*
X411519Y307201D01*
X410150Y305417D01*
X409290Y303339D01*
X408996Y301110D01*
Y288110D01*
X409290Y285881D01*
X410150Y283803D01*
X411519Y282019D01*
X413303Y280650D01*
X415381Y279790D01*
X417610Y279496D01*
X419839Y279790D01*
X421917Y280650D01*
X423701Y282019D01*
X425070Y283803D01*
X425930Y285881D01*
X426224Y288110D01*
Y301110D01*
X425930Y303339D01*
X425070Y305417D01*
X423701Y307201D01*
X421917Y308570D01*
X419839Y309430D01*
X417610Y309724D01*
D02*
G37*
G36*
X392210D02*
X389981Y309430D01*
X387903Y308570D01*
X386119Y307201D01*
X384750Y305417D01*
X383890Y303339D01*
X383596Y301110D01*
Y288110D01*
X383890Y285881D01*
X384750Y283803D01*
X386119Y282019D01*
X387903Y280650D01*
X389981Y279790D01*
X392210Y279496D01*
X394439Y279790D01*
X396517Y280650D01*
X398301Y282019D01*
X399670Y283803D01*
X400530Y285881D01*
X400824Y288110D01*
Y301110D01*
X400530Y303339D01*
X399670Y305417D01*
X398301Y307201D01*
X396517Y308570D01*
X394439Y309430D01*
X392210Y309724D01*
D02*
G37*
G36*
X366810D02*
X364581Y309430D01*
X362503Y308570D01*
X360719Y307201D01*
X359350Y305417D01*
X358490Y303339D01*
X358196Y301110D01*
Y288110D01*
X358490Y285881D01*
X359350Y283803D01*
X360719Y282019D01*
X362503Y280650D01*
X364581Y279790D01*
X366810Y279496D01*
X369039Y279790D01*
X371117Y280650D01*
X372901Y282019D01*
X374270Y283803D01*
X375130Y285881D01*
X375424Y288110D01*
Y301110D01*
X375130Y303339D01*
X374270Y305417D01*
X372901Y307201D01*
X371117Y308570D01*
X369039Y309430D01*
X366810Y309724D01*
D02*
G37*
G36*
X294265Y278540D02*
X286080D01*
Y270355D01*
X287300Y270515D01*
X289621Y271477D01*
X291614Y273006D01*
X293143Y274999D01*
X294104Y277320D01*
X294265Y278540D01*
D02*
G37*
G36*
X283540D02*
X275355D01*
X275516Y277320D01*
X276477Y274999D01*
X278006Y273006D01*
X279999Y271477D01*
X282320Y270515D01*
X283540Y270355D01*
Y278540D01*
D02*
G37*
%LPD*%
G36*
X512918Y382096D02*
X512550Y381617D01*
X511690Y379539D01*
X511396Y377310D01*
Y364310D01*
X511658Y362324D01*
X482411Y337541D01*
X482254Y337344D01*
X481701Y336919D01*
X481087Y336120D01*
X480817Y335888D01*
X479090Y333695D01*
X467848D01*
X467362Y334868D01*
X489761Y357267D01*
X490303Y356850D01*
X492381Y355990D01*
X494610Y355696D01*
X496839Y355990D01*
X498917Y356850D01*
X500701Y358219D01*
X502070Y360003D01*
X502930Y362081D01*
X503224Y364310D01*
Y377310D01*
X502930Y379539D01*
X502070Y381617D01*
X501702Y382096D01*
X502263Y383235D01*
X512356D01*
X512918Y382096D01*
D02*
G37*
D10*
X394855Y377355D02*
G03*
X394120Y375579I1805J-1787D01*
G01*
X479743Y329810D02*
G03*
X481739Y330779I-0J2540D01*
G01*
X484923Y334578D02*
G03*
X483869Y333486I4887J-5768D01*
G01*
X353051Y329810D02*
G03*
X351271Y329071I11J-2540D01*
G01*
X410601Y392060D02*
G03*
X408821Y391321I11J-2540D01*
G01*
X612712Y319923D02*
G03*
X613060Y319460I2192J1283D01*
G01*
X612650Y322378D02*
G03*
X612870Y322974I-2254J1171D01*
G01*
X612646Y322370D02*
G03*
X612712Y319923I2258J-1163D01*
G01*
X638231Y307174D02*
G03*
X638767Y306422I2302J1073D01*
G01*
X638858Y310157D02*
G03*
X638226Y307183I1675J-1909D01*
G01*
X676117Y317203D02*
G03*
X676140Y317203I56J2539D01*
G01*
X597423Y387120D02*
G03*
X599310Y387960I-0J2540D01*
G01*
X520010Y364310D02*
X520210Y367810D01*
X519210Y301110D02*
X536290Y318190D01*
X519210Y294610D02*
Y301110D01*
X394855Y377355D02*
X408821Y391321D01*
X393010Y370810D02*
X394120Y371920D01*
Y375579D01*
X443810Y377310D02*
X458700Y392200D01*
X443810Y370810D02*
Y377310D01*
X469210D02*
X479020Y387120D01*
X469210Y370810D02*
Y377310D01*
X418410Y363410D02*
Y370810D01*
X403810Y348810D02*
X418410Y363410D01*
X481739Y330779D02*
X483869Y333486D01*
X353062Y329810D02*
X479743D01*
X462810Y335810D02*
X494810Y367810D01*
X484923Y334578D02*
X520010Y364310D01*
X341410Y335810D02*
X462810D01*
X324810Y352410D02*
X341410Y335810D01*
X353051Y329810D02*
X353062Y329810D01*
X324810Y302610D02*
X351271Y329071D01*
X324810Y302610D02*
X324810Y302610D01*
X345810Y358810D02*
Y407810D01*
Y358810D02*
X355810Y348810D01*
X403810D01*
X479020Y387120D02*
X590060D01*
X528290Y393890D02*
X543810Y409410D01*
X526600Y392200D02*
X528290Y393890D01*
X458700Y392200D02*
X526600D01*
X502680Y397280D02*
X514810Y409410D01*
X452065Y397280D02*
X502680D01*
X446845Y392060D02*
X452065Y397280D01*
X410612Y392060D02*
X446845D01*
X410601Y392060D02*
X410612Y392060D01*
X536290Y318190D02*
X599060D01*
X638767Y306422D02*
X639730Y305490D01*
X599060Y318190D02*
X614330D01*
X612870Y322974D02*
X612874Y322989D01*
X612646Y322370D02*
X612650Y322378D01*
X639730Y305490D02*
X664560Y317460D01*
X638226Y307183D02*
X638231Y307174D01*
X638858Y310157D02*
X638865Y310163D01*
X692810Y443560D02*
X693060Y439810D01*
X692810Y443560D02*
Y465310D01*
X655210Y387060D02*
X692560Y367060D01*
X692310Y390060D02*
X692560Y367060D01*
X676140Y317203D02*
X692560Y317060D01*
X664560Y317460D02*
X676117Y317203D01*
X619810Y348560D02*
X629810Y387060D01*
X599060Y362310D02*
X599310Y362560D01*
X599060Y318190D02*
Y362310D01*
X602692Y387810D02*
X629810Y387060D01*
X590060Y387120D02*
X597423D01*
X590060D02*
Y409560D01*
X590060D02*
X590060D01*
X642658Y438559D02*
X642810Y465310D01*
X642510Y412460D02*
X642658Y438559D01*
X485600Y434420D02*
Y448020D01*
X482410Y451210D02*
X485600Y448020D01*
X482410Y451210D02*
Y467810D01*
X485600Y434420D02*
X485810Y434210D01*
X309810Y473810D02*
X335810D01*
X310010Y442710D02*
X310210Y442510D01*
X310010Y442710D02*
Y473610D01*
X309810Y473810D02*
X310010Y473610D01*
X366810Y504610D02*
X431610Y569410D01*
X366810Y454210D02*
Y504610D01*
X345810Y433210D02*
X366810Y454210D01*
X374810Y433210D02*
Y487210D01*
X457010Y569410D01*
X402810Y453100D02*
X406210Y456500D01*
X402810Y431810D02*
Y453100D01*
X406210Y456500D02*
Y467810D01*
X430810Y433810D02*
X431610Y434610D01*
Y467810D01*
X457010D02*
X457910Y466910D01*
Y434710D02*
Y466910D01*
Y434710D02*
X458810Y433810D01*
X482410Y467810D02*
X484110Y466110D01*
X507810Y442391D02*
Y467810D01*
Y442391D02*
X514810Y435391D01*
Y434810D02*
Y435391D01*
X533210Y569410D02*
X544520Y558100D01*
Y435520D02*
Y558100D01*
X543810Y434810D02*
X544520Y435520D01*
X860855Y377355D02*
G03*
X860120Y375579I1805J-1787D01*
G01*
X945743Y329810D02*
G03*
X947739Y330779I-0J2540D01*
G01*
X950923Y334578D02*
G03*
X949869Y333486I4887J-5768D01*
G01*
X819051Y329810D02*
G03*
X817271Y329071I11J-2540D01*
G01*
X876601Y392060D02*
G03*
X874821Y391321I11J-2540D01*
G01*
X1078712Y319923D02*
G03*
X1079060Y319460I2192J1283D01*
G01*
X1078650Y322378D02*
G03*
X1078870Y322974I-2254J1171D01*
G01*
X1078646Y322370D02*
G03*
X1078712Y319923I2258J-1163D01*
G01*
X1104230Y307174D02*
G03*
X1104767Y306422I2302J1073D01*
G01*
X1104858Y310157D02*
G03*
X1104226Y307183I1675J-1909D01*
G01*
X1142117Y317203D02*
G03*
X1142140Y317203I56J2539D01*
G01*
X1063423Y387120D02*
G03*
X1065310Y387960I-0J2540D01*
G01*
X986010Y364310D02*
X986210Y367810D01*
X985210Y301110D02*
X1002290Y318190D01*
X985210Y294610D02*
Y301110D01*
X860855Y377355D02*
X874821Y391321D01*
X859010Y370810D02*
X860120Y371920D01*
Y375579D01*
X909810Y377310D02*
X924700Y392200D01*
X909810Y370810D02*
Y377310D01*
X935210D02*
X945020Y387120D01*
X935210Y370810D02*
Y377310D01*
X884410Y363410D02*
Y370810D01*
X869810Y348810D02*
X884410Y363410D01*
X947739Y330779D02*
X949869Y333486D01*
X819062Y329810D02*
X945743D01*
X928810Y335810D02*
X960810Y367810D01*
X950923Y334578D02*
X986010Y364310D01*
X807410Y335810D02*
X928810D01*
X790810Y352410D02*
X807410Y335810D01*
X819051Y329810D02*
X819062Y329810D01*
X790810Y302610D02*
X817271Y329071D01*
X790810Y302610D02*
X790810Y302610D01*
X811810Y358810D02*
Y407810D01*
Y358810D02*
X821810Y348810D01*
X869810D01*
X945020Y387120D02*
X1056060D01*
X994290Y393890D02*
X1009810Y409410D01*
X992600Y392200D02*
X994290Y393890D01*
X924700Y392200D02*
X992600D01*
X968680Y397280D02*
X980810Y409410D01*
X918065Y397280D02*
X968680D01*
X912845Y392060D02*
X918065Y397280D01*
X876612Y392060D02*
X912845D01*
X876601Y392060D02*
X876612Y392060D01*
X1002290Y318190D02*
X1065060D01*
X1104767Y306422D02*
X1105730Y305490D01*
X1065060Y318190D02*
X1080330D01*
X1078870Y322974D02*
X1078874Y322989D01*
X1078646Y322370D02*
X1078650Y322378D01*
X1105730Y305490D02*
X1130560Y317460D01*
X1104226Y307183D02*
X1104230Y307174D01*
X1104858Y310157D02*
X1104865Y310163D01*
X1158810Y443560D02*
X1159060Y439810D01*
X1158810Y443560D02*
Y465310D01*
X1121210Y387060D02*
X1158560Y367060D01*
X1158310Y390060D02*
X1158560Y367060D01*
X1142140Y317203D02*
X1158560Y317060D01*
X1130560Y317460D02*
X1142117Y317203D01*
X1085810Y348560D02*
X1095810Y387060D01*
X1065060Y362310D02*
X1065310Y362560D01*
X1065060Y318190D02*
Y362310D01*
X1068692Y387810D02*
X1095810Y387060D01*
X1056060Y387120D02*
X1063423D01*
X1056060D02*
Y409560D01*
X1056060D02*
X1056060D01*
X1108658Y438559D02*
X1108810Y465310D01*
X1108510Y412460D02*
X1108658Y438559D01*
X951600Y434420D02*
Y448020D01*
X948410Y451210D02*
X951600Y448020D01*
X948410Y451210D02*
Y467810D01*
X951600Y434420D02*
X951810Y434210D01*
X775810Y473810D02*
X801810D01*
X776010Y442710D02*
X776210Y442510D01*
X776010Y442710D02*
Y473610D01*
X775810Y473810D02*
X776010Y473610D01*
X832810Y504610D02*
X897610Y569410D01*
X832810Y454210D02*
Y504610D01*
X811810Y433210D02*
X832810Y454210D01*
X840810Y433210D02*
Y487210D01*
X923010Y569410D01*
X868810Y453100D02*
X872210Y456500D01*
X868810Y431810D02*
Y453100D01*
X872210Y456500D02*
Y467810D01*
X896810Y433810D02*
X897610Y434610D01*
Y467810D01*
X923010D02*
X923910Y466910D01*
Y434710D02*
Y466910D01*
Y434710D02*
X924810Y433810D01*
X948410Y467810D02*
X950110Y466110D01*
X973810Y442391D02*
Y467810D01*
Y442391D02*
X980810Y435391D01*
Y434810D02*
Y435391D01*
X999210Y569410D02*
X1010520Y558100D01*
Y435520D02*
Y558100D01*
X1009810Y434810D02*
X1010520Y435520D01*
X394855Y738855D02*
G03*
X394120Y737079I1805J-1787D01*
G01*
X479743Y691310D02*
G03*
X481739Y692279I-0J2540D01*
G01*
X484923Y696078D02*
G03*
X483869Y694986I4887J-5768D01*
G01*
X353051Y691310D02*
G03*
X351271Y690571I11J-2540D01*
G01*
X410601Y753560D02*
G03*
X408821Y752821I11J-2540D01*
G01*
X612712Y681423D02*
G03*
X613060Y680960I2192J1283D01*
G01*
X612650Y683878D02*
G03*
X612870Y684474I-2254J1171D01*
G01*
X612646Y683870D02*
G03*
X612712Y681423I2258J-1163D01*
G01*
X638231Y668674D02*
G03*
X638767Y667922I2302J1073D01*
G01*
X638858Y671657D02*
G03*
X638226Y668683I1675J-1909D01*
G01*
X676117Y678703D02*
G03*
X676140Y678703I56J2539D01*
G01*
X597423Y748620D02*
G03*
X599310Y749460I-0J2540D01*
G01*
X520010Y725810D02*
X520210Y729310D01*
X519210Y662610D02*
X536290Y679690D01*
X519210Y656110D02*
Y662610D01*
X394855Y738855D02*
X408821Y752821D01*
X393010Y732310D02*
X394120Y733420D01*
Y737079D01*
X443810Y738810D02*
X458700Y753700D01*
X443810Y732310D02*
Y738810D01*
X469210D02*
X479020Y748620D01*
X469210Y732310D02*
Y738810D01*
X418410Y724910D02*
Y732310D01*
X403810Y710310D02*
X418410Y724910D01*
X481739Y692279D02*
X483869Y694986D01*
X353062Y691310D02*
X479743D01*
X462810Y697310D02*
X494810Y729310D01*
X484923Y696078D02*
X520010Y725810D01*
X341410Y697310D02*
X462810D01*
X324810Y713910D02*
X341410Y697310D01*
X353051Y691310D02*
X353062Y691310D01*
X324810Y664110D02*
X351271Y690571D01*
X324810Y664110D02*
X324810Y664110D01*
X345810Y720310D02*
Y769310D01*
Y720310D02*
X355810Y710310D01*
X403810D01*
X479020Y748620D02*
X590060D01*
X528290Y755390D02*
X543810Y770910D01*
X526600Y753700D02*
X528290Y755390D01*
X458700Y753700D02*
X526600D01*
X502680Y758780D02*
X514810Y770910D01*
X452065Y758780D02*
X502680D01*
X446845Y753560D02*
X452065Y758780D01*
X410612Y753560D02*
X446845D01*
X410601Y753560D02*
X410612Y753560D01*
X536290Y679690D02*
X599060D01*
X638767Y667922D02*
X639730Y666990D01*
X599060Y679690D02*
X614330D01*
X612870Y684474D02*
X612874Y684489D01*
X612646Y683870D02*
X612650Y683878D01*
X639730Y666990D02*
X664560Y678960D01*
X638226Y668683D02*
X638231Y668674D01*
X638858Y671657D02*
X638865Y671663D01*
X692810Y805060D02*
X693060Y801310D01*
X692810Y805060D02*
Y826810D01*
X655210Y748560D02*
X692560Y728560D01*
X692310Y751560D02*
X692560Y728560D01*
X676140Y678703D02*
X692560Y678560D01*
X664560Y678960D02*
X676117Y678703D01*
X619810Y710060D02*
X629810Y748560D01*
X599060Y723810D02*
X599310Y724060D01*
X599060Y679690D02*
Y723810D01*
X602692Y749310D02*
X629810Y748560D01*
X590060Y748620D02*
X597423D01*
X590060D02*
Y771060D01*
X590060D02*
X590060D01*
X642658Y800059D02*
X642810Y826810D01*
X642510Y773960D02*
X642658Y800059D01*
X485600Y795920D02*
Y809520D01*
X482410Y812710D02*
X485600Y809520D01*
X482410Y812710D02*
Y829310D01*
X485600Y795920D02*
X485810Y795710D01*
X309810Y835310D02*
X335810D01*
X310010Y804210D02*
X310210Y804010D01*
X310010Y804210D02*
Y835110D01*
X309810Y835310D02*
X310010Y835110D01*
X366810Y866110D02*
X431610Y930910D01*
X366810Y815710D02*
Y866110D01*
X345810Y794710D02*
X366810Y815710D01*
X374810Y794710D02*
Y848710D01*
X457010Y930910D01*
X402810Y814600D02*
X406210Y818000D01*
X402810Y793310D02*
Y814600D01*
X406210Y818000D02*
Y829310D01*
X430810Y795310D02*
X431610Y796110D01*
Y829310D01*
X457010D02*
X457910Y828410D01*
Y796210D02*
Y828410D01*
Y796210D02*
X458810Y795310D01*
X482410Y829310D02*
X484110Y827610D01*
X507810Y803891D02*
Y829310D01*
Y803891D02*
X514810Y796890D01*
Y796310D02*
Y796890D01*
X533210Y930910D02*
X544520Y919600D01*
Y797020D02*
Y919600D01*
X543810Y796310D02*
X544520Y797020D01*
X860855Y738855D02*
G03*
X860120Y737079I1805J-1787D01*
G01*
X945743Y691310D02*
G03*
X947739Y692279I-0J2540D01*
G01*
X950923Y696078D02*
G03*
X949869Y694986I4887J-5768D01*
G01*
X819051Y691310D02*
G03*
X817271Y690571I11J-2540D01*
G01*
X876601Y753560D02*
G03*
X874821Y752821I11J-2540D01*
G01*
X1078712Y681423D02*
G03*
X1079060Y680960I2192J1283D01*
G01*
X1078650Y683878D02*
G03*
X1078870Y684474I-2254J1171D01*
G01*
X1078646Y683870D02*
G03*
X1078712Y681423I2258J-1163D01*
G01*
X1104230Y668674D02*
G03*
X1104767Y667922I2302J1073D01*
G01*
X1104858Y671657D02*
G03*
X1104226Y668683I1675J-1909D01*
G01*
X1142117Y678703D02*
G03*
X1142140Y678703I56J2539D01*
G01*
X1063423Y748620D02*
G03*
X1065310Y749460I-0J2540D01*
G01*
X986010Y725810D02*
X986210Y729310D01*
X985210Y662610D02*
X1002290Y679690D01*
X985210Y656110D02*
Y662610D01*
X860855Y738855D02*
X874821Y752821D01*
X859010Y732310D02*
X860120Y733420D01*
Y737079D01*
X909810Y738810D02*
X924700Y753700D01*
X909810Y732310D02*
Y738810D01*
X935210D02*
X945020Y748620D01*
X935210Y732310D02*
Y738810D01*
X884410Y724910D02*
Y732310D01*
X869810Y710310D02*
X884410Y724910D01*
X947739Y692279D02*
X949869Y694986D01*
X819062Y691310D02*
X945743D01*
X928810Y697310D02*
X960810Y729310D01*
X950923Y696078D02*
X986010Y725810D01*
X807410Y697310D02*
X928810D01*
X790810Y713910D02*
X807410Y697310D01*
X819051Y691310D02*
X819062Y691310D01*
X790810Y664110D02*
X817271Y690571D01*
X790810Y664110D02*
X790810Y664110D01*
X811810Y720310D02*
Y769310D01*
Y720310D02*
X821810Y710310D01*
X869810D01*
X945020Y748620D02*
X1056060D01*
X994290Y755390D02*
X1009810Y770910D01*
X992600Y753700D02*
X994290Y755390D01*
X924700Y753700D02*
X992600D01*
X968680Y758780D02*
X980810Y770910D01*
X918065Y758780D02*
X968680D01*
X912845Y753560D02*
X918065Y758780D01*
X876612Y753560D02*
X912845D01*
X876601Y753560D02*
X876612Y753560D01*
X1002290Y679690D02*
X1065060D01*
X1104767Y667922D02*
X1105730Y666990D01*
X1065060Y679690D02*
X1080330D01*
X1078870Y684474D02*
X1078874Y684489D01*
X1078646Y683870D02*
X1078650Y683878D01*
X1105730Y666990D02*
X1130560Y678960D01*
X1104226Y668683D02*
X1104230Y668674D01*
X1104858Y671657D02*
X1104865Y671663D01*
X1158810Y805060D02*
X1159060Y801310D01*
X1158810Y805060D02*
Y826810D01*
X1121210Y748560D02*
X1158560Y728560D01*
X1158310Y751560D02*
X1158560Y728560D01*
X1142140Y678703D02*
X1158560Y678560D01*
X1130560Y678960D02*
X1142117Y678703D01*
X1085810Y710060D02*
X1095810Y748560D01*
X1065060Y723810D02*
X1065310Y724060D01*
X1065060Y679690D02*
Y723810D01*
X1068692Y749310D02*
X1095810Y748560D01*
X1056060Y748620D02*
X1063423D01*
X1056060D02*
Y771060D01*
X1056060D02*
X1056060D01*
X1108658Y800059D02*
X1108810Y826810D01*
X1108510Y773960D02*
X1108658Y800059D01*
X951600Y795920D02*
Y809520D01*
X948410Y812710D02*
X951600Y809520D01*
X948410Y812710D02*
Y829310D01*
X951600Y795920D02*
X951810Y795710D01*
X775810Y835310D02*
X801810D01*
X776010Y804210D02*
X776210Y804010D01*
X776010Y804210D02*
Y835110D01*
X775810Y835310D02*
X776010Y835110D01*
X832810Y866110D02*
X897610Y930910D01*
X832810Y815710D02*
Y866110D01*
X811810Y794710D02*
X832810Y815710D01*
X840810Y794710D02*
Y848710D01*
X923010Y930910D01*
X868810Y814600D02*
X872210Y818000D01*
X868810Y793310D02*
Y814600D01*
X872210Y818000D02*
Y829310D01*
X896810Y795310D02*
X897610Y796110D01*
Y829310D01*
X923010D02*
X923910Y828410D01*
Y796210D02*
Y828410D01*
Y796210D02*
X924810Y795310D01*
X948410Y829310D02*
X950110Y827610D01*
X973810Y803891D02*
Y829310D01*
Y803891D02*
X980810Y796890D01*
Y796310D02*
Y796890D01*
X999210Y930910D02*
X1010520Y919600D01*
Y797020D02*
Y919600D01*
X1009810Y796310D02*
X1010520Y797020D01*
D11*
X493560Y325060D02*
D03*
X309810Y473810D02*
D03*
X693060Y439810D02*
D03*
X693310Y490310D02*
D03*
X282810Y473310D02*
D03*
X959560Y325060D02*
D03*
X775810Y473810D02*
D03*
X1159060Y439810D02*
D03*
X1159310Y490310D02*
D03*
X748810Y473310D02*
D03*
X493560Y686560D02*
D03*
X309810Y835310D02*
D03*
X693060Y801310D02*
D03*
X693310Y851810D02*
D03*
X282810Y834810D02*
D03*
X959560Y686560D02*
D03*
X775810Y835310D02*
D03*
X1159060Y801310D02*
D03*
X1159310Y851810D02*
D03*
X748810Y834810D02*
D03*
D12*
X570010Y294610D02*
D03*
X1036010D02*
D03*
X570010Y656110D02*
D03*
X1036010D02*
D03*
D13*
X544610Y294610D02*
D03*
X519210D02*
D03*
X493810D02*
D03*
X468410D02*
D03*
X443010D02*
D03*
X417610D02*
D03*
X392210D02*
D03*
X520010Y370810D02*
D03*
X494610D02*
D03*
X469210D02*
D03*
X443810D02*
D03*
X418410D02*
D03*
X393010D02*
D03*
X367610D02*
D03*
X366810Y294610D02*
D03*
X545410Y370810D02*
D03*
X570810D02*
D03*
X1010610Y294610D02*
D03*
X985210D02*
D03*
X959810D02*
D03*
X934410D02*
D03*
X909010D02*
D03*
X883610D02*
D03*
X858210D02*
D03*
X986010Y370810D02*
D03*
X960610D02*
D03*
X935210D02*
D03*
X909810D02*
D03*
X884410D02*
D03*
X859010D02*
D03*
X833610D02*
D03*
X832810Y294610D02*
D03*
X1011410Y370810D02*
D03*
X1036810D02*
D03*
X544610Y656110D02*
D03*
X519210D02*
D03*
X493810D02*
D03*
X468410D02*
D03*
X443010D02*
D03*
X417610D02*
D03*
X392210D02*
D03*
X520010Y732310D02*
D03*
X494610D02*
D03*
X469210D02*
D03*
X443810D02*
D03*
X418410D02*
D03*
X393010D02*
D03*
X367610D02*
D03*
X366810Y656110D02*
D03*
X545410Y732310D02*
D03*
X570810D02*
D03*
X1010610Y656110D02*
D03*
X985210D02*
D03*
X959810D02*
D03*
X934410D02*
D03*
X909010D02*
D03*
X883610D02*
D03*
X858210D02*
D03*
X986010Y732310D02*
D03*
X960610D02*
D03*
X935210D02*
D03*
X909810D02*
D03*
X884410D02*
D03*
X859010D02*
D03*
X833610D02*
D03*
X832810Y656110D02*
D03*
X1011410Y732310D02*
D03*
X1036810D02*
D03*
D14*
X614330Y292790D02*
D03*
Y318190D02*
D03*
X639730Y305490D02*
D03*
X655210Y387060D02*
D03*
X629810Y387060D02*
D03*
X642510Y412460D02*
D03*
X310210Y442510D02*
D03*
Y417110D02*
D03*
X284810Y429810D02*
D03*
X1080330Y292790D02*
D03*
Y318190D02*
D03*
X1105730Y305490D02*
D03*
X1121210Y387060D02*
D03*
X1095810Y387060D02*
D03*
X1108510Y412460D02*
D03*
X776210Y442510D02*
D03*
Y417110D02*
D03*
X750810Y429810D02*
D03*
X614330Y654290D02*
D03*
Y679690D02*
D03*
X639730Y666990D02*
D03*
X655210Y748560D02*
D03*
X629810Y748560D02*
D03*
X642510Y773960D02*
D03*
X310210Y804010D02*
D03*
Y778610D02*
D03*
X284810Y791310D02*
D03*
X1080330Y654290D02*
D03*
Y679690D02*
D03*
X1105730Y666990D02*
D03*
X1121210Y748560D02*
D03*
X1095810Y748560D02*
D03*
X1108510Y773960D02*
D03*
X776210Y804010D02*
D03*
Y778610D02*
D03*
X750810Y791310D02*
D03*
D15*
X692310Y390060D02*
D03*
X692310Y415460D02*
D03*
X642560Y438560D02*
D03*
X667960Y438560D02*
D03*
X599310Y362560D02*
D03*
Y387960D02*
D03*
X664560Y292060D02*
D03*
X664560Y317460D02*
D03*
X345810Y433210D02*
D03*
Y407810D02*
D03*
X374810Y433210D02*
D03*
Y407810D02*
D03*
X458810Y433810D02*
D03*
Y408410D02*
D03*
X485810Y434210D02*
D03*
Y408810D02*
D03*
X514810Y434810D02*
D03*
Y409410D02*
D03*
X543810Y434810D02*
D03*
Y409410D02*
D03*
X430810Y433810D02*
D03*
Y408410D02*
D03*
X402810Y431810D02*
D03*
Y406410D02*
D03*
X1158310Y390060D02*
D03*
X1158310Y415460D02*
D03*
X1108560Y438560D02*
D03*
X1133960Y438560D02*
D03*
X1065310Y362560D02*
D03*
Y387960D02*
D03*
X1130560Y292060D02*
D03*
X1130560Y317460D02*
D03*
X811810Y433210D02*
D03*
Y407810D02*
D03*
X840810Y433210D02*
D03*
Y407810D02*
D03*
X924810Y433810D02*
D03*
Y408410D02*
D03*
X951810Y434210D02*
D03*
Y408810D02*
D03*
X980810Y434810D02*
D03*
Y409410D02*
D03*
X1009810Y434810D02*
D03*
Y409410D02*
D03*
X896810Y433810D02*
D03*
Y408410D02*
D03*
X868810Y431810D02*
D03*
Y406410D02*
D03*
X692310Y751560D02*
D03*
X692310Y776960D02*
D03*
X642560Y800060D02*
D03*
X667960Y800060D02*
D03*
X599310Y724060D02*
D03*
Y749460D02*
D03*
X664560Y653560D02*
D03*
X664560Y678960D02*
D03*
X345810Y794710D02*
D03*
Y769310D02*
D03*
X374810Y794710D02*
D03*
Y769310D02*
D03*
X458810Y795310D02*
D03*
Y769910D02*
D03*
X485810Y795710D02*
D03*
Y770310D02*
D03*
X514810Y796310D02*
D03*
Y770910D02*
D03*
X543810Y796310D02*
D03*
Y770910D02*
D03*
X430810Y795310D02*
D03*
Y769910D02*
D03*
X402810Y793310D02*
D03*
Y767910D02*
D03*
X1158310Y751560D02*
D03*
X1158310Y776960D02*
D03*
X1108560Y800060D02*
D03*
X1133960Y800060D02*
D03*
X1065310Y724060D02*
D03*
Y749460D02*
D03*
X1130560Y653560D02*
D03*
X1130560Y678960D02*
D03*
X811810Y794710D02*
D03*
Y769310D02*
D03*
X840810Y794710D02*
D03*
Y769310D02*
D03*
X924810Y795310D02*
D03*
Y769910D02*
D03*
X951810Y795710D02*
D03*
Y770310D02*
D03*
X980810Y796310D02*
D03*
Y770910D02*
D03*
X1009810Y796310D02*
D03*
Y770910D02*
D03*
X896810Y795310D02*
D03*
Y769910D02*
D03*
X868810Y793310D02*
D03*
Y767910D02*
D03*
D16*
X692560Y317060D02*
D03*
Y367060D02*
D03*
X642810Y465310D02*
D03*
X692810Y465310D02*
D03*
X619810Y348560D02*
D03*
X669810D02*
D03*
X284948Y350938D02*
D03*
Y400938D02*
D03*
X284810Y329810D02*
D03*
Y279810D02*
D03*
X335810Y523810D02*
D03*
Y473810D02*
D03*
X1158560Y317060D02*
D03*
Y367060D02*
D03*
X1108810Y465310D02*
D03*
X1158810Y465310D02*
D03*
X1085810Y348560D02*
D03*
X1135810D02*
D03*
X750948Y350938D02*
D03*
Y400938D02*
D03*
X750810Y329810D02*
D03*
Y279810D02*
D03*
X801810Y523810D02*
D03*
Y473810D02*
D03*
X692560Y678560D02*
D03*
Y728560D02*
D03*
X642810Y826810D02*
D03*
X692810Y826810D02*
D03*
X619810Y710060D02*
D03*
X669810D02*
D03*
X284948Y712438D02*
D03*
Y762438D02*
D03*
X284810Y691310D02*
D03*
Y641310D02*
D03*
X335810Y885310D02*
D03*
Y835310D02*
D03*
X1158560Y678560D02*
D03*
Y728560D02*
D03*
X1108810Y826810D02*
D03*
X1158810Y826810D02*
D03*
X1085810Y710060D02*
D03*
X1135810D02*
D03*
X750948Y712438D02*
D03*
Y762438D02*
D03*
X750810Y691310D02*
D03*
Y641310D02*
D03*
X801810Y885310D02*
D03*
Y835310D02*
D03*
D17*
X324560Y352060D02*
D03*
Y302260D02*
D03*
X790560Y352060D02*
D03*
Y302260D02*
D03*
X324560Y713560D02*
D03*
Y663760D02*
D03*
X790560Y713560D02*
D03*
Y663760D02*
D03*
D18*
X590060Y429560D02*
D03*
X590060Y409560D02*
D03*
X1056060Y429560D02*
D03*
X1056060Y409560D02*
D03*
X590060Y791060D02*
D03*
X590060Y771060D02*
D03*
X1056060Y791060D02*
D03*
X1056060Y771060D02*
D03*
D19*
X406210Y569410D02*
D03*
X431610D02*
D03*
X457010D02*
D03*
X482410D02*
D03*
X507810D02*
D03*
X533210D02*
D03*
Y467810D02*
D03*
X507810D02*
D03*
X482410D02*
D03*
X457010D02*
D03*
X431610D02*
D03*
X406210D02*
D03*
X872210Y569410D02*
D03*
X897610D02*
D03*
X923010D02*
D03*
X948410D02*
D03*
X973810D02*
D03*
X999210D02*
D03*
Y467810D02*
D03*
X973810D02*
D03*
X948410D02*
D03*
X923010D02*
D03*
X897610D02*
D03*
X872210D02*
D03*
X406210Y930910D02*
D03*
X431610D02*
D03*
X457010D02*
D03*
X482410D02*
D03*
X507810D02*
D03*
X533210D02*
D03*
Y829310D02*
D03*
X507810D02*
D03*
X482410D02*
D03*
X457010D02*
D03*
X431610D02*
D03*
X406210D02*
D03*
X872210Y930910D02*
D03*
X897610D02*
D03*
X923010D02*
D03*
X948410D02*
D03*
X973810D02*
D03*
X999210D02*
D03*
Y829310D02*
D03*
X973810D02*
D03*
X948410D02*
D03*
X923010D02*
D03*
X897610D02*
D03*
X872210D02*
D03*
D20*
X657810Y517810D02*
D03*
X287810D02*
D03*
X1123810D02*
D03*
X753810D02*
D03*
X657810Y879310D02*
D03*
X287810D02*
D03*
X1123810D02*
D03*
X753810D02*
D03*
D21*
X442560Y349060D02*
D03*
X307738Y338166D02*
D03*
X516560Y336560D02*
D03*
X318560Y389560D02*
D03*
X698810Y282560D02*
D03*
X417810Y497810D02*
D03*
X490560D02*
D03*
X580060Y497560D02*
D03*
X287310Y563560D02*
D03*
X353560D02*
D03*
X580560Y564310D02*
D03*
X656978Y565482D02*
D03*
X908560Y349060D02*
D03*
X773737Y338166D02*
D03*
X982560Y336560D02*
D03*
X784560Y389560D02*
D03*
X1164810Y282560D02*
D03*
X883810Y497810D02*
D03*
X956560D02*
D03*
X1046060Y497560D02*
D03*
X753310Y563560D02*
D03*
X819560D02*
D03*
X1046560Y564310D02*
D03*
X1122978Y565482D02*
D03*
X442560Y710560D02*
D03*
X307738Y699666D02*
D03*
X516560Y698060D02*
D03*
X318560Y751060D02*
D03*
X698810Y644060D02*
D03*
X417810Y859310D02*
D03*
X490560D02*
D03*
X580060Y859060D02*
D03*
X287310Y925060D02*
D03*
X353560D02*
D03*
X580560Y925810D02*
D03*
X656978Y926982D02*
D03*
X908560Y710560D02*
D03*
X773737Y699666D02*
D03*
X982560Y698060D02*
D03*
X784560Y751060D02*
D03*
X1164810Y644060D02*
D03*
X883810Y859310D02*
D03*
X956560D02*
D03*
X1046060Y859060D02*
D03*
X753310Y925060D02*
D03*
X819560D02*
D03*
X1046560Y925810D02*
D03*
X1122978Y926982D02*
D03*
M02*
