M48
;Layer_Color=9474304
;FILE_FORMAT=4:4
METRIC,LZ
;TYPE=PLATED
T1F00S00C0.4000
T2F00S00C0.6000
T3F00S00C0.7000
T4F00S00C0.8000
T5F00S00C0.9000
T6F00S00C3.1000
%
T01
X00307738Y00338166
X0031856Y0038956
X0044256Y0034906
X0051656Y0033656
X0069881Y0028256
X00773737Y00338166
X0078456Y0038956
X0090856Y0034906
X0098256Y0033656
X0116481Y0028256
X01122978Y00565482
X0104656Y0056431
X0104606Y0049756
X0095656Y0049781
X0088381
X0081956Y0056356
X0090856Y0071056
X0098256Y0069806
X0116481Y0064406
X00773737Y00699666
X0078456Y0075106
X0069881Y0064406
X00656978Y00565482
X0058056Y0056431
X0058006Y0049756
X0049056Y0049781
X0041781
X0044256Y0071056
X0051656Y0069806
X0075331Y0056356
X0035356
X0028731
X00307738Y00699666
X0031856Y0075106
X0028731Y0092506
X0035356
X0041781Y0085931
X0049056
X0058006Y0085906
X0058056Y0092581
X00656978Y00926982
X0075331Y0092506
X0081956
X0088381Y0085931
X0095656
X0104606Y0085906
X0104656Y0092581
X01122978Y00926982
T02
X0036681Y0029461
X0039221
X0039301Y0037081
X0036761
X0041841
X0044381
X0046921
X0049461
X0052001
X0054541
X0057081
X0059931Y0036256
Y0038796
X0069231Y0039006
X0066456Y0031746
X0066456Y0029206
X0057001Y0029461
X0054461
X0051921
X0049381
X0046841
X0044301
X0041761
X0083281
X0085821
X0088361
X0090901
X0093441
X0095981
X0098521
X0101061
X0103601
X0103681Y0037081
X0101141
X0098601
X0096061
X0093521
X0090981
X0088441
X0085901
X0083361
X0106531Y0036256
Y0038796
X0115831Y0039006
X0113056Y0031746
X0113056Y0029206
X0113396Y0043856
X0110856Y0043856
X0115831Y0041546
X0100981Y0040941
Y0043481
X0098081
Y0040941
X0095181Y0040881
Y0043421
X0092481Y0043381
Y0040841
X0089681
Y0043381
X0086881Y0043181
Y0040641
X0084081Y0040781
Y0043321
X0081181
Y0040781
X0083281Y0065611
X0085821
X0088361
X0090901
X0093441
X0095981
X0098521
X0101061
X0103601
X0103681Y0073231
X0101141
X0098601
X0096061
X0093521
X0090981
X0088441
X0085901
X0083361
X0084081Y0076931
X0081181
X0086881Y0076791
Y0079331
X0089681Y0076991
X0092481
X0095181Y0077031
X0098081Y0077091
X0100981
X0106531Y0074946
Y0072406
X0113056Y0067896
X0113056Y0065356
X0115831Y0075156
X0115831Y0077696
X0069231
X0069231Y0075156
X0059931Y0074946
Y0072406
X0057081Y0073231
X0054541
X0052001
X0049461
X0046921
X0044381
X0041841
X0043081Y0076991
X0045881
X0048581Y0077031
X0051481Y0077091
X0054381
X0054461Y0065611
X0057001
X0051921
X0049381
X0046841
X0044301
X0041761
X0040281Y0076791
Y0079331
Y0043181
Y0040641
X0043081Y0040841
Y0043381
X0045881
Y0040841
X0048581Y0040881
Y0043421
X0051481Y0043481
Y0040941
X0054381
Y0043481
X0064256Y0043856
X0066796Y0043856
X0069231Y0041546
X0066456Y0065356
X0066456Y0067896
X0039221Y0065611
X0036681
X0036761Y0073231
X0039301
X0037481Y0076931
X0034581
Y0043321
Y0040781
X0037481
Y0043321
Y0079471
X0034581
X0043081Y0079531
X0045881
X0048581Y0079571
X0051481Y0079631
X0054381
X0064256Y0080006
X0066796Y0080006
X0081181Y0079471
X0084081
X0089681Y0079531
X0092481
X0095181Y0079571
X0098081Y0079631
X0100981
X0110856Y0080006
X0113396Y0080006
T03
X0032456Y0030226
Y0035206
X0049356Y0032506
X0079056Y0030226
Y0035206
X0095956Y0032506
X0115906Y0043981
X0115931Y0049031
X0095956Y0068656
X0079056Y0066376
Y0071356
X0077581Y0047381
X0074881Y0047331
X0069331Y0049031
X0069306Y0043981
X0049356Y0068656
X0032456Y0066376
Y0071356
X0030981Y0047381
X0028281Y0047331
Y0083481
X0030981Y0083531
X0069331Y0085181
X0069306Y0080131
X0074881Y0083481
X0077581Y0083531
X0115931Y0085181
X0115906Y0080131
T04
X0028481Y0027981
Y0032981
X00284948Y00350938
X0061981Y0034856
X0061433Y0031819
Y0029279
X0063973Y0030549
X0069256Y0031706
Y0036706
X0066981Y0034856
X0065521Y0038706
X0062981Y0038706
X00750948Y00350938
X0075081Y0032981
Y0027981
X0108033Y0029279
Y0031819
X0108581Y0034856
X0109581Y0038706
X0112121Y0038706
X0113581Y0034856
X0115856Y0036706
Y0031706
X0110573Y0030549
X0110851Y0041246
X0110881Y0046531
X0115881Y0046531
X0099921Y0046781
X0097381
X0094841
X0092301
X0089761
X0087221
X0080181Y0047381
Y0052381
X0087221Y0056941
X0089761
X0092301
X0094841
X0097381
X0099921
X0108033Y0065429
Y0067969
X0108581Y0071006
X0109581Y0074856
X0112121Y0074856
X0110851Y0077396
X0113581Y0071006
X0115856Y0072856
Y0067856
X0110573Y0066699
X0075081Y0069131
X00750948Y00712438
Y00762438
X0075081Y0079131
X0077621Y0077861
X0069256Y0072856
X0066981Y0071006
X0061981
X0061433Y0067969
Y0065429
X0063973Y0066699
X0069256Y0067856
X0075081Y0064131
X0065521Y0074856
X0062981Y0074856
X0064251Y0077396
X0064281Y0046531
X0069281Y0046531
X0075081Y0042981
X00750948Y00400938
X0077621Y0041711
Y0044251
X0064251Y0041246
X0053321Y0046781
X0050781
X0048241
X0045701
X0043161
X0040621
Y0056941
X0043161
X0045701
X0048241
X0050781
X0053321
X0033581Y0052381
Y0047381
X0031021Y0044251
Y0041711
X0028481Y0042981
X00284948Y00400938
X0028481Y0064131
Y0069131
X00284948Y00712438
Y00762438
X0028481Y0079131
X0031021Y0077861
Y0080401
X0033581Y0083531
Y0088531
X0040621Y0093091
X0043161
X0045701
X0048241
X0050781
X0053321
Y0082931
X0050781
X0048241
X0045701
X0043161
X0040621
X0064281Y0082681
X0069281Y0082681
X0077621Y0080401
X0080181Y0083531
Y0088531
X0087221Y0093091
X0089761
X0092301
X0094841
X0097381
X0099921
Y0082931
X0097381
X0094841
X0092301
X0089761
X0087221
X0110881Y0082681
X0115881Y0082681
T05
X0105606Y0040956
X0105606Y0042956
X0105606Y0077106
X0105606Y0079106
X0059006
X0059006Y0077106
X0059006Y0042956
X0059006Y0040956
T06
X0112381Y0051781
X0075381
X0065781
X0028781
Y0087931
X0065781
X0075381
X0112381
M30
