G04*
G04 #@! TF.GenerationSoftware,Altium Limited,Altium Designer,21.0.8 (223)*
G04*
G04 Layer_Physical_Order=2*
G04 Layer_Color=16711680*
%FSLAX44Y44*%
%MOMM*%
G71*
G04*
G04 #@! TF.SameCoordinates,2BC88BDB-9D38-482F-83E6-F0616D823ADE*
G04*
G04*
G04 #@! TF.FilePolarity,Positive*
G04*
G01*
G75*
%ADD10C,0.2540*%
G04:AMPARAMS|DCode=11|XSize=1.5mm|YSize=1.5mm|CornerRadius=0.375mm|HoleSize=0mm|Usage=FLASHONLY|Rotation=0.000|XOffset=0mm|YOffset=0mm|HoleType=Round|Shape=RoundedRectangle|*
%AMROUNDEDRECTD11*
21,1,1.5000,0.7500,0,0,0.0*
21,1,0.7500,1.5000,0,0,0.0*
1,1,0.7500,0.3750,-0.3750*
1,1,0.7500,-0.3750,-0.3750*
1,1,0.7500,-0.3750,0.3750*
1,1,0.7500,0.3750,0.3750*
%
%ADD11ROUNDEDRECTD11*%
%ADD12R,1.2000X2.5000*%
%ADD13O,1.2000X2.5000*%
%ADD14C,1.6000*%
%ADD15C,1.3000*%
%ADD16C,1.4000*%
%ADD17C,1.2000*%
%ADD18O,1.8000X1.5000*%
%ADD19C,1.5000*%
%ADD20C,5.0000*%
%ADD21C,1.0000*%
G36*
X1179560Y970810D02*
X1179560Y629310D01*
X943967Y629310D01*
X943575Y630508D01*
X943574Y630580D01*
X950813Y637819D01*
X950813Y637819D01*
X950848Y637784D01*
X952252Y639884D01*
X952524Y641256D01*
X952745Y642362D01*
X952727Y642452D01*
X953659Y643253D01*
X953952Y643341D01*
X955503Y642150D01*
X957581Y641290D01*
X959810Y640996D01*
X962039Y641290D01*
X964117Y642150D01*
X965901Y643519D01*
X967270Y645303D01*
X968130Y647381D01*
X968424Y649610D01*
Y662610D01*
X968130Y664839D01*
X967270Y666917D01*
X965901Y668701D01*
X964117Y670070D01*
X963695Y670245D01*
Y676473D01*
X965764Y676885D01*
X967845Y678275D01*
X969235Y680356D01*
X969723Y682810D01*
Y690310D01*
X969235Y692764D01*
X967845Y694845D01*
X965764Y696235D01*
X963310Y696723D01*
X955810D01*
X953448Y696254D01*
X953164Y696271D01*
X952182Y696801D01*
X952357Y720451D01*
X953630Y720878D01*
X954519Y719719D01*
X956303Y718350D01*
X958381Y717490D01*
X960610Y717196D01*
X962839Y717490D01*
X964917Y718350D01*
X966701Y719719D01*
X968070Y721503D01*
X968930Y723581D01*
X969224Y725810D01*
Y738810D01*
X968930Y741039D01*
X968070Y743117D01*
X966701Y744901D01*
X964917Y746270D01*
X962839Y747130D01*
X960610Y747424D01*
X958381Y747130D01*
X956303Y746270D01*
X954519Y744901D01*
X953800Y743964D01*
X952533Y744399D01*
X952658Y761304D01*
X954170Y761503D01*
X956369Y762414D01*
X958257Y763863D01*
X959706Y765751D01*
X960617Y767950D01*
X960928Y770310D01*
X960617Y772670D01*
X959706Y774869D01*
X958257Y776757D01*
X956369Y778206D01*
X954170Y779117D01*
X951810Y779428D01*
X949450Y779117D01*
X947251Y778206D01*
X945363Y776757D01*
X943914Y774869D01*
X943003Y772670D01*
X942692Y770310D01*
X943003Y767950D01*
X943914Y765751D01*
X944912Y764450D01*
X944741Y741289D01*
X943530Y741039D01*
X942670Y743117D01*
X941301Y744901D01*
X940695Y745366D01*
Y799310D01*
X940399Y800797D01*
X939557Y802057D01*
X929557Y812057D01*
X928297Y812899D01*
X926810Y813195D01*
X804810D01*
X803323Y812899D01*
X802063Y812057D01*
X778894Y788888D01*
X776210Y789241D01*
X773458Y788879D01*
X770894Y787817D01*
X768693Y786127D01*
X767003Y783925D01*
X765941Y781361D01*
X765579Y778610D01*
X765941Y775859D01*
X767003Y773295D01*
X768693Y771093D01*
X770894Y769403D01*
X773458Y768341D01*
X776210Y767979D01*
X778961Y768341D01*
X781525Y769403D01*
X783727Y771093D01*
X785417Y773295D01*
X786479Y775859D01*
X786841Y778610D01*
X786479Y781361D01*
X785417Y783925D01*
X785201Y784207D01*
X806419Y805425D01*
X894656D01*
X894739Y804155D01*
X894450Y804117D01*
X892251Y803206D01*
X890363Y801757D01*
X888914Y799869D01*
X888003Y797670D01*
X887692Y795310D01*
X888003Y792950D01*
X888914Y790751D01*
X890363Y788863D01*
X892251Y787414D01*
X894450Y786503D01*
X896810Y786192D01*
X899170Y786503D01*
X901369Y787414D01*
X903257Y788863D01*
X904706Y790751D01*
X905617Y792950D01*
X905928Y795310D01*
X905617Y797670D01*
X904706Y799869D01*
X903257Y801757D01*
X901369Y803206D01*
X899170Y804117D01*
X898881Y804155D01*
X898964Y805425D01*
X922656D01*
X922739Y804155D01*
X922450Y804117D01*
X920251Y803206D01*
X918363Y801757D01*
X916914Y799869D01*
X916003Y797670D01*
X915692Y795310D01*
X916003Y792950D01*
X916914Y790751D01*
X918363Y788863D01*
X920251Y787414D01*
X922450Y786503D01*
X924810Y786192D01*
X927170Y786503D01*
X929369Y787414D01*
X931257Y788863D01*
X931655Y789381D01*
X932925Y788950D01*
Y776270D01*
X931655Y775839D01*
X931257Y776357D01*
X929369Y777806D01*
X927170Y778717D01*
X924810Y779028D01*
X922450Y778717D01*
X920251Y777806D01*
X918363Y776357D01*
X916914Y774469D01*
X916003Y772270D01*
X915692Y769910D01*
X916003Y767550D01*
X916914Y765351D01*
X918363Y763463D01*
X920251Y762014D01*
X920925Y761734D01*
Y667729D01*
X920715Y666673D01*
Y647709D01*
X917282Y644276D01*
X916325Y645115D01*
X916470Y645303D01*
X917330Y647381D01*
X917624Y649610D01*
Y662610D01*
X917330Y664839D01*
X916470Y666917D01*
X915101Y668701D01*
X913317Y670070D01*
X911239Y670930D01*
X909010Y671224D01*
X906781Y670930D01*
X906358Y670755D01*
X900695Y676419D01*
Y722182D01*
X901965Y722434D01*
X902350Y721503D01*
X903719Y719719D01*
X905503Y718350D01*
X907581Y717490D01*
X909810Y717196D01*
X912039Y717490D01*
X914117Y718350D01*
X915901Y719719D01*
X917270Y721503D01*
X918130Y723581D01*
X918424Y725810D01*
Y738810D01*
X918130Y741039D01*
X917270Y743117D01*
X915901Y744901D01*
X914117Y746270D01*
X912039Y747130D01*
X909810Y747424D01*
X907581Y747130D01*
X905503Y746270D01*
X903719Y744901D01*
X902350Y743117D01*
X901965Y742186D01*
X900695Y742438D01*
Y761734D01*
X901369Y762014D01*
X903257Y763463D01*
X904706Y765351D01*
X905617Y767550D01*
X905928Y769910D01*
X905617Y772270D01*
X904706Y774469D01*
X903257Y776357D01*
X901369Y777806D01*
X899170Y778717D01*
X896810Y779028D01*
X894450Y778717D01*
X892251Y777806D01*
X890363Y776357D01*
X888914Y774469D01*
X888003Y772270D01*
X887692Y769910D01*
X888003Y767550D01*
X888914Y765351D01*
X890363Y763463D01*
X892251Y762014D01*
X892925Y761734D01*
Y743720D01*
X892894Y743703D01*
X891655Y743396D01*
X890501Y744901D01*
X888717Y746270D01*
X886639Y747130D01*
X884410Y747424D01*
X882181Y747130D01*
X880103Y746270D01*
X878319Y744901D01*
X876950Y743117D01*
X876090Y741039D01*
X875796Y738810D01*
Y725810D01*
X876090Y723581D01*
X876950Y721503D01*
X878319Y719719D01*
X880103Y718350D01*
X882181Y717490D01*
X884410Y717196D01*
X886639Y717490D01*
X888717Y718350D01*
X890501Y719719D01*
X891655Y721224D01*
X892894Y720917D01*
X892925Y720900D01*
Y674810D01*
X893221Y673323D01*
X894063Y672063D01*
X900865Y665262D01*
X900690Y664839D01*
X900396Y662610D01*
Y649610D01*
X900690Y647381D01*
X901550Y645303D01*
X901918Y644824D01*
X901357Y643685D01*
X895029D01*
X891755Y646958D01*
X891930Y647381D01*
X892224Y649610D01*
Y662610D01*
X891930Y664839D01*
X891070Y666917D01*
X889701Y668701D01*
X887917Y670070D01*
X885839Y670930D01*
X883610Y671224D01*
X881381Y670930D01*
X879303Y670070D01*
X877519Y668701D01*
X876150Y666917D01*
X875290Y664839D01*
X874996Y662610D01*
Y649610D01*
X875290Y647381D01*
X876150Y645303D01*
X877519Y643519D01*
X879303Y642150D01*
X881381Y641290D01*
X883610Y640996D01*
X885839Y641290D01*
X886262Y641465D01*
X889358Y638368D01*
X888872Y637195D01*
X875419D01*
X866465Y646149D01*
Y647222D01*
X866530Y647381D01*
X866824Y649610D01*
Y662610D01*
X866530Y664839D01*
X865670Y666917D01*
X864301Y668701D01*
X862517Y670070D01*
X860439Y670930D01*
X858210Y671224D01*
X855981Y670930D01*
X853903Y670070D01*
X852119Y668701D01*
X850750Y666917D01*
X849890Y664839D01*
X849596Y662610D01*
Y649610D01*
X849890Y647381D01*
X850750Y645303D01*
X852119Y643519D01*
X853903Y642150D01*
X855981Y641290D01*
X858210Y640996D01*
X860348Y641278D01*
X871046Y630580D01*
X871045Y630508D01*
X870653Y629310D01*
X733810D01*
X733810Y858504D01*
X735080Y859089D01*
X737572Y856961D01*
X741268Y854696D01*
X745273Y853037D01*
X749489Y852025D01*
X752540Y851785D01*
Y879310D01*
Y906835D01*
X749489Y906595D01*
X745273Y905583D01*
X741268Y903924D01*
X737572Y901659D01*
X735080Y899531D01*
X733810Y900116D01*
X733810Y970810D01*
X1179560Y970810D01*
D02*
G37*
G36*
X713560D02*
X713560Y629310D01*
X477967Y629310D01*
X477575Y630508D01*
X477574Y630580D01*
X484813Y637819D01*
X484813Y637819D01*
X484848Y637784D01*
X486252Y639884D01*
X486524Y641256D01*
X486744Y642362D01*
X486727Y642452D01*
X487659Y643253D01*
X487952Y643341D01*
X489503Y642150D01*
X491581Y641290D01*
X493810Y640996D01*
X496039Y641290D01*
X498117Y642150D01*
X499901Y643519D01*
X501270Y645303D01*
X502130Y647381D01*
X502424Y649610D01*
Y662610D01*
X502130Y664839D01*
X501270Y666917D01*
X499901Y668701D01*
X498117Y670070D01*
X497695Y670245D01*
Y676473D01*
X499764Y676885D01*
X501845Y678275D01*
X503235Y680356D01*
X503723Y682810D01*
Y690310D01*
X503235Y692764D01*
X501845Y694845D01*
X499764Y696235D01*
X497310Y696723D01*
X489810D01*
X487448Y696254D01*
X487164Y696271D01*
X486182Y696801D01*
X486357Y720451D01*
X487630Y720878D01*
X488519Y719719D01*
X490303Y718350D01*
X492381Y717490D01*
X494610Y717196D01*
X496839Y717490D01*
X498917Y718350D01*
X500701Y719719D01*
X502070Y721503D01*
X502930Y723581D01*
X503224Y725810D01*
Y738810D01*
X502930Y741039D01*
X502070Y743117D01*
X500701Y744901D01*
X498917Y746270D01*
X496839Y747130D01*
X494610Y747424D01*
X492381Y747130D01*
X490303Y746270D01*
X488519Y744901D01*
X487800Y743964D01*
X486534Y744399D01*
X486658Y761304D01*
X488170Y761503D01*
X490369Y762414D01*
X492257Y763863D01*
X493706Y765751D01*
X494617Y767950D01*
X494928Y770310D01*
X494617Y772670D01*
X493706Y774869D01*
X492257Y776757D01*
X490369Y778206D01*
X488170Y779117D01*
X485810Y779428D01*
X483450Y779117D01*
X481251Y778206D01*
X479363Y776757D01*
X477914Y774869D01*
X477003Y772670D01*
X476692Y770310D01*
X477003Y767950D01*
X477914Y765751D01*
X478912Y764450D01*
X478741Y741289D01*
X477530Y741039D01*
X476670Y743117D01*
X475301Y744901D01*
X474695Y745366D01*
Y799310D01*
X474399Y800797D01*
X473557Y802057D01*
X463557Y812057D01*
X462297Y812899D01*
X460810Y813195D01*
X338810D01*
X337323Y812899D01*
X336063Y812057D01*
X312894Y788888D01*
X310210Y789241D01*
X307458Y788879D01*
X304895Y787817D01*
X302693Y786127D01*
X301003Y783925D01*
X299941Y781361D01*
X299579Y778610D01*
X299941Y775859D01*
X301003Y773295D01*
X302693Y771093D01*
X304895Y769403D01*
X307458Y768341D01*
X310210Y767979D01*
X312962Y768341D01*
X315525Y769403D01*
X317727Y771093D01*
X319417Y773295D01*
X320479Y775859D01*
X320841Y778610D01*
X320479Y781361D01*
X319417Y783925D01*
X319201Y784207D01*
X340419Y805425D01*
X428656D01*
X428739Y804155D01*
X428450Y804117D01*
X426251Y803206D01*
X424363Y801757D01*
X422914Y799869D01*
X422003Y797670D01*
X421692Y795310D01*
X422003Y792950D01*
X422914Y790751D01*
X424363Y788863D01*
X426251Y787414D01*
X428450Y786503D01*
X430810Y786192D01*
X433170Y786503D01*
X435369Y787414D01*
X437257Y788863D01*
X438706Y790751D01*
X439617Y792950D01*
X439928Y795310D01*
X439617Y797670D01*
X438706Y799869D01*
X437257Y801757D01*
X435369Y803206D01*
X433170Y804117D01*
X432881Y804155D01*
X432964Y805425D01*
X456656D01*
X456739Y804155D01*
X456450Y804117D01*
X454251Y803206D01*
X452363Y801757D01*
X450914Y799869D01*
X450003Y797670D01*
X449692Y795310D01*
X450003Y792950D01*
X450914Y790751D01*
X452363Y788863D01*
X454251Y787414D01*
X456450Y786503D01*
X458810Y786192D01*
X461170Y786503D01*
X463369Y787414D01*
X465257Y788863D01*
X465655Y789381D01*
X466925Y788950D01*
Y776270D01*
X465655Y775839D01*
X465257Y776357D01*
X463369Y777806D01*
X461170Y778717D01*
X458810Y779028D01*
X456450Y778717D01*
X454251Y777806D01*
X452363Y776357D01*
X450914Y774469D01*
X450003Y772270D01*
X449692Y769910D01*
X450003Y767550D01*
X450914Y765351D01*
X452363Y763463D01*
X454251Y762014D01*
X454925Y761734D01*
Y667729D01*
X454715Y666673D01*
Y647709D01*
X451282Y644276D01*
X450325Y645115D01*
X450470Y645303D01*
X451330Y647381D01*
X451624Y649610D01*
Y662610D01*
X451330Y664839D01*
X450470Y666917D01*
X449101Y668701D01*
X447317Y670070D01*
X445239Y670930D01*
X443010Y671224D01*
X440781Y670930D01*
X440358Y670755D01*
X434695Y676419D01*
Y722182D01*
X435965Y722434D01*
X436350Y721503D01*
X437719Y719719D01*
X439503Y718350D01*
X441581Y717490D01*
X443810Y717196D01*
X446039Y717490D01*
X448117Y718350D01*
X449901Y719719D01*
X451270Y721503D01*
X452130Y723581D01*
X452424Y725810D01*
Y738810D01*
X452130Y741039D01*
X451270Y743117D01*
X449901Y744901D01*
X448117Y746270D01*
X446039Y747130D01*
X443810Y747424D01*
X441581Y747130D01*
X439503Y746270D01*
X437719Y744901D01*
X436350Y743117D01*
X435965Y742186D01*
X434695Y742438D01*
Y761734D01*
X435369Y762014D01*
X437257Y763463D01*
X438706Y765351D01*
X439617Y767550D01*
X439928Y769910D01*
X439617Y772270D01*
X438706Y774469D01*
X437257Y776357D01*
X435369Y777806D01*
X433170Y778717D01*
X430810Y779028D01*
X428450Y778717D01*
X426251Y777806D01*
X424363Y776357D01*
X422914Y774469D01*
X422003Y772270D01*
X421692Y769910D01*
X422003Y767550D01*
X422914Y765351D01*
X424363Y763463D01*
X426251Y762014D01*
X426925Y761734D01*
Y743720D01*
X426894Y743703D01*
X425655Y743396D01*
X424501Y744901D01*
X422717Y746270D01*
X420639Y747130D01*
X418410Y747424D01*
X416181Y747130D01*
X414103Y746270D01*
X412319Y744901D01*
X410950Y743117D01*
X410090Y741039D01*
X409796Y738810D01*
Y725810D01*
X410090Y723581D01*
X410950Y721503D01*
X412319Y719719D01*
X414103Y718350D01*
X416181Y717490D01*
X418410Y717196D01*
X420639Y717490D01*
X422717Y718350D01*
X424501Y719719D01*
X425655Y721224D01*
X426894Y720917D01*
X426925Y720900D01*
Y674810D01*
X427221Y673323D01*
X428063Y672063D01*
X434865Y665262D01*
X434690Y664839D01*
X434396Y662610D01*
Y649610D01*
X434690Y647381D01*
X435550Y645303D01*
X435918Y644824D01*
X435356Y643685D01*
X429029D01*
X425755Y646958D01*
X425930Y647381D01*
X426224Y649610D01*
Y662610D01*
X425930Y664839D01*
X425070Y666917D01*
X423701Y668701D01*
X421917Y670070D01*
X419839Y670930D01*
X417610Y671224D01*
X415381Y670930D01*
X413303Y670070D01*
X411519Y668701D01*
X410150Y666917D01*
X409290Y664839D01*
X408996Y662610D01*
Y649610D01*
X409290Y647381D01*
X410150Y645303D01*
X411519Y643519D01*
X413303Y642150D01*
X415381Y641290D01*
X417610Y640996D01*
X419839Y641290D01*
X420261Y641465D01*
X423358Y638368D01*
X422872Y637195D01*
X409419D01*
X400465Y646149D01*
Y647222D01*
X400530Y647381D01*
X400824Y649610D01*
Y662610D01*
X400530Y664839D01*
X399670Y666917D01*
X398301Y668701D01*
X396517Y670070D01*
X394439Y670930D01*
X392210Y671224D01*
X389981Y670930D01*
X387903Y670070D01*
X386119Y668701D01*
X384750Y666917D01*
X383890Y664839D01*
X383596Y662610D01*
Y649610D01*
X383890Y647381D01*
X384750Y645303D01*
X386119Y643519D01*
X387903Y642150D01*
X389981Y641290D01*
X392210Y640996D01*
X394348Y641278D01*
X405046Y630580D01*
X405045Y630508D01*
X404653Y629310D01*
X267810D01*
X267810Y858504D01*
X269080Y859089D01*
X271572Y856961D01*
X275268Y854696D01*
X279273Y853037D01*
X283489Y852025D01*
X286540Y851785D01*
Y879310D01*
Y906835D01*
X283489Y906595D01*
X279273Y905583D01*
X275268Y903924D01*
X271572Y901659D01*
X269080Y899531D01*
X267810Y900116D01*
X267810Y970810D01*
X713560Y970810D01*
D02*
G37*
G36*
X944605Y722857D02*
X944375Y691664D01*
X944353Y690395D01*
X944342Y690310D01*
X944356D01*
X944365Y689129D01*
X944365Y689128D01*
Y683915D01*
X944365Y682810D01*
X944342Y682810D01*
X944350Y682745D01*
X944382Y681547D01*
X944382Y681546D01*
X944918Y642911D01*
X939201Y637195D01*
X922848D01*
X922362Y638368D01*
X927063Y643070D01*
X927726Y643307D01*
X928760Y643181D01*
X930103Y642150D01*
X932181Y641290D01*
X933140Y641163D01*
Y656110D01*
Y671057D01*
X932181Y670930D01*
X930103Y670070D01*
X929834Y669863D01*
X928695Y670425D01*
Y718444D01*
X929965Y719070D01*
X930903Y718350D01*
X932981Y717490D01*
X935210Y717196D01*
X937439Y717490D01*
X939517Y718350D01*
X941301Y719719D01*
X942670Y721503D01*
X943337Y723114D01*
X944605Y722857D01*
D02*
G37*
G36*
X478605D02*
X478375Y691664D01*
X478353Y690395D01*
X478342Y690310D01*
X478356D01*
X478365Y689129D01*
X478365Y689128D01*
Y683915D01*
X478365Y682810D01*
X478342Y682810D01*
X478350Y682745D01*
X478382Y681547D01*
X478382Y681546D01*
X478918Y642911D01*
X473201Y637195D01*
X456848D01*
X456362Y638368D01*
X461063Y643070D01*
X461726Y643307D01*
X462760Y643181D01*
X464103Y642150D01*
X466181Y641290D01*
X467140Y641163D01*
Y656110D01*
Y671057D01*
X466181Y670930D01*
X464103Y670070D01*
X463834Y669863D01*
X462695Y670425D01*
Y718444D01*
X463965Y719070D01*
X464903Y718350D01*
X466981Y717490D01*
X469210Y717196D01*
X471439Y717490D01*
X473517Y718350D01*
X475301Y719719D01*
X476670Y721503D01*
X477337Y723114D01*
X478605Y722857D01*
D02*
G37*
G36*
X1179560Y609310D02*
X1179560Y267810D01*
X943967Y267810D01*
X943575Y269008D01*
X943574Y269080D01*
X950813Y276319D01*
X950813Y276319D01*
X950848Y276284D01*
X952252Y278384D01*
X952524Y279756D01*
X952745Y280862D01*
X952727Y280952D01*
X953659Y281753D01*
X953952Y281841D01*
X955503Y280650D01*
X957581Y279790D01*
X959810Y279496D01*
X962039Y279790D01*
X964117Y280650D01*
X965901Y282019D01*
X967270Y283803D01*
X968130Y285881D01*
X968424Y288110D01*
Y301110D01*
X968130Y303339D01*
X967270Y305417D01*
X965901Y307201D01*
X964117Y308570D01*
X963695Y308745D01*
Y314973D01*
X965764Y315385D01*
X967845Y316775D01*
X969235Y318856D01*
X969723Y321310D01*
Y328810D01*
X969235Y331264D01*
X967845Y333345D01*
X965764Y334735D01*
X963310Y335223D01*
X955810D01*
X953448Y334753D01*
X953164Y334771D01*
X952182Y335301D01*
X952357Y358951D01*
X953630Y359378D01*
X954519Y358219D01*
X956303Y356850D01*
X958381Y355990D01*
X960610Y355696D01*
X962839Y355990D01*
X964917Y356850D01*
X966701Y358219D01*
X968070Y360003D01*
X968930Y362081D01*
X969224Y364310D01*
Y377310D01*
X968930Y379539D01*
X968070Y381617D01*
X966701Y383401D01*
X964917Y384770D01*
X962839Y385630D01*
X960610Y385924D01*
X958381Y385630D01*
X956303Y384770D01*
X954519Y383401D01*
X953800Y382464D01*
X952533Y382899D01*
X952658Y399804D01*
X954170Y400003D01*
X956369Y400914D01*
X958257Y402363D01*
X959706Y404251D01*
X960617Y406450D01*
X960928Y408810D01*
X960617Y411170D01*
X959706Y413369D01*
X958257Y415257D01*
X956369Y416706D01*
X954170Y417617D01*
X951810Y417928D01*
X949450Y417617D01*
X947251Y416706D01*
X945363Y415257D01*
X943914Y413369D01*
X943003Y411170D01*
X942692Y408810D01*
X943003Y406450D01*
X943914Y404251D01*
X944912Y402950D01*
X944741Y379789D01*
X943530Y379539D01*
X942670Y381617D01*
X941301Y383401D01*
X940695Y383866D01*
Y437810D01*
X940399Y439297D01*
X939557Y440557D01*
X929557Y450557D01*
X928297Y451399D01*
X926810Y451695D01*
X804810D01*
X803323Y451399D01*
X802063Y450557D01*
X778894Y427388D01*
X776210Y427741D01*
X773458Y427379D01*
X770894Y426317D01*
X768693Y424627D01*
X767003Y422425D01*
X765941Y419861D01*
X765579Y417110D01*
X765941Y414358D01*
X767003Y411795D01*
X768693Y409593D01*
X770894Y407903D01*
X773458Y406841D01*
X776210Y406479D01*
X778961Y406841D01*
X781525Y407903D01*
X783727Y409593D01*
X785417Y411795D01*
X786479Y414358D01*
X786841Y417110D01*
X786479Y419861D01*
X785417Y422425D01*
X785201Y422707D01*
X806419Y443925D01*
X894656D01*
X894739Y442655D01*
X894450Y442617D01*
X892251Y441706D01*
X890363Y440257D01*
X888914Y438369D01*
X888003Y436170D01*
X887692Y433810D01*
X888003Y431450D01*
X888914Y429251D01*
X890363Y427363D01*
X892251Y425914D01*
X894450Y425003D01*
X896810Y424692D01*
X899170Y425003D01*
X901369Y425914D01*
X903257Y427363D01*
X904706Y429251D01*
X905617Y431450D01*
X905928Y433810D01*
X905617Y436170D01*
X904706Y438369D01*
X903257Y440257D01*
X901369Y441706D01*
X899170Y442617D01*
X898881Y442655D01*
X898964Y443925D01*
X922656D01*
X922739Y442655D01*
X922450Y442617D01*
X920251Y441706D01*
X918363Y440257D01*
X916914Y438369D01*
X916003Y436170D01*
X915692Y433810D01*
X916003Y431450D01*
X916914Y429251D01*
X918363Y427363D01*
X920251Y425914D01*
X922450Y425003D01*
X924810Y424692D01*
X927170Y425003D01*
X929369Y425914D01*
X931257Y427363D01*
X931655Y427881D01*
X932925Y427450D01*
Y414770D01*
X931655Y414339D01*
X931257Y414857D01*
X929369Y416306D01*
X927170Y417217D01*
X924810Y417528D01*
X922450Y417217D01*
X920251Y416306D01*
X918363Y414857D01*
X916914Y412969D01*
X916003Y410770D01*
X915692Y408410D01*
X916003Y406050D01*
X916914Y403851D01*
X918363Y401963D01*
X920251Y400514D01*
X920925Y400234D01*
Y306229D01*
X920715Y305173D01*
Y286209D01*
X917282Y282776D01*
X916325Y283615D01*
X916470Y283803D01*
X917330Y285881D01*
X917624Y288110D01*
Y301110D01*
X917330Y303339D01*
X916470Y305417D01*
X915101Y307201D01*
X913317Y308570D01*
X911239Y309430D01*
X909010Y309724D01*
X906781Y309430D01*
X906358Y309255D01*
X900695Y314919D01*
Y360682D01*
X901965Y360934D01*
X902350Y360003D01*
X903719Y358219D01*
X905503Y356850D01*
X907581Y355990D01*
X909810Y355696D01*
X912039Y355990D01*
X914117Y356850D01*
X915901Y358219D01*
X917270Y360003D01*
X918130Y362081D01*
X918424Y364310D01*
Y377310D01*
X918130Y379539D01*
X917270Y381617D01*
X915901Y383401D01*
X914117Y384770D01*
X912039Y385630D01*
X909810Y385924D01*
X907581Y385630D01*
X905503Y384770D01*
X903719Y383401D01*
X902350Y381617D01*
X901965Y380686D01*
X900695Y380938D01*
Y400234D01*
X901369Y400514D01*
X903257Y401963D01*
X904706Y403851D01*
X905617Y406050D01*
X905928Y408410D01*
X905617Y410770D01*
X904706Y412969D01*
X903257Y414857D01*
X901369Y416306D01*
X899170Y417217D01*
X896810Y417528D01*
X894450Y417217D01*
X892251Y416306D01*
X890363Y414857D01*
X888914Y412969D01*
X888003Y410770D01*
X887692Y408410D01*
X888003Y406050D01*
X888914Y403851D01*
X890363Y401963D01*
X892251Y400514D01*
X892925Y400234D01*
Y382220D01*
X892894Y382203D01*
X891655Y381896D01*
X890501Y383401D01*
X888717Y384770D01*
X886639Y385630D01*
X884410Y385924D01*
X882181Y385630D01*
X880103Y384770D01*
X878319Y383401D01*
X876950Y381617D01*
X876090Y379539D01*
X875796Y377310D01*
Y364310D01*
X876090Y362081D01*
X876950Y360003D01*
X878319Y358219D01*
X880103Y356850D01*
X882181Y355990D01*
X884410Y355696D01*
X886639Y355990D01*
X888717Y356850D01*
X890501Y358219D01*
X891655Y359724D01*
X892894Y359417D01*
X892925Y359399D01*
Y313310D01*
X893221Y311823D01*
X894063Y310563D01*
X900865Y303762D01*
X900690Y303339D01*
X900396Y301110D01*
Y288110D01*
X900690Y285881D01*
X901550Y283803D01*
X901918Y283324D01*
X901357Y282185D01*
X895029D01*
X891755Y285458D01*
X891930Y285881D01*
X892224Y288110D01*
Y301110D01*
X891930Y303339D01*
X891070Y305417D01*
X889701Y307201D01*
X887917Y308570D01*
X885839Y309430D01*
X883610Y309724D01*
X881381Y309430D01*
X879303Y308570D01*
X877519Y307201D01*
X876150Y305417D01*
X875290Y303339D01*
X874996Y301110D01*
Y288110D01*
X875290Y285881D01*
X876150Y283803D01*
X877519Y282019D01*
X879303Y280650D01*
X881381Y279790D01*
X883610Y279496D01*
X885839Y279790D01*
X886262Y279965D01*
X889358Y276868D01*
X888872Y275695D01*
X875419D01*
X866465Y284649D01*
Y285722D01*
X866530Y285881D01*
X866824Y288110D01*
Y301110D01*
X866530Y303339D01*
X865670Y305417D01*
X864301Y307201D01*
X862517Y308570D01*
X860439Y309430D01*
X858210Y309724D01*
X855981Y309430D01*
X853903Y308570D01*
X852119Y307201D01*
X850750Y305417D01*
X849890Y303339D01*
X849596Y301110D01*
Y288110D01*
X849890Y285881D01*
X850750Y283803D01*
X852119Y282019D01*
X853903Y280650D01*
X855981Y279790D01*
X858210Y279496D01*
X860348Y279778D01*
X871046Y269080D01*
X871045Y269008D01*
X870653Y267810D01*
X733810D01*
X733810Y497004D01*
X735080Y497589D01*
X737572Y495461D01*
X741268Y493196D01*
X745273Y491537D01*
X749489Y490525D01*
X752540Y490285D01*
Y517810D01*
Y545335D01*
X749489Y545095D01*
X745273Y544083D01*
X741268Y542424D01*
X737572Y540159D01*
X735080Y538031D01*
X733810Y538616D01*
X733810Y609310D01*
X1179560Y609310D01*
D02*
G37*
G36*
X713560D02*
X713560Y267810D01*
X477967Y267810D01*
X477575Y269008D01*
X477574Y269080D01*
X484813Y276319D01*
X484813Y276319D01*
X484848Y276284D01*
X486252Y278384D01*
X486524Y279756D01*
X486744Y280862D01*
X486727Y280952D01*
X487659Y281753D01*
X487952Y281841D01*
X489503Y280650D01*
X491581Y279790D01*
X493810Y279496D01*
X496039Y279790D01*
X498117Y280650D01*
X499901Y282019D01*
X501270Y283803D01*
X502130Y285881D01*
X502424Y288110D01*
Y301110D01*
X502130Y303339D01*
X501270Y305417D01*
X499901Y307201D01*
X498117Y308570D01*
X497695Y308745D01*
Y314973D01*
X499764Y315385D01*
X501845Y316775D01*
X503235Y318856D01*
X503723Y321310D01*
Y328810D01*
X503235Y331264D01*
X501845Y333345D01*
X499764Y334735D01*
X497310Y335223D01*
X489810D01*
X487448Y334753D01*
X487164Y334771D01*
X486182Y335301D01*
X486357Y358951D01*
X487630Y359378D01*
X488519Y358219D01*
X490303Y356850D01*
X492381Y355990D01*
X494610Y355696D01*
X496839Y355990D01*
X498917Y356850D01*
X500701Y358219D01*
X502070Y360003D01*
X502930Y362081D01*
X503224Y364310D01*
Y377310D01*
X502930Y379539D01*
X502070Y381617D01*
X500701Y383401D01*
X498917Y384770D01*
X496839Y385630D01*
X494610Y385924D01*
X492381Y385630D01*
X490303Y384770D01*
X488519Y383401D01*
X487800Y382464D01*
X486534Y382899D01*
X486658Y399804D01*
X488170Y400003D01*
X490369Y400914D01*
X492257Y402363D01*
X493706Y404251D01*
X494617Y406450D01*
X494928Y408810D01*
X494617Y411170D01*
X493706Y413369D01*
X492257Y415257D01*
X490369Y416706D01*
X488170Y417617D01*
X485810Y417928D01*
X483450Y417617D01*
X481251Y416706D01*
X479363Y415257D01*
X477914Y413369D01*
X477003Y411170D01*
X476692Y408810D01*
X477003Y406450D01*
X477914Y404251D01*
X478912Y402950D01*
X478741Y379789D01*
X477530Y379539D01*
X476670Y381617D01*
X475301Y383401D01*
X474695Y383866D01*
Y437810D01*
X474399Y439297D01*
X473557Y440557D01*
X463557Y450557D01*
X462297Y451399D01*
X460810Y451695D01*
X338810D01*
X337323Y451399D01*
X336063Y450557D01*
X312894Y427388D01*
X310210Y427741D01*
X307458Y427379D01*
X304895Y426317D01*
X302693Y424627D01*
X301003Y422425D01*
X299941Y419861D01*
X299579Y417110D01*
X299941Y414358D01*
X301003Y411795D01*
X302693Y409593D01*
X304895Y407903D01*
X307458Y406841D01*
X310210Y406479D01*
X312962Y406841D01*
X315525Y407903D01*
X317727Y409593D01*
X319417Y411795D01*
X320479Y414358D01*
X320841Y417110D01*
X320479Y419861D01*
X319417Y422425D01*
X319201Y422707D01*
X340419Y443925D01*
X428656D01*
X428739Y442655D01*
X428450Y442617D01*
X426251Y441706D01*
X424363Y440257D01*
X422914Y438369D01*
X422003Y436170D01*
X421692Y433810D01*
X422003Y431450D01*
X422914Y429251D01*
X424363Y427363D01*
X426251Y425914D01*
X428450Y425003D01*
X430810Y424692D01*
X433170Y425003D01*
X435369Y425914D01*
X437257Y427363D01*
X438706Y429251D01*
X439617Y431450D01*
X439928Y433810D01*
X439617Y436170D01*
X438706Y438369D01*
X437257Y440257D01*
X435369Y441706D01*
X433170Y442617D01*
X432881Y442655D01*
X432964Y443925D01*
X456656D01*
X456739Y442655D01*
X456450Y442617D01*
X454251Y441706D01*
X452363Y440257D01*
X450914Y438369D01*
X450003Y436170D01*
X449692Y433810D01*
X450003Y431450D01*
X450914Y429251D01*
X452363Y427363D01*
X454251Y425914D01*
X456450Y425003D01*
X458810Y424692D01*
X461170Y425003D01*
X463369Y425914D01*
X465257Y427363D01*
X465655Y427881D01*
X466925Y427450D01*
Y414770D01*
X465655Y414339D01*
X465257Y414857D01*
X463369Y416306D01*
X461170Y417217D01*
X458810Y417528D01*
X456450Y417217D01*
X454251Y416306D01*
X452363Y414857D01*
X450914Y412969D01*
X450003Y410770D01*
X449692Y408410D01*
X450003Y406050D01*
X450914Y403851D01*
X452363Y401963D01*
X454251Y400514D01*
X454925Y400234D01*
Y306229D01*
X454715Y305173D01*
Y286209D01*
X451282Y282776D01*
X450325Y283615D01*
X450470Y283803D01*
X451330Y285881D01*
X451624Y288110D01*
Y301110D01*
X451330Y303339D01*
X450470Y305417D01*
X449101Y307201D01*
X447317Y308570D01*
X445239Y309430D01*
X443010Y309724D01*
X440781Y309430D01*
X440358Y309255D01*
X434695Y314919D01*
Y360682D01*
X435965Y360934D01*
X436350Y360003D01*
X437719Y358219D01*
X439503Y356850D01*
X441581Y355990D01*
X443810Y355696D01*
X446039Y355990D01*
X448117Y356850D01*
X449901Y358219D01*
X451270Y360003D01*
X452130Y362081D01*
X452424Y364310D01*
Y377310D01*
X452130Y379539D01*
X451270Y381617D01*
X449901Y383401D01*
X448117Y384770D01*
X446039Y385630D01*
X443810Y385924D01*
X441581Y385630D01*
X439503Y384770D01*
X437719Y383401D01*
X436350Y381617D01*
X435965Y380686D01*
X434695Y380938D01*
Y400234D01*
X435369Y400514D01*
X437257Y401963D01*
X438706Y403851D01*
X439617Y406050D01*
X439928Y408410D01*
X439617Y410770D01*
X438706Y412969D01*
X437257Y414857D01*
X435369Y416306D01*
X433170Y417217D01*
X430810Y417528D01*
X428450Y417217D01*
X426251Y416306D01*
X424363Y414857D01*
X422914Y412969D01*
X422003Y410770D01*
X421692Y408410D01*
X422003Y406050D01*
X422914Y403851D01*
X424363Y401963D01*
X426251Y400514D01*
X426925Y400234D01*
Y382220D01*
X426894Y382203D01*
X425655Y381896D01*
X424501Y383401D01*
X422717Y384770D01*
X420639Y385630D01*
X418410Y385924D01*
X416181Y385630D01*
X414103Y384770D01*
X412319Y383401D01*
X410950Y381617D01*
X410090Y379539D01*
X409796Y377310D01*
Y364310D01*
X410090Y362081D01*
X410950Y360003D01*
X412319Y358219D01*
X414103Y356850D01*
X416181Y355990D01*
X418410Y355696D01*
X420639Y355990D01*
X422717Y356850D01*
X424501Y358219D01*
X425655Y359724D01*
X426894Y359417D01*
X426925Y359399D01*
Y313310D01*
X427221Y311823D01*
X428063Y310563D01*
X434865Y303762D01*
X434690Y303339D01*
X434396Y301110D01*
Y288110D01*
X434690Y285881D01*
X435550Y283803D01*
X435918Y283324D01*
X435356Y282185D01*
X429029D01*
X425755Y285458D01*
X425930Y285881D01*
X426224Y288110D01*
Y301110D01*
X425930Y303339D01*
X425070Y305417D01*
X423701Y307201D01*
X421917Y308570D01*
X419839Y309430D01*
X417610Y309724D01*
X415381Y309430D01*
X413303Y308570D01*
X411519Y307201D01*
X410150Y305417D01*
X409290Y303339D01*
X408996Y301110D01*
Y288110D01*
X409290Y285881D01*
X410150Y283803D01*
X411519Y282019D01*
X413303Y280650D01*
X415381Y279790D01*
X417610Y279496D01*
X419839Y279790D01*
X420261Y279965D01*
X423358Y276868D01*
X422872Y275695D01*
X409419D01*
X400465Y284649D01*
Y285722D01*
X400530Y285881D01*
X400824Y288110D01*
Y301110D01*
X400530Y303339D01*
X399670Y305417D01*
X398301Y307201D01*
X396517Y308570D01*
X394439Y309430D01*
X392210Y309724D01*
X389981Y309430D01*
X387903Y308570D01*
X386119Y307201D01*
X384750Y305417D01*
X383890Y303339D01*
X383596Y301110D01*
Y288110D01*
X383890Y285881D01*
X384750Y283803D01*
X386119Y282019D01*
X387903Y280650D01*
X389981Y279790D01*
X392210Y279496D01*
X394348Y279778D01*
X405046Y269080D01*
X405045Y269008D01*
X404653Y267810D01*
X267810D01*
X267810Y497004D01*
X269080Y497589D01*
X271572Y495461D01*
X275268Y493196D01*
X279273Y491537D01*
X283489Y490525D01*
X286540Y490285D01*
Y517810D01*
Y545335D01*
X283489Y545095D01*
X279273Y544083D01*
X275268Y542424D01*
X271572Y540159D01*
X269080Y538031D01*
X267810Y538616D01*
X267810Y609310D01*
X713560Y609310D01*
D02*
G37*
G36*
X944605Y361357D02*
X944375Y330164D01*
X944353Y328895D01*
X944342Y328810D01*
X944356D01*
X944365Y327629D01*
X944365Y327628D01*
Y322415D01*
X944365Y321310D01*
X944342Y321310D01*
X944350Y321245D01*
X944382Y320047D01*
X944382Y320046D01*
X944918Y281411D01*
X939201Y275695D01*
X922848D01*
X922362Y276868D01*
X927063Y281570D01*
X927726Y281807D01*
X928760Y281681D01*
X930103Y280650D01*
X932181Y279790D01*
X933140Y279664D01*
Y294610D01*
Y309557D01*
X932181Y309430D01*
X930103Y308570D01*
X929834Y308363D01*
X928695Y308925D01*
Y356944D01*
X929965Y357570D01*
X930903Y356850D01*
X932981Y355990D01*
X935210Y355696D01*
X937439Y355990D01*
X939517Y356850D01*
X941301Y358219D01*
X942670Y360003D01*
X943337Y361614D01*
X944605Y361357D01*
D02*
G37*
G36*
X478605D02*
X478375Y330164D01*
X478353Y328895D01*
X478342Y328810D01*
X478356D01*
X478365Y327629D01*
X478365Y327628D01*
Y322415D01*
X478365Y321310D01*
X478342Y321310D01*
X478350Y321245D01*
X478382Y320047D01*
X478382Y320046D01*
X478918Y281411D01*
X473201Y275695D01*
X456848D01*
X456362Y276868D01*
X461063Y281570D01*
X461726Y281807D01*
X462760Y281681D01*
X464103Y280650D01*
X466181Y279790D01*
X467140Y279664D01*
Y294610D01*
Y309557D01*
X466181Y309430D01*
X464103Y308570D01*
X463834Y308363D01*
X462695Y308925D01*
Y356944D01*
X463965Y357570D01*
X464903Y356850D01*
X466981Y355990D01*
X469210Y355696D01*
X471439Y355990D01*
X473517Y356850D01*
X475301Y358219D01*
X476670Y360003D01*
X477337Y361614D01*
X478605Y361357D01*
D02*
G37*
%LPC*%
G36*
X1000820Y951185D02*
X888600D01*
X887113Y950889D01*
X885853Y950047D01*
X876010Y940203D01*
X874831Y940692D01*
X872210Y941037D01*
X869589Y940692D01*
X867147Y939680D01*
X865049Y938071D01*
X863440Y935973D01*
X862428Y933531D01*
X862083Y930910D01*
X862428Y928289D01*
X863440Y925847D01*
X865049Y923749D01*
X867147Y922140D01*
X869589Y921128D01*
X872210Y920783D01*
X874831Y921128D01*
X877273Y922140D01*
X879371Y923749D01*
X880980Y925847D01*
X881992Y928289D01*
X882337Y930910D01*
X881992Y933531D01*
X881503Y934710D01*
X890209Y943415D01*
X953762D01*
X954248Y942242D01*
X952210Y940203D01*
X951031Y940692D01*
X948410Y941037D01*
X945789Y940692D01*
X943347Y939680D01*
X941249Y938071D01*
X939640Y935973D01*
X938628Y933531D01*
X938283Y930910D01*
X938628Y928289D01*
X939640Y925847D01*
X941249Y923749D01*
X943347Y922140D01*
X945789Y921128D01*
X948410Y920783D01*
X951031Y921128D01*
X953473Y922140D01*
X955571Y923749D01*
X957180Y925847D01*
X958192Y928289D01*
X958537Y930910D01*
X958192Y933531D01*
X957703Y934710D01*
X961329Y938335D01*
X965252D01*
X965878Y937065D01*
X965040Y935973D01*
X964028Y933531D01*
X963683Y930910D01*
X964028Y928289D01*
X965040Y925847D01*
X966649Y923749D01*
X968747Y922140D01*
X969925Y921652D01*
Y852310D01*
X970221Y850823D01*
X971063Y849563D01*
X981925Y838701D01*
Y837164D01*
X980655Y836712D01*
X978873Y838080D01*
X976431Y839092D01*
X973810Y839437D01*
X971189Y839092D01*
X968747Y838080D01*
X966649Y836471D01*
X965040Y834373D01*
X964028Y831931D01*
X963683Y829310D01*
X964028Y826689D01*
X965040Y824247D01*
X966649Y822149D01*
X968747Y820540D01*
X971189Y819528D01*
X973810Y819183D01*
X976431Y819528D01*
X978873Y820540D01*
X980971Y822149D01*
X981922Y823390D01*
X982103Y823481D01*
X983575Y823457D01*
X992468Y814563D01*
X993729Y813721D01*
X995215Y813425D01*
X1001781D01*
X1008767Y806440D01*
X1008359Y805237D01*
X1007450Y805117D01*
X1005251Y804206D01*
X1003363Y802757D01*
X1001914Y800869D01*
X1001003Y798670D01*
X1000692Y796310D01*
X1001003Y793950D01*
X1001914Y791751D01*
X1003363Y789863D01*
X1005251Y788414D01*
X1007450Y787503D01*
X1009810Y787192D01*
X1012170Y787503D01*
X1014369Y788414D01*
X1015096Y788972D01*
X1016235Y788410D01*
Y778810D01*
X1015096Y778248D01*
X1014369Y778806D01*
X1012170Y779717D01*
X1009810Y780028D01*
X1007450Y779717D01*
X1005251Y778806D01*
X1003363Y777357D01*
X1001914Y775469D01*
X1001003Y773270D01*
X1000692Y770910D01*
X1001003Y768550D01*
X1001914Y766351D01*
X1003363Y764463D01*
X1005251Y763014D01*
X1007450Y762103D01*
X1009810Y761792D01*
X1012170Y762103D01*
X1014369Y763014D01*
X1015033Y763523D01*
X1016172Y762962D01*
Y749066D01*
X1014062Y746955D01*
X1013639Y747130D01*
X1011410Y747424D01*
X1009181Y747130D01*
X1007103Y746270D01*
X1005319Y744901D01*
X1003950Y743117D01*
X1003090Y741039D01*
X1002796Y738810D01*
Y725810D01*
X1003090Y723581D01*
X1003950Y721503D01*
X1005319Y719719D01*
X1007103Y718350D01*
X1009181Y717490D01*
X1011410Y717196D01*
X1013639Y717490D01*
X1015717Y718350D01*
X1017501Y719719D01*
X1018870Y721503D01*
X1019730Y723581D01*
X1020024Y725810D01*
Y738810D01*
X1019730Y741039D01*
X1019555Y741462D01*
X1022804Y744710D01*
X1023131Y745199D01*
X1024728Y745398D01*
X1028665Y741462D01*
X1028490Y741039D01*
X1028196Y738810D01*
Y725810D01*
X1028490Y723581D01*
X1029350Y721503D01*
X1030719Y719719D01*
X1032503Y718350D01*
X1034581Y717490D01*
X1036810Y717196D01*
X1039039Y717490D01*
X1041117Y718350D01*
X1041596Y718718D01*
X1042735Y718157D01*
Y674829D01*
X1039056Y671150D01*
X1027470D01*
Y641247D01*
X1024467D01*
X1018755Y646958D01*
X1018930Y647381D01*
X1019224Y649610D01*
Y662610D01*
X1018930Y664839D01*
X1018070Y666917D01*
X1016701Y668701D01*
X1014917Y670070D01*
X1012839Y670930D01*
X1010610Y671224D01*
X1008381Y670930D01*
X1006303Y670070D01*
X1004519Y668701D01*
X1003150Y666917D01*
X1002290Y664839D01*
X1001996Y662610D01*
Y649610D01*
X1002290Y647381D01*
X1003150Y645303D01*
X1004519Y643519D01*
X1006303Y642150D01*
X1008381Y641290D01*
X1010610Y640996D01*
X1012839Y641290D01*
X1013262Y641465D01*
X1020111Y634615D01*
X1021371Y633773D01*
X1022858Y633477D01*
X1043362D01*
X1044849Y633773D01*
X1046109Y634615D01*
X1054447Y642953D01*
X1055289Y644213D01*
X1055585Y645700D01*
Y720598D01*
X1056855Y720851D01*
X1057414Y719501D01*
X1058863Y717613D01*
X1060751Y716164D01*
X1062950Y715253D01*
X1065310Y714942D01*
X1067670Y715253D01*
X1069869Y716164D01*
X1071757Y717613D01*
X1073206Y719501D01*
X1074117Y721700D01*
X1074428Y724060D01*
X1074117Y726420D01*
X1073206Y728619D01*
X1071757Y730507D01*
X1069869Y731956D01*
X1067670Y732867D01*
X1065310Y733178D01*
X1062950Y732867D01*
X1060751Y731956D01*
X1058863Y730507D01*
X1057414Y728619D01*
X1056855Y727270D01*
X1055585Y727522D01*
Y745998D01*
X1056855Y746251D01*
X1057414Y744901D01*
X1058863Y743013D01*
X1060751Y741564D01*
X1062950Y740653D01*
X1065310Y740342D01*
X1067670Y740653D01*
X1069869Y741564D01*
X1071757Y743013D01*
X1073206Y744901D01*
X1074117Y747100D01*
X1074428Y749460D01*
X1074117Y751820D01*
X1073206Y754019D01*
X1071757Y755907D01*
X1069869Y757356D01*
X1067670Y758267D01*
X1065310Y758578D01*
X1062950Y758267D01*
X1060751Y757356D01*
X1058863Y755907D01*
X1057414Y754019D01*
X1056503Y751820D01*
X1056197Y749501D01*
X1056104Y749448D01*
X1054934Y749284D01*
X1048021Y761822D01*
X1049005Y762668D01*
X1049497Y762290D01*
X1051939Y761278D01*
X1054560Y760933D01*
X1057560D01*
X1060181Y761278D01*
X1062623Y762290D01*
X1064721Y763899D01*
X1066330Y765997D01*
X1067342Y768439D01*
X1067687Y771060D01*
X1067342Y773681D01*
X1066330Y776123D01*
X1064721Y778221D01*
X1062623Y779830D01*
X1061313Y780373D01*
Y781747D01*
X1062623Y782290D01*
X1064721Y783899D01*
X1066330Y785997D01*
X1067342Y788439D01*
X1067520Y789790D01*
X1056060D01*
X1044601D01*
X1044779Y788439D01*
X1045790Y785997D01*
X1047399Y783899D01*
X1049497Y782290D01*
X1050807Y781747D01*
Y780373D01*
X1049497Y779830D01*
X1047399Y778221D01*
X1045790Y776123D01*
X1044778Y773681D01*
X1044433Y771060D01*
X1044451Y770926D01*
X1043223Y770522D01*
X1041135Y774310D01*
Y830870D01*
X1040839Y832357D01*
X1039997Y833617D01*
X1016695Y856919D01*
Y935310D01*
X1016399Y936797D01*
X1015557Y938057D01*
X1003567Y950047D01*
X1002307Y950889D01*
X1000820Y951185D01*
D02*
G37*
G36*
X923010Y941037D02*
X920389Y940692D01*
X917947Y939680D01*
X915849Y938071D01*
X914240Y935973D01*
X913228Y933531D01*
X912883Y930910D01*
X913228Y928289D01*
X914240Y925847D01*
X915849Y923749D01*
X917947Y922140D01*
X920389Y921128D01*
X923010Y920783D01*
X925631Y921128D01*
X928073Y922140D01*
X930171Y923749D01*
X931780Y925847D01*
X932792Y928289D01*
X933137Y930910D01*
X932792Y933531D01*
X931780Y935973D01*
X930171Y938071D01*
X928073Y939680D01*
X925631Y940692D01*
X923010Y941037D01*
D02*
G37*
G36*
X897610D02*
X894989Y940692D01*
X892547Y939680D01*
X890449Y938071D01*
X888840Y935973D01*
X887828Y933531D01*
X887483Y930910D01*
X887828Y928289D01*
X888840Y925847D01*
X890449Y923749D01*
X892547Y922140D01*
X894989Y921128D01*
X897610Y920783D01*
X900231Y921128D01*
X902673Y922140D01*
X904771Y923749D01*
X906380Y925847D01*
X907392Y928289D01*
X907737Y930910D01*
X907392Y933531D01*
X906380Y935973D01*
X904771Y938071D01*
X902673Y939680D01*
X900231Y940692D01*
X897610Y941037D01*
D02*
G37*
G36*
X803080Y894765D02*
Y886580D01*
X811265D01*
X811104Y887801D01*
X810143Y890121D01*
X808614Y892114D01*
X806621Y893643D01*
X804300Y894604D01*
X803080Y894765D01*
D02*
G37*
G36*
X800540D02*
X799320Y894604D01*
X796999Y893643D01*
X795006Y892114D01*
X793477Y890121D01*
X792516Y887801D01*
X792355Y886580D01*
X800540D01*
Y894765D01*
D02*
G37*
G36*
X755080Y906835D02*
Y880580D01*
X781335D01*
X781095Y883632D01*
X780083Y887847D01*
X778424Y891852D01*
X776159Y895548D01*
X773344Y898844D01*
X770048Y901659D01*
X766352Y903924D01*
X762347Y905583D01*
X758131Y906595D01*
X755080Y906835D01*
D02*
G37*
G36*
X1125080D02*
Y880580D01*
X1151335D01*
X1151095Y883632D01*
X1150083Y887847D01*
X1148424Y891852D01*
X1146159Y895548D01*
X1143344Y898844D01*
X1140048Y901659D01*
X1136352Y903924D01*
X1132347Y905583D01*
X1128131Y906595D01*
X1125080Y906835D01*
D02*
G37*
G36*
X1122540D02*
X1119489Y906595D01*
X1115273Y905583D01*
X1111268Y903924D01*
X1107572Y901659D01*
X1104276Y898844D01*
X1101461Y895548D01*
X1099196Y891852D01*
X1097537Y887847D01*
X1096525Y883632D01*
X1096285Y880580D01*
X1122540D01*
Y906835D01*
D02*
G37*
G36*
X811265Y884040D02*
X803080D01*
Y875855D01*
X804300Y876016D01*
X806621Y876977D01*
X808614Y878506D01*
X810143Y880499D01*
X811104Y882820D01*
X811265Y884040D01*
D02*
G37*
G36*
X800540D02*
X792355D01*
X792516Y882820D01*
X793477Y880499D01*
X795006Y878506D01*
X796999Y876977D01*
X799320Y876016D01*
X800540Y875855D01*
Y884040D01*
D02*
G37*
G36*
X1163060Y861973D02*
X1160580D01*
Y853080D01*
X1169473D01*
Y855560D01*
X1168985Y858014D01*
X1167595Y860095D01*
X1165514Y861485D01*
X1163060Y861973D01*
D02*
G37*
G36*
X1158040D02*
X1155560D01*
X1153106Y861485D01*
X1151025Y860095D01*
X1149635Y858014D01*
X1149147Y855560D01*
Y853080D01*
X1158040D01*
Y861973D01*
D02*
G37*
G36*
X1151335Y878040D02*
X1125080D01*
Y851785D01*
X1128131Y852025D01*
X1132347Y853037D01*
X1136352Y854696D01*
X1140048Y856961D01*
X1143344Y859776D01*
X1146159Y863072D01*
X1148424Y866768D01*
X1150083Y870773D01*
X1151095Y874988D01*
X1151335Y878040D01*
D02*
G37*
G36*
X781335Y878040D02*
X755080D01*
Y851785D01*
X758131Y852025D01*
X762347Y853037D01*
X766352Y854696D01*
X770048Y856961D01*
X773344Y859776D01*
X776159Y863072D01*
X778424Y866768D01*
X780083Y870773D01*
X781095Y874988D01*
X781335Y878040D01*
D02*
G37*
G36*
X1122540Y878040D02*
X1096285D01*
X1096525Y874988D01*
X1097537Y870773D01*
X1099196Y866768D01*
X1101461Y863072D01*
X1104276Y859776D01*
X1107572Y856961D01*
X1111268Y854696D01*
X1115273Y853037D01*
X1119489Y852025D01*
X1122540Y851785D01*
Y878040D01*
D02*
G37*
G36*
X1169473Y850540D02*
X1160580D01*
Y841647D01*
X1163060D01*
X1165514Y842135D01*
X1167595Y843525D01*
X1168985Y845606D01*
X1169473Y848060D01*
Y850540D01*
D02*
G37*
G36*
X1158040D02*
X1149147D01*
Y848060D01*
X1149635Y845606D01*
X1151025Y843525D01*
X1153106Y842135D01*
X1155560Y841647D01*
X1158040D01*
Y850540D01*
D02*
G37*
G36*
X752560Y844973D02*
X750080D01*
Y836080D01*
X758973D01*
Y838560D01*
X758485Y841014D01*
X757095Y843095D01*
X755014Y844485D01*
X752560Y844973D01*
D02*
G37*
G36*
X747540D02*
X745060D01*
X742606Y844485D01*
X740525Y843095D01*
X739135Y841014D01*
X738647Y838560D01*
Y836080D01*
X747540D01*
Y844973D01*
D02*
G37*
G36*
X801810Y844932D02*
X799320Y844604D01*
X796999Y843643D01*
X795006Y842114D01*
X793477Y840121D01*
X792516Y837800D01*
X792188Y835310D01*
X792516Y832820D01*
X793477Y830499D01*
X795006Y828506D01*
X796999Y826977D01*
X799320Y826015D01*
X801810Y825688D01*
X804300Y826015D01*
X806621Y826977D01*
X808614Y828506D01*
X810143Y830499D01*
X811104Y832820D01*
X811432Y835310D01*
X811104Y837800D01*
X810143Y840121D01*
X808614Y842114D01*
X806621Y843643D01*
X804300Y844604D01*
X801810Y844932D01*
D02*
G37*
G36*
X779560Y845473D02*
X772060D01*
X769606Y844985D01*
X767525Y843595D01*
X766135Y841514D01*
X765647Y839060D01*
Y831560D01*
X766135Y829106D01*
X767525Y827025D01*
X769606Y825635D01*
X772060Y825147D01*
X779560D01*
X782014Y825635D01*
X784095Y827025D01*
X785485Y829106D01*
X785973Y831560D01*
Y839060D01*
X785485Y841514D01*
X784095Y843595D01*
X782014Y844985D01*
X779560Y845473D01*
D02*
G37*
G36*
X758973Y833540D02*
X750080D01*
Y824647D01*
X752560D01*
X755014Y825135D01*
X757095Y826525D01*
X758485Y828606D01*
X758973Y831060D01*
Y833540D01*
D02*
G37*
G36*
X747540D02*
X738647D01*
Y831060D01*
X739135Y828606D01*
X740525Y826525D01*
X742606Y825135D01*
X745060Y824647D01*
X747540D01*
Y833540D01*
D02*
G37*
G36*
X948410Y839437D02*
X945789Y839092D01*
X943347Y838080D01*
X941249Y836471D01*
X939640Y834373D01*
X938628Y831931D01*
X938283Y829310D01*
X938628Y826689D01*
X939640Y824247D01*
X941249Y822149D01*
X943347Y820540D01*
X945789Y819528D01*
X948410Y819183D01*
X951031Y819528D01*
X953473Y820540D01*
X955571Y822149D01*
X957180Y824247D01*
X958192Y826689D01*
X958537Y829310D01*
X958192Y831931D01*
X957180Y834373D01*
X955571Y836471D01*
X953473Y838080D01*
X951031Y839092D01*
X948410Y839437D01*
D02*
G37*
G36*
X923010D02*
X920389Y839092D01*
X917947Y838080D01*
X915849Y836471D01*
X914240Y834373D01*
X913228Y831931D01*
X912883Y829310D01*
X913228Y826689D01*
X914240Y824247D01*
X915849Y822149D01*
X917947Y820540D01*
X920389Y819528D01*
X923010Y819183D01*
X925631Y819528D01*
X928073Y820540D01*
X930171Y822149D01*
X931780Y824247D01*
X932792Y826689D01*
X933137Y829310D01*
X932792Y831931D01*
X931780Y834373D01*
X930171Y836471D01*
X928073Y838080D01*
X925631Y839092D01*
X923010Y839437D01*
D02*
G37*
G36*
X897610D02*
X894989Y839092D01*
X892547Y838080D01*
X890449Y836471D01*
X888840Y834373D01*
X887828Y831931D01*
X887483Y829310D01*
X887828Y826689D01*
X888840Y824247D01*
X890449Y822149D01*
X892547Y820540D01*
X894989Y819528D01*
X897610Y819183D01*
X900231Y819528D01*
X902673Y820540D01*
X904771Y822149D01*
X906380Y824247D01*
X907392Y826689D01*
X907737Y829310D01*
X907392Y831931D01*
X906380Y834373D01*
X904771Y836471D01*
X902673Y838080D01*
X900231Y839092D01*
X897610Y839437D01*
D02*
G37*
G36*
X872210D02*
X869589Y839092D01*
X867147Y838080D01*
X865049Y836471D01*
X863440Y834373D01*
X862428Y831931D01*
X862083Y829310D01*
X862428Y826689D01*
X863440Y824247D01*
X865049Y822149D01*
X867147Y820540D01*
X869589Y819528D01*
X872210Y819183D01*
X874831Y819528D01*
X877273Y820540D01*
X879371Y822149D01*
X880980Y824247D01*
X881992Y826689D01*
X882337Y829310D01*
X881992Y831931D01*
X880980Y834373D01*
X879371Y836471D01*
X877273Y838080D01*
X874831Y839092D01*
X872210Y839437D01*
D02*
G37*
G36*
X1108810Y836432D02*
X1106320Y836104D01*
X1103999Y835143D01*
X1102006Y833614D01*
X1100477Y831621D01*
X1099516Y829300D01*
X1099188Y826810D01*
X1099516Y824320D01*
X1100477Y821999D01*
X1102006Y820006D01*
X1103999Y818477D01*
X1106320Y817515D01*
X1108810Y817188D01*
X1111300Y817515D01*
X1113621Y818477D01*
X1115614Y820006D01*
X1117143Y821999D01*
X1118104Y824320D01*
X1118432Y826810D01*
X1118104Y829300D01*
X1117143Y831621D01*
X1115614Y833614D01*
X1113621Y835143D01*
X1111300Y836104D01*
X1108810Y836432D01*
D02*
G37*
G36*
X1158810Y836432D02*
X1156320Y836104D01*
X1153999Y835143D01*
X1152006Y833614D01*
X1150477Y831621D01*
X1149516Y829300D01*
X1149188Y826810D01*
X1149516Y824320D01*
X1150477Y821999D01*
X1152006Y820006D01*
X1153999Y818477D01*
X1156320Y817515D01*
X1158810Y817188D01*
X1161300Y817515D01*
X1163621Y818477D01*
X1165614Y820006D01*
X1167143Y821999D01*
X1168104Y824320D01*
X1168432Y826810D01*
X1168104Y829300D01*
X1167143Y831621D01*
X1165614Y833614D01*
X1163621Y835143D01*
X1161300Y836104D01*
X1158810Y836432D01*
D02*
G37*
G36*
X1135230Y809011D02*
Y801330D01*
X1142911D01*
X1142767Y802420D01*
X1141856Y804619D01*
X1140407Y806507D01*
X1138519Y807956D01*
X1136320Y808867D01*
X1135230Y809011D01*
D02*
G37*
G36*
X1132690Y809011D02*
X1131600Y808867D01*
X1129401Y807956D01*
X1127513Y806507D01*
X1126064Y804619D01*
X1125153Y802420D01*
X1125009Y801330D01*
X1132690D01*
Y809011D01*
D02*
G37*
G36*
X776210Y814641D02*
X773458Y814279D01*
X770894Y813217D01*
X768693Y811527D01*
X767003Y809325D01*
X765941Y806761D01*
X765579Y804010D01*
X765941Y801258D01*
X767003Y798695D01*
X768693Y796493D01*
X770894Y794803D01*
X773458Y793741D01*
X776210Y793379D01*
X778961Y793741D01*
X781525Y794803D01*
X783727Y796493D01*
X785417Y798695D01*
X786479Y801258D01*
X786841Y804010D01*
X786479Y806761D01*
X785417Y809325D01*
X783727Y811527D01*
X781525Y813217D01*
X778961Y814279D01*
X776210Y814641D01*
D02*
G37*
G36*
X752080Y801774D02*
Y792580D01*
X761274D01*
X761079Y794062D01*
X760017Y796626D01*
X758327Y798827D01*
X756125Y800517D01*
X753561Y801579D01*
X752080Y801774D01*
D02*
G37*
G36*
X749540Y801774D02*
X748058Y801579D01*
X745495Y800517D01*
X743293Y798827D01*
X741603Y796626D01*
X740541Y794062D01*
X740346Y792580D01*
X749540D01*
Y801774D01*
D02*
G37*
G36*
X1057560Y801187D02*
X1057330D01*
Y792330D01*
X1067520D01*
X1067342Y793681D01*
X1066330Y796123D01*
X1064721Y798221D01*
X1062623Y799830D01*
X1060181Y800842D01*
X1057560Y801187D01*
D02*
G37*
G36*
X1054790D02*
X1054560D01*
X1051939Y800842D01*
X1049497Y799830D01*
X1047399Y798221D01*
X1045790Y796123D01*
X1044779Y793681D01*
X1044601Y792330D01*
X1054790D01*
Y801187D01*
D02*
G37*
G36*
X1162810Y811473D02*
X1155310D01*
X1152856Y810985D01*
X1150775Y809595D01*
X1149385Y807514D01*
X1148897Y805060D01*
Y797560D01*
X1149385Y795106D01*
X1150775Y793025D01*
X1152856Y791635D01*
X1155310Y791147D01*
X1162810D01*
X1165264Y791635D01*
X1167345Y793025D01*
X1168735Y795106D01*
X1169223Y797560D01*
Y805060D01*
X1168735Y807514D01*
X1167345Y809595D01*
X1165264Y810985D01*
X1162810Y811473D01*
D02*
G37*
G36*
X1142911Y798790D02*
X1135230D01*
Y791109D01*
X1136320Y791253D01*
X1138519Y792164D01*
X1140407Y793613D01*
X1141856Y795501D01*
X1142767Y797700D01*
X1142911Y798790D01*
D02*
G37*
G36*
X1132690D02*
X1125009D01*
X1125153Y797700D01*
X1126064Y795501D01*
X1127513Y793613D01*
X1129401Y792164D01*
X1131600Y791253D01*
X1132690Y791109D01*
Y798790D01*
D02*
G37*
G36*
X1108560Y809178D02*
X1106200Y808867D01*
X1104001Y807956D01*
X1102113Y806507D01*
X1100664Y804619D01*
X1099753Y802420D01*
X1099442Y800060D01*
X1099753Y797700D01*
X1100664Y795501D01*
X1102113Y793613D01*
X1104001Y792164D01*
X1106200Y791253D01*
X1108560Y790942D01*
X1110920Y791253D01*
X1113119Y792164D01*
X1115007Y793613D01*
X1116456Y795501D01*
X1117367Y797700D01*
X1117678Y800060D01*
X1117367Y802420D01*
X1116456Y804619D01*
X1115007Y806507D01*
X1113119Y807956D01*
X1110920Y808867D01*
X1108560Y809178D01*
D02*
G37*
G36*
X980810Y805428D02*
X978450Y805117D01*
X976251Y804206D01*
X974363Y802757D01*
X972914Y800869D01*
X972003Y798670D01*
X971692Y796310D01*
X972003Y793950D01*
X972914Y791751D01*
X974363Y789863D01*
X976251Y788414D01*
X978450Y787503D01*
X980810Y787192D01*
X983170Y787503D01*
X985369Y788414D01*
X987257Y789863D01*
X988706Y791751D01*
X989617Y793950D01*
X989928Y796310D01*
X989617Y798670D01*
X988706Y800869D01*
X987257Y802757D01*
X985369Y804206D01*
X983170Y805117D01*
X980810Y805428D01*
D02*
G37*
G36*
X951810Y804828D02*
X949450Y804517D01*
X947251Y803606D01*
X945363Y802157D01*
X943914Y800269D01*
X943003Y798070D01*
X942692Y795710D01*
X943003Y793350D01*
X943914Y791151D01*
X945363Y789263D01*
X947251Y787814D01*
X949450Y786903D01*
X951810Y786592D01*
X954170Y786903D01*
X956369Y787814D01*
X958257Y789263D01*
X959706Y791151D01*
X960617Y793350D01*
X960928Y795710D01*
X960617Y798070D01*
X959706Y800269D01*
X958257Y802157D01*
X956369Y803606D01*
X954170Y804517D01*
X951810Y804828D01*
D02*
G37*
G36*
X840810Y803828D02*
X838450Y803517D01*
X836251Y802606D01*
X834363Y801157D01*
X832914Y799269D01*
X832003Y797070D01*
X831692Y794710D01*
X832003Y792350D01*
X832914Y790151D01*
X834363Y788263D01*
X836251Y786814D01*
X838450Y785903D01*
X840810Y785592D01*
X843170Y785903D01*
X845369Y786814D01*
X847257Y788263D01*
X848706Y790151D01*
X849617Y792350D01*
X849928Y794710D01*
X849617Y797070D01*
X848706Y799269D01*
X847257Y801157D01*
X845369Y802606D01*
X843170Y803517D01*
X840810Y803828D01*
D02*
G37*
G36*
X811810D02*
X809450Y803517D01*
X807251Y802606D01*
X805363Y801157D01*
X803914Y799269D01*
X803003Y797070D01*
X802692Y794710D01*
X803003Y792350D01*
X803914Y790151D01*
X805363Y788263D01*
X807251Y786814D01*
X809450Y785903D01*
X811810Y785592D01*
X814170Y785903D01*
X816369Y786814D01*
X818257Y788263D01*
X819706Y790151D01*
X820617Y792350D01*
X820928Y794710D01*
X820617Y797070D01*
X819706Y799269D01*
X818257Y801157D01*
X816369Y802606D01*
X814170Y803517D01*
X811810Y803828D01*
D02*
G37*
G36*
X868810Y802428D02*
X866450Y802117D01*
X864251Y801206D01*
X862363Y799757D01*
X860914Y797869D01*
X860003Y795670D01*
X859692Y793310D01*
X860003Y790950D01*
X860914Y788751D01*
X862363Y786863D01*
X864251Y785414D01*
X866450Y784503D01*
X868810Y784192D01*
X871170Y784503D01*
X873369Y785414D01*
X875257Y786863D01*
X876706Y788751D01*
X877617Y790950D01*
X877928Y793310D01*
X877617Y795670D01*
X876706Y797869D01*
X875257Y799757D01*
X873369Y801206D01*
X871170Y802117D01*
X868810Y802428D01*
D02*
G37*
G36*
X761274Y790040D02*
X752080D01*
Y780846D01*
X753561Y781041D01*
X756125Y782103D01*
X758327Y783793D01*
X760017Y785994D01*
X761079Y788559D01*
X761274Y790040D01*
D02*
G37*
G36*
X749540D02*
X740346D01*
X740541Y788559D01*
X741603Y785994D01*
X743293Y783793D01*
X745495Y782103D01*
X748058Y781041D01*
X749540Y780846D01*
Y790040D01*
D02*
G37*
G36*
X1159580Y785911D02*
Y778230D01*
X1167261D01*
X1167117Y779320D01*
X1166207Y781519D01*
X1164758Y783407D01*
X1162869Y784856D01*
X1160670Y785767D01*
X1159580Y785911D01*
D02*
G37*
G36*
X1157040Y785911D02*
X1155950Y785767D01*
X1153751Y784856D01*
X1151863Y783407D01*
X1150414Y781519D01*
X1149503Y779320D01*
X1149359Y778230D01*
X1157040D01*
Y785911D01*
D02*
G37*
G36*
X1167261Y775690D02*
X1159580D01*
Y768009D01*
X1160670Y768153D01*
X1162869Y769063D01*
X1164758Y770512D01*
X1166207Y772401D01*
X1167117Y774600D01*
X1167261Y775690D01*
D02*
G37*
G36*
X1157040D02*
X1149359D01*
X1149503Y774600D01*
X1150414Y772401D01*
X1151863Y770512D01*
X1153751Y769063D01*
X1155950Y768153D01*
X1157040Y768009D01*
Y775690D01*
D02*
G37*
G36*
X752218Y771893D02*
Y763708D01*
X760403D01*
X760243Y764929D01*
X759281Y767249D01*
X757752Y769242D01*
X755760Y770771D01*
X753439Y771732D01*
X752218Y771893D01*
D02*
G37*
G36*
X749678D02*
X748458Y771732D01*
X746137Y770771D01*
X744144Y769242D01*
X742615Y767249D01*
X741654Y764929D01*
X741493Y763708D01*
X749678D01*
Y771893D01*
D02*
G37*
G36*
X1108510Y784591D02*
X1105759Y784229D01*
X1103195Y783167D01*
X1100993Y781477D01*
X1099303Y779276D01*
X1098241Y776712D01*
X1097879Y773960D01*
X1098241Y771208D01*
X1099303Y768644D01*
X1100993Y766443D01*
X1103195Y764753D01*
X1105759Y763691D01*
X1108510Y763329D01*
X1111262Y763691D01*
X1113826Y764753D01*
X1116027Y766443D01*
X1117717Y768644D01*
X1118779Y771208D01*
X1119141Y773960D01*
X1118779Y776712D01*
X1117717Y779276D01*
X1116027Y781477D01*
X1113826Y783167D01*
X1111262Y784229D01*
X1108510Y784591D01*
D02*
G37*
G36*
X980810Y780028D02*
X978450Y779717D01*
X976251Y778806D01*
X974363Y777357D01*
X972914Y775469D01*
X972003Y773270D01*
X971692Y770910D01*
X972003Y768550D01*
X972914Y766351D01*
X974363Y764463D01*
X976251Y763014D01*
X978450Y762103D01*
X980810Y761792D01*
X983170Y762103D01*
X985369Y763014D01*
X987257Y764463D01*
X988706Y766351D01*
X989617Y768550D01*
X989928Y770910D01*
X989617Y773270D01*
X988706Y775469D01*
X987257Y777357D01*
X985369Y778806D01*
X983170Y779717D01*
X980810Y780028D01*
D02*
G37*
G36*
X840810Y778428D02*
X838450Y778117D01*
X836251Y777206D01*
X834363Y775757D01*
X832914Y773869D01*
X832003Y771670D01*
X831692Y769310D01*
X832003Y766950D01*
X832335Y766148D01*
X830863Y764676D01*
X830021Y763416D01*
X829725Y761929D01*
Y746444D01*
X829303Y746270D01*
X827519Y744901D01*
X826150Y743117D01*
X825290Y741039D01*
X824996Y738810D01*
Y725810D01*
X825290Y723581D01*
X826150Y721503D01*
X827519Y719719D01*
X829303Y718350D01*
X831381Y717490D01*
X833610Y717196D01*
X835839Y717490D01*
X837917Y718350D01*
X839701Y719719D01*
X841070Y721503D01*
X841930Y723581D01*
X842224Y725810D01*
Y738810D01*
X841930Y741039D01*
X841070Y743117D01*
X839701Y744901D01*
X837917Y746270D01*
X837495Y746444D01*
Y759524D01*
X837948Y759988D01*
X838703Y760469D01*
X840810Y760192D01*
X843170Y760503D01*
X845369Y761414D01*
X847257Y762863D01*
X848706Y764751D01*
X849617Y766950D01*
X849928Y769310D01*
X849617Y771670D01*
X848706Y773869D01*
X847257Y775757D01*
X845369Y777206D01*
X843170Y778117D01*
X840810Y778428D01*
D02*
G37*
G36*
X811810D02*
X809450Y778117D01*
X807251Y777206D01*
X805363Y775757D01*
X803914Y773869D01*
X803003Y771670D01*
X802692Y769310D01*
X803003Y766950D01*
X803914Y764751D01*
X805363Y762863D01*
X807251Y761414D01*
X809450Y760503D01*
X811810Y760192D01*
X814170Y760503D01*
X816369Y761414D01*
X818257Y762863D01*
X819706Y764751D01*
X820617Y766950D01*
X820928Y769310D01*
X820617Y771670D01*
X819706Y773869D01*
X818257Y775757D01*
X816369Y777206D01*
X814170Y778117D01*
X811810Y778428D01*
D02*
G37*
G36*
X760403Y761168D02*
X752218D01*
Y752983D01*
X753439Y753144D01*
X755760Y754105D01*
X757752Y755634D01*
X759281Y757627D01*
X760243Y759948D01*
X760403Y761168D01*
D02*
G37*
G36*
X749678D02*
X741493D01*
X741654Y759948D01*
X742615Y757627D01*
X744144Y755634D01*
X746137Y754105D01*
X748458Y753144D01*
X749678Y752983D01*
Y761168D01*
D02*
G37*
G36*
X868810Y777028D02*
X866450Y776717D01*
X864251Y775806D01*
X862363Y774357D01*
X860914Y772469D01*
X860003Y770270D01*
X859692Y767910D01*
X860003Y765550D01*
X860914Y763351D01*
X862363Y761463D01*
X864251Y760014D01*
X864935Y759730D01*
Y746463D01*
X863796Y745902D01*
X863317Y746270D01*
X861239Y747130D01*
X859010Y747424D01*
X856781Y747130D01*
X854703Y746270D01*
X852919Y744901D01*
X851550Y743117D01*
X850690Y741039D01*
X850396Y738810D01*
Y725810D01*
X850690Y723581D01*
X851550Y721503D01*
X852919Y719719D01*
X854703Y718350D01*
X856781Y717490D01*
X859010Y717196D01*
X861239Y717490D01*
X863317Y718350D01*
X863796Y718718D01*
X864935Y718157D01*
Y700229D01*
X835462Y670755D01*
X835039Y670930D01*
X832810Y671224D01*
X830581Y670930D01*
X828503Y670070D01*
X826719Y668701D01*
X825350Y666917D01*
X824490Y664839D01*
X824196Y662610D01*
Y649610D01*
X824490Y647381D01*
X825350Y645303D01*
X826719Y643519D01*
X828503Y642150D01*
X830581Y641290D01*
X832810Y640996D01*
X835039Y641290D01*
X837117Y642150D01*
X838901Y643519D01*
X840270Y645303D01*
X841130Y647381D01*
X841424Y649610D01*
Y662610D01*
X841130Y664839D01*
X840955Y665262D01*
X871567Y695873D01*
X872409Y697133D01*
X872705Y698620D01*
Y759738D01*
X873369Y760014D01*
X875257Y761463D01*
X876706Y763351D01*
X877617Y765550D01*
X877928Y767910D01*
X877617Y770270D01*
X876706Y772469D01*
X875257Y774357D01*
X873369Y775806D01*
X871170Y776717D01*
X868810Y777028D01*
D02*
G37*
G36*
X1158310Y760678D02*
X1155950Y760367D01*
X1153751Y759456D01*
X1151863Y758007D01*
X1150414Y756119D01*
X1149503Y753920D01*
X1149192Y751560D01*
X1149503Y749200D01*
X1150414Y747001D01*
X1151863Y745113D01*
X1153751Y743664D01*
X1155950Y742753D01*
X1158310Y742442D01*
X1160670Y742753D01*
X1162869Y743664D01*
X1164757Y745113D01*
X1166206Y747001D01*
X1167117Y749200D01*
X1167428Y751560D01*
X1167117Y753920D01*
X1166206Y756119D01*
X1164757Y758007D01*
X1162869Y759456D01*
X1160670Y760367D01*
X1158310Y760678D01*
D02*
G37*
G36*
X1095810Y759191D02*
X1093058Y758829D01*
X1090495Y757767D01*
X1088293Y756077D01*
X1086603Y753876D01*
X1085541Y751311D01*
X1085179Y748560D01*
X1085541Y745808D01*
X1086603Y743244D01*
X1088293Y741043D01*
X1090495Y739353D01*
X1093058Y738291D01*
X1095810Y737929D01*
X1098561Y738291D01*
X1101125Y739353D01*
X1103327Y741043D01*
X1105017Y743244D01*
X1106079Y745808D01*
X1106441Y748560D01*
X1106079Y751311D01*
X1105017Y753876D01*
X1103327Y756077D01*
X1101125Y757767D01*
X1098561Y758829D01*
X1095810Y759191D01*
D02*
G37*
G36*
X1121210Y759191D02*
X1118458Y758829D01*
X1115894Y757767D01*
X1113693Y756077D01*
X1112003Y753875D01*
X1110941Y751311D01*
X1110579Y748560D01*
X1110941Y745808D01*
X1112003Y743244D01*
X1113693Y741043D01*
X1115894Y739353D01*
X1118458Y738291D01*
X1121210Y737929D01*
X1123961Y738291D01*
X1126525Y739353D01*
X1128727Y741043D01*
X1130417Y743244D01*
X1131479Y745808D01*
X1131841Y748560D01*
X1131479Y751311D01*
X1130417Y753875D01*
X1128727Y756077D01*
X1126525Y757767D01*
X1123961Y758829D01*
X1121210Y759191D01*
D02*
G37*
G36*
X1158560Y738182D02*
X1156070Y737855D01*
X1153749Y736893D01*
X1151756Y735364D01*
X1150227Y733371D01*
X1149266Y731050D01*
X1148938Y728560D01*
X1149266Y726070D01*
X1150227Y723749D01*
X1151756Y721756D01*
X1153749Y720227D01*
X1156070Y719266D01*
X1158560Y718938D01*
X1161050Y719266D01*
X1163371Y720227D01*
X1165364Y721756D01*
X1166893Y723749D01*
X1167855Y726070D01*
X1168182Y728560D01*
X1167855Y731050D01*
X1166893Y733371D01*
X1165364Y735364D01*
X1163371Y736893D01*
X1161050Y737855D01*
X1158560Y738182D01*
D02*
G37*
G36*
X986010Y747424D02*
X983781Y747130D01*
X981703Y746270D01*
X979919Y744901D01*
X978550Y743117D01*
X977690Y741039D01*
X977396Y738810D01*
Y725810D01*
X977690Y723581D01*
X978550Y721503D01*
X979919Y719719D01*
X981703Y718350D01*
X983781Y717490D01*
X986010Y717196D01*
X988239Y717490D01*
X990317Y718350D01*
X992101Y719719D01*
X993470Y721503D01*
X994330Y723581D01*
X994624Y725810D01*
Y738810D01*
X994330Y741039D01*
X993470Y743117D01*
X992101Y744901D01*
X990317Y746270D01*
X988239Y747130D01*
X986010Y747424D01*
D02*
G37*
G36*
X790560Y722174D02*
X788331Y721880D01*
X786253Y721020D01*
X784469Y719651D01*
X783100Y717867D01*
X782835Y717227D01*
X774562Y716993D01*
X759564Y716568D01*
X759281Y717249D01*
X757752Y719242D01*
X755760Y720771D01*
X753439Y721732D01*
X750948Y722060D01*
X748458Y721732D01*
X746137Y720771D01*
X744144Y719242D01*
X742615Y717249D01*
X741654Y714929D01*
X741326Y712438D01*
X741654Y709948D01*
X742615Y707627D01*
X744144Y705634D01*
X746137Y704105D01*
X748458Y703144D01*
X750948Y702816D01*
X753439Y703144D01*
X755760Y704105D01*
X757752Y705634D01*
X759281Y707627D01*
X759768Y708802D01*
X774782Y709227D01*
X783015Y709460D01*
X783100Y709253D01*
X784469Y707469D01*
X786253Y706100D01*
X788331Y705240D01*
X790560Y704946D01*
X792789Y705240D01*
X794867Y706100D01*
X796651Y707469D01*
X798020Y709253D01*
X798880Y711331D01*
X799174Y713560D01*
X798880Y715789D01*
X798020Y717867D01*
X796651Y719651D01*
X794867Y721020D01*
X792789Y721880D01*
X790560Y722174D01*
D02*
G37*
G36*
X1137080Y719515D02*
Y711330D01*
X1145265D01*
X1145104Y712550D01*
X1144143Y714871D01*
X1142614Y716864D01*
X1140621Y718393D01*
X1138300Y719354D01*
X1137080Y719515D01*
D02*
G37*
G36*
X1134540D02*
X1133320Y719354D01*
X1130999Y718393D01*
X1129006Y716864D01*
X1127477Y714871D01*
X1126516Y712550D01*
X1126355Y711330D01*
X1134540D01*
Y719515D01*
D02*
G37*
G36*
X1145265Y708790D02*
X1137080D01*
Y700605D01*
X1138300Y700766D01*
X1140621Y701727D01*
X1142614Y703256D01*
X1144143Y705249D01*
X1145104Y707570D01*
X1145265Y708790D01*
D02*
G37*
G36*
X1134540D02*
X1126355D01*
X1126516Y707570D01*
X1127477Y705249D01*
X1129006Y703256D01*
X1130999Y701727D01*
X1133320Y700766D01*
X1134540Y700605D01*
Y708790D01*
D02*
G37*
G36*
X1085810Y719682D02*
X1083320Y719354D01*
X1080999Y718393D01*
X1079006Y716864D01*
X1077477Y714871D01*
X1076516Y712550D01*
X1076188Y710060D01*
X1076516Y707570D01*
X1077477Y705249D01*
X1079006Y703256D01*
X1080999Y701727D01*
X1083320Y700766D01*
X1085810Y700438D01*
X1088300Y700766D01*
X1090621Y701727D01*
X1092614Y703256D01*
X1094143Y705249D01*
X1095104Y707570D01*
X1095432Y710060D01*
X1095104Y712550D01*
X1094143Y714871D01*
X1092614Y716864D01*
X1090621Y718393D01*
X1088300Y719354D01*
X1085810Y719682D01*
D02*
G37*
G36*
X1130560Y688078D02*
X1128200Y687767D01*
X1126001Y686856D01*
X1124113Y685407D01*
X1122664Y683519D01*
X1121753Y681320D01*
X1121442Y678960D01*
X1121753Y676600D01*
X1122664Y674401D01*
X1124113Y672513D01*
X1126001Y671064D01*
X1128200Y670153D01*
X1130560Y669842D01*
X1132920Y670153D01*
X1135119Y671064D01*
X1137007Y672513D01*
X1138456Y674401D01*
X1139367Y676600D01*
X1139678Y678960D01*
X1139367Y681320D01*
X1138456Y683519D01*
X1137007Y685407D01*
X1135119Y686856D01*
X1132920Y687767D01*
X1130560Y688078D01*
D02*
G37*
G36*
X1080330Y690321D02*
X1077578Y689959D01*
X1075014Y688897D01*
X1072813Y687207D01*
X1071123Y685005D01*
X1070061Y682441D01*
X1069699Y679690D01*
X1070061Y676938D01*
X1071123Y674374D01*
X1072813Y672173D01*
X1075014Y670483D01*
X1077578Y669421D01*
X1080330Y669059D01*
X1083081Y669421D01*
X1085645Y670483D01*
X1087847Y672173D01*
X1089537Y674374D01*
X1090599Y676938D01*
X1090961Y679690D01*
X1090599Y682441D01*
X1089537Y685005D01*
X1087847Y687207D01*
X1085645Y688897D01*
X1083081Y689959D01*
X1080330Y690321D01*
D02*
G37*
G36*
X1158560Y688182D02*
X1156070Y687854D01*
X1153749Y686893D01*
X1151756Y685364D01*
X1150227Y683371D01*
X1149266Y681050D01*
X1148938Y678560D01*
X1149266Y676069D01*
X1150227Y673749D01*
X1151756Y671756D01*
X1153749Y670227D01*
X1156070Y669266D01*
X1158560Y668938D01*
X1161050Y669266D01*
X1163371Y670227D01*
X1165364Y671756D01*
X1166893Y673749D01*
X1167855Y676069D01*
X1168182Y678560D01*
X1167855Y681050D01*
X1166893Y683371D01*
X1165364Y685364D01*
X1163371Y686893D01*
X1161050Y687854D01*
X1158560Y688182D01*
D02*
G37*
G36*
X1105730Y677621D02*
X1102978Y677259D01*
X1100414Y676197D01*
X1098213Y674507D01*
X1096523Y672305D01*
X1095461Y669741D01*
X1095099Y666990D01*
X1095461Y664238D01*
X1096523Y661674D01*
X1098213Y659473D01*
X1100414Y657783D01*
X1102978Y656721D01*
X1105730Y656359D01*
X1108481Y656721D01*
X1111045Y657783D01*
X1113247Y659473D01*
X1114937Y661674D01*
X1115999Y664238D01*
X1116361Y666990D01*
X1115999Y669741D01*
X1114937Y672305D01*
X1113247Y674507D01*
X1111045Y676197D01*
X1108481Y677259D01*
X1105730Y677621D01*
D02*
G37*
G36*
X1081600Y664754D02*
Y655560D01*
X1090794D01*
X1090599Y657041D01*
X1089537Y659605D01*
X1087847Y661807D01*
X1085645Y663497D01*
X1083081Y664559D01*
X1081600Y664754D01*
D02*
G37*
G36*
X1079060Y664754D02*
X1077578Y664559D01*
X1075014Y663497D01*
X1072813Y661807D01*
X1071123Y659605D01*
X1070061Y657041D01*
X1069866Y655560D01*
X1079060D01*
Y664754D01*
D02*
G37*
G36*
X750810Y700932D02*
X748320Y700604D01*
X745999Y699643D01*
X744006Y698114D01*
X742477Y696121D01*
X741516Y693800D01*
X741188Y691310D01*
X741516Y688820D01*
X742477Y686499D01*
X744006Y684506D01*
X745999Y682977D01*
X748320Y682016D01*
X750810Y681688D01*
X753300Y682016D01*
X755621Y682977D01*
X757614Y684506D01*
X759143Y686499D01*
X759527Y687425D01*
X762001D01*
X782590Y666836D01*
X782240Y665989D01*
X781946Y663760D01*
X782240Y661531D01*
X783100Y659453D01*
X784469Y657669D01*
X786253Y656300D01*
X788331Y655440D01*
X790560Y655146D01*
X792789Y655440D01*
X794867Y656300D01*
X796651Y657669D01*
X798020Y659453D01*
X798880Y661531D01*
X799174Y663760D01*
X798880Y665989D01*
X798020Y668067D01*
X796651Y669851D01*
X794867Y671220D01*
X792789Y672080D01*
X790560Y672374D01*
X788333Y672081D01*
X766357Y694057D01*
X765097Y694899D01*
X763610Y695195D01*
X759527D01*
X759143Y696121D01*
X757614Y698114D01*
X755621Y699643D01*
X753300Y700604D01*
X750810Y700932D01*
D02*
G37*
G36*
X1130560Y662678D02*
X1128200Y662367D01*
X1126001Y661456D01*
X1124113Y660007D01*
X1122664Y658119D01*
X1121753Y655920D01*
X1121442Y653560D01*
X1121753Y651200D01*
X1122664Y649001D01*
X1124113Y647113D01*
X1126001Y645664D01*
X1128200Y644753D01*
X1130560Y644442D01*
X1132920Y644753D01*
X1135119Y645664D01*
X1137007Y647113D01*
X1138456Y649001D01*
X1139367Y651200D01*
X1139678Y653560D01*
X1139367Y655920D01*
X1138456Y658119D01*
X1137007Y660007D01*
X1135119Y661456D01*
X1132920Y662367D01*
X1130560Y662678D01*
D02*
G37*
G36*
X1079060Y653020D02*
X1069866D01*
X1070061Y651538D01*
X1071123Y648974D01*
X1072813Y646773D01*
X1075014Y645083D01*
X1077578Y644021D01*
X1079060Y643826D01*
Y653020D01*
D02*
G37*
G36*
X1090794D02*
X1081600D01*
Y643826D01*
X1083081Y644021D01*
X1085645Y645083D01*
X1087847Y646773D01*
X1089537Y648974D01*
X1090599Y651538D01*
X1090794Y653020D01*
D02*
G37*
G36*
X752080Y650765D02*
Y642580D01*
X760265D01*
X760104Y643800D01*
X759143Y646121D01*
X757614Y648114D01*
X755621Y649643D01*
X753300Y650604D01*
X752080Y650765D01*
D02*
G37*
G36*
X749540D02*
X748320Y650604D01*
X745999Y649643D01*
X744006Y648114D01*
X742477Y646121D01*
X741516Y643800D01*
X741355Y642580D01*
X749540D01*
Y650765D01*
D02*
G37*
G36*
X985210Y671224D02*
X982981Y670930D01*
X980903Y670070D01*
X979119Y668701D01*
X977750Y666917D01*
X976890Y664839D01*
X976596Y662610D01*
Y649610D01*
X976890Y647381D01*
X977750Y645303D01*
X979119Y643519D01*
X980903Y642150D01*
X982981Y641290D01*
X985210Y640996D01*
X987439Y641290D01*
X989517Y642150D01*
X991301Y643519D01*
X992670Y645303D01*
X993530Y647381D01*
X993824Y649610D01*
Y662610D01*
X993530Y664839D01*
X992670Y666917D01*
X991301Y668701D01*
X989517Y670070D01*
X987439Y670930D01*
X985210Y671224D01*
D02*
G37*
G36*
X760265Y640040D02*
X752080D01*
Y631855D01*
X753300Y632015D01*
X755621Y632977D01*
X757614Y634506D01*
X759143Y636499D01*
X760104Y638820D01*
X760265Y640040D01*
D02*
G37*
G36*
X749540D02*
X741355D01*
X741516Y638820D01*
X742477Y636499D01*
X744006Y634506D01*
X745999Y632977D01*
X748320Y632015D01*
X749540Y631855D01*
Y640040D01*
D02*
G37*
%LPD*%
G36*
X1008925Y924993D02*
Y858348D01*
X1007752Y857862D01*
X990445Y875169D01*
Y923865D01*
X991647Y924273D01*
X992049Y923749D01*
X994147Y922140D01*
X996589Y921128D01*
X999210Y920783D01*
X1001831Y921128D01*
X1004273Y922140D01*
X1006371Y923749D01*
X1007655Y925424D01*
X1008925Y924993D01*
D02*
G37*
G36*
X982675Y923885D02*
Y873560D01*
X982971Y872073D01*
X983813Y870813D01*
X1028285Y826341D01*
Y807374D01*
X1027015Y806848D01*
X1008459Y825404D01*
X1008992Y826689D01*
X1009337Y829310D01*
X1008992Y831931D01*
X1007980Y834373D01*
X1006371Y836471D01*
X1004273Y838080D01*
X1001831Y839092D01*
X999210Y839437D01*
X996589Y839092D01*
X994147Y838080D01*
X992049Y836471D01*
X990965Y835057D01*
X989695Y835488D01*
Y840310D01*
X989399Y841797D01*
X988557Y843057D01*
X977695Y853919D01*
Y921652D01*
X978873Y922140D01*
X980971Y923749D01*
X981405Y924316D01*
X982675Y923885D01*
D02*
G37*
%LPC*%
G36*
X534820Y951185D02*
X422600D01*
X421113Y950889D01*
X419853Y950047D01*
X410010Y940203D01*
X408831Y940692D01*
X406210Y941037D01*
X403589Y940692D01*
X401147Y939680D01*
X399049Y938071D01*
X397440Y935973D01*
X396428Y933531D01*
X396083Y930910D01*
X396428Y928289D01*
X397440Y925847D01*
X399049Y923749D01*
X401147Y922140D01*
X403589Y921128D01*
X406210Y920783D01*
X408831Y921128D01*
X411273Y922140D01*
X413371Y923749D01*
X414980Y925847D01*
X415992Y928289D01*
X416337Y930910D01*
X415992Y933531D01*
X415503Y934710D01*
X424209Y943415D01*
X487762D01*
X488248Y942242D01*
X486210Y940203D01*
X485031Y940692D01*
X482410Y941037D01*
X479789Y940692D01*
X477347Y939680D01*
X475249Y938071D01*
X473640Y935973D01*
X472628Y933531D01*
X472283Y930910D01*
X472628Y928289D01*
X473640Y925847D01*
X475249Y923749D01*
X477347Y922140D01*
X479789Y921128D01*
X482410Y920783D01*
X485031Y921128D01*
X487473Y922140D01*
X489571Y923749D01*
X491180Y925847D01*
X492192Y928289D01*
X492537Y930910D01*
X492192Y933531D01*
X491703Y934710D01*
X495329Y938335D01*
X499252D01*
X499878Y937065D01*
X499040Y935973D01*
X498028Y933531D01*
X497683Y930910D01*
X498028Y928289D01*
X499040Y925847D01*
X500649Y923749D01*
X502747Y922140D01*
X503925Y921652D01*
Y852310D01*
X504221Y850823D01*
X505063Y849563D01*
X515925Y838701D01*
Y837164D01*
X514655Y836712D01*
X512873Y838080D01*
X510431Y839092D01*
X507810Y839437D01*
X505189Y839092D01*
X502747Y838080D01*
X500649Y836471D01*
X499040Y834373D01*
X498028Y831931D01*
X497683Y829310D01*
X498028Y826689D01*
X499040Y824247D01*
X500649Y822149D01*
X502747Y820540D01*
X505189Y819528D01*
X507810Y819183D01*
X510431Y819528D01*
X512873Y820540D01*
X514971Y822149D01*
X515922Y823390D01*
X516103Y823481D01*
X517575Y823457D01*
X526468Y814563D01*
X527729Y813721D01*
X529215Y813425D01*
X535782D01*
X542767Y806440D01*
X542359Y805237D01*
X541450Y805117D01*
X539251Y804206D01*
X537363Y802757D01*
X535914Y800869D01*
X535003Y798670D01*
X534692Y796310D01*
X535003Y793950D01*
X535914Y791751D01*
X537363Y789863D01*
X539251Y788414D01*
X541450Y787503D01*
X543810Y787192D01*
X546170Y787503D01*
X548369Y788414D01*
X549096Y788972D01*
X550235Y788410D01*
Y778810D01*
X549096Y778248D01*
X548369Y778806D01*
X546170Y779717D01*
X543810Y780028D01*
X541450Y779717D01*
X539251Y778806D01*
X537363Y777357D01*
X535914Y775469D01*
X535003Y773270D01*
X534692Y770910D01*
X535003Y768550D01*
X535914Y766351D01*
X537363Y764463D01*
X539251Y763014D01*
X541450Y762103D01*
X543810Y761792D01*
X546170Y762103D01*
X548369Y763014D01*
X549033Y763523D01*
X550172Y762962D01*
Y749066D01*
X548062Y746955D01*
X547639Y747130D01*
X545410Y747424D01*
X543181Y747130D01*
X541103Y746270D01*
X539319Y744901D01*
X537950Y743117D01*
X537090Y741039D01*
X536796Y738810D01*
Y725810D01*
X537090Y723581D01*
X537950Y721503D01*
X539319Y719719D01*
X541103Y718350D01*
X543181Y717490D01*
X545410Y717196D01*
X547639Y717490D01*
X549717Y718350D01*
X551501Y719719D01*
X552870Y721503D01*
X553730Y723581D01*
X554024Y725810D01*
Y738810D01*
X553730Y741039D01*
X553555Y741462D01*
X556804Y744710D01*
X557131Y745199D01*
X558728Y745398D01*
X562665Y741462D01*
X562490Y741039D01*
X562196Y738810D01*
Y725810D01*
X562490Y723581D01*
X563350Y721503D01*
X564719Y719719D01*
X566503Y718350D01*
X568581Y717490D01*
X570810Y717196D01*
X573039Y717490D01*
X575117Y718350D01*
X575596Y718718D01*
X576735Y718157D01*
Y674829D01*
X573056Y671150D01*
X561470D01*
Y641247D01*
X558467D01*
X552755Y646958D01*
X552930Y647381D01*
X553224Y649610D01*
Y662610D01*
X552930Y664839D01*
X552070Y666917D01*
X550701Y668701D01*
X548917Y670070D01*
X546839Y670930D01*
X544610Y671224D01*
X542381Y670930D01*
X540303Y670070D01*
X538519Y668701D01*
X537150Y666917D01*
X536290Y664839D01*
X535996Y662610D01*
Y649610D01*
X536290Y647381D01*
X537150Y645303D01*
X538519Y643519D01*
X540303Y642150D01*
X542381Y641290D01*
X544610Y640996D01*
X546839Y641290D01*
X547262Y641465D01*
X554111Y634615D01*
X555371Y633773D01*
X556858Y633477D01*
X577362D01*
X578849Y633773D01*
X580109Y634615D01*
X588447Y642953D01*
X589289Y644213D01*
X589585Y645700D01*
Y720598D01*
X590855Y720851D01*
X591414Y719501D01*
X592863Y717613D01*
X594751Y716164D01*
X596950Y715253D01*
X599310Y714942D01*
X601670Y715253D01*
X603869Y716164D01*
X605757Y717613D01*
X607206Y719501D01*
X608117Y721700D01*
X608428Y724060D01*
X608117Y726420D01*
X607206Y728619D01*
X605757Y730507D01*
X603869Y731956D01*
X601670Y732867D01*
X599310Y733178D01*
X596950Y732867D01*
X594751Y731956D01*
X592863Y730507D01*
X591414Y728619D01*
X590855Y727270D01*
X589585Y727522D01*
Y745998D01*
X590855Y746251D01*
X591414Y744901D01*
X592863Y743013D01*
X594751Y741564D01*
X596950Y740653D01*
X599310Y740342D01*
X601670Y740653D01*
X603869Y741564D01*
X605757Y743013D01*
X607206Y744901D01*
X608117Y747100D01*
X608428Y749460D01*
X608117Y751820D01*
X607206Y754019D01*
X605757Y755907D01*
X603869Y757356D01*
X601670Y758267D01*
X599310Y758578D01*
X596950Y758267D01*
X594751Y757356D01*
X592863Y755907D01*
X591414Y754019D01*
X590503Y751820D01*
X590197Y749501D01*
X590103Y749448D01*
X588934Y749284D01*
X582021Y761822D01*
X583005Y762668D01*
X583497Y762290D01*
X585939Y761278D01*
X588560Y760933D01*
X591560D01*
X594181Y761278D01*
X596623Y762290D01*
X598721Y763899D01*
X600330Y765997D01*
X601342Y768439D01*
X601687Y771060D01*
X601342Y773681D01*
X600330Y776123D01*
X598721Y778221D01*
X596623Y779830D01*
X595313Y780373D01*
Y781747D01*
X596623Y782290D01*
X598721Y783899D01*
X600330Y785997D01*
X601342Y788439D01*
X601519Y789790D01*
X590060D01*
X578601D01*
X578778Y788439D01*
X579790Y785997D01*
X581399Y783899D01*
X583497Y782290D01*
X584807Y781747D01*
Y780373D01*
X583497Y779830D01*
X581399Y778221D01*
X579790Y776123D01*
X578778Y773681D01*
X578433Y771060D01*
X578451Y770926D01*
X577223Y770522D01*
X575135Y774310D01*
Y830870D01*
X574839Y832357D01*
X573997Y833617D01*
X550695Y856919D01*
Y935310D01*
X550399Y936797D01*
X549557Y938057D01*
X537567Y950047D01*
X536306Y950889D01*
X534820Y951185D01*
D02*
G37*
G36*
X457010Y941037D02*
X454389Y940692D01*
X451947Y939680D01*
X449849Y938071D01*
X448240Y935973D01*
X447228Y933531D01*
X446883Y930910D01*
X447228Y928289D01*
X448240Y925847D01*
X449849Y923749D01*
X451947Y922140D01*
X454389Y921128D01*
X457010Y920783D01*
X459631Y921128D01*
X462073Y922140D01*
X464171Y923749D01*
X465780Y925847D01*
X466791Y928289D01*
X467137Y930910D01*
X466791Y933531D01*
X465780Y935973D01*
X464171Y938071D01*
X462073Y939680D01*
X459631Y940692D01*
X457010Y941037D01*
D02*
G37*
G36*
X431610D02*
X428989Y940692D01*
X426547Y939680D01*
X424449Y938071D01*
X422840Y935973D01*
X421828Y933531D01*
X421483Y930910D01*
X421828Y928289D01*
X422840Y925847D01*
X424449Y923749D01*
X426547Y922140D01*
X428989Y921128D01*
X431610Y920783D01*
X434231Y921128D01*
X436673Y922140D01*
X438771Y923749D01*
X440380Y925847D01*
X441391Y928289D01*
X441737Y930910D01*
X441391Y933531D01*
X440380Y935973D01*
X438771Y938071D01*
X436673Y939680D01*
X434231Y940692D01*
X431610Y941037D01*
D02*
G37*
G36*
X337080Y894765D02*
Y886580D01*
X345265D01*
X345104Y887801D01*
X344143Y890121D01*
X342614Y892114D01*
X340621Y893643D01*
X338300Y894604D01*
X337080Y894765D01*
D02*
G37*
G36*
X334540D02*
X333320Y894604D01*
X330999Y893643D01*
X329006Y892114D01*
X327477Y890121D01*
X326516Y887801D01*
X326355Y886580D01*
X334540D01*
Y894765D01*
D02*
G37*
G36*
X289080Y906835D02*
Y880580D01*
X315335D01*
X315095Y883632D01*
X314083Y887847D01*
X312424Y891852D01*
X310159Y895548D01*
X307344Y898844D01*
X304048Y901659D01*
X300352Y903924D01*
X296347Y905583D01*
X292132Y906595D01*
X289080Y906835D01*
D02*
G37*
G36*
X659080D02*
Y880580D01*
X685335D01*
X685095Y883632D01*
X684083Y887847D01*
X682424Y891852D01*
X680159Y895548D01*
X677344Y898844D01*
X674048Y901659D01*
X670351Y903924D01*
X666347Y905583D01*
X662132Y906595D01*
X659080Y906835D01*
D02*
G37*
G36*
X656540D02*
X653488Y906595D01*
X649273Y905583D01*
X645268Y903924D01*
X641572Y901659D01*
X638276Y898844D01*
X635461Y895548D01*
X633196Y891852D01*
X631537Y887847D01*
X630525Y883632D01*
X630285Y880580D01*
X656540D01*
Y906835D01*
D02*
G37*
G36*
X345265Y884040D02*
X337080D01*
Y875855D01*
X338300Y876016D01*
X340621Y876977D01*
X342614Y878506D01*
X344143Y880499D01*
X345104Y882820D01*
X345265Y884040D01*
D02*
G37*
G36*
X334540D02*
X326355D01*
X326516Y882820D01*
X327477Y880499D01*
X329006Y878506D01*
X330999Y876977D01*
X333320Y876016D01*
X334540Y875855D01*
Y884040D01*
D02*
G37*
G36*
X697060Y861973D02*
X694580D01*
Y853080D01*
X703473D01*
Y855560D01*
X702985Y858014D01*
X701595Y860095D01*
X699514Y861485D01*
X697060Y861973D01*
D02*
G37*
G36*
X692040D02*
X689560D01*
X687106Y861485D01*
X685025Y860095D01*
X683635Y858014D01*
X683147Y855560D01*
Y853080D01*
X692040D01*
Y861973D01*
D02*
G37*
G36*
X685335Y878040D02*
X659080D01*
Y851785D01*
X662132Y852025D01*
X666347Y853037D01*
X670351Y854696D01*
X674048Y856961D01*
X677344Y859776D01*
X680159Y863072D01*
X682424Y866768D01*
X684083Y870773D01*
X685095Y874988D01*
X685335Y878040D01*
D02*
G37*
G36*
X315335Y878040D02*
X289080D01*
Y851785D01*
X292132Y852025D01*
X296347Y853037D01*
X300352Y854696D01*
X304048Y856961D01*
X307344Y859776D01*
X310159Y863072D01*
X312424Y866768D01*
X314083Y870773D01*
X315095Y874988D01*
X315335Y878040D01*
D02*
G37*
G36*
X656540Y878040D02*
X630285D01*
X630525Y874988D01*
X631537Y870773D01*
X633196Y866768D01*
X635461Y863072D01*
X638276Y859776D01*
X641572Y856961D01*
X645268Y854696D01*
X649273Y853037D01*
X653488Y852025D01*
X656540Y851785D01*
Y878040D01*
D02*
G37*
G36*
X703473Y850540D02*
X694580D01*
Y841647D01*
X697060D01*
X699514Y842135D01*
X701595Y843525D01*
X702985Y845606D01*
X703473Y848060D01*
Y850540D01*
D02*
G37*
G36*
X692040D02*
X683147D01*
Y848060D01*
X683635Y845606D01*
X685025Y843525D01*
X687106Y842135D01*
X689560Y841647D01*
X692040D01*
Y850540D01*
D02*
G37*
G36*
X286560Y844973D02*
X284080D01*
Y836080D01*
X292973D01*
Y838560D01*
X292485Y841014D01*
X291095Y843095D01*
X289014Y844485D01*
X286560Y844973D01*
D02*
G37*
G36*
X281540D02*
X279060D01*
X276606Y844485D01*
X274525Y843095D01*
X273135Y841014D01*
X272647Y838560D01*
Y836080D01*
X281540D01*
Y844973D01*
D02*
G37*
G36*
X335810Y844932D02*
X333320Y844604D01*
X330999Y843643D01*
X329006Y842114D01*
X327477Y840121D01*
X326516Y837800D01*
X326188Y835310D01*
X326516Y832820D01*
X327477Y830499D01*
X329006Y828506D01*
X330999Y826977D01*
X333320Y826015D01*
X335810Y825688D01*
X338300Y826015D01*
X340621Y826977D01*
X342614Y828506D01*
X344143Y830499D01*
X345104Y832820D01*
X345432Y835310D01*
X345104Y837800D01*
X344143Y840121D01*
X342614Y842114D01*
X340621Y843643D01*
X338300Y844604D01*
X335810Y844932D01*
D02*
G37*
G36*
X313560Y845473D02*
X306060D01*
X303606Y844985D01*
X301525Y843595D01*
X300135Y841514D01*
X299647Y839060D01*
Y831560D01*
X300135Y829106D01*
X301525Y827025D01*
X303606Y825635D01*
X306060Y825147D01*
X313560D01*
X316014Y825635D01*
X318095Y827025D01*
X319485Y829106D01*
X319973Y831560D01*
Y839060D01*
X319485Y841514D01*
X318095Y843595D01*
X316014Y844985D01*
X313560Y845473D01*
D02*
G37*
G36*
X292973Y833540D02*
X284080D01*
Y824647D01*
X286560D01*
X289014Y825135D01*
X291095Y826525D01*
X292485Y828606D01*
X292973Y831060D01*
Y833540D01*
D02*
G37*
G36*
X281540D02*
X272647D01*
Y831060D01*
X273135Y828606D01*
X274525Y826525D01*
X276606Y825135D01*
X279060Y824647D01*
X281540D01*
Y833540D01*
D02*
G37*
G36*
X482410Y839437D02*
X479789Y839092D01*
X477347Y838080D01*
X475249Y836471D01*
X473640Y834373D01*
X472628Y831931D01*
X472283Y829310D01*
X472628Y826689D01*
X473640Y824247D01*
X475249Y822149D01*
X477347Y820540D01*
X479789Y819528D01*
X482410Y819183D01*
X485031Y819528D01*
X487473Y820540D01*
X489571Y822149D01*
X491180Y824247D01*
X492192Y826689D01*
X492537Y829310D01*
X492192Y831931D01*
X491180Y834373D01*
X489571Y836471D01*
X487473Y838080D01*
X485031Y839092D01*
X482410Y839437D01*
D02*
G37*
G36*
X457010D02*
X454389Y839092D01*
X451947Y838080D01*
X449849Y836471D01*
X448240Y834373D01*
X447228Y831931D01*
X446883Y829310D01*
X447228Y826689D01*
X448240Y824247D01*
X449849Y822149D01*
X451947Y820540D01*
X454389Y819528D01*
X457010Y819183D01*
X459631Y819528D01*
X462073Y820540D01*
X464171Y822149D01*
X465780Y824247D01*
X466791Y826689D01*
X467137Y829310D01*
X466791Y831931D01*
X465780Y834373D01*
X464171Y836471D01*
X462073Y838080D01*
X459631Y839092D01*
X457010Y839437D01*
D02*
G37*
G36*
X431610D02*
X428989Y839092D01*
X426547Y838080D01*
X424449Y836471D01*
X422840Y834373D01*
X421828Y831931D01*
X421483Y829310D01*
X421828Y826689D01*
X422840Y824247D01*
X424449Y822149D01*
X426547Y820540D01*
X428989Y819528D01*
X431610Y819183D01*
X434231Y819528D01*
X436673Y820540D01*
X438771Y822149D01*
X440380Y824247D01*
X441391Y826689D01*
X441737Y829310D01*
X441391Y831931D01*
X440380Y834373D01*
X438771Y836471D01*
X436673Y838080D01*
X434231Y839092D01*
X431610Y839437D01*
D02*
G37*
G36*
X406210D02*
X403589Y839092D01*
X401147Y838080D01*
X399049Y836471D01*
X397440Y834373D01*
X396428Y831931D01*
X396083Y829310D01*
X396428Y826689D01*
X397440Y824247D01*
X399049Y822149D01*
X401147Y820540D01*
X403589Y819528D01*
X406210Y819183D01*
X408831Y819528D01*
X411273Y820540D01*
X413371Y822149D01*
X414980Y824247D01*
X415992Y826689D01*
X416337Y829310D01*
X415992Y831931D01*
X414980Y834373D01*
X413371Y836471D01*
X411273Y838080D01*
X408831Y839092D01*
X406210Y839437D01*
D02*
G37*
G36*
X642810Y836432D02*
X640320Y836104D01*
X637999Y835143D01*
X636006Y833614D01*
X634477Y831621D01*
X633516Y829300D01*
X633188Y826810D01*
X633516Y824320D01*
X634477Y821999D01*
X636006Y820006D01*
X637999Y818477D01*
X640320Y817515D01*
X642810Y817188D01*
X645300Y817515D01*
X647621Y818477D01*
X649614Y820006D01*
X651143Y821999D01*
X652104Y824320D01*
X652432Y826810D01*
X652104Y829300D01*
X651143Y831621D01*
X649614Y833614D01*
X647621Y835143D01*
X645300Y836104D01*
X642810Y836432D01*
D02*
G37*
G36*
X692810Y836432D02*
X690320Y836104D01*
X687999Y835143D01*
X686006Y833614D01*
X684477Y831621D01*
X683515Y829300D01*
X683188Y826810D01*
X683515Y824320D01*
X684477Y821999D01*
X686006Y820006D01*
X687999Y818477D01*
X690320Y817515D01*
X692810Y817188D01*
X695300Y817515D01*
X697621Y818477D01*
X699614Y820006D01*
X701143Y821999D01*
X702104Y824320D01*
X702432Y826810D01*
X702104Y829300D01*
X701143Y831621D01*
X699614Y833614D01*
X697621Y835143D01*
X695300Y836104D01*
X692810Y836432D01*
D02*
G37*
G36*
X669230Y809011D02*
Y801330D01*
X676911D01*
X676767Y802420D01*
X675856Y804619D01*
X674407Y806507D01*
X672519Y807956D01*
X670320Y808867D01*
X669230Y809011D01*
D02*
G37*
G36*
X666690Y809011D02*
X665600Y808867D01*
X663401Y807956D01*
X661513Y806507D01*
X660064Y804619D01*
X659153Y802420D01*
X659009Y801330D01*
X666690D01*
Y809011D01*
D02*
G37*
G36*
X310210Y814641D02*
X307458Y814279D01*
X304895Y813217D01*
X302693Y811527D01*
X301003Y809325D01*
X299941Y806761D01*
X299579Y804010D01*
X299941Y801258D01*
X301003Y798695D01*
X302693Y796493D01*
X304895Y794803D01*
X307458Y793741D01*
X310210Y793379D01*
X312962Y793741D01*
X315525Y794803D01*
X317727Y796493D01*
X319417Y798695D01*
X320479Y801258D01*
X320841Y804010D01*
X320479Y806761D01*
X319417Y809325D01*
X317727Y811527D01*
X315525Y813217D01*
X312962Y814279D01*
X310210Y814641D01*
D02*
G37*
G36*
X286080Y801774D02*
Y792580D01*
X295274D01*
X295079Y794062D01*
X294017Y796626D01*
X292327Y798827D01*
X290126Y800517D01*
X287561Y801579D01*
X286080Y801774D01*
D02*
G37*
G36*
X283540Y801774D02*
X282059Y801579D01*
X279494Y800517D01*
X277293Y798827D01*
X275603Y796626D01*
X274541Y794062D01*
X274346Y792580D01*
X283540D01*
Y801774D01*
D02*
G37*
G36*
X591560Y801187D02*
X591330D01*
Y792330D01*
X601519D01*
X601342Y793681D01*
X600330Y796123D01*
X598721Y798221D01*
X596623Y799830D01*
X594181Y800842D01*
X591560Y801187D01*
D02*
G37*
G36*
X588790D02*
X588560D01*
X585939Y800842D01*
X583497Y799830D01*
X581399Y798221D01*
X579790Y796123D01*
X578778Y793681D01*
X578601Y792330D01*
X588790D01*
Y801187D01*
D02*
G37*
G36*
X696810Y811473D02*
X689310D01*
X686856Y810985D01*
X684775Y809595D01*
X683385Y807514D01*
X682897Y805060D01*
Y797560D01*
X683385Y795106D01*
X684775Y793025D01*
X686856Y791635D01*
X689310Y791147D01*
X696810D01*
X699264Y791635D01*
X701345Y793025D01*
X702735Y795106D01*
X703223Y797560D01*
Y805060D01*
X702735Y807514D01*
X701345Y809595D01*
X699264Y810985D01*
X696810Y811473D01*
D02*
G37*
G36*
X676911Y798790D02*
X669230D01*
Y791109D01*
X670320Y791253D01*
X672519Y792164D01*
X674407Y793613D01*
X675856Y795501D01*
X676767Y797700D01*
X676911Y798790D01*
D02*
G37*
G36*
X666690D02*
X659009D01*
X659153Y797700D01*
X660064Y795501D01*
X661513Y793613D01*
X663401Y792164D01*
X665600Y791253D01*
X666690Y791109D01*
Y798790D01*
D02*
G37*
G36*
X642560Y809178D02*
X640200Y808867D01*
X638001Y807956D01*
X636113Y806507D01*
X634664Y804619D01*
X633753Y802420D01*
X633442Y800060D01*
X633753Y797700D01*
X634664Y795501D01*
X636113Y793613D01*
X638001Y792164D01*
X640200Y791253D01*
X642560Y790942D01*
X644920Y791253D01*
X647119Y792164D01*
X649007Y793613D01*
X650456Y795501D01*
X651367Y797700D01*
X651678Y800060D01*
X651367Y802420D01*
X650456Y804619D01*
X649007Y806507D01*
X647119Y807956D01*
X644920Y808867D01*
X642560Y809178D01*
D02*
G37*
G36*
X514810Y805428D02*
X512450Y805117D01*
X510251Y804206D01*
X508363Y802757D01*
X506914Y800869D01*
X506003Y798670D01*
X505692Y796310D01*
X506003Y793950D01*
X506914Y791751D01*
X508363Y789863D01*
X510251Y788414D01*
X512450Y787503D01*
X514810Y787192D01*
X517170Y787503D01*
X519369Y788414D01*
X521257Y789863D01*
X522706Y791751D01*
X523617Y793950D01*
X523928Y796310D01*
X523617Y798670D01*
X522706Y800869D01*
X521257Y802757D01*
X519369Y804206D01*
X517170Y805117D01*
X514810Y805428D01*
D02*
G37*
G36*
X485810Y804828D02*
X483450Y804517D01*
X481251Y803606D01*
X479363Y802157D01*
X477914Y800269D01*
X477003Y798070D01*
X476692Y795710D01*
X477003Y793350D01*
X477914Y791151D01*
X479363Y789263D01*
X481251Y787814D01*
X483450Y786903D01*
X485810Y786592D01*
X488170Y786903D01*
X490369Y787814D01*
X492257Y789263D01*
X493706Y791151D01*
X494617Y793350D01*
X494928Y795710D01*
X494617Y798070D01*
X493706Y800269D01*
X492257Y802157D01*
X490369Y803606D01*
X488170Y804517D01*
X485810Y804828D01*
D02*
G37*
G36*
X374810Y803828D02*
X372450Y803517D01*
X370251Y802606D01*
X368363Y801157D01*
X366914Y799269D01*
X366003Y797070D01*
X365692Y794710D01*
X366003Y792350D01*
X366914Y790151D01*
X368363Y788263D01*
X370251Y786814D01*
X372450Y785903D01*
X374810Y785592D01*
X377170Y785903D01*
X379369Y786814D01*
X381257Y788263D01*
X382706Y790151D01*
X383617Y792350D01*
X383928Y794710D01*
X383617Y797070D01*
X382706Y799269D01*
X381257Y801157D01*
X379369Y802606D01*
X377170Y803517D01*
X374810Y803828D01*
D02*
G37*
G36*
X345810D02*
X343450Y803517D01*
X341251Y802606D01*
X339363Y801157D01*
X337914Y799269D01*
X337003Y797070D01*
X336692Y794710D01*
X337003Y792350D01*
X337914Y790151D01*
X339363Y788263D01*
X341251Y786814D01*
X343450Y785903D01*
X345810Y785592D01*
X348170Y785903D01*
X350369Y786814D01*
X352257Y788263D01*
X353706Y790151D01*
X354617Y792350D01*
X354928Y794710D01*
X354617Y797070D01*
X353706Y799269D01*
X352257Y801157D01*
X350369Y802606D01*
X348170Y803517D01*
X345810Y803828D01*
D02*
G37*
G36*
X402810Y802428D02*
X400450Y802117D01*
X398251Y801206D01*
X396363Y799757D01*
X394914Y797869D01*
X394003Y795670D01*
X393692Y793310D01*
X394003Y790950D01*
X394914Y788751D01*
X396363Y786863D01*
X398251Y785414D01*
X400450Y784503D01*
X402810Y784192D01*
X405170Y784503D01*
X407369Y785414D01*
X409257Y786863D01*
X410706Y788751D01*
X411617Y790950D01*
X411928Y793310D01*
X411617Y795670D01*
X410706Y797869D01*
X409257Y799757D01*
X407369Y801206D01*
X405170Y802117D01*
X402810Y802428D01*
D02*
G37*
G36*
X295274Y790040D02*
X286080D01*
Y780846D01*
X287561Y781041D01*
X290126Y782103D01*
X292327Y783793D01*
X294017Y785994D01*
X295079Y788559D01*
X295274Y790040D01*
D02*
G37*
G36*
X283540D02*
X274346D01*
X274541Y788559D01*
X275603Y785994D01*
X277293Y783793D01*
X279494Y782103D01*
X282059Y781041D01*
X283540Y780846D01*
Y790040D01*
D02*
G37*
G36*
X693580Y785911D02*
Y778230D01*
X701261D01*
X701117Y779320D01*
X700207Y781519D01*
X698757Y783407D01*
X696869Y784856D01*
X694670Y785767D01*
X693580Y785911D01*
D02*
G37*
G36*
X691040Y785911D02*
X689950Y785767D01*
X687751Y784856D01*
X685863Y783407D01*
X684414Y781519D01*
X683503Y779320D01*
X683359Y778230D01*
X691040D01*
Y785911D01*
D02*
G37*
G36*
X701261Y775690D02*
X693580D01*
Y768009D01*
X694670Y768153D01*
X696869Y769063D01*
X698757Y770512D01*
X700207Y772401D01*
X701117Y774600D01*
X701261Y775690D01*
D02*
G37*
G36*
X691040D02*
X683359D01*
X683503Y774600D01*
X684414Y772401D01*
X685863Y770512D01*
X687751Y769063D01*
X689950Y768153D01*
X691040Y768009D01*
Y775690D01*
D02*
G37*
G36*
X286218Y771893D02*
Y763708D01*
X294403D01*
X294243Y764929D01*
X293281Y767249D01*
X291752Y769242D01*
X289760Y770771D01*
X287439Y771732D01*
X286218Y771893D01*
D02*
G37*
G36*
X283678D02*
X282458Y771732D01*
X280137Y770771D01*
X278144Y769242D01*
X276615Y767249D01*
X275654Y764929D01*
X275493Y763708D01*
X283678D01*
Y771893D01*
D02*
G37*
G36*
X642510Y784591D02*
X639758Y784229D01*
X637195Y783167D01*
X634993Y781477D01*
X633303Y779276D01*
X632241Y776712D01*
X631879Y773960D01*
X632241Y771208D01*
X633303Y768644D01*
X634993Y766443D01*
X637195Y764753D01*
X639758Y763691D01*
X642510Y763329D01*
X645262Y763691D01*
X647825Y764753D01*
X650027Y766443D01*
X651717Y768644D01*
X652779Y771208D01*
X653141Y773960D01*
X652779Y776712D01*
X651717Y779276D01*
X650027Y781477D01*
X647825Y783167D01*
X645262Y784229D01*
X642510Y784591D01*
D02*
G37*
G36*
X514810Y780028D02*
X512450Y779717D01*
X510251Y778806D01*
X508363Y777357D01*
X506914Y775469D01*
X506003Y773270D01*
X505692Y770910D01*
X506003Y768550D01*
X506914Y766351D01*
X508363Y764463D01*
X510251Y763014D01*
X512450Y762103D01*
X514810Y761792D01*
X517170Y762103D01*
X519369Y763014D01*
X521257Y764463D01*
X522706Y766351D01*
X523617Y768550D01*
X523928Y770910D01*
X523617Y773270D01*
X522706Y775469D01*
X521257Y777357D01*
X519369Y778806D01*
X517170Y779717D01*
X514810Y780028D01*
D02*
G37*
G36*
X374810Y778428D02*
X372450Y778117D01*
X370251Y777206D01*
X368363Y775757D01*
X366914Y773869D01*
X366003Y771670D01*
X365692Y769310D01*
X366003Y766950D01*
X366335Y766148D01*
X364863Y764676D01*
X364021Y763416D01*
X363725Y761929D01*
Y746444D01*
X363303Y746270D01*
X361519Y744901D01*
X360150Y743117D01*
X359290Y741039D01*
X358996Y738810D01*
Y725810D01*
X359290Y723581D01*
X360150Y721503D01*
X361519Y719719D01*
X363303Y718350D01*
X365381Y717490D01*
X367610Y717196D01*
X369839Y717490D01*
X371917Y718350D01*
X373701Y719719D01*
X375070Y721503D01*
X375930Y723581D01*
X376224Y725810D01*
Y738810D01*
X375930Y741039D01*
X375070Y743117D01*
X373701Y744901D01*
X371917Y746270D01*
X371495Y746444D01*
Y759524D01*
X371948Y759988D01*
X372703Y760469D01*
X374810Y760192D01*
X377170Y760503D01*
X379369Y761414D01*
X381257Y762863D01*
X382706Y764751D01*
X383617Y766950D01*
X383928Y769310D01*
X383617Y771670D01*
X382706Y773869D01*
X381257Y775757D01*
X379369Y777206D01*
X377170Y778117D01*
X374810Y778428D01*
D02*
G37*
G36*
X345810D02*
X343450Y778117D01*
X341251Y777206D01*
X339363Y775757D01*
X337914Y773869D01*
X337003Y771670D01*
X336692Y769310D01*
X337003Y766950D01*
X337914Y764751D01*
X339363Y762863D01*
X341251Y761414D01*
X343450Y760503D01*
X345810Y760192D01*
X348170Y760503D01*
X350369Y761414D01*
X352257Y762863D01*
X353706Y764751D01*
X354617Y766950D01*
X354928Y769310D01*
X354617Y771670D01*
X353706Y773869D01*
X352257Y775757D01*
X350369Y777206D01*
X348170Y778117D01*
X345810Y778428D01*
D02*
G37*
G36*
X294403Y761168D02*
X286218D01*
Y752983D01*
X287439Y753144D01*
X289760Y754105D01*
X291752Y755634D01*
X293281Y757627D01*
X294243Y759948D01*
X294403Y761168D01*
D02*
G37*
G36*
X283678D02*
X275493D01*
X275654Y759948D01*
X276615Y757627D01*
X278144Y755634D01*
X280137Y754105D01*
X282458Y753144D01*
X283678Y752983D01*
Y761168D01*
D02*
G37*
G36*
X402810Y777028D02*
X400450Y776717D01*
X398251Y775806D01*
X396363Y774357D01*
X394914Y772469D01*
X394003Y770270D01*
X393692Y767910D01*
X394003Y765550D01*
X394914Y763351D01*
X396363Y761463D01*
X398251Y760014D01*
X398935Y759730D01*
Y746463D01*
X397796Y745902D01*
X397317Y746270D01*
X395239Y747130D01*
X393010Y747424D01*
X390781Y747130D01*
X388703Y746270D01*
X386919Y744901D01*
X385550Y743117D01*
X384690Y741039D01*
X384396Y738810D01*
Y725810D01*
X384690Y723581D01*
X385550Y721503D01*
X386919Y719719D01*
X388703Y718350D01*
X390781Y717490D01*
X393010Y717196D01*
X395239Y717490D01*
X397317Y718350D01*
X397796Y718718D01*
X398935Y718157D01*
Y700229D01*
X369462Y670755D01*
X369039Y670930D01*
X366810Y671224D01*
X364581Y670930D01*
X362503Y670070D01*
X360719Y668701D01*
X359350Y666917D01*
X358490Y664839D01*
X358196Y662610D01*
Y649610D01*
X358490Y647381D01*
X359350Y645303D01*
X360719Y643519D01*
X362503Y642150D01*
X364581Y641290D01*
X366810Y640996D01*
X369039Y641290D01*
X371117Y642150D01*
X372901Y643519D01*
X374270Y645303D01*
X375130Y647381D01*
X375424Y649610D01*
Y662610D01*
X375130Y664839D01*
X374955Y665262D01*
X405567Y695873D01*
X406409Y697133D01*
X406705Y698620D01*
Y759738D01*
X407369Y760014D01*
X409257Y761463D01*
X410706Y763351D01*
X411617Y765550D01*
X411928Y767910D01*
X411617Y770270D01*
X410706Y772469D01*
X409257Y774357D01*
X407369Y775806D01*
X405170Y776717D01*
X402810Y777028D01*
D02*
G37*
G36*
X692310Y760678D02*
X689950Y760367D01*
X687751Y759456D01*
X685863Y758007D01*
X684414Y756119D01*
X683503Y753920D01*
X683192Y751560D01*
X683503Y749200D01*
X684414Y747001D01*
X685863Y745113D01*
X687751Y743664D01*
X689950Y742753D01*
X692310Y742442D01*
X694670Y742753D01*
X696869Y743664D01*
X698757Y745113D01*
X700206Y747001D01*
X701117Y749200D01*
X701428Y751560D01*
X701117Y753920D01*
X700206Y756119D01*
X698757Y758007D01*
X696869Y759456D01*
X694670Y760367D01*
X692310Y760678D01*
D02*
G37*
G36*
X629810Y759191D02*
X627058Y758829D01*
X624495Y757767D01*
X622293Y756077D01*
X620603Y753876D01*
X619541Y751311D01*
X619179Y748560D01*
X619541Y745808D01*
X620603Y743244D01*
X622293Y741043D01*
X624495Y739353D01*
X627058Y738291D01*
X629810Y737929D01*
X632561Y738291D01*
X635126Y739353D01*
X637327Y741043D01*
X639017Y743244D01*
X640079Y745808D01*
X640441Y748560D01*
X640079Y751311D01*
X639017Y753876D01*
X637327Y756077D01*
X635126Y757767D01*
X632561Y758829D01*
X629810Y759191D01*
D02*
G37*
G36*
X655210Y759191D02*
X652458Y758829D01*
X649894Y757767D01*
X647693Y756077D01*
X646003Y753875D01*
X644941Y751311D01*
X644579Y748560D01*
X644941Y745808D01*
X646003Y743244D01*
X647693Y741043D01*
X649894Y739353D01*
X652458Y738291D01*
X655210Y737929D01*
X657962Y738291D01*
X660526Y739353D01*
X662727Y741043D01*
X664417Y743244D01*
X665479Y745808D01*
X665841Y748560D01*
X665479Y751311D01*
X664417Y753875D01*
X662727Y756077D01*
X660526Y757767D01*
X657962Y758829D01*
X655210Y759191D01*
D02*
G37*
G36*
X692560Y738182D02*
X690070Y737855D01*
X687749Y736893D01*
X685756Y735364D01*
X684227Y733371D01*
X683266Y731050D01*
X682938Y728560D01*
X683266Y726070D01*
X684227Y723749D01*
X685756Y721756D01*
X687749Y720227D01*
X690070Y719266D01*
X692560Y718938D01*
X695051Y719266D01*
X697371Y720227D01*
X699364Y721756D01*
X700893Y723749D01*
X701854Y726070D01*
X702182Y728560D01*
X701854Y731050D01*
X700893Y733371D01*
X699364Y735364D01*
X697371Y736893D01*
X695051Y737855D01*
X692560Y738182D01*
D02*
G37*
G36*
X520010Y747424D02*
X517781Y747130D01*
X515703Y746270D01*
X513919Y744901D01*
X512550Y743117D01*
X511690Y741039D01*
X511396Y738810D01*
Y725810D01*
X511690Y723581D01*
X512550Y721503D01*
X513919Y719719D01*
X515703Y718350D01*
X517781Y717490D01*
X520010Y717196D01*
X522239Y717490D01*
X524317Y718350D01*
X526101Y719719D01*
X527470Y721503D01*
X528330Y723581D01*
X528624Y725810D01*
Y738810D01*
X528330Y741039D01*
X527470Y743117D01*
X526101Y744901D01*
X524317Y746270D01*
X522239Y747130D01*
X520010Y747424D01*
D02*
G37*
G36*
X324560Y722174D02*
X322331Y721880D01*
X320253Y721020D01*
X318469Y719651D01*
X317100Y717867D01*
X316835Y717227D01*
X308562Y716993D01*
X293563Y716568D01*
X293281Y717249D01*
X291752Y719242D01*
X289760Y720771D01*
X287439Y721732D01*
X284948Y722060D01*
X282458Y721732D01*
X280137Y720771D01*
X278144Y719242D01*
X276615Y717249D01*
X275654Y714929D01*
X275326Y712438D01*
X275654Y709948D01*
X276615Y707627D01*
X278144Y705634D01*
X280137Y704105D01*
X282458Y703144D01*
X284948Y702816D01*
X287439Y703144D01*
X289760Y704105D01*
X291752Y705634D01*
X293281Y707627D01*
X293768Y708802D01*
X308782Y709227D01*
X317015Y709460D01*
X317100Y709253D01*
X318469Y707469D01*
X320253Y706100D01*
X322331Y705240D01*
X324560Y704946D01*
X326789Y705240D01*
X328867Y706100D01*
X330651Y707469D01*
X332020Y709253D01*
X332880Y711331D01*
X333174Y713560D01*
X332880Y715789D01*
X332020Y717867D01*
X330651Y719651D01*
X328867Y721020D01*
X326789Y721880D01*
X324560Y722174D01*
D02*
G37*
G36*
X671080Y719515D02*
Y711330D01*
X679265D01*
X679104Y712550D01*
X678143Y714871D01*
X676614Y716864D01*
X674621Y718393D01*
X672300Y719354D01*
X671080Y719515D01*
D02*
G37*
G36*
X668540D02*
X667319Y719354D01*
X664999Y718393D01*
X663006Y716864D01*
X661477Y714871D01*
X660516Y712550D01*
X660355Y711330D01*
X668540D01*
Y719515D01*
D02*
G37*
G36*
X679265Y708790D02*
X671080D01*
Y700605D01*
X672300Y700766D01*
X674621Y701727D01*
X676614Y703256D01*
X678143Y705249D01*
X679104Y707570D01*
X679265Y708790D01*
D02*
G37*
G36*
X668540D02*
X660355D01*
X660516Y707570D01*
X661477Y705249D01*
X663006Y703256D01*
X664999Y701727D01*
X667319Y700766D01*
X668540Y700605D01*
Y708790D01*
D02*
G37*
G36*
X619810Y719682D02*
X617319Y719354D01*
X614999Y718393D01*
X613006Y716864D01*
X611477Y714871D01*
X610516Y712550D01*
X610188Y710060D01*
X610516Y707570D01*
X611477Y705249D01*
X613006Y703256D01*
X614999Y701727D01*
X617319Y700766D01*
X619810Y700438D01*
X622300Y700766D01*
X624621Y701727D01*
X626614Y703256D01*
X628143Y705249D01*
X629104Y707570D01*
X629432Y710060D01*
X629104Y712550D01*
X628143Y714871D01*
X626614Y716864D01*
X624621Y718393D01*
X622300Y719354D01*
X619810Y719682D01*
D02*
G37*
G36*
X664560Y688078D02*
X662200Y687767D01*
X660001Y686856D01*
X658113Y685407D01*
X656664Y683519D01*
X655753Y681320D01*
X655442Y678960D01*
X655753Y676600D01*
X656664Y674401D01*
X658113Y672513D01*
X660001Y671064D01*
X662200Y670153D01*
X664560Y669842D01*
X666920Y670153D01*
X669119Y671064D01*
X671007Y672513D01*
X672456Y674401D01*
X673367Y676600D01*
X673678Y678960D01*
X673367Y681320D01*
X672456Y683519D01*
X671007Y685407D01*
X669119Y686856D01*
X666920Y687767D01*
X664560Y688078D01*
D02*
G37*
G36*
X614330Y690321D02*
X611578Y689959D01*
X609014Y688897D01*
X606813Y687207D01*
X605123Y685005D01*
X604061Y682441D01*
X603699Y679690D01*
X604061Y676938D01*
X605123Y674374D01*
X606813Y672173D01*
X609014Y670483D01*
X611578Y669421D01*
X614330Y669059D01*
X617081Y669421D01*
X619645Y670483D01*
X621847Y672173D01*
X623537Y674374D01*
X624599Y676938D01*
X624961Y679690D01*
X624599Y682441D01*
X623537Y685005D01*
X621847Y687207D01*
X619645Y688897D01*
X617081Y689959D01*
X614330Y690321D01*
D02*
G37*
G36*
X692560Y688182D02*
X690070Y687854D01*
X687749Y686893D01*
X685756Y685364D01*
X684227Y683371D01*
X683266Y681050D01*
X682938Y678560D01*
X683266Y676069D01*
X684227Y673749D01*
X685756Y671756D01*
X687749Y670227D01*
X690070Y669266D01*
X692560Y668938D01*
X695051Y669266D01*
X697371Y670227D01*
X699364Y671756D01*
X700893Y673749D01*
X701854Y676069D01*
X702182Y678560D01*
X701854Y681050D01*
X700893Y683371D01*
X699364Y685364D01*
X697371Y686893D01*
X695051Y687854D01*
X692560Y688182D01*
D02*
G37*
G36*
X639730Y677621D02*
X636978Y677259D01*
X634414Y676197D01*
X632213Y674507D01*
X630523Y672305D01*
X629461Y669741D01*
X629099Y666990D01*
X629461Y664238D01*
X630523Y661674D01*
X632213Y659473D01*
X634414Y657783D01*
X636978Y656721D01*
X639730Y656359D01*
X642481Y656721D01*
X645045Y657783D01*
X647247Y659473D01*
X648937Y661674D01*
X649999Y664238D01*
X650361Y666990D01*
X649999Y669741D01*
X648937Y672305D01*
X647247Y674507D01*
X645045Y676197D01*
X642481Y677259D01*
X639730Y677621D01*
D02*
G37*
G36*
X615600Y664754D02*
Y655560D01*
X624794D01*
X624599Y657041D01*
X623537Y659605D01*
X621847Y661807D01*
X619645Y663497D01*
X617081Y664559D01*
X615600Y664754D01*
D02*
G37*
G36*
X613060Y664754D02*
X611578Y664559D01*
X609014Y663497D01*
X606813Y661807D01*
X605123Y659605D01*
X604061Y657041D01*
X603866Y655560D01*
X613060D01*
Y664754D01*
D02*
G37*
G36*
X284810Y700932D02*
X282320Y700604D01*
X279999Y699643D01*
X278006Y698114D01*
X276477Y696121D01*
X275516Y693800D01*
X275188Y691310D01*
X275516Y688820D01*
X276477Y686499D01*
X278006Y684506D01*
X279999Y682977D01*
X282320Y682016D01*
X284810Y681688D01*
X287300Y682016D01*
X289621Y682977D01*
X291614Y684506D01*
X293143Y686499D01*
X293527Y687425D01*
X296001D01*
X316590Y666836D01*
X316240Y665989D01*
X315946Y663760D01*
X316240Y661531D01*
X317100Y659453D01*
X318469Y657669D01*
X320253Y656300D01*
X322331Y655440D01*
X324560Y655146D01*
X326789Y655440D01*
X328867Y656300D01*
X330651Y657669D01*
X332020Y659453D01*
X332880Y661531D01*
X333174Y663760D01*
X332880Y665989D01*
X332020Y668067D01*
X330651Y669851D01*
X328867Y671220D01*
X326789Y672080D01*
X324560Y672374D01*
X322333Y672081D01*
X300357Y694057D01*
X299097Y694899D01*
X297610Y695195D01*
X293527D01*
X293143Y696121D01*
X291614Y698114D01*
X289621Y699643D01*
X287300Y700604D01*
X284810Y700932D01*
D02*
G37*
G36*
X664560Y662678D02*
X662200Y662367D01*
X660001Y661456D01*
X658113Y660007D01*
X656664Y658119D01*
X655753Y655920D01*
X655442Y653560D01*
X655753Y651200D01*
X656664Y649001D01*
X658113Y647113D01*
X660001Y645664D01*
X662200Y644753D01*
X664560Y644442D01*
X666920Y644753D01*
X669119Y645664D01*
X671007Y647113D01*
X672456Y649001D01*
X673367Y651200D01*
X673678Y653560D01*
X673367Y655920D01*
X672456Y658119D01*
X671007Y660007D01*
X669119Y661456D01*
X666920Y662367D01*
X664560Y662678D01*
D02*
G37*
G36*
X613060Y653020D02*
X603866D01*
X604061Y651538D01*
X605123Y648974D01*
X606813Y646773D01*
X609014Y645083D01*
X611578Y644021D01*
X613060Y643826D01*
Y653020D01*
D02*
G37*
G36*
X624794D02*
X615600D01*
Y643826D01*
X617081Y644021D01*
X619645Y645083D01*
X621847Y646773D01*
X623537Y648974D01*
X624599Y651538D01*
X624794Y653020D01*
D02*
G37*
G36*
X286080Y650765D02*
Y642580D01*
X294265D01*
X294104Y643800D01*
X293143Y646121D01*
X291614Y648114D01*
X289621Y649643D01*
X287300Y650604D01*
X286080Y650765D01*
D02*
G37*
G36*
X283540D02*
X282320Y650604D01*
X279999Y649643D01*
X278006Y648114D01*
X276477Y646121D01*
X275516Y643800D01*
X275355Y642580D01*
X283540D01*
Y650765D01*
D02*
G37*
G36*
X519210Y671224D02*
X516981Y670930D01*
X514903Y670070D01*
X513119Y668701D01*
X511750Y666917D01*
X510890Y664839D01*
X510596Y662610D01*
Y649610D01*
X510890Y647381D01*
X511750Y645303D01*
X513119Y643519D01*
X514903Y642150D01*
X516981Y641290D01*
X519210Y640996D01*
X521439Y641290D01*
X523517Y642150D01*
X525301Y643519D01*
X526670Y645303D01*
X527530Y647381D01*
X527824Y649610D01*
Y662610D01*
X527530Y664839D01*
X526670Y666917D01*
X525301Y668701D01*
X523517Y670070D01*
X521439Y670930D01*
X519210Y671224D01*
D02*
G37*
G36*
X294265Y640040D02*
X286080D01*
Y631855D01*
X287300Y632015D01*
X289621Y632977D01*
X291614Y634506D01*
X293143Y636499D01*
X294104Y638820D01*
X294265Y640040D01*
D02*
G37*
G36*
X283540D02*
X275355D01*
X275516Y638820D01*
X276477Y636499D01*
X278006Y634506D01*
X279999Y632977D01*
X282320Y632015D01*
X283540Y631855D01*
Y640040D01*
D02*
G37*
%LPD*%
G36*
X542925Y924993D02*
Y858348D01*
X541752Y857862D01*
X524445Y875169D01*
Y923865D01*
X525647Y924273D01*
X526049Y923749D01*
X528147Y922140D01*
X530589Y921128D01*
X533210Y920783D01*
X535831Y921128D01*
X538273Y922140D01*
X540371Y923749D01*
X541655Y925424D01*
X542925Y924993D01*
D02*
G37*
G36*
X516675Y923885D02*
Y873560D01*
X516971Y872073D01*
X517813Y870813D01*
X562285Y826341D01*
Y807374D01*
X561015Y806848D01*
X542459Y825404D01*
X542991Y826689D01*
X543337Y829310D01*
X542991Y831931D01*
X541980Y834373D01*
X540371Y836471D01*
X538273Y838080D01*
X535831Y839092D01*
X533210Y839437D01*
X530589Y839092D01*
X528147Y838080D01*
X526049Y836471D01*
X524965Y835057D01*
X523695Y835488D01*
Y840310D01*
X523399Y841797D01*
X522557Y843057D01*
X511695Y853919D01*
Y921652D01*
X512873Y922140D01*
X514971Y923749D01*
X515405Y924316D01*
X516675Y923885D01*
D02*
G37*
%LPC*%
G36*
X935680Y671057D02*
Y657380D01*
X943024D01*
Y662610D01*
X942730Y664839D01*
X941870Y666917D01*
X940501Y668701D01*
X938717Y670070D01*
X936639Y670930D01*
X935680Y671057D01*
D02*
G37*
G36*
X943024Y654840D02*
X935680D01*
Y641163D01*
X936639Y641290D01*
X938717Y642150D01*
X940501Y643519D01*
X941870Y645303D01*
X942730Y647381D01*
X943024Y649610D01*
Y654840D01*
D02*
G37*
G36*
X469680Y671057D02*
Y657380D01*
X477024D01*
Y662610D01*
X476730Y664839D01*
X475870Y666917D01*
X474501Y668701D01*
X472717Y670070D01*
X470639Y670930D01*
X469680Y671057D01*
D02*
G37*
G36*
X477024Y654840D02*
X469680D01*
Y641163D01*
X470639Y641290D01*
X472717Y642150D01*
X474501Y643519D01*
X475870Y645303D01*
X476730Y647381D01*
X477024Y649610D01*
Y654840D01*
D02*
G37*
G36*
X1000820Y589685D02*
X888600D01*
X887113Y589389D01*
X885853Y588547D01*
X876010Y578703D01*
X874831Y579192D01*
X872210Y579537D01*
X869589Y579192D01*
X867147Y578180D01*
X865049Y576571D01*
X863440Y574473D01*
X862428Y572031D01*
X862083Y569410D01*
X862428Y566789D01*
X863440Y564347D01*
X865049Y562249D01*
X867147Y560640D01*
X869589Y559628D01*
X872210Y559283D01*
X874831Y559628D01*
X877273Y560640D01*
X879371Y562249D01*
X880980Y564347D01*
X881992Y566789D01*
X882337Y569410D01*
X881992Y572031D01*
X881503Y573210D01*
X890209Y581915D01*
X953762D01*
X954248Y580742D01*
X952210Y578703D01*
X951031Y579192D01*
X948410Y579537D01*
X945789Y579192D01*
X943347Y578180D01*
X941249Y576571D01*
X939640Y574473D01*
X938628Y572031D01*
X938283Y569410D01*
X938628Y566789D01*
X939640Y564347D01*
X941249Y562249D01*
X943347Y560640D01*
X945789Y559628D01*
X948410Y559283D01*
X951031Y559628D01*
X953473Y560640D01*
X955571Y562249D01*
X957180Y564347D01*
X958192Y566789D01*
X958537Y569410D01*
X958192Y572031D01*
X957703Y573210D01*
X961329Y576835D01*
X965252D01*
X965878Y575565D01*
X965040Y574473D01*
X964028Y572031D01*
X963683Y569410D01*
X964028Y566789D01*
X965040Y564347D01*
X966649Y562249D01*
X968747Y560640D01*
X969925Y560152D01*
Y490810D01*
X970221Y489323D01*
X971063Y488063D01*
X981925Y477201D01*
Y475664D01*
X980655Y475213D01*
X978873Y476580D01*
X976431Y477592D01*
X973810Y477937D01*
X971189Y477592D01*
X968747Y476580D01*
X966649Y474971D01*
X965040Y472873D01*
X964028Y470431D01*
X963683Y467810D01*
X964028Y465189D01*
X965040Y462747D01*
X966649Y460649D01*
X968747Y459040D01*
X971189Y458028D01*
X973810Y457683D01*
X976431Y458028D01*
X978873Y459040D01*
X980971Y460649D01*
X981922Y461890D01*
X982103Y461981D01*
X983575Y461957D01*
X992468Y453063D01*
X993729Y452221D01*
X995215Y451925D01*
X1001781D01*
X1008767Y444940D01*
X1008359Y443737D01*
X1007450Y443617D01*
X1005251Y442706D01*
X1003363Y441257D01*
X1001914Y439369D01*
X1001003Y437170D01*
X1000692Y434810D01*
X1001003Y432450D01*
X1001914Y430251D01*
X1003363Y428363D01*
X1005251Y426914D01*
X1007450Y426003D01*
X1009810Y425692D01*
X1012170Y426003D01*
X1014369Y426914D01*
X1015096Y427472D01*
X1016235Y426910D01*
Y417310D01*
X1015096Y416748D01*
X1014369Y417306D01*
X1012170Y418217D01*
X1009810Y418528D01*
X1007450Y418217D01*
X1005251Y417306D01*
X1003363Y415857D01*
X1001914Y413969D01*
X1001003Y411770D01*
X1000692Y409410D01*
X1001003Y407050D01*
X1001914Y404851D01*
X1003363Y402963D01*
X1005251Y401514D01*
X1007450Y400603D01*
X1009810Y400292D01*
X1012170Y400603D01*
X1014369Y401514D01*
X1015033Y402023D01*
X1016172Y401462D01*
Y387566D01*
X1014062Y385455D01*
X1013639Y385630D01*
X1011410Y385924D01*
X1009181Y385630D01*
X1007103Y384770D01*
X1005319Y383401D01*
X1003950Y381617D01*
X1003090Y379539D01*
X1002796Y377310D01*
Y364310D01*
X1003090Y362081D01*
X1003950Y360003D01*
X1005319Y358219D01*
X1007103Y356850D01*
X1009181Y355990D01*
X1011410Y355696D01*
X1013639Y355990D01*
X1015717Y356850D01*
X1017501Y358219D01*
X1018870Y360003D01*
X1019730Y362081D01*
X1020024Y364310D01*
Y377310D01*
X1019730Y379539D01*
X1019555Y379962D01*
X1022804Y383210D01*
X1023131Y383699D01*
X1024728Y383898D01*
X1028665Y379962D01*
X1028490Y379539D01*
X1028196Y377310D01*
Y364310D01*
X1028490Y362081D01*
X1029350Y360003D01*
X1030719Y358219D01*
X1032503Y356850D01*
X1034581Y355990D01*
X1036810Y355696D01*
X1039039Y355990D01*
X1041117Y356850D01*
X1041596Y357218D01*
X1042735Y356656D01*
Y313329D01*
X1039056Y309650D01*
X1027470D01*
Y279747D01*
X1024467D01*
X1018755Y285458D01*
X1018930Y285881D01*
X1019224Y288110D01*
Y301110D01*
X1018930Y303339D01*
X1018070Y305417D01*
X1016701Y307201D01*
X1014917Y308570D01*
X1012839Y309430D01*
X1010610Y309724D01*
X1008381Y309430D01*
X1006303Y308570D01*
X1004519Y307201D01*
X1003150Y305417D01*
X1002290Y303339D01*
X1001996Y301110D01*
Y288110D01*
X1002290Y285881D01*
X1003150Y283803D01*
X1004519Y282019D01*
X1006303Y280650D01*
X1008381Y279790D01*
X1010610Y279496D01*
X1012839Y279790D01*
X1013262Y279965D01*
X1020111Y273115D01*
X1021371Y272273D01*
X1022858Y271977D01*
X1043362D01*
X1044849Y272273D01*
X1046109Y273115D01*
X1054447Y281453D01*
X1055289Y282713D01*
X1055585Y284200D01*
Y359098D01*
X1056855Y359351D01*
X1057414Y358001D01*
X1058863Y356113D01*
X1060751Y354664D01*
X1062950Y353753D01*
X1065310Y353442D01*
X1067670Y353753D01*
X1069869Y354664D01*
X1071757Y356113D01*
X1073206Y358001D01*
X1074117Y360200D01*
X1074428Y362560D01*
X1074117Y364920D01*
X1073206Y367119D01*
X1071757Y369007D01*
X1069869Y370456D01*
X1067670Y371367D01*
X1065310Y371678D01*
X1062950Y371367D01*
X1060751Y370456D01*
X1058863Y369007D01*
X1057414Y367119D01*
X1056855Y365770D01*
X1055585Y366022D01*
Y384498D01*
X1056855Y384751D01*
X1057414Y383401D01*
X1058863Y381513D01*
X1060751Y380064D01*
X1062950Y379153D01*
X1065310Y378842D01*
X1067670Y379153D01*
X1069869Y380064D01*
X1071757Y381513D01*
X1073206Y383401D01*
X1074117Y385600D01*
X1074428Y387960D01*
X1074117Y390320D01*
X1073206Y392519D01*
X1071757Y394407D01*
X1069869Y395856D01*
X1067670Y396767D01*
X1065310Y397078D01*
X1062950Y396767D01*
X1060751Y395856D01*
X1058863Y394407D01*
X1057414Y392519D01*
X1056503Y390320D01*
X1056197Y388001D01*
X1056104Y387948D01*
X1054934Y387784D01*
X1048021Y400322D01*
X1049005Y401168D01*
X1049497Y400790D01*
X1051939Y399778D01*
X1054560Y399433D01*
X1057560D01*
X1060181Y399778D01*
X1062623Y400790D01*
X1064721Y402399D01*
X1066330Y404497D01*
X1067342Y406939D01*
X1067687Y409560D01*
X1067342Y412181D01*
X1066330Y414623D01*
X1064721Y416721D01*
X1062623Y418330D01*
X1061313Y418873D01*
Y420247D01*
X1062623Y420790D01*
X1064721Y422399D01*
X1066330Y424497D01*
X1067342Y426939D01*
X1067520Y428290D01*
X1056060D01*
X1044601D01*
X1044779Y426939D01*
X1045790Y424497D01*
X1047399Y422399D01*
X1049497Y420790D01*
X1050807Y420247D01*
Y418873D01*
X1049497Y418330D01*
X1047399Y416721D01*
X1045790Y414623D01*
X1044778Y412181D01*
X1044433Y409560D01*
X1044451Y409426D01*
X1043223Y409022D01*
X1041135Y412810D01*
Y469370D01*
X1040839Y470857D01*
X1039997Y472117D01*
X1016695Y495419D01*
Y573810D01*
X1016399Y575297D01*
X1015557Y576557D01*
X1003567Y588547D01*
X1002307Y589389D01*
X1000820Y589685D01*
D02*
G37*
G36*
X923010Y579537D02*
X920389Y579192D01*
X917947Y578180D01*
X915849Y576571D01*
X914240Y574473D01*
X913228Y572031D01*
X912883Y569410D01*
X913228Y566789D01*
X914240Y564347D01*
X915849Y562249D01*
X917947Y560640D01*
X920389Y559628D01*
X923010Y559283D01*
X925631Y559628D01*
X928073Y560640D01*
X930171Y562249D01*
X931780Y564347D01*
X932792Y566789D01*
X933137Y569410D01*
X932792Y572031D01*
X931780Y574473D01*
X930171Y576571D01*
X928073Y578180D01*
X925631Y579192D01*
X923010Y579537D01*
D02*
G37*
G36*
X897610D02*
X894989Y579192D01*
X892547Y578180D01*
X890449Y576571D01*
X888840Y574473D01*
X887828Y572031D01*
X887483Y569410D01*
X887828Y566789D01*
X888840Y564347D01*
X890449Y562249D01*
X892547Y560640D01*
X894989Y559628D01*
X897610Y559283D01*
X900231Y559628D01*
X902673Y560640D01*
X904771Y562249D01*
X906380Y564347D01*
X907392Y566789D01*
X907737Y569410D01*
X907392Y572031D01*
X906380Y574473D01*
X904771Y576571D01*
X902673Y578180D01*
X900231Y579192D01*
X897610Y579537D01*
D02*
G37*
G36*
X803080Y533265D02*
Y525080D01*
X811265D01*
X811104Y526301D01*
X810143Y528621D01*
X808614Y530614D01*
X806621Y532143D01*
X804300Y533105D01*
X803080Y533265D01*
D02*
G37*
G36*
X800540D02*
X799320Y533105D01*
X796999Y532143D01*
X795006Y530614D01*
X793477Y528621D01*
X792516Y526301D01*
X792355Y525080D01*
X800540D01*
Y533265D01*
D02*
G37*
G36*
X755080Y545335D02*
Y519080D01*
X781335D01*
X781095Y522132D01*
X780083Y526347D01*
X778424Y530352D01*
X776159Y534048D01*
X773344Y537344D01*
X770048Y540159D01*
X766352Y542424D01*
X762347Y544083D01*
X758131Y545095D01*
X755080Y545335D01*
D02*
G37*
G36*
X1125080D02*
Y519080D01*
X1151335D01*
X1151095Y522132D01*
X1150083Y526347D01*
X1148424Y530352D01*
X1146159Y534048D01*
X1143344Y537344D01*
X1140048Y540159D01*
X1136352Y542424D01*
X1132347Y544083D01*
X1128131Y545095D01*
X1125080Y545335D01*
D02*
G37*
G36*
X1122540D02*
X1119489Y545095D01*
X1115273Y544083D01*
X1111268Y542424D01*
X1107572Y540159D01*
X1104276Y537344D01*
X1101461Y534048D01*
X1099196Y530352D01*
X1097537Y526347D01*
X1096525Y522132D01*
X1096285Y519080D01*
X1122540D01*
Y545335D01*
D02*
G37*
G36*
X811265Y522540D02*
X803080D01*
Y514355D01*
X804300Y514516D01*
X806621Y515477D01*
X808614Y517006D01*
X810143Y518999D01*
X811104Y521320D01*
X811265Y522540D01*
D02*
G37*
G36*
X800540D02*
X792355D01*
X792516Y521320D01*
X793477Y518999D01*
X795006Y517006D01*
X796999Y515477D01*
X799320Y514516D01*
X800540Y514355D01*
Y522540D01*
D02*
G37*
G36*
X1163060Y500473D02*
X1160580D01*
Y491580D01*
X1169473D01*
Y494060D01*
X1168985Y496514D01*
X1167595Y498595D01*
X1165514Y499985D01*
X1163060Y500473D01*
D02*
G37*
G36*
X1158040D02*
X1155560D01*
X1153106Y499985D01*
X1151025Y498595D01*
X1149635Y496514D01*
X1149147Y494060D01*
Y491580D01*
X1158040D01*
Y500473D01*
D02*
G37*
G36*
X1151335Y516540D02*
X1125080D01*
Y490285D01*
X1128131Y490525D01*
X1132347Y491537D01*
X1136352Y493196D01*
X1140048Y495461D01*
X1143344Y498276D01*
X1146159Y501572D01*
X1148424Y505269D01*
X1150083Y509273D01*
X1151095Y513489D01*
X1151335Y516540D01*
D02*
G37*
G36*
X781335Y516540D02*
X755080D01*
Y490285D01*
X758131Y490525D01*
X762347Y491537D01*
X766352Y493196D01*
X770048Y495461D01*
X773344Y498276D01*
X776159Y501572D01*
X778424Y505269D01*
X780083Y509273D01*
X781095Y513489D01*
X781335Y516540D01*
D02*
G37*
G36*
X1122540Y516540D02*
X1096285D01*
X1096525Y513489D01*
X1097537Y509273D01*
X1099196Y505269D01*
X1101461Y501572D01*
X1104276Y498276D01*
X1107572Y495461D01*
X1111268Y493196D01*
X1115273Y491537D01*
X1119489Y490525D01*
X1122540Y490285D01*
Y516540D01*
D02*
G37*
G36*
X1169473Y489040D02*
X1160580D01*
Y480147D01*
X1163060D01*
X1165514Y480635D01*
X1167595Y482025D01*
X1168985Y484106D01*
X1169473Y486560D01*
Y489040D01*
D02*
G37*
G36*
X1158040D02*
X1149147D01*
Y486560D01*
X1149635Y484106D01*
X1151025Y482025D01*
X1153106Y480635D01*
X1155560Y480147D01*
X1158040D01*
Y489040D01*
D02*
G37*
G36*
X752560Y483473D02*
X750080D01*
Y474580D01*
X758973D01*
Y477060D01*
X758485Y479514D01*
X757095Y481595D01*
X755014Y482985D01*
X752560Y483473D01*
D02*
G37*
G36*
X747540D02*
X745060D01*
X742606Y482985D01*
X740525Y481595D01*
X739135Y479514D01*
X738647Y477060D01*
Y474580D01*
X747540D01*
Y483473D01*
D02*
G37*
G36*
X801810Y483432D02*
X799320Y483104D01*
X796999Y482143D01*
X795006Y480614D01*
X793477Y478621D01*
X792516Y476300D01*
X792188Y473810D01*
X792516Y471320D01*
X793477Y468999D01*
X795006Y467006D01*
X796999Y465477D01*
X799320Y464516D01*
X801810Y464188D01*
X804300Y464516D01*
X806621Y465477D01*
X808614Y467006D01*
X810143Y468999D01*
X811104Y471320D01*
X811432Y473810D01*
X811104Y476300D01*
X810143Y478621D01*
X808614Y480614D01*
X806621Y482143D01*
X804300Y483104D01*
X801810Y483432D01*
D02*
G37*
G36*
X779560Y483973D02*
X772060D01*
X769606Y483485D01*
X767525Y482095D01*
X766135Y480014D01*
X765647Y477560D01*
Y470060D01*
X766135Y467606D01*
X767525Y465525D01*
X769606Y464135D01*
X772060Y463647D01*
X779560D01*
X782014Y464135D01*
X784095Y465525D01*
X785485Y467606D01*
X785973Y470060D01*
Y477560D01*
X785485Y480014D01*
X784095Y482095D01*
X782014Y483485D01*
X779560Y483973D01*
D02*
G37*
G36*
X758973Y472040D02*
X750080D01*
Y463147D01*
X752560D01*
X755014Y463635D01*
X757095Y465025D01*
X758485Y467106D01*
X758973Y469560D01*
Y472040D01*
D02*
G37*
G36*
X747540D02*
X738647D01*
Y469560D01*
X739135Y467106D01*
X740525Y465025D01*
X742606Y463635D01*
X745060Y463147D01*
X747540D01*
Y472040D01*
D02*
G37*
G36*
X948410Y477937D02*
X945789Y477592D01*
X943347Y476580D01*
X941249Y474971D01*
X939640Y472873D01*
X938628Y470431D01*
X938283Y467810D01*
X938628Y465189D01*
X939640Y462747D01*
X941249Y460649D01*
X943347Y459040D01*
X945789Y458028D01*
X948410Y457683D01*
X951031Y458028D01*
X953473Y459040D01*
X955571Y460649D01*
X957180Y462747D01*
X958192Y465189D01*
X958537Y467810D01*
X958192Y470431D01*
X957180Y472873D01*
X955571Y474971D01*
X953473Y476580D01*
X951031Y477592D01*
X948410Y477937D01*
D02*
G37*
G36*
X923010D02*
X920389Y477592D01*
X917947Y476580D01*
X915849Y474971D01*
X914240Y472873D01*
X913228Y470431D01*
X912883Y467810D01*
X913228Y465189D01*
X914240Y462747D01*
X915849Y460649D01*
X917947Y459040D01*
X920389Y458028D01*
X923010Y457683D01*
X925631Y458028D01*
X928073Y459040D01*
X930171Y460649D01*
X931780Y462747D01*
X932792Y465189D01*
X933137Y467810D01*
X932792Y470431D01*
X931780Y472873D01*
X930171Y474971D01*
X928073Y476580D01*
X925631Y477592D01*
X923010Y477937D01*
D02*
G37*
G36*
X897610D02*
X894989Y477592D01*
X892547Y476580D01*
X890449Y474971D01*
X888840Y472873D01*
X887828Y470431D01*
X887483Y467810D01*
X887828Y465189D01*
X888840Y462747D01*
X890449Y460649D01*
X892547Y459040D01*
X894989Y458028D01*
X897610Y457683D01*
X900231Y458028D01*
X902673Y459040D01*
X904771Y460649D01*
X906380Y462747D01*
X907392Y465189D01*
X907737Y467810D01*
X907392Y470431D01*
X906380Y472873D01*
X904771Y474971D01*
X902673Y476580D01*
X900231Y477592D01*
X897610Y477937D01*
D02*
G37*
G36*
X872210D02*
X869589Y477592D01*
X867147Y476580D01*
X865049Y474971D01*
X863440Y472873D01*
X862428Y470431D01*
X862083Y467810D01*
X862428Y465189D01*
X863440Y462747D01*
X865049Y460649D01*
X867147Y459040D01*
X869589Y458028D01*
X872210Y457683D01*
X874831Y458028D01*
X877273Y459040D01*
X879371Y460649D01*
X880980Y462747D01*
X881992Y465189D01*
X882337Y467810D01*
X881992Y470431D01*
X880980Y472873D01*
X879371Y474971D01*
X877273Y476580D01*
X874831Y477592D01*
X872210Y477937D01*
D02*
G37*
G36*
X1108810Y474932D02*
X1106320Y474604D01*
X1103999Y473643D01*
X1102006Y472114D01*
X1100477Y470121D01*
X1099516Y467800D01*
X1099188Y465310D01*
X1099516Y462820D01*
X1100477Y460499D01*
X1102006Y458506D01*
X1103999Y456977D01*
X1106320Y456016D01*
X1108810Y455688D01*
X1111300Y456016D01*
X1113621Y456977D01*
X1115614Y458506D01*
X1117143Y460499D01*
X1118104Y462820D01*
X1118432Y465310D01*
X1118104Y467800D01*
X1117143Y470121D01*
X1115614Y472114D01*
X1113621Y473643D01*
X1111300Y474604D01*
X1108810Y474932D01*
D02*
G37*
G36*
X1158810Y474932D02*
X1156320Y474604D01*
X1153999Y473643D01*
X1152006Y472114D01*
X1150477Y470121D01*
X1149516Y467800D01*
X1149188Y465310D01*
X1149516Y462820D01*
X1150477Y460499D01*
X1152006Y458506D01*
X1153999Y456977D01*
X1156320Y456016D01*
X1158810Y455688D01*
X1161300Y456016D01*
X1163621Y456977D01*
X1165614Y458506D01*
X1167143Y460499D01*
X1168104Y462820D01*
X1168432Y465310D01*
X1168104Y467800D01*
X1167143Y470121D01*
X1165614Y472114D01*
X1163621Y473643D01*
X1161300Y474604D01*
X1158810Y474932D01*
D02*
G37*
G36*
X1135230Y447511D02*
Y439830D01*
X1142911D01*
X1142767Y440920D01*
X1141856Y443119D01*
X1140407Y445007D01*
X1138519Y446456D01*
X1136320Y447367D01*
X1135230Y447511D01*
D02*
G37*
G36*
X1132690Y447511D02*
X1131600Y447367D01*
X1129401Y446456D01*
X1127513Y445007D01*
X1126064Y443119D01*
X1125153Y440920D01*
X1125009Y439830D01*
X1132690D01*
Y447511D01*
D02*
G37*
G36*
X776210Y453141D02*
X773458Y452779D01*
X770894Y451717D01*
X768693Y450027D01*
X767003Y447826D01*
X765941Y445261D01*
X765579Y442510D01*
X765941Y439758D01*
X767003Y437195D01*
X768693Y434993D01*
X770894Y433303D01*
X773458Y432241D01*
X776210Y431879D01*
X778961Y432241D01*
X781525Y433303D01*
X783727Y434993D01*
X785417Y437195D01*
X786479Y439758D01*
X786841Y442510D01*
X786479Y445261D01*
X785417Y447826D01*
X783727Y450027D01*
X781525Y451717D01*
X778961Y452779D01*
X776210Y453141D01*
D02*
G37*
G36*
X752080Y440274D02*
Y431080D01*
X761274D01*
X761079Y432561D01*
X760017Y435126D01*
X758327Y437327D01*
X756125Y439017D01*
X753561Y440079D01*
X752080Y440274D01*
D02*
G37*
G36*
X749540Y440274D02*
X748058Y440079D01*
X745495Y439017D01*
X743293Y437327D01*
X741603Y435126D01*
X740541Y432561D01*
X740346Y431080D01*
X749540D01*
Y440274D01*
D02*
G37*
G36*
X1057560Y439687D02*
X1057330D01*
Y430830D01*
X1067520D01*
X1067342Y432181D01*
X1066330Y434623D01*
X1064721Y436721D01*
X1062623Y438330D01*
X1060181Y439342D01*
X1057560Y439687D01*
D02*
G37*
G36*
X1054790D02*
X1054560D01*
X1051939Y439342D01*
X1049497Y438330D01*
X1047399Y436721D01*
X1045790Y434623D01*
X1044779Y432181D01*
X1044601Y430830D01*
X1054790D01*
Y439687D01*
D02*
G37*
G36*
X1162810Y449973D02*
X1155310D01*
X1152856Y449485D01*
X1150775Y448095D01*
X1149385Y446014D01*
X1148897Y443560D01*
Y436060D01*
X1149385Y433606D01*
X1150775Y431525D01*
X1152856Y430135D01*
X1155310Y429647D01*
X1162810D01*
X1165264Y430135D01*
X1167345Y431525D01*
X1168735Y433606D01*
X1169223Y436060D01*
Y443560D01*
X1168735Y446014D01*
X1167345Y448095D01*
X1165264Y449485D01*
X1162810Y449973D01*
D02*
G37*
G36*
X1142911Y437290D02*
X1135230D01*
Y429609D01*
X1136320Y429753D01*
X1138519Y430664D01*
X1140407Y432113D01*
X1141856Y434001D01*
X1142767Y436200D01*
X1142911Y437290D01*
D02*
G37*
G36*
X1132690D02*
X1125009D01*
X1125153Y436200D01*
X1126064Y434001D01*
X1127513Y432113D01*
X1129401Y430664D01*
X1131600Y429753D01*
X1132690Y429609D01*
Y437290D01*
D02*
G37*
G36*
X1108560Y447678D02*
X1106200Y447367D01*
X1104001Y446456D01*
X1102113Y445007D01*
X1100664Y443119D01*
X1099753Y440920D01*
X1099442Y438560D01*
X1099753Y436200D01*
X1100664Y434001D01*
X1102113Y432113D01*
X1104001Y430664D01*
X1106200Y429753D01*
X1108560Y429442D01*
X1110920Y429753D01*
X1113119Y430664D01*
X1115007Y432113D01*
X1116456Y434001D01*
X1117367Y436200D01*
X1117678Y438560D01*
X1117367Y440920D01*
X1116456Y443119D01*
X1115007Y445007D01*
X1113119Y446456D01*
X1110920Y447367D01*
X1108560Y447678D01*
D02*
G37*
G36*
X980810Y443928D02*
X978450Y443617D01*
X976251Y442706D01*
X974363Y441257D01*
X972914Y439369D01*
X972003Y437170D01*
X971692Y434810D01*
X972003Y432450D01*
X972914Y430251D01*
X974363Y428363D01*
X976251Y426914D01*
X978450Y426003D01*
X980810Y425692D01*
X983170Y426003D01*
X985369Y426914D01*
X987257Y428363D01*
X988706Y430251D01*
X989617Y432450D01*
X989928Y434810D01*
X989617Y437170D01*
X988706Y439369D01*
X987257Y441257D01*
X985369Y442706D01*
X983170Y443617D01*
X980810Y443928D01*
D02*
G37*
G36*
X951810Y443328D02*
X949450Y443017D01*
X947251Y442106D01*
X945363Y440657D01*
X943914Y438769D01*
X943003Y436570D01*
X942692Y434210D01*
X943003Y431850D01*
X943914Y429651D01*
X945363Y427763D01*
X947251Y426314D01*
X949450Y425403D01*
X951810Y425092D01*
X954170Y425403D01*
X956369Y426314D01*
X958257Y427763D01*
X959706Y429651D01*
X960617Y431850D01*
X960928Y434210D01*
X960617Y436570D01*
X959706Y438769D01*
X958257Y440657D01*
X956369Y442106D01*
X954170Y443017D01*
X951810Y443328D01*
D02*
G37*
G36*
X840810Y442328D02*
X838450Y442017D01*
X836251Y441106D01*
X834363Y439657D01*
X832914Y437769D01*
X832003Y435570D01*
X831692Y433210D01*
X832003Y430850D01*
X832914Y428651D01*
X834363Y426763D01*
X836251Y425314D01*
X838450Y424403D01*
X840810Y424092D01*
X843170Y424403D01*
X845369Y425314D01*
X847257Y426763D01*
X848706Y428651D01*
X849617Y430850D01*
X849928Y433210D01*
X849617Y435570D01*
X848706Y437769D01*
X847257Y439657D01*
X845369Y441106D01*
X843170Y442017D01*
X840810Y442328D01*
D02*
G37*
G36*
X811810D02*
X809450Y442017D01*
X807251Y441106D01*
X805363Y439657D01*
X803914Y437769D01*
X803003Y435570D01*
X802692Y433210D01*
X803003Y430850D01*
X803914Y428651D01*
X805363Y426763D01*
X807251Y425314D01*
X809450Y424403D01*
X811810Y424092D01*
X814170Y424403D01*
X816369Y425314D01*
X818257Y426763D01*
X819706Y428651D01*
X820617Y430850D01*
X820928Y433210D01*
X820617Y435570D01*
X819706Y437769D01*
X818257Y439657D01*
X816369Y441106D01*
X814170Y442017D01*
X811810Y442328D01*
D02*
G37*
G36*
X868810Y440928D02*
X866450Y440617D01*
X864251Y439706D01*
X862363Y438257D01*
X860914Y436369D01*
X860003Y434170D01*
X859692Y431810D01*
X860003Y429450D01*
X860914Y427251D01*
X862363Y425363D01*
X864251Y423914D01*
X866450Y423003D01*
X868810Y422692D01*
X871170Y423003D01*
X873369Y423914D01*
X875257Y425363D01*
X876706Y427251D01*
X877617Y429450D01*
X877928Y431810D01*
X877617Y434170D01*
X876706Y436369D01*
X875257Y438257D01*
X873369Y439706D01*
X871170Y440617D01*
X868810Y440928D01*
D02*
G37*
G36*
X761274Y428540D02*
X752080D01*
Y419346D01*
X753561Y419541D01*
X756125Y420603D01*
X758327Y422293D01*
X760017Y424495D01*
X761079Y427058D01*
X761274Y428540D01*
D02*
G37*
G36*
X749540D02*
X740346D01*
X740541Y427058D01*
X741603Y424495D01*
X743293Y422293D01*
X745495Y420603D01*
X748058Y419541D01*
X749540Y419346D01*
Y428540D01*
D02*
G37*
G36*
X1159580Y424411D02*
Y416730D01*
X1167261D01*
X1167117Y417820D01*
X1166207Y420019D01*
X1164758Y421907D01*
X1162869Y423356D01*
X1160670Y424267D01*
X1159580Y424411D01*
D02*
G37*
G36*
X1157040Y424411D02*
X1155950Y424267D01*
X1153751Y423356D01*
X1151863Y421907D01*
X1150414Y420019D01*
X1149503Y417820D01*
X1149359Y416730D01*
X1157040D01*
Y424411D01*
D02*
G37*
G36*
X1167261Y414190D02*
X1159580D01*
Y406509D01*
X1160670Y406653D01*
X1162869Y407564D01*
X1164758Y409012D01*
X1166207Y410901D01*
X1167117Y413100D01*
X1167261Y414190D01*
D02*
G37*
G36*
X1157040D02*
X1149359D01*
X1149503Y413100D01*
X1150414Y410901D01*
X1151863Y409012D01*
X1153751Y407564D01*
X1155950Y406653D01*
X1157040Y406509D01*
Y414190D01*
D02*
G37*
G36*
X752218Y410393D02*
Y402208D01*
X760403D01*
X760243Y403428D01*
X759281Y405749D01*
X757752Y407742D01*
X755760Y409271D01*
X753439Y410233D01*
X752218Y410393D01*
D02*
G37*
G36*
X749678D02*
X748458Y410233D01*
X746137Y409271D01*
X744144Y407742D01*
X742615Y405749D01*
X741654Y403428D01*
X741493Y402208D01*
X749678D01*
Y410393D01*
D02*
G37*
G36*
X1108510Y423091D02*
X1105759Y422729D01*
X1103195Y421667D01*
X1100993Y419977D01*
X1099303Y417775D01*
X1098241Y415211D01*
X1097879Y412460D01*
X1098241Y409709D01*
X1099303Y407145D01*
X1100993Y404943D01*
X1103195Y403253D01*
X1105759Y402191D01*
X1108510Y401829D01*
X1111262Y402191D01*
X1113826Y403253D01*
X1116027Y404943D01*
X1117717Y407145D01*
X1118779Y409709D01*
X1119141Y412460D01*
X1118779Y415211D01*
X1117717Y417775D01*
X1116027Y419977D01*
X1113826Y421667D01*
X1111262Y422729D01*
X1108510Y423091D01*
D02*
G37*
G36*
X980810Y418528D02*
X978450Y418217D01*
X976251Y417306D01*
X974363Y415857D01*
X972914Y413969D01*
X972003Y411770D01*
X971692Y409410D01*
X972003Y407050D01*
X972914Y404851D01*
X974363Y402963D01*
X976251Y401514D01*
X978450Y400603D01*
X980810Y400292D01*
X983170Y400603D01*
X985369Y401514D01*
X987257Y402963D01*
X988706Y404851D01*
X989617Y407050D01*
X989928Y409410D01*
X989617Y411770D01*
X988706Y413969D01*
X987257Y415857D01*
X985369Y417306D01*
X983170Y418217D01*
X980810Y418528D01*
D02*
G37*
G36*
X840810Y416928D02*
X838450Y416617D01*
X836251Y415706D01*
X834363Y414257D01*
X832914Y412369D01*
X832003Y410170D01*
X831692Y407810D01*
X832003Y405450D01*
X832335Y404648D01*
X830863Y403176D01*
X830021Y401916D01*
X829725Y400429D01*
Y384944D01*
X829303Y384770D01*
X827519Y383401D01*
X826150Y381617D01*
X825290Y379539D01*
X824996Y377310D01*
Y364310D01*
X825290Y362081D01*
X826150Y360003D01*
X827519Y358219D01*
X829303Y356850D01*
X831381Y355990D01*
X833610Y355696D01*
X835839Y355990D01*
X837917Y356850D01*
X839701Y358219D01*
X841070Y360003D01*
X841930Y362081D01*
X842224Y364310D01*
Y377310D01*
X841930Y379539D01*
X841070Y381617D01*
X839701Y383401D01*
X837917Y384770D01*
X837495Y384944D01*
Y398024D01*
X837948Y398489D01*
X838703Y398969D01*
X840810Y398692D01*
X843170Y399003D01*
X845369Y399914D01*
X847257Y401363D01*
X848706Y403251D01*
X849617Y405450D01*
X849928Y407810D01*
X849617Y410170D01*
X848706Y412369D01*
X847257Y414257D01*
X845369Y415706D01*
X843170Y416617D01*
X840810Y416928D01*
D02*
G37*
G36*
X811810D02*
X809450Y416617D01*
X807251Y415706D01*
X805363Y414257D01*
X803914Y412369D01*
X803003Y410170D01*
X802692Y407810D01*
X803003Y405450D01*
X803914Y403251D01*
X805363Y401363D01*
X807251Y399914D01*
X809450Y399003D01*
X811810Y398692D01*
X814170Y399003D01*
X816369Y399914D01*
X818257Y401363D01*
X819706Y403251D01*
X820617Y405450D01*
X820928Y407810D01*
X820617Y410170D01*
X819706Y412369D01*
X818257Y414257D01*
X816369Y415706D01*
X814170Y416617D01*
X811810Y416928D01*
D02*
G37*
G36*
X760403Y399668D02*
X752218D01*
Y391483D01*
X753439Y391644D01*
X755760Y392605D01*
X757752Y394134D01*
X759281Y396127D01*
X760243Y398448D01*
X760403Y399668D01*
D02*
G37*
G36*
X749678D02*
X741493D01*
X741654Y398448D01*
X742615Y396127D01*
X744144Y394134D01*
X746137Y392605D01*
X748458Y391644D01*
X749678Y391483D01*
Y399668D01*
D02*
G37*
G36*
X868810Y415528D02*
X866450Y415217D01*
X864251Y414306D01*
X862363Y412857D01*
X860914Y410969D01*
X860003Y408770D01*
X859692Y406410D01*
X860003Y404050D01*
X860914Y401851D01*
X862363Y399963D01*
X864251Y398514D01*
X864935Y398230D01*
Y384963D01*
X863796Y384402D01*
X863317Y384770D01*
X861239Y385630D01*
X859010Y385924D01*
X856781Y385630D01*
X854703Y384770D01*
X852919Y383401D01*
X851550Y381617D01*
X850690Y379539D01*
X850396Y377310D01*
Y364310D01*
X850690Y362081D01*
X851550Y360003D01*
X852919Y358219D01*
X854703Y356850D01*
X856781Y355990D01*
X859010Y355696D01*
X861239Y355990D01*
X863317Y356850D01*
X863796Y357218D01*
X864935Y356656D01*
Y338729D01*
X835462Y309255D01*
X835039Y309430D01*
X832810Y309724D01*
X830581Y309430D01*
X828503Y308570D01*
X826719Y307201D01*
X825350Y305417D01*
X824490Y303339D01*
X824196Y301110D01*
Y288110D01*
X824490Y285881D01*
X825350Y283803D01*
X826719Y282019D01*
X828503Y280650D01*
X830581Y279790D01*
X832810Y279496D01*
X835039Y279790D01*
X837117Y280650D01*
X838901Y282019D01*
X840270Y283803D01*
X841130Y285881D01*
X841424Y288110D01*
Y301110D01*
X841130Y303339D01*
X840955Y303762D01*
X871567Y334373D01*
X872409Y335633D01*
X872705Y337120D01*
Y398238D01*
X873369Y398514D01*
X875257Y399963D01*
X876706Y401851D01*
X877617Y404050D01*
X877928Y406410D01*
X877617Y408770D01*
X876706Y410969D01*
X875257Y412857D01*
X873369Y414306D01*
X871170Y415217D01*
X868810Y415528D01*
D02*
G37*
G36*
X1158310Y399178D02*
X1155950Y398867D01*
X1153751Y397956D01*
X1151863Y396507D01*
X1150414Y394619D01*
X1149503Y392420D01*
X1149192Y390060D01*
X1149503Y387700D01*
X1150414Y385501D01*
X1151863Y383613D01*
X1153751Y382164D01*
X1155950Y381253D01*
X1158310Y380942D01*
X1160670Y381253D01*
X1162869Y382164D01*
X1164757Y383613D01*
X1166206Y385501D01*
X1167117Y387700D01*
X1167428Y390060D01*
X1167117Y392420D01*
X1166206Y394619D01*
X1164757Y396507D01*
X1162869Y397956D01*
X1160670Y398867D01*
X1158310Y399178D01*
D02*
G37*
G36*
X1095810Y397691D02*
X1093058Y397329D01*
X1090495Y396267D01*
X1088293Y394577D01*
X1086603Y392375D01*
X1085541Y389812D01*
X1085179Y387060D01*
X1085541Y384309D01*
X1086603Y381745D01*
X1088293Y379543D01*
X1090495Y377853D01*
X1093058Y376791D01*
X1095810Y376429D01*
X1098561Y376791D01*
X1101125Y377853D01*
X1103327Y379543D01*
X1105017Y381745D01*
X1106079Y384309D01*
X1106441Y387060D01*
X1106079Y389812D01*
X1105017Y392375D01*
X1103327Y394577D01*
X1101125Y396267D01*
X1098561Y397329D01*
X1095810Y397691D01*
D02*
G37*
G36*
X1121210Y397691D02*
X1118458Y397329D01*
X1115894Y396267D01*
X1113693Y394577D01*
X1112003Y392375D01*
X1110941Y389811D01*
X1110579Y387060D01*
X1110941Y384308D01*
X1112003Y381744D01*
X1113693Y379543D01*
X1115894Y377853D01*
X1118458Y376791D01*
X1121210Y376429D01*
X1123961Y376791D01*
X1126525Y377853D01*
X1128727Y379543D01*
X1130417Y381744D01*
X1131479Y384308D01*
X1131841Y387060D01*
X1131479Y389811D01*
X1130417Y392375D01*
X1128727Y394577D01*
X1126525Y396267D01*
X1123961Y397329D01*
X1121210Y397691D01*
D02*
G37*
G36*
X1158560Y376682D02*
X1156070Y376354D01*
X1153749Y375393D01*
X1151756Y373864D01*
X1150227Y371871D01*
X1149266Y369551D01*
X1148938Y367060D01*
X1149266Y364570D01*
X1150227Y362249D01*
X1151756Y360256D01*
X1153749Y358727D01*
X1156070Y357766D01*
X1158560Y357438D01*
X1161050Y357766D01*
X1163371Y358727D01*
X1165364Y360256D01*
X1166893Y362249D01*
X1167855Y364570D01*
X1168182Y367060D01*
X1167855Y369551D01*
X1166893Y371871D01*
X1165364Y373864D01*
X1163371Y375393D01*
X1161050Y376354D01*
X1158560Y376682D01*
D02*
G37*
G36*
X986010Y385924D02*
X983781Y385630D01*
X981703Y384770D01*
X979919Y383401D01*
X978550Y381617D01*
X977690Y379539D01*
X977396Y377310D01*
Y364310D01*
X977690Y362081D01*
X978550Y360003D01*
X979919Y358219D01*
X981703Y356850D01*
X983781Y355990D01*
X986010Y355696D01*
X988239Y355990D01*
X990317Y356850D01*
X992101Y358219D01*
X993470Y360003D01*
X994330Y362081D01*
X994624Y364310D01*
Y377310D01*
X994330Y379539D01*
X993470Y381617D01*
X992101Y383401D01*
X990317Y384770D01*
X988239Y385630D01*
X986010Y385924D01*
D02*
G37*
G36*
X790560Y360674D02*
X788331Y360380D01*
X786253Y359520D01*
X784469Y358151D01*
X783100Y356367D01*
X782835Y355727D01*
X774562Y355493D01*
X759564Y355068D01*
X759281Y355749D01*
X757752Y357742D01*
X755760Y359271D01*
X753439Y360233D01*
X750948Y360560D01*
X748458Y360233D01*
X746137Y359271D01*
X744144Y357742D01*
X742615Y355749D01*
X741654Y353428D01*
X741326Y350938D01*
X741654Y348448D01*
X742615Y346127D01*
X744144Y344134D01*
X746137Y342605D01*
X748458Y341644D01*
X750948Y341316D01*
X753439Y341644D01*
X755760Y342605D01*
X757752Y344134D01*
X759281Y346127D01*
X759768Y347302D01*
X774782Y347727D01*
X783015Y347960D01*
X783100Y347753D01*
X784469Y345969D01*
X786253Y344600D01*
X788331Y343740D01*
X790560Y343446D01*
X792789Y343740D01*
X794867Y344600D01*
X796651Y345969D01*
X798020Y347753D01*
X798880Y349831D01*
X799174Y352060D01*
X798880Y354289D01*
X798020Y356367D01*
X796651Y358151D01*
X794867Y359520D01*
X792789Y360380D01*
X790560Y360674D01*
D02*
G37*
G36*
X1137080Y358015D02*
Y349830D01*
X1145265D01*
X1145104Y351050D01*
X1144143Y353371D01*
X1142614Y355364D01*
X1140621Y356893D01*
X1138300Y357854D01*
X1137080Y358015D01*
D02*
G37*
G36*
X1134540D02*
X1133320Y357854D01*
X1130999Y356893D01*
X1129006Y355364D01*
X1127477Y353371D01*
X1126516Y351050D01*
X1126355Y349830D01*
X1134540D01*
Y358015D01*
D02*
G37*
G36*
X1145265Y347290D02*
X1137080D01*
Y339105D01*
X1138300Y339266D01*
X1140621Y340227D01*
X1142614Y341756D01*
X1144143Y343749D01*
X1145104Y346070D01*
X1145265Y347290D01*
D02*
G37*
G36*
X1134540D02*
X1126355D01*
X1126516Y346070D01*
X1127477Y343749D01*
X1129006Y341756D01*
X1130999Y340227D01*
X1133320Y339266D01*
X1134540Y339105D01*
Y347290D01*
D02*
G37*
G36*
X1085810Y358182D02*
X1083320Y357854D01*
X1080999Y356893D01*
X1079006Y355364D01*
X1077477Y353371D01*
X1076516Y351050D01*
X1076188Y348560D01*
X1076516Y346070D01*
X1077477Y343749D01*
X1079006Y341756D01*
X1080999Y340227D01*
X1083320Y339266D01*
X1085810Y338938D01*
X1088300Y339266D01*
X1090621Y340227D01*
X1092614Y341756D01*
X1094143Y343749D01*
X1095104Y346070D01*
X1095432Y348560D01*
X1095104Y351050D01*
X1094143Y353371D01*
X1092614Y355364D01*
X1090621Y356893D01*
X1088300Y357854D01*
X1085810Y358182D01*
D02*
G37*
G36*
X1130560Y326578D02*
X1128200Y326267D01*
X1126001Y325356D01*
X1124113Y323907D01*
X1122664Y322019D01*
X1121753Y319820D01*
X1121442Y317460D01*
X1121753Y315100D01*
X1122664Y312901D01*
X1124113Y311013D01*
X1126001Y309564D01*
X1128200Y308653D01*
X1130560Y308342D01*
X1132920Y308653D01*
X1135119Y309564D01*
X1137007Y311013D01*
X1138456Y312901D01*
X1139367Y315100D01*
X1139678Y317460D01*
X1139367Y319820D01*
X1138456Y322019D01*
X1137007Y323907D01*
X1135119Y325356D01*
X1132920Y326267D01*
X1130560Y326578D01*
D02*
G37*
G36*
X1080330Y328821D02*
X1077578Y328459D01*
X1075014Y327397D01*
X1072813Y325707D01*
X1071123Y323505D01*
X1070061Y320941D01*
X1069699Y318190D01*
X1070061Y315438D01*
X1071123Y312875D01*
X1072813Y310673D01*
X1075014Y308983D01*
X1077578Y307921D01*
X1080330Y307559D01*
X1083081Y307921D01*
X1085645Y308983D01*
X1087847Y310673D01*
X1089537Y312875D01*
X1090599Y315438D01*
X1090961Y318190D01*
X1090599Y320941D01*
X1089537Y323505D01*
X1087847Y325707D01*
X1085645Y327397D01*
X1083081Y328459D01*
X1080330Y328821D01*
D02*
G37*
G36*
X1158560Y326682D02*
X1156070Y326354D01*
X1153749Y325393D01*
X1151756Y323864D01*
X1150227Y321871D01*
X1149266Y319550D01*
X1148938Y317060D01*
X1149266Y314570D01*
X1150227Y312249D01*
X1151756Y310256D01*
X1153749Y308727D01*
X1156070Y307766D01*
X1158560Y307438D01*
X1161050Y307766D01*
X1163371Y308727D01*
X1165364Y310256D01*
X1166893Y312249D01*
X1167855Y314570D01*
X1168182Y317060D01*
X1167855Y319550D01*
X1166893Y321871D01*
X1165364Y323864D01*
X1163371Y325393D01*
X1161050Y326354D01*
X1158560Y326682D01*
D02*
G37*
G36*
X1105730Y316121D02*
X1102978Y315759D01*
X1100414Y314697D01*
X1098213Y313007D01*
X1096523Y310805D01*
X1095461Y308241D01*
X1095099Y305490D01*
X1095461Y302738D01*
X1096523Y300175D01*
X1098213Y297973D01*
X1100414Y296283D01*
X1102978Y295221D01*
X1105730Y294859D01*
X1108481Y295221D01*
X1111045Y296283D01*
X1113247Y297973D01*
X1114937Y300175D01*
X1115999Y302738D01*
X1116361Y305490D01*
X1115999Y308241D01*
X1114937Y310805D01*
X1113247Y313007D01*
X1111045Y314697D01*
X1108481Y315759D01*
X1105730Y316121D01*
D02*
G37*
G36*
X1081600Y303254D02*
Y294060D01*
X1090794D01*
X1090599Y295541D01*
X1089537Y298105D01*
X1087847Y300307D01*
X1085645Y301997D01*
X1083081Y303059D01*
X1081600Y303254D01*
D02*
G37*
G36*
X1079060Y303254D02*
X1077578Y303059D01*
X1075014Y301997D01*
X1072813Y300307D01*
X1071123Y298105D01*
X1070061Y295541D01*
X1069866Y294060D01*
X1079060D01*
Y303254D01*
D02*
G37*
G36*
X750810Y339432D02*
X748320Y339104D01*
X745999Y338143D01*
X744006Y336614D01*
X742477Y334621D01*
X741516Y332300D01*
X741188Y329810D01*
X741516Y327319D01*
X742477Y324999D01*
X744006Y323006D01*
X745999Y321477D01*
X748320Y320516D01*
X750810Y320188D01*
X753300Y320516D01*
X755621Y321477D01*
X757614Y323006D01*
X759143Y324999D01*
X759527Y325925D01*
X762001D01*
X782590Y305336D01*
X782240Y304489D01*
X781946Y302260D01*
X782240Y300031D01*
X783100Y297953D01*
X784469Y296169D01*
X786253Y294800D01*
X788331Y293940D01*
X790560Y293646D01*
X792789Y293940D01*
X794867Y294800D01*
X796651Y296169D01*
X798020Y297953D01*
X798880Y300031D01*
X799174Y302260D01*
X798880Y304489D01*
X798020Y306567D01*
X796651Y308351D01*
X794867Y309720D01*
X792789Y310580D01*
X790560Y310874D01*
X788333Y310581D01*
X766357Y332557D01*
X765097Y333399D01*
X763610Y333695D01*
X759527D01*
X759143Y334621D01*
X757614Y336614D01*
X755621Y338143D01*
X753300Y339104D01*
X750810Y339432D01*
D02*
G37*
G36*
X1130560Y301178D02*
X1128200Y300867D01*
X1126001Y299956D01*
X1124113Y298507D01*
X1122664Y296619D01*
X1121753Y294420D01*
X1121442Y292060D01*
X1121753Y289700D01*
X1122664Y287501D01*
X1124113Y285613D01*
X1126001Y284164D01*
X1128200Y283253D01*
X1130560Y282942D01*
X1132920Y283253D01*
X1135119Y284164D01*
X1137007Y285613D01*
X1138456Y287501D01*
X1139367Y289700D01*
X1139678Y292060D01*
X1139367Y294420D01*
X1138456Y296619D01*
X1137007Y298507D01*
X1135119Y299956D01*
X1132920Y300867D01*
X1130560Y301178D01*
D02*
G37*
G36*
X1079060Y291520D02*
X1069866D01*
X1070061Y290038D01*
X1071123Y287474D01*
X1072813Y285273D01*
X1075014Y283583D01*
X1077578Y282521D01*
X1079060Y282326D01*
Y291520D01*
D02*
G37*
G36*
X1090794D02*
X1081600D01*
Y282326D01*
X1083081Y282521D01*
X1085645Y283583D01*
X1087847Y285273D01*
X1089537Y287474D01*
X1090599Y290038D01*
X1090794Y291520D01*
D02*
G37*
G36*
X752080Y289265D02*
Y281080D01*
X760265D01*
X760104Y282300D01*
X759143Y284621D01*
X757614Y286614D01*
X755621Y288143D01*
X753300Y289104D01*
X752080Y289265D01*
D02*
G37*
G36*
X749540D02*
X748320Y289104D01*
X745999Y288143D01*
X744006Y286614D01*
X742477Y284621D01*
X741516Y282300D01*
X741355Y281080D01*
X749540D01*
Y289265D01*
D02*
G37*
G36*
X985210Y309724D02*
X982981Y309430D01*
X980903Y308570D01*
X979119Y307201D01*
X977750Y305417D01*
X976890Y303339D01*
X976596Y301110D01*
Y288110D01*
X976890Y285881D01*
X977750Y283803D01*
X979119Y282019D01*
X980903Y280650D01*
X982981Y279790D01*
X985210Y279496D01*
X987439Y279790D01*
X989517Y280650D01*
X991301Y282019D01*
X992670Y283803D01*
X993530Y285881D01*
X993824Y288110D01*
Y301110D01*
X993530Y303339D01*
X992670Y305417D01*
X991301Y307201D01*
X989517Y308570D01*
X987439Y309430D01*
X985210Y309724D01*
D02*
G37*
G36*
X760265Y278540D02*
X752080D01*
Y270355D01*
X753300Y270515D01*
X755621Y271477D01*
X757614Y273006D01*
X759143Y274999D01*
X760104Y277320D01*
X760265Y278540D01*
D02*
G37*
G36*
X749540D02*
X741355D01*
X741516Y277320D01*
X742477Y274999D01*
X744006Y273006D01*
X745999Y271477D01*
X748320Y270515D01*
X749540Y270355D01*
Y278540D01*
D02*
G37*
%LPD*%
G36*
X1008925Y563493D02*
Y496848D01*
X1007752Y496362D01*
X990445Y513669D01*
Y562365D01*
X991647Y562773D01*
X992049Y562249D01*
X994147Y560640D01*
X996589Y559628D01*
X999210Y559283D01*
X1001831Y559628D01*
X1004273Y560640D01*
X1006371Y562249D01*
X1007655Y563924D01*
X1008925Y563493D01*
D02*
G37*
G36*
X982675Y562385D02*
Y512060D01*
X982971Y510573D01*
X983813Y509313D01*
X1028285Y464841D01*
Y445874D01*
X1027015Y445348D01*
X1008459Y463904D01*
X1008992Y465189D01*
X1009337Y467810D01*
X1008992Y470431D01*
X1007980Y472873D01*
X1006371Y474971D01*
X1004273Y476580D01*
X1001831Y477592D01*
X999210Y477937D01*
X996589Y477592D01*
X994147Y476580D01*
X992049Y474971D01*
X990965Y473557D01*
X989695Y473988D01*
Y478810D01*
X989399Y480297D01*
X988557Y481557D01*
X977695Y492419D01*
Y560152D01*
X978873Y560640D01*
X980971Y562249D01*
X981405Y562816D01*
X982675Y562385D01*
D02*
G37*
%LPC*%
G36*
X534820Y589685D02*
X422600D01*
X421113Y589389D01*
X419853Y588547D01*
X410010Y578703D01*
X408831Y579192D01*
X406210Y579537D01*
X403589Y579192D01*
X401147Y578180D01*
X399049Y576571D01*
X397440Y574473D01*
X396428Y572031D01*
X396083Y569410D01*
X396428Y566789D01*
X397440Y564347D01*
X399049Y562249D01*
X401147Y560640D01*
X403589Y559628D01*
X406210Y559283D01*
X408831Y559628D01*
X411273Y560640D01*
X413371Y562249D01*
X414980Y564347D01*
X415992Y566789D01*
X416337Y569410D01*
X415992Y572031D01*
X415503Y573210D01*
X424209Y581915D01*
X487762D01*
X488248Y580742D01*
X486210Y578703D01*
X485031Y579192D01*
X482410Y579537D01*
X479789Y579192D01*
X477347Y578180D01*
X475249Y576571D01*
X473640Y574473D01*
X472628Y572031D01*
X472283Y569410D01*
X472628Y566789D01*
X473640Y564347D01*
X475249Y562249D01*
X477347Y560640D01*
X479789Y559628D01*
X482410Y559283D01*
X485031Y559628D01*
X487473Y560640D01*
X489571Y562249D01*
X491180Y564347D01*
X492192Y566789D01*
X492537Y569410D01*
X492192Y572031D01*
X491703Y573210D01*
X495329Y576835D01*
X499252D01*
X499878Y575565D01*
X499040Y574473D01*
X498028Y572031D01*
X497683Y569410D01*
X498028Y566789D01*
X499040Y564347D01*
X500649Y562249D01*
X502747Y560640D01*
X503925Y560152D01*
Y490810D01*
X504221Y489323D01*
X505063Y488063D01*
X515925Y477201D01*
Y475664D01*
X514655Y475213D01*
X512873Y476580D01*
X510431Y477592D01*
X507810Y477937D01*
X505189Y477592D01*
X502747Y476580D01*
X500649Y474971D01*
X499040Y472873D01*
X498028Y470431D01*
X497683Y467810D01*
X498028Y465189D01*
X499040Y462747D01*
X500649Y460649D01*
X502747Y459040D01*
X505189Y458028D01*
X507810Y457683D01*
X510431Y458028D01*
X512873Y459040D01*
X514971Y460649D01*
X515922Y461890D01*
X516103Y461981D01*
X517575Y461957D01*
X526468Y453063D01*
X527729Y452221D01*
X529215Y451925D01*
X535782D01*
X542767Y444940D01*
X542359Y443737D01*
X541450Y443617D01*
X539251Y442706D01*
X537363Y441257D01*
X535914Y439369D01*
X535003Y437170D01*
X534692Y434810D01*
X535003Y432450D01*
X535914Y430251D01*
X537363Y428363D01*
X539251Y426914D01*
X541450Y426003D01*
X543810Y425692D01*
X546170Y426003D01*
X548369Y426914D01*
X549096Y427472D01*
X550235Y426910D01*
Y417310D01*
X549096Y416748D01*
X548369Y417306D01*
X546170Y418217D01*
X543810Y418528D01*
X541450Y418217D01*
X539251Y417306D01*
X537363Y415857D01*
X535914Y413969D01*
X535003Y411770D01*
X534692Y409410D01*
X535003Y407050D01*
X535914Y404851D01*
X537363Y402963D01*
X539251Y401514D01*
X541450Y400603D01*
X543810Y400292D01*
X546170Y400603D01*
X548369Y401514D01*
X549033Y402023D01*
X550172Y401462D01*
Y387566D01*
X548062Y385455D01*
X547639Y385630D01*
X545410Y385924D01*
X543181Y385630D01*
X541103Y384770D01*
X539319Y383401D01*
X537950Y381617D01*
X537090Y379539D01*
X536796Y377310D01*
Y364310D01*
X537090Y362081D01*
X537950Y360003D01*
X539319Y358219D01*
X541103Y356850D01*
X543181Y355990D01*
X545410Y355696D01*
X547639Y355990D01*
X549717Y356850D01*
X551501Y358219D01*
X552870Y360003D01*
X553730Y362081D01*
X554024Y364310D01*
Y377310D01*
X553730Y379539D01*
X553555Y379962D01*
X556804Y383210D01*
X557131Y383699D01*
X558728Y383898D01*
X562665Y379962D01*
X562490Y379539D01*
X562196Y377310D01*
Y364310D01*
X562490Y362081D01*
X563350Y360003D01*
X564719Y358219D01*
X566503Y356850D01*
X568581Y355990D01*
X570810Y355696D01*
X573039Y355990D01*
X575117Y356850D01*
X575596Y357218D01*
X576735Y356656D01*
Y313329D01*
X573056Y309650D01*
X561470D01*
Y279747D01*
X558467D01*
X552755Y285458D01*
X552930Y285881D01*
X553224Y288110D01*
Y301110D01*
X552930Y303339D01*
X552070Y305417D01*
X550701Y307201D01*
X548917Y308570D01*
X546839Y309430D01*
X544610Y309724D01*
X542381Y309430D01*
X540303Y308570D01*
X538519Y307201D01*
X537150Y305417D01*
X536290Y303339D01*
X535996Y301110D01*
Y288110D01*
X536290Y285881D01*
X537150Y283803D01*
X538519Y282019D01*
X540303Y280650D01*
X542381Y279790D01*
X544610Y279496D01*
X546839Y279790D01*
X547262Y279965D01*
X554111Y273115D01*
X555371Y272273D01*
X556858Y271977D01*
X577362D01*
X578849Y272273D01*
X580109Y273115D01*
X588447Y281453D01*
X589289Y282713D01*
X589585Y284200D01*
Y359098D01*
X590855Y359351D01*
X591414Y358001D01*
X592863Y356113D01*
X594751Y354664D01*
X596950Y353753D01*
X599310Y353442D01*
X601670Y353753D01*
X603869Y354664D01*
X605757Y356113D01*
X607206Y358001D01*
X608117Y360200D01*
X608428Y362560D01*
X608117Y364920D01*
X607206Y367119D01*
X605757Y369007D01*
X603869Y370456D01*
X601670Y371367D01*
X599310Y371678D01*
X596950Y371367D01*
X594751Y370456D01*
X592863Y369007D01*
X591414Y367119D01*
X590855Y365770D01*
X589585Y366022D01*
Y384498D01*
X590855Y384751D01*
X591414Y383401D01*
X592863Y381513D01*
X594751Y380064D01*
X596950Y379153D01*
X599310Y378842D01*
X601670Y379153D01*
X603869Y380064D01*
X605757Y381513D01*
X607206Y383401D01*
X608117Y385600D01*
X608428Y387960D01*
X608117Y390320D01*
X607206Y392519D01*
X605757Y394407D01*
X603869Y395856D01*
X601670Y396767D01*
X599310Y397078D01*
X596950Y396767D01*
X594751Y395856D01*
X592863Y394407D01*
X591414Y392519D01*
X590503Y390320D01*
X590197Y388001D01*
X590103Y387948D01*
X588934Y387784D01*
X582021Y400322D01*
X583005Y401168D01*
X583497Y400790D01*
X585939Y399778D01*
X588560Y399433D01*
X591560D01*
X594181Y399778D01*
X596623Y400790D01*
X598721Y402399D01*
X600330Y404497D01*
X601342Y406939D01*
X601687Y409560D01*
X601342Y412181D01*
X600330Y414623D01*
X598721Y416721D01*
X596623Y418330D01*
X595313Y418873D01*
Y420247D01*
X596623Y420790D01*
X598721Y422399D01*
X600330Y424497D01*
X601342Y426939D01*
X601519Y428290D01*
X590060D01*
X578601D01*
X578778Y426939D01*
X579790Y424497D01*
X581399Y422399D01*
X583497Y420790D01*
X584807Y420247D01*
Y418873D01*
X583497Y418330D01*
X581399Y416721D01*
X579790Y414623D01*
X578778Y412181D01*
X578433Y409560D01*
X578451Y409426D01*
X577223Y409022D01*
X575135Y412810D01*
Y469370D01*
X574839Y470857D01*
X573997Y472117D01*
X550695Y495419D01*
Y573810D01*
X550399Y575297D01*
X549557Y576557D01*
X537567Y588547D01*
X536306Y589389D01*
X534820Y589685D01*
D02*
G37*
G36*
X457010Y579537D02*
X454389Y579192D01*
X451947Y578180D01*
X449849Y576571D01*
X448240Y574473D01*
X447228Y572031D01*
X446883Y569410D01*
X447228Y566789D01*
X448240Y564347D01*
X449849Y562249D01*
X451947Y560640D01*
X454389Y559628D01*
X457010Y559283D01*
X459631Y559628D01*
X462073Y560640D01*
X464171Y562249D01*
X465780Y564347D01*
X466791Y566789D01*
X467137Y569410D01*
X466791Y572031D01*
X465780Y574473D01*
X464171Y576571D01*
X462073Y578180D01*
X459631Y579192D01*
X457010Y579537D01*
D02*
G37*
G36*
X431610D02*
X428989Y579192D01*
X426547Y578180D01*
X424449Y576571D01*
X422840Y574473D01*
X421828Y572031D01*
X421483Y569410D01*
X421828Y566789D01*
X422840Y564347D01*
X424449Y562249D01*
X426547Y560640D01*
X428989Y559628D01*
X431610Y559283D01*
X434231Y559628D01*
X436673Y560640D01*
X438771Y562249D01*
X440380Y564347D01*
X441391Y566789D01*
X441737Y569410D01*
X441391Y572031D01*
X440380Y574473D01*
X438771Y576571D01*
X436673Y578180D01*
X434231Y579192D01*
X431610Y579537D01*
D02*
G37*
G36*
X337080Y533265D02*
Y525080D01*
X345265D01*
X345104Y526301D01*
X344143Y528621D01*
X342614Y530614D01*
X340621Y532143D01*
X338300Y533105D01*
X337080Y533265D01*
D02*
G37*
G36*
X334540D02*
X333320Y533105D01*
X330999Y532143D01*
X329006Y530614D01*
X327477Y528621D01*
X326516Y526301D01*
X326355Y525080D01*
X334540D01*
Y533265D01*
D02*
G37*
G36*
X289080Y545335D02*
Y519080D01*
X315335D01*
X315095Y522132D01*
X314083Y526347D01*
X312424Y530352D01*
X310159Y534048D01*
X307344Y537344D01*
X304048Y540159D01*
X300352Y542424D01*
X296347Y544083D01*
X292132Y545095D01*
X289080Y545335D01*
D02*
G37*
G36*
X659080D02*
Y519080D01*
X685335D01*
X685095Y522132D01*
X684083Y526347D01*
X682424Y530352D01*
X680159Y534048D01*
X677344Y537344D01*
X674048Y540159D01*
X670351Y542424D01*
X666347Y544083D01*
X662132Y545095D01*
X659080Y545335D01*
D02*
G37*
G36*
X656540D02*
X653488Y545095D01*
X649273Y544083D01*
X645268Y542424D01*
X641572Y540159D01*
X638276Y537344D01*
X635461Y534048D01*
X633196Y530352D01*
X631537Y526347D01*
X630525Y522132D01*
X630285Y519080D01*
X656540D01*
Y545335D01*
D02*
G37*
G36*
X345265Y522540D02*
X337080D01*
Y514355D01*
X338300Y514516D01*
X340621Y515477D01*
X342614Y517006D01*
X344143Y518999D01*
X345104Y521320D01*
X345265Y522540D01*
D02*
G37*
G36*
X334540D02*
X326355D01*
X326516Y521320D01*
X327477Y518999D01*
X329006Y517006D01*
X330999Y515477D01*
X333320Y514516D01*
X334540Y514355D01*
Y522540D01*
D02*
G37*
G36*
X697060Y500473D02*
X694580D01*
Y491580D01*
X703473D01*
Y494060D01*
X702985Y496514D01*
X701595Y498595D01*
X699514Y499985D01*
X697060Y500473D01*
D02*
G37*
G36*
X692040D02*
X689560D01*
X687106Y499985D01*
X685025Y498595D01*
X683635Y496514D01*
X683147Y494060D01*
Y491580D01*
X692040D01*
Y500473D01*
D02*
G37*
G36*
X685335Y516540D02*
X659080D01*
Y490285D01*
X662132Y490525D01*
X666347Y491537D01*
X670351Y493196D01*
X674048Y495461D01*
X677344Y498276D01*
X680159Y501572D01*
X682424Y505269D01*
X684083Y509273D01*
X685095Y513489D01*
X685335Y516540D01*
D02*
G37*
G36*
X315335Y516540D02*
X289080D01*
Y490285D01*
X292132Y490525D01*
X296347Y491537D01*
X300352Y493196D01*
X304048Y495461D01*
X307344Y498276D01*
X310159Y501572D01*
X312424Y505269D01*
X314083Y509273D01*
X315095Y513489D01*
X315335Y516540D01*
D02*
G37*
G36*
X656540Y516540D02*
X630285D01*
X630525Y513489D01*
X631537Y509273D01*
X633196Y505269D01*
X635461Y501572D01*
X638276Y498276D01*
X641572Y495461D01*
X645268Y493196D01*
X649273Y491537D01*
X653488Y490525D01*
X656540Y490285D01*
Y516540D01*
D02*
G37*
G36*
X703473Y489040D02*
X694580D01*
Y480147D01*
X697060D01*
X699514Y480635D01*
X701595Y482025D01*
X702985Y484106D01*
X703473Y486560D01*
Y489040D01*
D02*
G37*
G36*
X692040D02*
X683147D01*
Y486560D01*
X683635Y484106D01*
X685025Y482025D01*
X687106Y480635D01*
X689560Y480147D01*
X692040D01*
Y489040D01*
D02*
G37*
G36*
X286560Y483473D02*
X284080D01*
Y474580D01*
X292973D01*
Y477060D01*
X292485Y479514D01*
X291095Y481595D01*
X289014Y482985D01*
X286560Y483473D01*
D02*
G37*
G36*
X281540D02*
X279060D01*
X276606Y482985D01*
X274525Y481595D01*
X273135Y479514D01*
X272647Y477060D01*
Y474580D01*
X281540D01*
Y483473D01*
D02*
G37*
G36*
X335810Y483432D02*
X333320Y483104D01*
X330999Y482143D01*
X329006Y480614D01*
X327477Y478621D01*
X326516Y476300D01*
X326188Y473810D01*
X326516Y471320D01*
X327477Y468999D01*
X329006Y467006D01*
X330999Y465477D01*
X333320Y464516D01*
X335810Y464188D01*
X338300Y464516D01*
X340621Y465477D01*
X342614Y467006D01*
X344143Y468999D01*
X345104Y471320D01*
X345432Y473810D01*
X345104Y476300D01*
X344143Y478621D01*
X342614Y480614D01*
X340621Y482143D01*
X338300Y483104D01*
X335810Y483432D01*
D02*
G37*
G36*
X313560Y483973D02*
X306060D01*
X303606Y483485D01*
X301525Y482095D01*
X300135Y480014D01*
X299647Y477560D01*
Y470060D01*
X300135Y467606D01*
X301525Y465525D01*
X303606Y464135D01*
X306060Y463647D01*
X313560D01*
X316014Y464135D01*
X318095Y465525D01*
X319485Y467606D01*
X319973Y470060D01*
Y477560D01*
X319485Y480014D01*
X318095Y482095D01*
X316014Y483485D01*
X313560Y483973D01*
D02*
G37*
G36*
X292973Y472040D02*
X284080D01*
Y463147D01*
X286560D01*
X289014Y463635D01*
X291095Y465025D01*
X292485Y467106D01*
X292973Y469560D01*
Y472040D01*
D02*
G37*
G36*
X281540D02*
X272647D01*
Y469560D01*
X273135Y467106D01*
X274525Y465025D01*
X276606Y463635D01*
X279060Y463147D01*
X281540D01*
Y472040D01*
D02*
G37*
G36*
X482410Y477937D02*
X479789Y477592D01*
X477347Y476580D01*
X475249Y474971D01*
X473640Y472873D01*
X472628Y470431D01*
X472283Y467810D01*
X472628Y465189D01*
X473640Y462747D01*
X475249Y460649D01*
X477347Y459040D01*
X479789Y458028D01*
X482410Y457683D01*
X485031Y458028D01*
X487473Y459040D01*
X489571Y460649D01*
X491180Y462747D01*
X492192Y465189D01*
X492537Y467810D01*
X492192Y470431D01*
X491180Y472873D01*
X489571Y474971D01*
X487473Y476580D01*
X485031Y477592D01*
X482410Y477937D01*
D02*
G37*
G36*
X457010D02*
X454389Y477592D01*
X451947Y476580D01*
X449849Y474971D01*
X448240Y472873D01*
X447228Y470431D01*
X446883Y467810D01*
X447228Y465189D01*
X448240Y462747D01*
X449849Y460649D01*
X451947Y459040D01*
X454389Y458028D01*
X457010Y457683D01*
X459631Y458028D01*
X462073Y459040D01*
X464171Y460649D01*
X465780Y462747D01*
X466791Y465189D01*
X467137Y467810D01*
X466791Y470431D01*
X465780Y472873D01*
X464171Y474971D01*
X462073Y476580D01*
X459631Y477592D01*
X457010Y477937D01*
D02*
G37*
G36*
X431610D02*
X428989Y477592D01*
X426547Y476580D01*
X424449Y474971D01*
X422840Y472873D01*
X421828Y470431D01*
X421483Y467810D01*
X421828Y465189D01*
X422840Y462747D01*
X424449Y460649D01*
X426547Y459040D01*
X428989Y458028D01*
X431610Y457683D01*
X434231Y458028D01*
X436673Y459040D01*
X438771Y460649D01*
X440380Y462747D01*
X441391Y465189D01*
X441737Y467810D01*
X441391Y470431D01*
X440380Y472873D01*
X438771Y474971D01*
X436673Y476580D01*
X434231Y477592D01*
X431610Y477937D01*
D02*
G37*
G36*
X406210D02*
X403589Y477592D01*
X401147Y476580D01*
X399049Y474971D01*
X397440Y472873D01*
X396428Y470431D01*
X396083Y467810D01*
X396428Y465189D01*
X397440Y462747D01*
X399049Y460649D01*
X401147Y459040D01*
X403589Y458028D01*
X406210Y457683D01*
X408831Y458028D01*
X411273Y459040D01*
X413371Y460649D01*
X414980Y462747D01*
X415992Y465189D01*
X416337Y467810D01*
X415992Y470431D01*
X414980Y472873D01*
X413371Y474971D01*
X411273Y476580D01*
X408831Y477592D01*
X406210Y477937D01*
D02*
G37*
G36*
X642810Y474932D02*
X640320Y474604D01*
X637999Y473643D01*
X636006Y472114D01*
X634477Y470121D01*
X633516Y467800D01*
X633188Y465310D01*
X633516Y462820D01*
X634477Y460499D01*
X636006Y458506D01*
X637999Y456977D01*
X640320Y456016D01*
X642810Y455688D01*
X645300Y456016D01*
X647621Y456977D01*
X649614Y458506D01*
X651143Y460499D01*
X652104Y462820D01*
X652432Y465310D01*
X652104Y467800D01*
X651143Y470121D01*
X649614Y472114D01*
X647621Y473643D01*
X645300Y474604D01*
X642810Y474932D01*
D02*
G37*
G36*
X692810Y474932D02*
X690320Y474604D01*
X687999Y473643D01*
X686006Y472114D01*
X684477Y470121D01*
X683515Y467800D01*
X683188Y465310D01*
X683515Y462820D01*
X684477Y460499D01*
X686006Y458506D01*
X687999Y456977D01*
X690320Y456016D01*
X692810Y455688D01*
X695300Y456016D01*
X697621Y456977D01*
X699614Y458506D01*
X701143Y460499D01*
X702104Y462820D01*
X702432Y465310D01*
X702104Y467800D01*
X701143Y470121D01*
X699614Y472114D01*
X697621Y473643D01*
X695300Y474604D01*
X692810Y474932D01*
D02*
G37*
G36*
X669230Y447511D02*
Y439830D01*
X676911D01*
X676767Y440920D01*
X675856Y443119D01*
X674407Y445007D01*
X672519Y446456D01*
X670320Y447367D01*
X669230Y447511D01*
D02*
G37*
G36*
X666690Y447511D02*
X665600Y447367D01*
X663401Y446456D01*
X661513Y445007D01*
X660064Y443119D01*
X659153Y440920D01*
X659009Y439830D01*
X666690D01*
Y447511D01*
D02*
G37*
G36*
X310210Y453141D02*
X307458Y452779D01*
X304895Y451717D01*
X302693Y450027D01*
X301003Y447826D01*
X299941Y445261D01*
X299579Y442510D01*
X299941Y439758D01*
X301003Y437195D01*
X302693Y434993D01*
X304895Y433303D01*
X307458Y432241D01*
X310210Y431879D01*
X312962Y432241D01*
X315525Y433303D01*
X317727Y434993D01*
X319417Y437195D01*
X320479Y439758D01*
X320841Y442510D01*
X320479Y445261D01*
X319417Y447826D01*
X317727Y450027D01*
X315525Y451717D01*
X312962Y452779D01*
X310210Y453141D01*
D02*
G37*
G36*
X286080Y440274D02*
Y431080D01*
X295274D01*
X295079Y432561D01*
X294017Y435126D01*
X292327Y437327D01*
X290126Y439017D01*
X287561Y440079D01*
X286080Y440274D01*
D02*
G37*
G36*
X283540Y440274D02*
X282059Y440079D01*
X279494Y439017D01*
X277293Y437327D01*
X275603Y435126D01*
X274541Y432561D01*
X274346Y431080D01*
X283540D01*
Y440274D01*
D02*
G37*
G36*
X591560Y439687D02*
X591330D01*
Y430830D01*
X601519D01*
X601342Y432181D01*
X600330Y434623D01*
X598721Y436721D01*
X596623Y438330D01*
X594181Y439342D01*
X591560Y439687D01*
D02*
G37*
G36*
X588790D02*
X588560D01*
X585939Y439342D01*
X583497Y438330D01*
X581399Y436721D01*
X579790Y434623D01*
X578778Y432181D01*
X578601Y430830D01*
X588790D01*
Y439687D01*
D02*
G37*
G36*
X696810Y449973D02*
X689310D01*
X686856Y449485D01*
X684775Y448095D01*
X683385Y446014D01*
X682897Y443560D01*
Y436060D01*
X683385Y433606D01*
X684775Y431525D01*
X686856Y430135D01*
X689310Y429647D01*
X696810D01*
X699264Y430135D01*
X701345Y431525D01*
X702735Y433606D01*
X703223Y436060D01*
Y443560D01*
X702735Y446014D01*
X701345Y448095D01*
X699264Y449485D01*
X696810Y449973D01*
D02*
G37*
G36*
X676911Y437290D02*
X669230D01*
Y429609D01*
X670320Y429753D01*
X672519Y430664D01*
X674407Y432113D01*
X675856Y434001D01*
X676767Y436200D01*
X676911Y437290D01*
D02*
G37*
G36*
X666690D02*
X659009D01*
X659153Y436200D01*
X660064Y434001D01*
X661513Y432113D01*
X663401Y430664D01*
X665600Y429753D01*
X666690Y429609D01*
Y437290D01*
D02*
G37*
G36*
X642560Y447678D02*
X640200Y447367D01*
X638001Y446456D01*
X636113Y445007D01*
X634664Y443119D01*
X633753Y440920D01*
X633442Y438560D01*
X633753Y436200D01*
X634664Y434001D01*
X636113Y432113D01*
X638001Y430664D01*
X640200Y429753D01*
X642560Y429442D01*
X644920Y429753D01*
X647119Y430664D01*
X649007Y432113D01*
X650456Y434001D01*
X651367Y436200D01*
X651678Y438560D01*
X651367Y440920D01*
X650456Y443119D01*
X649007Y445007D01*
X647119Y446456D01*
X644920Y447367D01*
X642560Y447678D01*
D02*
G37*
G36*
X514810Y443928D02*
X512450Y443617D01*
X510251Y442706D01*
X508363Y441257D01*
X506914Y439369D01*
X506003Y437170D01*
X505692Y434810D01*
X506003Y432450D01*
X506914Y430251D01*
X508363Y428363D01*
X510251Y426914D01*
X512450Y426003D01*
X514810Y425692D01*
X517170Y426003D01*
X519369Y426914D01*
X521257Y428363D01*
X522706Y430251D01*
X523617Y432450D01*
X523928Y434810D01*
X523617Y437170D01*
X522706Y439369D01*
X521257Y441257D01*
X519369Y442706D01*
X517170Y443617D01*
X514810Y443928D01*
D02*
G37*
G36*
X485810Y443328D02*
X483450Y443017D01*
X481251Y442106D01*
X479363Y440657D01*
X477914Y438769D01*
X477003Y436570D01*
X476692Y434210D01*
X477003Y431850D01*
X477914Y429651D01*
X479363Y427763D01*
X481251Y426314D01*
X483450Y425403D01*
X485810Y425092D01*
X488170Y425403D01*
X490369Y426314D01*
X492257Y427763D01*
X493706Y429651D01*
X494617Y431850D01*
X494928Y434210D01*
X494617Y436570D01*
X493706Y438769D01*
X492257Y440657D01*
X490369Y442106D01*
X488170Y443017D01*
X485810Y443328D01*
D02*
G37*
G36*
X374810Y442328D02*
X372450Y442017D01*
X370251Y441106D01*
X368363Y439657D01*
X366914Y437769D01*
X366003Y435570D01*
X365692Y433210D01*
X366003Y430850D01*
X366914Y428651D01*
X368363Y426763D01*
X370251Y425314D01*
X372450Y424403D01*
X374810Y424092D01*
X377170Y424403D01*
X379369Y425314D01*
X381257Y426763D01*
X382706Y428651D01*
X383617Y430850D01*
X383928Y433210D01*
X383617Y435570D01*
X382706Y437769D01*
X381257Y439657D01*
X379369Y441106D01*
X377170Y442017D01*
X374810Y442328D01*
D02*
G37*
G36*
X345810D02*
X343450Y442017D01*
X341251Y441106D01*
X339363Y439657D01*
X337914Y437769D01*
X337003Y435570D01*
X336692Y433210D01*
X337003Y430850D01*
X337914Y428651D01*
X339363Y426763D01*
X341251Y425314D01*
X343450Y424403D01*
X345810Y424092D01*
X348170Y424403D01*
X350369Y425314D01*
X352257Y426763D01*
X353706Y428651D01*
X354617Y430850D01*
X354928Y433210D01*
X354617Y435570D01*
X353706Y437769D01*
X352257Y439657D01*
X350369Y441106D01*
X348170Y442017D01*
X345810Y442328D01*
D02*
G37*
G36*
X402810Y440928D02*
X400450Y440617D01*
X398251Y439706D01*
X396363Y438257D01*
X394914Y436369D01*
X394003Y434170D01*
X393692Y431810D01*
X394003Y429450D01*
X394914Y427251D01*
X396363Y425363D01*
X398251Y423914D01*
X400450Y423003D01*
X402810Y422692D01*
X405170Y423003D01*
X407369Y423914D01*
X409257Y425363D01*
X410706Y427251D01*
X411617Y429450D01*
X411928Y431810D01*
X411617Y434170D01*
X410706Y436369D01*
X409257Y438257D01*
X407369Y439706D01*
X405170Y440617D01*
X402810Y440928D01*
D02*
G37*
G36*
X295274Y428540D02*
X286080D01*
Y419346D01*
X287561Y419541D01*
X290126Y420603D01*
X292327Y422293D01*
X294017Y424495D01*
X295079Y427058D01*
X295274Y428540D01*
D02*
G37*
G36*
X283540D02*
X274346D01*
X274541Y427058D01*
X275603Y424495D01*
X277293Y422293D01*
X279494Y420603D01*
X282059Y419541D01*
X283540Y419346D01*
Y428540D01*
D02*
G37*
G36*
X693580Y424411D02*
Y416730D01*
X701261D01*
X701117Y417820D01*
X700207Y420019D01*
X698757Y421907D01*
X696869Y423356D01*
X694670Y424267D01*
X693580Y424411D01*
D02*
G37*
G36*
X691040Y424411D02*
X689950Y424267D01*
X687751Y423356D01*
X685863Y421907D01*
X684414Y420019D01*
X683503Y417820D01*
X683359Y416730D01*
X691040D01*
Y424411D01*
D02*
G37*
G36*
X701261Y414190D02*
X693580D01*
Y406509D01*
X694670Y406653D01*
X696869Y407564D01*
X698757Y409012D01*
X700207Y410901D01*
X701117Y413100D01*
X701261Y414190D01*
D02*
G37*
G36*
X691040D02*
X683359D01*
X683503Y413100D01*
X684414Y410901D01*
X685863Y409012D01*
X687751Y407564D01*
X689950Y406653D01*
X691040Y406509D01*
Y414190D01*
D02*
G37*
G36*
X286218Y410393D02*
Y402208D01*
X294403D01*
X294243Y403428D01*
X293281Y405749D01*
X291752Y407742D01*
X289760Y409271D01*
X287439Y410233D01*
X286218Y410393D01*
D02*
G37*
G36*
X283678D02*
X282458Y410233D01*
X280137Y409271D01*
X278144Y407742D01*
X276615Y405749D01*
X275654Y403428D01*
X275493Y402208D01*
X283678D01*
Y410393D01*
D02*
G37*
G36*
X642510Y423091D02*
X639758Y422729D01*
X637195Y421667D01*
X634993Y419977D01*
X633303Y417775D01*
X632241Y415211D01*
X631879Y412460D01*
X632241Y409709D01*
X633303Y407145D01*
X634993Y404943D01*
X637195Y403253D01*
X639758Y402191D01*
X642510Y401829D01*
X645262Y402191D01*
X647825Y403253D01*
X650027Y404943D01*
X651717Y407145D01*
X652779Y409709D01*
X653141Y412460D01*
X652779Y415211D01*
X651717Y417775D01*
X650027Y419977D01*
X647825Y421667D01*
X645262Y422729D01*
X642510Y423091D01*
D02*
G37*
G36*
X514810Y418528D02*
X512450Y418217D01*
X510251Y417306D01*
X508363Y415857D01*
X506914Y413969D01*
X506003Y411770D01*
X505692Y409410D01*
X506003Y407050D01*
X506914Y404851D01*
X508363Y402963D01*
X510251Y401514D01*
X512450Y400603D01*
X514810Y400292D01*
X517170Y400603D01*
X519369Y401514D01*
X521257Y402963D01*
X522706Y404851D01*
X523617Y407050D01*
X523928Y409410D01*
X523617Y411770D01*
X522706Y413969D01*
X521257Y415857D01*
X519369Y417306D01*
X517170Y418217D01*
X514810Y418528D01*
D02*
G37*
G36*
X374810Y416928D02*
X372450Y416617D01*
X370251Y415706D01*
X368363Y414257D01*
X366914Y412369D01*
X366003Y410170D01*
X365692Y407810D01*
X366003Y405450D01*
X366335Y404648D01*
X364863Y403176D01*
X364021Y401916D01*
X363725Y400429D01*
Y384944D01*
X363303Y384770D01*
X361519Y383401D01*
X360150Y381617D01*
X359290Y379539D01*
X358996Y377310D01*
Y364310D01*
X359290Y362081D01*
X360150Y360003D01*
X361519Y358219D01*
X363303Y356850D01*
X365381Y355990D01*
X367610Y355696D01*
X369839Y355990D01*
X371917Y356850D01*
X373701Y358219D01*
X375070Y360003D01*
X375930Y362081D01*
X376224Y364310D01*
Y377310D01*
X375930Y379539D01*
X375070Y381617D01*
X373701Y383401D01*
X371917Y384770D01*
X371495Y384944D01*
Y398024D01*
X371948Y398489D01*
X372703Y398969D01*
X374810Y398692D01*
X377170Y399003D01*
X379369Y399914D01*
X381257Y401363D01*
X382706Y403251D01*
X383617Y405450D01*
X383928Y407810D01*
X383617Y410170D01*
X382706Y412369D01*
X381257Y414257D01*
X379369Y415706D01*
X377170Y416617D01*
X374810Y416928D01*
D02*
G37*
G36*
X345810D02*
X343450Y416617D01*
X341251Y415706D01*
X339363Y414257D01*
X337914Y412369D01*
X337003Y410170D01*
X336692Y407810D01*
X337003Y405450D01*
X337914Y403251D01*
X339363Y401363D01*
X341251Y399914D01*
X343450Y399003D01*
X345810Y398692D01*
X348170Y399003D01*
X350369Y399914D01*
X352257Y401363D01*
X353706Y403251D01*
X354617Y405450D01*
X354928Y407810D01*
X354617Y410170D01*
X353706Y412369D01*
X352257Y414257D01*
X350369Y415706D01*
X348170Y416617D01*
X345810Y416928D01*
D02*
G37*
G36*
X294403Y399668D02*
X286218D01*
Y391483D01*
X287439Y391644D01*
X289760Y392605D01*
X291752Y394134D01*
X293281Y396127D01*
X294243Y398448D01*
X294403Y399668D01*
D02*
G37*
G36*
X283678D02*
X275493D01*
X275654Y398448D01*
X276615Y396127D01*
X278144Y394134D01*
X280137Y392605D01*
X282458Y391644D01*
X283678Y391483D01*
Y399668D01*
D02*
G37*
G36*
X402810Y415528D02*
X400450Y415217D01*
X398251Y414306D01*
X396363Y412857D01*
X394914Y410969D01*
X394003Y408770D01*
X393692Y406410D01*
X394003Y404050D01*
X394914Y401851D01*
X396363Y399963D01*
X398251Y398514D01*
X398935Y398230D01*
Y384963D01*
X397796Y384402D01*
X397317Y384770D01*
X395239Y385630D01*
X393010Y385924D01*
X390781Y385630D01*
X388703Y384770D01*
X386919Y383401D01*
X385550Y381617D01*
X384690Y379539D01*
X384396Y377310D01*
Y364310D01*
X384690Y362081D01*
X385550Y360003D01*
X386919Y358219D01*
X388703Y356850D01*
X390781Y355990D01*
X393010Y355696D01*
X395239Y355990D01*
X397317Y356850D01*
X397796Y357218D01*
X398935Y356656D01*
Y338729D01*
X369462Y309255D01*
X369039Y309430D01*
X366810Y309724D01*
X364581Y309430D01*
X362503Y308570D01*
X360719Y307201D01*
X359350Y305417D01*
X358490Y303339D01*
X358196Y301110D01*
Y288110D01*
X358490Y285881D01*
X359350Y283803D01*
X360719Y282019D01*
X362503Y280650D01*
X364581Y279790D01*
X366810Y279496D01*
X369039Y279790D01*
X371117Y280650D01*
X372901Y282019D01*
X374270Y283803D01*
X375130Y285881D01*
X375424Y288110D01*
Y301110D01*
X375130Y303339D01*
X374955Y303762D01*
X405567Y334373D01*
X406409Y335633D01*
X406705Y337120D01*
Y398238D01*
X407369Y398514D01*
X409257Y399963D01*
X410706Y401851D01*
X411617Y404050D01*
X411928Y406410D01*
X411617Y408770D01*
X410706Y410969D01*
X409257Y412857D01*
X407369Y414306D01*
X405170Y415217D01*
X402810Y415528D01*
D02*
G37*
G36*
X692310Y399178D02*
X689950Y398867D01*
X687751Y397956D01*
X685863Y396507D01*
X684414Y394619D01*
X683503Y392420D01*
X683192Y390060D01*
X683503Y387700D01*
X684414Y385501D01*
X685863Y383613D01*
X687751Y382164D01*
X689950Y381253D01*
X692310Y380942D01*
X694670Y381253D01*
X696869Y382164D01*
X698757Y383613D01*
X700206Y385501D01*
X701117Y387700D01*
X701428Y390060D01*
X701117Y392420D01*
X700206Y394619D01*
X698757Y396507D01*
X696869Y397956D01*
X694670Y398867D01*
X692310Y399178D01*
D02*
G37*
G36*
X629810Y397691D02*
X627058Y397329D01*
X624495Y396267D01*
X622293Y394577D01*
X620603Y392375D01*
X619541Y389812D01*
X619179Y387060D01*
X619541Y384309D01*
X620603Y381745D01*
X622293Y379543D01*
X624495Y377853D01*
X627058Y376791D01*
X629810Y376429D01*
X632561Y376791D01*
X635126Y377853D01*
X637327Y379543D01*
X639017Y381745D01*
X640079Y384309D01*
X640441Y387060D01*
X640079Y389812D01*
X639017Y392375D01*
X637327Y394577D01*
X635126Y396267D01*
X632561Y397329D01*
X629810Y397691D01*
D02*
G37*
G36*
X655210Y397691D02*
X652458Y397329D01*
X649894Y396267D01*
X647693Y394577D01*
X646003Y392375D01*
X644941Y389811D01*
X644579Y387060D01*
X644941Y384308D01*
X646003Y381744D01*
X647693Y379543D01*
X649894Y377853D01*
X652458Y376791D01*
X655210Y376429D01*
X657962Y376791D01*
X660526Y377853D01*
X662727Y379543D01*
X664417Y381744D01*
X665479Y384308D01*
X665841Y387060D01*
X665479Y389811D01*
X664417Y392375D01*
X662727Y394577D01*
X660526Y396267D01*
X657962Y397329D01*
X655210Y397691D01*
D02*
G37*
G36*
X692560Y376682D02*
X690070Y376354D01*
X687749Y375393D01*
X685756Y373864D01*
X684227Y371871D01*
X683266Y369551D01*
X682938Y367060D01*
X683266Y364570D01*
X684227Y362249D01*
X685756Y360256D01*
X687749Y358727D01*
X690070Y357766D01*
X692560Y357438D01*
X695051Y357766D01*
X697371Y358727D01*
X699364Y360256D01*
X700893Y362249D01*
X701854Y364570D01*
X702182Y367060D01*
X701854Y369551D01*
X700893Y371871D01*
X699364Y373864D01*
X697371Y375393D01*
X695051Y376354D01*
X692560Y376682D01*
D02*
G37*
G36*
X520010Y385924D02*
X517781Y385630D01*
X515703Y384770D01*
X513919Y383401D01*
X512550Y381617D01*
X511690Y379539D01*
X511396Y377310D01*
Y364310D01*
X511690Y362081D01*
X512550Y360003D01*
X513919Y358219D01*
X515703Y356850D01*
X517781Y355990D01*
X520010Y355696D01*
X522239Y355990D01*
X524317Y356850D01*
X526101Y358219D01*
X527470Y360003D01*
X528330Y362081D01*
X528624Y364310D01*
Y377310D01*
X528330Y379539D01*
X527470Y381617D01*
X526101Y383401D01*
X524317Y384770D01*
X522239Y385630D01*
X520010Y385924D01*
D02*
G37*
G36*
X324560Y360674D02*
X322331Y360380D01*
X320253Y359520D01*
X318469Y358151D01*
X317100Y356367D01*
X316835Y355727D01*
X308562Y355493D01*
X293563Y355068D01*
X293281Y355749D01*
X291752Y357742D01*
X289760Y359271D01*
X287439Y360233D01*
X284948Y360560D01*
X282458Y360233D01*
X280137Y359271D01*
X278144Y357742D01*
X276615Y355749D01*
X275654Y353428D01*
X275326Y350938D01*
X275654Y348448D01*
X276615Y346127D01*
X278144Y344134D01*
X280137Y342605D01*
X282458Y341644D01*
X284948Y341316D01*
X287439Y341644D01*
X289760Y342605D01*
X291752Y344134D01*
X293281Y346127D01*
X293768Y347302D01*
X308782Y347727D01*
X317015Y347960D01*
X317100Y347753D01*
X318469Y345969D01*
X320253Y344600D01*
X322331Y343740D01*
X324560Y343446D01*
X326789Y343740D01*
X328867Y344600D01*
X330651Y345969D01*
X332020Y347753D01*
X332880Y349831D01*
X333174Y352060D01*
X332880Y354289D01*
X332020Y356367D01*
X330651Y358151D01*
X328867Y359520D01*
X326789Y360380D01*
X324560Y360674D01*
D02*
G37*
G36*
X671080Y358015D02*
Y349830D01*
X679265D01*
X679104Y351050D01*
X678143Y353371D01*
X676614Y355364D01*
X674621Y356893D01*
X672300Y357854D01*
X671080Y358015D01*
D02*
G37*
G36*
X668540D02*
X667319Y357854D01*
X664999Y356893D01*
X663006Y355364D01*
X661477Y353371D01*
X660516Y351050D01*
X660355Y349830D01*
X668540D01*
Y358015D01*
D02*
G37*
G36*
X679265Y347290D02*
X671080D01*
Y339105D01*
X672300Y339266D01*
X674621Y340227D01*
X676614Y341756D01*
X678143Y343749D01*
X679104Y346070D01*
X679265Y347290D01*
D02*
G37*
G36*
X668540D02*
X660355D01*
X660516Y346070D01*
X661477Y343749D01*
X663006Y341756D01*
X664999Y340227D01*
X667319Y339266D01*
X668540Y339105D01*
Y347290D01*
D02*
G37*
G36*
X619810Y358182D02*
X617319Y357854D01*
X614999Y356893D01*
X613006Y355364D01*
X611477Y353371D01*
X610516Y351050D01*
X610188Y348560D01*
X610516Y346070D01*
X611477Y343749D01*
X613006Y341756D01*
X614999Y340227D01*
X617319Y339266D01*
X619810Y338938D01*
X622300Y339266D01*
X624621Y340227D01*
X626614Y341756D01*
X628143Y343749D01*
X629104Y346070D01*
X629432Y348560D01*
X629104Y351050D01*
X628143Y353371D01*
X626614Y355364D01*
X624621Y356893D01*
X622300Y357854D01*
X619810Y358182D01*
D02*
G37*
G36*
X664560Y326578D02*
X662200Y326267D01*
X660001Y325356D01*
X658113Y323907D01*
X656664Y322019D01*
X655753Y319820D01*
X655442Y317460D01*
X655753Y315100D01*
X656664Y312901D01*
X658113Y311013D01*
X660001Y309564D01*
X662200Y308653D01*
X664560Y308342D01*
X666920Y308653D01*
X669119Y309564D01*
X671007Y311013D01*
X672456Y312901D01*
X673367Y315100D01*
X673678Y317460D01*
X673367Y319820D01*
X672456Y322019D01*
X671007Y323907D01*
X669119Y325356D01*
X666920Y326267D01*
X664560Y326578D01*
D02*
G37*
G36*
X614330Y328821D02*
X611578Y328459D01*
X609014Y327397D01*
X606813Y325707D01*
X605123Y323505D01*
X604061Y320941D01*
X603699Y318190D01*
X604061Y315438D01*
X605123Y312875D01*
X606813Y310673D01*
X609014Y308983D01*
X611578Y307921D01*
X614330Y307559D01*
X617081Y307921D01*
X619645Y308983D01*
X621847Y310673D01*
X623537Y312875D01*
X624599Y315438D01*
X624961Y318190D01*
X624599Y320941D01*
X623537Y323505D01*
X621847Y325707D01*
X619645Y327397D01*
X617081Y328459D01*
X614330Y328821D01*
D02*
G37*
G36*
X692560Y326682D02*
X690070Y326354D01*
X687749Y325393D01*
X685756Y323864D01*
X684227Y321871D01*
X683266Y319550D01*
X682938Y317060D01*
X683266Y314570D01*
X684227Y312249D01*
X685756Y310256D01*
X687749Y308727D01*
X690070Y307766D01*
X692560Y307438D01*
X695051Y307766D01*
X697371Y308727D01*
X699364Y310256D01*
X700893Y312249D01*
X701854Y314570D01*
X702182Y317060D01*
X701854Y319550D01*
X700893Y321871D01*
X699364Y323864D01*
X697371Y325393D01*
X695051Y326354D01*
X692560Y326682D01*
D02*
G37*
G36*
X639730Y316121D02*
X636978Y315759D01*
X634414Y314697D01*
X632213Y313007D01*
X630523Y310805D01*
X629461Y308241D01*
X629099Y305490D01*
X629461Y302738D01*
X630523Y300175D01*
X632213Y297973D01*
X634414Y296283D01*
X636978Y295221D01*
X639730Y294859D01*
X642481Y295221D01*
X645045Y296283D01*
X647247Y297973D01*
X648937Y300175D01*
X649999Y302738D01*
X650361Y305490D01*
X649999Y308241D01*
X648937Y310805D01*
X647247Y313007D01*
X645045Y314697D01*
X642481Y315759D01*
X639730Y316121D01*
D02*
G37*
G36*
X615600Y303254D02*
Y294060D01*
X624794D01*
X624599Y295541D01*
X623537Y298105D01*
X621847Y300307D01*
X619645Y301997D01*
X617081Y303059D01*
X615600Y303254D01*
D02*
G37*
G36*
X613060Y303254D02*
X611578Y303059D01*
X609014Y301997D01*
X606813Y300307D01*
X605123Y298105D01*
X604061Y295541D01*
X603866Y294060D01*
X613060D01*
Y303254D01*
D02*
G37*
G36*
X284810Y339432D02*
X282320Y339104D01*
X279999Y338143D01*
X278006Y336614D01*
X276477Y334621D01*
X275516Y332300D01*
X275188Y329810D01*
X275516Y327319D01*
X276477Y324999D01*
X278006Y323006D01*
X279999Y321477D01*
X282320Y320516D01*
X284810Y320188D01*
X287300Y320516D01*
X289621Y321477D01*
X291614Y323006D01*
X293143Y324999D01*
X293527Y325925D01*
X296001D01*
X316590Y305336D01*
X316240Y304489D01*
X315946Y302260D01*
X316240Y300031D01*
X317100Y297953D01*
X318469Y296169D01*
X320253Y294800D01*
X322331Y293940D01*
X324560Y293646D01*
X326789Y293940D01*
X328867Y294800D01*
X330651Y296169D01*
X332020Y297953D01*
X332880Y300031D01*
X333174Y302260D01*
X332880Y304489D01*
X332020Y306567D01*
X330651Y308351D01*
X328867Y309720D01*
X326789Y310580D01*
X324560Y310874D01*
X322333Y310581D01*
X300357Y332557D01*
X299097Y333399D01*
X297610Y333695D01*
X293527D01*
X293143Y334621D01*
X291614Y336614D01*
X289621Y338143D01*
X287300Y339104D01*
X284810Y339432D01*
D02*
G37*
G36*
X664560Y301178D02*
X662200Y300867D01*
X660001Y299956D01*
X658113Y298507D01*
X656664Y296619D01*
X655753Y294420D01*
X655442Y292060D01*
X655753Y289700D01*
X656664Y287501D01*
X658113Y285613D01*
X660001Y284164D01*
X662200Y283253D01*
X664560Y282942D01*
X666920Y283253D01*
X669119Y284164D01*
X671007Y285613D01*
X672456Y287501D01*
X673367Y289700D01*
X673678Y292060D01*
X673367Y294420D01*
X672456Y296619D01*
X671007Y298507D01*
X669119Y299956D01*
X666920Y300867D01*
X664560Y301178D01*
D02*
G37*
G36*
X613060Y291520D02*
X603866D01*
X604061Y290038D01*
X605123Y287474D01*
X606813Y285273D01*
X609014Y283583D01*
X611578Y282521D01*
X613060Y282326D01*
Y291520D01*
D02*
G37*
G36*
X624794D02*
X615600D01*
Y282326D01*
X617081Y282521D01*
X619645Y283583D01*
X621847Y285273D01*
X623537Y287474D01*
X624599Y290038D01*
X624794Y291520D01*
D02*
G37*
G36*
X286080Y289265D02*
Y281080D01*
X294265D01*
X294104Y282300D01*
X293143Y284621D01*
X291614Y286614D01*
X289621Y288143D01*
X287300Y289104D01*
X286080Y289265D01*
D02*
G37*
G36*
X283540D02*
X282320Y289104D01*
X279999Y288143D01*
X278006Y286614D01*
X276477Y284621D01*
X275516Y282300D01*
X275355Y281080D01*
X283540D01*
Y289265D01*
D02*
G37*
G36*
X519210Y309724D02*
X516981Y309430D01*
X514903Y308570D01*
X513119Y307201D01*
X511750Y305417D01*
X510890Y303339D01*
X510596Y301110D01*
Y288110D01*
X510890Y285881D01*
X511750Y283803D01*
X513119Y282019D01*
X514903Y280650D01*
X516981Y279790D01*
X519210Y279496D01*
X521439Y279790D01*
X523517Y280650D01*
X525301Y282019D01*
X526670Y283803D01*
X527530Y285881D01*
X527824Y288110D01*
Y301110D01*
X527530Y303339D01*
X526670Y305417D01*
X525301Y307201D01*
X523517Y308570D01*
X521439Y309430D01*
X519210Y309724D01*
D02*
G37*
G36*
X294265Y278540D02*
X286080D01*
Y270355D01*
X287300Y270515D01*
X289621Y271477D01*
X291614Y273006D01*
X293143Y274999D01*
X294104Y277320D01*
X294265Y278540D01*
D02*
G37*
G36*
X283540D02*
X275355D01*
X275516Y277320D01*
X276477Y274999D01*
X278006Y273006D01*
X279999Y271477D01*
X282320Y270515D01*
X283540Y270355D01*
Y278540D01*
D02*
G37*
%LPD*%
G36*
X542925Y563493D02*
Y496848D01*
X541752Y496362D01*
X524445Y513669D01*
Y562365D01*
X525647Y562773D01*
X526049Y562249D01*
X528147Y560640D01*
X530589Y559628D01*
X533210Y559283D01*
X535831Y559628D01*
X538273Y560640D01*
X540371Y562249D01*
X541655Y563924D01*
X542925Y563493D01*
D02*
G37*
G36*
X516675Y562385D02*
Y512060D01*
X516971Y510573D01*
X517813Y509313D01*
X562285Y464841D01*
Y445874D01*
X561015Y445348D01*
X542459Y463904D01*
X542991Y465189D01*
X543337Y467810D01*
X542991Y470431D01*
X541980Y472873D01*
X540371Y474971D01*
X538273Y476580D01*
X535831Y477592D01*
X533210Y477937D01*
X530589Y477592D01*
X528147Y476580D01*
X526049Y474971D01*
X524965Y473557D01*
X523695Y473988D01*
Y478810D01*
X523399Y480297D01*
X522557Y481557D01*
X511695Y492419D01*
Y560152D01*
X512873Y560640D01*
X514971Y562249D01*
X515405Y562816D01*
X516675Y562385D01*
D02*
G37*
%LPC*%
G36*
X935680Y309557D02*
Y295880D01*
X943024D01*
Y301110D01*
X942730Y303339D01*
X941870Y305417D01*
X940501Y307201D01*
X938717Y308570D01*
X936639Y309430D01*
X935680Y309557D01*
D02*
G37*
G36*
X943024Y293340D02*
X935680D01*
Y279664D01*
X936639Y279790D01*
X938717Y280650D01*
X940501Y282019D01*
X941870Y283803D01*
X942730Y285881D01*
X943024Y288110D01*
Y293340D01*
D02*
G37*
G36*
X469680Y309557D02*
Y295880D01*
X477024D01*
Y301110D01*
X476730Y303339D01*
X475870Y305417D01*
X474501Y307201D01*
X472717Y308570D01*
X470639Y309430D01*
X469680Y309557D01*
D02*
G37*
G36*
X477024Y293340D02*
X469680D01*
Y279664D01*
X470639Y279790D01*
X472717Y280650D01*
X474501Y282019D01*
X475870Y283803D01*
X476730Y285881D01*
X477024Y288110D01*
Y293340D01*
D02*
G37*
%LPD*%
D10*
X566170Y410391D02*
G03*
X566501Y409154I2540J16D01*
G01*
X576197Y392318D02*
G03*
X576174Y392359I-2224J-1226D01*
G01*
X580620Y383643D02*
G03*
X580304Y384869I-2540J0D01*
G01*
X482250Y328866D02*
G03*
X482250Y328810I7560J-56D01*
G01*
Y321310D02*
G03*
X482251Y321205I7560J0D01*
G01*
X482066Y279066D02*
G03*
X482810Y280897I-1796J1796D01*
G01*
X483554Y406554D02*
G03*
X482810Y404777I1796J-1796D01*
G01*
X566170Y465398D02*
G03*
X565426Y467194I-2540J0D01*
G01*
X393010Y370810D02*
Y377310D01*
X458810Y305383D02*
Y408410D01*
X545410Y377310D02*
X554057Y385957D01*
X545410Y370810D02*
Y377310D01*
X556858Y275862D02*
X577362D01*
X566170Y410391D02*
Y465398D01*
X493810Y294610D02*
Y321310D01*
X402820Y337120D02*
Y406400D01*
X367610Y370810D02*
Y400429D01*
X470810Y372410D02*
Y437810D01*
X469210Y370810D02*
X470810Y372410D01*
X559200Y388920D02*
X570810Y377310D01*
X430810Y313310D02*
Y408410D01*
X482250Y328866D02*
X482810Y404777D01*
X458600Y305173D02*
X458810Y305383D01*
X458600Y284600D02*
Y305173D01*
X452300Y278300D02*
X458600Y284600D01*
X427420Y278300D02*
X452300D01*
X417610Y288110D02*
X427420Y278300D01*
X417610Y288110D02*
Y294610D01*
X443010D02*
Y301110D01*
X430810Y313310D02*
X443010Y301110D01*
X545710Y287010D02*
X556858Y275862D01*
X544610Y287010D02*
X545710D01*
X544610D02*
Y294610D01*
X566501Y409154D02*
X573588Y396848D01*
X576174Y392359D01*
X576197Y392318D02*
X580304Y384869D01*
X580620Y311720D02*
Y383643D01*
X570010Y301110D02*
X580620Y311720D01*
X570010Y294610D02*
Y301110D01*
X570810Y370810D02*
Y377310D01*
X482250Y321310D02*
Y328810D01*
X482251Y321205D02*
X482810Y280897D01*
X474810Y271810D02*
X482066Y279066D01*
X407810Y271810D02*
X474810D01*
X396580Y283040D02*
X407810Y271810D01*
X396580Y283040D02*
Y289380D01*
X392210Y293750D02*
X396580Y289380D01*
X392210Y293750D02*
Y294610D01*
X366810D02*
Y301110D01*
X402820Y337120D01*
X483554Y406554D02*
X485810Y408810D01*
X533210Y467660D02*
Y467810D01*
Y467660D02*
X559060Y441810D01*
Y441323D02*
Y441810D01*
Y441323D02*
X559200Y441183D01*
Y388920D02*
Y441183D01*
X460810Y447810D02*
X470810Y437810D01*
X338810Y447810D02*
X460810D01*
X313810Y422810D02*
X338810Y447810D01*
X310810Y422810D02*
X313810D01*
X374810Y407630D02*
Y407810D01*
X367610Y400429D02*
X374810Y407630D01*
X402810Y406410D02*
X402820Y406400D01*
X493560Y325060D02*
X493810Y321310D01*
X520560Y512060D02*
X565426Y467194D01*
X520560Y512060D02*
Y572655D01*
X512495Y580720D02*
X520560Y572655D01*
X493720Y580720D02*
X512495D01*
X482410Y569410D02*
X493720Y580720D01*
X577362Y275862D02*
X585700Y284200D01*
Y385604D01*
X571250Y411810D02*
X585700Y385604D01*
X571250Y411810D02*
Y469370D01*
X546810Y493810D02*
X571250Y469370D01*
X546810Y493810D02*
Y573810D01*
X534820Y585800D02*
X546810Y573810D01*
X422600Y585800D02*
X534820D01*
X406210Y569410D02*
X422600Y585800D01*
X507810Y490810D02*
Y569410D01*
Y490810D02*
X519810Y478810D01*
Y465215D02*
Y478810D01*
Y465215D02*
X529215Y455810D01*
X537391D01*
X554120Y439081D01*
Y405140D02*
Y439081D01*
X554057Y405076D02*
X554120Y405140D01*
X554057Y385957D02*
Y405076D01*
X324457Y352057D02*
X324810Y352410D01*
X324457Y352057D02*
X324560Y352060D01*
X308672Y351610D02*
X324457Y352057D01*
X289727Y351073D02*
X308672Y351610D01*
X284948Y350938D02*
X289727Y351073D01*
X284810Y329810D02*
X297610D01*
X324810Y302610D01*
X1032170Y410391D02*
G03*
X1032501Y409154I2540J16D01*
G01*
X1042197Y392318D02*
G03*
X1042174Y392359I-2224J-1226D01*
G01*
X1046620Y383643D02*
G03*
X1046304Y384869I-2540J0D01*
G01*
X948250Y328866D02*
G03*
X948250Y328810I7560J-56D01*
G01*
Y321310D02*
G03*
X948251Y321205I7560J0D01*
G01*
X948066Y279066D02*
G03*
X948810Y280897I-1796J1796D01*
G01*
X949554Y406554D02*
G03*
X948810Y404777I1796J-1796D01*
G01*
X1032170Y465398D02*
G03*
X1031426Y467194I-2540J0D01*
G01*
X859010Y370810D02*
Y377310D01*
X924810Y305383D02*
Y408410D01*
X1011410Y377310D02*
X1020057Y385957D01*
X1011410Y370810D02*
Y377310D01*
X1022858Y275862D02*
X1043362D01*
X1032170Y410391D02*
Y465398D01*
X959810Y294610D02*
Y321310D01*
X868820Y337120D02*
Y406400D01*
X833610Y370810D02*
Y400429D01*
X936810Y372410D02*
Y437810D01*
X935210Y370810D02*
X936810Y372410D01*
X1025200Y388920D02*
X1036810Y377310D01*
X896810Y313310D02*
Y408410D01*
X948250Y328866D02*
X948810Y404777D01*
X924600Y305173D02*
X924810Y305383D01*
X924600Y284600D02*
Y305173D01*
X918300Y278300D02*
X924600Y284600D01*
X893420Y278300D02*
X918300D01*
X883610Y288110D02*
X893420Y278300D01*
X883610Y288110D02*
Y294610D01*
X909010D02*
Y301110D01*
X896810Y313310D02*
X909010Y301110D01*
X1011710Y287010D02*
X1022858Y275862D01*
X1010610Y287010D02*
X1011710D01*
X1010610D02*
Y294610D01*
X1032501Y409154D02*
X1039588Y396848D01*
X1042174Y392359D01*
X1042197Y392318D02*
X1046304Y384869D01*
X1046620Y311720D02*
Y383643D01*
X1036010Y301110D02*
X1046620Y311720D01*
X1036010Y294610D02*
Y301110D01*
X1036810Y370810D02*
Y377310D01*
X948250Y321310D02*
Y328810D01*
X948251Y321205D02*
X948810Y280897D01*
X940810Y271810D02*
X948066Y279066D01*
X873810Y271810D02*
X940810D01*
X862580Y283040D02*
X873810Y271810D01*
X862580Y283040D02*
Y289380D01*
X858210Y293750D02*
X862580Y289380D01*
X858210Y293750D02*
Y294610D01*
X832810D02*
Y301110D01*
X868820Y337120D01*
X949554Y406554D02*
X951810Y408810D01*
X999210Y467660D02*
Y467810D01*
Y467660D02*
X1025060Y441810D01*
Y441323D02*
Y441810D01*
Y441323D02*
X1025200Y441183D01*
Y388920D02*
Y441183D01*
X926810Y447810D02*
X936810Y437810D01*
X804810Y447810D02*
X926810D01*
X779810Y422810D02*
X804810Y447810D01*
X776810Y422810D02*
X779810D01*
X840810Y407630D02*
Y407810D01*
X833610Y400429D02*
X840810Y407630D01*
X868810Y406410D02*
X868820Y406400D01*
X959560Y325060D02*
X959810Y321310D01*
X986560Y512060D02*
X1031426Y467194D01*
X986560Y512060D02*
Y572655D01*
X978495Y580720D02*
X986560Y572655D01*
X959720Y580720D02*
X978495D01*
X948410Y569410D02*
X959720Y580720D01*
X1043362Y275862D02*
X1051700Y284200D01*
Y385604D01*
X1037250Y411810D02*
X1051700Y385604D01*
X1037250Y411810D02*
Y469370D01*
X1012810Y493810D02*
X1037250Y469370D01*
X1012810Y493810D02*
Y573810D01*
X1000820Y585800D02*
X1012810Y573810D01*
X888600Y585800D02*
X1000820D01*
X872210Y569410D02*
X888600Y585800D01*
X973810Y490810D02*
Y569410D01*
Y490810D02*
X985810Y478810D01*
Y465215D02*
Y478810D01*
Y465215D02*
X995215Y455810D01*
X1003391D01*
X1020120Y439081D01*
Y405140D02*
Y439081D01*
X1020057Y405076D02*
X1020120Y405140D01*
X1020057Y385957D02*
Y405076D01*
X790457Y352057D02*
X790810Y352410D01*
X790457Y352057D02*
X790560Y352060D01*
X774672Y351610D02*
X790457Y352057D01*
X755726Y351073D02*
X774672Y351610D01*
X750948Y350938D02*
X755726Y351073D01*
X750810Y329810D02*
X763610D01*
X790810Y302610D01*
X566170Y771891D02*
G03*
X566501Y770654I2540J16D01*
G01*
X576197Y753818D02*
G03*
X576174Y753859I-2224J-1226D01*
G01*
X580620Y745143D02*
G03*
X580304Y746369I-2540J0D01*
G01*
X482250Y690366D02*
G03*
X482250Y690310I7560J-56D01*
G01*
Y682810D02*
G03*
X482251Y682705I7560J0D01*
G01*
X482066Y640566D02*
G03*
X482810Y642397I-1796J1796D01*
G01*
X483554Y768054D02*
G03*
X482810Y766277I1796J-1796D01*
G01*
X566170Y826898D02*
G03*
X565426Y828694I-2540J0D01*
G01*
X393010Y732310D02*
Y738810D01*
X458810Y666883D02*
Y769910D01*
X545410Y738810D02*
X554057Y747457D01*
X545410Y732310D02*
Y738810D01*
X556858Y637362D02*
X577362D01*
X566170Y771891D02*
Y826898D01*
X493810Y656110D02*
Y682810D01*
X402820Y698620D02*
Y767900D01*
X367610Y732310D02*
Y761929D01*
X470810Y733910D02*
Y799310D01*
X469210Y732310D02*
X470810Y733910D01*
X559200Y750420D02*
X570810Y738810D01*
X430810Y674810D02*
Y769910D01*
X482250Y690366D02*
X482810Y766277D01*
X458600Y666673D02*
X458810Y666883D01*
X458600Y646100D02*
Y666673D01*
X452300Y639800D02*
X458600Y646100D01*
X427420Y639800D02*
X452300D01*
X417610Y649610D02*
X427420Y639800D01*
X417610Y649610D02*
Y656110D01*
X443010D02*
Y662610D01*
X430810Y674810D02*
X443010Y662610D01*
X545710Y648510D02*
X556858Y637362D01*
X544610Y648510D02*
X545710D01*
X544610D02*
Y656110D01*
X566501Y770654D02*
X573588Y758348D01*
X576174Y753859D01*
X576197Y753818D02*
X580304Y746369D01*
X580620Y673220D02*
Y745143D01*
X570010Y662610D02*
X580620Y673220D01*
X570010Y656110D02*
Y662610D01*
X570810Y732310D02*
Y738810D01*
X482250Y682810D02*
Y690310D01*
X482251Y682705D02*
X482810Y642397D01*
X474810Y633310D02*
X482066Y640566D01*
X407810Y633310D02*
X474810D01*
X396580Y644540D02*
X407810Y633310D01*
X396580Y644540D02*
Y650880D01*
X392210Y655250D02*
X396580Y650880D01*
X392210Y655250D02*
Y656110D01*
X366810D02*
Y662610D01*
X402820Y698620D01*
X483554Y768054D02*
X485810Y770310D01*
X533210Y829160D02*
Y829310D01*
Y829160D02*
X559060Y803310D01*
Y802823D02*
Y803310D01*
Y802823D02*
X559200Y802683D01*
Y750420D02*
Y802683D01*
X460810Y809310D02*
X470810Y799310D01*
X338810Y809310D02*
X460810D01*
X313810Y784310D02*
X338810Y809310D01*
X310810Y784310D02*
X313810D01*
X374810Y769129D02*
Y769310D01*
X367610Y761929D02*
X374810Y769129D01*
X402810Y767910D02*
X402820Y767900D01*
X493560Y686560D02*
X493810Y682810D01*
X520560Y873560D02*
X565426Y828694D01*
X520560Y873560D02*
Y934155D01*
X512495Y942220D02*
X520560Y934155D01*
X493720Y942220D02*
X512495D01*
X482410Y930910D02*
X493720Y942220D01*
X577362Y637362D02*
X585700Y645700D01*
Y747104D01*
X571250Y773310D02*
X585700Y747104D01*
X571250Y773310D02*
Y830870D01*
X546810Y855310D02*
X571250Y830870D01*
X546810Y855310D02*
Y935310D01*
X534820Y947300D02*
X546810Y935310D01*
X422600Y947300D02*
X534820D01*
X406210Y930910D02*
X422600Y947300D01*
X507810Y852310D02*
Y930910D01*
Y852310D02*
X519810Y840310D01*
Y826715D02*
Y840310D01*
Y826715D02*
X529215Y817310D01*
X537391D01*
X554120Y800581D01*
Y766639D02*
Y800581D01*
X554057Y766576D02*
X554120Y766639D01*
X554057Y747457D02*
Y766576D01*
X324457Y713557D02*
X324810Y713910D01*
X324457Y713557D02*
X324560Y713560D01*
X308672Y713110D02*
X324457Y713557D01*
X289727Y712573D02*
X308672Y713110D01*
X284948Y712438D02*
X289727Y712573D01*
X284810Y691310D02*
X297610D01*
X324810Y664110D01*
X1032170Y771891D02*
G03*
X1032501Y770654I2540J16D01*
G01*
X1042197Y753818D02*
G03*
X1042174Y753859I-2224J-1226D01*
G01*
X1046620Y745143D02*
G03*
X1046304Y746369I-2540J0D01*
G01*
X948250Y690366D02*
G03*
X948250Y690310I7560J-56D01*
G01*
Y682810D02*
G03*
X948251Y682705I7560J0D01*
G01*
X948066Y640566D02*
G03*
X948810Y642397I-1796J1796D01*
G01*
X949554Y768054D02*
G03*
X948810Y766277I1796J-1796D01*
G01*
X1032170Y826898D02*
G03*
X1031426Y828694I-2540J0D01*
G01*
X859010Y732310D02*
Y738810D01*
X924810Y666883D02*
Y769910D01*
X1011410Y738810D02*
X1020057Y747457D01*
X1011410Y732310D02*
Y738810D01*
X1022858Y637362D02*
X1043362D01*
X1032170Y771891D02*
Y826898D01*
X959810Y656110D02*
Y682810D01*
X868820Y698620D02*
Y767900D01*
X833610Y732310D02*
Y761929D01*
X936810Y733910D02*
Y799310D01*
X935210Y732310D02*
X936810Y733910D01*
X1025200Y750420D02*
X1036810Y738810D01*
X896810Y674810D02*
Y769910D01*
X948250Y690366D02*
X948810Y766277D01*
X924600Y666673D02*
X924810Y666883D01*
X924600Y646100D02*
Y666673D01*
X918300Y639800D02*
X924600Y646100D01*
X893420Y639800D02*
X918300D01*
X883610Y649610D02*
X893420Y639800D01*
X883610Y649610D02*
Y656110D01*
X909010D02*
Y662610D01*
X896810Y674810D02*
X909010Y662610D01*
X1011710Y648510D02*
X1022858Y637362D01*
X1010610Y648510D02*
X1011710D01*
X1010610D02*
Y656110D01*
X1032501Y770654D02*
X1039588Y758348D01*
X1042174Y753859D01*
X1042197Y753818D02*
X1046304Y746369D01*
X1046620Y673220D02*
Y745143D01*
X1036010Y662610D02*
X1046620Y673220D01*
X1036010Y656110D02*
Y662610D01*
X1036810Y732310D02*
Y738810D01*
X948250Y682810D02*
Y690310D01*
X948251Y682705D02*
X948810Y642397D01*
X940810Y633310D02*
X948066Y640566D01*
X873810Y633310D02*
X940810D01*
X862580Y644540D02*
X873810Y633310D01*
X862580Y644540D02*
Y650880D01*
X858210Y655250D02*
X862580Y650880D01*
X858210Y655250D02*
Y656110D01*
X832810D02*
Y662610D01*
X868820Y698620D01*
X949554Y768054D02*
X951810Y770310D01*
X999210Y829160D02*
Y829310D01*
Y829160D02*
X1025060Y803310D01*
Y802823D02*
Y803310D01*
Y802823D02*
X1025200Y802683D01*
Y750420D02*
Y802683D01*
X926810Y809310D02*
X936810Y799310D01*
X804810Y809310D02*
X926810D01*
X779810Y784310D02*
X804810Y809310D01*
X776810Y784310D02*
X779810D01*
X840810Y769129D02*
Y769310D01*
X833610Y761929D02*
X840810Y769129D01*
X868810Y767910D02*
X868820Y767900D01*
X959560Y686560D02*
X959810Y682810D01*
X986560Y873560D02*
X1031426Y828694D01*
X986560Y873560D02*
Y934155D01*
X978495Y942220D02*
X986560Y934155D01*
X959720Y942220D02*
X978495D01*
X948410Y930910D02*
X959720Y942220D01*
X1043362Y637362D02*
X1051700Y645700D01*
Y747104D01*
X1037250Y773310D02*
X1051700Y747104D01*
X1037250Y773310D02*
Y830870D01*
X1012810Y855310D02*
X1037250Y830870D01*
X1012810Y855310D02*
Y935310D01*
X1000820Y947300D02*
X1012810Y935310D01*
X888600Y947300D02*
X1000820D01*
X872210Y930910D02*
X888600Y947300D01*
X973810Y852310D02*
Y930910D01*
Y852310D02*
X985810Y840310D01*
Y826715D02*
Y840310D01*
Y826715D02*
X995215Y817310D01*
X1003391D01*
X1020120Y800581D01*
Y766639D02*
Y800581D01*
X1020057Y766576D02*
X1020120Y766639D01*
X1020057Y747457D02*
Y766576D01*
X790457Y713557D02*
X790810Y713910D01*
X790457Y713557D02*
X790560Y713560D01*
X774672Y713110D02*
X790457Y713557D01*
X755726Y712573D02*
X774672Y713110D01*
X750948Y712438D02*
X755726Y712573D01*
X750810Y691310D02*
X763610D01*
X790810Y664110D01*
D11*
X493560Y325060D02*
D03*
X309810Y473810D02*
D03*
X693060Y439810D02*
D03*
X693310Y490310D02*
D03*
X282810Y473310D02*
D03*
X959560Y325060D02*
D03*
X775810Y473810D02*
D03*
X1159060Y439810D02*
D03*
X1159310Y490310D02*
D03*
X748810Y473310D02*
D03*
X493560Y686560D02*
D03*
X309810Y835310D02*
D03*
X693060Y801310D02*
D03*
X693310Y851810D02*
D03*
X282810Y834810D02*
D03*
X959560Y686560D02*
D03*
X775810Y835310D02*
D03*
X1159060Y801310D02*
D03*
X1159310Y851810D02*
D03*
X748810Y834810D02*
D03*
D12*
X570010Y294610D02*
D03*
X1036010D02*
D03*
X570010Y656110D02*
D03*
X1036010D02*
D03*
D13*
X544610Y294610D02*
D03*
X519210D02*
D03*
X493810D02*
D03*
X468410D02*
D03*
X443010D02*
D03*
X417610D02*
D03*
X392210D02*
D03*
X520010Y370810D02*
D03*
X494610D02*
D03*
X469210D02*
D03*
X443810D02*
D03*
X418410D02*
D03*
X393010D02*
D03*
X367610D02*
D03*
X366810Y294610D02*
D03*
X545410Y370810D02*
D03*
X570810D02*
D03*
X1010610Y294610D02*
D03*
X985210D02*
D03*
X959810D02*
D03*
X934410D02*
D03*
X909010D02*
D03*
X883610D02*
D03*
X858210D02*
D03*
X986010Y370810D02*
D03*
X960610D02*
D03*
X935210D02*
D03*
X909810D02*
D03*
X884410D02*
D03*
X859010D02*
D03*
X833610D02*
D03*
X832810Y294610D02*
D03*
X1011410Y370810D02*
D03*
X1036810D02*
D03*
X544610Y656110D02*
D03*
X519210D02*
D03*
X493810D02*
D03*
X468410D02*
D03*
X443010D02*
D03*
X417610D02*
D03*
X392210D02*
D03*
X520010Y732310D02*
D03*
X494610D02*
D03*
X469210D02*
D03*
X443810D02*
D03*
X418410D02*
D03*
X393010D02*
D03*
X367610D02*
D03*
X366810Y656110D02*
D03*
X545410Y732310D02*
D03*
X570810D02*
D03*
X1010610Y656110D02*
D03*
X985210D02*
D03*
X959810D02*
D03*
X934410D02*
D03*
X909010D02*
D03*
X883610D02*
D03*
X858210D02*
D03*
X986010Y732310D02*
D03*
X960610D02*
D03*
X935210D02*
D03*
X909810D02*
D03*
X884410D02*
D03*
X859010D02*
D03*
X833610D02*
D03*
X832810Y656110D02*
D03*
X1011410Y732310D02*
D03*
X1036810D02*
D03*
D14*
X614330Y292790D02*
D03*
Y318190D02*
D03*
X639730Y305490D02*
D03*
X655210Y387060D02*
D03*
X629810Y387060D02*
D03*
X642510Y412460D02*
D03*
X310210Y442510D02*
D03*
Y417110D02*
D03*
X284810Y429810D02*
D03*
X1080330Y292790D02*
D03*
Y318190D02*
D03*
X1105730Y305490D02*
D03*
X1121210Y387060D02*
D03*
X1095810Y387060D02*
D03*
X1108510Y412460D02*
D03*
X776210Y442510D02*
D03*
Y417110D02*
D03*
X750810Y429810D02*
D03*
X614330Y654290D02*
D03*
Y679690D02*
D03*
X639730Y666990D02*
D03*
X655210Y748560D02*
D03*
X629810Y748560D02*
D03*
X642510Y773960D02*
D03*
X310210Y804010D02*
D03*
Y778610D02*
D03*
X284810Y791310D02*
D03*
X1080330Y654290D02*
D03*
Y679690D02*
D03*
X1105730Y666990D02*
D03*
X1121210Y748560D02*
D03*
X1095810Y748560D02*
D03*
X1108510Y773960D02*
D03*
X776210Y804010D02*
D03*
Y778610D02*
D03*
X750810Y791310D02*
D03*
D15*
X692310Y390060D02*
D03*
X692310Y415460D02*
D03*
X642560Y438560D02*
D03*
X667960Y438560D02*
D03*
X599310Y362560D02*
D03*
Y387960D02*
D03*
X664560Y292060D02*
D03*
X664560Y317460D02*
D03*
X345810Y433210D02*
D03*
Y407810D02*
D03*
X374810Y433210D02*
D03*
Y407810D02*
D03*
X458810Y433810D02*
D03*
Y408410D02*
D03*
X485810Y434210D02*
D03*
Y408810D02*
D03*
X514810Y434810D02*
D03*
Y409410D02*
D03*
X543810Y434810D02*
D03*
Y409410D02*
D03*
X430810Y433810D02*
D03*
Y408410D02*
D03*
X402810Y431810D02*
D03*
Y406410D02*
D03*
X1158310Y390060D02*
D03*
X1158310Y415460D02*
D03*
X1108560Y438560D02*
D03*
X1133960Y438560D02*
D03*
X1065310Y362560D02*
D03*
Y387960D02*
D03*
X1130560Y292060D02*
D03*
X1130560Y317460D02*
D03*
X811810Y433210D02*
D03*
Y407810D02*
D03*
X840810Y433210D02*
D03*
Y407810D02*
D03*
X924810Y433810D02*
D03*
Y408410D02*
D03*
X951810Y434210D02*
D03*
Y408810D02*
D03*
X980810Y434810D02*
D03*
Y409410D02*
D03*
X1009810Y434810D02*
D03*
Y409410D02*
D03*
X896810Y433810D02*
D03*
Y408410D02*
D03*
X868810Y431810D02*
D03*
Y406410D02*
D03*
X692310Y751560D02*
D03*
X692310Y776960D02*
D03*
X642560Y800060D02*
D03*
X667960Y800060D02*
D03*
X599310Y724060D02*
D03*
Y749460D02*
D03*
X664560Y653560D02*
D03*
X664560Y678960D02*
D03*
X345810Y794710D02*
D03*
Y769310D02*
D03*
X374810Y794710D02*
D03*
Y769310D02*
D03*
X458810Y795310D02*
D03*
Y769910D02*
D03*
X485810Y795710D02*
D03*
Y770310D02*
D03*
X514810Y796310D02*
D03*
Y770910D02*
D03*
X543810Y796310D02*
D03*
Y770910D02*
D03*
X430810Y795310D02*
D03*
Y769910D02*
D03*
X402810Y793310D02*
D03*
Y767910D02*
D03*
X1158310Y751560D02*
D03*
X1158310Y776960D02*
D03*
X1108560Y800060D02*
D03*
X1133960Y800060D02*
D03*
X1065310Y724060D02*
D03*
Y749460D02*
D03*
X1130560Y653560D02*
D03*
X1130560Y678960D02*
D03*
X811810Y794710D02*
D03*
Y769310D02*
D03*
X840810Y794710D02*
D03*
Y769310D02*
D03*
X924810Y795310D02*
D03*
Y769910D02*
D03*
X951810Y795710D02*
D03*
Y770310D02*
D03*
X980810Y796310D02*
D03*
Y770910D02*
D03*
X1009810Y796310D02*
D03*
Y770910D02*
D03*
X896810Y795310D02*
D03*
Y769910D02*
D03*
X868810Y793310D02*
D03*
Y767910D02*
D03*
D16*
X692560Y317060D02*
D03*
Y367060D02*
D03*
X642810Y465310D02*
D03*
X692810Y465310D02*
D03*
X619810Y348560D02*
D03*
X669810D02*
D03*
X284948Y350938D02*
D03*
Y400938D02*
D03*
X284810Y329810D02*
D03*
Y279810D02*
D03*
X335810Y523810D02*
D03*
Y473810D02*
D03*
X1158560Y317060D02*
D03*
Y367060D02*
D03*
X1108810Y465310D02*
D03*
X1158810Y465310D02*
D03*
X1085810Y348560D02*
D03*
X1135810D02*
D03*
X750948Y350938D02*
D03*
Y400938D02*
D03*
X750810Y329810D02*
D03*
Y279810D02*
D03*
X801810Y523810D02*
D03*
Y473810D02*
D03*
X692560Y678560D02*
D03*
Y728560D02*
D03*
X642810Y826810D02*
D03*
X692810Y826810D02*
D03*
X619810Y710060D02*
D03*
X669810D02*
D03*
X284948Y712438D02*
D03*
Y762438D02*
D03*
X284810Y691310D02*
D03*
Y641310D02*
D03*
X335810Y885310D02*
D03*
Y835310D02*
D03*
X1158560Y678560D02*
D03*
Y728560D02*
D03*
X1108810Y826810D02*
D03*
X1158810Y826810D02*
D03*
X1085810Y710060D02*
D03*
X1135810D02*
D03*
X750948Y712438D02*
D03*
Y762438D02*
D03*
X750810Y691310D02*
D03*
Y641310D02*
D03*
X801810Y885310D02*
D03*
Y835310D02*
D03*
D17*
X324560Y352060D02*
D03*
Y302260D02*
D03*
X790560Y352060D02*
D03*
Y302260D02*
D03*
X324560Y713560D02*
D03*
Y663760D02*
D03*
X790560Y713560D02*
D03*
Y663760D02*
D03*
D18*
X590060Y429560D02*
D03*
X590060Y409560D02*
D03*
X1056060Y429560D02*
D03*
X1056060Y409560D02*
D03*
X590060Y791060D02*
D03*
X590060Y771060D02*
D03*
X1056060Y791060D02*
D03*
X1056060Y771060D02*
D03*
D19*
X406210Y569410D02*
D03*
X431610D02*
D03*
X457010D02*
D03*
X482410D02*
D03*
X507810D02*
D03*
X533210D02*
D03*
Y467810D02*
D03*
X507810D02*
D03*
X482410D02*
D03*
X457010D02*
D03*
X431610D02*
D03*
X406210D02*
D03*
X872210Y569410D02*
D03*
X897610D02*
D03*
X923010D02*
D03*
X948410D02*
D03*
X973810D02*
D03*
X999210D02*
D03*
Y467810D02*
D03*
X973810D02*
D03*
X948410D02*
D03*
X923010D02*
D03*
X897610D02*
D03*
X872210D02*
D03*
X406210Y930910D02*
D03*
X431610D02*
D03*
X457010D02*
D03*
X482410D02*
D03*
X507810D02*
D03*
X533210D02*
D03*
Y829310D02*
D03*
X507810D02*
D03*
X482410D02*
D03*
X457010D02*
D03*
X431610D02*
D03*
X406210D02*
D03*
X872210Y930910D02*
D03*
X897610D02*
D03*
X923010D02*
D03*
X948410D02*
D03*
X973810D02*
D03*
X999210D02*
D03*
Y829310D02*
D03*
X973810D02*
D03*
X948410D02*
D03*
X923010D02*
D03*
X897610D02*
D03*
X872210D02*
D03*
D20*
X657810Y517810D02*
D03*
X287810D02*
D03*
X1123810D02*
D03*
X753810D02*
D03*
X657810Y879310D02*
D03*
X287810D02*
D03*
X1123810D02*
D03*
X753810D02*
D03*
D21*
X442560Y349060D02*
D03*
X307738Y338166D02*
D03*
X516560Y336560D02*
D03*
X318560Y389560D02*
D03*
X698810Y282560D02*
D03*
X417810Y497810D02*
D03*
X490560D02*
D03*
X580060Y497560D02*
D03*
X287310Y563560D02*
D03*
X353560D02*
D03*
X580560Y564310D02*
D03*
X656978Y565482D02*
D03*
X908560Y349060D02*
D03*
X773737Y338166D02*
D03*
X982560Y336560D02*
D03*
X784560Y389560D02*
D03*
X1164810Y282560D02*
D03*
X883810Y497810D02*
D03*
X956560D02*
D03*
X1046060Y497560D02*
D03*
X753310Y563560D02*
D03*
X819560D02*
D03*
X1046560Y564310D02*
D03*
X1122978Y565482D02*
D03*
X442560Y710560D02*
D03*
X307738Y699666D02*
D03*
X516560Y698060D02*
D03*
X318560Y751060D02*
D03*
X698810Y644060D02*
D03*
X417810Y859310D02*
D03*
X490560D02*
D03*
X580060Y859060D02*
D03*
X287310Y925060D02*
D03*
X353560D02*
D03*
X580560Y925810D02*
D03*
X656978Y926982D02*
D03*
X908560Y710560D02*
D03*
X773737Y699666D02*
D03*
X982560Y698060D02*
D03*
X784560Y751060D02*
D03*
X1164810Y644060D02*
D03*
X883810Y859310D02*
D03*
X956560D02*
D03*
X1046060Y859060D02*
D03*
X753310Y925060D02*
D03*
X819560D02*
D03*
X1046560Y925810D02*
D03*
X1122978Y926982D02*
D03*
M02*
