M48
;Layer_Color=9474304
;FILE_FORMAT=4:4
METRIC,LZ
;TYPE=PLATED
T1F00S00C0.4000
T2F00S00C0.6000
T3F00S00C0.7000
T4F00S00C0.8000
T5F00S00C0.9000
T6F00S00C3.1000
%
T01
X0025875Y0007875
X0032225Y0023975
X0032275Y003065
X00399168Y00307673
X00441Y0002475
X0018475Y0009125
X00049928Y00080356
X0006075Y0013175
X000295Y0030575
X0009575
X0016Y0024
X0023275
T02
X002614Y000368
X002868
X003122
X00313Y00113
X002876
X002622
X00257Y001516
Y00177
X00286
Y001516
X003415Y0013015
Y0010475
X0040675Y0005965
X0040675Y0003425
X004345Y0013225
X004345Y0015765
X0041015Y0018075
X0038475Y0018075
X00228Y001764
Y00151
X00201Y001506
Y00176
X00173
Y001506
X00145Y001486
Y00174
X00117Y001754
Y0015
X00088
Y001754
X001098Y00113
X001352
X001606
X00186
X002114
X002368
X00236Y000368
X002106
X001852
X001598
X001344
X00109
T03
X0043525Y00182
X004355Y002325
X0023575Y0006725
X0006675Y0004445
Y0009425
X00052Y00216
X00025Y002155
T04
X0035652Y0003498
Y0006038
X00362Y0009075
X00372Y0012925
X003974Y0012925
X003847Y0015465
X00385Y002075
X00435Y002075
X0043475Y0010925
X00412Y0009075
X0043475Y0005925
X0038192Y0004768
X002754Y0021
X0025
Y003116
X002754
X002246
X001992
X001738
X001484
Y0021
X001738
X001992
X002246
X00078Y00216
Y00266
X000524Y001847
Y001593
X00027Y00172
X00027138Y00143128
Y00093128
X00027Y00072
Y00022
T05
X0033225Y0015175
X0033225Y0017175
T06
X004Y0026
X0003
M30
